P2
108 88
4095
0
0
0
0
0
0
0
0
0
0
0
0
0
0
0
0
0
0
0
0
0
0
0
0
0
0
0
0
0
0
0
0
0
0
0
0
0
0
0
0
0
0
0
0
0
0
0
0
0
0
0
0
0
0
0
0
0
0
0
0
0
0
0
0
0
0
0
0
0
0
0
0
0
0
0
0
0
0
0
0
0
0
0
0
0
0
0
0
0
0
0
0
0
0
0
0
0
0
0
0
0
0
0
0
0
0
0
0
0
971
853
1216
885
1282
987
1352
1098
1486
1238
1433
1140
1531
1306
1605
1350
1707
1442
1690
1437
1653
1498
1787
1459
1691
1489
1677
1407
1715
1370
1662
1258
1619
1205
1573
1269
1542
1231
1559
1175
1572
1254
1514
1272
1562
1266
1482
1341
1705
1453
1787
1426
1690
1286
1706
1499
1693
1417
1734
1373
1642
1211
1385
1054
1423
1058
1322
1009
1309
1031
1316
1069
1269
1008
1258
1011
1238
891
1274
964
1245
921
1302
926
1234
941
1153
945
1205
838
1125
830
1079
811
1114
723
1017
728
1155
729
983
730
986
777
925
466
0
0
763
777
1044
701
1167
790
1212
987
1274
1065
1282
973
1277
1018
1423
1139
1434
1227
1533
1256
1579
1333
1725
1355
1669
1429
1707
1362
1644
1341
1584
1189
1521
1137
1557
1181
1410
1182
1347
1101
1421
1160
1371
1128
1331
1109
1352
1225
1596
1282
1647
1302
1521
1210
1486
1349
1619
1365
1669
1298
1586
1156
1390
1082
1360
999
1204
934
1258
914
1199
978
1186
915
1179
899
1118
873
1195
906
1176
906
1178
813
1182
941
1077
885
1084
842
1107
763
1045
733
936
699
994
645
1101
814
1031
713
1030
713
826
406
0
0
1045
953
1366
981
1429
1129
1547
1245
1654
1400
1606
1295
1647
1299
1621
1398
1771
1526
1869
1562
1871
1627
2034
1714
2054
1822
2102
1845
2122
1958
2234
1762
2117
1744
2164
1743
1956
1645
1861
1579
1871
1534
1828
1561
1882
1597
1842
1617
1975
1699
2071
1770
2103
1621
2008
1738
1966
1804
2177
1770
2157
1778
2101
1700
2069
1561
1784
1491
1822
1482
1832
1510
1828
1520
1773
1498
1732
1421
1772
1418
1702
1398
1764
1485
1903
1616
1780
1588
1786
1418
1762
1267
1524
1293
1565
1256
1598
1254
1705
1434
1778
1388
1786
1385
1540
1013
0
0
1433
1366
1713
1495
1866
1555
1966
1660
1949
1678
1866
1593
1903
1595
1851
1677
1934
1677
1964
1726
2051
1788
2081
1927
2034
1944
2162
1990
2287
2036
2376
1989
2330
2018
2356
2142
2260
1849
2101
1776
2110
1803
2058
1751
2030
1655
1878
1614
1993
1734
2037
1646
1908
1654
1894
1769
1998
1689
2030
1796
2039
1794
2061
1807
2029
1638
1867
1513
1817
1608
1806
1565
1782
1541
1610
1392
1713
1341
1545
1378
1610
1387
1649
1352
1739
1498
1748
1527
1745
1322
1637
1219
1589
1165
1480
1204
1482
1186
1721
1356
1757
1416
1748
1387
1397
791
0
0
1286
1221
1626
1364
1829
1450
2025
1627
1845
1579
1814
1536
1783
1341
1698
1420
1754
1491
1774
1510
1868
1471
1845
1675
1860
1650
1906
1782
2051
1832
2154
1837
2283
2109
2266
1867
2162
1811
2040
1704
2083
1765
2078
1728
2011
1609
1878
1451
1921
1520
1826
1492
1773
1500
1774
1521
1862
1428
1786
1582
1909
1642
1962
1674
2049
1617
1810
1505
1936
1560
1839
1499
1687
1313
1530
1275
1574
1161
1472
1225
1477
1162
1442
1190
1596
1352
1683
1402
1678
1218
1544
1118
1401
1123
1420
1118
1339
1172
1605
1294
1778
1432
1642
1258
1306
662
0
0
1105
1019
1333
1216
1560
1282
1747
1387
1669
1447
1578
1143
1469
1094
1333
1110
1392
1133
1431
1189
1493
1250
1557
1312
1563
1338
1599
1279
1633
1373
1724
1413
1943
1562
1963
1589
1750
1448
1787
1394
1813
1534
1892
1540
1836
1410
1634
1227
1667
1269
1625
1242
1429
1067
1467
1232
1491
1109
1478
1325
1513
1280
1528
1288
1610
1289
1588
1387
1743
1525
1652
1314
1391
1046
1307
938
1272
1011
1072
916
1281
927
1080
883
1203
974
1221
1157
1393
982
1307
965
1189
941
1094
851
1146
872
1385
1019
1544
1221
1453
1041
924
367
0
0
1355
1205
1640
1446
1967
1623
2140
1739
2067
1852
1990
1576
1922
1418
1714
1500
1812
1529
1902
1584
1909
1634
1943
1689
1987
1749
2059
1757
2025
1809
2137
1753
2217
1974
2318
1892
2062
1702
2186
1818
2248
1970
2330
2086
2356
1988
2178
1782
2151
2025
2225
1794
2005
1636
1893
1757
2050
1675
1930
1766
2037
1702
2018
1685
2021
1816
2081
1844
2357
2011
2257
1873
2087
1708
1829
1589
1881
1522
1737
1530
1829
1490
1814
1490
1924
1476
1840
1586
1929
1584
1981
1560
1933
1457
1754
1481
1732
1426
1935
1677
2177
1782
2002
1508
1503
923
0
0
1480
1436
1877
1737
2098
1973
2361
2020
2445
2088
2317
1915
2046
1723
2001
1692
2114
1890
2202
1794
1974
1828
2154
1729
2138
1788
2106
1776
2095
1842
2208
1924
2229
1981
2154
1855
2142
1849
2045
1839
2162
1986
2349
2000
2263
1957
2299
2033
2286
2101
2262
1826
2028
1793
2007
1737
1986
1693
1884
1552
1851
1612
1867
1590
1984
1565
1904
1718
2201
1843
2197
1804
2013
1642
1780
1572
1713
1403
1587
1279
1738
1304
1554
1345
1636
1330
1690
1413
1652
1446
1714
1537
1730
1362
1534
1202
1522
1235
1623
1483
1821
1577
1622
1266
1394
886
0
0
1271
1108
1572
1318
1850
1668
2122
1706
2045
1787
1980
1606
1893
1591
1882
1562
1992
1785
2147
1737
1917
1680
2013
1652
2061
1659
1972
1613
1966
1713
2023
1690
2038
1628
1938
1492
1928
1552
1885
1541
1867
1549
2014
1605
1974
1753
2043
1876
2155
1960
2138
1815
2108
1765
1957
1618
1853
1521
1731
1369
1738
1444
1669
1387
1791
1493
1815
1501
2003
1604
1906
1633
1741
1477
1705
1508
1632
1289
1481
1163
1533
1175
1476
1205
1462
1181
1497
1220
1399
1357
1573
1382
1565
1161
1398
981
1424
1208
1352
1221
1635
1288
1420
1041
1260
789
0
0
1018
855
1242
996
1435
1347
1712
1418
1739
1381
1549
1242
1398
1178
1445
1237
1685
1542
1917
1567
1787
1561
1863
1533
1910
1598
1780
1378
1683
1465
1714
1494
1743
1448
1579
1309
1594
1362
1538
1314
1570
1252
1677
1350
1611
1385
1682
1514
1910
1800
1970
1673
1882
1687
1949
1544
1787
1444
1571
1204
1510
1207
1463
1167
1474
1207
1498
1293
1648
1300
1637
1259
1430
1195
1521
1398
1570
1209
1386
1009
1346
977
1286
999
1256
974
1248
985
1287
1074
1302
1094
1348
941
1170
883
1149
915
1124
917
1262
936
1141
793
1115
567
0
0
1262
1107
1475
1168
1675
1405
1861
1482
1906
1485
1796
1430
1691
1381
1812
1492
1931
1797
2190
1851
2217
1961
2370
1936
2393
2026
2289
1874
2234
1951
2300
1917
2226
1806
2086
1796
2107
1834
2107
1731
1984
1643
2070
1690
2074
1796
2074
1866
2210
2054
2350
2052
2413
2089
2505
2021
2354
2011
2142
1722
2082
1746
2016
1650
2109
1654
2070
1782
2139
1750
2055
1702
1924
1713
2059
1847
2133
1834
1956
1562
1934
1627
1917
1526
1868
1534
1832
1533
1787
1568
1889
1675
1914
1520
1719
1329
1725
1488
1661
1411
1729
1406
1771
1352
1720
1250
0
0
1456
1402
1853
1477
1796
1574
1911
1523
1824
1540
1876
1549
1830
1637
1878
1557
1969
1816
2279
1970
2084
1938
2298
2072
2292
2095
2407
2155
2427
2237
2484
2118
2322
2050
2281
2024
2279
1954
2090
1733
1973
1750
1987
1613
1915
1693
2020
1762
2134
1801
2090
1866
2161
2009
2219
2017
2317
1993
2237
1860
2059
1718
1944
1577
1933
1586
1829
1645
1959
1565
1755
1514
1819
1504
1900
1642
1977
1546
1733
1485
1768
1498
1827
1339
1734
1382
1605
1395
1613
1336
1625
1431
1649
1229
1611
1134
1466
1187
1389
1172
1477
1237
1507
1231
1261
941
0
0
1401
1328
1724
1387
1677
1404
1719
1378
1714
1352
1730
1428
1677
1481
1774
1489
1830
1672
1978
1640
1906
1701
2036
1758
2065
1833
2151
1914
2227
1975
2316
2014
2276
2037
2348
2058
2293
1970
2184
1691
1888
1653
1889
1499
1833
1594
1888
1538
1942
1520
1901
1673
1986
1736
2054
1739
2122
1832
2101
1814
2054
1744
1936
1549
1830
1547
1850
1573
1803
1357
1654
1297
1743
1477
1715
1405
1654
1275
1579
1373
1701
1493
1674
1306
1659
1315
1565
1274
1553
1225
1581
1277
1413
1271
1499
1103
1418
1097
1326
1051
1355
1181
1370
1036
1189
750
0
0
1277
1221
1589
1204
1497
1173
1459
1181
1521
1157
1466
1213
1451
1226
1554
1165
1501
1338
1647
1419
1569
1295
1616
1421
1691
1403
1708
1555
1723
1581
1903
1697
1979
1861
2218
1914
2178
1818
2010
1508
1723
1369
1691
1326
1661
1324
1593
1270
1710
1321
1690
1466
1652
1422
1563
1349
1768
1419
1787
1513
1689
1489
1730
1483
1623
1367
1649
1403
1642
1205
1428
1147
1439
1007
1457
1158
1352
1060
1362
1087
1397
1226
1585
1077
1433
1248
1350
1159
1301
957
1236
990
1297
1104
1334
915
1257
898
1101
866
1157
879
1201
841
1008
535
0
0
1529
1397
1870
1510
1829
1483
1925
1593
1929
1546
1894
1475
1791
1485
1845
1485
1861
1579
1978
1663
1884
1658
1963
1673
1997
1702
2048
1802
1975
1815
2181
1946
2303
2098
2423
2115
2461
2226
2405
1918
2193
1915
2134
1900
2133
1818
2106
1778
2157
1764
2092
1786
2127
1869
2074
1770
2141
1870
2125
1777
2124
1869
2192
1791
2180
1866
2290
1939
2193
1698
1974
1653
1998
1591
1985
1659
1917
1597
1849
1512
1946
1691
2055
1623
2106
1759
1994
1736
1965
1498
1851
1513
1909
1586
1972
1498
1736
1482
1685
1431
1798
1370
1685
1294
1498
1018
0
0
1796
1786
2141
1837
2020
1854
2217
2027
2257
1830
2056
1803
2005
1675
2107
1861
2030
1729
1972
1814
2098
1725
2071
1782
2102
1776
1986
1765
2034
1771
2107
1886
2143
2037
2216
1978
2306
2054
2269
1943
2345
1957
2200
1943
2271
1882
2186
1867
2099
1802
2061
1762
1974
1746
1909
1634
1852
1619
1934
1749
1937
1621
1940
1741
1992
1785
2103
1799
1906
1556
1821
1467
1730
1557
1789
1451
1646
1473
1690
1402
1636
1413
1695
1538
1877
1578
1848
1538
1662
1302
1579
1362
1786
1551
1762
1396
1611
1258
1499
1195
1458
1176
1336
1079
1293
815
0
0
1597
1561
1919
1637
1886
1652
2098
1843
2172
1819
2121
1634
1970
1797
2155
1798
2026
1610
1936
1730
2034
1700
2007
1637
1997
1674
1950
1641
1940
1753
2114
1822
2165
1821
1990
1681
2130
1770
2018
1803
2142
1898
2230
2027
2322
1993
2242
2019
2298
1892
2101
1723
1940
1685
1824
1643
1792
1619
1862
1559
1877
1465
1806
1532
1942
1642
2034
1751
1848
1486
1816
1437
1749
1428
1655
1431
1655
1335
1574
1318
1621
1334
1646
1481
1834
1577
1778
1353
1615
1270
1549
1390
1891
1525
1776
1381
1722
1301
1419
1107
1412
1013
1157
937
1230
654
0
0
1114
1093
1462
1163
1430
1179
1547
1354
1724
1348
1651
1387
1675
1498
1778
1435
1755
1473
1731
1502
1802
1383
1717
1365
1678
1385
1604
1428
1663
1573
1914
1528
1814
1358
1675
1369
1736
1381
1630
1483
1757
1515
1857
1613
1947
1787
2061
1820
2126
1749
1917
1493
1646
1348
1603
1302
1527
1387
1587
1333
1508
1226
1517
1257
1535
1286
1636
1335
1591
1357
1645
1303
1562
1252
1439
1192
1373
1124
1324
1003
1301
1076
1323
1192
1500
1215
1449
1064
1317
1074
1398
1221
1644
1272
1516
1157
1422
1124
1302
861
1064
836
837
659
915
403
0
0
1302
1230
1531
1306
1571
1224
1652
1422
1837
1449
1821
1554
1935
1642
1974
1659
2012
1781
2106
1894
2314
1842
2196
1875
2165
1801
2072
1958
2301
2007
2419
1914
2170
1746
2013
1788
2088
1705
2124
1814
2196
1928
2299
1966
2327
2006
2482
2277
2629
2245
2548
2163
2391
1945
2157
1819
2043
1775
2054
1826
2094
1762
2031
1719
2037
1716
2059
1741
2026
1714
2133
1906
2180
1814
2117
1765
1997
1642
1893
1538
1906
1563
1947
1735
2013
1791
1975
1532
1914
1645
2172
1877
2186
1854
2003
1713
2021
1797
1966
1587
1757
1362
1542
1326
1542
942
0
0
1421
1425
1782
1478
1762
1405
1810
1541
1869
1559
1876
1578
2056
1612
2010
1704
2100
1934
2337
2064
2301
2138
2477
2077
2311
2018
2323
2093
2546
2275
2445
1970
2282
1942
2165
1798
2092
1882
2090
1878
2129
1814
2066
1834
2094
1874
2195
1963
2413
2164
2417
2239
2319
1978
2218
1832
2085
1822
2095
1755
2039
1747
1903
1642
1813
1556
1858
1499
1851
1632
1844
1683
2065
1753
1965
1710
1840
1509
1650
1332
1690
1378
1661
1521
1781
1411
1641
1396
1753
1579
1850
1651
1864
1589
1829
1451
1869
1652
1800
1515
1570
1139
1274
1037
1271
846
0
0
1390
1364
1642
1342
1674
1312
1734
1438
1741
1357
1714
1356
1779
1410
1782
1450
1834
1629
1937
1801
2117
2003
2350
2042
2310
2038
2366
2149
2461
2193
2393
1980
2233
1932
2167
1773
2085
1703
2053
1802
2087
1658
1963
1608
1874
1628
1924
1732
2125
1861
2150
1962
2247
1931
2261
1834
2207
1799
2164
1768
2020
1783
1869
1525
1776
1507
1825
1403
1782
1429
1675
1532
1891
1589
1982
1658
1922
1513
1652
1306
1661
1261
1530
1329
1562
1229
1534
1269
1617
1437
1764
1413
1629
1342
1630
1284
1725
1458
1682
1375
1498
1140
1270
1003
1174
681
0
0
1045
976
1336
1099
1333
994
1421
1069
1403
1047
1397
1008
1466
1062
1350
1208
1465
1229
1606
1365
1669
1527
1898
1645
1980
1769
2166
1939
2279
1981
2202
1792
2153
1675
1842
1523
1716
1467
1707
1395
1684
1359
1620
1358
1565
1318
1646
1410
1681
1369
1717
1558
1792
1622
1924
1702
2033
1702
1966
1641
1943
1541
1580
1239
1541
1160
1451
1155
1430
1154
1440
1286
1463
1285
1684
1368
1680
1361
1540
1153
1544
1078
1332
1060
1260
988
1330
1026
1324
1092
1450
1096
1378
1019
1258
977
1380
1051
1326
1107
1320
960
1146
772
827
366
0
0
1413
1370
1738
1448
1835
1512
1859
1533
1874
1462
1739
1343
1760
1425
1745
1424
1814
1619
1879
1541
1978
1736
2226
1933
2250
1993
2541
2245
2637
2360
2626
2259
2600
2165
2373
1940
2134
1842
2141
1854
2249
1835
2105
1858
2116
1851
2121
1707
2123
1770
2173
1857
2261
1930
2293
2138
2524
2254
2662
2260
2490
2074
2146
1754
2061
1763
2093
1706
2023
1700
1954
1650
2091
1764
2126
1810
2166
1918
2221
1905
2132
1706
1975
1634
2009
1591
1881
1613
2005
1676
1899
1556
1797
1563
1789
1553
1847
1466
1906
1601
1985
1464
1741
1306
1531
1026
0
0
1661
1674
2052
1777
2167
1925
2296
1909
2212
1783
2004
1673
1981
1725
1973
1629
2078
1770
2103
1873
2157
1844
2154
1846
2158
2025
2389
2370
2662
2423
2643
2379
2597
2260
2442
2056
2352
2114
2325
1996
2230
1885
2193
1922
2204
1817
2151
1773
2166
1815
2059
1737
2037
1861
2141
1898
2196
2177
2478
2231
2493
2052
2248
1841
1977
1690
1924
1621
1922
1493
1780
1590
1858
1604
1830
1579
1977
1746
2008
1841
2054
1734
1794
1538
1797
1571
1820
1522
1758
1320
1610
1328
1636
1362
1466
1325
1572
1301
1545
1374
1643
1353
1527
1178
1355
781
0
0
1450
1397
1769
1458
2133
1717
2170
1798
2052
1618
2049
1523
1873
1641
1960
1573
1972
1613
1994
1693
1965
1621
2037
1586
1941
1715
2160
1992
2355
2042
2308
1989
2262
1970
2153
1914
2358
2023
2402
2031
2155
1799
2033
1756
2089
1741
2029
1573
2052
1737
1955
1613
1944
1622
1880
1585
1908
1901
2248
2018
2325
1972
2164
1787
1939
1640
1842
1556
1888
1457
1766
1485
1704
1428
1758
1352
1665
1497
1834
1580
1834
1573
1853
1572
1835
1622
1726
1402
1557
1099
1464
1232
1419
1156
1342
1115
1541
1206
1403
1202
1483
1109
1237
1035
1211
635
0
0
1066
971
1421
1185
1626
1459
1778
1546
1841
1405
1789
1369
1653
1413
1738
1355
1658
1362
1727
1498
1803
1457
1753
1384
1640
1433
1597
1526
1929
1663
1933
1613
1829
1565
1766
1704
2065
1933
2122
1730
2013
1674
1894
1619
1945
1613
1805
1438
1781
1457
1638
1350
1671
1436
1665
1281
1605
1453
1770
1589
1913
1695
1874
1587
1888
1466
1645
1387
1707
1390
1650
1285
1462
1210
1437
1106
1430
1178
1353
1220
1533
1275
1545
1428
1638
1486
1557
1254
1278
923
1173
1054
1243
949
1096
950
1283
905
1189
933
1109
871
1035
763
1033
438
0
0
1290
1194
1613
1328
1865
1517
1915
1662
1934
1563
2051
1602
1949
1745
2153
1718
2151
1874
2319
2058
2308
1913
2138
1714
1977
1765
1978
1870
2085
1858
2181
1896
2155
1924
2243
2001
2477
2159
2359
2142
2474
2075
2502
2322
2564
2249
2493
1970
2395
1989
2117
1867
2249
2002
2207
1757
2126
1849
2098
1940
2254
1940
2294
2139
2367
2078
2327
2010
2422
2128
2391
1891
2133
1706
2086
1648
1941
1661
1973
1730
2090
1779
2194
2018
2379
2113
2114
1803
2026
1541
1853
1590
1834
1522
1662
1454
1825
1393
1750
1458
1736
1388
1659
1361
1680
1040
0
0
1473
1461
1779
1457
1826
1670
1892
1621
1901
1655
1954
1638
2013
1748
2091
1961
2244
2120
2486
2267
2445
2043
2149
1797
2055
1847
2098
1809
2146
1883
2213
1810
2187
1828
2263
1973
2258
1988
2205
1975
2299
1989
2438
2178
2512
2359
2533
2136
2359
1967
2171
1940
2096
1997
2158
1745
1937
1678
1797
1721
1974
1705
1962
1787
2075
1874
2229
2020
2298
2130
2277
1857
1897
1554
1857
1490
1635
1369
1718
1518
1814
1626
2023
1767
2026
1690
1883
1471
1730
1466
1622
1357
1548
1225
1548
1252
1465
1182
1584
1239
1433
1109
1352
1085
1275
922
0
0
1325
1283
1682
1401
1788
1522
1826
1495
1833
1403
1739
1359
1813
1498
1917
1783
2263
2213
2500
2221
2384
1838
2086
1698
1926
1703
2012
1655
1986
1679
1986
1702
1974
1717
2058
1726
2093
1636
2018
1751
2075
1751
2166
2004
2410
2342
2440
2138
2396
1990
2178
1975
2278
2012
2122
1709
1869
1568
1756
1549
1860
1653
1804
1446
1896
1637
2059
1845
2253
2049
2266
1843
1841
1497
1726
1390
1614
1362
1602
1442
1837
1573
1869
1624
1780
1413
1579
1228
1579
1453
1660
1339
1513
1157
1495
1120
1435
973
1394
1038
1307
1053
1265
961
1210
760
0
0
1243
1194
1542
1246
1602
1380
1562
1145
1466
1172
1378
1173
1602
1257
1685
1623
2058
1899
2229
2010
2133
1662
1990
1666
1862
1618
1824
1504
1770
1437
1767
1454
1787
1437
1768
1453
1740
1357
1733
1486
1745
1451
1812
1676
2114
1908
2126
1797
2091
1741
1982
1842
2122
1907
2008
1578
1657
1297
1645
1362
1593
1366
1533
1284
1655
1301
1749
1604
1924
1821
1989
1534
1702
1432
1611
1285
1398
1154
1454
1221
1474
1211
1622
1314
1511
1149
1349
913
1400
1218
1508
1133
1281
993
1258
1009
1234
806
1207
853
1103
853
1079
660
934
530
0
0
1544
1454
1855
1563
1938
1716
1994
1597
1803
1510
1806
1506
1858
1587
2054
2034
2532
2225
2618
2196
2441
2097
2379
2195
2409
2043
2295
1896
2185
1903
2353
1985
2195
1852
2181
1776
2136
1800
2128
1849
2250
1829
2206
1974
2405
2218
2389
2050
2364
2206
2506
2335
2722
2348
2524
2020
2221
1865
2021
1924
2097
1895
2093
1745
2110
1757
2183
1966
2359
2154
2349
2011
2250
1994
2275
1882
2025
1741
2082
1755
2010
1686
2036
1739
1925
1569
1858
1519
1931
1722
2011
1684
1990
1737
1983
1658
1808
1460
1735
1396
1650
1425
1650
1290
1555
1097
0
0
1775
1640
2045
1861
2178
1879
2201
1874
2027
1877
2056
1723
2067
1789
2336
2169
2492
2228
2510
2258
2390
2155
2490
2317
2542
2218
2425
2113
2436
2170
2395
2210
2470
1879
2218
1851
2107
1723
2037
1722
2147
1907
2057
1738
2210
1914
2194
1858
2110
1929
2308
2184
2482
2181
2374
1949
2224
1828
2066
1881
2041
1822
1959
1694
1910
1623
1922
1686
2126
1758
1962
1608
2037
1726
2032
1676
1974
1652
1853
1620
1815
1450
1695
1405
1569
1342
1571
1365
1619
1424
1690
1485
1822
1594
1785
1474
1650
1290
1501
1193
1429
1054
1428
1124
1335
787
0
0
1653
1455
1945
1636
1998
1736
2013
1738
1961
1719
1986
1616
1946
1758
2173
1956
2369
1997
2257
1957
2154
1882
2308
2113
2469
2117
2362
2132
2477
2312
2597
2294
2577
1969
2102
1786
1998
1704
2030
1768
2042
1750
2023
1637
1994
1710
2013
1643
1959
1796
2168
1970
2298
1990
2247
1930
2355
1977
2197
1937
2100
1885
2009
1697
1947
1563
1842
1561
2005
1685
1844
1480
1853
1527
1787
1588
1941
1810
2141
1738
1922
1538
1615
1200
1547
1270
1563
1338
1557
1322
1687
1457
1726
1545
1860
1494
1709
1275
1494
1093
1384
1018
1275
1110
1188
745
0
0
1131
1125
1373
1217
1627
1266
1533
1277
1502
1236
1534
1225
1613
1368
1757
1585
1773
1451
1739
1402
1610
1450
1902
1703
1936
1654
1968
1884
2249
2053
2395
2063
2276
1786
1822
1416
1707
1405
1719
1435
1658
1349
1750
1330
1580
1345
1707
1376
1688
1398
1694
1475
1839
1580
1760
1530
1949
1720
2053
1781
2004
1734
1910
1634
1722
1335
1464
1221
1585
1212
1474
1133
1498
1099
1385
1238
1723
1525
1868
1614
1802
1297
1324
1038
1258
1034
1318
1147
1259
1018
1334
1144
1448
1230
1511
1277
1467
1049
1221
795
1021
841
1018
808
909
464
0
0
1355
1141
1620
1292
1739
1380
1716
1412
1739
1435
1780
1408
1901
1570
1988
1651
1975
1610
2001
1698
1946
1666
2180
1898
2146
1909
2263
2103
2666
2473
2789
2516
2667
2166
2251
1892
2078
1787
2137
1841
2171
1898
2074
1809
2150
1877
2225
1841
2129
1773
2170
1845
2156
1820
2229
1942
2377
2128
2500
2250
2581
2345
2639
2187
2450
1910
2107
1761
2118
1713
1954
1634
2021
1627
2001
1732
2166
2053
2482
2102
2326
1772
1905
1591
1829
1561
1944
1583
1802
1570
1982
1652
1980
1655
1990
1722
2038
1608
1869
1391
1709
1355
1653
1314
1513
1010
0
0
1505
1412
1741
1497
1898
1527
1846
1500
1847
1635
1875
1657
1970
1690
2077
1741
2171
1743
2139
1703
2034
1774
2053
1858
2089
1893
2296
2120
2543
2514
2734
2478
2571
2084
2338
1889
2181
1942
2218
2050
2297
1921
2179
1938
2253
1898
2142
1845
1982
1786
1939
1672
2002
1719
2144
1768
2124
1834
2167
2075
2441
2123
2440
2031
2143
1858
1986
1695
1908
1626
1786
1506
1637
1431
1845
1573
2032
1835
2085
1913
2060
1592
1681
1386
1581
1252
1585
1375
1579
1437
1663
1422
1602
1397
1682
1435
1640
1314
1636
1213
1520
1234
1413
1141
1284
739
0
0
1442
1266
1680
1489
1790
1399
1829
1341
1798
1514
1761
1529
1813
1638
1998
1661
2197
1780
1949
1617
1933
1624
1970
1739
2007
1746
2114
1958
2327
2199
2581
2282
2324
1953
2123
1754
2158
1914
2251
2056
2412
2017
2369
2028
2363
1937
2037
1714
1975
1717
1933
1579
1926
1724
2153
1738
1914
1689
1985
1725
2125
1848
2210
1904
2142
1869
2020
1829
2001
1592
1706
1478
1600
1351
1742
1516
1951
1673
1866
1586
1884
1442
1698
1412
1526
1306
1590
1280
1531
1175
1500
1283
1497
1248
1547
1270
1502
1259
1522
1193
1550
1218
1330
1124
1221
689
0
0
1144
1061
1450
1304
1563
1282
1563
1186
1572
1309
1463
1251
1573
1366
1825
1495
1932
1449
1655
1387
1573
1341
1578
1372
1613
1391
1755
1478
1927
1853
2082
1772
1906
1522
1821
1512
1786
1642
2084
1754
2197
1838
2228
1829
2135
1722
1822
1490
1698
1446
1674
1364
1616
1446
1815
1422
1551
1282
1623
1312
1709
1451
1786
1465
1794
1612
1903
1687
1745
1314
1581
1243
1425
1149
1422
1197
1622
1395
1524
1226
1441
1147
1419
1201
1410
1053
1331
1111
1190
1014
1182
908
1250
1053
1172
933
1293
890
1269
1028
1372
1066
1153
850
971
411
0
0
1453
1305
1730
1573
1995
1685
1989
1654
2024
1659
1998
1723
2105
1893
2444
2094
2419
1829
2097
1721
2027
1707
2006
1782
2081
1762
2224
1835
2250
2155
2382
1968
2213
1893
2201
1837
2202
2021
2413
2193
2568
2340
2740
2366
2731
2293
2595
2120
2401
1989
2320
1843
2146
1867
2171
1929
2147
1742
2101
1817
2216
1844
2189
1868
2194
2003
2414
2165
2379
2074
2117
1802
1946
1716
2018
1777
2191
1796
2026
1691
1937
1683
2153
1874
2121
1703
2006
1642
1843
1562
1798
1437
1788
1448
1773
1488
1735
1462
1844
1459
1918
1665
1805
1477
1670
1067
0
0
1587
1474
2001
1691
2185
1956
2215
1909
2058
1890
2230
2022
2376
2264
2593
2335
2501
2184
2262
2009
2245
1983
2201
1840
2228
1901
2298
2042
2343
2109
2330
1974
2120
1877
2192
1981
2255
1914
2301
2055
2503
2228
2555
2382
2635
2395
2590
2294
2445
2135
2364
2021
2158
1802
2018
1770
2032
1660
1985
1719
1900
1696
1925
1739
2012
1802
2224
1992
2242
2029
2114
1804
1995
1644
1877
1605
1862
1507
1764
1371
1741
1460
1953
1818
2066
1731
1825
1470
1714
1358
1600
1392
1714
1284
1554
1293
1741
1314
1497
1330
1609
1449
1647
1325
1496
878
0
0
1431
1253
1771
1377
1903
1612
2027
1641
1883
1621
1989
1674
2178
2067
2393
1980
2326
1965
2212
1995
2299
1903
2160
1705
2180
1919
2325
2061
2285
1874
2142
1813
1945
1790
2085
1751
2038
1700
2053
1796
2119
1942
2292
1995
2262
2017
2341
2023
2403
2070
2322
1963
2043
1670
1915
1690
1984
1578
1960
1611
1817
1559
1826
1512
1859
1638
2038
1754
2101
1811
1993
1705
2037
1584
1864
1465
1750
1354
1604
1236
1622
1396
1888
1759
2033
1630
1778
1416
1771
1253
1609
1355
1513
1167
1386
1138
1475
1178
1371
1166
1427
1291
1586
1213
1339
613
0
0
1018
920
1417
1101
1477
1234
1563
1173
1442
1194
1499
1242
1718
1669
2062
1598
1810
1597
1826
1659
1883
1702
1908
1512
1961
1780
2117
1918
2165
1757
1880
1595
1720
1416
1762
1452
1757
1437
1733
1474
1796
1593
1821
1563
1805
1591
1834
1643
1995
1851
2059
1789
1880
1527
1718
1549
1789
1407
1655
1354
1515
1301
1541
1272
1527
1274
1605
1298
1689
1498
1762
1555
1942
1457
1690
1338
1554
1130
1348
1076
1390
1157
1709
1517
1746
1381
1597
1235
1514
1165
1426
1173
1352
1044
1108
958
1178
846
1171
913
1250
1038
1318
907
1033
475
0
0
1307
1214
1641
1239
1755
1442
1691
1452
1754
1473
1866
1545
2034
1842
2200
1829
2085
1773
2049
1924
2231
1978
2282
1968
2469
2278
2762
2494
2753
2242
2493
2081
2219
1860
2248
1851
2216
1889
2241
1878
2289
1892
2299
1996
2246
2030
2236
2066
2421
2130
2513
2181
2398
2098
2402
2246
2546
2141
2288
1918
2065
1810
2075
1778
2067
1812
2021
1736
2159
1933
2225
2073
2506
2179
2494
1996
2278
1682
1931
1588
1989
1727
2213
2039
2288
1842
2065
1807
2111
1893
2116
1743
2052
1646
1713
1544
1915
1483
1762
1425
1847
1608
1930
1451
1697
998
0
0
1515
1476
1882
1506
1849
1586
1946
1654
1910
1623
1901
1595
2110
1879
2196
1787
2122
1773
2097
1794
2133
1898
2293
1965
2459
2437
2790
2551
2766
2407
2561
2133
2429
1988
2186
1941
2182
1938
2176
1894
2195
1927
2189
1954
2172
1947
2058
1794
2094
1826
2253
1962
2178
1963
2402
2298
2451
2177
2261
1925
2004
1768
1909
1649
1947
1662
1815
1554
1877
1591
1829
1672
2189
1929
2266
1858
2070
1530
1687
1431
1709
1544
1957
1731
1867
1458
1701
1464
1860
1551
1936
1570
1738
1370
1467
1333
1597
1341
1637
1278
1586
1380
1474
1210
1386
883
0
0
1495
1355
1731
1444
1725
1424
1678
1485
1722
1399
1716
1514
1944
1605
1984
1567
1965
1566
1907
1592
1984
1610
2030
1830
2283
2219
2571
2336
2548
2313
2446
2090
2354
1964
2268
1912
2088
1734
2104
1898
2066
1796
2067
1746
2062
1767
1940
1718
1974
1661
1995
1710
1965
1774
2249
2109
2294
2044
2253
1882
1913
1737
1931
1735
1941
1547
1765
1467
1745
1398
1701
1510
1933
1729
2152
1680
1973
1474
1540
1471
1659
1398
1742
1466
1730
1254
1589
1278
1635
1492
1696
1432
1595
1265
1477
1204
1524
1192
1558
1098
1546
1182
1339
1042
1291
772
0
0
1322
1181
1581
1178
1421
1122
1467
1169
1401
1228
1527
1259
1647
1346
1590
1186
1586
1371
1638
1298
1614
1379
1691
1427
1804
1814
2241
1847
2146
1847
2203
1917
2242
1911
2093
1796
1937
1580
1821
1704
1978
1733
1927
1594
1826
1490
1750
1370
1659
1323
1774
1426
1669
1451
1901
1787
1973
1691
1877
1669
1850
1633
1943
1625
1837
1429
1558
1207
1448
1226
1419
1173
1521
1331
1729
1291
1558
1205
1387
1248
1509
1128
1521
1229
1335
997
1179
960
1353
1014
1450
1175
1397
996
1215
997
1165
1065
1264
877
1162
885
1082
772
1058
543
0
0
1681
1658
1972
1613
1858
1481
1781
1425
1813
1508
1965
1712
2035
1563
1917
1572
1933
1574
1923
1586
1938
1669
2038
1864
2141
2030
2480
2141
2383
2185
2459
2251
2677
2346
2594
2291
2510
2017
2477
2258
2646
2312
2438
2093
2351
1980
2229
1914
2174
1834
2254
1901
2212
1909
2297
2054
2318
2024
2378
2105
2429
2286
2557
2277
2619
2089
2196
1770
1954
1701
1967
1655
2090
1750
2171
1814
2052
1783
2053
1818
2055
1650
1993
1671
1989
1540
1824
1572
1868
1539
1910
1701
2041
1586
1797
1539
1837
1449
1871
1457
1764
1448
1558
1344
1634
1203
0
0
1794
1770
2232
1909
2085
1653
1937
1783
2013
1880
2221
1989
2204
1809
2022
1812
1933
1718
1933
1754
1993
1754
2043
1732
2123
2022
2330
2029
2213
1926
2391
2167
2517
2329
2587
2258
2421
2165
2595
2297
2610
2234
2491
2154
2230
1916
2149
1868
2045
1788
2052
1802
2057
1690
2093
1840
2081
1842
2021
1821
2178
2097
2445
2221
2504
1975
2007
1637
1846
1529
1764
1495
1707
1485
1821
1514
1770
1554
1889
1677
1846
1458
1737
1317
1671
1322
1489
1310
1610
1302
1594
1418
1757
1435
1642
1379
1604
1267
1412
1222
1508
1192
1327
1085
1336
946
0
0
1647
1518
1974
1576
1867
1605
1907
1669
2114
1894
2292
2043
2217
1861
1958
1819
1899
1685
1879
1648
1919
1638
1966
1604
2049
1821
2198
1851
2141
1860
2222
1898
2362
2117
2439
2007
2269
1963
2297
2133
2397
2118
2365
2012
2267
1905
2222
1950
2161
1757
2005
1709
1962
1626
1950
1789
1990
1729
1902
1610
2022
1949
2333
2084
2394
2000
1957
1525
1801
1501
1770
1410
1659
1412
1645
1429
1650
1396
1769
1572
1821
1506
1689
1331
1682
1285
1530
1259
1565
1242
1505
1257
1621
1417
1634
1293
1469
1244
1394
1173
1458
1147
1261
1033
1305
823
0
0
1158
1109
1397
1132
1469
1172
1503
1416
1899
1802
2084
1713
1966
1512
1817
1556
1768
1410
1646
1395
1732
1408
1717
1360
1687
1487
1812
1531
1799
1493
1866
1529
1837
1642
1957
1712
1877
1540
1885
1604
1882
1606
1841
1610
1890
1538
2017
1759
1937
1609
1751
1572
1687
1307
1717
1573
1800
1466
1591
1429
1842
1723
2011
1714
2089
1621
1706
1390
1541
1174
1523
1154
1444
1162
1423
1163
1500
1054
1514
1242
1580
1367
1551
1156
1429
1074
1286
970
1346
1037
1282
996
1339
1070
1301
1137
1297
993
1190
918
1186
857
1115
864
1115
536
0
0
1282
1178
1656
1312
1659
1350
1693
1576
2021
1989
2370
1924
2181
1734
2055
1807
2151
1855
2105
1917
2211
1909
2107
1763
2157
1979
2269
1902
2213
1783
2299
1928
2208
1911
2229
1930
2180
1860
2295
1923
2171
1898
2226
1975
2203
1936
2405
2138
2506
2071
2369
2039
2279
1877
2209
2103
2410
2032
2073
1850
2177
2014
2283
1986
2333
1994
2262
1850
2182
1732
2150
1800
1931
1637
1978
1645
1981
1554
1955
1662
2194
1890
2069
1815
2010
1623
1903
1581
1868
1539
1938
1578
1822
1555
1828
1702
1958
1566
1810
1481
1761
1530
1668
1305
1677
1089
0
0
1490
1437
1743
1498
1817
1594
1901
1633
2028
1990
2309
1890
2093
1808
2053
1761
2086
1974
2282
2105
2357
2120
2290
1914
2251
2014
2173
1810
2130
1833
2109
1866
2178
1844
2199
1813
2090
1819
2115
1878
2135
1837
2082
1851
2021
1877
2157
1932
2233
1913
2217
1897
2214
1866
2213
1989
2266
1828
2027
1605
1941
1621
1876
1733
1940
1658
1943
1658
1967
1633
1879
1516
1803
1461
1762
1538
1788
1542
1604
1445
1654
1505
1723
1451
1689
1422
1619
1341
1610
1318
1562
1348
1549
1179
1522
1250
1583
1333
1653
1437
1630
1346
1405
1180
1370
778
0
0
1496
1305
1637
1386
1652
1480
1813
1483
1949
1740
2121
1598
1926
1621
1959
1611
1941
1738
2061
1870
2282
1972
2292
1912
2304
2042
2154
1840
2100
1875
2101
1802
2053
1747
2096
1717
2026
1722
2040
1785
2156
1777
1978
1776
1988
1735
2026
1785
2100
1767
2111
1787
2213
1993
2301
2134
2307
1802
1986
1544
1875
1500
1836
1584
1881
1563
1761
1549
1912
1669
2033
1586
1805
1490
1753
1416
1622
1379
1554
1325
1650
1384
1695
1391
1641
1323
1540
1235
1546
1291
1537
1305
1429
1159
1452
1131
1601
1282
1632
1396
1658
1186
1360
1074
1257
643
0
0
1061
997
1346
1090
1416
1181
1573
1205
1563
1389
1589
1181
1537
1212
1534
1244
1562
1277
1631
1499
1778
1638
1977
1576
1943
1675
1922
1520
1813
1605
1774
1461
1755
1418
1814
1454
1634
1499
1835
1516
1805
1455
1685
1411
1658
1435
1643
1341
1706
1362
1666
1449
1829
1670
2087
1815
2034
1533
1654
1258
1606
1301
1474
1293
1541
1359
1562
1288
1546
1274
1655
1382
1613
1245
1539
1131
1371
1093
1307
1058
1341
1126
1488
1087
1355
1028
1362
1078
1270
941
1266
1026
1138
893
1210
911
1328
1011
1309
1010
1224
961
1202
973
1033
466
0
0
1446
1213
1597
1195
1661
1410
1799
1412
1850
1570
1840
1402
1810
1539
1889
1555
1898
1686
2020
1748
2081
1779
2201
1845
2230
1934
2244
2012
2282
2002
2234
1898
2197
1837
2195
1905
2147
1867
2218
1924
2246
1842
2165
1846
2157
1866
2129
1841
2106
1757
2166
1819
2276
2059
2410
2136
2484
1979
2133
1720
2015
1741
1993
1733
2060
1782
2014
1653
2057
1722
2187
1883
2344
1960
2074
1651
1942
1621
1906
1578
1922
1614
1945
1690
1924
1685
1966
1571
1922
1512
1838
1526
1767
1405
1781
1437
1834
1498
1750
1456
1818
1563
1812
1525
1690
1047
0
0
1650
1485
1854
1636
1908
1588
1921
1748
1997
1674
2028
1617
1887
1654
2084
1780
2037
1815
2133
1797
2147
1872
2177
1897
2247
2052
2282
2122
2318
2131
2482
2107
2266
1961
2178
1890
2137
1933
2322
2037
2255
1931
2204
1919
2158
1826
2090
1797
2118
1765
2022
1867
2153
1965
2219
1974
2162
1851
2086
1722
1908
1679
1899
1626
1949
1633
1858
1594
1864
1608
1994
1840
2123
1906
2033
1610
1730
1474
1661
1425
1773
1492
1680
1540
1726
1493
1796
1552
1668
1416
1585
1441
1509
1398
1535
1250
1597
1314
1549
1296
1604
1455
1755
1384
1490
976
0
0
1611
1489
1678
1554
1828
1505
1890
1638
1898
1540
1806
1503
1834
1586
1891
1605
1853
1585
1941
1691
1930
1693
2090
1762
2067
1850
2061
1836
2184
2026
2365
1938
2230
1805
2084
1738
2037
1739
2157
1877
2056
1827
2217
1876
2121
1702
1958
1609
1979
1590
1853
1682
2026
1682
1927
1663
1851
1593
1910
1605
1915
1633
1861
1496
1847
1573
1712
1527
1766
1466
1768
1673
2034
1770
2003
1540
1586
1325
1609
1226
1643
1301
1531
1369
1611
1345
1669
1465
1558
1269
1507
1311
1427
1285
1441
1138
1456
1174
1333
1190
1575
1402
1650
1202
1322
797
0
0
1332
1227
1533
1263
1594
1220
1718
1498
1684
1321
1513
1206
1531
1343
1700
1435
1578
1234
1628
1346
1513
1352
1724
1466
1756
1503
1719
1456
1815
1713
1966
1748
1938
1693
1878
1472
1721
1460
1728
1474
1725
1585
1865
1650
1914
1513
1790
1399
1702
1333
1700
1444
1726
1310
1598
1364
1549
1325
1574
1265
1613
1397
1649
1364
1650
1234
1493
1245
1369
1145
1515
1268
1550
1379
1618
1342
1500
1104
1316
1026
1369
1117
1260
1042
1300
988
1338
1282
1365
1077
1230
1101
1221
994
1074
890
1245
938
1154
969
1313
1089
1244
911
884
482
0
0
1571
1419
1801
1604
1970
1678
2095
1818
2106
1718
2001
1573
1926
1716
2130
1807
2037
1715
1979
1703
1981
1682
2103
1845
2111
1896
2069
1829
2168
1933
2312
2043
2363
2137
2358
1971
2101
1803
2210
1781
2225
1875
2282
2025
2309
1943
2349
1938
2284
1985
2214
1910
2202
1850
2106
1816
2093
1813
2071
1749
2037
1846
2257
1866
2216
1780
2050
1755
1902
1674
2029
1730
1949
1758
2163
1965
2068
1721
1916
1590
1968
1632
1842
1605
1918
1564
1858
1747
2054
1683
1911
1680
1837
1517
1797
1412
1795
1487
1683
1466
1828
1573
1902
1376
1565
1083
0
0
1718
1629
2010
1690
1917
1777
2117
1960
2255
1922
2139
1811
2154
1883
2204
1977
2277
1989
2231
1937
2119
1946
2282
1886
2137
1880
2226
1930
2135
1917
2170
2028
2253
2066
2333
2037
2217
1930
2167
1850
2124
1932
2163
1930
2223
1855
2189
2003
2280
2029
2265
2004
2040
1691
1881
1778
1960
1638
1961
1645
1876
1685
1911
1800
2116
1718
1929
1565
1899
1558
1811
1520
1729
1555
1845
1651
1910
1659
1702
1482
1724
1458
1652
1374
1626
1355
1650
1515
1797
1446
1770
1481
1722
1397
1579
1253
1512
1262
1466
1172
1530
1265
1561
1165
1403
965
0
0
1563
1353
1693
1433
1698
1469
1869
1503
1945
1546
1859
1562
1936
1617
1993
1766
2094
1818
2156
1786
2023
1885
2095
1758
2067
1734
2006
1742
1911
1826
2053
1773
2046
1754
2138
1973
2149
1840
2066
1691
2041
1730
1925
1690
1988
1738
2026
1882
2278
2020
2244
1852
1946
1588
1860
1629
1810
1491
1846
1480
1768
1557
1846
1589
2054
1712
1842
1466
1721
1465
1709
1474
1649
1338
1666
1452
1840
1611
1699
1314
1543
1297
1515
1302
1515
1241
1534
1332
1652
1327
1718
1464
1707
1364
1418
1203
1381
1179
1419
1043
1386
1052
1438
1083
1258
823
0
0
1166
1093
1429
1107
1378
1221
1509
1298
1485
1269
1542
1225
1522
1260
1545
1429
1749
1605
1992
1674
1836
1706
2006
1595
1834
1412
1738
1485
1686
1452
1680
1497
1758
1513
1792
1725
1982
1731
1829
1470
1781
1475
1645
1378
1704
1426
1790
1605
2070
1832
2005
1653
1701
1302
1584
1332
1650
1269
1576
1299
1458
1301
1491
1365
1750
1413
1666
1370
1546
1178
1397
1173
1450
1164
1448
1258
1516
1405
1555
1164
1318
1086
1234
1051
1333
970
1249
1125
1348
1161
1650
1386
1592
1199
1253
965
1146
872
1115
938
1117
802
1165
841
1128
661
0
0
1485
1249
1804
1384
1600
1366
1699
1445
1830
1463
1747
1485
1854
1459
1812
1619
2045
1878
2213
2013
2348
2114
2506
2077
2273
1860
2132
1853
2076
1876
2187
1814
2244
1905
2263
2062
2423
2129
2345
1974
2173
1869
2194
1904
2219
1928
2210
2056
2478
2103
2381
2006
2229
1769
2083
1821
2205
1805
2181
1794
2003
1766
2031
1894
2242
1994
2397
1979
2136
1769
1974
1691
2030
1657
1957
1736
2165
1996
2160
1773
1959
1698
1957
1626
1949
1635
1946
1687
1962
1787
2317
2020
2340
1813
1924
1553
1803
1496
1717
1495
1796
1487
1820
1438
1686
1134
0
0
1591
1498
1974
1633
1915
1653
1929
1661
1905
1621
1956
1650
1950
1614
1972
1781
2107
1814
2179
1954
2250
2198
2477
2194
2453
2017
2294
1903
2165
1904
2122
1876
2081
1940
2229
1924
2267
2075
2322
1871
2122
1942
2156
1775
2165
1844
2125
1874
2251
1984
2222
1866
2162
1714
2005
1701
2017
1738
1944
1674
1957
1620
1931
1681
2025
1789
2162
1997
2133
1713
1813
1460
1748
1550
1755
1496
1875
1618
1914
1578
1742
1442
1706
1435
1572
1422
1616
1432
1693
1530
1975
1797
1975
1650
1662
1384
1611
1102
1566
1169
1540
1225
1474
1069
1398
917
0
0
1435
1410
1860
1546
1807
1546
1850
1510
1785
1530
1805
1418
1831
1563
1866
1660
1937
1576
1993
1597
2027
1898
2180
1877
2235
1924
2215
1854
2130
1778
2054
1801
1908
1701
2120
1687
2049
1786
2106
1774
2017
1690
2101
1709
2067
1691
2025
1736
2011
1657
2011
1652
2006
1568
1954
1632
1949
1559
1800
1637
1765
1531
1781
1480
1835
1517
2032
1847
2070
1677
1720
1331
1728
1378
1608
1349
1697
1466
1715
1438
1637
1329
1637
1290
1534
1360
1587
1236
1645
1418
1814
1512
1744
1302
1460
1189
1474
1042
1410
1080
1374
1114
1335
933
1222
721
0
0
1295
1299
1694
1330
1633
1346
1549
1319
1535
1193
1528
1166
1578
1271
1563
1258
1693
1334
1615
1333
1643
1458
1737
1488
1898
1510
1926
1626
1879
1589
1798
1468
1703
1342
1802
1353
1707
1435
1782
1445
1797
1480
1853
1430
1705
1424
1700
1341
1621
1417
1701
1334
1685
1337
1675
1495
1785
1399
1630
1283
1542
1300
1573
1291
1599
1248
1634
1524
1731
1401
1565
1193
1434
1150
1410
1114
1403
1149
1302
1107
1409
1045
1429
1138
1236
1075
1338
1053
1348
1122
1429
1170
1399
1014
1211
1044
1264
843
1245
815
1112
917
1051
706
963
500
0
0
1673
1605
2053
1737
2096
1730
2026
1682
1913
1497
1894
1502
1858
1589
1805
1522
2018
1611
1958
1644
2022
1733
2075
1763
2118
1750
2157
1880
2288
2020
2242
1949
2106
1879
2154
1790
2093
1813
2155
1843
2171
1879
2219
1864
2222
1846
2219
1896
2174
1840
2165
1915
2213
1777
2242
1893
2293
1978
2133
1847
2050
1815
2107
1725
2043
1730
2096
1878
2232
1970
2098
1730
1941
1707
1997
1737
1970
1643
1988
1722
2030
1714
2040
1630
1810
1587
1866
1589
1871
1547
1985
1579
1862
1562
1721
1560
1834
1466
1861
1451
1719
1401
1701
1253
1578
1083
0
0
1811
1751
2066
1970
2277
1954
2250
1917
2154
1804
2170
1725
2093
1909
2103
1822
2122
1902
2042
1781
2186
1870
2180
1876
2126
1800
2235
1964
2150
1990
2381
1998
2211
1909
2074
1798
2082
1892
2148
1797
2189
1890
2166
1864
2144
1940
2027
1767
2075
1781
2100
1670
1927
1630
1899
1655
2056
1804
2103
1678
1905
1613
1827
1545
1899
1603
1910
1556
1854
1716
1940
1598
1813
1622
1765
1480
1709
1506
1744
1612
1868
1655
1842
1450
1698
1334
1681
1397
1602
1333
1597
1328
1565
1270
1480
1265
1615
1369
1646
1293
1510
1082
1331
1065
1366
728
0
0
1595
1515
1859
1682
2033
1690
2058
1805
2005
1672
2085
1780
2078
1862
2110
1787
2146
1850
2124
1701
2038
1652
2006
1682
1941
1618
2077
1778
2001
1789
2212
1827
2069
1744
1980
1578
1911
1705
2055
1659
2057
1707
2073
1690
2066
1747
1933
1597
2034
1630
1898
1563
1866
1605
1813
1526
1936
1641
2034
1709
1909
1581
1830
1424
1926
1500
1713
1454
1754
1525
1750
1467
1786
1537
1677
1434
1671
1437
1736
1537
1947
1659
1834
1402
1599
1248
1543
1300
1474
1197
1513
1237
1445
1090
1420
1250
1636
1341
1674
1165
1393
962
1219
957
1213
709
0
0
1147
1090
1443
1266
1525
1282
1671
1320
1613
1348
1810
1461
1808
1647
1861
1700
1972
1814
1978
1650
1787
1477
1717
1442
1706
1434
1668
1378
1699
1394
1854
1610
1814
1481
1691
1435
1598
1426
1690
1426
1701
1512
1667
1377
1722
1582
1719
1387
1762
1397
1603
1354
1579
1298
1570
1371
1625
1299
1634
1394
1649
1398
1617
1271
1702
1210
1565
1211
1482
1254
1520
1309
1576
1370
1448
1172
1373
1163
1389
1157
1634
1417
1605
1204
1354
1006
1307
1081
1204
923
1226
1026
1202
941
1251
1055
1366
1122
1412
1034
1128
788
1094
740
971
436
0
0
1381
1262
1604
1381
1769
1343
1829
1478
1750
1513
1938
1640
1972
1870
2153
2059
2479
2066
2402
2000
2220
1762
2161
1853
2110
1722
2135
1783
1989
1698
2217
1913
2152
1810
2180
1782
2062
1753
2093
1725
2074
1714
2043
1734
2250
2057
2234
1986
2173
1842
2021
1725
2021
1668
1966
1682
2125
1773
1973
1747
2130
1826
2179
1895
2201
1738
1986
1661
1917
1670
1978
1828
2170
1851
1989
1674
1960
1603
1986
1690
2107
1869
2142
1714
1853
1546
1851
1481
1871
1471
1768
1486
1770
1333
1777
1540
1799
1500
1789
1485
1794
1301
1603
1283
1575
1003
0
0
1629
1515
1957
1619
1814
1674
2020
1735
2043
1722
1976
1820
2082
1970
2324
2150
2458
2171
2432
2161
2326
2101
2385
2089
2235
1909
2152
1901
2134
1854
2173
1878
2157
1867
2095
1834
2092
1821
2108
1885
2187
1781
2074
1840
2102
1973
2186
1981
2138
1722
2021
1678
1963
1626
1899
1652
1889
1632
1812
1625
1890
1786
2129
1915
2242
1695
1793
1618
1830
1557
1817
1589
1890
1670
1895
1451
1744
1566
1738
1493
1890
1621
1829
1585
1620
1474
1586
1378
1719
1373
1593
1249
1507
1268
1571
1363
1524
1388
1652
1258
1517
1224
1385
1090
1414
1028
0
0
1556
1405
1798
1417
1653
1466
1824
1550
1837
1523
1903
1610
1965
1797
2123
1900
2138
1810
2137
1826
2063
1951
2217
1912
2159
1821
2094
1713
2109
1780
2014
1783
2084
1770
1971
1750
1961
1753
2021
1797
1963
1690
1938
1647
1932
1744
2013
1691
1978
1703
1897
1626
1945
1552
1813
1494
1720
1474
1650
1414
1752
1685
2101
1764
2059
1634
1690
1417
1677
1373
1638
1378
1712
1379
1748
1315
1630
1325
1643
1306
1707
1341
1562
1350
1533
1325
1470
1221
1550
1306
1530
1218
1458
1138
1495
1136
1420
1240
1494
1073
1366
1099
1354
1117
1399
787
0
0
1214
1207
1485
1208
1402
1137
1485
1176
1618
1212
1570
1305
1675
1453
1707
1503
1669
1352
1657
1368
1626
1428
1809
1531
1857
1559
1812
1478
1802
1515
1805
1626
1805
1493
1604
1428
1730
1557
1803
1507
1764
1356
1533
1353
1670
1321
1618
1402
1653
1281
1763
1395
1650
1371
1526
1211
1466
1173
1370
1113
1463
1377
1626
1396
1678
1271
1450
1165
1386
1156
1456
1154
1355
1053
1377
1072
1416
1142
1293
1039
1355
991
1284
1048
1226
1015
1213
1081
1338
1109
1396
938
1195
898
1205
954
1115
927
1164
802
1121
887
1210
1013
1145
734
0
0
1613
1546
1944
1557
1774
1462
1834
1473
1885
1556
1923
1610
1993
1707
1951
1750
1937
1624
1910
1670
1947
1717
2109
1787
2170
1861
2152
1827
2131
1809
2186
1876
2259
1908
2225
1929
2263
2139
2420
2027
2171
1739
2059
1803
2091
1768
2042
1768
2101
1812
2206
1956
2291
1834
2081
1645
1995
1684
1955
1638
1990
1705
1996
1752
2056
1641
1978
1679
1870
1572
1928
1653
1917
1541
1917
1574
1882
1585
1784
1581
1950
1486
1901
1569
1781
1602
1802
1639
1958
1605
1882
1499
1717
1367
1710
1359
1655
1450
1728
1331
1680
1450
1789
1598
1804
1114
0
0
1947
1878
2245
1969
2110
1802
2187
1906
2129
2025
2128
1959
2149
1882
2107
1765
2085
1825
2059
1805
2084
1800
2152
1820
2149
1926
2149
1818
2202
1872
2154
1795
2191
1915
2294
2134
2472
2322
2540
2114
2187
1894
1975
1733
1985
1737
1972
1729
2079
1758
2152
1938
2122
1801
1925
1605
1861
1649
1791
1570
1850
1477
1882
1585
1868
1499
1845
1421
1754
1458
1766
1563
1725
1428
1673
1442
1578
1301
1658
1401
1686
1407
1647
1340
1718
1509
1725
1499
1816
1526
1642
1410
1524
1213
1515
1208
1526
1157
1410
1161
1434
1288
1622
1285
1531
874
0
0
1713
1639
2002
1738
1985
1636
1949
1645
2002
1782
2029
1768
1877
1549
1872
1562
1861
1589
1858
1580
1830
1559
1970
1605
1922
1574
2021
1618
1914
1594
1786
1547
2007
1638
2031
1885
2258
2113
2366
1962
2050
1737
1867
1582
1810
1549
1804
1528
1862
1522
1833
1709
1912
1572
1782
1492
1698
1461
1706
1376
1674
1337
1642
1313
1685
1309
1733
1317
1669
1330
1606
1424
1634
1301
1479
1222
1434
1162
1442
1230
1523
1192
1506
1248
1550
1427
1646
1458
1687
1342
1427
1194
1426
1165
1381
1033
1333
981
1246
1022
1355
1085
1357
980
1165
558
0
0
1305
1242
1572
1390
1616
1291
1602
1345
1603
1482
1637
1433
1617
1373
1547
1293
1627
1381
1574
1371
1594
1352
1703
1306
1669
1349
1646
1362
1662
1353
1628
1349
1607
1330
1620
1534
1908
1656
2027
1693
1919
1481
1615
1343
1554
1321
1520
1284
1623
1257
1599
1390
1509
1293
1509
1233
1444
1218
1399
1264
1473
1101
1433
1125
1389
1043
1505
1030
1354
1099
1318
1189
1391
1045
1293
1069
1226
948
1191
1006
1293
1104
1352
1150
1463
1207
1418
1202
1412
1133
1204
1015
1113
840
1106
904
1037
814
1015
829
1106
800
1053
691
1021
406
0
0
1442
1303
1690
1462
1722
1424
1796
1553
1853
1693
1867
1659
1798
1518
1898
1623
2051
1770
2082
1794
2105
1707
2133
1756
2041
1773
2072
1732
2067
1773
2197
1753
2101
1674
2109
1819
2153
1883
2310
2094
2278
1962
2066
1754
1979
1654
1981
1691
2073
1682
2032
1770
2001
1705
1949
1746
2032
1687
1997
1785
2005
1582
1963
1499
1946
1595
1868
1524
1930
1588
1852
1661
1909
1652
1902
1685
1883
1577
1802
1618
1928
1721
2045
1730
2164
1797
1993
1641
1926
1603
1780
1576
1798
1438
1793
1427
1754
1437
1612
1348
1610
1427
1573
1258
1530
892
0
0
1587
1509
1787
1544
1810
1501
1880
1668
1994
1762
1929
1618
1956
1698
2011
1798
2139
1898
2244
1954
2239
2002
2306
1934
2157
1818
2107
1867
2174
2011
2409
1965
2202
1702
1966
1802
2029
1806
2148
1868
2089
1801
2015
1698
1916
1689
1919
1604
1890
1643
1864
1609
1813
1576
1753
1653
1906
1736
2041
1583
1869
1524
1780
1443
1801
1467
1816
1538
1693
1357
1749
1518
1705
1524
1869
1594
1888
1420
1609
1431
1722
1531
1802
1686
1786
1533
1730
1396
1591
1253
1545
1285
1608
1365
1526
1210
1424
1225
1453
1179
1366
1146
1264
1034
1335
783
0
0
1407
1156
1594
1264
1611
1306
1699
1401
1774
1390
1749
1439
1742
1442
1794
1464
1843
1581
1890
1649
2025
1878
2181
1781
1997
1684
1976
1860
2202
2001
2293
1786
1976
1520
1802
1491
1766
1598
1902
1561
1769
1493
1840
1613
1805
1482
1708
1358
1704
1439
1658
1458
1702
1430
1610
1516
1722
1621
1869
1386
1684
1353
1638
1255
1549
1237
1611
1286
1533
1189
1521
1318
1581
1418
1789
1435
1680
1385
1502
1294
1571
1381
1642
1387
1547
1234
1449
1165
1363
1166
1401
1161
1442
1260
1378
1102
1246
980
1226
938
1171
1030
1141
882
1076
649
0
0
1039
886
1259
1113
1349
1046
1399
1142
1446
1115
1408
1133
1474
1234
1507
1122
1527
1217
1403
1234
1643
1514
1828
1495
1812
1481
1831
1783
2027
1866
2056
1531
1750
1330
1482
1256
1512
1262
1573
1229
1490
1257
1461
1334
1626
1234
1494
1156
1433
1181
1486
1200
1416
1166
1293
1156
1460
1289
1557
1132
1395
1019
1377
985
1374
1101
1363
1051
1363
991
1288
1086
1262
1108
1477
1172
1426
1011
1277
1021
1357
1217
1517
1174
1250
917
1122
918
1062
831
1178
947
1224
844
1141
918
1106
830
1106
781
970
712
864
668
1015
568
0
0
1266
1132
1471
1249
1621
1259
1723
1368
1659
1367
1701
1350
1714
1429
1797
1541
1805
1446
1771
1529
1909
1651
2084
1725
2085
1802
2303
2134
2450
2126
2461
1937
2138
1681
1898
1653
1951
1645
1981
1611
1844
1642
1911
1735
1978
1756
1972
1658
1957
1642
1924
1717
2039
1591
1860
1629
1867
1611
1927
1493
1884
1541
1870
1531
1845
1549
1806
1478
1862
1477
1765
1553
1861
1595
2034
1602
1894
1498
1828
1516
1941
1680
1936
1594
1775
1460
1737
1434
1629
1411
1641
1370
1683
1471
1668
1416
1614
1391
1702
1314
1541
1300
1467
1147
1610
1155
0
0
1393
1267
1642
1402
1757
1469
1842
1523
1769
1409
1761
1575
1815
1540
1883
1533
1946
1595
1815
1591
1879
1589
1876
1613
1988
1757
2133
1988
2268
1940
2168
1900
2018
1636
1915
1581
1833
1520
1922
1559
1756
1552
1791
1530
1915
1581
1796
1633
1896
1598
1966
1745
1816
1493
1716
1499
1745
1367
1629
1334
1716
1463
1741
1444
1610
1339
1662
1377
1611
1314
1595
1314
1521
1250
1585
1354
1584
1236
1515
1442
1755
1610
1764
1332
1531
1238
1505
1157
1468
1310
1413
1188
1466
1190
1331
1094
1417
1141
1387
1078
1268
1025
1277
1013
1291
792
0
0
1159
1067
1382
1178
1563
1360
1746
1269
1572
1204
1560
1275
1618
1257
1640
1316
1604
1285
1568
1381
1694
1335
1636
1387
1634
1437
1833
1572
1824
1481
1837
1461
1864
1426
1642
1381
1589
1285
1707
1354
1517
1291
1584
1243
1686
1353
1698
1463
1828
1512
1937
1614
1794
1332
1516
1243
1513
1123
1501
1164
1586
1289
1612
1261
1512
1182
1498
1190
1375
1120
1396
1163
1357
1065
1367
1099
1405
1079
1419
1270
1738
1421
1612
1063
1309
962
1243
1009
1276
1077
1210
904
1332
1054
1229
1009
1354
926
1266
913
1117
800
1129
866
1089
670
0
0
699
618
893
722
1037
861
1285
854
1186
876
1091
731
1082
826
1133
822
1122
727
1163
854
1204
825
1103
892
1236
946
1250
971
1300
998
1253
914
1317
898
1189
905
1195
818
1325
921
1098
917
1139
843
1106
845
1163
1012
1507
1230
1421
1128
1291
923
1105
810
1071
725
1089
721
1141
938
1192
992
1097
782
969
710
907
674
979
683
938
685
949
725
942
666
983
825
1230
894
1075
678
861
557
811
475
810
605
856
508
906
622
827
644
968
522
836
545
612
443
731
411
705
274
0
0
0
0
0
0
0
0
0
0
0
0
0
0
0
0
0
0
0
0
0
0
0
0
0
0
0
0
0
0
0
0
0
0
0
0
0
0
0
0
0
0
0
0
0
0
0
0
0
0
0
0
0
0
0
0
0
0
0
0
0
0
0
0
0
0
0
0
0
0
0
0
0
0
0
0
0
0
0
0
0
0
0
0
0
0
0
0
0
0
0
0
0
0
0
0
0
0
0
0
0
0
0
0
0
0
0
0
0
