P2
108 88
4095
0
0
0
0
0
0
0
0
0
0
0
0
0
0
0
0
0
0
0
0
0
0
0
0
0
0
0
0
0
0
0
0
0
0
0
0
0
0
0
0
0
0
0
0
0
0
0
0
0
0
0
0
0
0
0
0
0
0
0
0
0
0
0
0
0
0
0
0
0
0
0
0
0
0
0
0
0
0
0
0
0
0
0
0
0
0
0
0
0
0
0
0
0
0
0
0
0
0
0
0
0
0
0
0
0
0
0
0
0
957
827
1175
843
1225
925
1269
1019
1417
1197
1426
1205
1650
1442
1682
1320
1574
1241
1467
1195
1430
1290
1604
1305
1557
1405
1647
1451
1820
1526
1889
1522
1901
1478
1841
1551
1849
1559
1896
1465
1787
1386
1564
1267
1546
1248
1417
1197
1485
1163
1516
1221
1540
1133
1488
1217
1381
1108
1452
1111
1418
1066
1301
1007
1397
1042
1304
1008
1330
1104
1430
1241
1490
1249
1516
1289
1508
1127
1474
1143
1451
1120
1451
1027
1314
1021
1274
1092
1404
1097
1463
1195
1435
1131
1341
886
1150
877
1329
894
1124
816
971
708
874
481
0
0
754
753
1018
692
1138
760
1167
969
1299
1143
1387
1110
1442
1202
1563
1184
1357
1062
1323
1035
1348
1101
1509
1173
1525
1361
1710
1446
1782
1534
1842
1474
1788
1357
1741
1372
1658
1493
1701
1410
1642
1287
1405
1116
1309
1085
1291
1124
1427
1057
1416
1125
1371
1073
1299
1067
1278
1012
1321
961
1282
921
1225
971
1278
957
1169
907
1249
917
1258
1075
1327
1069
1354
1101
1312
1034
1346
1074
1396
1123
1338
901
1250
1047
1240
1124
1389
1212
1531
1195
1430
1039
1149
823
1097
755
1242
930
1085
706
938
605
805
484
0
0
1029
942
1362
985
1426
1128
1551
1297
1776
1558
1765
1431
1802
1483
1783
1465
1746
1421
1733
1433
1755
1514
1950
1685
2066
1893
2196
1962
2241
2056
2343
1867
2186
1746
2114
1718
2022
1861
2173
1876
2073
1622
1839
1529
1857
1574
1817
1563
1893
1580
1945
1645
1987
1528
1906
1563
1722
1518
1879
1469
1843
1480
1843
1472
1900
1465
1730
1433
1755
1410
1797
1525
1868
1569
1846
1594
1825
1493
1833
1518
1842
1525
1844
1500
1878
1618
1880
1790
2103
1840
2221
1701
1893
1550
1718
1325
1632
1287
1740
1419
1686
1226
1597
1266
1557
1149
0
0
1412
1343
1710
1501
1877
1569
1980
1725
2049
1787
1949
1650
1989
1707
1951
1725
1937
1626
1882
1689
2061
1862
2249
2170
2294
2192
2377
2157
2372
2029
2294
1847
2121
1741
2062
1894
2141
1938
2356
2014
2229
1803
2002
1694
1990
1639
1870
1620
1996
1751
2052
1637
1902
1677
1955
1818
1979
1608
1919
1666
1864
1550
1769
1515
1789
1490
1779
1429
1673
1416
1663
1487
1752
1547
1622
1419
1742
1360
1557
1410
1655
1426
1665
1321
1642
1399
1722
1645
2035
1750
2147
1709
1981
1429
1626
1237
1464
1137
1618
1175
1482
1093
1463
1234
1450
986
0
0
1239
1186
1592
1342
1811
1413
1957
1578
1790
1506
1737
1473
1771
1386
1750
1466
1779
1503
1774
1561
1982
1700
2178
2069
2248
1972
2148
1929
2074
1755
1974
1574
1943
1712
1855
1512
1951
1810
2190
1840
2073
1651
1950
1627
1967
1593
1905
1517
2022
1657
1995
1658
1936
1697
2029
1782
2088
1590
1925
1694
1938
1581
1819
1496
1876
1501
1748
1403
1725
1283
1610
1367
1626
1291
1521
1282
1584
1167
1473
1237
1484
1171
1434
1141
1517
1231
1588
1433
1898
1608
2013
1579
1798
1398
1581
1159
1294
1037
1390
970
1362
987
1289
1096
1361
861
0
0
1030
954
1271
1133
1426
1083
1501
1125
1385
1156
1306
975
1396
1110
1413
1213
1493
1239
1551
1335
1707
1547
1934
1710
1895
1578
1737
1337
1617
1290
1565
1182
1642
1225
1624
1323
1646
1531
1986
1533
1794
1398
1749
1442
1780
1416
1712
1385
1866
1501
1905
1581
1802
1460
1871
1655
1903
1489
1850
1668
1789
1469
1646
1380
1695
1375
1661
1349
1545
1228
1386
1146
1300
1021
1318
980
1322
1059
1099
933
1293
932
1073
859
1156
901
1138
1162
1578
1332
1734
1396
1572
1268
1336
961
1123
746
1142
634
1057
726
1065
861
970
521
0
0
1278
1138
1555
1272
1695
1261
1719
1272
1579
1381
1579
1292
1794
1467
1874
1704
2021
1734
2084
1771
2114
1882
2221
1947
2170
1844
2074
1730
1978
1732
2043
1606
2031
1771
2136
1821
2175
1984
2516
2073
2358
1977
2294
2049
2315
1978
2232
1926
2318
2199
2490
2180
2467
2125
2402
2268
2542
2154
2415
2247
2482
2107
2392
2026
2337
2095
2298
1874
2190
1739
1992
1665
1947
1658
1862
1684
2027
1655
1834
1595
1857
1497
1802
1470
1884
1416
1792
1621
2115
1900
2362
1954
2288
1807
2068
1690
1794
1362
1743
1320
1714
1300
1622
1298
1487
985
0
0
1492
1437
1818
1545
1770
1535
1858
1466
1893
1578
1877
1614
1970
1866
2298
2015
2376
2091
2345
1896
2074
1937
2259
1814
2186
1778
2054
1714
2028
1781
2155
1883
2203
1988
2207
2029
2475
2298
2514
2254
2454
2194
2492
2077
2267
1908
2251
2010
2258
2084
2356
2090
2390
2196
2449
2210
2485
2191
2412
2088
2388
2125
2346
2030
2370
1910
2125
1728
2006
1570
1933
1589
1838
1546
1805
1717
1932
1669
1823
1458
1847
1356
1573
1330
1602
1301
1671
1466
1836
1741
2041
1866
2077
1766
1931
1516
1700
1300
1555
1269
1482
1183
1282
1034
1286
822
0
0
1325
1139
1552
1189
1586
1286
1654
1221
1581
1379
1672
1453
1959
1876
2287
1933
2228
1869
2113
1636
1810
1581
1929
1570
1970
1570
1876
1525
1878
1642
2029
1786
2212
1874
2235
1873
2370
2050
2381
1988
2235
1858
2242
1751
2020
1717
1935
1721
1930
1742
2025
1834
2203
1905
2157
1901
2202
1925
2186
1860
2223
1914
2084
1742
2090
1731
1917
1399
1769
1333
1694
1449
1584
1354
1646
1553
1800
1560
1797
1442
1753
1307
1534
1198
1432
1152
1497
1281
1570
1632
1881
1704
1926
1606
1831
1346
1691
1392
1451
1204
1516
1098
1198
832
1080
620
0
0
1053
874
1229
922
1258
1055
1373
1085
1461
1213
1499
1341
1663
1586
1897
1636
1896
1512
1715
1284
1487
1273
1589
1278
1677
1411
1614
1258
1591
1448
1815
1742
2100
1849
2018
1758
2036
1794
1941
1665
1850
1461
1822
1429
1640
1367
1603
1349
1637
1499
1709
1480
1719
1543
1848
1520
1862
1618
1846
1546
1873
1536
1731
1365
1629
1306
1498
1150
1429
1098
1483
1151
1329
1083
1378
1276
1548
1339
1622
1314
1637
1217
1429
1036
1237
951
1234
1031
1435
1346
1641
1429
1733
1366
1602
1257
1481
1221
1399
1140
1395
985
1092
658
921
350
0
0
1269
1097
1440
1113
1562
1233
1691
1371
1903
1585
2002
1722
2071
1821
2245
1840
2082
1712
1934
1514
1858
1612
2026
1594
2083
1744
2053
1709
2158
1984
2477
2195
2564
2162
2427
2128
2411
2124
2347
1906
2108
1733
2117
1721
2077
1783
2034
1754
2009
1810
2126
1837
2170
1825
2234
1776
2138
1885
2134
1825
2241
1884
2115
1722
2161
1676
2026
1663
1985
1626
1969
1645
1866
1613
1882
1623
1958
1785
2029
1753
2206
1906
2154
1642
1877
1526
1826
1576
1938
1862
2261
2063
2300
1910
2072
1655
2045
1853
2054
1782
2034
1640
1874
1318
1573
1033
0
0
1410
1338
1779
1417
1739
1524
1910
1642
2039
1806
2171
1877
2180
2001
2199
1763
2018
1698
2060
1732
1845
1715
2077
1850
2107
1916
2253
2045
2382
2261
2583
2258
2430
2100
2298
2036
2306
1980
2122
1762
1980
1753
1995
1610
1906
1684
2000
1716
2038
1662
1941
1725
2013
1825
1972
1716
1988
1670
1978
1661
1936
1630
1899
1562
1921
1565
1767
1530
1850
1486
1716
1482
1778
1401
1719
1426
1788
1436
1698
1516
1876
1677
2051
1509
1803
1387
1626
1470
1829
1682
2061
1842
2001
1509
1827
1331
1725
1530
1797
1598
1854
1527
1675
1266
1186
788
0
0
1310
1189
1605
1338
1675
1435
1829
1572
1970
1607
1957
1649
1897
1706
1962
1570
1805
1572
1853
1513
1801
1650
2045
1825
2176
1933
2222
1961
2253
1993
2314
1938
2101
1770
2019
1750
2029
1757
2026
1615
1845
1623
1867
1477
1821
1583
1873
1516
1906
1458
1814
1614
1966
1730
1991
1594
1914
1580
1841
1538
1791
1514
1777
1469
1781
1489
1742
1411
1653
1282
1629
1285
1707
1398
1590
1259
1558
1210
1528
1334
1660
1499
1770
1418
1714
1329
1628
1443
1893
1698
2105
1765
1771
1490
1623
1221
1592
1370
1695
1442
1706
1420
1494
1076
1160
669
0
0
1115
1017
1450
1161
1514
1202
1524
1274
1618
1234
1529
1274
1516
1289
1586
1152
1434
1258
1557
1348
1563
1392
1810
1716
2019
1712
1959
1718
1820
1606
1849
1519
1661
1426
1739
1449
1750
1427
1701
1316
1615
1300
1626
1267
1613
1291
1583
1254
1695
1287
1680
1520
1784
1589
1699
1440
1810
1451
1781
1431
1554
1347
1601
1406
1562
1266
1455
1158
1450
1125
1403
1140
1421
972
1390
1096
1306
1026
1334
1043
1304
1109
1522
1062
1405
1214
1397
1391
1730
1514
1818
1518
1668
1277
1405
975
1350
1079
1381
1188
1424
1038
1274
899
1065
580
0
0
1317
1164
1698
1408
1733
1366
1813
1457
1768
1399
1795
1414
1731
1412
1768
1387
1766
1499
1917
1645
1946
1805
2221
2010
2342
2005
2272
1934
2037
1820
2128
1804
2026
1724
2026
1729
2069
1828
2058
1662
2023
1799
2020
1769
2018
1752
2075
1785
2160
1769
2152
1970
2421
2210
2401
2076
2443
2196
2423
2006
2286
1986
2293
1873
2210
1777
2090
1702
2037
1653
1966
1642
1992
1564
1949
1627
1898
1586
1834
1481
1872
1584
1917
1476
1933
1589
1922
1878
2352
2021
2418
2017
2233
1707
1990
1513
1778
1574
1863
1662
1989
1474
1754
1403
1658
1177
0
0
1575
1527
1906
1620
1765
1559
1893
1642
1860
1505
1829
1639
1834
1485
1918
1675
1909
1669
1970
1874
2216
1933
2325
2053
2347
1962
2104
1817
2048
1754
2052
1754
1936
1786
2009
1790
2122
1844
2056
1743
2154
1757
1986
1702
2057
1746
2135
1867
2121
1842
2200
2062
2414
2224
2383
2116
2354
2145
2443
2204
2352
2003
2293
2054
2205
1852
2010
1640
1801
1512
1796
1449
1714
1550
1774
1436
1643
1474
1683
1395
1606
1335
1554
1321
1602
1312
1682
1602
1999
1817
2133
1823
2074
1676
1814
1429
1644
1293
1586
1335
1593
1258
1409
1225
1519
1065
0
0
1412
1322
1669
1373
1601
1324
1712
1397
1732
1451
1873
1410
1708
1487
1854
1547
1890
1590
1990
1826
2178
1860
2158
1765
2093
1733
1973
1621
1882
1666
1992
1670
1992
1677
1914
1676
2170
1842
2084
1824
2082
1747
2005
1792
2128
1877
2197
2002
2291
1926
2266
2080
2420
2173
2290
2139
2325
2186
2422
2076
2376
1939
2266
1948
2285
1846
2075
1677
1751
1390
1730
1362
1704
1416
1658
1452
1686
1365
1594
1314
1608
1291
1532
1275
1553
1301
1608
1386
1899
1729
2034
1770
2130
1674
1876
1452
1728
1259
1408
1154
1486
1072
1229
1085
1458
921
0
0
1007
945
1304
1009
1258
989
1298
1047
1439
1145
1553
1282
1475
1225
1505
1227
1645
1445
1745
1535
1832
1402
1720
1347
1653
1349
1545
1331
1501
1342
1674
1316
1685
1298
1698
1506
1997
1723
1974
1770
1954
1595
1845
1574
1942
1820
2085
1808
2071
1708
1994
1744
1995
1699
1915
1658
1950
1866
2069
1796
1953
1677
1965
1686
1902
1557
1756
1347
1521
1228
1465
1133
1452
1226
1461
1249
1457
1220
1408
1061
1329
1067
1250
1028
1266
997
1338
1134
1592
1455
1765
1485
1845
1439
1662
1235
1371
989
1178
806
1065
876
904
772
1109
642
0
0
1257
1174
1474
1266
1532
1173
1604
1362
1843
1558
2001
1714
1973
1563
1869
1598
1968
1712
1981
1719
2107
1637
2011
1710
2030
1672
1936
1736
1973
1626
2075
1693
2071
1759
2133
2067
2516
2206
2626
2282
2621
2269
2574
2194
2546
2214
2620
2289
2531
2109
2479
2195
2482
2058
2260
1956
2253
2046
2349
2122
2395
2069
2361
2055
2329
1929
2189
1794
2005
1621
1962
1691
1981
1693
2075
1784
2084
1799
2069
1682
2013
1633
1951
1638
1829
1615
1910
1637
2174
1965
2440
2073
2366
2039
2165
1776
1949
1622
1777
1450
1690
1360
1578
1401
1682
1130
0
0
1419
1450
1849
1578
1889
1525
1943
1730
2158
1949
2305
1958
2282
1693
2038
1741
2128
1867
2129
1770
1939
1742
2101
1732
2029
1765
2054
1732
2069
1779
2058
1762
2227
2006
2389
2220
2656
2489
2670
2406
2634
2281
2479
2193
2445
2178
2405
2005
2306
1981
2251
2081
2165
1817
2061
1718
2033
1835
2146
1816
2082
1818
2029
1812
1987
1682
1938
1553
1855
1586
1748
1520
1845
1534
1771
1570
1803
1609
1866
1581
1916
1572
1798
1557
1709
1315
1621
1517
1991
1850
2067
1853
2074
1803
2021
1546
1850
1534
1641
1365
1477
1133
1322
1111
1369
975
0
0
1403
1448
1814
1590
1942
1594
2050
1826
2217
1877
2223
1783
2049
1526
1828
1495
1876
1618
1810
1562
1791
1608
1930
1634
1924
1666
1968
1672
1901
1643
1994
1776
2176
2010
2449
2261
2685
2322
2630
2322
2533
2042
2278
1888
2146
1874
2084
1765
2048
1733
2008
1776
1986
1608
1901
1503
1926
1566
1970
1557
1825
1650
1811
1565
1875
1603
1886
1429
1789
1418
1634
1456
1741
1365
1700
1367
1701
1448
1764
1525
1905
1506
1770
1501
1642
1259
1597
1433
1867
1714
2046
1693
1906
1595
1832
1418
1780
1457
1636
1303
1463
1172
1362
1089
1253
755
0
0
1014
1025
1512
1355
1635
1320
1782
1524
1921
1586
1886
1387
1684
1148
1378
1218
1485
1243
1579
1273
1496
1274
1605
1337
1661
1405
1736
1415
1702
1443
1797
1531
2030
1705
2102
2008
2314
2090
2274
1854
2010
1571
1754
1460
1670
1426
1722
1420
1653
1327
1662
1449
1578
1303
1538
1269
1580
1258
1532
1208
1585
1298
1495
1265
1621
1243
1509
1173
1433
1157
1426
1245
1362
1100
1430
1065
1357
1126
1430
1161
1620
1210
1517
1269
1431
1113
1477
1257
1628
1433
1819
1451
1681
1239
1399
1076
1448
1143
1377
1133
1341
1031
1271
898
936
437
0
0
1273
1283
1756
1526
1955
1664
2093
1860
2261
1859
2105
1618
1910
1460
1742
1418
1826
1657
1917
1525
1903
1625
2118
1845
2155
1807
2222
1809
2157
1918
2255
1957
2365
2068
2507
2289
2613
2347
2597
2198
2438
1909
2110
1826
2092
1853
2131
1717
2110
1758
2158
1830
2184
1769
2053
1805
2082
1746
2110
1730
2058
1837
2100
1847
2194
1870
2166
1742
2039
1713
1950
1632
2021
1630
1954
1584
1879
1595
1919
1657
1954
1604
1980
1730
2132
1707
2038
1871
2370
2098
2342
1958
2089
1728
1864
1566
1851
1521
1969
1644
2030
1578
1917
1520
1704
1109
0
0
1467
1466
1870
1609
2016
1830
2319
2010
2320
1876
2102
1751
1990
1683
1913
1606
2109
1869
2219
1933
2178
1860
2203
1956
2277
2042
2267
2124
2358
2104
2336
2058
2292
2029
2361
2117
2490
2261
2468
2081
2258
1866
2133
1821
2111
1765
2130
1770
2169
1829
2093
1822
2122
1877
2082
1762
1955
1808
2019
1761
2116
1849
2249
2014
2198
1899
2063
1705
1964
1541
1825
1595
1823
1541
1742
1459
1786
1486
1690
1495
1729
1451
1589
1422
1712
1497
1819
1707
2122
1796
2084
1722
1890
1481
1485
1290
1531
1284
1565
1397
1695
1506
1805
1506
1613
914
0
0
1318
1218
1549
1200
1864
1508
2042
1682
1899
1413
1846
1355
1713
1483
1822
1518
2040
1778
2186
1846
2101
1757
2206
1793
2157
1861
2197
1894
2153
1789
2042
1716
2001
1733
1947
1728
2133
1802
2195
1858
2019
1670
1902
1597
1940
1634
1978
1570
2050
1754
2054
1813
2196
1813
1985
1625
1893
1782
2022
1754
2072
1786
2120
1892
2150
1873
2015
1651
1933
1518
1844
1530
1718
1422
1738
1301
1565
1354
1621
1306
1514
1237
1533
1274
1530
1301
1514
1443
1844
1543
1937
1629
1669
1253
1345
1072
1488
1160
1373
1171
1512
1287
1571
1417
1530
813
0
0
1021
893
1306
1019
1444
1302
1645
1365
1585
1099
1463
1066
1364
1143
1510
1265
1726
1514
1898
1691
1999
1670
1994
1620
1862
1598
1682
1499
1802
1485
1755
1460
1686
1426
1591
1426
1693
1526
1746
1397
1738
1428
1650
1365
1714
1421
1713
1425
1827
1549
1837
1687
2074
1811
1954
1503
1802
1594
1805
1545
1774
1513
1739
1551
1958
1549
1699
1387
1645
1330
1662
1341
1525
1277
1498
1128
1406
1131
1257
1067
1302
973
1192
1010
1182
1034
1228
1167
1439
1259
1581
1440
1514
1101
1149
947
1258
870
1145
895
1121
1043
1360
1140
1354
617
0
0
1290
1186
1578
1279
1820
1481
1825
1513
1746
1347
1818
1343
1702
1496
1941
1601
2164
1929
2397
2144
2414
2037
2301
1888
2115
1861
2021
1849
2026
1772
2085
1822
2086
1868
2132
1795
2182
1829
2042
1870
2242
1828
2219
2032
2283
2006
2337
1948
2505
2188
2453
2318
2736
2446
2600
2110
2466
2121
2260
1979
2190
1803
2148
2018
2263
1959
2165
1778
2138
1837
2196
1812
2180
1824
2197
1716
1959
1656
1930
1643
1938
1528
1829
1549
1853
1614
1754
1654
2074
1763
2173
1941
2156
1767
1806
1514
1819
1383
1712
1410
1720
1501
1907
1663
1956
1219
0
0
1508
1493
1795
1438
1813
1641
1805
1514
1815
1569
1861
1531
1890
1627
1997
1919
2258
2118
2434
2176
2337
1982
2150
1837
2086
1858
2085
1782
2107
1841
2181
1783
2171
1804
2210
1870
2106
1845
2086
1913
2299
1970
2353
2015
2292
2123
2341
2078
2450
2204
2554
2401
2545
2394
2525
2134
2314
1951
1934
1754
1939
1632
1871
1679
1949
1690
1961
1637
1813
1618
1850
1590
1851
1670
2006
1594
1700
1380
1687
1421
1642
1360
1642
1294
1548
1282
1602
1330
1689
1534
1813
1641
1893
1574
1824
1425
1556
1211
1561
1196
1421
1165
1488
1294
1490
1069
0
0
1403
1338
1671
1332
1691
1410
1700
1395
1773
1371
1710
1342
1797
1490
1966
1877
2341
2179
2361
1980
2094
1609
1962
1621
1846
1642
1969
1621
1956
1658
1974
1709
1989
1747
2066
1726
2067
1625
2056
1874
2325
2038
2376
2062
2299
2142
2241
2011
2384
2103
2429
2298
2565
2254
2406
2078
2246
1832
1872
1579
1851
1612
1746
1381
1828
1522
1830
1438
1696
1440
1725
1475
1677
1518
1822
1476
1668
1362
1554
1324
1645
1298
1502
1233
1435
1161
1426
1128
1492
1402
1712
1534
1847
1534
1858
1402
1637
1077
1426
1027
1313
1090
1339
1096
1358
856
0
0
1289
1162
1410
1035
1339
1131
1349
989
1375
1141
1380
1214
1659
1349
1786
1737
2114
1834
2038
1689
1734
1316
1717
1418
1617
1418
1694
1434
1720
1409
1768
1499
1877
1565
1883
1553
1822
1451
1892
1765
2152
1913
2202
1870
2067
1732
1917
1642
1986
1698
2018
1915
2194
1986
2186
1904
2026
1559
1771
1401
1586
1333
1498
1252
1625
1239
1581
1239
1397
1244
1469
1131
1417
1279
1548
1276
1401
1109
1365
1111
1335
1032
1387
1069
1325
1044
1289
846
1298
1072
1437
1226
1517
1289
1563
1306
1489
990
1320
900
1115
884
1118
727
1006
571
0
0
1515
1301
1588
1197
1516
1309
1646
1339
1633
1430
1828
1588
1995
1706
2094
2039
2501
2138
2418
1876
2045
1682
1961
1751
1953
1677
2061
1748
2083
1833
2333
2053
2364
2093
2417
1972
2301
1972
2371
2219
2696
2293
2581
2153
2364
2053
2226
1923
2252
2066
2354
2192
2583
2241
2543
2202
2468
2070
2161
1995
2093
1856
2063
1731
2110
1735
2074
1694
1936
1704
1975
1701
1954
1725
2068
1746
1924
1613
1913
1606
1903
1608
1957
1668
1882
1546
1836
1478
1843
1579
1902
1682
2065
1833
2098
1827
2023
1686
1917
1507
1701
1450
1663
1298
1565
1095
0
0
1709
1443
1731
1435
1705
1418
1789
1541
1789
1755
2055
1815
2194
1845
2250
2050
2409
2147
2360
2024
2093
1798
2043
1806
2018
1758
2075
1833
2198
1956
2235
2165
2573
2101
2467
2059
2261
1876
2250
2036
2513
2237
2280
1835
2171
1810
2107
1786
2029
1786
2087
1909
2199
1903
2161
1853
2196
1815
2058
1871
1958
1708
1901
1698
1967
1676
1928
1593
1901
1490
1752
1435
1845
1505
1813
1460
1748
1389
1532
1322
1637
1389
1707
1474
1637
1384
1583
1338
1556
1338
1613
1417
1730
1456
1661
1434
1745
1494
1757
1403
1561
1110
1431
1102
1311
765
0
0
1614
1308
1685
1277
1610
1370
1713
1492
1773
1610
1981
1677
2004
1712
1978
1780
2317
2010
2237
1873
2029
1691
2007
1730
2058
1748
2034
1777
2095
1915
2222
2021
2469
2034
2232
1902
2074
1774
2133
1949
2257
1940
2122
1678
1985
1672
1962
1597
1905
1716
2017
1733
2007
1709
1979
1665
2084
1691
1922
1674
1829
1609
1821
1643
2006
1679
1967
1634
1978
1602
1785
1445
1794
1438
1671
1381
1634
1394
1672
1298
1613
1421
1617
1282
1673
1379
1618
1341
1526
1294
1674
1394
1561
1286
1593
1296
1673
1434
1779
1401
1603
1115
1299
1085
1168
728
0
0
1142
1051
1221
998
1425
1109
1434
1202
1444
1203
1526
1226
1563
1225
1561
1485
1841
1597
1894
1501
1681
1487
1862
1602
1812
1527
1769
1560
1770
1485
1805
1547
1915
1603
1775
1420
1717
1418
1739
1495
1733
1414
1786
1334
1570
1309
1649
1301
1637
1365
1623
1340
1675
1418
1585
1301
1630
1323
1616
1315
1524
1244
1512
1402
1671
1410
1597
1365
1674
1253
1521
1178
1518
1103
1353
1100
1395
1038
1306
1093
1427
1113
1290
1083
1352
1125
1366
1156
1266
1036
1362
1128
1338
1034
1243
1006
1325
1114
1463
1109
1285
985
1060
795
894
459
0
0
1364
1121
1556
1232
1714
1410
1750
1442
1762
1439
1765
1353
1809
1445
1883
1658
2122
1866
2293
1985
2225
1924
2381
2047
2253
1946
2174
1813
2161
1820
2074
1871
2155
1832
2070
1814
2032
1750
2094
1785
2121
1856
2061
1771
2105
1819
2148
1771
2101
1762
2149
1806
2103
1754
2157
1826
2168
1817
2080
1749
2004
1733
2081
1774
2211
1833
2132
1837
2205
1804
2038
1701
2069
1683
2020
1658
1893
1580
1930
1586
1950
1581
1851
1602
1861
1589
1949
1609
1851
1673
2102
1755
2029
1605
1821
1489
1853
1581
2009
1633
1944
1524
1732
1344
1529
1011
0
0
1510
1422
1748
1546
1992
1620
1915
1540
1868
1634
1846
1589
1897
1619
2035
1771
2307
2004
2491
2105
2450
2165
2379
2101
2241
1931
2178
1826
2067
1879
2036
1839
2058
1725
2118
1765
2090
1848
2090
1874
2121
1789
2076
1828
2133
1806
2101
1836
2002
1821
1976
1706
2024
1723
2149
1782
2088
1691
1922
1695
1925
1540
1864
1555
1811
1659
1869
1622
1873
1653
1840
1550
1686
1493
1905
1556
1819
1434
1625
1494
1770
1423
1613
1354
1569
1234
1563
1409
1713
1675
1956
1738
1874
1517
1638
1306
1493
1241
1653
1325
1670
1380
1527
1219
1336
761
0
0
1424
1262
1687
1526
1838
1420
1821
1311
1750
1454
1687
1451
1730
1537
1889
1588
2230
1972
2289
2018
2327
1971
2229
1898
2075
1714
1986
1717
1938
1660
2005
1755
1947
1702
1957
1630
2029
1749
2061
1807
2149
1811
2173
1805
2133
1788
2020
1749
2052
1812
2036
1700
2053
1826
2242
1848
2032
1725
1914
1531
1762
1394
1745
1478
1796
1563
1761
1576
1782
1481
1670
1488
1618
1384
1786
1485
1761
1371
1555
1347
1685
1285
1589
1339
1482
1245
1539
1303
1674
1476
1898
1719
1897
1492
1605
1221
1425
1194
1460
1156
1541
1267
1426
1229
1308
729
0
0
1102
1017
1377
1195
1419
1100
1386
1019
1405
1147
1298
1097
1393
1131
1536
1230
1836
1604
1962
1701
1814
1515
1699
1423
1614
1342
1670
1327
1661
1464
1649
1421
1680
1412
1741
1429
1689
1506
1933
1581
2001
1629
1997
1554
1849
1522
1742
1474
1721
1522
1808
1562
1838
1640
1985
1622
1793
1461
1729
1299
1545
1202
1517
1196
1517
1294
1544
1282
1369
1062
1460
1190
1414
1160
1418
1120
1429
1181
1380
1143
1357
1037
1269
1069
1268
905
1222
1098
1314
1306
1632
1425
1738
1405
1334
949
1261
830
1172
891
1216
981
1163
922
1051
456
0
0
1416
1228
1570
1319
1663
1314
1636
1320
1714
1358
1709
1417
1755
1478
1965
1681
2211
1896
2289
1834
2051
1703
2010
1770
2050
1706
2129
1705
2052
1875
2099
1769
2108
1819
2156
1822
2199
2023
2462
2221
2518
2205
2546
2107
2450
2033
2356
1925
2242
1908
2338
1974
2331
2073
2342
2138
2395
1964
2285
1964
2245
1789
2106
1788
2078
1810
2098
1757
1958
1736
1900
1682
1877
1687
1985
1689
2025
1670
2008
1723
1949
1612
1978
1637
1844
1413
1804
1585
1914
1803
2229
1988
2344
1915
2075
1607
1757
1430
1771
1303
1706
1469
1691
1430
1663
1093
0
0
1616
1428
1843
1427
1833
1561
1821
1546
1746
1583
1909
1654
1943
1749
2021
1835
2176
2093
2256
1899
2045
1821
2116
1779
2159
1804
2125
1821
2102
1883
2164
1874
2069
1820
2162
2011
2354
2077
2534
2251
2570
2155
2389
2171
2377
2090
2235
1917
2088
1837
2165
1929
2164
1877
2122
1898
2181
1785
2136
1879
2006
1741
1962
1796
2080
1789
2074
1723
1914
1728
1858
1597
1844
1533
1786
1510
1735
1435
1790
1447
1797
1404
1749
1482
1654
1343
1574
1369
1741
1544
1989
1926
2300
1837
1981
1546
1840
1322
1446
1201
1419
1220
1418
1141
1402
895
0
0
1465
1237
1686
1201
1653
1317
1745
1410
1702
1450
1798
1434
1843
1584
1842
1485
2011
1818
2097
1758
1994
1637
1988
1581
2046
1704
2004
1668
1933
1650
2004
1748
1898
1734
2061
1814
2194
1938
2325
2013
2190
1869
2135
1819
2075
1771
2010
1626
1966
1621
1908
1630
1850
1593
1897
1680
1977
1589
2005
1685
1885
1621
1910
1655
2025
1774
2086
1692
1964
1621
1766
1431
1772
1361
1690
1323
1646
1304
1608
1285
1657
1328
1667
1403
1603
1246
1522
1284
1723
1354
1919
1838
2084
1751
1876
1483
1652
1224
1344
1077
1285
1070
1294
976
1253
660
0
0
1032
901
1368
1012
1349
1077
1426
1083
1389
1138
1447
1143
1484
1268
1591
1209
1596
1521
1762
1512
1651
1448
1684
1306
1716
1412
1618
1386
1709
1444
1706
1499
1648
1366
1740
1513
1877
1602
1901
1584
1813
1515
1690
1429
1690
1461
1643
1384
1637
1408
1579
1354
1560
1307
1525
1333
1586
1275
1606
1352
1529
1332
1618
1397
1714
1493
1825
1462
1776
1490
1629
1298
1609
1109
1363
1076
1393
1059
1339
1076
1386
1051
1450
1170
1397
1103
1398
1070
1367
1126
1590
1514
1818
1545
1573
1330
1417
942
1186
866
1133
828
1042
713
996
554
0
0
1296
1194
1609
1211
1738
1431
1711
1482
1790
1488
1867
1483
1845
1514
1860
1593
1975
1781
2106
1975
2237
1911
2154
1778
2149
1781
2133
1871
2199
1825
2203
1918
2127
1800
2218
1860
2250
1937
2280
1899
2270
1838
2218
1900
2165
1957
2151
1933
2210
1818
2145
1815
2088
1797
2053
1826
2128
1838
2109
1841
2034
1810
2112
1847
2173
1975
2235
1963
2362
2081
2267
1962
2221
1768
2061
1605
2045
1595
1903
1570
1957
1599
1948
1728
2074
1750
2015
1704
1924
1733
2114
1905
2315
1966
2058
1870
2162
1631
1814
1410
1738
1418
1731
1354
1723
1076
0
0
1486
1457
1894
1545
1933
1707
2070
1774
1994
1659
1893
1518
1950
1665
2018
1684
2082
1810
2234
2029
2394
2102
2413
1950
2190
1908
2122
1868
2155
1901
2165
1845
2229
1829
2069
1879
2148
1900
2122
1847
2151
1877
2120
1869
2088
1875
2001
1733
2000
1674
2082
1778
1988
1706
1994
1778
1921
1714
1937
1747
1906
1714
1873
1629
1950
1694
1900
1697
2043
1776
2014
1741
2071
1629
1877
1461
1817
1419
1643
1410
1669
1429
1732
1481
1758
1522
1837
1557
1818
1434
1861
1580
1809
1490
1629
1526
1777
1484
1736
1300
1520
1266
1397
1216
1434
914
0
0
1418
1314
1745
1528
1847
1570
1813
1601
1788
1402
1686
1426
1810
1477
1899
1533
1970
1634
2058
1873
2340
1946
2294
1931
2084
1726
1930
1691
1960
1787
1990
1677
1995
1642
2025
1769
1995
1642
1997
1786
1949
1679
1967
1650
1967
1682
1894
1689
1941
1622
1943
1655
1890
1594
1892
1625
1783
1588
1883
1595
1704
1575
1770
1588
1814
1453
1741
1494
1815
1531
1902
1700
2007
1645
1945
1430
1778
1369
1485
1422
1618
1318
1573
1270
1653
1361
1826
1552
1845
1590
1731
1429
1610
1291
1524
1270
1592
1290
1681
1188
1565
1179
1376
1111
1338
746
0
0
1175
1099
1561
1204
1475
1194
1534
1214
1405
1187
1441
1120
1486
1252
1565
1226
1668
1508
1841
1602
1975
1739
1969
1538
1641
1402
1711
1332
1689
1409
1754
1434
1746
1437
1717
1540
1770
1441
1643
1454
1717
1505
1778
1493
1759
1441
1718
1359
1666
1335
1797
1456
1685
1374
1682
1501
1690
1429
1643
1420
1578
1316
1605
1278
1526
1200
1449
1189
1476
1301
1562
1387
1750
1496
1799
1261
1488
1106
1277
1149
1445
1065
1424
1111
1289
1085
1413
1307
1750
1354
1672
1269
1419
971
1194
982
1166
1122
1413
1069
1335
1029
1231
925
1122
497
0
0
1506
1509
1833
1485
1766
1426
1725
1361
1723
1365
1755
1437
1806
1460
1942
1698
2125
1791
2165
1879
2285
2007
2278
1944
2034
1737
2077
1776
2098
1898
2107
1808
2173
1838
2146
1937
2261
1820
2229
1928
2274
2005
2222
1973
2302
1957
2202
1896
2178
1872
2333
2036
2349
2010
2325
2058
2315
2038
2398
2052
2232
1932
2091
1782
2158
1755
2034
1736
1961
1726
2042
1811
2331
2024
2425
1977
2105
1723
1909
1663
1963
1598
1935
1611
1966
1591
1978
1877
2274
1986
2277
1910
2071
1523
1736
1497
1815
1481
2001
1673
2021
1712
1837
1576
1737
1157
0
0
1658
1590
2006
1674
1863
1469
1750
1585
1771
1561
1818
1569
1899
1708
2098
1984
2153
1926
2139
2001
2295
2031
2221
1797
2074
1829
2059
1800
2073
1785
2189
1867
2154
1964
2238
1975
2234
2067
2472
2077
2341
1994
2292
2004
2130
1837
2075
1786
2001
1819
2156
1989
2292
1937
2317
2029
2242
1999
2203
1948
2134
1831
2026
1746
2031
1613
1819
1589
1840
1533
1802
1561
1840
1676
2057
1730
1917
1586
1802
1541
1732
1383
1690
1286
1653
1346
1570
1506
1940
1730
2017
1721
1846
1364
1547
1323
1573
1269
1499
1418
1780
1524
1686
1393
1489
918
0
0
1576
1378
1786
1374
1666
1396
1669
1370
1721
1405
1738
1520
1857
1718
1985
1913
2002
1772
1975
1806
2153
1837
2069
1627
2011
1691
2008
1716
2071
1796
2130
1798
2260
2007
2325
1951
2293
2074
2385
2128
2344
2041
2255
1870
2093
1733
2045
1746
2010
1709
2070
1844
2152
1840
2150
1946
2075
1810
2039
1733
2003
1742
2000
1713
2027
1692
1778
1474
1787
1500
1779
1436
1706
1483
1753
1565
1786
1494
1808
1542
1752
1421
1602
1254
1640
1286
1564
1354
1774
1594
1907
1588
1764
1367
1521
1208
1422
1237
1437
1302
1685
1456
1621
1349
1473
823
0
0
1146
1068
1314
1045
1373
1069
1346
1165
1503
1271
1516
1201
1597
1330
1730
1483
1685
1318
1586
1401
1810
1484
1746
1362
1640
1360
1677
1460
1793
1491
1892
1620
2009
1805
2066
1848
2060
1762
2078
1736
1997
1686
1845
1527
1748
1348
1754
1442
1654
1457
1694
1573
1736
1378
1778
1553
1691
1390
1620
1460
1739
1485
1731
1462
1869
1415
1557
1333
1523
1166
1524
1160
1445
1165
1442
1220
1589
1167
1630
1341
1590
1280
1423
1025
1366
1066
1298
1009
1474
1295
1640
1326
1534
1090
1190
1010
1224
964
1200
980
1350
1126
1426
1141
1271
558
0
0
1284
1173
1639
1287
1643
1319
1634
1450
1734
1557
1909
1565
1957
1607
1943
1655
1963
1632
1871
1733
2085
1820
2054
1731
2082
1828
2133
1870
2269
1868
2418
2149
2508
2194
2436
2086
2325
2005
2426
2032
2292
2032
2286
1956
2141
1818
2173
1789
2165
1820
2177
1880
2154
1798
2098
1890
2126
1819
2002
1812
2051
1807
2068
1866
2282
1934
2222
1813
2154
1694
2133
1793
1922
1629
1979
1658
2018
1617
2042
1754
2210
1812
1917
1650
1943
1612
1911
1602
1929
1717
2225
1894
2065
1661
1796
1593
1851
1494
1771
1477
1853
1729
1922
1537
1806
1121
0
0
1506
1448
1745
1496
1826
1595
1909
1657
1969
1795
2125
1818
2111
1832
2037
1694
1993
1830
2105
1938
2231
2049
2289
1964
2269
1940
2106
1853
2253
1989
2267
2101
2473
2089
2362
1900
2156
1875
2146
1917
2205
1924
2131
1858
2001
1835
2037
1723
2018
1717
2020
1678
2021
1693
2021
1717
1976
1642
1962
1597
1918
1570
1832
1738
1995
1757
2066
1762
1994
1627
1901
1538
1818
1465
1758
1541
1793
1562
1642
1518
1763
1605
1772
1460
1717
1456
1643
1349
1643
1424
1790
1647
1851
1441
1671
1317
1565
1225
1461
1261
1560
1405
1550
1335
1485
837
0
0
1493
1302
1646
1399
1665
1503
1846
1539
1923
1594
2009
1616
1973
1643
1963
1589
1905
1681
1997
1829
2257
1973
2314
1954
2317
1961
2061
1829
2160
1951
2181
1935
2218
1858
2152
1730
2018
1701
2002
1765
2158
1805
1992
1770
1981
1707
1967
1691
2002
1678
1970
1576
1961
1695
1935
1712
1923
1559
1892
1520
1859
1484
1819
1588
1909
1636
1885
1686
1971
1673
2033
1607
1844
1522
1763
1418
1622
1379
1559
1346
1675
1411
1717
1425
1701
1389
1578
1242
1554
1352
1691
1563
1762
1477
1717
1315
1680
1214
1434
1195
1539
1173
1413
1154
1323
685
0
0
1062
1019
1389
1141
1458
1217
1608
1242
1533
1273
1508
1174
1557
1221
1524
1239
1552
1296
1731
1674
1985
1806
2081
1636
1954
1619
1819
1438
1771
1585
1765
1485
1807
1453
1814
1434
1612
1438
1741
1427
1768
1459
1699
1445
1694
1467
1669
1361
1719
1372
1645
1365
1647
1361
1674
1369
1645
1310
1572
1237
1597
1293
1470
1296
1557
1394
1644
1409
1645
1305
1646
1350
1606
1269
1571
1163
1381
1095
1316
1050
1326
1115
1495
1121
1424
1092
1402
1097
1284
986
1367
1222
1426
1226
1525
1193
1533
1086
1251
902
1132
901
1138
937
1046
518
0
0
1444
1275
1715
1312
1746
1448
1818
1421
1794
1478
1781
1381
1800
1533
1883
1554
1910
1757
2194
2043
2418
2069
2402
1958
2273
1895
2122
1861
2141
1865
2120
1832
2169
1834
2186
1893
2128
1809
2097
1801
2187
1858
2226
1956
2303
2029
2274
1988
2250
1913
2301
1901
2253
1906
2154
1866
2242
1835
2069
1701
2005
1746
2008
1749
2077
1806
2054
1714
2116
1751
2130
1739
2196
1892
2094
1707
1991
1637
1909
1565
1901
1594
1936
1698
1928
1691
1989
1594
1957
1538
1908
1684
1994
1681
2069
1732
2109
1730
1861
1466
1763
1424
1603
1353
1640
1121
0
0
1653
1597
2038
1802
1989
1607
1893
1697
1908
1602
1973
1583
1860
1642
2072
1777
2066
1920
2358
2111
2474
2135
2369
2017
2290
2022
2187
1963
2092
1867
2233
1926
2175
1924
2165
1899
2155
1936
2290
1998
2268
2010
2348
2137
2440
2157
2411
2116
2429
2096
2342
2147
2354
2070
2284
2031
2213
1907
2124
1746
1933
1722
1972
1710
2023
1682
1888
1625
1881
1582
1896
1613
1841
1675
1927
1625
1798
1523
1687
1417
1757
1469
1661
1514
1670
1432
1755
1564
1709
1482
1659
1549
1650
1547
1695
1445
1862
1610
1787
1418
1561
1235
1443
1115
1405
1063
0
0
1594
1564
1793
1627
1836
1452
1793
1481
1719
1429
1748
1467
1801
1556
1881
1613
1899
1730
2192
1972
2165
1863
2202
1826
2100
1843
2011
1736
1994
1746
2053
1684
2066
1736
2078
1803
2128
1853
2288
2031
2240
2013
2397
2103
2425
2088
2382
2026
2395
2010
2250
2060
2372
2004
2248
1982
2161
1869
2117
1751
2021
1751
2025
1704
2037
1704
1794
1566
1779
1442
1664
1473
1737
1442
1754
1435
1610
1386
1643
1237
1651
1300
1529
1355
1570
1282
1610
1453
1610
1382
1649
1448
1530
1355
1512
1237
1645
1467
1650
1397
1563
1175
1338
970
1261
886
0
0
1226
1156
1458
1155
1444
1033
1486
1207
1385
1135
1412
1149
1473
1293
1642
1416
1609
1370
1836
1541
1642
1416
1762
1488
1765
1506
1705
1425
1717
1551
1732
1506
1756
1601
1910
1620
1917
1691
1972
1734
1995
1820
2037
1783
2101
1797
2142
1763
2048
1647
1986
1730
2052
1665
1994
1763
1937
1687
1865
1495
1812
1598
1890
1669
1973
1518
1685
1362
1418
1137
1461
1148
1356
1106
1317
1115
1432
1114
1342
1038
1387
1131
1274
1041
1277
954
1284
1224
1374
1186
1418
1277
1317
1034
1094
938
1373
1189
1488
1242
1408
951
1029
769
852
546
0
0
1458
1286
1642
1397
1726
1394
1784
1455
1753
1458
1834
1458
1810
1578
1982
1674
1998
1773
2097
1789
2019
1687
2098
1844
2116
1899
2084
1842
2187
1922
2276
1978
2306
2110
2421
2130
2317
2039
2434
1999
2413
2036
2376
2050
2361
2056
2514
2081
2386
2043
2229
1974
2361
2099
2397
2126
2401
2066
2266
1934
2243
2085
2538
2193
2575
2140
2367
2014
2069
1762
2045
1701
1865
1610
1937
1725
1917
1669
1910
1614
2017
1698
1894
1621
1918
1546
1812
1663
1986
1730
2080
1866
1959
1568
1815
1437
1878
1669
1985
1789
2030
1609
1854
1318
1547
1103
0
0
1666
1552
1906
1557
1741
1569
1883
1706
2000
1689
1970
1669
2009
1685
1958
1729
2083
1883
2189
1906
2085
1893
2235
1873
2169
1951
2324
2066
2298
2095
2337
2174
2373
2131
2369
2073
2274
2022
2260
1944
2196
1974
2171
1899
2211
1854
2163
1891
2086
1785
2013
1844
2037
1787
2011
1934
2115
1754
2037
1745
2021
1898
2167
2053
2362
2006
2249
1882
2171
1777
1949
1598
1750
1513
1730
1460
1706
1533
1642
1485
1788
1579
1763
1434
1646
1354
1623
1453
1714
1425
1867
1649
1841
1451
1598
1269
1545
1365
1669
1458
1814
1456
1674
1210
1387
942
0
0
1556
1330
1661
1391
1627
1396
1783
1412
1847
1449
1774
1485
1840
1473
1805
1531
1835
1579
1960
1635
1901
1763
1963
1710
2158
1915
2260
2025
2195
2095
2276
1969
2203
1837
2110
1860
1999
1744
2031
1690
2045
1738
1914
1672
1964
1708
1938
1671
1928
1597
1862
1589
1849
1589
1893
1679
1873
1533
1876
1517
1842
1682
1992
1717
2141
1781
1979
1663
1978
1742
1973
1676
1762
1368
1618
1317
1625
1394
1563
1282
1608
1452
1699
1426
1570
1257
1525
1294
1572
1253
1712
1530
1757
1389
1437
1218
1399
1224
1526
1241
1621
1298
1645
1183
1258
778
0
0
1163
1082
1418
1097
1366
1221
1514
1322
1479
1249
1538
1220
1495
1206
1465
1301
1553
1353
1722
1428
1606
1445
1764
1506
1958
1692
2091
1854
2002
1693
1855
1610
1828
1525
1736
1551
1736
1513
1709
1425
1762
1464
1641
1370
1690
1410
1706
1386
1702
1386
1610
1384
1583
1285
1579
1353
1662
1283
1582
1317
1483
1334
1525
1381
1684
1269
1526
1317
1622
1386
1672
1422
1627
1242
1442
1162
1285
1110
1330
1084
1346
1221
1433
1222
1434
1010
1258
1103
1288
1029
1494
1266
1509
1175
1274
996
1162
891
1145
1001
1234
968
1330
914
1122
612
0
0
1478
1242
1802
1387
1611
1408
1765
1518
1869
1482
1768
1498
1842
1442
1796
1589
1986
1784
2063
1821
2102
1805
2202
1930
2352
2122
2462
2169
2318
2034
2274
1853
2253
1889
2224
1948
2213
1877
2163
1906
2150
1851
2190
1894
2213
1913
2149
1881
2164
1765
2095
1802
2134
1737
2074
1825
2203
1805
2187
1797
2005
1770
2027
1877
2145
1758
2082
1705
2024
1828
2124
1867
2181
1770
2005
1685
1962
1706
1916
1668
1957
1778
2109
1801
2082
1694
1970
1681
1914
1637
2057
1738
2128
1727
1953
1610
1834
1503
1713
1490
1806
1541
1885
1462
1658
1081
0
0
1581
1490
1972
1654
1960
1714
2005
1749
1942
1634
1962
1653
1960
1626
1996
1825
2189
1898
2219
1931
2123
1974
2235
2038
2429
2128
2451
2028
2249
1944
2133
1877
2074
1917
2200
1865
2152
1894
2156
1785
2085
1937
2162
1780
2170
1861
2121
1782
2086
1819
2106
1776
2107
1677
1974
1686
2004
1738
1947
1685
1954
1625
1917
1650
1946
1589
1825
1624
1892
1627
1836
1528
1847
1675
1877
1555
1817
1443
1725
1482
1722
1461
1778
1543
1677
1495
1648
1438
1653
1351
1678
1451
1706
1558
1736
1494
1689
1130
1563
1147
1512
1221
1475
1056
1377
888
0
0
1400
1366
1829
1554
1843
1586
1885
1546
1802
1540
1807
1424
1838
1573
1909
1762
2091
1753
2134
1692
2041
1823
2071
1794
2178
1867
2152
1783
2058
1738
2038
1794
1911
1701
2111
1682
2013
1716
2018
1714
2002
1693
2126
1763
2126
1787
2117
1802
2029
1697
2069
1719
2061
1591
1958
1646
1947
1563
1819
1652
1782
1540
1788
1477
1800
1389
1760
1504
1771
1501
1643
1312
1789
1490
1757
1502
1802
1464
1627
1373
1620
1328
1658
1325
1596
1424
1633
1274
1626
1291
1567
1239
1545
1270
1570
1334
1583
1109
1408
1051
1346
1096
1326
927
1219
722
0
0
1217
1181
1569
1234
1544
1258
1462
1245
1491
1174
1522
1167
1589
1322
1659
1411
1869
1501
1758
1458
1722
1479
1738
1472
1866
1425
1792
1454
1704
1447
1723
1439
1693
1351
1810
1371
1742
1457
1817
1477
1846
1551
1956
1547
1850
1610
1931
1576
1834
1610
1915
1561
1902
1525
1818
1604
1842
1446
1690
1332
1579
1313
1582
1315
1613
1202
1478
1269
1443
1163
1405
1123
1440
1238
1541
1285
1586
1272
1322
1069
1353
1006
1396
1136
1259
1110
1384
1117
1398
1091
1321
1046
1317
1034
1318
1173
1371
891
1224
753
1048
881
1035
701
965
502
0
0
1576
1451
1868
1517
1840
1460
1768
1476
1794
1443
1858
1483
1892
1672
1949
1677
2139
1685
2020
1694
2053
1754
2078
1755
2102
1709
2082
1758
2107
1819
2100
1898
2114
1917
2218
1878
2201
1947
2306
2007
2340
2050
2387
2050
2437
2103
2521
2214
2461
2102
2444
2226
2534
2101
2549
2152
2476
2102
2234
1934
2124
1849
2131
1777
2122
1789
2072
1754
2042
1754
1923
1638
1934
1732
2062
1843
2124
1768
2043
1677
1926
1586
1942
1589
1807
1602
1913
1673
1982
1621
1996
1559
1850
1581
1779
1644
1917
1499
1789
1337
1642
1362
1679
1262
1572
1079
0
0
1781
1638
1892
1711
1977
1629
1913
1621
1950
1682
2086
1680
2109
1981
2215
1894
2089
1801
1965
1750
2178
1865
2176
1866
2117
1797
2219
1925
2082
1880
2267
1962
2266
2030
2237
1998
2306
2123
2373
2006
2386
2070
2336
2013
2312
2148
2306
2075
2341
2005
2347
1961
2245
1969
2261
2025
2344
1993
2206
1751
1956
1641
1862
1626
2052
1777
2025
1578
1801
1613
1838
1531
1773
1599
1774
1515
1749
1540
1734
1517
1669
1435
1686
1378
1680
1353
1714
1483
1733
1481
1707
1377
1590
1280
1494
1293
1625
1332
1547
1187
1442
1053
1333
1064
1364
731
0
0
1634
1478
1764
1532
1828
1483
1845
1594
1843
1549
1973
1674
2000
1802
2050
1645
1887
1546
1886
1578
1978
1620
1994
1670
1941
1617
2088
1819
2090
1877
2251
1879
2195
1946
2226
1843
2173
1937
2248
1821
2189
1815
2161
1751
2103
1810
2064
1787
2196
1770
2036
1759
2066
1826
2085
1842
2214
1833
2116
1717
1882
1545
1819
1476
2084
1733
1919
1586
1810
1563
1755
1427
1690
1442
1635
1421
1637
1370
1640
1367
1686
1390
1667
1329
1581
1245
1573
1372
1623
1396
1686
1337
1477
1096
1414
1213
1563
1242
1581
1122
1361
941
1205
957
1205
704
0
0
1192
1084
1390
1205
1457
1211
1605
1279
1599
1338
1754
1352
1653
1463
1594
1339
1526
1339
1586
1378
1634
1394
1678
1427
1706
1447
1706
1498
1917
1647
2041
1743
1965
1682
1892
1641
1802
1572
1793
1493
1748
1538
1690
1362
1659
1489
1665
1413
1809
1451
1655
1434
1678
1408
1709
1547
1794
1429
1695
1385
1574
1275
1479
1209
1762
1402
1768
1392
1645
1413
1638
1314
1460
1229
1365
1130
1333
1093
1282
966
1369
1172
1460
1168
1342
1010
1318
1146
1340
1128
1438
1173
1266
955
1226
962
1237
1014
1387
1067
1140
770
1069
726
955
423
0
0
1413
1258
1576
1357
1757
1357
1882
1565
1846
1589
1960
1598
1861
1680
1832
1620
1966
1538
1936
1621
1957
1593
2061
1814
2109
1754
2213
1949
2264
1988
2423
2042
2251
1915
2285
1874
2139
1806
2122
1736
2092
1723
2044
1705
2153
1863
2034
1870
2145
1838
2034
1742
2051
1701
2013
1753
2194
1832
2015
1740
2062
1663
1933
1658
2085
1779
2091
1808
2117
1917
2195
1937
2148
1745
1906
1630
1926
1559
1910
1546
1901
1685
2050
1719
1894
1573
1867
1524
1970
1626
1962
1674
1878
1377
1758
1451
1699
1440
1803
1542
1814
1291
1573
1258
1540
960
0
0
1637
1498
1931
1605
1821
1732
2109
1843
2135
1780
1987
1800
2013
1834
2042
1741
2012
1726
2037
1802
2013
1858
2210
1986
2192
1915
2209
2031
2333
2043
2267
1899
2157
1872
2101
1842
2098
1810
2075
1846
2165
1770
2060
1813
2014
1804
1986
1818
2037
1673
1995
1678
1949
1627
1915
1670
1914
1656
1819
1619
1826
1614
1810
1546
1981
1605
1812
1693
1989
1777
2031
1765
1973
1671
1858
1416
1723
1539
1700
1418
1787
1549
1825
1676
1733
1550
1626
1412
1766
1450
1725
1429
1682
1368
1597
1325
1477
1353
1646
1269
1526
1224
1350
1019
1304
906
0
0
1508
1354
1771
1434
1702
1541
1896
1615
1879
1535
1900
1581
1901
1667
1896
1609
1850
1551
1906
1610
1874
1781
2061
1800
2063
1760
2060
1714
2135
1780
1945
1666
1994
1708
1928
1713
1903
1673
1910
1699
1910
1667
1934
1638
1893
1661
1910
1578
1874
1614
1830
1573
1907
1538
1805
1499
1723
1476
1654
1394
1687
1501
1776
1389
1759
1489
1659
1437
1760
1485
1780
1535
1873
1499
1806
1335
1621
1322
1630
1278
1686
1347
1641
1525
1742
1484
1551
1249
1557
1325
1602
1376
1674
1321
1581
1156
1417
1222
1488
1073
1378
1101
1289
970
1198
587
0
0
1099
1098
1438
1239
1486
1222
1527
1192
1620
1200
1526
1238
1570
1295
1526
1341
1531
1256
1573
1325
1615
1434
1787
1485
1789
1483
1720
1382
1689
1374
1626
1430
1651
1375
1492
1314
1574
1349
1555
1325
1685
1333
1538
1358
1663
1314
1588
1370
1593
1195
1641
1258
1540
1323
1517
1221
1466
1179
1379
1101
1409
1221
1374
1137
1467
1154
1413
1173
1416
1200
1522
1253
1498
1226
1533
1161
1454
1154
1297
1042
1358
1015
1365
1232
1467
1236
1334
1113
1302
1069
1421
1056
1410
1124
1341
1021
1129
918
1173
804
1146
869
1082
779
885
520
0
0
1378
1339
1815
1512
1794
1459
1802
1421
1825
1474
1817
1476
1829
1554
1832
1673
1907
1619
1939
1710
2015
1789
2159
1798
2141
1813
2090
1742
2037
1680
2021
1706
2126
1777
2058
1700
1965
1777
2062
1778
2077
1723
2085
1840
2148
1809
2082
1798
2114
1776
2086
1765
2118
1753
2069
1654
2007
1693
1957
1634
1949
1612
1865
1632
1961
1582
1962
1675
1870
1580
1943
1700
2002
1691
2073
1705
1954
1617
1785
1573
1945
1506
1949
1705
2006
1833
1937
1641
1863
1506
1853
1555
1886
1596
1896
1462
1685
1461
1730
1325
1681
1403
1640
1365
1566
951
0
0
1647
1578
1972
1762
1950
1648
2026
1737
1955
1833
1917
1751
1973
1764
2052
1745
2102
1874
2133
1883
2142
1846
2188
1835
2139
1906
2129
1781
2170
1819
2075
1726
2130
1839
2147
1873
2086
1862
2109
1829
2077
1903
2061
1878
2148
1881
2093
1828
2177
1828
2124
1829
1990
1738
1946
1643
1886
1674
1802
1579
1853
1450
1832
1558
1844
1483
1834
1422
1751
1445
1756
1553
1742
1498
1778
1579
1684
1356
1678
1404
1682
1405
1662
1413
1858
1669
1826
1461
1688
1408
1594
1419
1623
1394
1690
1323
1564
1165
1405
1148
1402
1229
1521
1158
1418
805
0
0
1427
1307
1683
1450
1737
1397
1718
1397
1733
1515
1783
1558
1728
1475
1866
1585
1904
1653
1922
1610
1850
1561
1972
1602
1915
1570
2004
1609
1905
1569
1757
1523
2005
1666
2005
1732
1958
1717
1965
1654
1912
1765
2039
1825
2077
1793
1993
1685
2018
1654
1922
1742
1934
1626
1861
1558
1754
1509
1762
1429
1730
1361
1642
1302
1670
1306
1726
1313
1645
1298
1559
1371
1605
1320
1538
1333
1559
1247
1466
1228
1510
1162
1465
1210
1559
1501
1700
1438
1597
1268
1394
1197
1474
1267
1495
1124
1382
1001
1238
994
1306
1042
1348
986
1165
560
0
0
1106
1009
1352
1194
1451
1130
1439
1149
1366
1250
1443
1301
1553
1358
1581
1330
1662
1382
1549
1340
1558
1318
1681
1298
1675
1348
1652
1363
1650
1339
1599
1338
1662
1450
1751
1576
1813
1426
1725
1429
1762
1516
1826
1637
1858
1591
1721
1437
1755
1388
1745
1548
1701
1488
1623
1297
1506
1304
1509
1390
1610
1188
1469
1139
1394
1053
1510
1033
1345
1073
1260
1129
1354
1029
1299
1122
1329
1039
1221
1002
1250
1013
1223
983
1321
1157
1456
1269
1465
1165
1210
1002
1116
877
1165
969
1091
843
1015
810
1081
797
1093
766
1096
437
0
0
1338
1181
1598
1381
1653
1365
1731
1473
1748
1597
1825
1666
1836
1565
1941
1649
2011
1662
1929
1634
1958
1597
2053
1715
2049
1813
2093
1747
2052
1724
2108
1686
2157
1861
2320
1982
2230
1837
2155
1889
2134
1981
2229
1985
2226
1874
2149
1813
2170
1781
2154
1957
2250
1945
2084
1796
2061
1771
2114
1934
2185
1717
2029
1538
1989
1642
1896
1533
1921
1577
1819
1626
1870
1612
1849
1635
1888
1636
1837
1593
1841
1563
1818
1439
1905
1643
1999
1797
2117
1747
1805
1552
1748
1409
1779
1457
1809
1484
1629
1346
1594
1413
1603
1310
1580
924
0
0
1548
1458
1753
1508
1787
1497
1911
1716
2059
1859
2049
1718
2045
1768
2059
1796
2074
1776
2050
1717
1975
1745
2101
1838
2183
1896
2157
1854
2078
1832
2166
1782
2200
1851
2158
1972
2164
1865
2119
1770
2010
1805
2086
1794
2019
1798
2005
1675
1948
1689
1933
1734
1994
1757
1853
1685
1903
1753
2094
1710
2036
1647
1854
1520
1915
1591
1893
1579
1718
1354
1738
1499
1653
1434
1733
1426
1771
1403
1618
1397
1600
1329
1533
1371
1522
1387
1757
1594
1853
1454
1590
1207
1476
1258
1469
1208
1469
1271
1479
1175
1354
1131
1266
1058
1378
813
0
0
1402
1145
1581
1252
1614
1349
1805
1578
2005
1630
1943
1573
1822
1503
1835
1463
1817
1518
1782
1477
1768
1565
1898
1624
2012
1770
1997
1757
1992
1684
1934
1512
1897
1594
1901
1579
1854
1658
1924
1550
1742
1497
1836
1560
1770
1485
1746
1405
1741
1467
1670
1493
1803
1526
1680
1534
1700
1612
1904
1478
1798
1431
1706
1362
1732
1426
1764
1392
1597
1217
1529
1315
1537
1304
1605
1204
1499
1314
1502
1282
1474
1192
1380
1123
1369
1165
1508
1357
1637
1397
1490
1080
1290
1130
1321
1093
1272
1034
1269
971
1172
1026
1144
891
1100
658
0
0
1026
868
1243
1096
1341
1098
1557
1394
1746
1365
1585
1234
1514
1256
1507
1125
1521
1202
1368
1170
1506
1310
1616
1379
1797
1478
1727
1529
1653
1413
1597
1192
1608
1320
1504
1288
1541
1282
1580
1229
1487
1242
1410
1212
1499
1178
1485
1162
1448
1177
1455
1172
1433
1208
1330
1163
1445
1287
1584
1173
1445
1047
1421
1077
1538
1293
1542
1217
1459
1025
1291
1082
1209
1003
1302
968
1284
953
1277
1035
1320
1071
1299
977
1144
885
1163
1048
1253
1045
1298
930
1114
731
1073
891
1117
873
1163
827
986
712
846
657
1002
530
0
0
1237
1098
1450
1213
1588
1298
1877
1626
1942
1579
1818
1393
1721
1431
1798
1541
1794
1442
1773
1547
1919
1634
2053
1706
2088
1754
2109
1814
2027
1654
2021
1602
1970
1626
1892
1653
1950
1650
1975
1611
1850
1646
1892
1652
1869
1687
1943
1628
1926
1590
1847
1622
2000
1589
1868
1643
1869
1635
1960
1504
1883
1525
1881
1579
1938
1682
1966
1636
1962
1530
1802
1558
1834
1514
1932
1502
1814
1462
1828
1524
1926
1591
1800
1501
1725
1453
1750
1480
1738
1569
1778
1406
1641
1391
1590
1368
1604
1413
1768
1386
1577
1307
1461
1116
1546
1093
0
0
1313
1197
1586
1337
1674
1442
1936
1714
1954
1522
1801
1588
1811
1527
1879
1535
1958
1622
1876
1683
2002
1721
1981
1669
1999
1718
1978
1728
1950
1594
1834
1630
1866
1566
1899
1583
1832
1509
1928
1574
1788
1590
1821
1533
1898
1559
1753
1546
1781
1458
1799
1581
1707
1439
1709
1522
1768
1387
1643
1327
1682
1403
1684
1399
1615
1399
1785
1543
1742
1415
1679
1382
1554
1237
1562
1328
1544
1213
1477
1387
1690
1553
1734
1340
1538
1252
1521
1180
1514
1405
1538
1252
1449
1127
1260
1020
1360
1124
1429
1154
1322
1037
1261
955
1195
714
0
0
1037
962
1285
1071
1425
1253
1728
1318
1606
1188
1522
1245
1594
1245
1646
1337
1646
1374
1693
1538
1861
1491
1750
1434
1649
1421
1757
1435
1659
1304
1658
1285
1722
1340
1611
1365
1589
1286
1729
1389
1595
1377
1644
1302
1732
1378
1653
1312
1614
1285
1703
1413
1649
1250
1510
1274
1541
1129
1483
1140
1522
1169
1450
1102
1432
1187
1595
1321
1509
1266
1561
1320
1463
1106
1373
1096
1381
1028
1302
1093
1569
1354
1651
1142
1360
969
1246
1009
1289
1117
1269
946
1313
976
1122
883
1221
826
1254
965
1173
821
1114
805
995
574
0
0
605
518
789
597
892
709
1164
754
1068
754
983
667
1055
813
1147
886
1230
887
1355
1060
1397
970
1179
914
1238
941
1224
930
1251
945
1178
827
1228
837
1162
891
1193
829
1366
1004
1226
1050
1234
913
1173
887
1110
841
1262
981
1216
981
1204
890
1141
876
1122
740
1076
677
1065
793
981
781
973
760
1021
802
1009
794
1163
877
1093
763
974
721
913
578
805
567
1000
811
1154
810
953
589
821
473
810
587
853
506
856
531
714
491
801
392
797
592
697
501
752
367
610
162
0
0
0
0
0
0
0
0
0
0
0
0
0
0
0
0
0
0
0
0
0
0
0
0
0
0
0
0
0
0
0
0
0
0
0
0
0
0
0
0
0
0
0
0
0
0
0
0
0
0
0
0
0
0
0
0
0
0
0
0
0
0
0
0
0
0
0
0
0
0
0
0
0
0
0
0
0
0
0
0
0
0
0
0
0
0
0
0
0
0
0
0
0
0
0
0
0
0
0
0
0
0
0
0
0
0
0
0
0
