P2
108 88
4095
0
0
0
0
0
0
0
0
0
0
0
0
0
0
0
0
0
0
0
0
0
0
0
0
0
0
0
0
0
0
0
0
0
0
0
0
0
0
0
0
0
0
0
0
0
0
0
0
0
0
0
0
0
0
0
0
0
0
0
0
0
0
0
0
0
0
0
0
0
0
0
0
0
0
0
0
0
0
0
0
0
0
0
0
0
0
0
0
0
0
0
0
0
0
0
0
0
0
0
0
0
0
0
0
0
0
0
0
0
1106
1003
1320
936
1265
938
1259
977
1350
1081
1257
978
1373
1134
1412
1133
1471
1190
1452
1239
1542
1492
1877
1580
1794
1595
1823
1616
1929
1566
1845
1392
1698
1228
1562
1253
1514
1202
1544
1162
1572
1243
1510
1243
1533
1236
1414
1218
1525
1233
1618
1381
1798
1485
1859
1542
1615
1263
1565
1221
1542
1214
1458
1125
1460
1074
1315
1001
1301
1031
1323
1086
1299
1033
1285
1024
1227
858
1231
893
1179
874
1270
922
1236
949
1197
1058
1412
1130
1473
1162
1339
965
1173
746
1032
724
1133
674
921
652
870
646
807
375
0
0
868
893
1128
742
1147
749
1135
887
1157
939
1151
839
1163
917
1351
1069
1338
1121
1420
1178
1571
1385
1821
1437
1668
1385
1686
1381
1679
1355
1591
1190
1492
1076
1482
1121
1362
1147
1333
1101
1425
1172
1393
1146
1357
1128
1355
1208
1562
1233
1634
1402
1745
1494
1713
1408
1530
1170
1434
1042
1361
1005
1309
1028
1312
968
1177
913
1250
921
1243
1029
1233
938
1196
891
1096
828
1142
849
1142
868
1141
754
1111
864
1025
905
1211
1089
1426
1074
1295
876
1016
750
1050
698
1140
795
965
613
887
579
741
344
0
0
1090
1009
1403
987
1405
1069
1469
1189
1618
1371
1566
1250
1609
1323
1713
1496
1874
1585
1915
1632
1980
1767
2158
1778
2002
1684
1943
1694
1950
1755
2032
1578
1943
1550
1967
1565
1826
1582
1846
1604
1899
1586
1898
1651
1989
1705
1957
1737
2110
1826
2225
1978
2361
1899
2213
1783
1864
1597
1922
1486
1858
1497
1860
1486
1905
1461
1729
1453
1814
1517
1928
1625
1902
1549
1778
1486
1697
1363
1706
1386
1675
1372
1717
1389
1755
1421
1606
1461
1783
1554
1986
1493
1703
1387
1641
1343
1708
1374
1813
1472
1737
1282
1647
1314
1533
1034
0
0
1429
1348
1687
1443
1783
1450
1869
1642
2023
1794
1977
1674
2011
1757
2064
1898
2120
1813
2056
1834
2180
1933
2211
1994
1999
1819
2005
1816
2075
1759
2060
1669
2002
1675
2020
1840
2050
1771
2133
1847
2192
1896
2176
1892
2192
1837
2043
1797
2167
1898
2198
1853
2155
1893
2050
1795
1914
1527
1841
1586
1793
1498
1730
1483
1765
1464
1776
1458
1820
1682
1981
1779
1930
1611
1621
1378
1686
1299
1506
1364
1586
1374
1617
1274
1578
1269
1483
1294
1602
1313
1717
1328
1665
1212
1533
1291
1621
1346
1838
1393
1702
1313
1659
1389
1506
930
0
0
1224
1147
1516
1210
1629
1238
1847
1580
1946
1767
2022
1733
2000
1597
1956
1629
1901
1587
1832
1559
1914
1547
1906
1687
1824
1554
1794
1661
1903
1637
1917
1547
1955
1743
1885
1522
1937
1765
2127
1819
2154
1803
2102
1768
2096
1694
1970
1549
1998
1578
1905
1657
1995
1706
1904
1542
1811
1341
1672
1451
1733
1398
1682
1390
1790
1418
1693
1429
1909
1623
2035
1765
1910
1429
1573
1275
1569
1147
1454
1217
1474
1165
1430
1145
1493
1171
1443
1126
1453
1093
1491
1101
1371
1089
1410
1175
1443
1285
1672
1257
1646
1268
1547
1309
1480
865
0
0
993
875
1146
961
1234
920
1437
1219
1675
1569
1751
1378
1723
1338
1534
1248
1450
1147
1427
1174
1484
1237
1551
1284
1498
1252
1521
1221
1584
1316
1658
1306
1783
1378
1764
1418
1709
1549
1979
1554
1834
1418
1709
1341
1671
1300
1573
1197
1608
1196
1609
1370
1672
1277
1576
1259
1473
1063
1421
1251
1414
1140
1392
1162
1512
1202
1520
1322
1693
1538
1789
1542
1625
1200
1380
965
1275
1012
1087
946
1309
964
1117
893
1162
878
1042
933
1170
805
1175
855
1074
847
1043
861
1202
930
1380
887
1314
997
1354
1121
1151
601
0
0
1223
1040
1426
1127
1569
1172
1723
1449
1940
1854
2071
1713
2064
1547
1789
1513
1773
1453
1813
1491
1829
1573
1878
1626
1914
1676
2001
1743
2069
1908
2296
1897
2314
2035
2355
1970
2243
1957
2443
1969
2214
1772
2021
1729
2011
1698
1960
1598
1942
1803
2110
1895
2248
1849
2003
1781
2037
1642
1900
1749
2024
1728
2074
1781
2127
1902
2146
1817
2262
1938
2271
1973
2202
1797
1878
1591
1885
1531
1778
1613
1930
1618
1934
1581
1956
1438
1749
1454
1769
1399
1789
1377
1744
1302
1672
1456
1746
1430
1853
1453
1850
1492
1876
1584
1721
1114
0
0
1405
1326
1718
1465
1717
1518
1918
1674
2264
2026
2309
1936
2073
1737
1977
1605
1953
1686
1978
1610
1835
1724
2068
1673
2118
1790
2130
1882
2294
2132
2569
2289
2542
2226
2358
2072
2402
2124
2267
1957
2118
1819
2102
1701
1938
1637
2003
1730
1934
1755
2073
1924
2269
2003
2129
1801
2030
1711
1901
1599
1941
1764
2077
1827
2212
1763
2002
1655
2021
1660
2090
1746
1957
1585
1731
1515
1669
1419
1661
1448
1974
1577
1825
1570
1787
1417
1706
1386
1587
1317
1517
1302
1522
1229
1475
1176
1513
1211
1514
1227
1461
1243
1445
1274
1522
989
0
0
1237
1065
1498
1157
1576
1298
1727
1418
1907
1745
1964
1579
1842
1549
1822
1437
1758
1462
1797
1426
1691
1522
1918
1627
2101
1754
2116
1835
2267
2088
2466
2133
2413
1915
2155
1670
2095
1712
2014
1597
1850
1492
1906
1463
1801
1559
1813
1576
1769
1598
1946
1862
2259
1879
2005
1653
1906
1581
1781
1436
1837
1589
1857
1608
1994
1640
1835
1350
1751
1381
1767
1518
1617
1327
1522
1321
1482
1226
1538
1333
1820
1525
1836
1501
1710
1369
1627
1287
1405
1289
1408
1165
1375
1072
1361
965
1416
1177
1254
1004
1323
984
1220
970
1258
762
0
0
986
836
1206
907
1261
1072
1422
1228
1673
1386
1543
1205
1365
1141
1401
1140
1469
1194
1522
1210
1498
1374
1789
1569
2006
1746
1958
1605
1939
1777
2081
1877
2058
1643
1682
1361
1627
1390
1558
1333
1574
1243
1658
1317
1582
1344
1618
1366
1682
1591
1885
1709
1922
1646
1826
1408
1698
1388
1547
1206
1540
1262
1557
1274
1574
1260
1463
1130
1422
1123
1523
1196
1341
1061
1296
1110
1293
1035
1326
1090
1560
1282
1602
1275
1493
1192
1441
1131
1368
1106
1261
974
1239
891
1173
886
1144
893
1051
763
1037
699
949
666
1006
428
0
0
1236
1075
1429
1111
1562
1235
1707
1413
1925
1508
1786
1397
1674
1362
1786
1430
1783
1547
1925
1618
2045
1881
2379
2017
2484
2078
2310
1878
2253
2018
2442
2072
2325
1818
2029
1712
2019
1773
2082
1722
2011
1695
2135
1776
2172
1903
2166
1907
2209
2083
2469
2186
2450
1958
2228
1698
2057
1769
1954
1587
1997
1706
2014
1674
2133
1655
2015
1658
1989
1630
1990
1669
1877
1603
1842
1532
1806
1566
1786
1522
2002
1785
2122
1701
2003
1688
1993
1700
1946
1737
2003
1722
1950
1585
1794
1383
1747
1485
1617
1312
1582
1250
1621
1235
1594
1073
0
0
1408
1333
1776
1405
1730
1493
1848
1541
1869
1547
1839
1506
1805
1621
1862
1522
1896
1714
2234
1999
2175
2099
2486
2226
2354
2026
2237
1922
2173
2014
2302
1956
2116
1796
1989
1725
2014
1734
1986
1718
2038
1898
2193
1851
2161
1925
2205
1915
2285
2005
2343
2088
2242
1879
1933
1657
1935
1613
1893
1555
1826
1549
1858
1540
1906
1562
1767
1538
1840
1486
1717
1489
1780
1399
1712
1401
1737
1338
1563
1355
1668
1450
1845
1378
1750
1403
1655
1485
1784
1576
1879
1643
1834
1425
1792
1265
1545
1224
1381
1115
1387
1134
1405
1157
1171
798
0
0
1309
1189
1597
1320
1642
1355
1670
1346
1702
1302
1661
1374
1637
1457
1768
1480
1815
1708
2090
1813
2137
1997
2349
1995
2150
1749
1948
1649
1924
1661
1992
1641
1860
1584
1861
1577
1849
1626
1988
1674
2013
1913
2226
1841
2150
1864
2077
1681
2107
1760
2165
1874
2053
1662
1883
1496
1822
1495
1744
1444
1707
1450
1737
1427
1754
1468
1725
1402
1640
1283
1616
1285
1714
1397
1605
1270
1540
1185
1477
1254
1525
1319
1546
1231
1579
1222
1505
1277
1666
1445
1849
1557
1662
1526
1755
1335
1593
1209
1382
1051
1330
1136
1327
1030
1173
674
0
0
1126
1028
1441
1121
1425
1050
1287
994
1345
1002
1346
1142
1394
1201
1554
1188
1542
1430
1766
1557
1746
1535
1866
1620
1761
1342
1586
1397
1549
1384
1654
1359
1544
1353
1702
1414
1718
1435
1778
1475
1888
1690
2074
1659
1919
1501
1707
1353
1820
1522
1934
1625
1661
1353
1460
1220
1609
1221
1551
1238
1386
1195
1451
1273
1465
1195
1418
1136
1430
1102
1395
1141
1426
983
1414
1112
1308
1019
1323
1021
1243
1008
1382
922
1258
1060
1188
1079
1325
1083
1412
1189
1477
1268
1549
1157
1487
1098
1265
972
1233
941
1278
953
1111
566
0
0
1359
1204
1706
1353
1634
1209
1592
1231
1589
1285
1718
1362
1722
1444
1847
1500
1897
1636
2041
1730
1966
1760
2075
1753
2014
1651
1986
1749
1918
1742
2068
1761
2004
1732
2069
1824
2202
1979
2218
1881
2317
2167
2412
2094
2223
1844
2109
1795
2231
1936
2309
1907
2114
1802
2009
1714
2082
1810
2038
1670
2011
1737
2033
1622
2009
1648
2013
1650
1993
1623
1955
1649
2013
1604
1979
1649
1922
1611
1852
1495
1871
1573
1897
1437
1878
1495
1769
1597
1928
1521
1901
1555
1893
1538
1990
1610
1906
1678
1912
1668
2025
1609
1943
1584
1747
1177
0
0
1623
1570
1906
1570
1681
1445
1759
1525
1783
1444
1770
1590
1845
1557
2037
1808
1997
1716
1960
1802
2092
1733
2071
1778
2069
1720
1946
1738
2017
1743
2053
1777
1965
1831
2100
1956
2326
2002
2181
1879
2327
1988
2216
1869
2109
1702
2033
1773
2105
1924
2222
1850
1970
1702
1879
1627
1867
1649
1979
1821
2028
1691
1950
1706
1914
1634
1878
1563
1762
1497
1802
1466
1746
1578
1786
1455
1668
1521
1737
1445
1656
1419
1640
1399
1629
1284
1574
1359
1582
1268
1525
1229
1562
1299
1590
1338
1650
1359
1687
1462
1792
1573
1771
1526
1710
1111
0
0
1450
1357
1663
1337
1555
1277
1661
1356
1680
1384
1762
1330
1707
1542
1940
1613
1880
1487
1829
1644
1970
1636
1959
1590
1949
1626
1926
1634
1913
1706
2039
1725
2061
1745
1992
1776
2266
1847
2004
1750
2050
1757
2018
1733
1991
1646
1915
1758
2155
1896
2177
1789
1972
1721
1873
1739
1917
1773
2057
1794
2146
1698
1985
1655
2018
1639
1949
1627
1746
1409
1757
1385
1730
1422
1650
1429
1685
1396
1662
1442
1769
1491
1765
1483
1683
1333
1547
1195
1508
1179
1405
1124
1540
1185
1515
1215
1615
1253
1461
1290
1728
1445
1675
1489
1745
1054
0
0
1027
965
1300
986
1226
970
1275
1018
1366
1018
1385
1129
1381
1187
1478
1173
1501
1203
1497
1301
1636
1243
1615
1285
1615
1341
1589
1426
1609
1435
1772
1407
1773
1366
1722
1456
1837
1435
1621
1438
1689
1371
1621
1298
1599
1420
1685
1460
1846
1593
1885
1524
1714
1463
1770
1525
1776
1663
1880
1659
1846
1561
1811
1499
1722
1413
1682
1325
1533
1259
1506
1158
1469
1202
1402
1158
1372
1154
1418
1205
1597
1413
1629
1374
1499
1105
1337
971
1234
932
1146
842
1226
906
1237
907
1176
911
1181
908
1270
1230
1363
1252
1487
868
0
0
1255
1159
1433
1211
1487
1141
1559
1301
1707
1349
1749
1453
1751
1413
1744
1444
1750
1458
1755
1549
1989
1569
1991
1717
2057
1736
2058
1930
2154
1771
2185
1781
2141
1762
2037
1809
2106
1678
2070
1754
2134
1842
2156
1762
2098
1757
2189
1949
2349
2061
2454
2133
2438
2094
2375
2071
2305
2034
2309
2090
2385
2073
2322
1985
2243
1862
2162
1789
2024
1650
1989
1709
1992
1663
2001
1672
1942
1650
1998
1778
2288
2027
2405
2082
2198
1853
2004
1538
1868
1491
1854
1446
1747
1506
1710
1403
1683
1465
1712
1467
1840
1690
2036
1909
2106
1403
0
0
1382
1370
1721
1446
1760
1418
1826
1563
1910
1611
1922
1581
1993
1514
1913
1602
1941
1669
1989
1685
1901
1753
2147
1811
2119
1882
2225
1936
2246
1902
2116
1758
2166
1845
2084
1741
2050
1810
1988
1767
2055
1781
2030
1781
2053
1819
2126
1861
2330
2132
2403
2192
2281
1993
2281
1933
2199
1930
2184
1840
2133
1882
2067
1801
1936
1642
1917
1538
1870
1604
1765
1524
1846
1509
1719
1491
1673
1444
1730
1578
2082
1874
2196
1997
2140
1687
1867
1552
1813
1486
1610
1308
1520
1296
1572
1147
1514
1266
1462
1290
1551
1405
1754
1585
1781
1245
0
0
1333
1311
1611
1370
1733
1379
1808
1523
1816
1410
1732
1359
1764
1379
1741
1414
1769
1492
1738
1540
1809
1650
2034
1769
2075
1815
2099
1778
1970
1661
1933
1612
1923
1666
1966
1659
2019
1614
1954
1715
2042
1694
2043
1722
2019
1793
2083
1902
2313
2046
2278
1941
2102
1731
2053
1647
2028
1645
2002
1582
1851
1677
1829
1549
1815
1541
1846
1422
1789
1419
1650
1456
1746
1360
1691
1334
1629
1320
1621
1444
1965
1669
2020
1829
2018
1647
1912
1561
1802
1483
1689
1229
1408
1160
1436
1049
1431
1142
1368
1122
1435
1352
1687
1483
1592
972
0
0
914
877
1318
1147
1397
1032
1437
1087
1399
1013
1358
976
1431
1050
1335
1181
1428
1173
1526
1270
1557
1375
1737
1477
1797
1508
1749
1372
1627
1309
1588
1245
1668
1275
1595
1431
1686
1446
1703
1418
1771
1514
1842
1613
1830
1604
1938
1731
2041
1716
1944
1602
1637
1357
1589
1322
1612
1282
1547
1207
1576
1272
1432
1178
1530
1163
1458
1160
1426
1149
1418
1241
1366
1099
1418
1046
1330
1058
1323
1064
1597
1265
1633
1431
1661
1386
1700
1345
1553
1226
1517
1046
1259
912
1138
826
1202
874
1131
950
1289
1133
1495
1164
1145
550
0
0
1197
1211
1669
1424
1786
1386
1700
1369
1709
1328
1625
1267
1715
1394
1717
1395
1782
1598
1882
1574
2026
1759
2226
1906
2164
1746
2080
1621
1946
1668
1958
1629
2035
1737
2158
1911
2189
1918
2242
2012
2454
2098
2378
2103
2340
2084
2363
2027
2508
2158
2442
1939
2195
1771
2059
1813
2090
1725
2086
1682
2000
1748
1961
1676
2038
1757
2090
1698
2005
1685
1938
1621
2018
1634
1958
1581
1869
1578
1890
1611
1924
1621
2027
1783
2198
1803
2093
1811
2180
1822
2022
1576
1754
1514
1748
1487
1786
1435
1882
1606
2052
1647
2036
1629
1762
1126
0
0
1464
1509
1924
1605
1922
1582
1906
1514
1844
1481
1785
1527
1882
1650
1897
1569
2029
1765
2167
1967
2267
1917
2197
1869
2119
1837
2004
1834
2053
1799
2058
1849
2146
1937
2317
2098
2442
2178
2404
2103
2394
2074
2363
2007
2256
1878
2260
1998
2503
2170
2307
1835
2034
1798
2034
1722
1904
1722
1901
1611
1946
1629
1986
1716
1925
1679
1915
1597
1882
1464
1761
1558
1810
1534
1737
1454
1782
1485
1678
1487
1719
1454
1602
1423
1713
1485
1762
1529
1825
1407
1690
1341
1610
1338
1449
1301
1587
1384
1693
1547
1849
1606
1819
1427
1494
818
0
0
1379
1333
1659
1229
1783
1267
1647
1270
1559
1186
1702
1264
1674
1470
1803
1450
1909
1604
2043
1766
2014
1627
2014
1569
1922
1609
1930
1626
1924
1610
1929
1701
2082
1901
2183
1963
2325
1938
2289
1946
2102
1766
1995
1657
1958
1640
2029
1714
2318
2029
2157
1698
1961
1594
1843
1503
1747
1578
1786
1517
1834
1554
1847
1590
1861
1645
1876
1542
1805
1393
1738
1466
1688
1397
1731
1293
1566
1353
1621
1303
1511
1242
1541
1266
1525
1282
1444
1283
1541
1118
1482
1234
1397
1129
1316
1091
1562
1326
1637
1483
1798
1449
1540
1226
1290
631
0
0
1110
1001
1378
1010
1337
1060
1316
1083
1399
1006
1426
1058
1370
1146
1482
1153
1525
1266
1635
1408
1674
1325
1670
1347
1642
1436
1544
1380
1729
1483
1835
1642
1975
1782
1967
1762
1924
1693
1841
1432
1739
1417
1643
1339
1649
1364
1701
1518
1985
1669
1773
1405
1691
1445
1669
1265
1549
1318
1572
1376
1684
1466
1677
1455
1864
1531
1747
1435
1643
1274
1597
1307
1506
1239
1450
1101
1396
1137
1269
1078
1308
983
1194
1014
1181
1033
1197
1067
1221
901
1156
1030
1227
929
1083
933
1309
1031
1461
1308
1530
1291
1357
922
1073
394
0
0
1342
1213
1579
1221
1675
1258
1600
1367
1685
1338
1850
1397
1746
1497
1889
1447
1893
1578
1988
1705
1963
1649
2018
1684
2026
1874
2065
1898
2094
1908
2308
2117
2448
2241
2498
2082
2361
1921
2075
1834
2133
1710
2094
1890
2120
1850
2266
1953
2525
2129
2207
1923
2306
2040
2252
1811
2190
1921
2190
2082
2402
2069
2402
2246
2503
2245
2491
2101
2382
2013
2341
1956
2264
1833
2170
1690
1968
1681
1956
1667
1954
1542
1829
1549
1865
1621
1748
1611
1939
1489
1809
1540
1797
1508
1654
1444
1836
1513
2024
1853
2196
1844
2002
1539
1741
997
0
0
1481
1442
1722
1348
1688
1506
1734
1499
1846
1642
1954
1618
1942
1610
1889
1659
1837
1620
1905
1684
1949
1725
2027
1806
2182
2080
2337
2010
2315
2065
2427
2049
2449
2068
2437
2043
2202
1874
2059
1801
2073
1685
2058
1704
1993
1898
2235
2046
2406
2053
2263
2028
2166
2033
2212
1869
2120
1901
2085
2094
2378
2097
2314
2116
2398
2177
2473
2133
2266
2031
2258
1975
2133
1814
2039
1617
1736
1448
1748
1475
1674
1382
1669
1325
1579
1314
1637
1342
1642
1364
1511
1261
1498
1198
1540
1238
1482
1279
1834
1642
1928
1634
1774
1370
1427
919
0
0
1274
1201
1565
1250
1637
1399
1753
1489
1885
1488
1813
1399
1789
1394
1733
1469
1781
1572
1797
1547
1836
1503
1965
1733
2106
2002
2357
1956
2218
1878
2141
1836
2093
1819
2128
1749
2070
1600
1972
1661
1970
1604
1928
1647
1975
1941
2186
2010
2356
1994
2219
2019
2267
1946
2109
1826
2071
1802
2048
1928
2280
2056
2161
1794
2246
1989
2341
1940
2184
1937
2243
1970
2090
1773
1954
1547
1739
1446
1614
1366
1673
1328
1549
1288
1499
1232
1501
1211
1533
1311
1474
1192
1429
1109
1450
1082
1427
1045
1609
1425
1818
1597
1754
1350
1461
823
0
0
1077
981
1300
1000
1363
1209
1476
1140
1523
1232
1397
1149
1534
1131
1435
1193
1464
1181
1490
1327
1592
1337
1848
1663
1980
1851
2107
1737
1925
1531
1806
1461
1789
1451
1768
1449
1731
1345
1710
1454
1701
1429
1771
1573
1913
1726
2012
1751
2041
1659
1889
1701
1913
1688
1873
1595
1747
1401
1802
1580
1863
1615
1739
1484
1885
1556
1949
1609
1768
1655
1933
1590
1795
1522
1694
1356
1453
1149
1398
1130
1334
1034
1405
1114
1393
1125
1402
1002
1438
1100
1300
955
1162
884
1131
907
1179
821
1369
1193
1578
1385
1577
1075
1200
629
0
0
1273
1137
1507
1207
1602
1421
1762
1458
1736
1433
1701
1373
1731
1387
1698
1508
1883
1554
1965
1650
2037
1835
2224
2107
2389
2120
2404
1950
2162
1812
2210
1840
2097
1803
2154
1761
2138
1802
2127
1876
2301
1941
2374
2128
2501
2283
2485
2150
2389
2098
2275
2005
2314
1946
2245
1885
2171
1842
2029
1981
2158
1945
2129
1806
2205
1862
2250
1875
2127
1955
2290
2004
2173
1859
2152
1796
1951
1630
1909
1597
1885
1582
1932
1658
1909
1601
1923
1607
2012
1698
1907
1562
1844
1538
1766
1474
1687
1422
1824
1670
2066
1898
2100
1625
1778
1193
0
0
1497
1314
1689
1468
1781
1492
1855
1580
1789
1649
1828
1523
1893
1544
1917
1626
1935
1726
2103
1987
2242
2033
2318
2133
2379
2069
2274
1894
2141
1806
1986
1838
2197
1751
2173
1842
2117
1742
2091
1833
2326
2162
2357
2058
2493
2165
2421
2020
2176
1827
2049
1781
1986
1690
1978
1663
2006
1629
1899
1750
1883
1662
1849
1653
1924
1645
1906
1582
1917
1562
1878
1561
1921
1546
1824
1474
1750
1387
1526
1318
1611
1349
1643
1382
1563
1352
1604
1398
1652
1454
1714
1474
1689
1330
1466
1182
1448
1197
1549
1402
1772
1451
1773
1362
1461
841
0
0
1446
1216
1663
1302
1643
1387
1708
1462
1702
1468
1769
1449
1802
1523
1793
1521
2008
1739
2109
1931
2198
1861
2148
1884
2230
1876
2062
1733
1982
1749
1995
1738
2164
1764
2053
1805
2045
1777
2142
1967
2311
2069
2354
1961
2288
1992
2219
1771
2012
1745
2001
1668
1908
1612
1897
1594
2004
1615
1847
1606
1761
1549
1750
1558
1898
1550
1828
1486
1855
1514
1757
1442
1791
1437
1669
1383
1627
1396
1663
1294
1606
1385
1558
1179
1540
1278
1573
1334
1538
1337
1739
1492
1648
1325
1548
1160
1444
1151
1548
1317
1721
1371
1562
1268
1256
778
0
0
1045
997
1207
987
1385
1046
1357
1129
1341
1082
1401
1114
1483
1168
1506
1382
1649
1383
1725
1464
1685
1432
1751
1491
1731
1441
1668
1453
1670
1377
1688
1394
1764
1503
1755
1474
1780
1498
1833
1627
1883
1578
1973
1509
1737
1480
1811
1424
1700
1371
1618
1321
1645
1394
1555
1270
1598
1305
1586
1297
1499
1220
1491
1345
1574
1268
1435
1190
1501
1109
1421
1117
1485
1077
1322
1085
1390
1034
1301
1093
1416
1096
1255
1021
1255
1017
1283
1119
1221
976
1296
1123
1405
1109
1289
981
1204
939
1320
1082
1393
1188
1271
937
955
477
0
0
1343
1093
1529
1178
1612
1281
1653
1354
1682
1370
1716
1345
1830
1469
1905
1624
1961
1604
2003
1739
1973
1641
2074
1766
2033
1776
2053
1725
2105
1786
2040
1838
2126
1846
2141
1928
2133
1846
2181
1888
2213
1944
2138
1837
2173
1893
2233
1830
2123
1762
2147
1801
2089
1733
2126
1800
2146
1805
2081
1751
2031
1785
2149
1818
2205
1797
2068
1764
2132
1730
1982
1675
2054
1657
1989
1625
1870
1568
1926
1597
1953
1586
1846
1573
1819
1540
1893
1546
1752
1492
1875
1562
1929
1582
1858
1517
1861
1575
2052
1745
2117
1722
1909
1457
1569
1026
0
0
1539
1403
1704
1437
1841
1493
1850
1522
1870
1621
1844
1617
1949
1661
2050
1714
2108
1672
2102
1682
2042
1769
2027
1819
2026
1798
2100
1799
2057
1891
2067
1884
2116
1804
2205
1860
2157
1893
2122
1881
2117
1779
2056
1809
2119
1798
2104
1818
1966
1775
1931
1654
1960
1650
2055
1686
2021
1657
1914
1712
2010
1707
2098
1751
1949
1754
1957
1744
2014
1774
1945
1646
1765
1544
1901
1512
1777
1405
1626
1519
1802
1446
1617
1353
1550
1213
1533
1334
1541
1373
1574
1342
1543
1326
1591
1325
1579
1402
1898
1601
1937
1607
1678
1291
1361
764
0
0
1461
1257
1637
1421
1722
1354
1842
1394
1815
1482
1705
1469
1756
1556
1870
1481
1978
1606
1874
1594
1947
1647
1974
1721
1972
1674
1977
1732
1976
1746
2118
1885
2049
1784
2032
1685
2053
1725
1979
1692
2037
1684
2043
1690
2045
1708
1929
1681
1974
1694
1914
1560
1883
1626
2030
1661
1883
1656
1899
1574
1914
1709
2146
1853
2074
1798
2000
1871
2098
1770
1940
1722
1835
1549
1881
1499
1747
1366
1595
1426
1766
1343
1613
1352
1485
1245
1521
1241
1499
1145
1446
1227
1444
1183
1469
1204
1497
1380
1783
1531
1893
1547
1606
1299
1324
741
0
0
1133
1015
1348
1145
1389
1122
1474
1123
1466
1163
1309
1094
1393
1124
1483
1102
1565
1234
1556
1367
1618
1394
1614
1381
1609
1373
1724
1413
1782
1659
1877
1607
1801
1481
1782
1452
1663
1398
1730
1307
1710
1334
1713
1291
1634
1317
1594
1410
1661
1405
1626
1339
1590
1374
1750
1424
1662
1413
1742
1378
1780
1597
1998
1651
1885
1613
1861
1655
1770
1421
1789
1498
1693
1406
1609
1230
1493
1208
1448
1254
1493
1145
1338
1106
1298
921
1218
1065
1169
1002
1158
866
1202
1001
1114
877
1289
1000
1498
1305
1640
1330
1405
1051
1117
493
0
0
1451
1241
1563
1314
1669
1355
1685
1377
1748
1370
1713
1405
1745
1458
1903
1539
1946
1539
1956
1659
2055
1778
2068
1825
2123
1818
2269
1873
2260
2138
2354
1935
2182
1853
2154
1782
2109
1836
2140
1822
2114
1812
2161
1762
2141
1787
2226
1925
2290
1903
2261
1818
2165
1925
2263
2118
2415
2027
2356
2048
2478
2167
2549
2193
2403
2068
2358
2062
2282
2039
2185
1969
2162
1943
2189
1835
2109
1716
2058
1821
2066
1706
2054
1707
1909
1474
1841
1585
1838
1550
1778
1417
1750
1409
1729
1444
1725
1547
2028
1685
2130
1868
2019
1659
1807
1166
0
0
1662
1450
1853
1434
1840
1563
1842
1565
1749
1582
1894
1637
1922
1713
1967
1717
1979
1826
2034
1868
2218
2054
2305
1944
2314
1950
2299
2005
2307
2115
2334
1953
2082
1794
2103
1902
2185
1815
2153
1834
2181
1800
2058
1861
2109
1917
2207
2025
2250
1994
2267
1989
2221
1957
2258
2062
2359
1931
2214
1931
2146
1990
2237
2018
2181
1810
2090
1790
2038
1864
1997
1769
2044
1733
1947
1607
1797
1458
1810
1473
1833
1434
1776
1538
1742
1448
1673
1427
1705
1341
1581
1367
1712
1275
1538
1271
1736
1364
1621
1494
1786
1602
1757
1425
1596
994
0
0
1528
1270
1704
1206
1655
1308
1738
1391
1686
1434
1766
1387
1806
1573
1835
1475
1946
1661
1985
1845
2262
1970
2271
1803
2218
1837
2128
1796
2066
1761
2070
1755
1866
1682
1986
1682
1999
1673
2009
1712
1945
1687
1963
1647
1917
1699
2064
1797
2188
1857
2117
1826
2034
1790
2120
1907
2173
1717
2046
1707
1929
1723
2013
1675
1909
1547
1850
1506
1846
1555
1740
1485
1865
1469
1765
1360
1662
1307
1604
1274
1632
1296
1627
1397
1637
1325
1633
1362
1725
1206
1573
1354
1518
1190
1388
1131
1474
1208
1454
1301
1578
1388
1585
1215
1411
727
0
0
1097
934
1384
1014
1337
1064
1394
1046
1352
1100
1409
1103
1493
1348
1731
1384
1729
1576
1818
1695
1963
1770
1936
1475
1800
1466
1661
1421
1739
1463
1706
1485
1635
1333
1685
1414
1744
1444
1749
1477
1751
1482
1653
1387
1662
1485
1757
1582
1882
1647
1810
1545
1736
1480
1682
1478
1699
1338
1625
1352
1544
1360
1618
1334
1525
1189
1458
1128
1498
1271
1482
1218
1586
1115
1381
1089
1397
1061
1342
1074
1370
1019
1397
1093
1326
1069
1410
1095
1370
1032
1335
1134
1349
1070
1129
972
1188
877
1257
1044
1371
1041
1213
818
1058
549
0
0
1345
1212
1605
1200
1705
1370
1623
1401
1723
1445
1837
1490
1914
1687
2157
1940
2321
2056
2338
2210
2462
2088
2253
1798
2134
1774
2123
1849
2187
1815
2197
1906
2119
1787
2199
1829
2217
1942
2347
2017
2387
1922
2286
1966
2234
2053
2299
2135
2429
2029
2301
1934
2171
1870
2114
1882
2178
1862
2109
1842
2045
1809
2101
1785
2057
1765
1954
1649
2066
1812
2026
1770
2091
1700
2041
1609
2049
1596
1902
1578
1956
1580
1906
1623
1918
1596
1898
1617
1868
1630
1903
1610
1989
1634
1723
1561
1925
1523
1853
1563
1936
1562
1788
1338
1662
991
0
0
1505
1469
1889
1515
1877
1610
1958
1659
1915
1618
1893
1547
2025
1842
2334
2117
2554
2230
2544
2194
2425
2052
2286
1810
2092
1864
2102
1864
2177
1927
2182
1857
2250
1877
2117
1920
2225
2059
2381
2148
2407
2070
2287
2030
2237
1986
2130
1874
2138
1788
2151
1812
2004
1719
2007
1786
1924
1710
1930
1739
1905
1722
1881
1621
1909
1609
1770
1510
1834
1553
1744
1488
1850
1485
1814
1460
1826
1426
1653
1424
1681
1419
1698
1385
1593
1310
1605
1328
1620
1234
1607
1322
1602
1317
1457
1324
1594
1386
1758
1408
1646
1338
1387
1130
1316
809
0
0
1437
1325
1743
1517
1816
1527
1754
1519
1737
1390
1691
1453
1860
1591
2152
1928
2420
2038
2321
1897
2189
1718
2045
1729
1968
1692
1960
1755
2069
1881
2054
1737
2083
1778
2174
1908
2166
1906
2341
2110
2221
1892
2154
1794
2074
1757
1970
1767
2013
1669
1963
1644
1869
1571
1862
1605
1759
1552
1842
1565
1694
1601
1825
1621
1820
1449
1711
1454
1749
1421
1721
1474
1786
1490
1882
1457
1819
1393
1509
1483
1687
1359
1563
1221
1548
1173
1547
1206
1490
1250
1382
1146
1424
1189
1437
1169
1493
1234
1680
1241
1626
1195
1317
997
1229
671
0
0
1190
1125
1585
1244
1522
1230
1546
1194
1386
1178
1442
1128
1506
1302
1705
1490
1967
1752
1914
1451
1701
1429
1703
1364
1565
1413
1801
1501
1922
1622
1933
1598
1947
1704
1972
1766
1985
1680
1876
1653
1841
1586
1818
1516
1758
1454
1738
1370
1666
1310
1748
1385
1597
1289
1589
1393
1585
1303
1497
1306
1529
1355
1698
1371
1593
1239
1494
1249
1534
1351
1552
1301
1627
1394
1762
1291
1529
1133
1326
1264
1590
1160
1453
1102
1242
961
1164
936
1290
880
1226
912
1196
874
1143
949
1130
1077
1366
1007
1266
930
1083
760
1005
433
0
0
1511
1549
1905
1581
1856
1488
1751
1357
1714
1354
1746
1445
1810
1491
1998
1787
2203
1796
2059
1642
1950
1684
2038
1834
2023
1822
2295
2108
2482
2281
2441
2106
2477
2158
2434
2170
2405
1893
2266
1918
2223
1908
2114
1869
2218
1908
2177
1874
2137
1806
2218
1868
2153
1802
2114
1852
2087
1796
2162
1867
2141
1975
2251
1967
2317
1879
2166
1904
2138
1906
2171
1875
2333
2002
2394
1960
2084
1691
1917
1769
2133
1723
2002
1637
1981
1549
1834
1577
1844
1483
1779
1492
1815
1411
1690
1476
1800
1448
1933
1554
1851
1498
1583
1338
1587
1097
0
0
1689
1666
2119
1778
1946
1510
1751
1586
1776
1563
1818
1579
1914
1714
2071
1927
2050
1787
1965
1753
1988
1752
2041
1738
2131
2042
2440
2313
2613
2275
2581
2164
2382
2133
2358
2026
2180
1922
2283
1853
2098
1732
2048
1818
1998
1757
2026
1738
1949
1738
2032
1802
2056
1685
2070
1783
1978
1746
1976
1776
2069
1906
2235
2010
2269
1813
2033
1826
2061
1704
1914
1652
1896
1697
2007
1631
1789
1455
1698
1510
1786
1454
1746
1341
1709
1372
1528
1339
1622
1282
1532
1275
1547
1229
1501
1302
1558
1258
1448
1295
1584
1265
1390
1121
1307
839
0
0
1629
1466
1888
1461
1721
1415
1681
1374
1734
1417
1766
1569
1908
1733
1932
1813
1882
1650
1850
1618
1890
1620
1971
1653
2155
2010
2518
2327
2676
2282
2436
1920
2234
1890
2168
1765
2059
1785
2066
1782
1979
1691
1987
1680
1979
1654
1998
1713
1973
1674
2013
1762
2046
1723
2046
1822
1941
1687
1961
1713
2086
1938
2278
1989
2246
1843
1947
1647
1926
1578
1826
1476
1723
1493
1710
1473
1642
1327
1617
1378
1624
1356
1597
1309
1716
1353
1593
1317
1602
1257
1485
1171
1462
1220
1474
1190
1418
1234
1423
1236
1546
1245
1378
1120
1316
749
0
0
1196
1125
1378
1090
1408
1078
1359
1181
1523
1306
1573
1281
1663
1315
1659
1394
1606
1265
1497
1268
1642
1370
1746
1483
1893
1782
2223
2084
2340
1863
2000
1501
1733
1474
1746
1540
1760
1451
1773
1424
1657
1380
1630
1399
1683
1316
1742
1433
1659
1485
1755
1662
1861
1508
1892
1616
1720
1442
1717
1637
2006
1829
2097
1774
2059
1508
1635
1396
1560
1174
1521
1161
1449
1157
1427
1165
1495
1026
1437
1097
1352
1093
1327
1029
1410
1124
1349
1046
1422
1091
1295
955
1245
916
1115
989
1213
971
1208
968
1271
977
1252
985
1181
539
0
0
1299
1197
1661
1307
1659
1321
1643
1465
1772
1612
1986
1625
1979
1559
1878
1598
1932
1597
1826
1652
2011
1818
2139
1911
2378
2243
2644
2390
2696
2069
2370
1914
2155
1826
2126
1841
2117
1818
2250
1858
2087
1841
2194
1943
2155
1834
2203
1839
2234
1925
2327
2112
2437
2082
2342
2063
2266
1977
2197
2070
2393
2237
2527
2228
2492
2037
2249
1803
2110
1643
2095
1779
1914
1629
1965
1631
1975
1546
1915
1564
1978
1583
1750
1579
1922
1618
1938
1630
1941
1609
1978
1566
1768
1450
1684
1548
1828
1491
1770
1480
1804
1610
1779
1426
1784
1158
0
0
1513
1454
1754
1512
1847
1626
1950
1710
2053
1897
2197
1825
2061
1771
1998
1686
1989
1821
2077
1900
2211
2085
2349
2034
2408
2216
2469
2234
2533
2078
2192
1888
2170
1825
2180
1794
2073
1812
2103
1886
2162
1910
2198
1985
2115
1915
2121
1834
2171
1930
2276
1981
2325
1975
2226
1877
2107
1778
2117
1786
2186
1933
2228
2071
2213
1874
2077
1698
1882
1499
1787
1476
1794
1465
1764
1542
1793
1545
1603
1433
1614
1422
1595
1329
1625
1410
1633
1367
1654
1382
1627
1385
1573
1196
1509
1207
1510
1193
1450
1274
1553
1366
1472
1285
1493
922
0
0
1487
1314
1658
1422
1717
1587
1956
1659
2062
1746
2085
1594
1915
1607
1941
1589
1905
1687
1993
1794
2213
1919
2228
1836
2242
2034
2276
2099
2349
2011
2141
1806
2042
1733
2082
1695
2019
1722
2033
1818
2235
1922
2168
1950
2117
1798
2039
1787
2160
1899
2242
1848
2177
1834
2026
1768
1970
1619
1966
1597
1974
1673
2052
1797
2046
1701
1864
1570
1798
1465
1838
1469
1770
1497
1772
1433
1637
1399
1569
1329
1621
1306
1584
1274
1578
1297
1524
1218
1547
1316
1572
1330
1465
1194
1478
1115
1526
1113
1393
1189
1558
1179
1371
1103
1316
747
0
0
1076
1036
1417
1197
1562
1367
1785
1419
1712
1442
1592
1181
1525
1215
1540
1268
1570
1314
1718
1597
1850
1627
1865
1413
1782
1561
1918
1606
1898
1640
1773
1462
1780
1437
1827
1473
1680
1550
1885
1604
1931
1627
1862
1558
1742
1472
1661
1362
1762
1482
1800
1509
1722
1377
1674
1357
1637
1309
1578
1246
1626
1357
1556
1378
1604
1414
1610
1291
1462
1085
1419
1146
1462
1194
1538
1175
1419
1153
1379
1130
1391
1145
1457
1026
1305
977
1320
1045
1250
943
1275
1043
1163
941
1259
930
1281
875
1137
874
1159
934
1145
906
997
514
0
0
1485
1326
1781
1413
1876
1609
1977
1559
1938
1604
1846
1396
1805
1553
1936
1614
1948
1767
2137
1880
2184
1801
2133
1738
2125
1841
2176
1978
2235
1948
2189
1914
2263
1910
2274
1993
2268
2013
2324
1997
2341
1962
2261
1910
2180
1874
2122
1844
2126
1815
2244
1841
2155
1796
2052
1765
2150
1764
2018
1665
1989
1738
2010
1755
2069
1796
2024
1650
2015
1610
1967
1573
2040
1748
1977
1650
2002
1713
2023
1741
2098
1771
2032
1698
1861
1574
1862
1498
1892
1485
1833
1533
1772
1433
1818
1462
1830
1452
1691
1418
1805
1508
1659
1333
1565
1029
0
0
1738
1673
2107
1883
2103
1717
1994
1778
1978
1653
2006
1609
1912
1722
2185
1889
2118
1891
2189
1850
2187
1869
2152
1860
2202
2027
2281
2117
2271
2066
2452
2154
2384
2090
2305
2010
2266
2061
2403
2066
2278
1922
2158
1854
2100
1790
2061
1787
2117
1774
2034
1847
2058
1789
2013
1776
1976
1698
1973
1635
1842
1627
1875
1637
1962
1647
1860
1594
1829
1525
1822
1525
1735
1547
1789
1507
1736
1533
1787
1597
2006
1725
1862
1636
1698
1366
1634
1430
1603
1386
1568
1428
1511
1406
1547
1272
1636
1357
1617
1377
1656
1408
1576
1149
1333
926
0
0
1683
1632
1839
1666
1885
1498
1830
1518
1762
1466
1794
1525
1902
1705
2038
1735
1936
1619
1956
1691
1916
1684
2073
1749
2070
1898
2172
2005
2318
2093
2395
1987
2302
1893
2168
1826
2098
1789
2187
1888
2028
1718
2042
1675
1961
1604
1913
1593
1985
1605
1861
1666
1975
1605
1856
1601
1810
1558
1862
1549
1831
1542
1809
1527
1914
1634
1752
1542
1754
1418
1645
1448
1698
1380
1656
1317
1503
1329
1660
1339
1818
1497
1727
1538
1697
1306
1547
1330
1466
1220
1480
1301
1417
1273
1438
1140
1494
1255
1480
1374
1724
1432
1570
1060
1220
753
0
0
1285
1177
1459
1160
1452
1043
1499
1228
1435
1205
1513
1265
1618
1453
1807
1514
1604
1221
1605
1322
1486
1329
1705
1464
1779
1605
1943
1797
2152
1938
2043
1714
1867
1626
1841
1469
1730
1461
1722
1458
1683
1487
1659
1382
1675
1336
1699
1378
1732
1363
1720
1450
1745
1333
1638
1403
1606
1410
1663
1316
1592
1329
1614
1454
1822
1417
1618
1309
1387
1125
1447
1143
1337
1083
1274
1060
1343
1051
1321
1061
1436
1218
1398
1199
1449
1066
1293
1149
1245
999
1194
1076
1197
981
1060
885
1257
994
1308
1206
1553
1256
1315
921
853
454
0
0
1486
1301
1638
1399
1722
1402
1793
1497
1842
1594
1978
1603
1954
1718
2084
1731
1956
1644
1931
1668
1956
1655
2077
1834
2150
2027
2361
2242
2583
2186
2384
1970
2203
1947
2213
1885
2061
1773
2184
1775
2197
1804
2132
1813
2102
1773
2245
1906
2325
2036
2240
1971
2312
2004
2278
2009
2298
2021
2277
1919
2140
1883
2307
2021
2466
2068
2308
1947
2030
1736
2042
1697
1866
1608
1923
1706
1876
1629
1882
1590
1979
1662
1893
1692
2033
1653
1858
1645
1915
1590
1876
1652
1813
1506
1781
1401
1807
1521
1803
1700
2111
1858
2134
1509
1597
1062
0
0
1685
1565
1913
1562
1748
1582
1916
1778
2122
1846
2114
1794
2096
1748
1993
1733
2045
1801
2091
1858
2072
1892
2229
1860
2168
2014
2505
2324
2491
2125
2219
1984
2148
1902
2154
1875
2086
1853
2138
1835
2100
1894
2088
1830
2134
1781
2141
1986
2290
2043
2283
2091
2238
1967
2187
2093
2262
1913
2198
1840
2021
1785
2031
1965
2345
2001
2245
1848
2122
1741
1938
1590
1749
1529
1749
1499
1725
1533
1634
1447
1719
1458
1654
1402
1671
1394
1650
1461
1693
1369
1742
1462
1673
1342
1548
1248
1506
1282
1538
1339
1799
1586
1889
1385
1458
940
0
0
1571
1361
1693
1419
1677
1457
1858
1506
1960
1570
1873
1564
1885
1485
1809
1522
1824
1531
1915
1621
1917
1762
1953
1661
2069
1835
2221
2042
2181
1985
2100
1773
2013
1680
2002
1768
1926
1675
1992
1669
2043
1754
1962
1720
2006
1779
2100
1947
2278
1971
2210
1901
2141
1892
2189
1955
2105
1722
2024
1617
1882
1645
1947
1714
2186
1855
2052
1680
1933
1685
1906
1626
1758
1410
1698
1426
1719
1443
1582
1266
1530
1293
1524
1313
1525
1249
1531
1295
1577
1243
1653
1398
1585
1245
1355
1181
1377
1181
1444
1136
1554
1323
1735
1290
1325
801
0
0
1230
1178
1522
1197
1477
1334
1625
1396
1549
1302
1569
1234
1508
1208
1460
1298
1549
1343
1718
1458
1650
1458
1709
1389
1757
1435
1851
1668
1864
1551
1716
1498
1746
1466
1704
1526
1714
1495
1715
1448
1816
1562
1796
1520
1814
1541
1930
1714
2050
1714
1869
1594
1797
1526
1842
1561
1813
1380
1643
1355
1501
1329
1514
1402
1744
1373
1621
1352
1586
1299
1555
1322
1578
1276
1549
1316
1453
1226
1386
1105
1304
1094
1240
1055
1334
977
1241
1098
1269
1029
1458
1170
1352
1016
1155
946
1143
864
1115
945
1173
941
1338
946
1147
618
0
0
1646
1462
2026
1598
1797
1544
1844
1538
1886
1490
1762
1491
1845
1441
1787
1578
1986
1788
2089
1874
2133
1788
2114
1747
2086
1786
2129
1924
2157
1956
2225
1830
2234
1874
2213
1940
2221
1899
2205
1964
2230
1984
2356
2054
2337
2025
2306
2086
2383
1941
2210
1877
2218
1844
2185
1910
2256
1837
2202
1806
2018
1772
2021
1878
2176
1825
2134
1723
1994
1749
2022
1749
2090
1730
2041
1787
2110
1861
2050
1751
1986
1738
1993
1651
1956
1626
1938
1669
1901
1626
2029
1661
2016
1605
1838
1550
1809
1493
1705
1466
1781
1521
1874
1458
1662
1096
0
0
1818
1796
2261
1896
2131
1812
2022
1709
1915
1622
1957
1653
1957
1626
1995
1829
2189
1911
2242
1943
2109
1913
2109
1850
2174
1821
2172
1861
2194
1963
2187
1930
2096
1931
2210
1874
2173
1940
2214
1843
2160
2018
2234
1842
2212
1879
2137
1810
2122
1845
2099
1762
2086
1670
1976
1677
1997
1719
1947
1670
1954
1620
1915
1653
1950
1601
1836
1622
1874
1591
1775
1450
1762
1584
1805
1523
1864
1576
1890
1642
1843
1559
1825
1539
1629
1449
1622
1416
1623
1338
1650
1417
1646
1468
1634
1409
1634
1101
1556
1144
1515
1234
1482
1058
1381
900
0
0
1610
1590
2027
1692
1917
1611
1862
1511
1776
1526
1811
1421
1837
1586
1936
1793
2104
1759
2133
1661
1968
1736
1946
1642
1990
1674
2006
1712
2070
1825
2155
1905
1988
1742
2134
1690
2020
1738
2052
1743
2010
1690
2108
1724
2081
1701
2010
1686
1928
1586
1954
1605
1950
1490
1860
1533
1853
1502
1769
1620
1765
1527
1778
1467
1786
1378
1754
1492
1757
1484
1620
1275
1718
1377
1629
1379
1722
1481
1742
1534
1807
1540
1854
1495
1692
1445
1614
1226
1565
1252
1546
1211
1502
1189
1461
1213
1489
1054
1395
1051
1362
1117
1345
937
1221
718
0
0
1269
1213
1581
1232
1529
1229
1435
1221
1478
1178
1525
1166
1605
1353
1702
1448
1889
1499
1741
1399
1639
1399
1654
1385
1763
1346
1745
1453
1779
1594
1915
1637
1841
1435
1845
1365
1706
1423
1769
1415
1761
1435
1821
1403
1694
1420
1688
1309
1589
1386
1686
1310
1653
1273
1576
1365
1622
1269
1558
1252
1526
1284
1557
1279
1578
1174
1459
1260
1442
1157
1397
1101
1405
1146
1410
1122
1410
1150
1301
1149
1534
1259
1704
1432
1489
1220
1412
1074
1315
1013
1271
1029
1284
961
1206
1053
1262
834
1198
772
1078
916
1064
701
964
497
0
0
1466
1332
1753
1430
1789
1445
1752
1465
1785
1435
1864
1489
1906
1704
1966
1682
2141
1690
1997
1661
2018
1713
2053
1729
2084
1702
2100
1829
2250
2044
2365
2138
2302
2009
2204
1806
2084
1814
2146
1827
2145
1834
2176
1829
2205
1842
2210
1889
2165
1830
2167
1922
2226
1781
2208
1814
2153
1821
2021
1785
2031
1794
2090
1723
2042
1714
2026
1755
2061
1770
1933
1636
1904
1691
1981
1723
1933
1589
1938
1680
2028
1805
2250
1941
2123
1815
2010
1678
1908
1542
1937
1533
1821
1538
1706
1540
1803
1417
1781
1373
1691
1417
1706
1266
1573
1078
0
0
1582
1462
1749
1626
1944
1618
1913
1619
1947
1677
2066
1666
2098
1969
2175
1841
2060
1796
1954
1738
2163
1864
2173
1890
2162
1857
2298
2067
2283
2115
2517
2185
2394
2020
2115
1808
2076
1892
2141
1786
2176
1851
2130
1830
2124
1934
2038
1789
2109
1821
2170
1769
2058
1774
2027
1755
2071
1726
1973
1570
1840
1569
1809
1552
1930
1650
1965
1595
1879
1696
1890
1550
1770
1589
1747
1439
1627
1399
1641
1490
1705
1552
1893
1669
2005
1615
1899
1570
1724
1418
1636
1341
1566
1252
1449
1205
1519
1225
1517
1241
1537
1136
1363
1078
1358
725
0
0
1461
1350
1666
1482
1822
1481
1850
1589
1821
1509
1922
1626
1967
1763
1986
1587
1860
1534
1882
1569
1983
1638
2036
1781
2090
1758
2205
1950
2225
2020
2394
1986
2195
1812
2010
1590
1909
1701
2038
1662
2053
1694
2069
1693
2057
1737
1947
1670
2136
1787
2098
1828
2164
1914
2103
1797
2125
1690
1953
1568
1773
1481
1782
1423
1983
1610
1857
1624
1946
1698
1845
1461
1718
1472
1655
1401
1595
1318
1597
1339
1674
1401
1734
1490
1826
1510
1803
1551
1708
1389
1634
1302
1466
1080
1381
1151
1462
1136
1535
1170
1470
1049
1273
978
1218
702
0
0
1098
1030
1371
1207
1466
1227
1615
1266
1547
1261
1680
1304
1626
1428
1563
1305
1519
1347
1587
1393
1653
1434
1785
1619
1946
1619
1812
1531
1893
1620
2048
1742
1883
1517
1691
1436
1602
1422
1698
1438
1732
1560
1748
1473
1803
1608
1767
1520
1986
1702
1969
1781
2035
1707
1926
1681
1861
1424
1629
1310
1513
1243
1472
1178
1702
1304
1705
1421
1734
1509
1678
1319
1499
1326
1462
1192
1351
1098
1274
946
1338
1101
1390
1156
1461
1210
1549
1371
1514
1219
1459
1172
1266
947
1208
934
1165
921
1315
1083
1236
877
1154
767
966
427
0
0
1365
1246
1589
1391
1794
1373
1867
1513
1769
1490
1881
1549
1837
1672
1813
1611
1970
1542
1954
1659
1997
1670
2193
1990
2280
1850
2213
1849
2085
1828
2337
1982
2171
1818
2181
1781
2066
1766
2119
1774
2155
1860
2262
1981
2451
2154
2302
2120
2414
2178
2429
2180
2461
2010
2230
1894
2285
1862
2004
1713
2039
1649
1928
1649
2051
1721
2046
1789
2121
1889
2122
1853
2152
1876
2085
1781
2010
1613
1936
1544
1875
1592
1918
1615
1874
1652
2034
1745
2193
1806
2082
1725
1893
1366
1741
1437
1647
1381
1733
1515
1851
1371
1658
1307
1556
965
0
0
1634
1521
2002
1693
1882
1730
2077
1784
2065
1716
1946
1773
2004
1834
2034
1742
2013
1764
2098
1896
2122
1956
2294
2037
2196
1877
2125
1880
2130
1876
2186
1874
2146
1865
2091
1846
2116
1878
2192
2000
2374
2051
2404
2218
2404
2136
2242
2022
2228
1905
2301
2021
2253
1833
2011
1730
1948
1669
1824
1613
1816
1608
1808
1549
1961
1585
1783
1670
1947
1687
1892
1614
1893
1732
2037
1641
1901
1675
1796
1458
1782
1469
1680
1509
1603
1503
1674
1544
1941
1642
1903
1542
1701
1348
1572
1318
1452
1319
1604
1229
1525
1272
1429
1098
1346
914
0
0
1537
1401
1859
1525
1742
1518
1851
1565
1836
1514
1884
1579
1902
1668
1898
1614
1870
1605
2013
1748
1990
1831
2046
1722
1959
1661
1988
1615
2026
1706
1940
1707
2059
1786
2002
1787
2006
1843
2120
1945
2205
1997
2290
2004
2202
1890
2046
1668
1945
1707
1975
1755
2054
1628
1842
1514
1736
1477
1651
1391
1685
1503
1778
1393
1757
1482
1653
1429
1718
1414
1658
1387
1721
1424
1890
1536
1864
1536
1796
1374
1725
1322
1524
1330
1529
1331
1498
1270
1640
1465
1757
1499
1709
1282
1538
1131
1409
1208
1461
1040
1362
1122
1369
1069
1259
621
0
0
1125
1117
1465
1243
1435
1146
1477
1161
1603
1192
1521
1232
1581
1305
1539
1355
1568
1327
1675
1419
1654
1395
1698
1364
1675
1403
1681
1341
1674
1413
1719
1582
1850
1587
1668
1464
1730
1546
1774
1550
1914
1577
1765
1549
1809
1394
1628
1373
1602
1201
1672
1296
1575
1341
1525
1221
1463
1177
1364
1100
1411
1218
1383
1142
1466
1146
1405
1166
1393
1164
1461
1151
1354
1081
1467
1242
1654
1399
1509
1198
1478
1083
1330
1066
1224
1003
1199
1066
1315
1129
1506
1146
1437
1092
1299
1002
1115
920
1147
779
1115
867
1140
901
999
582
0
0
1373
1300
1737
1405
1671
1385
1754
1405
1817
1485
1819
1483
1858
1579
1863
1696
1939
1655
1975
1729
1992
1721
2074
1705
2083
1786
2074
1750
2087
1834
2285
2042
2474
2093
2283
1873
2097
1906
2181
1883
2176
1815
2146
1867
2141
1776
2041
1754
2066
1727
2043
1723
2091
1735
2052
1650
2006
1698
1962
1638
1962
1617
1881
1643
1966
1589
1961
1680
1872
1567
1924
1642
1906
1544
1951
1666
2050
1800
1982
1763
2134
1668
2034
1650
1810
1578
1746
1557
1845
1524
1882
1602
1901
1557
1838
1428
1673
1458
1725
1317
1638
1359
1658
1478
1718
1058
0
0
1589
1486
1875
1658
1866
1602
2004
1726
1964
1852
1948
1787
2025
1801
2078
1762
2110
1854
2090
1842
2100
1798
2137
1800
2116
1896
2138
1828
2294
2085
2466
2161
2540
2156
2339
1963
2132
1894
2117
1818
2042
1844
1970
1742
2001
1733
1969
1716
2059
1707
2002
1711
1906
1678
1910
1657
1933
1707
1829
1595
1870
1487
1883
1599
1896
1530
1875
1445
1757
1449
1748
1540
1704
1424
1674
1478
1653
1410
1773
1535
1863
1602
1829
1462
1754
1454
1598
1323
1620
1386
1589
1429
1606
1330
1605
1277
1565
1197
1421
1149
1365
1172
1494
1193
1509
893
0
0
1357
1243
1629
1416
1695
1391
1721
1424
1782
1580
1852
1619
1780
1508
1874
1558
1855
1572
1843
1557
1825
1547
1958
1595
1910
1577
2035
1693
2078
1876
2138
1911
2324
1842
2036
1674
1882
1637
1882
1546
1770
1578
1815
1570
1811
1553
1813
1540
1874
1510
1777
1608
1832
1579
1886
1674
1878
1590
1815
1470
1779
1453
1764
1444
1805
1437
1850
1403
1700
1317
1577
1394
1627
1323
1487
1233
1458
1202
1482
1290
1608
1298
1607
1290
1517
1337
1492
1249
1473
1204
1367
1188
1445
1201
1424
1079
1393
1060
1303
1025
1309
1025
1302
938
1160
584
0
0
1060
983
1335
1174
1445
1154
1481
1226
1486
1382
1576
1379
1579
1357
1531
1252
1553
1288
1483
1305
1541
1305
1686
1294
1670
1373
1702
1478
1860
1605
1890
1578
1797
1433
1593
1369
1626
1275
1586
1260
1559
1273
1554
1358
1588
1373
1591
1381
1718
1353
1716
1521
1701
1558
1806
1543
1717
1441
1581
1446
1683
1326
1671
1373
1634
1289
1746
1213
1461
1142
1341
1234
1475
1142
1346
1082
1221
949
1190
1005
1284
1062
1282
1014
1290
1055
1293
1074
1284
1050
1169
987
1094
835
1110
937
1115
949
1153
906
1142
836
1079
705
1034
425
0
0
1317
1169
1594
1385
1675
1427
1846
1614
1913
1754
1914
1682
1805
1508
1850
1518
1893
1589
1899
1621
1955
1601
2056
1722
2042
1812
2155
1873
2229
1901
2253
1765
2125
1686
2076
1732
2011
1667
2017
1753
1994
1817
2050
1825
2094
1818
2176
1899
2293
1910
2283
2078
2372
2123
2378
2130
2330
1913
2165
1964
2227
1845
2230
1793
2245
1906
2179
1789
2103
1716
1985
1864
2150
1881
2038
1711
1855
1547
1778
1570
1839
1572
1829
1449
1885
1590
1884
1613
1920
1605
1757
1540
1736
1389
1757
1428
1826
1589
1810
1515
1734
1526
1657
1282
1524
882
0
0
1546
1461
1757
1526
1829
1610
2056
1858
2158
1886
2002
1640
1963
1681
1961
1711
2005
1740
2050
1723
1990
1767
2129
1837
2125
1825
2145
1922
2176
1890
2192
1760
2091
1661
1947
1770
1988
1737
2037
1759
2033
1837
2117
1845
2102
1929
2179
1879
2154
1877
2101
1883
2137
1949
2125
1994
2126
1830
2061
1634
1998
1705
1995
1688
2050
1733
2089
1780
1892
1529
1947
1793
2024
1833
2081
1661
1873
1416
1598
1378
1598
1334
1534
1379
1510
1357
1667
1418
1654
1302
1540
1217
1490
1265
1465
1195
1465
1335
1642
1404
1577
1336
1402
1092
1337
763
0
0
1416
1163
1606
1277
1679
1449
1898
1604
1942
1498
1796
1458
1745
1437
1778
1429
1802
1531
1811
1517
1800
1605
1931
1602
1892
1602
1875
1705
1966
1646
1891
1466
1810
1477
1797
1498
1778
1621
1945
1642
1915
1703
2030
1757
1969
1689
1937
1582
1884
1577
1745
1546
1853
1626
1826
1701
1789
1570
1764
1320
1703
1426
1746
1391
1689
1397
1781
1425
1648
1314
1690
1580
1898
1714
2011
1559
1746
1460
1566
1295
1476
1183
1371
1115
1357
1130
1425
1194
1429
1250
1442
1125
1330
1149
1320
1077
1258
1034
1364
1174
1437
1277
1330
978
1080
594
0
0
1067
924
1303
1158
1414
1157
1545
1280
1541
1163
1419
1141
1469
1228
1494
1133
1553
1277
1482
1269
1558
1315
1581
1285
1627
1267
1549
1426
1589
1362
1557
1173
1582
1296
1501
1306
1599
1385
1726
1416
1728
1513
1662
1414
1663
1314
1595
1249
1498
1202
1456
1134
1404
1209
1349
1190
1426
1173
1418
1018
1362
1022
1410
1031
1422
1158
1416
1096
1394
1042
1378
1258
1477
1307
1645
1301
1561
1182
1451
1110
1342
1055
1290
970
1133
869
1103
933
1093
899
1265
1015
1227
795
1091
889
1096
845
1195
994
1245
990
1082
809
1010
450
0
0
1322
1201
1546
1297
1646
1277
1762
1427
1698
1374
1706
1353
1703
1427
1809
1580
1890
1594
1949
1670
1929
1566
1941
1578
1933
1597
1989
1738
1993
1643
2021
1625
2009
1689
1975
1795
2154
1885
2211
1824
2063
1846
2039
1753
1935
1719
1959
1641
1921
1584
1800
1549
1929
1554
1842
1610
1814
1540
1849
1425
1841
1514
1858
1525
1841
1554
1813
1469
1864
1485
1796
1611
1931
1670
2110
1699
2001
1644
1989
1636
1968
1565
1776
1482
1720
1435
1715
1428
1638
1449
1726
1490
1774
1497
1636
1373
1574
1370
1748
1466
1770
1556
1709
1307
1613
1022
0
0
1418
1316
1694
1416
1694
1374
1769
1494
1740
1396
1739
1564
1804
1526
1901
1595
2071
1771
2004
1717
1924
1565
1819
1545
1911
1640
1941
1738
1978
1638
1906
1742
1995
1713
2066
1803
2106
1797
2135
1718
1885
1646
1842
1524
1867
1529
1717
1508
1746
1412
1714
1476
1621
1392
1663
1468
1710
1335
1596
1298
1669
1395
1672
1373
1566
1321
1641
1368
1602
1309
1590
1317
1526
1254
1614
1386
1607
1284
1570
1461
1690
1495
1661
1291
1513
1234
1499
1147
1461
1324
1453
1268
1553
1233
1315
1039
1335
1075
1369
1134
1401
1210
1479
1154
1317
682
0
0
1156
1083
1389
1133
1442
1186
1595
1163
1493
1140
1509
1246
1605
1259
1669
1389
1718
1411
1668
1438
1714
1323
1613
1365
1607
1425
1813
1553
1788
1432
1826
1520
1988
1578
1823
1591
1826
1484
1838
1429
1565
1320
1586
1238
1669
1312
1605
1267
1549
1181
1561
1265
1545
1194
1460
1211
1494
1105
1475
1138
1528
1171
1462
1113
1421
1134
1478
1165
1365
1113
1387
1160
1358
1060
1374
1107
1398
1059
1329
1109
1509
1234
1536
1073
1333
968
1243
995
1266
1066
1207
907
1353
1053
1197
931
1231
800
1200
912
1172
907
1268
998
1161
627
0
0
717
626
874
646
894
672
1100
695
1034
746
1000
681
1070
826
1157
874
1186
779
1194
871
1201
813
1098
886
1254
984
1341
1126
1453
1140
1402
1094
1508
1058
1325
1037
1317
901
1380
954
1106
923
1141
845
1098
811
1070
790
1171
826
1019
781
1073
810
1066
797
1071
724
1078
690
1083
810
997
790
954
715
938
685
890
666
967
680
933
682
953
717
918
590
810
542
906
651
997
718
918
594
813
474
798
563
805
445
842
580
790
562
844
397
780
540
628
485
819
507
789
276
0
0
0
0
0
0
0
0
0
0
0
0
0
0
0
0
0
0
0
0
0
0
0
0
0
0
0
0
0
0
0
0
0
0
0
0
0
0
0
0
0
0
0
0
0
0
0
0
0
0
0
0
0
0
0
0
0
0
0
0
0
0
0
0
0
0
0
0
0
0
0
0
0
0
0
0
0
0
0
0
0
0
0
0
0
0
0
0
0
0
0
0
0
0
0
0
0
0
0
0
0
0
0
0
0
0
0
0
0
