P2
108 88
4095
0
0
0
0
0
0
0
0
0
0
0
0
0
0
0
0
0
0
0
0
0
0
0
0
0
0
0
0
0
0
0
0
0
0
0
0
0
0
0
0
0
0
0
0
0
0
0
0
0
0
0
0
0
0
0
0
0
0
0
0
0
0
0
0
0
0
0
0
0
0
0
0
0
0
0
0
0
0
0
0
0
0
0
0
0
0
0
0
0
0
0
0
0
0
0
0
0
0
0
0
0
0
0
0
0
0
0
0
0
1072
1030
1437
1114
1478
1130
1453
1161
1496
1195
1328
1010
1386
1156
1458
1232
1643
1416
1690
1428
1603
1402
1702
1372
1586
1353
1529
1282
1620
1293
1622
1239
1613
1193
1561
1277
1557
1281
1688
1372
1774
1412
1637
1379
1682
1390
1584
1394
1686
1378
1732
1442
1761
1348
1706
1424
1577
1291
1636
1309
1643
1338
1605
1295
1652
1273
1525
1207
1496
1190
1430
1142
1317
1027
1278
1029
1237
874
1249
899
1189
871
1268
905
1206
914
1140
938
1200
834
1126
827
1079
821
1128
770
1110
836
1234
758
969
683
898
681
872
461
0
0
897
1008
1350
1034
1477
1070
1442
1194
1417
1153
1298
933
1213
957
1400
1166
1507
1329
1614
1289
1514
1178
1541
1162
1435
1177
1446
1120
1426
1156
1451
1116
1463
1087
1515
1176
1454
1298
1588
1425
1753
1445
1591
1294
1495
1265
1491
1334
1650
1265
1619
1317
1553
1238
1462
1227
1437
1149
1444
1083
1431
1112
1446
1186
1480
1164
1416
1189
1516
1160
1400
1115
1275
970
1233
948
1140
866
1175
869
1157
884
1154
757
1098
860
996
823
1042
819
1091
755
1038
733
941
722
1041
695
1129
757
917
570
849
537
730
394
0
0
1201
1235
1725
1382
1815
1480
1865
1541
1917
1605
1742
1365
1673
1326
1681
1474
1899
1663
1982
1620
1844
1519
1879
1532
1838
1577
1844
1562
1832
1676
2003
1586
1981
1614
2053
1702
2002
1838
2185
1989
2271
1850
2037
1694
1989
1698
1954
1715
2055
1717
2052
1745
2068
1585
1947
1615
1766
1564
1908
1501
1896
1550
1924
1565
1982
1575
1892
1642
2007
1652
2001
1657
1917
1576
1838
1562
1765
1418
1749
1418
1717
1411
1755
1413
1771
1433
1603
1426
1684
1367
1734
1246
1512
1284
1561
1252
1597
1237
1641
1282
1562
1130
1501
1145
1380
965
0
0
1611
1655
2090
1901
2244
1880
2241
1922
2193
1893
2031
1682
1962
1642
1911
1764
2041
1796
2042
1786
2077
1765
2032
1866
1945
1840
2050
1865
2118
1830
2171
1809
2151
1820
2176
2015
2255
2020
2429
2181
2470
2022
2130
1749
2018
1658
1909
1665
2036
1776
2026
1608
1864
1612
1845
1686
1870
1513
1836
1591
1797
1515
1749
1508
1790
1492
1813
1491
1775
1554
1802
1600
1814
1569
1650
1434
1746
1354
1563
1421
1683
1481
1713
1334
1619
1301
1509
1302
1585
1229
1587
1196
1553
1138
1470
1177
1438
1102
1565
1101
1412
1027
1362
1061
1203
720
0
0
1442
1480
1931
1667
2067
1606
2111
1702
1937
1647
1869
1567
1814
1384
1748
1495
1839
1570
1827
1544
1878
1479
1832
1654
1842
1653
1964
1876
2104
1833
2114
1749
2135
1909
2032
1655
2034
1845
2248
1979
2289
1794
1956
1558
1874
1518
1839
1445
1924
1509
1801
1469
1748
1480
1753
1487
1791
1333
1670
1450
1733
1395
1673
1369
1757
1397
1645
1323
1673
1270
1641
1397
1654
1301
1539
1297
1595
1179
1491
1275
1570
1304
1574
1269
1597
1258
1509
1208
1534
1124
1481
1067
1342
1066
1363
1067
1258
1024
1364
926
1313
921
1170
891
1093
565
0
0
1203
1205
1541
1371
1611
1202
1577
1192
1485
1264
1410
1050
1437
1106
1371
1174
1448
1174
1462
1210
1520
1275
1569
1306
1558
1387
1770
1542
1899
1589
1870
1444
1850
1389
1748
1367
1608
1422
1909
1591
1915
1426
1613
1214
1554
1218
1520
1163
1591
1178
1553
1209
1440
1083
1480
1234
1477
1070
1428
1258
1409
1115
1333
1070
1398
1091
1391
1106
1353
1091
1307
1106
1285
1004
1298
950
1289
1025
1093
956
1362
1054
1237
1019
1293
995
1179
1096
1352
962
1273
916
1109
868
1045
792
1080
741
1138
628
1033
678
973
688
744
277
0
0
1406
1339
1803
1508
1875
1365
1778
1317
1636
1428
1623
1307
1769
1364
1706
1492
1789
1505
1885
1613
1979
1717
1993
1710
2008
1839
2259
2050
2344
2088
2348
1818
2132
1809
2125
1732
1977
1699
2286
1996
2333
1847
2023
1707
1989
1683
1965
1615
1969
1815
2048
1712
1987
1642
1922
1800
2085
1680
1918
1747
2002
1650
1943
1587
1903
1686
1930
1549
1917
1526
1829
1558
1888
1595
1776
1559
1872
1513
1737
1549
1875
1574
1903
1588
1995
1514
1874
1649
2013
1634
1978
1515
1841
1373
1724
1477
1731
1363
1745
1309
1686
1262
1551
1195
1339
826
0
0
1546
1604
2074
1820
1978
1652
1909
1499
1914
1579
1866
1565
1845
1642
1970
1637
2020
1778
2135
1829
2099
1994
2282
1818
2211
1890
2266
2005
2336
2066
2365
1978
2154
1850
2017
1758
2107
1869
2137
2007
2280
1947
2154
1725
1949
1658
2046
1797
2021
1814
2026
1730
2008
1800
2066
1882
2158
1807
1967
1643
1955
1717
1953
1638
1986
1561
1820
1473
1788
1382
1781
1465
1746
1449
1653
1490
1642
1373
1581
1283
1771
1342
1591
1369
1647
1353
1731
1509
1781
1533
1712
1454
1641
1335
1568
1275
1618
1277
1533
1208
1405
1129
1234
989
1224
757
0
0
1367
1337
1858
1485
1794
1384
1701
1249
1575
1349
1605
1342
1773
1595
1914
1541
1874
1620
2014
1714
2021
1844
2154
1734
2090
1673
2001
1683
2059
1807
2100
1707
1980
1537
1858
1449
1910
1571
1943
1670
2006
1636
1973
1494
1826
1612
1906
1707
1924
1716
1947
1717
2073
1749
2027
1814
2129
1767
1939
1580
1973
1691
1891
1576
1939
1589
1800
1293
1661
1245
1602
1365
1516
1270
1514
1331
1495
1213
1458
1155
1535
1177
1474
1186
1442
1173
1517
1291
1493
1408
1525
1242
1445
1149
1465
1117
1574
1309
1341
1058
1341
954
1114
804
1073
623
0
0
1115
1096
1541
1211
1437
1154
1413
1101
1435
1131
1361
1200
1515
1381
1634
1335
1638
1355
1704
1426
1754
1593
1868
1469
1780
1453
1647
1290
1622
1424
1681
1456
1682
1378
1510
1270
1559
1354
1554
1399
1733
1419
1762
1359
1613
1398
1714
1507
1828
1682
1861
1605
1841
1658
1960
1673
2018
1682
1782
1415
1748
1450
1698
1373
1650
1342
1522
1160
1418
1076
1463
1133
1310
1060
1322
1182
1397
1098
1310
981
1332
961
1254
954
1201
947
1248
1020
1329
1090
1228
926
1209
907
1242
1031
1317
1044
1163
851
1110
757
967
626
949
401
0
0
1347
1318
1757
1405
1761
1361
1764
1406
1859
1470
1850
1608
2027
1769
2159
1709
1949
1637
1957
1642
2070
1862
2241
1712
2106
1716
1989
1614
2013
1762
2138
1766
2075
1659
1956
1685
2002
1775
2105
1806
2167
1890
2276
1818
2174
1909
2196
1953
2244
2055
2334
2029
2372
2017
2440
2010
2398
2045
2161
1749
2141
1841
2139
1759
2220
1739
2088
1708
2022
1653
2006
1686
1909
1659
1937
1702
2031
1758
1881
1521
1896
1579
1866
1470
1804
1495
1812
1538
1787
1558
1817
1541
1801
1482
1774
1462
1861
1590
1691
1395
1685
1378
1747
1320
1654
1162
0
0
1545
1597
2113
1723
1974
1685
2035
1691
2024
1733
2090
1853
2231
2097
2293
1819
2024
1693
2094
1805
1970
1865
2182
1853
2010
1754
2053
1796
2093
1921
2183
1825
2007
1741
1981
1737
2030
1777
2041
1819
2201
2066
2268
1806
2065
1821
2127
1860
2213
1825
2081
1825
2092
1906
2087
1896
2178
1789
2004
1632
1892
1610
1906
1574
1942
1590
1803
1584
1921
1590
1828
1631
1937
1574
1919
1690
2092
1676
1818
1510
1734
1413
1737
1265
1663
1320
1557
1347
1595
1318
1599
1367
1570
1189
1634
1208
1556
1230
1396
1154
1480
1281
1578
1321
1327
973
0
0
1482
1493
1962
1650
1915
1619
1960
1634
1978
1602
1971
1701
2029
1893
2166
1735
1882
1595
1867
1545
1850
1681
2011
1672
1918
1613
1896
1646
1973
1686
2002
1655
1893
1633
1924
1649
1946
1731
2106
1818
2162
1993
2179
1681
1931
1672
1941
1581
1982
1524
1838
1563
1877
1655
1986
1640
1948
1582
1794
1482
1733
1470
1740
1436
1769
1490
1757
1467
1758
1438
1821
1513
1981
1695
1932
1676
2004
1650
1886
1579
1759
1429
1570
1218
1569
1207
1467
1209
1529
1228
1594
1284
1387
1238
1512
1161
1473
1125
1325
1019
1349
1211
1430
1139
1285
823
0
0
1304
1330
1787
1435
1702
1330
1589
1308
1648
1278
1602
1368
1675
1537
1846
1337
1526
1289
1559
1335
1523
1286
1612
1410
1643
1317
1634
1514
1710
1530
1774
1498
1715
1525
1841
1549
1864
1594
1930
1610
1965
1680
1928
1432
1685
1317
1586
1258
1703
1277
1611
1341
1525
1370
1562
1335
1682
1263
1575
1244
1390
1202
1462
1285
1467
1221
1463
1217
1573
1287
1602
1379
1693
1289
1780
1557
1829
1555
1800
1429
1585
1239
1503
986
1313
1099
1206
1074
1273
978
1293
1069
1346
1108
1355
943
1283
913
1089
827
1141
877
1210
878
1067
612
0
0
1469
1421
1973
1616
1859
1397
1781
1419
1764
1425
1840
1472
1872
1623
1955
1509
1810
1509
1901
1603
1851
1645
1973
1698
2003
1704
2078
1910
2154
1966
2274
1971
2219
1908
2171
1881
2235
1999
2234
1860
2242
2009
2194
1861
2035
1725
2040
1722
2120
1714
2026
1693
2034
1840
2110
1808
2133
1819
2040
1650
1986
1709
2021
1618
2020
1668
2054
1712
2082
1720
2054
1766
2134
1752
2202
1978
2324
2010
2202
1791
2124
1765
2036
1533
1962
1584
1842
1650
1965
1555
1959
1649
2001
1609
1970
1488
1730
1476
1669
1404
1769
1338
1654
1269
1478
1028
0
0
1692
1740
2154
1821
1875
1561
1837
1598
1847
1494
1805
1634
1918
1607
2014
1721
1894
1625
1894
1766
2071
1738
2130
1893
2225
1883
2138
2009
2340
2062
2333
2006
2158
1962
2141
1909
2202
1889
2081
1796
2217
1829
2030
1700
1998
1630
1986
1702
1973
1689
1963
1682
1942
1799
2064
1805
1974
1688
1956
1750
1938
1616
1908
1682
1901
1638
1892
1579
1766
1501
1813
1478
1766
1622
1894
1649
1915
1746
1923
1598
1780
1480
1672
1425
1702
1405
1702
1484
1730
1459
1780
1542
1902
1585
1736
1338
1570
1220
1466
1168
1438
1162
1314
1051
1271
809
0
0
1507
1525
1901
1562
1725
1358
1692
1378
1693
1381
1757
1330
1715
1534
1875
1520
1796
1445
1829
1661
2008
1738
2148
1858
2241
1905
2203
1936
2228
1988
2270
1883
2141
1770
1962
1662
2075
1669
1893
1683
1998
1684
1929
1666
1943
1618
1889
1684
2011
1651
1932
1637
1962
1828
2075
1918
2019
1796
1988
1650
1973
1555
1874
1564
1943
1573
1898
1551
1676
1353
1704
1350
1695
1420
1694
1525
1790
1466
1682
1411
1680
1342
1586
1338
1637
1393
1644
1327
1717
1467
1781
1576
2008
1581
1740
1281
1605
1189
1330
1054
1384
1000
1154
939
1222
651
0
0
1082
1101
1483
1155
1348
1021
1300
1028
1370
1002
1340
1090
1360
1163
1445
1140
1498
1245
1555
1373
1732
1418
1874
1610
1925
1614
1817
1624
1780
1589
1855
1434
1744
1307
1649
1348
1700
1320
1568
1414
1680
1357
1611
1295
1605
1430
1675
1411
1722
1385
1659
1377
1706
1556
1873
1557
1738
1560
1725
1437
1597
1330
1597
1300
1549
1258
1549
1196
1419
1181
1440
1109
1431
1188
1416
1202
1400
1150
1343
1034
1310
1058
1242
1032
1284
1028
1334
1031
1378
1194
1531
1323
1732
1323
1485
1004
1194
895
1133
775
1019
829
846
677
949
433
0
0
1287
1243
1554
1313
1544
1163
1565
1299
1714
1346
1728
1442
1766
1445
1806
1551
1892
1622
1906
1704
2131
1738
2209
1942
2262
1865
2102
1915
2138
1758
2162
1717
2064
1687
1975
1750
2051
1645
2064
1765
2157
1873
2197
1829
2177
1834
2233
1958
2278
1906
2259
1993
2402
2102
2347
1960
2126
1830
2091
1847
2122
1787
2052
1738
2041
1706
2026
1680
1946
1597
1955
1701
1993
1672
2011
1682
1942
1597
1872
1531
1883
1529
1874
1580
1801
1602
1860
1480
1903
1645
2150
1847
2186
1877
1941
1502
1728
1506
1748
1465
1714
1378
1580
1391
1645
1053
0
0
1403
1405
1778
1467
1754
1389
1802
1549
1942
1702
2050
1719
2114
1647
2095
1853
2229
1938
2203
1837
2032
1859
2237
1877
2143
1844
2117
1781
2126
1815
2042
1691
2090
1789
2054
1719
2037
1809
2013
1821
2140
1893
2171
1949
2228
1953
2194
1855
2242
1957
2186
2029
2213
1980
2228
1797
2018
1743
2007
1657
1942
1661
1845
1611
1807
1556
1850
1485
1837
1605
1795
1601
1936
1588
1760
1498
1668
1385
1587
1291
1658
1341
1594
1397
1612
1259
1544
1333
1681
1473
1725
1549
1810
1562
1738
1227
1585
1382
1618
1434
1566
1202
1394
1211
1482
1061
0
0
1332
1318
1620
1333
1650
1283
1722
1499
1939
1681
2090
1699
2043
1655
2053
1741
2083
1746
1909
1637
1873
1677
1993
1691
1956
1666
1946
1643
1874
1595
1896
1585
1902
1655
1968
1670
2031
1649
2029
1850
2235
1896
2245
1909
2162
1866
2054
1762
2081
1770
2016
1768
2062
1773
2075
1594
1946
1544
1918
1499
1768
1579
1730
1473
1771
1514
1834
1425
1818
1469
1754
1623
1941
1512
1758
1355
1623
1274
1510
1213
1594
1198
1474
1250
1463
1139
1466
1202
1497
1262
1621
1311
1578
1298
1520
1097
1509
1299
1594
1347
1526
1229
1450
1264
1483
971
0
0
921
870
1283
1065
1265
891
1343
1108
1624
1450
1885
1482
1874
1417
1669
1470
1640
1309
1591
1283
1509
1293
1605
1307
1595
1323
1628
1307
1596
1314
1614
1291
1710
1318
1638
1482
1748
1534
1833
1613
1981
1682
1946
1640
1800
1502
1754
1449
1674
1351
1673
1451
1651
1466
1692
1353
1609
1254
1525
1190
1563
1259
1433
1202
1558
1202
1508
1229
1522
1290
1604
1502
1673
1343
1549
1097
1347
1050
1278
944
1381
960
1252
1001
1205
920
1257
938
1182
907
1313
1021
1330
973
1157
837
1250
1002
1302
1097
1293
987
1300
1050
1173
696
0
0
1200
1173
1585
1301
1644
1248
1620
1418
1993
1805
2228
1855
2210
1781
1995
1581
1882
1618
1828
1466
1883
1606
2053
1725
1990
1609
2029
1613
1973
1742
2088
1805
2212
1875
2276
2028
2299
2031
2370
2142
2558
2109
2307
1970
2178
1909
2155
1728
2117
1765
2158
1834
2234
1894
2167
1853
2095
1735
2096
1706
2038
1797
2050
1786
2157
1893
2246
1877
2228
1924
2187
1918
2357
1926
2133
1669
1915
1596
1885
1597
1877
1513
1862
1578
1949
1493
1774
1495
1867
1534
1806
1503
1765
1527
1723
1445
1763
1428
1881
1520
1861
1383
1803
1547
1865
1332
0
0
1451
1421
1794
1477
1803
1499
1875
1597
2131
1942
2347
2088
2351
1963
2066
1645
2042
1714
2028
1788
2076
1763
2066
1761
2038
1796
2018
1883
2166
1997
2356
2190
2450
2168
2477
2205
2507
2224
2438
2138
2377
1988
2229
1883
2131
1780
2130
1770
2159
1815
2068
1776
2114
1931
2137
1778
1929
1758
1963
1702
2052
1773
2182
1957
2187
1933
2181
1877
2154
1717
2010
1821
2082
1787
1906
1546
1837
1518
1736
1563
1813
1546
1680
1495
1716
1414
1644
1389
1670
1255
1565
1282
1596
1335
1424
1256
1498
1245
1485
1243
1461
1203
1525
1368
1637
1029
0
0
1342
1221
1521
1127
1718
1227
1661
1370
1821
1581
2170
1717
2034
1684
1890
1473
1885
1525
1901
1594
1874
1545
1997
1591
1984
1705
2053
1787
2154
1950
2349
2121
2397
2061
2242
1974
2316
1890
2229
1902
2073
1716
1941
1621
1925
1613
1957
1530
2024
1725
1985
1687
2074
1754
1957
1578
1812
1682
1918
1681
2001
1729
2061
1846
2129
1886
2082
1741
1986
1540
1886
1637
1845
1527
1814
1351
1605
1394
1702
1430
1701
1482
1819
1550
1725
1390
1476
1275
1513
1077
1469
1230
1429
1155
1317
1067
1488
1145
1333
1070
1307
978
1226
1170
1410
794
0
0
1046
900
1290
962
1307
1064
1346
1192
1637
1331
1756
1335
1571
1245
1511
1153
1508
1218
1557
1322
1642
1362
1778
1534
1877
1678
1803
1670
2049
1834
2184
1945
2130
1770
1854
1617
1821
1593
1764
1394
1719
1405
1644
1353
1655
1363
1645
1349
1732
1458
1701
1474
1847
1602
1785
1339
1643
1431
1686
1471
1732
1476
1687
1485
1891
1530
1709
1371
1584
1229
1576
1299
1506
1243
1453
1102
1406
1142
1306
1157
1473
1274
1572
1401
1476
1218
1326
1162
1281
953
1211
1134
1333
1003
1111
928
1253
861
1137
841
995
797
1025
821
1122
475
0
0
1302
1171
1549
1204
1675
1275
1659
1493
1897
1579
2020
1491
1789
1516
1886
1429
1881
1574
2005
1762
2086
1851
2304
2043
2366
2166
2343
2157
2319
2069
2427
2196
2436
2122
2293
1888
2229
1854
2036
1818
2150
1728
2130
1925
2154
1875
2218
1810
2342
2018
2244
2042
2408
2105
2264
1816
2206
1923
2120
1915
2171
1794
2113
1954
2202
1929
2157
1757
2062
1724
2077
1710
2063
1680
2073
1640
1926
1649
1945
1686
2042
1759
2158
1901
2131
1805
1878
1730
2052
1613
1972
1769
2037
1670
1729
1469
1804
1373
1701
1385
1653
1343
1644
1355
1687
1009
0
0
1485
1444
1736
1370
1714
1549
1797
1598
1966
1745
1979
1588
1908
1602
1882
1666
1861
1661
2020
1909
2253
2116
2457
2226
2497
2234
2405
2022
2285
2002
2352
1982
2349
1941
2289
1909
2122
1845
2053
1811
2101
1754
2152
1810
2097
1958
2198
1898
2232
1955
2258
2042
2115
1914
2054
1698
1961
1708
1819
1723
1928
1636
1864
1662
1925
1677
1957
1636
1781
1559
1782
1516
1724
1485
1827
1480
1629
1354
1678
1436
1694
1469
1835
1514
1729
1403
1691
1405
1740
1533
1769
1609
1847
1474
1686
1307
1488
1186
1556
1187
1385
1093
1333
1066
1256
853
0
0
1301
1225
1606
1306
1693
1449
1777
1492
1866
1445
1749
1334
1748
1387
1746
1489
1829
1658
1988
1874
2246
1964
2395
2066
2239
1934
2155
1725
2022
1707
2025
1753
2029
1758
2064
1701
2045
1604
1979
1701
2055
1762
2154
1861
2152
2029
2114
1838
2146
1805
2078
1881
2069
1698
1841
1578
1845
1570
1753
1546
1838
1612
1746
1378
1820
1513
1827
1433
1682
1421
1704
1433
1594
1381
1674
1356
1594
1325
1526
1323
1650
1332
1579
1327
1517
1218
1459
1163
1538
1435
1738
1554
1826
1438
1685
1245
1520
1021
1399
1017
1291
1050
1262
965
1203
709
0
0
1125
1060
1403
1115
1457
1227
1432
1045
1401
1127
1322
1111
1514
1141
1483
1293
1589
1355
1743
1675
1970
1674
2089
1769
1899
1593
1774
1460
1732
1398
1729
1428
1774
1428
1766
1452
1739
1375
1751
1540
1868
1694
2062
1795
2045
1709
1851
1516
1796
1434
1692
1514
1704
1419
1629
1396
1595
1277
1624
1326
1547
1317
1485
1246
1619
1236
1572
1245
1394
1245
1460
1124
1381
1221
1490
1226
1365
1074
1336
1090
1318
1019
1389
1078
1346
1061
1298
869
1325
1100
1456
1234
1498
1223
1448
1181
1392
919
1284
878
1128
881
1109
724
1003
558
0
0
1373
1274
1682
1361
1672
1405
1691
1354
1609
1336
1641
1354
1730
1410
1772
1671
2089
1762
2178
1842
2187
1882
2166
1942
2121
1778
2088
1757
2056
1754
2178
1840
2105
1824
2184
1806
2196
1881
2252
2046
2522
2170
2539
2201
2461
2123
2228
1877
2159
1929
2170
1926
2212
1815
2111
1802
2114
1793
1960
1855
2014
1811
2038
1718
2090
1722
2061
1685
1937
1712
1984
1704
1958
1734
2098
1778
1933
1613
1899
1587
1875
1570
1916
1632
1858
1531
1833
1493
1868
1590
1882
1643
2030
1789
2023
1733
1937
1614
1882
1515
1738
1510
1778
1437
1733
1240
0
0
1642
1495
1875
1594
1813
1459
1802
1529
1725
1597
1809
1533
1917
1589
2019
1787
2116
1835
2122
1923
2101
1840
2083
1846
2057
1781
2063
1795
2114
1802
2005
1877
2260
1839
2292
1977
2256
1878
2227
1981
2440
2181
2306
1932
2306
1907
2138
1787
2016
1770
2069
1835
2025
1674
1942
1651
2009
1637
1899
1742
1892
1686
1871
1653
1906
1613
1869
1542
1867
1490
1784
1481
1890
1573
1905
1539
1772
1404
1552
1339
1625
1362
1654
1413
1570
1342
1563
1334
1562
1303
1538
1330
1655
1412
1586
1333
1614
1355
1650
1370
1605
1249
1672
1419
1646
1050
0
0
1587
1354
1781
1373
1654
1363
1681
1445
1693
1468
1806
1509
1864
1606
1892
1637
2069
1697
1957
1712
1953
1637
1932
1643
1988
1688
1961
1701
1993
1778
2062
1869
2334
1970
2277
2026
2216
1869
2187
1960
2218
1896
2144
1748
2070
1737
1995
1610
1925
1770
2103
1810
2013
1658
1924
1626
2050
1674
1925
1712
1897
1704
1878
1652
1962
1613
1894
1546
1932
1607
1847
1531
1893
1558
1800
1469
1672
1429
1723
1366
1653
1448
1645
1285
1633
1334
1576
1324
1505
1236
1545
1253
1453
1234
1534
1192
1492
1202
1558
1255
1599
1294
1629
1522
1619
1126
0
0
1114
1063
1265
1018
1385
1042
1350
1126
1360
1130
1491
1237
1605
1262
1573
1399
1595
1271
1577
1270
1505
1293
1646
1383
1623
1374
1647
1480
1722
1470
1847
1636
2030
1768
1979
1645
1883
1506
1782
1499
1708
1381
1786
1363
1603
1330
1657
1317
1669
1442
1777
1526
1813
1488
1653
1384
1742
1477
1815
1558
1794
1514
1746
1577
1775
1462
1602
1339
1681
1313
1629
1306
1662
1238
1474
1157
1418
1066
1364
1165
1518
1239
1463
1264
1472
1156
1345
1138
1216
931
1179
926
1202
951
1189
933
1170
873
1183
879
1181
1107
1398
1269
1403
914
0
0
1355
1103
1542
1178
1615
1286
1653
1370
1716
1454
1850
1477
1921
1502
1894
1555
1861
1505
1909
1641
1896
1601
2078
1782
2061
1818
2122
1822
2227
1942
2263
2093
2382
2042
2269
1981
2151
1804
2109
1786
2109
1849
2057
1778
2108
1822
2148
1786
2129
1861
2357
2085
2362
1957
2348
2053
2443
2141
2458
2148
2408
2123
2449
2092
2476
2026
2253
1902
2250
1866
2135
1821
2197
1786
2090
1673
1878
1581
1962
1658
2091
1837
2198
1975
2186
1798
2035
1618
1781
1493
1840
1480
1813
1469
1755
1430
1750
1410
1778
1389
1774
1533
1984
1778
2037
1482
0
0
1484
1387
1698
1433
1844
1501
1869
1554
1924
1733
1975
1717
1970
1642
2006
1637
2029
1602
2055
1651
2014
1787
2107
1982
2231
2018
2319
2009
2267
2109
2298
2106
2288
1899
2235
1846
2120
1848
2077
1849
2090
1759
2037
1795
2117
1787
2091
1832
2026
1924
2189
2005
2332
1981
2369
2027
2393
2045
2318
2101
2327
1928
2239
1881
2084
1864
2006
1692
1914
1682
1877
1618
1754
1531
1906
1513
1768
1394
1618
1562
1936
1751
2069
1878
2069
1636
1821
1515
1659
1459
1623
1356
1530
1289
1529
1256
1450
1156
1518
1139
1482
1305
1682
1576
1794
1201
0
0
1370
1202
1613
1418
1744
1400
1901
1472
1917
1593
1803
1524
1767
1534
1845
1454
1950
1585
1858
1582
1943
1687
2139
2038
2360
2068
2318
1988
2168
1893
2241
1974
2094
1789
2002
1658
2038
1714
1981
1713
2054
1718
2075
1714
2061
1722
1965
1729
2057
1866
2193
1909
2228
1893
2266
1893
2133
1901
2146
1778
2022
1661
1998
1706
1957
1685
1830
1613
1799
1482
1690
1512
1640
1389
1758
1416
1674
1301
1520
1389
1862
1640
2089
1915
2057
1769
1963
1579
1770
1364
1633
1367
1522
1210
1467
1170
1403
1156
1398
1043
1419
1213
1558
1525
1685
1094
0
0
1003
930
1306
1142
1442
1221
1590
1253
1589
1261
1365
1122
1390
1118
1482
1094
1562
1222
1551
1353
1602
1464
1849
1786
2087
1820
2043
1566
1814
1598
1782
1514
1737
1433
1758
1432
1661
1426
1782
1364
1802
1441
1809
1366
1680
1358
1641
1444
1712
1529
1853
1594
1794
1479
1773
1406
1619
1371
1706
1301
1590
1273
1594
1263
1562
1325
1549
1292
1380
1065
1461
1196
1416
1148
1389
1069
1364
1084
1294
1129
1485
1329
1706
1586
1805
1442
1698
1497
1564
1362
1500
1153
1399
1103
1147
882
1230
826
1162
859
1178
1011
1323
1179
1325
718
0
0
1293
1138
1521
1338
1762
1478
1825
1499
1834
1421
1730
1412
1743
1450
1904
1529
1942
1545
1958
1644
2036
1860
2321
2197
2515
2133
2418
1849
2109
1915
2137
1795
2114
1819
2146
1802
2162
1930
2289
2007
2313
2026
2346
1874
2205
1815
2231
1897
2244
1909
2331
1914
2196
1848
2091
1880
2141
1762
2122
1803
2138
1734
2074
1749
2037
1750
2053
1725
1937
1717
1892
1673
1870
1681
1965
1660
1981
1579
1889
1642
1957
1746
2261
2002
2245
1859
2235
1971
2197
1917
2133
1737
2024
1577
1818
1485
1738
1460
1804
1352
1781
1620
1929
1691
1889
1237
0
0
1529
1390
1850
1478
1915
1661
1926
1626
1790
1600
1908
1636
1915
1714
1957
1717
1989
1869
2081
1850
2162
2043
2411
2114
2494
2086
2305
1893
2121
1899
2167
1873
2059
1808
2146
2013
2345
2058
2476
2156
2481
2074
2269
1988
2162
1910
2138
1890
2091
1846
2156
1882
2070
1749
1967
1726
2024
1651
1985
1714
1874
1640
1862
1677
1926
1607
1908
1595
1830
1659
1825
1580
1833
1530
1786
1498
1720
1381
1698
1341
1718
1400
1837
1641
1861
1606
1861
1627
1905
1557
1803
1597
1891
1436
1651
1365
1814
1386
1550
1350
1636
1527
1773
1451
1591
963
0
0
1473
1274
1733
1241
1693
1355
1775
1429
1703
1438
1764
1365
1772
1537
1805
1435
1933
1710
2020
1776
2072
1769
2142
1741
2210
1853
2089
1702
1938
1642
2004
1745
1914
1766
2109
1875
2274
2033
2385
2022
2189
1858
2085
1723
1951
1668
1966
1618
1971
1644
1919
1625
1828
1555
1837
1608
1918
1541
1934
1602
1798
1529
1802
1492
1797
1483
1796
1449
1769
1481
1666
1384
1754
1361
1686
1321
1636
1274
1562
1214
1586
1270
1639
1402
1628
1307
1635
1385
1762
1248
1613
1397
1570
1237
1453
1211
1563
1278
1497
1316
1627
1505
1754
1322
1408
650
0
0
1136
989
1421
1035
1353
1075
1409
1046
1349
1097
1387
1067
1414
1254
1625
1256
1614
1500
1746
1490
1625
1428
1687
1333
1749
1453
1650
1384
1700
1442
1708
1546
1770
1531
1913
1695
2089
1813
2067
1667
1833
1530
1677
1390
1648
1424
1633
1389
1661
1437
1613
1373
1574
1322
1525
1323
1578
1269
1594
1339
1529
1326
1593
1330
1559
1258
1545
1202
1535
1285
1467
1211
1570
1106
1362
1080
1394
1053
1331
1066
1353
1011
1401
1090
1298
1019
1353
1044
1323
973
1266
1047
1290
1044
1117
989
1220
917
1321
1158
1567
1353
1555
1081
1137
502
0
0
1429
1277
1629
1209
1702
1362
1617
1387
1705
1432
1828
1451
1848
1578
1969
1705
2054
1778
2061
1858
2072
1739
2034
1703
2117
1808
2161
1879
2213
1853
2282
2059
2345
2061
2468
2109
2506
2177
2461
1979
2299
1840
2215
1890
2148
1949
2157
1969
2269
1891
2206
1866
2133
1869
2130
1890
2166
1869
2149
1904
2138
1938
2271
1994
2281
2019
2214
1894
2260
1938
2107
1858
2188
1796
2091
1627
2066
1614
1937
1611
1984
1602
1922
1634
1913
1585
1866
1586
1826
1562
1813
1512
1909
1588
1690
1541
1901
1501
1875
1704
2218
1981
2254
1738
1877
1058
0
0
1569
1480
1858
1469
1821
1554
1922
1640
1903
1643
1930
1600
2021
1751
2121
1777
2126
1780
2113
1794
2074
1785
2161
1777
2145
1992
2270
2010
2291
2063
2348
2077
2502
2100
2315
2091
2342
2061
2221
1885
2157
1881
2116
1869
2093
1882
2039
1818
2138
1839
2218
1890
2117
1897
2219
1972
2061
1819
2061
1921
2162
2029
2226
2007
2314
2058
2226
1945
2199
1829
1970
1713
2101
1706
1957
1527
1874
1501
1751
1551
1802
1517
1755
1414
1621
1329
1626
1342
1619
1211
1575
1282
1558
1285
1427
1284
1541
1313
1736
1540
1964
1810
1919
1613
1658
978
0
0
1445
1270
1643
1379
1683
1415
1678
1518
1783
1480
1809
1557
1911
1546
1946
1555
1956
1563
1898
1585
1962
1573
1990
1749
2089
1933
2237
2002
2266
2077
2244
1911
2226
1841
2186
1894
2096
1713
2037
1790
1958
1684
1974
1658
1986
1722
1986
1851
2173
1890
2189
1874
2141
1913
2242
1941
2033
1764
2050
1841
2048
1980
2209
2021
2253
1922
2221
1939
2186
1782
2054
1815
2125
1777
2058
1547
1893
1512
1677
1674
1882
1530
1693
1314
1637
1267
1650
1313
1581
1305
1410
1149
1424
1186
1418
1143
1446
1154
1638
1338
1909
1661
1865
1515
1617
909
0
0
1115
971
1377
1027
1325
1089
1490
1234
1488
1321
1581
1232
1550
1268
1551
1163
1564
1365
1636
1295
1608
1387
1722
1474
1794
1718
2115
1743
2054
1698
1965
1587
1866
1531
1777
1578
1796
1442
1633
1437
1696
1484
1763
1506
1818
1557
1890
1614
1993
1701
2120
1749
1975
1682
1973
1736
1854
1503
1684
1539
1830
1646
1961
1627
1881
1594
1880
1621
1872
1621
1821
1606
1926
1608
1855
1314
1558
1201
1437
1393
1723
1314
1597
1229
1380
1139
1383
1181
1538
1062
1329
954
1217
881
1143
936
1105
1026
1322
1065
1490
1322
1591
1251
1411
704
0
0
1353
1289
1618
1325
1699
1414
1768
1445
1826
1480
1860
1509
1825
1438
1866
1548
1928
1579
1942
1611
1969
1738
2165
2061
2321
2117
2514
2181
2393
2088
2218
1867
2194
1845
2131
1914
2228
1747
2158
1848
2193
1932
2196
2007
2421
2149
2458
2216
2566
2267
2634
2228
2489
2103
2362
2042
2242
1885
2233
1956
2258
2045
2238
1934
2325
1970
2310
2020
2237
1977
2294
2089
2533
2092
2375
1898
2056
1693
1930
1758
2111
1749
2067
1718
2082
1713
2069
1907
2203
1803
2012
1627
1883
1441
1713
1482
1793
1424
1908
1566
1973
1780
1990
1778
1956
1357
0
0
1445
1349
1827
1576
1861
1518
1813
1672
1835
1620
1864
1587
1869
1623
1936
1771
1937
1754
2013
1842
2114
1928
2274
2029
2413
2210
2440
2101
2237
1850
2199
1834
2080
1844
2116
1862
2093
1888
2266
1870
2153
1869
2260
2078
2291
2073
2360
2125
2367
2138
2319
2005
2206
1792
2128
1815
2001
1738
1940
1709
1957
1702
1919
1646
1996
1641
1902
1698
1961
1663
1979
1803
2038
1726
1950
1566
1755
1443
1677
1462
1695
1394
1714
1320
1713
1421
1668
1579
1940
1627
1845
1522
1713
1325
1547
1316
1565
1241
1422
1278
1626
1426
1640
1397
1555
1012
0
0
1387
1205
1674
1332
1685
1450
1725
1420
1746
1410
1733
1486
1786
1588
1802
1722
1874
1738
2005
1808
2124
1871
2221
1885
2301
1984
2283
1901
2143
1791
2075
1674
2056
1755
2078
1733
2069
1821
2110
1858
2116
1910
2254
1963
2248
1934
2288
2042
2315
1928
2122
1774
1996
1640
1941
1731
1866
1604
1818
1502
1778
1498
1755
1461
1837
1586
1750
1474
1816
1557
1896
1591
1825
1509
1678
1435
1633
1314
1598
1330
1562
1282
1534
1238
1644
1309
1605
1393
1750
1477
1757
1462
1718
1394
1558
1231
1433
1221
1394
1207
1550
1327
1512
1245
1398
803
0
0
1061
986
1275
1028
1381
1082
1362
1173
1493
1230
1444
1109
1493
1190
1597
1401
1680
1412
1707
1490
1867
1556
1866
1512
1806
1530
1802
1515
1771
1416
1746
1384
1688
1466
1798
1651
1899
1586
1893
1546
1818
1581
1858
1605
1851
1482
1946
1674
1885
1595
1718
1518
1639
1269
1661
1430
1590
1298
1495
1318
1597
1321
1513
1203
1646
1248
1450
1264
1499
1183
1577
1225
1489
1175
1421
1161
1490
1013
1426
1081
1317
1065
1290
966
1338
1054
1295
1004
1406
1136
1423
1182
1501
1139
1285
1095
1274
999
1210
964
1289
1038
1326
1016
1152
479
0
0
1305
1178
1640
1290
1645
1315
1621
1419
1673
1448
1765
1406
1849
1551
1946
1730
2075
1761
1997
1800
2098
1822
2058
1742
2102
1845
2122
1801
2149
1705
2210
1869
2182
1927
2305
2100
2381
2035
2404
1975
2203
1949
2285
2004
2189
1885
2293
1958
2327
1905
2194
1869
2122
1751
2053
1850
2085
1794
1960
1757
2002
1737
1981
1737
2124
1766
2052
1675
2082
1675
2146
1814
1939
1646
1984
1642
1979
1547
1925
1573
1975
1574
1737
1554
1888
1577
1901
1577
1873
1557
1975
1661
1942
1670
1899
1739
1979
1590
1850
1559
1909
1741
1896
1466
1707
1054
0
0
1641
1530
1794
1517
1828
1594
1892
1598
1874
1658
1947
1673
2073
1911
2194
1865
2116
1922
2146
1897
2111
1902
2117
1805
2125
1826
1989
1717
2085
1813
2105
1893
2279
2021
2462
2114
2363
1994
2203
1928
2183
1876
2109
1865
2014
1853
2092
1828
2117
1772
2027
1680
2024
1693
2004
1709
1970
1629
1947
1582
1910
1578
1882
1810
2014
1702
1931
1618
1905
1613
1917
1559
1842
1514
1818
1574
1812
1554
1605
1432
1619
1419
1589
1309
1606
1386
1609
1327
1602
1317
1573
1373
1623
1314
1674
1398
1698
1359
1642
1512
1818
1639
1717
1395
1466
806
0
0
1719
1490
1754
1452
1677
1509
1840
1492
1861
1522
1916
1555
2030
1807
2141
1738
1986
1706
1941
1657
1995
1665
2005
1676
2067
1769
1918
1704
2050
1865
2136
1898
2236
1991
2389
2004
2243
1820
2046
1775
2156
1778
1969
1762
1972
1713
1994
1757
2082
1721
1991
1573
1945
1681
1921
1706
1915
1565
1911
1522
1885
1558
1997
1858
2146
1770
1900
1644
1979
1738
2122
1676
1915
1646
1910
1533
1677
1411
1578
1342
1643
1328
1590
1282
1576
1292
1520
1214
1531
1285
1532
1307
1457
1207
1510
1204
1641
1271
1649
1548
1964
1585
1732
1341
1373
678
0
0
1369
1291
1563
1207
1486
1222
1603
1225
1508
1256
1477
1188
1614
1318
1630
1298
1572
1259
1573
1381
1602
1418
1722
1323
1707
1426
1705
1382
1765
1633
1862
1626
1978
1643
2032
1641
1758
1506
1754
1427
1746
1429
1661
1390
1640
1425
1645
1365
1754
1391
1625
1331
1613
1332
1654
1358
1646
1341
1617
1283
1663
1435
1766
1700
1970
1723
1870
1563
1822
1497
1833
1501
1754
1458
1773
1333
1501
1177
1389
1162
1437
1181
1474
1028
1303
973
1325
1044
1245
931
1258
1011
1136
900
1213
910
1298
971
1373
1261
1618
1401
1582
1237
1181
523
0
0
1796
1577
1882
1381
1751
1442
1821
1403
1794
1482
1780
1383
1821
1566
1915
1557
1895
1681
1986
1701
2021
1701
2082
1702
2098
1796
2101
1892
2229
2010
2318
2050
2350
1970
2301
1980
2189
1837
2095
1769
2129
1779
2110
1810
2132
1847
2133
1896
2200
1846
2202
1798
2152
1822
2101
1842
2252
1899
2176
1821
2148
1979
2373
2212
2564
2223
2402
2043
2462
2086
2430
2010
2442
2130
2314
1896
2145
1786
2059
1780
2150
1797
2039
1698
1874
1592
1877
1512
1901
1501
1830
1530
1759
1397
1772
1411
1801
1489
1877
1771
2235
1970
2107
1738
1850
1157
0
0
1944
1815
2125
1797
1970
1589
1882
1691
1906
1594
1971
1578
1863
1637
2073
1781
2023
1810
2117
1789
2153
1877
2162
1871
2214
2042
2284
2086
2245
2059
2460
2114
2293
1976
2184
1892
2129
1899
2226
1901
2123
1801
2077
1810
2081
1798
2110
1897
2270
1917
2138
1946
2192
1931
2178
1977
2210
1946
2223
1870
2059
1906
2276
2127
2460
2057
2202
1958
2237
1942
2229
1932
2148
1962
2169
1794
1911
1626
1840
1645
2030
1709
1818
1594
1691
1387
1671
1490
1641
1418
1583
1437
1512
1402
1525
1234
1591
1339
1698
1595
1957
1742
1956
1530
1669
1157
0
0
1768
1681
1810
1578
1795
1429
1777
1467
1717
1419
1739
1469
1802
1572
1896
1621
1881
1615
1987
1742
1970
1741
2106
1770
2099
1937
2176
1909
2142
1890
2197
1778
2091
1703
2011
1715
2017
1717
2121
1817
1971
1682
2010
1672
1967
1634
1992
1773
2231
1861
2084
1894
2218
1865
2135
1922
2125
1837
2098
1732
1974
1730
2102
1907
2285
1897
1928
1732
1994
1678
1901
1718
1997
1725
1984
1562
1644
1389
1690
1362
1818
1451
1624
1418
1626
1306
1609
1417
1550
1284
1521
1345
1447
1305
1450
1128
1460
1211
1457
1431
1860
1618
1798
1353
1529
1018
0
0
1322
1225
1465
1131
1430
1034
1491
1201
1391
1126
1413
1156
1487
1322
1701
1492
1678
1378
1780
1466
1613
1421
1766
1493
1796
1602
1837
1538
1796
1593
1753
1467
1672
1466
1741
1418
1709
1450
1722
1459
1696
1490
1689
1434
1737
1434
1876
1659
2082
1710
2026
1718
1982
1557
1890
1662
1832
1576
1742
1325
1599
1350
1713
1593
1925
1429
1584
1315
1446
1207
1550
1259
1498
1290
1487
1198
1422
1085
1342
1067
1428
1173
1298
1070
1327
1010
1313
1222
1335
1104
1290
1189
1320
1093
1140
915
1253
960
1242
1147
1540
1271
1384
1061
1060
680
0
0
1521
1357
1682
1419
1736
1418
1805
1483
1768
1462
1834
1453
1821
1629
2082
1821
2165
1898
2164
1860
2098
1759
2146
1866
2130
1936
2114
1851
2155
1857
2161
1830
2091
1870
2165
1862
2054
1794
2222
1829
2260
1883
2243
1954
2268
1992
2523
2230
2658
2341
2470
2096
2365
2010
2285
1994
2267
1937
2141
1777
2003
1774
2206
1899
2278
1821
2062
1764
1901
1659
2010
1698
1902
1677
1999
1762
1926
1673
1892
1593
1971
1638
1851
1605
1925
1565
1825
1670
1972
1674
1994
1831
2022
1712
1936
1476
1825
1506
1744
1609
2013
1755
2059
1495
1666
1182
0
0
1727
1637
1992
1620
1821
1677
1988
1802
2061
1717
1979
1668
2004
1715
2048
1882
2267
2061
2329
2037
2203
1986
2289
1890
2138
1879
2222
1928
2139
1914
2121
1933
2121
1890
2164
1897
2118
1917
2244
2010
2312
2090
2321
2090
2408
2056
2418
2241
2505
2185
2306
1997
2052
1733
1933
1832
2010
1674
1973
1654
1859
1643
1861
1728
2020
1643
1881
1528
1855
1526
1782
1495
1709
1517
1760
1495
1744
1558
1645
1451
1721
1453
1645
1370
1629
1347
1620
1466
1704
1386
1795
1593
1868
1565
1732
1364
1573
1323
1546
1314
1722
1453
1714
1256
1418
964
0
0
1629
1454
1809
1549
1833
1633
2000
1569
1928
1473
1770
1473
1821
1477
1853
1626
1972
1717
2092
1754
1997
1818
1977
1668
2031
1717
2010
1766
1959
1883
2066
1768
2027
1722
2077
1864
2047
1836
2219
1978
2357
2029
2221
1973
2228
1946
2212
2007
2309
1939
2084
1683
1866
1570
1861
1636
1822
1508
1851
1477
1764
1544
1815
1522
1915
1546
1722
1377
1653
1418
1693
1469
1661
1370
1677
1402
1695
1437
1585
1259
1531
1301
1514
1298
1512
1236
1513
1278
1563
1202
1606
1387
1634
1345
1463
1291
1483
1293
1549
1207
1555
1232
1573
1134
1238
769
0
0
1301
1290
1666
1373
1663
1522
1749
1434
1529
1253
1520
1192
1492
1205
1485
1364
1645
1456
1814
1499
1654
1454
1717
1388
1741
1396
1769
1586
1837
1578
1765
1543
1821
1602
1893
1767
1969
1762
2000
1749
2063
1749
1909
1603
1874
1547
1847
1605
1954
1617
1743
1423
1581
1267
1562
1331
1646
1274
1578
1303
1457
1294
1478
1336
1627
1192
1430
1182
1435
1147
1413
1210
1526
1290
1586
1330
1450
1211
1381
1106
1313
1101
1245
1051
1333
969
1239
1093
1261
987
1388
1073
1282
992
1166
1001
1246
1019
1283
1093
1257
930
1243
833
1074
597
0
0
1722
1563
2135
1729
1917
1643
1877
1533
1860
1472
1744
1474
1837
1437
1802
1616
2021
1806
2065
1818
2089
1764
2101
1755
2103
1834
2221
2070
2354
2148
2394
1981
2414
2110
2505
2247
2504
2152
2405
2095
2295
1974
2306
1985
2282
1954
2190
1962
2287
1869
2141
1802
2116
1710
2057
1812
2198
1805
2186
1802
2013
1778
2064
1943
2205
1786
2071
1702
2020
1787
2053
1773
2157
1850
2178
1894
2170
1865
2013
1741
1993
1749
1981
1641
1965
1643
1958
1671
1894
1602
1979
1574
1917
1499
1776
1533
1836
1594
1842
1621
1898
1559
1837
1396
1613
1076
0
0
1875
1826
2301
1942
2169
1834
2010
1706
1909
1620
1958
1652
1963
1630
1995
1809
2122
1794
2103
1829
2045
1873
2099
1853
2226
1968
2448
2231
2605
2329
2491
2181
2354
2203
2481
2099
2343
2042
2259
1844
2122
1959
2178
1787
2162
1838
2080
1754
2084
1829
2098
1762
2088
1646
1947
1662
2005
1736
1967
1723
2018
1717
2084
1882
2165
1717
1897
1726
2038
1764
1918
1557
1877
1738
1981
1685
1941
1554
1825
1577
1810
1533
1785
1485
1637
1501
1684
1465
1646
1337
1637
1366
1560
1357
1521
1341
1613
1132
1642
1262
1636
1303
1494
1042
1364
882
0
0
1589
1565
2015
1709
1936
1618
1853
1505
1785
1543
1824
1443
1870
1610
1917
1701
1958
1584
1974
1542
1917
1713
1956
1650
2062
1875
2373
2202
2578
2234
2449
2101
2155
1893
2263
1786
2068
1757
2037
1700
1978
1661
2089
1711
2064
1691
1994
1669
1924
1604
2006
1678
2026
1537
1893
1590
1918
1571
1865
1764
1931
1759
2109
1889
2154
1609
1878
1637
1938
1653
1750
1357
1797
1486
1769
1497
1770
1434
1637
1428
1703
1418
1722
1382
1667
1525
1751
1356
1647
1275
1547
1201
1458
1109
1365
1136
1445
1041
1424
1126
1461
1202
1381
949
1212
712
0
0
1206
1181
1565
1241
1561
1255
1450
1246
1509
1214
1586
1241
1674
1374
1647
1300
1701
1317
1593
1310
1606
1397
1666
1419
1866
1573
2141
1957
2244
1908
2029
1634
1817
1418
1850
1378
1721
1421
1751
1399
1743
1431
1825
1411
1701
1424
1694
1321
1610
1437
1815
1522
1865
1434
1707
1485
1757
1405
1726
1490
1817
1637
2006
1797
2039
1469
1629
1389
1565
1242
1449
1141
1434
1194
1479
1181
1419
1117
1233
1060
1394
1053
1456
1205
1366
1252
1541
1234
1445
1097
1322
1042
1271
919
1154
990
1224
797
1202
812
1169
1015
1129
733
980
503
0
0
1413
1302
1745
1445
1817
1463
1774
1496
1850
1541
2005
1629
1994
1704
1877
1530
1993
1568
1918
1621
2002
1725
2086
1801
2213
1946
2456
2248
2598
2186
2313
1977
2128
1897
2165
1796
2082
1805
2139
1821
2146
1846
2188
1863
2253
1893
2255
1933
2224
1941
2389
2242
2558
2042
2421
2006
2318
1973
2206
2021
2313
2138
2516
2186
2500
2058
2261
1917
2159
1809
1946
1645
1921
1707
2001
1726
1931
1574
1909
1623
1919
1593
1966
1637
1886
1714
2005
1729
1985
1629
2029
1586
1844
1528
1677
1505
1751
1365
1742
1378
1752
1522
1806
1315
1610
1097
0
0
1552
1442
1750
1644
1973
1650
1968
1707
2092
1866
2281
1819
2154
1926
2092
1750
1994
1746
1932
1738
2178
1898
2248
1997
2301
2054
2554
2333
2468
2125
2346
1945
2187
1902
2070
1797
2077
1878
2136
1796
2193
1899
2205
1957
2297
2095
2169
1915
2235
2000
2431
2096
2351
1988
2167
1837
2122
1782
2079
1715
2022
1790
2101
1894
2283
1973
2229
1784
1951
1687
1862
1532
1766
1583
1741
1445
1628
1395
1629
1461
1645
1411
1676
1389
1707
1380
1730
1459
1666
1426
1714
1426
1608
1265
1446
1190
1474
1162
1442
1192
1531
1193
1477
1151
1410
770
0
0
1462
1352
1692
1531
1902
1588
1973
1769
2040
1759
2143
1762
1986
1709
1926
1551
1838
1527
1891
1594
2027
1709
2126
1850
2135
1840
2349
2109
2318
1947
2186
1742
2027
1743
1988
1585
1917
1707
2061
1691
2122
1826
2269
1942
2331
1981
2142
1814
2263
1925
2259
1966
2237
1906
2006
1650
1984
1610
1948
1615
1853
1594
1922
1598
2174
1794
2005
1728
1949
1629
1767
1409
1689
1445
1640
1405
1597
1320
1597
1331
1653
1342
1614
1302
1570
1250
1555
1321
1509
1268
1611
1336
1501
1104
1382
1138
1425
1072
1445
1059
1409
1058
1338
1042
1265
760
0
0
1130
1094
1475
1348
1655
1434
1836
1495
1797
1514
1878
1398
1638
1408
1539
1312
1525
1361
1630
1443
1718
1498
1801
1563
1825
1555
1850
1659
1985
1556
1853
1546
1783
1497
1721
1477
1647
1460
1746
1537
1890
1786
2013
1730
1992
1722
1798
1491
1918
1613
1871
1645
1836
1474
1668
1421
1633
1277
1573
1294
1523
1274
1517
1237
1745
1327
1721
1385
1633
1354
1545
1211
1414
1243
1422
1188
1364
1106
1285
958
1346
1101
1362
1084
1312
993
1302
1085
1209
948
1275
1075
1229
937
1218
929
1158
891
1238
945
1117
829
1161
790
999
481
0
0
1477
1419
1826
1650
2069
1648
2106
1723
1959
1680
2025
1622
1855
1666
1824
1647
2021
1621
2035
1722
2033
1651
2118
1834
2107
1757
2258
1998
2222
1850
2250
1903
2157
1869
2283
1915
2187
1866
2203
1914
2350
2059
2430
2071
2418
2022
2115
1906
2180
1924
2153
1878
2152
1741
2005
1700
2123
1765
1954
1702
2035
1653
1940
1654
2045
1692
2006
1717
1977
1700
1965
1723
2006
1728
1979
1734
2005
1621
1967
1606
1949
1678
1989
1627
1834
1545
1845
1481
1874
1480
1774
1498
1771
1322
1742
1449
1669
1379
1685
1406
1733
1301
1632
1301
1570
997
0
0
1847
1809
2298
1985
2149
1961
2251
1892
2158
1802
2018
1814
2025
1847
2076
1821
2109
1850
2160
1893
2061
1834
2146
1884
2085
1858
2218
2085
2357
2026
2255
1940
2237
2018
2295
2066
2295
1979
2234
2053
2434
2062
2354
2058
2169
1873
2011
1815
2034
1682
2041
1725
1988
1643
1911
1661
1883
1627
1805
1605
1819
1610
1811
1549
1957
1570
1768
1620
1835
1563
1793
1514
1757
1563
1865
1490
1797
1613
1812
1573
1963
1693
1894
1649
1670
1510
1605
1392
1719
1365
1590
1254
1506
1251
1551
1330
1498
1365
1609
1191
1467
1227
1400
1077
1338
934
0
0
1804
1685
2096
1703
1877
1642
1938
1612
1869
1546
1914
1602
1933
1707
1948
1695
1947
1654
1983
1640
1835
1668
1909
1618
1913
1681
2109
1841
2289
1945
2132
1871
2209
1945
2161
1933
2083
1813
2014
1806
2043
1814
2066
1736
1942
1682
1904
1574
1864
1619
1841
1594
1911
1531
1806
1495
1714
1477
1654
1402
1697
1510
1782
1403
1766
1489
1655
1409
1673
1367
1620
1335
1642
1303
1710
1325
1650
1366
1718
1435
1906
1588
1815
1573
1693
1431
1544
1248
1547
1293
1523
1211
1451
1131
1483
1131
1435
1259
1514
1078
1394
1154
1373
1049
1236
609
0
0
1341
1320
1577
1291
1474
1189
1509
1187
1626
1224
1572
1301
1638
1365
1589
1409
1602
1306
1590
1288
1510
1274
1613
1323
1662
1445
1819
1595
1988
1718
1947
1723
1913
1601
1657
1433
1659
1404
1598
1360
1717
1367
1559
1379
1669
1301
1579
1352
1600
1200
1646
1257
1544
1329
1522
1227
1477
1198
1397
1143
1454
1267
1430
1194
1518
1190
1435
1181
1402
1156
1453
1142
1331
1019
1354
1068
1426
1162
1336
1136
1517
1220
1555
1319
1457
1210
1359
1149
1337
1080
1378
924
1179
895
1198
968
1115
958
1218
899
1253
997
1235
925
960
549
0
0
1493
1393
1778
1417
1682
1392
1771
1425
1853
1547
1905
1578
1924
1616
1879
1707
1925
1611
1890
1645
1914
1666
2050
1714
2107
1854
2231
2011
2406
2074
2349
1958
2309
1896
2116
1726
1981
1782
2061
1780
2068
1707
2055
1805
2101
1760
2038
1774
2114
1810
2120
1778
2130
1759
2082
1689
2055
1766
2051
1749
2090
1757
2021
1781
2099
1691
2057
1753
1917
1608
1949
1659
1908
1531
1911
1573
1881
1591
1796
1617
2025
1600
2050
1749
1990
1789
1948
1714
1946
1573
1870
1492
1711
1365
1702
1354
1652
1467
1786
1469
1862
1609
1878
1586
1716
1008
0
0
1661
1545
1910
1675
1878
1611
2029
1766
2026
1957
2057
1877
2067
1813
2066
1732
2076
1810
2046
1806
2082
1811
2181
1862
2194
2004
2302
2063
2519
2148
2293
1839
2184
1845
2124
1834
2050
1842
2071
1789
2017
1819
1950
1730
2005
1757
2007
1794
2194
1899
2205
1870
2023
1758
1991
1734
2004
1806
1956
1766
2061
1700
2093
1797
2060
1682
2036
1620
1900
1565
1843
1607
1741
1431
1674
1454
1587
1305
1668
1413
1693
1431
1686
1398
1790
1557
1741
1469
1777
1522
1684
1450
1539
1223
1514
1210
1521
1163
1457
1274
1613
1499
1840
1476
1634
898
0
0
1421
1313
1681
1458
1753
1440
1762
1466
1850
1673
1942
1673
1785
1485
1830
1524
1833
1551
1826
1565
1851
1611
2068
1736
2042
1713
2186
1856
2180
1783
1867
1561
1989
1582
1879
1597
1849
1624
1869
1547
1770
1591
1824
1605
1868
1636
1929
1691
2100
1801
2031
1806
1951
1646
1936
1693
1878
1611
1860
1547
1877
1570
1876
1524
1867
1499
1962
1561
1882
1501
1742
1515
1691
1339
1508
1258
1474
1193
1449
1235
1524
1178
1467
1188
1463
1299
1483
1293
1581
1359
1529
1312
1497
1192
1389
1030
1335
983
1267
1095
1520
1374
1732
1352
1433
685
0
0
1127
1077
1447
1300
1561
1245
1534
1246
1490
1388
1558
1354
1542
1303
1477
1210
1534
1290
1498
1339
1625
1433
1853
1476
1795
1461
1767
1526
1842
1474
1659
1334
1587
1288
1513
1337
1610
1282
1578
1269
1579
1302
1581
1412
1675
1491
1754
1580
1950
1587
1870
1577
1661
1466
1701
1416
1570
1306
1447
1322
1579
1242
1576
1249
1495
1174
1684
1250
1553
1275
1466
1315
1506
1144
1367
1160
1326
1035
1229
1013
1269
1028
1224
957
1227
964
1171
989
1284
1154
1331
1175
1238
914
1129
912
1034
813
1033
889
1272
1141
1505
1156
1382
603
0
0
1419
1314
1777
1577
1858
1545
1854
1533
1779
1617
1809
1618
1762
1468
1824
1521
1925
1638
1957
1689
2058
1740
2221
1839
2099
1809
2110
1811
2154
1818
2161
1674
2059
1642
2057
1725
2021
1698
2045
1805
2054
1861
2075
1837
2098
1828
2199
1972
2364
1963
2243
1914
2121
1837
2082
1839
2054
1652
1914
1711
1999
1627
2011
1546
1997
1674
1987
1659
2050
1700
1965
1794
2037
1781
2017
1794
2021
1730
1911
1673
1919
1621
1852
1442
1858
1521
1767
1482
1845
1615
1851
1694
1915
1530
1834
1446
1762
1445
1621
1389
1748
1726
2011
1701
1897
1109
0
0
1685
1657
1970
1713
1980
1653
1960
1659
1941
1717
1890
1599
1961
1698
1996
1776
2119
1888
2170
1821
2084
1854
2188
1845
2101
1754
2042
1794
2086
1897
2237
1806
2122
1674
1961
1796
2034
1806
2122
1821
2061
1801
2028
1717
1950
1758
2018
1745
2052
1781
1944
1639
1829
1609
1789
1659
1818
1565
1820
1421
1804
1519
1795
1450
1813
1490
1867
1594
1745
1404
1794
1589
1780
1595
1929
1660
2010
1609
1787
1568
1794
1513
1661
1454
1535
1337
1594
1326
1559
1252
1533
1272
1604
1402
1581
1251
1461
1246
1462
1201
1444
1347
1587
1393
1629
978
0
0
1551
1325
1757
1389
1716
1379
1714
1385
1750
1366
1746
1450
1781
1517
1901
1605
2037
1774
2000
1614
1846
1606
1898
1546
1832
1541
1772
1590
1908
1707
2026
1589
1885
1520
1819
1531
1846
1700
2007
1636
1819
1521
1803
1522
1733
1451
1722
1405
1747
1468
1636
1401
1662
1416
1603
1475
1592
1418
1629
1216
1607
1331
1624
1243
1546
1235
1626
1293
1541
1205
1534
1342
1601
1403
1743
1413
1751
1575
1734
1499
1735
1469
1622
1301
1461
1173
1418
1147
1359
1158
1354
1057
1334
1227
1422
1170
1322
1033
1254
973
1224
1161
1382
1129
1255
759
0
0
1138
989
1346
1154
1352
1021
1360
1111
1426
1115
1430
1189
1570
1396
1735
1413
1853
1537
1633
1306
1531
1269
1536
1236
1588
1237
1493
1363
1571
1439
1730
1343
1717
1370
1531
1312
1583
1358
1665
1302
1528
1258
1402
1184
1472
1145
1466
1146
1430
1155
1400
1077
1333
1133
1272
1107
1354
1130
1374
982
1330
991
1364
969
1363
1078
1335
1045
1360
996
1290
1082
1234
1040
1364
1083
1458
1173
1491
1218
1531
1334
1610
1269
1348
989
1168
941
1053
819
1125
859
1119
778
1136
978
1200
902
1161
827
1014
803
1006
795
1061
550
0
0
1300
1170
1490
1229
1555
1170
1650
1343
1677
1411
1790
1482
1877
1654
2066
1838
2098
1717
1972
1618
1873
1517
1908
1561
1926
1596
1990
1754
2041
1770
2213
1820
2173
1762
1964
1701
1992
1688
2022
1642
1865
1629
1869
1617
1839
1653
1903
1602
1904
1563
1789
1538
1926
1541
1845
1610
1813
1528
1844
1419
1842
1515
1854
1509
1825
1533
1786
1464
1859
1490
1778
1542
1826
1523
1957
1542
1898
1575
1930
1609
2011
1737
2052
1805
1997
1645
1858
1493
1647
1416
1617
1313
1614
1408
1629
1430
1671
1466
1807
1418
1638
1403
1578
1187
1552
1040
0
0
1346
1227
1597
1335
1625
1323
1745
1506
1810
1533
1947
1790
2032
1747
2101
1736
2106
1733
1924
1635
1869
1539
1812
1554
1928
1687
2017
1833
2110
1813
2106
1926
2114
1732
1979
1614
1853
1531
1927
1569
1768
1547
1775
1487
1842
1507
1707
1507
1745
1424
1741
1509
1670
1454
1732
1526
1765
1385
1635
1339
1707
1434
1698
1391
1582
1336
1657
1391
1654
1381
1643
1331
1512
1221
1562
1330
1566
1240
1494
1366
1626
1515
1821
1562
1802
1477
1684
1280
1533
1354
1410
1160
1404
1114
1266
1060
1412
1182
1514
1263
1449
1172
1385
1018
1181
632
0
0
1045
970
1286
1066
1395
1173
1601
1221
1626
1330
1738
1467
1774
1384
1753
1403
1652
1338
1595
1384
1682
1312
1606
1370
1645
1490
1911
1666
1933
1593
1976
1613
1995
1494
1670
1397
1584
1285
1706
1341
1522
1285
1573
1231
1661
1304
1590
1266
1557
1217
1626
1366
1689
1361
1633
1373
1638
1219
1565
1230
1626
1268
1533
1165
1469
1196
1543
1243
1482
1274
1528
1224
1379
1065
1362
1097
1386
1038
1301
1041
1434
1188
1579
1224
1546
1179
1432
1162
1392
1149
1226
867
1261
954
1123
899
1245
883
1365
1133
1358
1001
1253
875
978
501
0
0
610
517
788
597
881
674
1114
763
1167
909
1149
795
1147
868
1170
851
1135
736
1170
857
1197
818
1111
921
1301
1042
1395
1160
1488
1178
1445
1093
1445
937
1202
900
1194
817
1332
926
1098
917
1149
859
1114
826
1073
808
1220
906
1154
964
1314
1080
1334
1047
1272
899
1210
816
1226
951
1129
902
1076
842
1067
829
1066
883
1170
805
1000
722
967
723
923
590
795
522
877
614
978
752
1025
735
982
642
969
695
875
470
820
522
708
505
821
434
906
756
877
674
885
434
619
114
0
0
0
0
0
0
0
0
0
0
0
0
0
0
0
0
0
0
0
0
0
0
0
0
0
0
0
0
0
0
0
0
0
0
0
0
0
0
0
0
0
0
0
0
0
0
0
0
0
0
0
0
0
0
0
0
0
0
0
0
0
0
0
0
0
0
0
0
0
0
0
0
0
0
0
0
0
0
0
0
0
0
0
0
0
0
0
0
0
0
0
0
0
0
0
0
0
0
0
0
0
0
0
0
0
0
0
0
0
