P2
108 88
4095
0
0
0
0
0
0
0
0
0
0
0
0
0
0
0
0
0
0
0
0
0
0
0
0
0
0
0
0
0
0
0
0
0
0
0
0
0
0
0
0
0
0
0
0
0
0
0
0
0
0
0
0
0
0
0
0
0
0
0
0
0
0
0
0
0
0
0
0
0
0
0
0
0
0
0
0
0
0
0
0
0
0
0
0
0
0
0
0
0
0
0
0
0
0
0
0
0
0
0
0
0
0
0
0
0
0
0
0
0
1576
1544
1936
1626
2026
1710
2042
1751
2087
1805
1970
1685
2077
1831
2080
1765
2068
1751
1962
1658
1843
1616
1845
1425
1589
1374
1608
1410
1747
1386
1685
1268
1626
1200
1569
1277
1544
1256
1657
1341
1783
1505
1755
1483
1778
1525
1709
1429
1597
1201
1521
1224
1551
1154
1538
1293
1495
1257
1618
1302
1618
1284
1517
1197
1565
1220
1495
1198
1492
1194
1410
1117
1297
1021
1270
1028
1282
1038
1558
1316
1591
1218
1514
1061
1296
973
1210
1018
1261
875
1182
909
1170
914
1218
823
1085
744
1129
695
955
682
875
623
789
369
0
0
1465
1574
1905
1578
2042
1639
2008
1749
1977
1749
1957
1637
1950
1679
2068
1742
1959
1681
1906
1563
1801
1467
1742
1258
1482
1205
1509
1225
1542
1247
1494
1126
1469
1096
1546
1197
1445
1264
1519
1341
1681
1410
1579
1294
1530
1380
1613
1381
1560
1105
1439
1141
1409
1132
1400
1232
1495
1253
1546
1157
1460
1098
1383
1093
1385
1077
1314
1073
1399
1039
1291
1021
1221
939
1213
936
1171
1021
1477
1259
1533
1163
1340
866
1165
904
1045
874
1074
837
1125
800
1099
805
1029
787
1060
674
1098
763
954
600
849
514
686
341
0
0
1794
1807
2268
1917
2352
2026
2394
2059
2444
2160
2358
2038
2404
2065
2378
2077
2400
2056
2299
1913
2148
1815
2107
1672
1892
1594
1867
1642
1941
1755
2013
1565
1945
1611
2091
1724
1974
1735
2025
1790
2068
1695
1938
1661
2046
1877
2157
1826
2037
1648
1993
1707
2068
1643
2059
1778
1969
1747
2054
1585
1942
1563
1909
1526
1951
1525
1832
1570
1929
1576
1922
1590
1900
1593
1846
1554
1775
1514
1958
1677
1950
1580
1850
1475
1810
1464
1629
1446
1692
1378
1756
1285
1571
1391
1709
1401
1704
1322
1731
1378
1658
1205
1562
1189
1430
996
0
0
2219
2251
2662
2454
2802
2457
2819
2497
2762
2498
2692
2412
2733
2410
2625
2390
2570
2216
2378
2067
2331
2011
2227
1970
1980
1833
2049
1906
2190
1871
2126
1694
2036
1758
2186
2042
2203
1837
2139
1819
2148
1817
2061
1779
2184
1978
2244
1900
2155
1851
2129
1737
2019
1785
2025
1882
2054
1654
1915
1634
1829
1525
1761
1520
1805
1525
1866
1581
1895
1671
1915
1705
1934
1702
1745
1459
1751
1393
1657
1514
1735
1508
1736
1362
1637
1306
1508
1303
1576
1222
1601
1233
1661
1345
1749
1472
1685
1328
1782
1301
1599
1210
1529
1214
1338
853
0
0
2043
2068
2491
2226
2662
2250
2782
2360
2585
2332
2594
2336
2602
2150
2454
2098
2338
1978
2146
1785
2075
1663
1975
1731
1860
1649
1947
1877
2134
1842
2043
1610
1987
1826
2030
1690
2005
1661
1908
1586
1954
1623
1940
1673
2155
1943
2294
1819
2210
1784
2082
1722
1963
1650
1901
1593
1883
1390
1693
1466
1738
1397
1685
1409
1835
1512
1820
1565
1982
1611
1961
1698
1906
1514
1674
1338
1611
1197
1531
1286
1536
1259
1546
1250
1572
1232
1512
1216
1512
1108
1480
1113
1498
1361
1780
1509
1674
1398
1701
1258
1630
1238
1478
1180
1348
797
0
0
1805
1787
2101
1947
2252
1929
2352
1973
2253
2066
2236
1874
2240
1850
2034
1732
1890
1524
1713
1372
1629
1377
1659
1341
1565
1384
1749
1524
1890
1572
1807
1348
1758
1326
1739
1418
1606
1293
1626
1220
1589
1251
1617
1391
1918
1736
2088
1683
2052
1601
1923
1490
1608
1170
1514
1253
1477
1073
1421
1253
1401
1109
1339
1136
1549
1310
1659
1453
1762
1527
1714
1448
1546
1188
1399
986
1298
1038
1103
946
1325
1032
1228
1013
1268
981
1197
1125
1354
936
1265
968
1298
1213
1521
1312
1563
1192
1559
1030
1450
1098
1378
1074
1073
562
0
0
2025
1942
2373
2121
2577
2155
2634
2195
2519
2321
2509
2170
2584
2101
2343
2021
2198
1786
2043
1658
1974
1719
2000
1695
1981
1829
2254
2058
2362
2109
2357
1813
2132
1802
2129
1762
1973
1623
2093
1689
2045
1704
2054
1947
2437
2269
2598
2219
2499
2256
2390
1913
2061
1638
1882
1729
2010
1634
1898
1746
1994
1624
1935
1661
2091
1964
2238
1913
2319
1940
2197
1837
2058
1701
1829
1578
1878
1527
1748
1579
1925
1674
2054
1739
2107
1624
1995
1749
2058
1637
1995
1584
2024
1722
2190
1984
2201
1803
2165
1732
2133
1716
1990
1613
1691
1103
0
0
2206
2239
2685
2472
2746
2518
2840
2450
2862
2517
2764
2417
2636
2335
2565
2128
2373
1989
2189
1768
2021
1922
2197
1732
2166
1903
2328
2085
2426
2146
2418
2017
2192
1865
2027
1766
2109
1834
2021
1796
2058
1849
2248
2024
2453
2282
2701
2390
2489
2117
2181
1752
1936
1684
1914
1677
1969
1698
1907
1621
1923
1652
1896
1650
2117
1780
2068
1739
2095
1695
2025
1618
1825
1482
1677
1493
1653
1405
1654
1411
1977
1655
1968
1737
1955
1607
1950
1672
1861
1560
1729
1508
1773
1616
1958
1698
1996
1614
1845
1544
1770
1518
1610
1349
1533
986
0
0
2064
1997
2500
2198
2615
2313
2673
2225
2550
2292
2490
2147
2487
2205
2437
1970
2192
1778
2029
1622
1917
1762
2063
1663
2085
1746
2121
1829
2189
1910
2173
1762
2024
1573
1874
1465
1924
1570
1909
1562
1877
1576
2105
1846
2342
2216
2497
2203
2232
1800
1868
1545
1834
1497
1742
1503
1860
1602
1851
1522
1911
1585
1751
1465
1908
1651
1908
1442
1842
1413
1719
1429
1540
1287
1521
1339
1520
1301
1618
1416
1909
1637
1969
1625
1793
1432
1730
1426
1550
1405
1509
1256
1526
1339
1755
1414
1828
1514
1507
1222
1562
1195
1355
1027
1258
757
0
0
1821
1777
2214
1949
2296
2087
2371
2042
2363
2020
2185
1889
2068
1841
2029
1687
1910
1537
1778
1418
1731
1581
1874
1498
1821
1543
1762
1410
1737
1530
1768
1524
1739
1419
1553
1294
1594
1388
1618
1448
1716
1418
1909
1705
2071
1923
2211
1890
2009
1626
1644
1314
1506
1330
1645
1377
1788
1554
1721
1380
1709
1367
1554
1206
1527
1293
1540
1203
1475
1128
1493
1145
1321
1089
1360
1209
1438
1218
1554
1316
1746
1441
1748
1357
1493
1124
1360
1077
1332
1062
1198
925
1257
1037
1427
1206
1458
1133
1209
882
1160
828
1034
677
989
414
0
0
2053
2011
2430
2131
2582
2243
2635
2226
2661
2245
2548
2168
2417
2066
2420
1988
2230
1899
2154
1769
2161
1953
2344
1819
2188
1781
2071
1700
2091
1835
2230
1842
2150
1729
2014
1737
2058
1887
2266
1974
2262
1921
2361
2021
2489
2321
2638
2309
2413
2000
2156
1786
2134
1807
2254
1867
2289
2014
2180
1776
2175
1828
2062
1673
2134
1686
2066
1714
2018
1638
1993
1675
1933
1730
2030
1753
2055
1833
2049
1771
2221
1963
2294
1805
2010
1598
1872
1561
1796
1547
1804
1539
1818
1550
1858
1525
1916
1634
1706
1369
1637
1309
1659
1213
1541
1045
0
0
2221
2260
2757
2388
2709
2446
2749
2356
2661
2354
2668
2324
2578
2334
2507
2088
2341
2009
2354
2000
2092
1974
2322
1978
2072
1808
2122
1864
2132
1966
2245
1914
2128
1877
2108
1834
2140
1953
2274
2036
2284
2038
2229
1844
2220
2133
2538
2221
2427
1878
2017
1723
2004
1861
2100
1914
2203
1840
2061
1688
1944
1637
1904
1560
1928
1586
1818
1594
1874
1506
1747
1569
1936
1651
2012
1701
2004
1572
1758
1523
1836
1645
2048
1506
1787
1378
1589
1369
1595
1311
1585
1346
1560
1194
1644
1205
1554
1266
1412
1137
1409
1154
1395
1104
1108
761
0
0
2118
2098
2554
2269
2583
2294
2597
2242
2558
2181
2542
2215
2421
2172
2390
2005
2220
1914
2114
1709
1942
1769
2114
1769
1962
1661
1949
1673
1958
1691
2027
1725
2046
1844
2122
1801
2084
1905
2285
1909
2116
1846
2036
1627
2052
1982
2351
1947
2234
1642
1858
1557
1869
1673
2041
1705
2013
1627
1838
1514
1773
1513
1770
1460
1794
1540
1827
1503
1701
1313
1672
1396
1926
1706
1930
1566
1768
1338
1597
1352
1638
1482
1732
1351
1630
1225
1482
1222
1524
1211
1554
1213
1321
1192
1467
1123
1480
1177
1384
1049
1311
1109
1262
935
1074
597
0
0
1905
1874
2317
1995
2314
1985
2231
1924
2261
1923
2238
1984
2171
1869
2105
1604
1818
1548
1757
1467
1594
1337
1664
1451
1668
1339
1640
1469
1624
1462
1742
1507
1823
1726
2069
1732
1970
1654
1938
1530
1776
1433
1732
1367
1817
1638
1954
1562
1910
1412
1662
1355
1528
1354
1549
1330
1698
1285
1605
1289
1453
1261
1523
1352
1554
1327
1598
1301
1522
1142
1441
1237
1611
1226
1674
1321
1458
1116
1382
1062
1313
1129
1514
998
1300
1074
1185
1050
1250
942
1214
935
1194
977
1272
917
1341
1051
1245
946
1181
860
1158
799
966
474
0
0
2048
1938
2470
2146
2472
2086
2473
2094
2440
2094
2486
2054
2292
1871
2089
1611
1918
1610
2007
1687
1903
1662
1962
1674
1997
1712
2089
1874
2070
1899
2222
1966
2324
2128
2449
2109
2338
2003
2188
1765
2090
1866
2095
1862
2195
2021
2318
1912
2237
1814
2094
1731
2053
1811
2037
1746
2104
1819
2065
1733
2100
1847
2174
1776
2159
1813
2197
1803
2066
1636
1962
1680
2087
1709
2094
1746
1971
1621
1849
1492
1882
1610
1964
1492
1901
1517
1778
1611
1924
1492
1844
1478
1814
1460
1902
1529
1876
1723
1947
1641
1932
1466
1773
1400
1591
1068
0
0
2275
2291
2694
2414
2585
2353
2654
2405
2645
2261
2523
2246
2354
1874
2161
1805
1950
1685
1970
1834
2100
1711
2060
1796
2161
1890
2150
1979
2269
1995
2288
2029
2266
2174
2408
2138
2332
1910
2058
1745
2162
1806
2052
1800
2242
1967
2250
1853
2089
1822
2109
1803
2002
1746
1909
1629
1860
1638
1986
1883
2141
1858
2163
1910
2068
1768
1997
1637
1758
1468
1755
1438
1736
1585
1815
1476
1668
1482
1691
1403
1623
1399
1670
1450
1674
1330
1642
1453
1677
1355
1614
1341
1706
1467
1754
1494
1834
1566
1853
1528
1739
1428
1584
1338
1545
1010
0
0
2155
2162
2541
2269
2509
2209
2583
2246
2542
2187
2483
1941
2150
1827
2028
1594
1829
1472
1857
1681
1989
1652
1994
1674
2110
1876
2233
1946
2221
1980
2274
1938
2276
1975
2197
1889
2245
1765
1937
1698
2006
1709
1993
1842
2276
2021
2198
1877
2187
1869
2182
1871
2109
1832
1926
1715
1849
1705
2011
1802
2205
1834
2133
1762
2042
1616
1914
1570
1677
1339
1677
1334
1682
1396
1641
1430
1674
1341
1581
1332
1647
1420
1766
1540
1774
1456
1708
1387
1722
1384
1618
1386
1838
1513
1828
1498
1906
1554
1734
1454
1736
1320
1477
1290
1573
951
0
0
1803
1842
2242
1957
2206
1916
2199
1917
2222
1798
2050
1678
1817
1481
1626
1213
1515
1261
1579
1362
1668
1274
1673
1403
1810
1640
1946
1764
1891
1666
1914
1509
1858
1480
1833
1522
1844
1421
1623
1449
1699
1392
1702
1541
2012
1898
2077
1718
2004
1700
1987
1697
1926
1636
1817
1453
1642
1509
1773
1603
1843
1604
1839
1462
1617
1271
1547
1204
1433
1179
1434
1105
1421
1178
1405
1181
1377
1128
1352
1068
1421
1302
1617
1456
1629
1285
1557
1213
1482
1163
1396
1139
1556
1234
1529
1150
1403
1154
1437
1076
1283
1065
1082
949
1225
685
0
0
2061
2071
2397
2194
2445
2084
2473
2163
2522
2065
2347
1970
2187
1748
1966
1570
1842
1586
1890
1637
2036
1602
2061
1828
2246
2012
2389
2218
2362
1897
2237
1780
2122
1769
2066
1834
2120
1696
2083
1768
2156
1875
2261
2053
2580
2314
2708
2351
2602
2224
2604
2318
2632
2221
2370
1943
2118
1842
2148
2000
2346
2037
2255
1869
2090
1713
2027
1685
1960
1620
1972
1704
1987
1685
2053
1745
1994
1658
1947
1666
2134
1936
2405
2137
2269
1939
2107
1655
1986
1610
2000
1640
1972
1710
1882
1530
1787
1584
1844
1554
1787
1429
1637
1465
1719
1112
0
0
2199
2288
2682
2398
2696
2318
2686
2384
2671
2282
2509
2092
2438
1876
2165
1776
2108
1877
2192
1805
1973
1794
2201
1891
2238
2077
2500
2179
2413
1979
2127
1741
2141
1839
2095
1757
2055
1823
2005
1786
2081
1821
2138
2061
2517
2370
2627
2233
2542
2237
2498
2330
2426
2077
2261
1815
2033
1764
2063
1782
2103
1839
1992
1709
1850
1558
1864
1516
1873
1651
1845
1634
1956
1645
1888
1649
1802
1501
1722
1483
1962
1797
2175
1994
2077
1542
1698
1413
1699
1398
1560
1334
1603
1386
1635
1192
1541
1306
1493
1270
1405
1064
1273
1072
1321
907
0
0
2149
2224
2544
2281
2592
2218
2618
2318
2579
2114
2383
1929
2253
1773
2043
1642
1995
1762
1987
1712
1899
1701
2054
1766
2084
1925
2331
2035
2146
1749
1976
1624
1957
1738
2038
1699
2034
1640
1974
1755
2085
1719
2085
1902
2356
2197
2422
2098
2357
2012
2277
2020
2218
1825
2086
1611
1961
1563
1962
1584
1863
1682
1810
1534
1799
1533
1842
1438
1840
1531
1834
1691
1997
1614
1930
1543
1773
1405
1619
1354
1821
1580
1995
1790
1855
1342
1549
1231
1486
1194
1473
1133
1408
1176
1458
1062
1428
1136
1333
1041
1228
982
1195
986
1177
685
0
0
1733
1770
2211
1979
2202
1831
2235
1890
2198
1793
2070
1604
1986
1514
1708
1497
1707
1463
1783
1448
1637
1386
1683
1403
1757
1597
1998
1655
1825
1416
1650
1301
1775
1435
1737
1498
1706
1467
1719
1438
1767
1443
1745
1612
2001
1849
2118
1762
1930
1554
1847
1606
1705
1417
1646
1352
1622
1277
1570
1241
1619
1320
1505
1265
1620
1231
1508
1221
1523
1317
1670
1549
1707
1426
1682
1224
1442
1122
1332
1015
1505
1204
1648
1434
1513
1061
1307
955
1163
869
1238
907
1227
907
1139
816
1173
836
1058
804
1025
731
1028
724
810
357
0
0
1984
2059
2512
2221
2565
2174
2505
2189
2549
2129
2381
1931
2308
1910
2162
1759
2065
1810
2025
1645
2007
1700
2148
1849
2178
1886
2346
1885
2115
1755
2018
1715
2212
1974
2354
1994
2186
1878
2167
1913
2333
1897
2163
2001
2440
2289
2504
1980
2321
1921
2263
1875
2195
1778
2085
1841
2109
1751
2122
1733
2071
1853
2120
1883
2249
1947
2250
1845
2180
1893
2176
1908
2336
1912
2149
1687
1929
1602
1888
1594
1901
1636
2099
1850
2154
1582
1812
1501
1863
1531
1790
1461
1718
1502
1730
1447
1728
1349
1763
1403
1736
1227
1582
1243
1515
1005
0
0
2203
2303
2717
2414
2740
2416
2766
2386
2731
2319
2565
2216
2487
2180
2363
1915
2250
1854
2162
1901
2164
1837
2161
1885
2213
2027
2267
2063
2205
1896
2141
1957
2341
2189
2506
2149
2365
2022
2203
1917
2206
1874
2186
1989
2438
2149
2416
1930
2280
1903
2106
1745
2014
1801
2062
1778
1961
1789
1971
1726
2095
1846
2275
2054
2280
2005
2191
1829
2065
1630
1932
1746
2004
1704
1845
1502
1806
1494
1686
1486
1733
1506
1707
1556
1774
1426
1638
1387
1674
1291
1622
1348
1659
1386
1481
1321
1549
1301
1563
1352
1557
1242
1466
1179
1368
786
0
0
2089
2109
2474
2098
2673
2166
2553
2176
2459
2042
2490
1949
2244
1950
2212
1755
2061
1625
1973
1644
1914
1585
2052
1658
2058
1828
2202
1870
2082
1706
2024
1789
2210
2050
2268
1954
2218
1733
2069
1770
1987
1669
1946
1741
2231
1966
2198
1642
2074
1758
1994
1626
1954
1622
1919
1644
1906
1746
1970
1714
2058
1808
2153
1939
2219
1958
2104
1690
1899
1436
1778
1521
1748
1454
1757
1304
1570
1347
1626
1309
1528
1282
1622
1406
1634
1317
1431
1245
1530
1173
1619
1414
1603
1316
1490
1242
1661
1346
1566
1346
1585
1204
1346
1156
1320
714
0
0
1813
1805
2251
1937
2270
1993
2237
1988
2294
1857
2202
1698
1864
1539
1822
1405
1660
1314
1609
1341
1653
1366
1793
1512
1849
1685
1846
1673
1915
1573
1871
1637
1938
1749
1942
1704
1835
1554
1712
1341
1698
1405
1674
1483
1972
1713
1869
1429
1770
1482
1722
1434
1741
1526
1834
1546
1879
1636
1830
1563
1805
1569
1790
1593
2001
1620
1742
1354
1537
1165
1482
1194
1425
1193
1429
1081
1384
1126
1261
1073
1314
1009
1257
1147
1339
1130
1249
1114
1323
1110
1449
1381
1590
1266
1390
1231
1559
1192
1483
1209
1361
1117
1266
961
1198
541
0
0
2085
2091
2522
2188
2648
2190
2510
2246
2541
2152
2570
1970
2158
1819
2145
1635
2013
1655
2013
1714
2029
1798
2237
1954
2287
2123
2354
2189
2266
1917
2230
1988
2280
2099
2395
2006
2299
1877
2042
1815
2138
1736
2158
2075
2476
2225
2436
1896
2390
2089
2324
2082
2427
2166
2478
2165
2614
2290
2407
2084
2260
1877
2225
2077
2334
2042
2209
1777
2056
1701
2037
1655
2004
1644
2061
1626
1924
1638
1927
1652
1958
1579
1921
1734
2097
1812
1881
1750
2136
1783
2153
1934
2188
1866
1986
1764
2123
1714
2059
1747
1978
1609
1850
1501
1783
1087
0
0
2266
2358
2705
2340
2657
2430
2609
2341
2644
2376
2604
2134
2315
1874
2077
1802
1965
1706
1958
1749
2068
1936
2302
2113
2442
2244
2491
2161
2372
1988
2280
1901
2299
1946
2349
1988
2187
1881
2059
1803
2083
1718
2125
1922
2382
2282
2410
2001
2321
2098
2445
2220
2288
2120
2339
2118
2458
2186
2163
1901
2007
1695
1924
1747
2029
1769
2008
1654
1805
1570
1795
1531
1725
1486
1836
1494
1646
1371
1701
1461
1713
1466
1834
1595
1906
1598
1844
1520
1846
1601
1777
1549
1766
1430
1738
1431
1659
1402
1818
1443
1579
1222
1419
1122
1277
861
0
0
2098
2138
2561
2243
2589
2290
2565
2245
2605
2170
2438
1923
2155
1630
1893
1614
1931
1698
1895
1667
2013
1741
2241
1993
2254
2025
2325
1943
2181
1782
2037
1764
2058
1787
2109
1755
2084
1617
1976
1678
1979
1623
2002
1857
2333
2298
2345
2009
2306
2037
2340
2135
2313
1931
2090
1925
2294
2017
2073
1700
1896
1642
1770
1422
1881
1570
1866
1462
1713
1466
1771
1527
1670
1437
1725
1432
1665
1400
1630
1449
1810
1527
1826
1626
1859
1546
1714
1323
1591
1394
1584
1315
1546
1194
1522
1154
1520
1101
1539
1139
1369
1086
1277
948
1163
661
0
0
1909
1924
2285
1960
2274
2042
2231
1858
2196
1901
2045
1692
1897
1328
1565
1365
1699
1416
1678
1520
1794
1514
1986
1749
1970
1749
1978
1658
1873
1472
1781
1490
1851
1513
1806
1486
1763
1380
1734
1465
1713
1434
1803
1706
2160
1981
2146
1765
1992
1655
1926
1720
1897
1600
1805
1652
1939
1605
1858
1427
1583
1330
1497
1262
1651
1282
1632
1298
1450
1348
1634
1334
1573
1377
1657
1416
1550
1273
1562
1349
1610
1339
1752
1477
1733
1403
1540
989
1330
1009
1259
952
1170
898
1153
943
1233
881
1300
905
1125
861
1082
650
890
450
0
0
2086
2053
2468
2135
2469
2221
2541
2190
2429
2138
2367
1932
2074
1569
1821
1695
2158
1854
2219
1829
2138
1841
2133
1979
2231
1933
2267
1906
2159
1828
2278
1973
2258
1933
2250
1847
2219
1882
2197
1917
2302
1897
2322
2148
2619
2434
2577
2134
2309
2052
2259
2005
2292
1901
2218
1986
2343
1987
2083
1913
2023
1819
2040
1723
2132
1811
2189
1826
2077
1898
2262
2052
2297
2038
2418
2100
2245
1909
2186
1870
2171
1873
2232
1942
2154
1796
2001
1553
1847
1510
1746
1437
1770
1505
1753
1498
1763
1538
1835
1453
1672
1437
1658
1282
1547
1069
0
0
2301
2225
2623
2382
2633
2322
2652
2362
2552
2395
2546
2109
2280
1778
2078
1801
2150
1967
2292
2045
2150
1870
2114
1924
2181
1913
2181
1902
2194
1898
2152
2070
2474
1970
2343
2005
2283
1873
2185
1861
2274
2027
2204
1966
2514
2245
2468
1986
2100
1783
2037
1782
1998
1709
2024
1782
2132
1725
1946
1747
1867
1652
1850
1669
1986
1802
2120
1811
2119
1770
2144
1897
2313
1962
2267
1878
2091
1643
1733
1493
1777
1513
1810
1546
1690
1453
1642
1357
1545
1268
1478
1225
1525
1253
1452
1231
1589
1417
1675
1294
1486
1098
1460
1173
1394
842
0
0
2253
2130
2602
2227
2514
2235
2523
2269
2506
2265
2527
2101
2278
1845
2006
1652
2098
1840
2190
1906
2066
1691
1985
1723
2088
1776
2045
1796
2106
1921
2245
2068
2532
2085
2299
2008
2205
1865
2166
1884
2140
1831
2123
1834
2301
2048
2242
1742
1963
1722
2002
1690
1956
1669
1981
1703
2095
1682
1899
1658
1821
1617
1819
1650
2064
1854
2223
1890
2202
1865
2139
1871
2242
1874
2072
1718
1862
1525
1754
1354
1659
1447
1629
1249
1589
1317
1595
1331
1503
1229
1529
1228
1419
1201
1527
1253
1680
1483
1785
1316
1530
1129
1393
1254
1359
902
0
0
1836
1902
2141
1908
2274
1893
2167
1923
2137
1908
2198
1842
2069
1584
1728
1427
1611
1367
1780
1477
1654
1386
1705
1426
1669
1426
1742
1619
1899
1645
1995
1764
2147
1829
1974
1579
1834
1495
1768
1473
1676
1367
1799
1448
1805
1569
1821
1398
1672
1378
1650
1408
1771
1521
1682
1378
1686
1399
1717
1449
1669
1398
1652
1546
1850
1659
1877
1591
1831
1412
1752
1483
1850
1403
1604
1275
1504
1092
1326
1107
1435
1110
1285
1046
1278
1047
1328
1161
1239
953
1210
976
1270
1046
1323
1149
1512
1313
1595
1136
1262
1017
1201
1019
1138
666
0
0
2110
1975
2454
2085
2484
2102
2420
2115
2450
2169
2523
2085
2437
1893
2101
1622
1885
1578
2050
1829
2075
1717
2111
1773
2038
1821
2194
1979
2395
2088
2339
2129
2420
2061
2239
1918
2099
1785
2105
1780
2103
1845
2066
1834
2237
1963
2242
1819
2118
1782
2233
1990
2373
2027
2374
1988
2316
2013
2343
2041
2299
2020
2363
2042
2482
2114
2375
1994
2254
1833
2138
1875
2250
1812
2100
1708
1917
1586
1931
1596
1962
1605
1870
1605
1864
1606
2005
1678
1882
1586
1959
1637
2025
1704
2027
1791
2211
1918
2248
1725
1938
1511
1794
1490
1701
1155
0
0
2277
2277
2613
2324
2674
2262
2558
2205
2581
2396
2647
2372
2573
2101
2253
1738
2082
1676
2180
1847
2227
1942
2137
1893
2092
1888
2273
2034
2322
2119
2234
2021
2228
1877
2219
1815
2104
1842
2076
1850
2093
1759
2045
1820
2166
1853
2142
1829
1982
1826
2088
2001
2456
2154
2491
2034
2343
2002
2290
2062
2266
1858
2160
1821
2039
1870
2037
1701
1875
1629
1868
1623
1741
1494
1863
1508
1769
1409
1614
1501
1801
1497
1714
1466
1689
1385
1749
1593
1801
1613
1810
1594
1789
1570
1854
1658
1944
1669
1949
1419
1606
1259
1426
1189
1360
808
0
0
2168
2101
2525
2301
2532
2090
2484
2026
2486
2221
2506
2246
2441
2043
2123
1562
2009
1677
2009
1797
2179
1877
2202
1906
2088
1762
2080
1850
2086
1796
2098
1834
2013
1764
1998
1658
2037
1725
2006
1743
2082
1714
2066
1702
2071
1761
1992
1708
1980
1778
2145
2015
2502
2273
2610
2139
2301
2037
2236
1818
1994
1605
1939
1648
1908
1659
1835
1614
1778
1466
1682
1517
1639
1380
1753
1434
1717
1335
1544
1374
1788
1478
1842
1614
1746
1515
1819
1555
1821
1430
1709
1471
1655
1381
1691
1517
1850
1605
1739
1215
1453
1085
1234
1077
1209
685
0
0
1821
1826
2219
1997
2178
1846
2102
1739
2124
1894
2088
1878
2106
1678
1814
1243
1643
1333
1738
1618
1871
1682
1931
1665
1778
1426
1720
1383
1717
1515
1690
1457
1712
1425
1777
1467
1709
1490
1861
1495
1893
1461
1780
1339
1658
1373
1642
1402
1636
1457
1870
1815
2245
2069
2359
1914
2014
1646
1867
1386
1604
1267
1577
1245
1541
1309
1550
1297
1381
1061
1485
1224
1467
1225
1506
1190
1483
1213
1429
1261
1590
1364
1655
1444
1609
1198
1449
1291
1404
1195
1317
999
1307
1096
1258
1137
1598
1179
1397
949
1149
840
985
746
916
390
0
0
2098
2033
2422
2179
2493
2106
2362
2009
2360
2019
2409
2143
2453
2033
2289
1733
2053
1656
2141
1876
2263
2010
2343
2074
2249
1789
2158
1723
2062
1897
2135
1812
2129
1843
2195
1889
2277
2062
2443
2179
2446
2065
2315
1831
2173
1806
2206
1844
2170
1861
2383
2186
2714
2512
2772
2471
2582
2018
2242
1864
2173
1753
2088
1746
2033
1754
2062
1747
1965
1749
1938
1753
2011
1893
2242
1948
2261
1866
2189
1963
2266
1995
2373
1973
2101
1611
1931
1658
1901
1621
1823
1451
1796
1459
1851
1674
1998
1684
1918
1354
1692
1399
1577
1304
1564
1034
0
0
2317
2266
2758
2340
2709
2372
2545
2163
2277
2101
2476
2284
2583
2301
2409
1992
2116
1918
2129
1945
2258
2098
2386
2013
2311
1866
2149
1829
2101
1914
2233
1991
2158
1883
2232
2139
2514
2228
2645
2333
2626
2148
2274
1956
2132
1893
2123
1860
2059
1829
2230
2172
2573
2369
2608
2277
2372
1812
2037
1734
1881
1651
1870
1689
1938
1644
1973
1684
1931
1764
1933
1769
2127
1930
2238
1953
2159
1810
2107
1733
2093
1723
2027
1669
1773
1420
1621
1379
1685
1339
1574
1370
1716
1335
1699
1535
2009
1499
1557
1254
1446
1233
1400
1105
1370
890
0
0
2221
2119
2555
2148
2537
2107
2416
1950
2130
1846
2249
1954
2392
2116
2281
1772
2074
1675
1925
1707
2069
1785
2146
1722
2133
1758
2026
1681
1954
1703
2159
1978
2137
1910
2213
1995
2413
2165
2542
2212
2365
1989
2156
1729
1934
1654
1957
1609
1970
1661
2035
1915
2277
2084
2365
2036
2154
1634
1970
1611
1809
1538
1814
1518
1860
1601
1974
1669
2013
1714
1925
1715
2171
1855
2224
1840
2109
1683
1908
1508
1834
1497
1786
1446
1605
1239
1525
1277
1658
1165
1530
1308
1523
1282
1623
1461
1781
1389
1481
1179
1371
1134
1345
1011
1289
709
0
0
1830
1818
2314
1964
2224
1849
2056
1559
1710
1429
1812
1586
1990
1778
2062
1582
1757
1444
1566
1325
1554
1418
1713
1366
1765
1451
1632
1378
1739
1554
1951
1869
2039
1661
1941
1693
2090
1864
2187
1845
2022
1655
1748
1405
1646
1427
1636
1394
1682
1496
1775
1655
1947
1712
1876
1575
1697
1308
1596
1330
1520
1346
1621
1399
1686
1466
1823
1527
1883
1621
1817
1564
1970
1563
1846
1533
1764
1319
1502
1175
1444
1104
1466
1114
1307
1014
1338
1034
1325
978
1290
1098
1386
1243
1448
1362
1536
1111
1351
1028
1293
951
1118
774
1056
609
0
0
2086
2098
2552
2131
2564
2152
2277
1885
2058
1744
2209
1925
2341
2018
2326
1980
2223
1786
1937
1730
2005
1742
2066
1759
2194
1845
2171
1893
2272
2018
2557
2359
2568
2124
2404
1988
2397
2170
2559
2135
2429
1931
2269
1913
2162
1969
2190
2013
2323
1989
2380
2120
2397
2036
2233
1940
2173
1861
2113
1858
2099
1946
2330
2095
2445
2233
2468
2154
2532
2203
2347
2052
2380
2029
2354
1894
2265
1726
1970
1608
1981
1613
1949
1668
1960
1620
1903
1637
1905
1698
1982
1710
2182
1956
2149
1992
2269
1750
1938
1558
1893
1522
1778
1362
1716
1073
0
0
2260
2330
2793
2410
2706
2362
2600
2168
2309
1992
2301
2014
2482
2166
2466
2083
2380
1911
2123
1757
2062
1818
2205
1835
2214
2021
2249
1992
2326
2177
2534
2275
2651
2160
2255
1966
2234
2048
2306
1997
2238
1937
2169
1904
2124
1942
2124
1909
2210
1891
2296
2000
2178
1802
2053
1809
1940
1741
1965
1789
2039
1986
2269
2105
2436
2171
2311
1974
2202
1809
1922
1607
1959
1586
1904
1539
1891
1465
1659
1421
1676
1443
1749
1477
1725
1458
1756
1507
1842
1498
1909
1635
1978
1770
1932
1735
1877
1493
1723
1323
1549
1290
1369
1147
1351
852
0
0
2178
2145
2570
2319
2570
2221
2389
2084
2234
1861
2171
1985
2377
2005
2362
1938
2301
1827
2069
1688
2059
1687
2102
1842
2130
1911
2174
1940
2214
2059
2282
2030
2389
1995
2258
1890
2069
1719
2089
1860
2014
1742
2034
1726
2082
1848
2118
1931
2167
1787
2064
1749
1963
1615
1889
1620
1810
1644
1957
1706
1911
1918
2233
2090
2324
1954
2157
1760
1925
1489
1724
1443
1721
1395
1754
1334
1750
1355
1485
1425
1627
1347
1626
1377
1806
1488
1895
1581
1894
1654
1786
1530
1850
1647
1898
1530
1694
1245
1565
1079
1489
1115
1290
1000
1234
685
0
0
1874
1859
2302
1951
2222
1930
2225
1848
2007
1757
2006
1715
2086
1808
2032
1618
1993
1768
1976
1569
1837
1605
1906
1553
1749
1598
1975
1619
1949
1594
1930
1682
2084
1819
2033
1754
1877
1492
1672
1494
1781
1599
1880
1641
1964
1691
1955
1563
1803
1396
1798
1426
1641
1309
1599
1427
1677
1494
1741
1573
1814
1637
1974
1683
1928
1578
1754
1362
1527
1264
1418
1141
1414
1135
1477
1057
1382
1060
1265
1170
1492
1145
1540
1309
1579
1405
1654
1435
1778
1308
1581
1219
1546
1301
1545
1242
1274
1078
1253
862
1141
861
1065
753
1010
437
0
0
2124
2186
2546
2255
2581
2245
2522
2110
2423
1994
2354
2061
2434
2031
2359
1973
2349
2014
2364
1949
2214
1909
2245
1993
2121
1866
2290
2038
2333
2056
2227
1950
2415
2180
2519
2253
2448
1862
2228
1954
2373
2132
2365
2137
2504
2170
2356
1974
2212
1840
2236
1882
2173
1825
2134
1901
2237
2034
2443
2152
2359
2077
2256
1964
2337
1946
2202
1828
1994
1720
1973
1654
2068
1692
2103
1748
1985
1666
1917
1742
2102
1774
2128
1849
2286
1961
2290
2028
2220
1764
1988
1687
2082
1773
2040
1698
1893
1443
1867
1449
1754
1445
1561
1333
1589
1101
0
0
2215
2253
2765
2502
2728
2353
2602
2409
2522
2226
2420
2170
2500
2206
2401
2107
2237
2071
2322
2093
2226
1917
2169
1810
2114
1901
2167
1957
2229
1906
2256
1899
2226
2132
2547
2313
2459
2097
2405
2056
2402
2085
2359
2062
2206
1934
2136
1790
1979
1743
2026
1800
2085
1743
2145
1898
2157
1958
2178
1923
2084
1733
1918
1654
1986
1618
1859
1615
1858
1535
1779
1515
1748
1549
1905
1623
1895
1621
1890
1702
1963
1620
1885
1474
1878
1617
1837
1614
1826
1414
1633
1414
1782
1548
1776
1448
1614
1259
1412
1229
1509
1203
1349
1101
1310
850
0
0
2181
2125
2634
2280
2589
2314
2550
2223
2488
2043
2284
2033
2362
2142
2213
1970
2009
1833
2090
1860
2078
1722
2020
1643
2033
1714
2050
1770
2137
1837
2120
1722
2154
1970
2485
2235
2522
2123
2307
2042
2303
2018
2223
1818
2069
1735
2037
1727
1978
1653
1974
1738
2090
1838
2181
1979
2107
1797
1989
1642
1873
1525
1762
1466
1830
1571
1742
1460
1800
1525
1818
1498
1801
1621
1899
1726
1978
1706
1998
1730
1930
1559
1695
1337
1738
1430
1706
1410
1669
1307
1546
1318
1717
1508
1683
1301
1461
1252
1410
1198
1488
1189
1341
1118
1330
775
0
0
1861
1909
2251
2000
2309
1986
2239
2002
2250
1876
1946
1562
1988
1678
1957
1585
1713
1350
1615
1403
1755
1421
1721
1377
1673
1382
1674
1457
1770
1449
1787
1437
1791
1690
2167
2119
2330
1889
2045
1631
1876
1581
1764
1454
1706
1331
1751
1435
1653
1456
1704
1642
1914
1635
2022
1722
1772
1413
1589
1397
1641
1327
1505
1205
1641
1266
1489
1317
1562
1257
1682
1398
1774
1550
1850
1618
1965
1490
1866
1466
1611
1246
1369
1006
1373
1105
1348
1027
1390
1065
1334
1122
1533
1227
1356
1136
1309
1062
1298
1021
1291
998
1317
1081
1281
617
0
0
2062
2067
2594
2233
2564
2194
2473
2228
2421
2076
2227
1772
2201
1862
2162
1807
2036
1644
1866
1698
2026
1759
2007
1701
2067
1803
2090
1805
2191
1797
2308
1981
2347
2174
2629
2441
2702
2260
2506
1986
2189
1906
2202
1906
2109
1805
2192
1838
2234
1908
2310
2116
2494
2167
2398
2053
2179
1834
1986
1773
2002
1736
1956
1712
2136
1861
2204
1854
2271
1900
2422
2184
2393
2133
2479
2127
2423
1942
2239
1804
2110
1642
1769
1565
1897
1586
1909
1588
1870
1555
1989
1736
2085
1821
2002
1801
2061
1738
2027
1703
1982
1786
1989
1663
1992
1322
0
0
2295
2340
2682
2395
2657
2365
2618
2293
2530
2219
2374
1949
2242
2010
2218
1829
2060
1843
2075
1861
2120
1931
2166
1834
2146
1837
2014
1777
2216
2021
2317
2106
2486
2229
2667
2346
2629
2241
2363
1986
2179
1860
2085
1846
2002
1857
2119
1886
2234
1967
2298
2011
2374
2025
2234
1821
2001
1642
1954
1578
1902
1550
1801
1710
2004
1845
2185
1896
2158
1835
2167
1897
2240
1898
2161
1885
2082
1755
1742
1518
1655
1431
1597
1329
1620
1410
1627
1353
1634
1370
1693
1602
1941
1618
1906
1563
1862
1566
1835
1618
1838
1643
1790
1597
1773
1109
0
0
2282
2201
2577
2282
2482
2228
2507
2123
2438
2052
2373
1885
2217
1870
2135
1700
1957
1691
1940
1681
2070
1780
2138
1790
2143
1830
2004
1838
2261
2162
2440
2144
2381
2069
2454
2134
2500
2150
2322
1940
2218
1789
1975
1762
1985
1773
2124
1974
2349
2032
2301
1870
2197
1866
2033
1745
1922
1553
1893
1509
1854
1493
1844
1652
2057
1867
2122
1869
2091
1742
2106
1737
2011
1707
1933
1570
1734
1455
1594
1339
1616
1299
1586
1300
1610
1332
1562
1275
1621
1441
1787
1677
1907
1645
1878
1472
1866
1475
1748
1503
1817
1430
1659
1401
1559
903
0
0
1853
1911
2292
2005
2242
1931
2251
1806
2038
1757
1973
1634
1969
1557
1755
1357
1613
1321
1637
1474
1755
1642
1979
1557
1877
1587
1873
1590
2001
1885
2096
1757
1986
1593
1999
1717
2035
1931
2143
1684
1862
1457
1680
1417
1691
1546
1849
1640
2033
1648
1859
1499
1714
1389
1674
1349
1613
1291
1555
1236
1629
1359
1587
1467
1829
1718
1962
1625
1734
1267
1538
1239
1525
1204
1533
1149
1389
1114
1332
1069
1346
1120
1481
1102
1419
1114
1456
1198
1461
1242
1670
1514
1661
1392
1593
1149
1463
1081
1340
1038
1275
1044
1283
1075
1138
588
0
0
2212
2102
2529
2092
2486
2148
2443
1953
2266
1936
2270
1918
2335
1982
2207
1754
2052
1826
2123
1853
2231
1981
2414
2023
2366
2025
2303
2062
2349
2105
2373
2031
2280
1898
2283
2079
2492
2301
2540
2061
2274
1834
2149
1866
2248
2026
2335
2074
2310
1914
2248
1817
2152
1789
2052
1764
2150
1768
2033
1714
2106
1923
2245
2017
2387
2124
2358
1964
2231
1720
2004
1584
2026
1706
1934
1590
1936
1653
1954
1665
2042
1762
2116
1871
2082
1821
2105
1747
2171
1849
2269
2042
2285
1849
2075
1568
1877
1499
1738
1442
1781
1465
1645
1368
1593
1032
0
0
2347
2326
2758
2524
2739
2337
2546
2228
2314
1959
2405
2117
2446
2216
2557
2152
2338
2076
2333
1986
2361
2133
2479
2189
2501
2244
2377
2115
2205
1980
2353
2032
2229
1953
2227
2069
2501
2419
2733
2276
2338
1926
2171
1927
2229
1960
2230
1917
2194
1803
2021
1834
2054
1781
2022
1786
1996
1721
2013
1751
2066
1921
2189
1933
2229
1869
2090
1813
1989
1586
1835
1525
1723
1530
1770
1493
1750
1588
1850
1651
2044
1793
1990
1821
1933
1618
1877
1655
1816
1642
1924
1883
1970
1797
1777
1334
1615
1306
1526
1252
1481
1218
1434
1085
1318
906
0
0
2243
2269
2541
2392
2639
2234
2478
2029
2120
1742
2127
1963
2397
2202
2485
2121
2279
1933
2215
1892
2094
1893
2336
2035
2327
2052
2149
1813
2036
1777
2074
1700
2069
1725
2093
1943
2445
2295
2722
2316
2338
1938
2194
1820
2085
1716
1992
1634
1995
1581
1837
1645
1959
1612
1882
1659
1866
1611
1942
1697
2069
1823
2037
1653
1976
1673
1824
1641
1837
1447
1650
1444
1711
1402
1718
1444
1700
1585
1939
1578
1991
1618
1820
1609
1767
1408
1645
1416
1560
1349
1722
1689
1853
1642
1649
1210
1481
1167
1323
1132
1405
1100
1306
933
1175
740
0
0
1890
1929
2287
2018
2309
1861
2222
1816
1844
1469
1769
1609
2050
1933
2282
1967
2021
1573
1861
1482
1599
1450
1886
1685
1972
1667
1798
1476
1740
1541
1705
1450
1681
1521
1860
1685
2160
2074
2386
2084
2173
1817
1867
1510
1749
1381
1709
1357
1669
1297
1650
1403
1710
1333
1710
1527
1693
1448
1673
1360
1710
1458
1642
1328
1636
1245
1525
1309
1421
1147
1469
1180
1414
1209
1485
1349
1713
1458
1710
1380
1658
1333
1429
1157
1363
1001
1258
1149
1269
1070
1387
1421
1589
1294
1229
954
1259
935
1134
898
1146
820
978
746
811
457
0
0
2167
2128
2553
2309
2632
2262
2564
2133
2282
1849
2160
1815
2263
2121
2571
2217
2388
1941
2098
1749
2010
1720
2178
1975
2240
1992
2136
1870
2166
1865
2181
1871
2173
1997
2381
2194
2545
2430
2906
2458
2713
2116
2276
1866
2124
1764
2210
1810
2179
1874
2091
1842
2230
1965
2316
2058
2274
1910
2133
1799
2069
1818
2157
1723
2101
1732
2066
1867
2049
1765
2088
1802
2054
1877
2276
2109
2318
2068
2255
1864
2153
1738
1909
1629
1928
1544
1786
1617
1917
1673
2066
1970
2129
1722
1905
1481
1850
1514
1689
1426
1701
1405
1789
1337
1588
1121
0
0
2421
2442
2854
2493
2665
2466
2715
2420
2571
2092
2222
1883
2283
2090
2468
2226
2455
2075
2227
1909
2098
1921
2278
1919
2180
1912
2254
1962
2170
1965
2228
2101
2325
2167
2504
2288
2627
2518
2865
2534
2605
2138
2165
1841
2125
1754
2062
1831
2085
1836
2090
1926
2110
1866
2093
1970
2076
1693
1986
1658
1880
1648
1829
1658
1962
1627
1977
1784
2189
1842
2059
1799
2033
1869
2130
1853
2058
1833
1869
1606
1797
1489
1653
1381
1626
1354
1627
1461
1728
1491
1981
1771
1938
1522
1689
1402
1659
1386
1531
1192
1524
1269
1651
1322
1559
1114
0
0
2331
2230
2633
2338
2570
2285
2607
2116
2394
1800
1949
1589
1988
1765
2207
1962
2187
1787
2053
1673
1922
1771
1960
1670
2034
1722
2014
1781
2000
1993
2301
2090
2410
2108
2434
2205
2441
2322
2699
2341
2513
1941
1959
1656
1943
1706
1970
1766
2093
1818
2091
1783
2033
1728
1978
1706
1848
1509
1850
1482
1765
1540
1798
1514
1923
1604
1901
1738
2124
1883
2101
1835
1986
1641
1906
1563
1813
1541
1662
1315
1548
1294
1520
1306
1514
1253
1555
1361
1702
1476
1978
1742
1885
1470
1578
1459
1669
1429
1577
1134
1457
1198
1672
1349
1509
1037
0
0
1941
1990
2367
2032
2276
2063
2279
1954
1955
1527
1649
1264
1576
1402
1747
1623
1849
1574
1874
1524
1647
1442
1695
1373
1719
1373
1760
1586
1906
1789
2123
1993
2270
1965
2108
1874
2109
2041
2370
2070
2230
1685
1698
1374
1701
1466
1853
1620
1995
1701
1882
1597
1738
1381
1622
1354
1656
1275
1581
1322
1476
1312
1498
1361
1701
1342
1712
1627
1946
1602
1765
1461
1678
1332
1545
1238
1354
1157
1353
1079
1289
1077
1237
1060
1367
1041
1374
1309
1575
1447
1925
1607
1721
1338
1485
1300
1509
1186
1317
1026
1193
945
1371
1066
1345
841
0
0
2263
2125
2724
2289
2445
2176
2412
2043
2257
1709
1853
1515
1890
1543
1942
1773
2166
1949
2235
1978
2194
1804
2115
1746
2080
1789
2180
2062
2426
2372
2748
2396
2782
2313
2509
2134
2452
2308
2758
2502
2596
2075
2252
1915
2245
1997
2327
2134
2454
2029
2291
1931
2212
1765
2078
1814
2190
1810
2221
1882
2114
1865
2119
2005
2340
2034
2442
2164
2443
2074
2190
1810
2114
1709
1966
1650
1942
1692
1908
1660
1924
1694
1977
1676
2053
1824
2227
2061
2393
2209
2629
2180
2415
1928
2150
1865
2110
1768
1867
1538
1813
1546
1936
1553
1798
1239
0
0
2352
2362
2858
2482
2725
2388
2581
2194
2266
1825
2044
1693
1991
1676
2052
1889
2245
1978
2370
2138
2312
2066
2194
1885
2212
1904
2344
2132
2583
2451
2728
2466
2556
2245
2366
1947
2282
2196
2633
2301
2506
2153
2231
1793
2178
1891
2205
1907
2222
1938
2164
1797
2101
1653
1942
1658
2000
1755
2043
1889
2225
1898
2168
1928
2254
1935
2205
2051
2265
1861
1882
1482
1751
1549
1732
1405
1713
1386
1707
1490
1731
1469
1780
1577
1798
1754
2037
1924
2232
1994
2263
1906
1976
1688
1798
1546
1766
1234
1636
1178
1518
1243
1509
1109
1438
964
0
0
2123
2186
2658
2337
2543
2213
2422
1982
2106
1717
1908
1500
1915
1666
1984
1802
2130
1842
2317
1968
2344
2061
2172
1763
2090
1812
2213
2010
2450
2249
2586
2299
2294
1905
2189
1713
2081
1918
2367
2153
2399
1941
2205
1745
2080
1713
2037
1729
1966
1634
1987
1618
1961
1492
1867
1565
1918
1618
1981
1958
2158
1926
2128
1790
2075
1649
2027
1770
2002
1642
1684
1295
1707
1359
1590
1322
1642
1386
1627
1429
1704
1429
1793
1525
1853
1736
2011
1730
2153
1851
2065
1585
1708
1266
1482
1220
1498
1069
1402
1044
1338
1090
1338
949
1233
733
0
0
1848
1913
2327
1970
2228
1877
2021
1706
1843
1418
1704
1329
1768
1509
1815
1540
2011
1707
2056
1814
2123
1851
2018
1623
1933
1498
1913
1661
2007
1841
2150
1838
1966
1460
1831
1363
1739
1531
2004
1785
2196
1804
2027
1482
1707
1426
1698
1330
1615
1418
1725
1360
1682
1314
1643
1469
1786
1499
1862
1609
1906
1634
1850
1498
1739
1301
1595
1386
1533
1210
1410
1106
1396
1139
1405
1145
1461
1245
1406
1229
1570
1236
1655
1405
1531
1369
1643
1398
1749
1481
1668
1259
1370
978
1188
1009
1224
789
1164
730
1030
869
1028
690
966
494
0
0
2135
2115
2580
2234
2545
2116
2342
1953
2170
1743
2130
1751
2166
1949
2218
1945
2450
2062
2434
2151
2510
2180
2442
2021
2274
1810
2170
1878
2275
2066
2406
2166
2260
1937
2164
1796
2117
1886
2323
2181
2618
2285
2485
1981
2273
1877
2245
1939
2233
1911
2271
2034
2310
1882
2367
2020
2389
2081
2275
2031
2250
1978
2219
1796
2083
1740
2061
1768
2052
1755
1919
1633
1914
1709
2028
1829
2152
1884
2257
1961
2219
1864
2196
1828
2010
1771
2034
1786
2124
1809
2159
1659
1867
1536
1684
1505
1746
1351
1709
1300
1621
1354
1673
1258
1580
1082
0
0
2316
2293
2612
2474
2722
2305
2496
2095
2317
1973
2354
1943
2389
2298
2556
2281
2525
2276
2438
2185
2555
2210
2486
2133
2298
1893
2258
1962
2120
1965
2409
2085
2274
1928
2090
1835
2157
2010
2347
2165
2707
2409
2582
2122
2295
2039
2143
1918
2245
1975
2331
1915
2149
1854
2141
1882
2192
1832
2074
1662
1909
1616
1840
1548
1895
1601
1898
1510
1765
1588
1829
1530
1801
1663
1879
1678
1984
1818
2057
1814
1905
1613
1817
1490
1770
1394
1733
1481
1740
1493
1717
1389
1574
1250
1429
1179
1469
1157
1421
1124
1412
1044
1330
1083
1398
763
0
0
2237
2213
2562
2341
2599
2155
2386
2001
2111
1737
2123
1827
2216
2097
2423
2101
2372
2015
2299
1886
2212
1814
2199
1901
2126
1723
2127
1821
2055
1840
2242
1842
2075
1755
2010
1663
2103
1972
2378
2132
2651
2324
2635
2123
2352
1945
2122
1828
2267
1893
2166
1827
2096
1815
2013
1710
2033
1617
1925
1557
1773
1477
1765
1380
1905
1493
1703
1435
1733
1508
1731
1454
1802
1635
1892
1729
1970
1714
1950
1586
1800
1426
1666
1338
1595
1250
1558
1360
1584
1348
1629
1290
1454
1074
1373
1136
1429
1075
1435
1025
1317
929
1227
1031
1329
813
0
0
1870
1890
2260
2034
2202
1834
2071
1569
1742
1380
1777
1410
1785
1681
1945
1757
1970
1747
1892
1573
1745
1476
1786
1580
1869
1547
1769
1524
1877
1570
1949
1613
1802
1490
1739
1592
1929
1850
2189
2013
2371
2210
2318
1905
2062
1755
1833
1515
1915
1565
1768
1514
1715
1403
1659
1449
1654
1279
1557
1276
1495
1243
1467
1165
1629
1190
1561
1229
1517
1317
1592
1352
1634
1505
1685
1453
1620
1333
1473
1073
1380
1106
1346
1069
1302
994
1310
1125
1316
1102
1403
1136
1232
932
1205
934
1163
905
1257
965
1085
759
1130
899
1207
656
0
0
2124
2092
2434
2155
2442
1878
2214
1714
1865
1556
1941
1625
1930
1810
2046
1919
2285
1817
2136
1721
1993
1598
2071
1849
2161
1817
2294
2034
2298
1980
2369
1950
2143
1834
2286
2038
2493
2295
2685
2367
2765
2413
2694
2240
2521
2090
2157
1928
2174
1878
2066
1773
2067
1700
2000
1715
2133
1771
1962
1708
2054
1706
2022
1730
2074
1698
2019
1754
2069
1860
2177
1979
2278
1957
2133
1835
2075
1655
1977
1570
1874
1589
1895
1573
1800
1529
1847
1521
2009
1718
2048
1681
1851
1361
1757
1460
1693
1438
1776
1506
1799
1307
1673
1504
1892
1298
0
0
2381
2337
2781
2381
2450
2173
2352
1910
2137
1798
2052
1890
2114
1938
2178
1902
2167
1868
2132
1837
2004
1803
2132
1891
2129
1955
2374
2269
2550
2220
2377
1943
2160
1899
2234
2132
2533
2347
2652
2448
2791
2397
2640
2253
2265
1917
2026
1818
2021
1661
2006
1673
1972
1655
1941
1714
1946
1687
1862
1662
1925
1802
2071
1803
2153
1714
1906
1801
2077
1851
2102
1813
2018
1715
1905
1476
1756
1565
1713
1413
1750
1456
1668
1482
1588
1466
1594
1445
1914
1727
2002
1579
1711
1387
1652
1410
1604
1525
1810
1402
1617
1291
1493
1312
1714
1305
0
0
2273
2190
2597
2167
2282
1962
2134
1691
1918
1629
2043
1770
2086
1821
2001
1683
1906
1589
1923
1587
1806
1674
1933
1677
2020
1861
2363
2126
2550
2147
2230
1846
2089
1781
2065
1959
2260
2106
2365
2158
2378
2152
2385
1974
2049
1717
1922
1572
1861
1602
1827
1583
1931
1605
1922
1659
1914
1675
1841
1601
1961
1898
2237
1824
2108
1753
1885
1642
1920
1620
1872
1558
1812
1386
1718
1294
1617
1316
1625
1274
1668
1290
1506
1314
1520
1326
1503
1323
1825
1763
2059
1686
1835
1422
1717
1336
1658
1525
1802
1330
1539
1192
1414
1247
1586
974
0
0
1838
1885
2209
1918
2038
1654
1819
1339
1717
1326
1730
1476
1802
1467
1624
1381
1546
1251
1547
1266
1514
1325
1714
1482
1891
1757
2180
1941
2255
1893
2037
1701
1812
1466
1578
1438
1754
1571
1822
1594
1945
1635
1865
1618
1783
1353
1602
1364
1594
1188
1627
1270
1588
1426
1701
1508
1825
1570
1771
1525
1892
1780
1975
1682
1914
1474
1637
1335
1540
1285
1557
1229
1383
1050
1357
1055
1409
1140
1287
1044
1354
997
1283
1048
1229
1045
1284
1250
1669
1613
1991
1505
1675
1306
1527
1252
1402
1242
1479
1059
1266
900
1137
982
1199
835
0
0
2069
2077
2530
2149
2349
1965
2187
1664
1981
1638
2025
1707
2026
1681
1892
1689
1901
1586
1882
1647
1950
1774
2251
1987
2461
2265
2669
2388
2674
2252
2475
2013
2282
1832
2074
1720
2007
1838
2153
1890
2210
1918
2334
2061
2276
1871
2121
1825
2123
1773
2075
1773
2165
1837
2228
1938
2389
2143
2454
2178
2530
2221
2471
2166
2359
1830
2093
1752
1922
1617
1962
1674
1914
1532
1911
1578
1897
1603
1800
1619
1994
1556
1973
1636
1865
1699
1933
1866
2295
2093
2461
2063
2210
1752
2004
1597
1864
1677
1945
1486
1710
1342
1597
1435
1770
1172
0
0
2319
2314
2731
2481
2606
2253
2540
2089
2176
2006
2100
1922
2106
1840
2077
1759
2102
1849
2090
1865
2191
2002
2461
2229
2621
2480
2773
2434
2758
2293
2418
1937
2221
1837
2105
1834
2058
1840
2100
1834
2123
2040
2285
2106
2338
2043
2228
1935
2226
1802
2053
1754
1944
1700
1957
1786
2157
2045
2251
2076
2359
1957
2292
1942
2130
1653
1913
1461
1782
1494
1803
1587
1728
1432
1693
1498
1661
1386
1766
1547
1861
1603
1838
1524
1866
1629
1845
1654
2082
1942
2174
1925
1908
1469
1670
1314
1613
1258
1508
1203
1381
1131
1411
1111
1466
898
0
0
2116
2103
2526
2263
2490
2094
2297
1814
1971
1658
1899
1659
1784
1493
1874
1621
1961
1710
1987
1722
2042
1860
2379
2102
2482
2193
2637
2193
2365
1885
1930
1603
2005
1578
1873
1589
1848
1623
1895
1603
1900
1860
2237
2086
2322
2029
2228
1854
2073
1584
1754
1546
1737
1428
1705
1527
1851
1725
2077
1796
2057
1654
1897
1530
1855
1424
1793
1358
1718
1420
1710
1475
1669
1353
1570
1387
1649
1380
1676
1514
1815
1458
1746
1430
1666
1469
1633
1454
1816
1659
1862
1594
1681
1285
1426
1060
1360
1011
1269
1010
1283
957
1236
870
1122
557
0
0
1825
1835
2237
2054
2249
1842
2021
1562
1598
1350
1508
1338
1555
1359
1621
1449
1826
1602
1804
1623
1878
1681
2103
1764
2188
1915
2212
1840
1965
1487
1662
1338
1593
1297
1522
1348
1630
1306
1648
1402
1818
1679
2068
1928
2153
1873
1975
1597
1787
1295
1550
1305
1410
1193
1419
1203
1520
1417
1674
1538
1703
1262
1547
1237
1501
1145
1595
1136
1498
1309
1533
1354
1531
1220
1509
1361
1557
1285
1506
1322
1563
1292
1448
1157
1408
1108
1282
1086
1434
1351
1528
1290
1243
882
1112
906
1038
822
1018
813
1067
762
1001
658
1025
429
0
0
2062
2009
2462
2244
2459
2064
2292
1865
1950
1674
1853
1680
1842
1613
2086
1893
2349
2038
2330
2022
2319
1926
2359
2029
2409
2213
2501
2066
2221
1773
2107
1658
2074
1690
2114
1780
2084
1779
2185
2030
2370
2276
2558
2333
2556
2170
2352
1903
2154
1705
2010
1738
1975
1674
1933
1769
2125
1837
2130
1889
2071
1630
1997
1537
2010
1694
2029
1755
2217
1965
2250
2027
2248
1978
2222
1988
2173
1860
2058
1814
2037
1712
1933
1522
1934
1571
1807
1516
1924
1746
1967
1721
1818
1405
1755
1410
1749
1450
1618
1347
1593
1397
1559
1258
1563
941
0
0
2282
2306
2635
2379
2595
2206
2454
2082
2254
1949
2113
1814
2189
1971
2369
2216
2564
2265
2508
2091
2258
1941
2247
1951
2306
2050
2327
1972
2116
1821
2151
1773
2179
1813
2121
1960
2197
1972
2302
2042
2333
2148
2441
2141
2355
2066
2181
1723
1933
1652
1853
1605
1828
1626
1847
1806
2028
1782
1979
1511
1832
1523
1786
1451
1830
1558
2040
1907
2177
1914
2313
2050
2162
1901
2137
1750
1982
1521
1692
1450
1662
1377
1561
1387
1516
1325
1595
1341
1584
1317
1611
1274
1517
1275
1469
1174
1422
1225
1460
1179
1367
1154
1285
1095
1450
904
0
0
2135
1986
2461
2121
2420
2045
2325
1934
2229
1803
2148
1847
2154
1890
2285
1985
2366
2019
2184
1762
1938
1645
1930
1646
1993
1738
1944
1694
1911
1638
1933
1577
2006
1755
2091
1802
2073
1878
2134
1763
1982
1745
2075
1823
2033
1714
1888
1460
1742
1466
1675
1491
1805
1604
1844
1750
1837
1581
1719
1253
1621
1339
1642
1268
1602
1371
1911
1758
2141
1874
2194
1902
2027
1686
1886
1395
1591
1333
1468
1234
1442
1157
1354
1109
1346
1122
1396
1149
1370
1197
1412
1098
1343
1186
1341
1090
1259
1005
1253
992
1242
1111
1242
1033
1268
837
0
0
1746
1690
2119
1954
2138
1780
2069
1773
2052
1686
1978
1691
2002
1747
2020
1642
1996
1605
1654
1340
1566
1296
1606
1386
1771
1392
1602
1426
1598
1431
1706
1389
1885
1637
1843
1608
1812
1501
1733
1335
1590
1344
1520
1337
1638
1301
1573
1224
1503
1266
1595
1341
1646
1462
1589
1378
1528
1207
1406
1001
1338
1010
1408
1050
1517
1341
1762
1622
2057
1719
1958
1598
1577
1226
1443
1049
1309
943
1231
938
1205
964
1235
950
1134
864
1101
917
1065
846
1186
955
1262
898
1182
970
1158
900
1191
904
1149
917
1098
949
1296
781
0
0
1954
1919
2313
2065
2390
1970
2411
2058
2356
2042
2342
1942
2228
1899
2218
1917
2102
1670
1909
1591
1898
1561
2023
1755
2141
1754
2084
1812
2106
1827
2262
1905
2309
1971
2202
1908
2137
1764
2041
1648
1883
1659
1908
1673
1909
1734
2001
1714
2063
1832
2145
1960
2337
1881
2086
1769
1885
1555
1849
1427
1854
1577
1986
1706
2111
1940
2313
2101
2569
2194
2377
1957
2040
1621
1988
1529
1821
1451
1777
1417
1762
1389
1665
1436
1716
1451
1732
1447
1658
1455
1713
1509
1898
1682
1819
1541
1734
1512
1842
1516
1823
1637
1834
1525
1936
1390
0
0
2005
1994
2417
2182
2453
2117
2498
2216
2456
2078
2357
2084
2214
1845
2131
1730
2074
1679
1867
1617
1909
1637
1978
1801
2192
1878
2108
1894
2180
1881
2141
1950
2162
1825
2085
1699
1905
1547
1939
1570
1777
1562
1801
1527
1913
1618
1876
1738
2043
1808
2195
1970
2033
1653
1806
1540
1748
1345
1602
1325
1746
1558
1922
1699
1955
1758
2149
1956
2258
1954
2110
1623
1651
1269
1579
1329
1542
1199
1432
1288
1481
1301
1528
1233
1533
1285
1546
1213
1547
1427
1585
1458
1805
1509
1579
1269
1547
1252
1542
1313
1581
1387
1678
1403
1622
1035
0
0
1719
1746
2101
1882
2194
1934
2310
1848
2146
1739
2017
1609
1834
1403
1749
1389
1642
1315
1578
1405
1758
1482
1874
1701
1960
1720
2025
1728
1964
1586
1924
1523
1922
1485
1693
1415
1608
1291
1710
1361
1540
1323
1634
1331
1805
1512
1874
1594
1926
1618
2029
1689
1853
1351
1523
1246
1515
1126
1498
1195
1675
1429
1789
1462
1775
1470
1830
1601
1892
1642
1794
1378
1450
1097
1373
1103
1390
1034
1288
1024
1399
1122
1453
1068
1386
1046
1322
1093
1406
1256
1448
1214
1691
1360
1438
1117
1385
938
1347
1082
1354
1098
1461
1213
1412
897
0
0
1211
1213
1518
1323
1563
1312
1685
1242
1547
1209
1352
895
1167
859
1161
845
1133
737
1171
895
1317
1054
1431
1277
1613
1280
1531
1215
1489
1125
1326
947
1321
889
1192
901
1190
817
1341
948
1145
1002
1269
1021
1320
1073
1346
1078
1481
1157
1330
1041
1235
884
1101
826
1109
778
1137
789
1268
1065
1274
1037
1162
880
1111
939
1264
1042
1234
810
986
713
981
749
951
618
823
554
919
686
1053
787
1009
680
906
570
934
762
1050
765
1166
837
930
626
880
434
829
614
730
605
945
655
946
422
0
0
0
0
0
0
0
0
0
0
0
0
0
0
0
0
0
0
0
0
0
0
0
0
0
0
0
0
0
0
0
0
0
0
0
0
0
0
0
0
0
0
0
0
0
0
0
0
0
0
0
0
0
0
0
0
0
0
0
0
0
0
0
0
0
0
0
0
0
0
0
0
0
0
0
0
0
0
0
0
0
0
0
0
0
0
0
0
0
0
0
0
0
0
0
0
0
0
0
0
0
0
0
0
0
0
0
0
0
