P2
108 88
4095
0
0
0
0
0
0
0
0
0
0
0
0
0
0
0
0
0
0
0
0
0
0
0
0
0
0
0
0
0
0
0
0
0
0
0
0
0
0
0
0
0
0
0
0
0
0
0
0
0
0
0
0
0
0
0
0
0
0
0
0
0
0
0
0
0
0
0
0
0
0
0
0
0
0
0
0
0
0
0
0
0
0
0
0
0
0
0
0
0
0
0
0
0
0
0
0
0
0
0
0
0
0
0
0
0
0
0
0
0
1588
1562
1956
1649
2045
1743
2078
1803
2145
1869
2042
1753
2130
1882
2129
1813
2103
1794
1994
1690
1871
1687
1974
1611
1773
1529
1709
1451
1754
1390
1684
1280
1670
1291
1666
1338
1565
1224
1557
1166
1574
1242
1501
1258
1573
1315
1525
1382
1733
1453
1840
1579
1933
1477
1716
1321
1412
1129
1483
1141
1451
1103
1335
1061
1470
1154
1424
1100
1385
1106
1413
1237
1524
1315
1602
1333
1501
1112
1425
1046
1297
965
1360
1014
1410
1253
1583
1394
1601
1146
1387
1098
1394
1145
1396
962
1244
986
1460
1078
1349
1045
1156
811
882
396
0
0
1487
1594
1926
1608
2068
1678
2045
1803
2048
1828
2037
1710
2014
1749
2125
1800
2024
1740
1973
1620
1876
1573
1942
1529
1761
1453
1695
1333
1579
1242
1489
1126
1499
1141
1574
1173
1387
1155
1333
1101
1426
1170
1389
1163
1430
1266
1528
1403
1738
1354
1734
1477
1759
1414
1521
1156
1307
1033
1338
978
1306
976
1302
1083
1453
1181
1416
1123
1403
1043
1352
1163
1445
1238
1505
1182
1321
1006
1289
954
1211
933
1218
878
1363
1285
1534
1373
1493
1156
1364
1035
1366
1074
1224
923
1210
917
1442
1179
1386
986
1141
681
752
333
0
0
1803
1826
2298
1942
2390
2059
2435
2102
2493
2222
2421
2104
2470
2138
2459
2181
2505
2171
2418
2050
2277
1963
2325
1942
2181
1841
2034
1719
1930
1711
1995
1546
1937
1593
2014
1602
1829
1554
1802
1553
1881
1565
1879
1654
2064
1847
2106
1847
2146
1797
2157
1924
2315
1805
2059
1609
1713
1513
1879
1482
1893
1570
1989
1682
2165
1755
2011
1683
1965
1562
1914
1638
2007
1743
2006
1669
1822
1452
1771
1426
1710
1410
1789
1570
2093
1925
2154
1956
2088
1634
1933
1450
1770
1538
1758
1392
1740
1466
1974
1717
2014
1525
1770
1266
1417
933
0
0
2231
2274
2696
2485
2839
2491
2865
2543
2818
2562
2764
2487
2821
2514
2763
2554
2746
2413
2581
2277
2514
2173
2410
2197
2210
1979
2096
1865
2082
1755
2057
1659
2008
1697
2057
1858
2026
1671
1993
1713
2096
1835
2125
1849
2198
1880
2103
1803
2114
1819
2120
1810
2129
1850
1977
1746
1893
1547
1877
1666
1911
1673
1962
1746
2021
1696
1963
1571
1786
1495
1718
1568
1854
1675
1755
1490
1758
1337
1535
1386
1627
1421
1708
1494
1965
1778
2004
1716
1852
1379
1691
1299
1705
1285
1578
1253
1534
1285
1841
1451
1783
1343
1557
1166
1239
731
0
0
2058
2087
2514
2261
2699
2290
2825
2413
2642
2391
2660
2419
2704
2289
2642
2319
2589
2242
2410
2030
2259
1767
2097
1888
2006
1674
1858
1690
1906
1620
1892
1530
1949
1770
1938
1557
1892
1597
1882
1595
2015
1734
2058
1706
2025
1669
1988
1562
1996
1565
1919
1705
2058
1747
1934
1604
1910
1458
1813
1615
1931
1622
1900
1582
1917
1503
1724
1371
1690
1258
1620
1412
1706
1395
1644
1368
1637
1190
1483
1263
1530
1236
1533
1363
1867
1622
1855
1426
1621
1146
1480
1090
1402
1125
1411
1103
1314
1141
1541
1162
1565
1145
1298
964
1149
625
0
0
1818
1818
2141
1988
2291
1973
2397
2022
2319
2126
2309
1965
2357
2029
2256
2013
2209
1851
2038
1634
1778
1426
1684
1420
1619
1323
1552
1231
1557
1253
1556
1227
1755
1410
1821
1472
1679
1386
1733
1322
1709
1386
1715
1329
1621
1291
1623
1266
1674
1265
1732
1522
1818
1414
1738
1467
1690
1269
1613
1434
1579
1273
1460
1167
1462
1122
1413
1120
1361
1107
1334
1165
1382
1157
1469
1106
1401
1101
1147
1017
1410
1049
1193
1062
1461
1223
1344
1131
1277
846
1177
858
1085
853
1028
794
1081
783
1234
760
1209
827
1065
754
794
341
0
0
2043
1962
2404
2145
2612
2206
2671
2244
2576
2384
2587
2266
2711
2280
2581
2338
2562
2177
2406
1917
2090
1705
1966
1698
1964
1700
1998
1713
1975
1739
2075
1694
2217
2029
2420
2036
2221
1835
2258
1800
2130
1768
2054
1761
2021
1719
2015
1663
2022
1922
2305
2102
2448
2066
2281
2106
2322
1846
2026
1819
2051
1664
1947
1577
1893
1671
1917
1553
1929
1565
1914
1687
2059
1827
2050
1836
2101
1698
1877
1691
1993
1614
1899
1627
2114
1643
1937
1610
1869
1452
1806
1381
1738
1303
1658
1419
1681
1354
1797
1446
1866
1411
1648
1260
1386
868
0
0
2229
2270
2724
2511
2786
2566
2895
2510
2929
2580
2853
2522
2782
2524
2821
2437
2737
2393
2555
2001
2056
1817
2095
1659
2069
1743
2088
1780
2081
1818
2212
2003
2390
2201
2427
2146
2422
2062
2166
1856
2074
1820
2118
1734
1962
1652
2035
1776
2009
1910
2299
2145
2487
2248
2419
2090
2237
1816
1928
1554
1834
1573
1829
1532
1904
1501
1782
1460
1813
1465
1946
1685
2010
1770
2018
1844
1948
1613
1762
1456
1885
1398
1626
1439
1749
1429
1777
1501
1694
1370
1540
1301
1519
1237
1474
1175
1513
1227
1602
1409
1670
1354
1391
1101
1304
811
0
0
2079
2020
2538
2235
2658
2358
2724
2291
2617
2377
2596
2267
2637
2409
2698
2267
2525
2135
2340
1783
1869
1561
1866
1506
1947
1604
1992
1673
1997
1723
2094
1843
2258
1892
2246
1800
2183
1729
1973
1549
1826
1491
1911
1474
1818
1570
1833
1598
1850
1770
2171
2089
2481
2111
2222
1797
1970
1575
1730
1350
1717
1430
1661
1384
1790
1489
1742
1283
1697
1380
1837
1654
1828
1624
1882
1670
1746
1380
1578
1259
1605
1229
1520
1241
1498
1229
1598
1365
1510
1338
1406
1163
1397
1099
1386
987
1450
1277
1463
1335
1701
1278
1371
981
1202
716
0
0
1842
1803
2237
1992
2345
2138
2427
2108
2440
2114
2291
2018
2230
2037
2270
1963
2201
1818
1997
1499
1621
1340
1609
1303
1713
1496
1790
1470
1765
1524
1794
1630
1911
1634
1788
1513
1747
1451
1578
1325
1562
1237
1650
1322
1594
1357
1622
1381
1738
1732
2075
1928
2168
1897
2000
1467
1690
1354
1494
1149
1474
1206
1511
1226
1534
1289
1513
1166
1458
1218
1709
1410
1584
1338
1602
1381
1475
1111
1330
1003
1354
971
1277
987
1249
1030
1408
1225
1490
1148
1236
962
1288
978
1242
947
1234
1074
1378
1223
1534
1150
1264
846
1115
544
0
0
2064
2030
2462
2167
2628
2299
2698
2296
2735
2333
2661
2307
2568
2255
2642
2225
2475
2112
2298
1801
2066
1741
2103
1661
2155
1851
2221
1901
2274
1956
2290
1890
2211
1810
2101
1828
2119
1837
2106
1727
1996
1657
2098
1746
2182
1918
2185
1929
2243
2155
2597
2383
2725
2245
2445
1776
2064
1756
1947
1594
2034
1774
2122
1780
2252
1816
2186
1777
2061
1734
2156
1849
2058
1795
2050
1710
1914
1607
1782
1467
1862
1562
1877
1502
1881
1661
2088
1895
2128
1794
1981
1706
2006
1680
1888
1487
1881
1722
2004
1826
2116
1751
2020
1508
1800
1278
0
0
2233
2280
2787
2429
2761
2500
2821
2437
2741
2450
2777
2453
2719
2513
2706
2309
2559
2213
2520
2085
2106
1912
2203
1939
2143
1941
2288
2066
2330
2089
2269
1890
2086
1822
2057
1796
2081
1800
2025
1737
2000
1794
2073
1780
2155
1964
2281
1991
2340
2006
2387
2246
2530
2229
2185
1758
1962
1629
1931
1641
1962
1739
2075
1751
2090
1750
1971
1672
1918
1550
1807
1606
1884
1499
1808
1476
1775
1364
1576
1337
1626
1365
1753
1346
1834
1610
1978
1853
2057
1659
1834
1581
1794
1414
1806
1300
1640
1434
1745
1606
1908
1602
1758
1396
1357
1004
0
0
2138
2117
2586
2311
2639
2369
2669
2325
2644
2274
2638
2331
2568
2349
2605
2247
2471
2171
2361
1918
2108
1873
2157
1815
2063
1755
2036
1797
2081
1757
2030
1667
1906
1637
1918
1620
1902
1684
2054
1729
1978
1779
2075
1770
2165
1945
2206
1812
2156
1708
2141
2006
2337
1986
2103
1583
1856
1517
1806
1570
1914
1690
1965
1617
1906
1623
1880
1509
1690
1301
1658
1334
1770
1437
1627
1289
1568
1225
1544
1314
1590
1364
1604
1368
1815
1574
1943
1738
1992
1549
1765
1399
1505
1348
1593
1208
1529
1269
1624
1427
1733
1466
1540
1122
1229
762
0
0
1915
1906
2352
2043
2382
2061
2322
2013
2346
2010
2333
2093
2314
2067
2365
1917
2157
1896
2094
1763
1834
1521
1788
1533
1732
1383
1649
1482
1641
1451
1693
1398
1610
1416
1743
1429
1723
1474
1861
1571
1894
1594
1947
1613
1965
1606
1826
1441
1834
1422
1867
1722
1914
1620
1627
1298
1636
1243
1605
1346
1564
1386
1619
1390
1547
1273
1498
1201
1455
1110
1409
1157
1446
990
1412
1129
1362
1136
1473
1194
1434
1181
1549
1122
1538
1410
1613
1530
1651
1173
1337
1010
1257
1027
1294
916
1293
999
1313
1148
1444
1098
1298
850
985
521
0
0
1723
1541
2001
1623
1910
1497
1847
1429
1704
1346
1757
1392
1755
1525
1972
1643
2030
1742
2106
1749
1950
1711
2023
1719
2018
1685
2025
1774
1949
1759
2094
1793
2049
1773
2094
1796
2133
1940
2269
1984
2390
2136
2308
2021
2224
1885
2146
1807
2174
1770
2154
1898
2226
1913
2063
1737
2087
1803
2038
1690
2051
1780
2068
1647
2025
1668
2039
1670
2005
1618
1941
1641
1997
1578
1972
1694
2006
1741
2033
1710
2092
1742
2026
1554
2021
1698
2056
1942
2167
1594
1861
1454
1757
1381
1810
1426
1719
1509
1770
1560
1931
1465
1713
1274
1456
983
0
0
1917
1825
2148
1809
1957
1740
2050
1778
1942
1538
1826
1627
1898
1678
2221
2018
2182
1860
2051
1855
2109
1729
2073
1792
2114
1769
1965
1754
2023
1750
2074
1818
2037
1922
2161
1952
2261
1988
2278
2085
2544
2100
2208
1814
2098
1709
2034
1741
2004
1739
2071
1818
2010
1741
1890
1627
1837
1598
1894
1703
1901
1584
1883
1670
1889
1627
1871
1549
1730
1467
1767
1438
1724
1558
1789
1513
1781
1669
1924
1642
1805
1467
1623
1362
1640
1373
1764
1604
1755
1321
1525
1194
1512
1239
1515
1259
1558
1229
1511
1226
1498
1228
1354
1069
1270
794
0
0
1750
1621
1900
1568
1818
1585
2005
1681
1939
1549
1853
1378
1778
1714
2194
1889
2084
1621
1914
1690
1990
1652
1973
1609
1986
1648
1919
1617
1901
1707
2078
1826
2205
1917
2156
1877
2293
1909
2172
1998
2314
1938
2084
1746
1994
1645
1906
1703
2036
1705
2037
1736
1955
1677
1821
1675
1824
1634
1858
1537
1861
1446
1786
1520
1937
1610
1949
1617
1724
1371
1714
1356
1707
1410
1650
1463
1754
1482
1754
1509
1747
1362
1573
1292
1574
1326
1632
1327
1610
1219
1402
1115
1515
1155
1492
1190
1580
1190
1335
1067
1410
1033
1190
959
1230
645
0
0
1354
1248
1515
1169
1459
1269
1657
1403
1693
1230
1470
1166
1474
1410
1817
1511
1757
1360
1594
1381
1672
1268
1634
1305
1631
1333
1547
1357
1552
1444
1853
1597
2024
1640
1973
1633
1938
1523
1763
1614
1867
1530
1716
1349
1619
1425
1663
1403
1738
1462
1782
1457
1634
1349
1652
1412
1650
1485
1649
1358
1505
1234
1533
1303
1645
1445
1796
1437
1597
1275
1490
1156
1461
1203
1402
1168
1395
1182
1421
1122
1377
1087
1260
1032
1268
997
1323
1015
1278
948
1146
839
1221
896
1231
907
1172
884
1115
753
1019
881
909
725
954
411
0
0
1597
1434
1629
1366
1680
1434
1931
1677
2013
1513
1785
1464
1877
1702
2148
1846
2036
1629
1871
1624
2028
1579
2010
1746
2073
1698
1962
1794
2076
1779
2325
2053
2477
2088
2301
1986
2203
1741
2141
1840
2218
1915
2206
1786
2108
1760
2170
1893
2252
1981
2426
2114
2352
1959
2255
1994
2258
1981
2208
1916
2137
1770
2048
1815
2235
2019
2405
2021
2162
1705
2001
1717
1990
1655
2002
1675
1949
1621
1905
1578
1932
1561
1889
1594
1801
1604
1882
1504
1865
1465
1832
1435
1749
1506
1717
1421
1692
1474
1705
1407
1684
1418
1677
1457
1620
976
0
0
1749
1672
1938
1589
1922
1627
2084
1844
2125
1716
1930
1615
2164
1850
2341
1994
2212
1836
2086
1742
1929
1754
2162
1851
2137
1842
2129
1834
2216
1974
2305
2082
2545
2188
2324
1875
2105
1842
2011
1783
2066
1786
2020
1751
2007
1758
2039
1734
2205
2077
2449
2263
2308
1970
2285
1985
2308
2058
2287
1872
2059
1716
1895
1718
2010
1872
2230
1818
2012
1655
1776
1534
1853
1516
1721
1483
1653
1393
1602
1322
1685
1363
1611
1408
1622
1290
1621
1446
1746
1399
1521
1268
1523
1324
1609
1200
1586
1362
1546
1325
1478
1214
1483
1241
1395
918
0
0
1735
1658
1850
1499
1796
1445
1909
1661
1972
1514
1805
1463
2000
1767
2173
1769
1992
1620
1814
1581
1832
1674
2058
1814
2103
1807
2089
1797
2039
1783
2133
1945
2315
1992
2187
1770
2056
1629
1956
1705
2010
1627
1944
1594
1891
1646
1910
1689
2128
2002
2393
2157
2317
1897
2199
1830
2269
1894
2238
1742
1908
1650
1780
1546
1906
1751
2114
1653
1904
1455
1657
1465
1754
1368
1693
1332
1618
1290
1524
1237
1620
1223
1492
1269
1498
1224
1650
1464
1723
1340
1546
1185
1448
1234
1543
1165
1589
1329
1550
1242
1448
1225
1493
1241
1353
789
0
0
1343
1252
1542
1194
1350
969
1410
1125
1497
1143
1492
1144
1731
1457
1747
1499
1602
1273
1594
1316
1579
1399
1780
1531
1844
1538
1814
1460
1725
1446
1786
1546
1998
1521
1725
1477
1678
1421
1678
1375
1659
1342
1634
1403
1653
1446
1754
1493
1831
1661
2108
1900
1946
1586
1768
1526
1866
1542
1789
1391
1680
1315
1453
1225
1614
1303
1625
1285
1492
1175
1435
1259
1394
1137
1454
1075
1348
1069
1314
985
1420
977
1269
1039
1271
1083
1562
1348
1557
1141
1411
1033
1325
1006
1253
958
1366
1064
1290
1028
1242
974
1293
972
995
477
0
0
1630
1554
1837
1417
1701
1297
1635
1355
1771
1426
1776
1466
2032
1808
2143
1714
1957
1693
1950
1625
2054
1797
2282
1962
2203
1797
2156
1709
2045
1790
2145
1882
2266
1861
2166
1841
2069
1806
2170
1939
2331
1901
2179
1944
2237
2010
2265
1830
2274
2053
2562
2201
2465
1958
2181
1933
2226
1891
2234
1813
2094
1791
1998
1725
2107
1837
2171
1758
2045
1713
1952
1641
2066
1687
2032
1667
1945
1659
1981
1693
1946
1559
1898
1619
2060
1750
2178
1997
2330
1855
1971
1572
1800
1561
1789
1541
1841
1472
1861
1476
1818
1354
1753
1393
1613
1064
0
0
1849
1796
2050
1614
1881
1547
1882
1517
1890
1556
1899
1698
2185
2061
2358
1937
2245
1879
2235
2038
2314
1954
2230
1895
2137
1851
2044
1891
2141
1918
2218
2017
2254
1913
2188
1890
2202
2003
2330
2117
2407
2018
2290
1968
2253
1894
2214
1837
2257
2010
2338
1997
2206
1918
2106
1768
1938
1770
1942
1662
1981
1655
2010
1739
1955
1705
1940
1631
1924
1496
1778
1578
1836
1594
1845
1613
1953
1672
1878
1685
1883
1562
1658
1462
1767
1643
2054
1885
2097
1523
1682
1326
1613
1339
1435
1289
1526
1257
1469
1211
1426
1164
1437
1170
1349
757
0
0
1700
1572
1781
1298
1829
1297
1682
1312
1612
1255
1798
1411
1952
1911
2309
1878
2177
1731
2105
1818
2068
1666
2053
1594
1926
1605
1940
1662
1993
1698
2048
1783
2069
1762
1938
1700
2122
1834
2331
2106
2290
1881
2029
1686
1994
1662
1998
1563
2082
1864
2182
1801
2056
1661
1866
1518
1754
1582
1786
1511
1815
1522
1818
1556
1822
1597
1842
1563
1882
1461
1781
1490
1701
1440
1833
1486
1813
1613
1873
1538
1702
1381
1630
1338
1617
1482
1783
1687
1858
1269
1514
1226
1397
1121
1307
1068
1496
1153
1323
1051
1288
952
1157
994
1179
591
0
0
1387
1229
1544
1143
1441
1145
1398
1165
1491
1108
1542
1203
1641
1591
2008
1619
1827
1388
1680
1453
1742
1375
1709
1384
1646
1402
1523
1398
1782
1549
1898
1666
1897
1574
1701
1547
1835
1711
1994
1685
1993
1563
1701
1368
1674
1364
1650
1352
1765
1562
1832
1493
1714
1442
1661
1252
1540
1291
1525
1326
1608
1353
1540
1298
1690
1364
1634
1417
1723
1378
1669
1314
1485
1248
1515
1260
1621
1360
1448
1218
1417
1061
1237
1051
1238
1170
1470
1418
1501
1035
1186
1038
1221
926
1080
922
1258
869
1129
837
998
778
983
721
977
356
0
0
1618
1482
1802
1408
1834
1409
1755
1523
1850
1501
2001
1553
1989
1911
2389
1890
2170
1698
2037
1750
2027
1703
2063
1714
1983
1774
1982
1894
2149
1988
2362
2149
2410
2094
2294
1938
2342
2000
2242
2055
2346
1833
2146
1911
2119
1824
2166
1764
2330
2077
2310
1977
2244
1946
2177
1758
2137
1834
2071
1957
2281
1893
2173
1974
2200
1951
2262
1982
2372
2053
2344
1867
2137
1713
2129
1751
2085
1786
2022
1709
1981
1558
1844
1561
1887
1706
1922
1847
2137
1582
1837
1554
1805
1508
1652
1441
1802
1370
1705
1394
1654
1341
1633
1323
1615
939
0
0
1811
1750
2001
1611
1936
1742
1966
1743
2073
1849
2123
1778
2130
1937
2335
2090
2120
1739
1960
1733
1997
1769
2044
1782
2058
1874
2161
1940
2370
2184
2549
2153
2517
2059
2347
1965
2205
1945
2173
1938
2187
1753
2082
1698
1957
1813
2052
1785
2186
2002
2330
2026
2033
1882
2118
1818
2061
1796
1945
1966
2286
1988
2130
1840
2041
1797
2124
1869
2109
1922
2082
1691
1793
1516
1862
1528
1714
1419
1717
1442
1657
1364
1650
1301
1564
1330
1698
1454
1746
1414
1518
1272
1505
1212
1552
1259
1486
1190
1562
1196
1401
1106
1380
1124
1270
824
0
0
1674
1578
1914
1578
1948
1682
2005
1715
2087
1665
1967
1545
1954
1658
2136
1893
2069
1718
1865
1581
1874
1542
1965
1646
1900
1729
2117
1858
2281
2033
2310
1986
2248
1929
2154
1754
2101
1663
2037
1734
2027
1628
1928
1591
1870
1763
1901
1713
2156
1967
2286
2034
2189
1870
2101
1881
2123
1814
2017
1898
2306
2100
2134
1621
1943
1609
1937
1585
1910
1701
1924
1543
1638
1396
1676
1380
1626
1348
1545
1320
1643
1293
1509
1231
1441
1194
1474
1226
1564
1332
1478
1196
1446
1146
1521
1182
1521
1046
1445
1061
1330
1112
1387
1117
1322
742
0
0
1530
1429
1706
1348
1660
1445
1658
1281
1637
1374
1563
1323
1734
1408
1818
1612
1768
1337
1538
1346
1617
1367
1833
1532
1740
1590
1905
1674
2012
1709
1978
1617
1943
1570
1836
1485
1777
1416
1762
1484
1714
1408
1681
1390
1672
1410
1674
1477
1947
1766
2073
1853
1994
1752
2015
1794
1956
1570
1894
1645
1976
1810
1874
1457
1707
1282
1619
1320
1526
1418
1594
1178
1403
1219
1474
1209
1357
1082
1341
1093
1314
1009
1371
1054
1321
1053
1322
960
1437
1103
1287
952
1178
969
1309
1157
1425
998
1386
987
1206
993
1303
946
1178
650
0
0
1758
1594
1897
1485
1779
1533
1851
1517
1790
1554
1880
1590
1948
1677
2069
1887
2148
1642
1941
1586
1995
1828
2191
1988
2178
1898
2267
1924
2255
1982
2366
1970
2198
1880
2214
1807
2205
1882
2194
1883
2267
1832
2164
1829
2130
1892
2138
1945
2448
2382
2644
2314
2524
2095
2430
2128
2397
2002
2124
2051
2327
2220
2363
1877
2139
1732
2075
1721
2004
1787
2026
1712
1951
1714
2058
1723
1909
1601
1892
1581
1878
1566
1908
1624
1858
1555
1897
1637
2082
1749
1883
1525
1850
1658
2014
1808
2039
1733
1989
1605
1812
1601
1901
1589
1840
1282
0
0
1982
1773
2021
1650
1851
1522
1880
1622
1851
1764
2010
1730
2103
1819
2280
1979
2138
1718
1979
1819
2099
1989
2330
2106
2253
1929
2187
1897
2227
1941
2115
1924
2266
1802
2226
1925
2247
1885
2177
1819
2242
1997
2114
1735
2145
1813
2136
1915
2341
2252
2548
2184
2225
1829
2113
1832
2149
1730
1966
1830
2063
1928
2069
1751
1919
1593
1851
1530
1874
1476
1749
1438
1842
1511
1825
1498
1769
1410
1549
1339
1623
1358
1649
1396
1579
1388
1693
1591
1922
1650
1741
1397
1654
1409
1677
1482
1751
1462
1701
1363
1559
1182
1597
1333
1524
914
0
0
1934
1662
1974
1451
1687
1397
1718
1494
1766
1570
1902
1589
1960
1782
2148
1870
2182
1711
1965
1744
2053
1835
2219
1935
2187
1785
2026
1754
2052
1842
2070
1801
2219
1835
2130
1933
2238
1978
2261
1963
2222
1931
2159
1725
2033
1726
2023
1718
2194
2170
2486
2036
2098
1691
1962
1663
2069
1651
1880
1675
1899
1709
1869
1602
1886
1523
1806
1466
1842
1489
1725
1415
1787
1452
1739
1498
1738
1475
1754
1387
1689
1449
1611
1256
1640
1426
1803
1681
1955
1672
1864
1421
1525
1274
1618
1303
1594
1256
1554
1164
1433
1073
1355
1204
1266
794
0
0
1503
1441
1529
1156
1445
1070
1384
1161
1393
1148
1467
1180
1594
1397
1869
1738
1882
1469
1717
1384
1611
1445
1838
1586
1768
1441
1680
1484
1714
1429
1741
1468
1866
1638
1896
1638
2005
1730
1998
1650
1835
1503
1861
1393
1598
1332
1677
1382
1860
1718
2001
1594
1781
1434
1582
1292
1630
1330
1620
1349
1580
1290
1516
1344
1551
1256
1420
1173
1501
1129
1475
1165
1540
1155
1493
1338
1639
1250
1531
1322
1622
1258
1386
1169
1435
1261
1586
1482
1618
1322
1453
1062
1250
978
1221
973
1198
877
1155
786
1015
837
1025
826
920
474
0
0
1748
1518
1869
1385
1710
1332
1674
1378
1700
1386
1737
1360
1876
1658
2269
2038
2331
1871
2140
1764
1968
1645
2117
1829
2084
1813
2093
1766
2138
1816
2090
1930
2286
2027
2308
2083
2329
2058
2334
1929
2210
1914
2101
1783
2117
1829
2156
1814
2228
1988
2377
1950
2162
1767
2161
1838
2197
1853
2114
1776
2037
1759
2092
1768
2173
1771
2039
1730
2106
1770
2114
1814
2170
1816
2257
1999
2262
1933
2280
1929
2235
1797
2010
1726
1979
1725
2115
1782
1995
1725
1991
1534
1834
1481
1757
1438
1755
1404
1764
1342
1668
1325
1632
1309
1515
1010
0
0
1877
1786
2048
1689
1988
1569
1879
1507
1844
1614
1841
1633
2000
1872
2454
2229
2615
2076
2335
1771
2053
1770
2043
1857
2088
1865
2186
1883
2118
1938
2130
1986
2266
1949
2310
1937
2250
2016
2222
1926
2133
1786
2058
1798
2114
1773
2069
1813
2020
1897
2045
1725
2002
1676
2106
1797
2165
1783
1979
1737
1960
1566
1914
1617
1867
1701
1898
1643
1932
1794
2053
1781
1872
1674
2153
1879
2167
1773
1946
1789
2000
1586
1713
1430
1626
1294
1626
1426
1637
1474
1627
1339
1501
1275
1528
1246
1444
1154
1510
1128
1453
1177
1375
1132
1285
741
0
0
1741
1573
1955
1704
1941
1503
1905
1375
1781
1473
1732
1517
1888
1837
2314
2059
2567
2077
2133
1681
1953
1626
1991
1786
2074
1810
2133
1900
2094
1789
2118
1893
2094
1832
2049
1693
2076
1776
2041
1731
2059
1712
2066
1701
2050
1691
1896
1645
1960
1746
1969
1594
1901
1640
2107
1854
2152
1886
2027
1584
1810
1480
1882
1674
1974
1725
1901
1732
1980
1724
1946
1717
1787
1530
1960
1695
1973
1546
1709
1486
1789
1347
1620
1367
1508
1270
1554
1270
1532
1169
1462
1229
1435
1165
1445
1165
1399
1160
1403
1054
1426
1153
1314
1126
1234
717
0
0
1365
1297
1657
1461
1698
1384
1637
1189
1494
1212
1400
1221
1590
1438
1938
1658
2149
1707
1821
1434
1577
1339
1640
1490
1803
1594
1941
1618
1898
1626
1734
1482
1742
1446
1772
1430
1661
1418
1754
1333
1746
1380
1754
1335
1654
1322
1559
1323
1592
1402
1673
1373
1589
1369
1800
1622
1949
1689
1893
1386
1643
1378
1764
1490
1786
1538
1769
1515
1595
1282
1677
1360
1501
1221
1499
1213
1514
1194
1357
1131
1355
1026
1266
1064
1271
909
1222
1069
1173
1012
1170
872
1210
996
1113
867
1242
838
1181
904
1257
1044
1200
921
1042
482
0
0
1656
1523
1914
1709
2101
1770
2033
1602
1885
1511
1875
1586
1955
1731
2270
2020
2485
2002
2223
1718
1970
1684
2074
1953
2325
2026
2430
1994
2281
2014
2154
1794
2120
1819
2139
1781
2117
1860
2165
1875
2202
1922
2274
1865
2229
1837
2212
1837
2169
1829
2237
1803
2109
1844
2229
2218
2660
2300
2550
2101
2397
2024
2357
2014
2266
1953
2246
1913
2082
1858
2025
1770
1928
1707
2004
1719
2034
1614
1909
1629
1878
1549
1942
1618
1841
1421
1808
1569
1834
1572
1815
1453
1794
1443
1764
1499
1776
1498
1856
1448
1916
1714
1899
1563
1756
1166
0
0
1914
1803
2299
1929
2372
2101
2322
1937
1981
1768
2089
1803
2062
1876
2197
2061
2438
2254
2310
1915
2081
1866
2209
1962
2413
2053
2344
2002
2249
1978
2194
1869
2050
1781
2113
1937
2246
1881
2234
1977
2392
2050
2294
2055
2249
2004
2242
1937
2083
1821
2114
1841
2042
1770
2123
2101
2586
2285
2545
2136
2214
1930
2077
1838
2037
1701
1998
1668
1875
1708
1862
1611
1850
1541
1802
1523
1736
1397
1704
1339
1686
1321
1690
1444
1656
1373
1615
1402
1729
1419
1686
1493
1798
1363
1638
1408
1876
1439
1594
1428
1706
1524
1652
1288
1481
920
0
0
1854
1702
2161
1746
2202
1869
2266
1840
1972
1604
1901
1481
1848
1613
1930
1677
2253
1986
2179
1834
2058
1672
2042
1686
2195
1853
2118
1743
1988
1674
2004
1728
1870
1702
2034
1785
2159
1840
2193
1954
2293
2058
2302
1896
2082
1817
2106
1694
1981
1628
1898
1594
1815
1584
1984
1985
2489
2192
2530
2056
2104
1712
1890
1539
1835
1509
1809
1449
1767
1482
1669
1395
1754
1360
1693
1339
1661
1307
1589
1237
1595
1269
1613
1371
1614
1332
1661
1417
1826
1347
1741
1507
1664
1322
1531
1289
1620
1297
1477
1287
1548
1307
1449
1026
1227
584
0
0
1485
1401
1869
1522
1832
1565
1899
1482
1632
1252
1482
1138
1461
1281
1669
1382
1815
1636
1772
1509
1650
1435
1675
1325
1755
1462
1659
1394
1705
1431
1680
1481
1642
1370
1778
1615
2041
1746
2004
1748
2071
1845
1983
1608
1777
1545
1738
1434
1652
1403
1578
1347
1563
1352
1665
1684
2106
1842
2098
1717
1737
1386
1570
1279
1501
1178
1449
1108
1462
1239
1454
1189
1547
1083
1366
1098
1450
1142
1426
1142
1421
1099
1495
1203
1485
1268
1634
1298
1565
1210
1481
1238
1445
1157
1210
1046
1252
898
1231
1003
1332
989
1101
681
898
414
0
0
1739
1645
2034
1610
2077
1757
2043
1785
1993
1580
1893
1477
1853
1560
1962
1778
2180
1860
2037
1838
2114
1796
2059
1710
2107
1773
2123
1838
2171
1813
2210
1918
2140
1852
2353
2110
2596
2251
2509
2090
2501
2103
2491
2082
2257
2028
2218
1972
2217
1815
2143
1820
2105
1877
2258
2198
2573
2266
2482
2122
2189
1844
2087
1777
2065
1770
1959
1641
2065
1816
2041
1797
2109
1707
2065
1676
2189
1826
2158
1809
2178
1832
2178
1910
2259
1975
2230
1889
2074
1765
1972
1630
2004
1653
1734
1563
1909
1478
1773
1494
1893
1517
1732
1275
1581
930
0
0
1867
1809
2183
1764
2077
1815
2217
1938
2123
1749
1937
1563
2009
1741
2129
1866
2269
1898
2142
1816
2162
1897
2222
1786
2094
1867
2100
1859
2157
1947
2226
1898
2282
1936
2260
2193
2557
2245
2324
1962
2253
2029
2295
2002
2164
1919
2041
1749
2007
1682
2093
1805
2045
1826
2232
2095
2220
1954
2142
1905
1986
1740
1864
1610
1917
1635
1787
1532
1863
1610
1837
1582
1938
1540
1885
1603
2084
1811
2074
1829
2055
1805
2073
1761
1975
1674
1903
1522
1740
1302
1632
1321
1589
1305
1442
1296
1543
1313
1661
1373
1649
1338
1369
1111
1301
790
0
0
1747
1564
1889
1572
1836
1542
1835
1673
1885
1486
1778
1526
1933
1590
2027
1712
2167
1742
2019
1681
2133
1780
2133
1787
2007
1709
1960
1722
2024
1910
2139
1802
2094
1754
2186
2021
2352
1956
2165
1860
2002
1754
2057
1717
2014
1714
1925
1698
1951
1645
1999
1737
1990
1732
2058
1802
1932
1658
1917
1625
1723
1576
1771
1589
1836
1495
1781
1513
1835
1550
1919
1691
1954
1588
1974
1625
2134
1831
1975
1883
2013
1650
1843
1477
1794
1384
1706
1299
1546
1273
1394
1146
1424
1190
1426
1146
1450
1163
1636
1242
1653
1207
1318
1002
1240
693
0
0
1416
1249
1584
1167
1418
1136
1525
1253
1483
1294
1581
1304
1690
1411
1695
1386
1855
1642
1844
1463
1846
1684
1965
1549
1670
1452
1802
1444
1828
1585
1978
1627
1866
1520
1789
1682
2011
1706
1809
1536
1754
1511
1770
1490
1773
1470
1749
1385
1709
1411
1904
1556
1756
1410
1683
1483
1658
1346
1522
1321
1522
1295
1587
1285
1595
1339
1647
1386
1677
1546
1808
1540
1773
1430
1741
1352
1741
1464
1669
1507
1700
1234
1538
1189
1320
1037
1224
973
1325
905
1245
918
1201
880
1149
947
1130
1085
1391
1082
1337
969
1108
791
1067
507
0
0
1634
1561
1813
1462
1769
1432
1738
1393
1812
1521
1984
1736
2077
1641
2045
1803
2283
1938
2215
1814
2205
2034
2415
2122
2180
1860
2242
1950
2248
2058
2293
1986
2281
1877
2161
1993
2389
1998
2400
2045
2311
1954
2132
1905
2300
2000
2258
1962
2291
2032
2460
2065
2287
1871
2141
1870
2106
1798
2152
1858
2107
1869
2057
1780
2245
1984
2378
2098
2333
2133
2413
2069
2386
1906
2248
1875
2139
1851
2090
1834
2062
1645
1967
1620
1970
1549
1841
1593
1875
1515
1811
1527
1844
1439
1732
1529
1866
1548
2062
1686
1950
1559
1632
1426
1724
1252
0
0
1736
1626
2060
1742
1963
1560
1802
1634
1864
1762
2145
1956
2220
1869
2124
2033
2294
2129
2270
2001
2241
2077
2420
2042
2266
1965
2197
1934
2154
1850
2261
1930
2161
1883
2143
1893
2192
2090
2557
2172
2354
1878
2132
1911
2150
1929
2180
1899
2160
1992
2237
1906
2085
1675
2035
1746
1945
1709
1918
1701
1965
1733
1963
1705
2093
1857
2205
2010
2245
1915
2137
1786
1890
1570
1865
1542
1773
1501
1749
1506
1698
1348
1662
1278
1649
1334
1514
1360
1668
1349
1609
1353
1642
1327
1628
1445
1732
1449
1636
1444
1673
1305
1419
1181
1413
962
0
0
1694
1540
1979
1592
1891
1589
1789
1458
1826
1613
2106
1950
2213
1894
1994
1956
2184
2034
2184
1845
2069
1835
2237
1878
2202
1798
2088
1777
2094
1802
2094
1707
2088
1778
2075
1730
2100
1938
2378
2199
2366
1950
2138
1831
2164
1853
2154
1845
2139
1833
2082
1739
1960
1613
1929
1722
1867
1608
1834
1567
1911
1704
1961
1640
2005
1801
2009
1741
2038
1740
1997
1569
1722
1443
1654
1435
1642
1333
1627
1361
1575
1284
1528
1235
1637
1295
1594
1386
1738
1429
1669
1362
1665
1421
1691
1424
1669
1492
1618
1343
1557
1202
1308
1066
1293
758
0
0
1381
1378
1684
1433
1740
1371
1558
1297
1611
1458
1830
1597
1957
1514
1771
1564
1911
1626
1819
1466
1739
1452
1845
1546
1797
1449
1704
1474
1769
1426
1758
1392
1686
1450
1738
1555
1813
1610
2101
1884
2117
1734
1841
1551
1826
1435
1826
1482
1713
1509
1701
1510
1630
1266
1659
1458
1624
1338
1554
1445
1822
1578
1740
1374
1747
1335
1556
1379
1587
1258
1619
1210
1462
1143
1410
1162
1501
1033
1442
1099
1341
1074
1298
978
1370
1109
1420
1221
1690
1402
1611
1262
1502
1152
1346
1218
1459
1230
1390
1029
1219
872
1122
837
1051
449
0
0
1614
1593
2139
1817
2156
1736
1925
1603
1808
1623
2070
1836
2267
1823
2057
1780
2192
1911
2078
1796
2037
1764
2065
1798
2146
1850
2109
1802
2161
1722
2223
1874
2165
1861
2165
1898
2218
2026
2630
2354
2589
2203
2370
2006
2195
1859
2197
1811
2187
1841
2170
1866
2129
1765
2082
1909
2203
1909
2071
1926
2234
1962
2135
1801
2132
1767
2054
1687
2074
1659
2128
1801
1915
1622
1965
1637
1990
1572
1951
1605
2019
1610
1786
1621
1978
1718
2130
1930
2309
1988
2330
1850
1974
1613
1822
1691
2033
1724
1938
1514
1742
1504
1653
1266
1619
1018
0
0
1829
1876
2267
2073
2395
2081
2229
1787
1961
1742
2125
1965
2385
2132
2294
1898
2190
2036
2235
1937
2123
1909
2157
1871
2203
1886
2036
1752
2114
1833
2106
1881
2231
1930
2302
1930
2274
2099
2511
2379
2653
2244
2292
1928
2042
1852
2052
1738
2034
1740
2036
1694
2043
1734
2082
1874
2198
1853
2116
1722
2053
1685
1882
1717
1907
1616
1875
1555
1810
1489
1798
1474
1787
1453
1764
1559
1836
1625
1716
1564
1757
1549
1738
1493
1805
1602
1872
1677
2011
1731
1892
1544
1661
1252
1562
1290
1662
1386
1579
1285
1493
1281
1380
1170
1362
778
0
0
1858
1743
2155
1962
2219
1995
2173
1647
1893
1526
1974
1725
2248
2012
2312
1867
2102
1834
2043
1709
2023
1685
2037
1716
2142
1858
2013
1782
2086
1879
2123
1852
2168
1938
2333
1959
2282
2004
2391
2237
2663
2192
2207
1847
2003
1716
1962
1694
2018
1700
2025
1656
2038
1781
2069
1943
2212
1832
2054
1594
1914
1525
1840
1578
1868
1548
1729
1482
1752
1465
1845
1464
1756
1484
1774
1491
1761
1584
1807
1608
1897
1563
1824
1510
1778
1462
1677
1403
1778
1544
1734
1403
1487
1192
1480
1192
1672
1273
1476
1199
1514
1121
1316
1044
1223
635
0
0
1412
1386
1773
1557
1902
1649
1926
1380
1545
1261
1520
1286
1786
1557
1915
1584
1802
1435
1697
1442
1627
1427
1738
1354
1761
1531
1837
1501
1829
1634
1834
1587
1972
1712
2133
1739
1850
1662
2032
1825
2218
1846
1925
1498
1666
1424
1623
1321
1700
1398
1751
1552
1846
1530
1847
1570
1869
1499
1668
1262
1609
1301
1469
1285
1542
1353
1558
1266
1493
1147
1474
1192
1505
1236
1610
1303
1618
1419
1689
1430
1650
1361
1659
1194
1421
1056
1373
1109
1340
1045
1341
1060
1156
909
1250
1003
1412
997
1189
873
1125
882
1102
874
965
451
0
0
1729
1500
1894
1510
2013
1770
2106
1610
1910
1544
1842
1472
1946
1765
2224
1934
2251
1967
2169
1788
2054
1710
2098
1738
2155
1905
2253
2051
2318
2046
2309
2034
2416
2106
2469
2109
2266
1926
2269
2054
2525
2168
2378
1919
2168
1861
2117
1849
2158
1891
2407
2105
2457
2026
2212
1894
2275
1854
2059
1686
1988
1716
1984
1728
2057
1777
2026
1700
2138
1789
2137
1729
2198
1920
2164
1857
2236
1981
2261
1904
2154
1773
2044
1719
1884
1588
1882
1517
1920
1526
1861
1545
1770
1420
1833
1548
1965
1562
1721
1410
1762
1460
1634
1355
1617
1087
0
0
1803
1646
2033
1833
2129
1825
2141
1922
2070
1710
2059
1659
1949
1778
2329
2177
2501
2242
2424
1962
2249
1925
2191
1905
2286
2162
2457
2299
2410
2133
2455
2106
2337
2077
2298
1989
2182
1953
2340
2132
2483
2190
2366
1961
2133
1810
2082
1830
2223
1975
2323
2167
2338
1957
2087
1826
2013
1720
1974
1634
1833
1617
1862
1618
1950
1651
1898
1713
2094
1873
2165
1821
1978
1745
1953
1684
1919
1716
1908
1595
1881
1542
1703
1525
1625
1327
1619
1437
1609
1402
1586
1445
1514
1425
1604
1398
1810
1485
1643
1341
1594
1361
1594
1256
1506
1129
0
0
1634
1527
1744
1630
1934
1620
1990
1669
1892
1570
1855
1546
1853
1645
2070
1983
2364
2128
2406
2029
2146
1838
2166
1813
2159
2041
2362
2156
2366
1995
2199
1765
2102
1743
2060
1749
2050
1760
2228
2044
2347
2120
2366
1885
2061
1652
1954
1661
2114
1808
2083
1877
2123
1677
1867
1598
1797
1530
1820
1518
1797
1505
1765
1458
1867
1634
1841
1746
2107
1864
2085
1813
1921
1501
1738
1405
1591
1409
1693
1290
1677
1315
1530
1350
1544
1202
1501
1320
1469
1233
1495
1326
1451
1339
1540
1318
1717
1425
1531
1316
1626
1371
1591
1211
1457
1042
0
0
1290
1186
1499
1243
1582
1216
1673
1383
1581
1320
1590
1285
1551
1352
1785
1725
2058
1829
2202
1813
1844
1539
1820
1527
1834
1680
2002
1804
2045
1723
1786
1492
1689
1480
1747
1429
1715
1488
1809
1699
2097
1989
2130
1731
1888
1458
1768
1421
1781
1429
1785
1501
1750
1295
1584
1343
1526
1302
1547
1211
1509
1251
1511
1312
1707
1393
1705
1525
1713
1519
1869
1478
1518
1158
1315
1090
1365
1070
1323
1027
1373
1124
1268
1051
1297
950
1244
1161
1293
1052
1257
1168
1317
1125
1245
1141
1541
1217
1371
1114
1375
1083
1243
990
1061
717
0
0
1618
1451
1824
1600
1956
1623
1986
1672
2022
1753
2125
1685
1948
1654
2093
1915
2367
2199
2527
2195
2332
1865
2174
1879
2154
1972
2247
2072
2356
1975
2230
1874
2132
1896
2171
1876
2074
1834
2312
2039
2653
2389
2708
2276
2420
1937
2291
1864
2209
1897
2090
1815
2157
1833
2101
1814
2088
1803
2061
1741
1992
1750
2166
1840
2305
1956
2253
1974
2134
1928
2294
1917
1970
1630
1930
1705
1877
1627
1878
1583
1981
1653
1898
1681
2010
1655
1899
1741
2045
1724
1998
1813
2013
1714
2026
1692
2098
1733
1837
1543
1828
1541
1900
1418
1649
1191
0
0
1956
1867
2248
1911
2112
1914
2167
2001
2369
2104
2378
2014
2234
1806
2054
1878
2325
2229
2590
2345
2454
2100
2310
1882
2143
1923
2321
2066
2237
1961
2160
1979
2155
1922
2186
1938
2173
1989
2325
2149
2602
2525
2731
2374
2498
1922
2106
1810
2011
1735
1965
1788
1941
1669
1878
1790
1985
1680
2004
1701
1911
1690
1914
1802
2150
1797
2018
1633
1958
1655
1947
1628
1753
1510
1723
1458
1701
1526
1654
1499
1802
1578
1826
1599
1884
1609
1866
1697
1915
1540
1856
1594
1840
1535
1781
1514
1777
1453
1553
1195
1493
1197
1531
1158
1393
957
0
0
1922
1755
2125
1878
2134
1848
2164
1771
2250
1899
2201
1848
2094
1613
1885
1606
1973
1789
2285
2052
2288
1999
2053
1684
2037
1742
2057
1793
1942
1849
2061
1771
2044
1743
2111
1931
2132
1924
2259
2026
2552
2366
2564
2204
2279
1813
1933
1643
1899
1584
1850
1581
1840
1568
1884
1674
1889
1605
1957
1582
1861
1621
1874
1601
2004
1621
1774
1410
1684
1469
1760
1520
1654
1315
1608
1318
1640
1437
1645
1409
1755
1589
1866
1672
1873
1557
1805
1550
1776
1352
1670
1387
1615
1320
1509
1402
1606
1330
1465
1042
1328
992
1396
1040
1213
767
0
0
1570
1562
1960
1657
1923
1710
1911
1632
1813
1613
1883
1510
1708
1320
1510
1338
1613
1483
1956
1774
1986
1738
1885
1464
1770
1389
1736
1487
1688
1451
1701
1533
1834
1634
1961
1862
2067
1834
2020
1780
2248
2083
2274
1873
1963
1490
1721
1390
1688
1394
1626
1429
1647
1356
1677
1461
1781
1415
1714
1396
1532
1338
1493
1343
1636
1202
1433
1178
1424
1149
1431
1229
1482
1166
1424
1181
1358
1229
1530
1373
1657
1495
1662
1429
1641
1207
1418
1252
1380
1051
1426
1085
1287
1018
1259
1131
1341
998
1147
905
1053
738
1107
770
1059
585
0
0
1919
1735
2318
1938
2126
1829
2041
1689
2051
1707
1994
1688
1985
1514
1815
1589
1979
1807
2159
2029
2366
2059
2354
1918
2171
1803
2090
1842
2065
1896
2248
1938
2445
2193
2615
2388
2628
2228
2422
2146
2516
2388
2771
2338
2443
1974
2155
1876
2171
1803
2192
1940
2289
1914
2258
2010
2339
1909
2265
1844
2029
1770
2025
1865
2130
1746
2053
1660
1945
1728
2038
1802
2125
1722
2015
1765
2123
1938
2205
2009
2302
2073
2314
1904
2122
1738
2007
1722
1931
1638
2005
1605
1949
1595
1936
1714
1958
1585
1731
1467
1730
1422
1749
1361
1615
1072
0
0
1984
1896
2376
2055
2318
1981
2152
1797
2002
1738
2089
1771
2039
1659
1993
1770
2099
1793
2155
1946
2215
2102
2338
2062
2337
1905
2185
1826
2138
1937
2242
2125
2436
2365
2681
2301
2505
2127
2286
1899
2310
2328
2621
2139
2341
1882
2081
1738
2077
1889
2255
1964
2280
1846
2138
1814
2095
1770
1962
1682
1962
1621
1917
1643
1943
1586
1821
1621
1893
1665
1939
1686
1964
1730
1941
1661
1988
1669
1972
1738
1966
1670
1908
1557
1637
1446
1620
1424
1636
1351
1654
1403
1661
1538
1757
1531
1719
1149
1579
1161
1507
1200
1430
1018
1349
885
0
0
1709
1626
2058
1778
2034
1733
1956
1574
1837
1588
1868
1491
1882
1588
1883
1677
1957
1609
2029
1621
2019
1861
2134
1861
2213
1834
2072
1718
2067
1837
2242
2122
2342
2187
2581
2056
2237
1829
2060
1755
2111
1961
2468
2035
2241
1738
2010
1685
1963
1703
2148
1814
2117
1609
1951
1628
1918
1526
1785
1634
1770
1541
1804
1501
1826
1413
1793
1548
1861
1669
1936
1668
2070
1660
1858
1570
1869
1545
1734
1483
1729
1424
1708
1326
1549
1370
1588
1226
1581
1268
1570
1281
1650
1404
1663
1341
1551
1109
1464
1129
1405
1127
1343
938
1229
749
0
0
1384
1285
1629
1300
1627
1330
1509
1271
1515
1211
1550
1197
1613
1314
1613
1318
1774
1417
1714
1416
1723
1543
1835
1622
2039
1570
1870
1509
1785
1595
1932
1724
2058
1776
2204
1637
1847
1466
1768
1425
1832
1635
2123
1704
1879
1493
1708
1327
1635
1462
1797
1450
1735
1317
1601
1375
1630
1269
1562
1256
1538
1317
1637
1385
1697
1295
1587
1403
1660
1483
1836
1578
1800
1412
1592
1247
1494
1181
1278
1076
1385
1034
1414
1128
1233
1061
1334
1044
1314
1049
1343
1178
1562
1293
1490
1205
1364
943
1358
937
1213
1001
1112
747
1025
583
0
0
1620
1434
1831
1513
1877
1517
1813
1508
1829
1481
1902
1512
1907
1657
1903
1649
2184
1801
2138
1828
2210
1946
2309
2020
2385
1979
2282
1890
2218
1933
2218
2044
2312
2187
2490
2021
2183
1834
2146
1835
2189
1969
2417
2130
2450
1963
2248
1906
2172
1845
2195
1950
2228
1755
2171
1777
2108
1782
2005
1782
2041
1853
2218
1904
2254
1939
2254
1968
2333
2116
2363
2080
2237
1866
2059
1764
1962
1589
1926
1636
1916
1580
1938
1588
1797
1586
1874
1613
1909
1612
2096
1811
2217
1965
2061
1783
1987
1614
2020
1620
1891
1570
1806
1346
1674
1195
0
0
1769
1585
1847
1725
2042
1716
1997
1697
2030
1771
2133
1693
2107
1986
2239
2001
2314
2107
2280
2056
2473
2182
2489
2176
2437
2100
2482
2098
2139
1858
2234
1957
2309
2127
2330
1958
2133
1906
2149
1805
2213
1962
2351
2154
2468
2146
2114
1797
2082
1782
2109
1684
1940
1637
1890
1603
1943
1642
1947
1587
1874
1646
1954
1744
2146
1860
2138
1717
1985
1841
2106
1807
1962
1669
1768
1446
1630
1402
1637
1464
1645
1418
1666
1370
1682
1346
1714
1465
1726
1554
1919
1757
2050
1730
1853
1506
1754
1458
1738
1443
1691
1242
1435
1138
1454
849
0
0
1686
1520
1815
1629
1995
1674
2006
1737
1966
1653
2030
1690
2007
1844
2153
1846
2185
1922
2299
1964
2346
1965
2294
1938
2190
1873
2325
1938
2037
1717
2074
1754
2158
1962
2192
1689
1943
1708
2068
1715
2137
1837
2338
2085
2481
2045
2074
1658
2054
1669
1935
1613
1911
1654
1858
1550
1930
1624
1989
1650
1868
1586
1909
1565
2101
1676
1843
1545
1814
1585
1803
1506
1750
1458
1626
1387
1586
1314
1595
1344
1682
1374
1642
1336
1610
1296
1640
1461
1733
1561
1956
1745
1937
1513
1722
1395
1650
1290
1640
1214
1481
1040
1268
993
1264
775
0
0
1398
1301
1613
1442
1732
1506
1860
1455
1715
1410
1814
1377
1677
1514
1694
1506
1773
1681
1975
1784
1997
1690
1883
1561
1819
1568
1821
1506
1749
1364
1797
1605
1954
1709
1849
1500
1621
1437
1734
1544
1903
1793
2070
1877
2213
1937
1934
1512
1860
1510
1719
1489
1706
1429
1687
1475
1723
1426
1751
1458
1635
1333
1563
1266
1714
1250
1598
1230
1490
1253
1493
1209
1402
1195
1341
1128
1325
1093
1301
1013
1428
1201
1475
1202
1430
1135
1470
1306
1503
1290
1646
1481
1618
1267
1427
1064
1250
961
1311
989
1109
769
1075
739
981
453
0
0
1755
1644
1943
1715
2101
1689
2127
1706
1893
1595
1975
1619
1882
1714
1888
1702
2114
1757
2245
1954
2242
1787
2156
1828
2096
1749
2197
1844
2021
1709
2231
2016
2365
2040
2299
1818
2069
1781
2184
1936
2405
2138
2570
2312
2781
2447
2499
2176
2352
2042
2220
1901
2181
1845
2138
1829
2258
1931
2128
1835
2117
1710
1986
1686
2039
1669
1974
1659
1909
1651
1931
1703
1963
1642
1856
1627
1943
1618
2027
1725
2114
1865
2178
1845
2038
1722
2021
1677
2102
1715
2052
1806
2066
1546
1849
1487
1681
1378
1686
1398
1705
1227
1548
1247
1535
961
0
0
2090
1985
2381
1990
2131
1978
2292
1926
2138
1765
1995
1817
2049
1873
2097
1813
2093
1860
2213
2020
2191
1932
2173
1881
2069
1818
2109
1884
2122
1850
2233
2062
2425
2090
2188
1861
2100
1862
2234
2149
2586
2265
2645
2474
2685
2417
2490
2178
2294
1870
2158
1800
2059
1746
2027
1751
1962
1710
1885
1653
1853
1623
1830
1562
1973
1589
1787
1617
1831
1551
1781
1498
1737
1512
1796
1434
1803
1706
1967
1770
2164
1853
2029
1786
1812
1613
1689
1478
1813
1461
1722
1419
1677
1371
1594
1321
1459
1322
1563
1146
1402
1130
1307
1009
1301
907
0
0
1993
1845
2179
1704
1851
1643
1975
1662
1893
1531
1907
1617
1970
1765
2005
1728
1957
1645
1995
1689
1906
1717
1922
1621
1901
1638
1988
1620
2030
1732
2057
1946
2345
1997
2081
1765
1937
1769
2118
2011
2301
2130
2475
2242
2494
2225
2338
1854
2027
1722
1898
1616
1946
1585
1853
1531
1748
1495
1676
1407
1691
1513
1783
1413
1807
1579
1743
1453
1691
1378
1634
1362
1685
1354
1778
1425
1817
1604
1991
1690
2070
1637
1762
1499
1643
1385
1509
1236
1560
1325
1589
1321
1569
1208
1503
1122
1401
1201
1450
989
1274
1000
1226
946
1186
581
0
0
1541
1499
1720
1355
1482
1201
1546
1234
1650
1220
1557
1287
1689
1477
1734
1539
1682
1349
1608
1301
1526
1290
1616
1316
1657
1410
1698
1378
1719
1489
1879
1824
2090
1744
1708
1410
1622
1432
1720
1553
1928
1623
1917
1806
2129
1757
1921
1537
1659
1222
1643
1250
1541
1324
1522
1227
1480
1200
1394
1123
1432
1237
1404
1190
1606
1387
1637
1291
1447
1204
1509
1236
1469
1230
1618
1367
1730
1478
1618
1354
1635
1182
1393
1101
1247
1017
1198
1050
1284
1064
1409
1004
1282
954
1217
968
1108
917
1141
757
1053
757
997
734
868
525
0
0
1741
1646
1990
1550
1750
1442
1827
1482
1898
1554
1874
1552
1979
1771
2092
1893
2054
1674
1915
1650
1911
1666
2042
1698
2101
1832
2154
1867
2230
1994
2465
2235
2636
2172
2277
1785
1990
1808
2123
1861
2158
1835
2253
2071
2431
2098
2286
1873
2100
1731
2038
1715
2084
1725
2048
1651
2024
1741
2023
1708
2033
1686
1950
1752
2209
1953
2310
1930
2036
1722
2091
1861
2187
1881
2292
1943
2198
1847
1975
1735
2062
1572
1931
1563
1758
1551
1730
1547
1821
1497
1858
1555
1834
1478
1757
1370
1648
1445
1720
1303
1602
1274
1522
1283
1540
969
0
0
1994
1888
2188
1871
2023
1733
2153
1896
2125
1986
2041
1860
2118
1966
2265
1909
2174
1861
2062
1814
2085
1796
2155
1838
2200
2042
2338
2077
2563
2336
2661
2298
2623
2157
2290
1901
2074
1846
2091
1803
2041
1866
2043
1891
2229
2014
2198
1833
2117
1725
2006
1706
1892
1650
1876
1610
1906
1749
1939
1764
2058
1682
2071
1834
2230
1978
2310
1810
2047
1695
2000
1833
2042
1765
2002
1725
1776
1425
1731
1446
1709
1414
1636
1312
1640
1370
1550
1289
1605
1379
1610
1501
1717
1412
1617
1240
1530
1163
1418
1157
1366
1147
1412
1064
1373
833
0
0
1812
1698
2037
1744
1978
1645
1968
1655
1984
1723
1931
1654
1826
1589
1967
1626
1891
1582
1852
1581
1845
1580
2032
1723
2100
1836
2341
2034
2427
2172
2352
2018
2331
1794
1989
1632
1855
1623
1874
1546
1775
1594
1857
1679
2020
1834
2094
1737
2001
1578
1800
1590
1764
1454
1732
1506
1738
1549
1878
1642
2028
1738
2060
1754
2177
1829
2198
1684
1926
1514
1757
1581
1818
1498
1650
1347
1495
1193
1450
1237
1512
1161
1448
1146
1402
1218
1384
1168
1436
1201
1420
1342
1716
1453
1559
1122
1389
1026
1290
1068
1381
1083
1335
932
1139
626
0
0
1548
1506
1842
1633
1831
1471
1752
1432
1605
1419
1541
1339
1558
1366
1557
1266
1565
1322
1557
1406
1650
1427
1858
1541
1958
1682
2039
1833
2213
1915
2109
1676
1782
1388
1557
1354
1623
1273
1578
1257
1561
1282
1575
1423
1752
1647
1933
1690
1957
1482
1744
1462
1517
1266
1465
1207
1441
1255
1513
1508
1878
1614
1966
1657
1893
1499
1870
1288
1506
1169
1347
1212
1430
1098
1315
1066
1207
930
1163
979
1248
1011
1210
946
1218
946
1156
953
1227
1060
1250
1231
1482
1242
1416
1109
1202
962
1162
1008
1306
997
1201
783
1097
525
0
0
1832
1729
2142
1891
2090
1716
2012
1673
1862
1641
1813
1627
1784
1508
1859
1546
1945
1691
2061
1844
2184
1829
2337
2026
2340
2069
2401
2121
2502
2186
2487
1876
2142
1680
2066
1723
2024
1690
2018
1755
1988
1819
2075
1892
2240
2074
2517
2237
2551
2057
2290
1936
2080
1714
1918
1692
1962
1623
1973
1910
2363
2101
2508
2001
2365
1924
2122
1693
2006
1609
1855
1652
1898
1622
1842
1582
1781
1513
1757
1569
1837
1563
1835
1450
1880
1547
1799
1522
1885
1651
1914
1882
2225
1902
2196
1766
2045
1693
1865
1621
1897
1693
1782
1370
1605
978
0
0
2061
2037
2317
2002
2176
1754
2039
1748
2010
1757
1945
1643
1994
1733
2021
1800
2159
1965
2336
2043
2324
2082
2420
2092
2312
1949
2230
2002
2314
2101
2385
1851
2125
1669
1959
1799
2043
1801
2076
1745
2003
1821
2166
1932
2269
2181
2482
2167
2367
1971
2070
1704
1833
1568
1721
1594
1789
1563
1877
1591
2150
1975
2246
1830
2061
1642
1953
1640
1751
1381
1759
1524
1688
1460
1738
1404
1708
1307
1562
1374
1617
1373
1614
1481
1622
1445
1726
1480
1739
1441
1775
1618
2017
1813
1945
1554
1713
1463
1684
1410
1594
1352
1417
1104
1356
797
0
0
1917
1708
2110
1674
1893
1465
1770
1445
1813
1435
1824
1540
1870
1591
1947
1644
2086
1874
2185
1890
2156
1911
2141
1741
1956
1627
1865
1706
2033
1787
2018
1519
1829
1485
1807
1548
1897
1754
2022
1650
1893
1698
2091
1880
2147
1932
2212
1843
2058
1642
1726
1445
1680
1413
1592
1462
1594
1448
1701
1386
1925
1712
1969
1485
1674
1309
1677
1353
1602
1252
1597
1412
1654
1403
1654
1235
1513
1330
1540
1329
1546
1316
1565
1361
1622
1392
1668
1425
1650
1443
1662
1460
1782
1617
1712
1353
1409
1101
1341
1064
1282
1129
1213
898
1047
594
0
0
1520
1396
1713
1439
1524
1123
1419
1173
1493
1196
1547
1339
1730
1516
1819
1486
1936
1653
1820
1584
1848
1531
1706
1335
1642
1278
1563
1463
1670
1458
1619
1197
1597
1303
1533
1384
1730
1533
1828
1437
1690
1485
1683
1506
1802
1495
1818
1460
1662
1274
1465
1121
1368
1161
1288
1136
1398
1193
1492
1170
1578
1249
1554
1079
1416
1109
1374
1097
1446
1115
1483
1353
1505
1243
1477
1115
1435
1152
1498
1211
1474
1249
1546
1275
1448
1155
1392
1201
1324
1059
1367
1160
1491
1101
1340
1034
1162
854
1133
814
997
738
869
645
939
426
0
0
1714
1586
1869
1504
1723
1256
1708
1400
1761
1531
1949
1690
2088
1838
2219
1979
2251
1874
2151
1845
2107
1696
1995
1605
1951
1630
2062
1841
2095
1711
2053
1640
2013
1707
2011
1854
2229
1963
2258
1818
2000
1770
2004
1771
1990
1807
2071
1771
2052
1674
1859
1604
1988
1612
1909
1690
1933
1688
2021
1584
1988
1618
1924
1544
1845
1530
1796
1502
1958
1693
2124
2010
2315
1967
2302
1834
2144
1813
2164
1796
2081
1690
1933
1677
1908
1619
1898
1592
1764
1513
1726
1493
1858
1626
1757
1433
1595
1360
1689
1313
1546
1297
1451
1098
1481
968
0
0
1773
1658
1972
1614
1802
1421
1811
1585
1938
1693
2130
2018
2270
1977
2298
1925
2301
1910
2058
1762
1985
1615
1842
1565
1940
1725
2067
1869
2073
1685
1924
1743
1997
1737
2103
1813
2077
1740
2093
1673
1832
1594
1817
1527
1883
1547
1752
1565
1829
1493
1801
1597
1786
1581
1869
1691
1959
1563
1771
1405
1733
1421
1679
1377
1563
1314
1645
1393
1717
1604
2078
1922
2148
1819
2075
1771
1937
1589
1819
1613
1729
1467
1634
1299
1559
1285
1551
1205
1499
1333
1426
1221
1521
1229
1325
1037
1339
1062
1330
1057
1254
1018
1246
935
1138
587
0
0
1492
1427
1690
1380
1620
1322
1733
1364
1802
1538
1963
1717
2048
1630
1945
1565
1811
1450
1666
1441
1720
1338
1618
1394
1679
1547
1960
1666
1854
1457
1829
1477
1930
1557
1821
1547
1722
1383
1778
1379
1540
1297
1577
1240
1673
1310
1618
1290
1605
1263
1676
1452
1827
1542
1800
1522
1756
1298
1586
1183
1541
1178
1457
1099
1417
1137
1493
1222
1517
1461
1930
1818
2026
1657
1863
1481
1691
1283
1514
1202
1491
1138
1413
976
1290
953
1255
1005
1273
1060
1189
874
1302
1005
1145
898
1205
779
1174
866
1100
786
1091
795
950
494
0
0
1034
969
1203
951
1154
901
1316
949
1361
1123
1393
1053
1385
1051
1283
930
1194
778
1193
870
1210
820
1102
935
1354
1150
1486
1209
1493
1157
1397
1026
1398
981
1278
970
1230
842
1349
937
1101
923
1144
850
1103
827
1093
835
1259
976
1211
1035
1410
1193
1430
1077
1231
817
1115
691
1077
802
981
788
965
747
979
773
1097
1018
1485
1264
1513
1163
1286
941
1061
677
879
582
901
584
869
590
838
557
813
473
797
565
802
433
818
522
721
495
801
359
746
506
594
421
699
342
598
117
0
0
0
0
0
0
0
0
0
0
0
0
0
0
0
0
0
0
0
0
0
0
0
0
0
0
0
0
0
0
0
0
0
0
0
0
0
0
0
0
0
0
0
0
0
0
0
0
0
0
0
0
0
0
0
0
0
0
0
0
0
0
0
0
0
0
0
0
0
0
0
0
0
0
0
0
0
0
0
0
0
0
0
0
0
0
0
0
0
0
0
0
0
0
0
0
0
0
0
0
0
0
0
0
0
0
0
0
0
