P2
108 88
4095
0
0
0
0
0
0
0
0
0
0
0
0
0
0
0
0
0
0
0
0
0
0
0
0
0
0
0
0
0
0
0
0
0
0
0
0
0
0
0
0
0
0
0
0
0
0
0
0
0
0
0
0
0
0
0
0
0
0
0
0
0
0
0
0
0
0
0
0
0
0
0
0
0
0
0
0
0
0
0
0
0
0
0
0
0
0
0
0
0
0
0
0
0
0
0
0
0
0
0
0
0
0
0
0
0
0
0
0
0
1045
938
1336
1065
1493
1210
1570
1299
1662
1439
1650
1365
1682
1309
1485
1161
1493
1211
1472
1240
1518
1414
1778
1515
1774
1573
1753
1499
1836
1565
1947
1594
1988
1544
1858
1489
1700
1345
1658
1268
1671
1426
1802
1690
2062
1789
1916
1626
1842
1509
1888
1601
1907
1461
1805
1583
1808
1599
1960
1589
1813
1352
1483
1136
1499
1162
1459
1203
1540
1277
1549
1302
1488
1179
1385
1097
1290
951
1337
992
1257
923
1315
971
1331
1098
1319
1094
1339
948
1239
996
1342
1157
1454
1008
1217
854
1251
805
1077
845
1083
906
1085
651
0
0
932
950
1250
957
1436
1059
1426
1179
1453
1298
1569
1256
1483
1093
1393
1050
1297
1077
1385
1147
1529
1333
1768
1430
1741
1478
1730
1362
1650
1411
1755
1437
1798
1390
1738
1289
1478
1221
1395
1165
1521
1355
1730
1629
1922
1691
1841
1549
1755
1363
1762
1481
1701
1353
1582
1416
1709
1510
1835
1434
1666
1180
1372
1062
1367
1045
1277
1032
1386
1061
1354
1124
1345
1053
1282
968
1158
894
1213
922
1198
915
1189
810
1195
989
1129
961
1197
957
1223
921
1312
1060
1248
925
1131
709
1134
805
1010
712
1032
770
1003
645
0
0
1256
1169
1573
1197
1648
1339
1734
1403
1846
1674
1953
1629
1913
1469
1710
1419
1766
1497
1858
1608
1981
1765
2162
1819
2111
1834
2043
1730
1962
1826
2176
1796
2201
1818
2163
1691
1893
1605
1858
1610
1943
1729
2198
2088
2461
2154
2291
1902
2130
1784
2167
1898
2203
1698
2089
1828
2061
1902
2301
1867
2170
1680
1947
1563
2001
1553
1805
1495
1827
1485
1861
1563
1898
1591
1852
1574
1773
1419
1757
1429
1729
1422
1767
1442
1812
1503
1673
1531
1851
1563
1910
1434
1754
1541
1770
1382
1651
1259
1653
1318
1619
1208
1628
1348
1683
1275
0
0
1637
1538
1835
1578
1953
1653
2061
1773
2130
1988
2259
1993
2258
1879
2066
1837
2045
1764
2058
1883
2251
1986
2223
2023
2081
1941
2106
1875
2115
1825
2185
1859
2243
1908
2203
1960
2098
1746
2075
1777
2123
1903
2337
2177
2520
2102
2218
1825
2087
1804
2098
1701
1941
1685
1951
1863
2085
1778
2145
1906
2054
1659
1840
1596
1883
1560
1806
1425
1690
1460
1709
1541
1802
1594
1689
1466
1760
1345
1540
1402
1640
1418
1661
1317
1626
1325
1556
1417
1801
1509
1860
1431
1778
1314
1582
1241
1477
1129
1590
1131
1442
1085
1459
1237
1485
1045
0
0
1410
1312
1615
1297
1757
1389
1967
1635
1985
1864
2203
1969
2205
1746
2061
1721
1964
1646
1909
1658
2013
1604
1923
1707
1869
1638
1867
1724
1967
1719
2029
1722
2181
1980
2100
1671
1988
1714
2018
1680
2000
1704
2163
1963
2310
1881
2087
1590
1985
1541
1839
1507
1771
1514
1829
1589
1943
1534
1933
1746
1979
1563
1796
1492
1866
1463
1674
1334
1690
1303
1682
1453
1736
1415
1646
1375
1642
1201
1502
1290
1558
1242
1485
1203
1570
1262
1559
1338
1781
1468
1833
1361
1563
1194
1436
1106
1285
1058
1402
972
1354
973
1256
1061
1356
875
0
0
1106
981
1203
1001
1298
1014
1513
1253
1696
1642
1905
1566
1938
1573
1774
1468
1615
1254
1507
1245
1538
1284
1577
1317
1547
1306
1563
1277
1668
1418
1771
1463
1995
1594
1971
1579
1762
1487
1847
1375
1661
1338
1776
1524
1882
1527
1776
1337
1678
1206
1554
1205
1421
1093
1502
1301
1605
1301
1749
1594
1704
1349
1501
1201
1512
1181
1455
1170
1442
1214
1453
1301
1528
1269
1537
1134
1421
1128
1190
1065
1460
1099
1213
993
1299
1046
1280
1268
1624
1314
1652
1226
1317
982
1106
842
1118
779
1186
665
1073
717
1032
824
962
539
0
0
1275
1090
1442
1154
1601
1234
1797
1514
1996
1941
2229
1918
2346
1874
2122
1786
1942
1535
1861
1526
1861
1605
1919
1678
1965
1714
2022
1781
2155
1997
2362
1981
2449
2201
2517
2078
2249
1870
2310
1830
2115
1766
2131
1898
2221
1970
2241
1812
2057
1829
2055
1719
1990
1643
1923
1827
2214
1963
2315
2165
2369
1940
2164
1774
2063
1852
2077
1698
2071
1712
2070
1893
2285
2010
2163
1891
2137
1733
1936
1770
2101
1766
2024
1683
2122
1692
2088
1917
2339
2013
2373
1839
2068
1537
1837
1572
1817
1461
1840
1394
1742
1306
1618
1321
1538
1051
0
0
1445
1367
1757
1520
1787
1590
2009
1773
2363
2171
2527
2218
2417
2097
2306
1856
2101
1749
2013
1638
1878
1786
2141
1736
2154
1783
2099
1855
2315
2151
2555
2277
2587
2317
2461
2122
2373
2046
2181
1878
2093
1868
2198
1833
2138
1954
2349
1987
2067
1797
2029
1750
2017
1777
2010
1823
2222
2086
2400
2107
2354
2034
2218
1881
2250
1830
2090
1723
2052
1654
2100
1867
2216
1938
2090
1866
1962
1636
1802
1526
2052
1621
1816
1563
1872
1640
2066
1910
2218
1982
2152
1842
1949
1581
1766
1437
1764
1443
1716
1372
1529
1211
1327
1146
1453
986
0
0
1277
1135
1605
1293
1711
1411
1846
1538
2037
1947
2266
1957
2262
1922
2103
1618
1865
1523
1842
1480
1774
1630
2007
1683
2104
1682
1986
1710
2197
2027
2385
2065
2395
1973
2231
1721
2100
1691
1977
1570
1853
1530
1970
1579
2029
1928
2232
1899
1956
1674
1938
1753
2078
1706
1925
1704
2135
2004
2341
2018
2338
1981
2138
1831
2228
1910
2152
1658
2009
1577
1925
1730
1929
1680
1860
1602
1703
1370
1593
1327
1770
1418
1668
1339
1626
1447
1892
1745
2010
1933
2007
1682
1805
1416
1661
1265
1717
1483
1534
1241
1514
1093
1269
1026
1349
866
0
0
1058
950
1398
1163
1512
1289
1597
1364
1838
1672
1954
1698
1846
1508
1612
1262
1554
1258
1582
1288
1627
1493
1835
1538
1940
1602
1762
1400
1808
1687
1999
1800
2046
1706
1773
1429
1665
1421
1577
1341
1585
1274
1734
1477
1869
1776
2088
1745
1909
1687
1893
1653
1842
1603
1859
1568
2025
1896
2171
1838
2117
1755
1971
1669
1982
1707
1926
1563
1794
1391
1707
1365
1573
1306
1515
1285
1418
1110
1357
1072
1473
1115
1370
1045
1341
1170
1590
1492
1882
1650
1736
1352
1533
1114
1357
1083
1379
1141
1266
973
1228
889
1154
896
1258
685
0
0
1347
1259
1717
1447
1897
1523
1913
1537
2098
1862
2303
1991
2189
1733
1977
1531
1873
1627
1996
1702
2151
1944
2346
1899
2358
1933
2138
1717
2164
1987
2428
2066
2344
1875
2093
1765
2063
1817
2133
1781
2057
1755
2242
1973
2484
2329
2622
2267
2389
2110
2406
2109
2407
1989
2344
1911
2404
2292
2597
2229
2589
2199
2449
2099
2594
2142
2501
2116
2360
1887
2139
1755
1987
1733
1978
1639
1889
1632
1828
1534
1958
1650
1921
1517
1892
1677
2114
1986
2333
2113
2301
1898
2025
1605
1794
1433
1850
1605
1730
1418
1710
1427
1882
1569
1962
1426
0
0
1589
1588
2091
1741
2034
1739
2010
1627
2053
1946
2405
2117
2338
1986
2043
1615
1969
1778
2266
2012
2171
2045
2348
2052
2221
1947
2170
1866
2157
2057
2385
2038
2178
1845
2049
1795
2102
1866
2117
1851
2133
1969
2282
2001
2397
2253
2586
2205
2378
1906
2153
1903
2127
1898
2023
1817
2226
2076
2458
2125
2331
1964
2209
1887
2297
1972
2176
1923
2151
1693
1817
1549
1827
1457
1764
1450
1780
1380
1611
1390
1678
1405
1757
1290
1734
1466
1843
1790
2110
1829
1985
1595
1662
1217
1614
1159
1521
1225
1401
1146
1445
1256
1629
1489
1569
1200
0
0
1535
1430
1847
1545
1813
1489
1779
1457
1913
1736
2234
1971
2154
1820
1941
1550
1835
1684
2058
1778
2063
1861
2162
1822
2056
1739
1971
1672
1962
1743
2128
1781
1958
1648
1949
1719
2054
1870
2237
1877
2115
1914
2189
1861
2275
2121
2408
1933
2153
1596
1898
1618
1907
1646
1941
1605
2044
1858
2192
1909
2116
1766
1968
1674
2052
1778
2019
1671
1854
1416
1694
1327
1757
1448
1653
1309
1585
1242
1557
1346
1613
1363
1563
1245
1651
1380
1787
1658
2030
1675
1867
1370
1371
1194
1458
1105
1442
1120
1329
1010
1305
1171
1439
1243
1480
1012
0
0
1325
1167
1538
1174
1467
1131
1413
1165
1645
1474
1906
1684
1878
1541
1712
1194
1480
1338
1685
1496
1681
1433
1734
1509
1734
1387
1649
1446
1618
1522
1849
1549
1675
1461
1849
1625
1993
1744
2051
1640
1885
1530
1858
1532
1970
1734
2026
1565
1846
1358
1659
1371
1546
1350
1514
1302
1759
1463
1846
1545
1675
1409
1604
1434
1671
1409
1595
1285
1553
1185
1430
1175
1477
1060
1524
1221
1418
1153
1490
1213
1456
1194
1531
1048
1442
1325
1576
1558
1774
1357
1448
1016
1205
954
1240
880
1253
909
1101
822
1120
847
1212
949
1217
773
0
0
1454
1206
1653
1316
1634
1302
1770
1471
1932
1706
2157
1745
2050
1686
1940
1474
1810
1538
1962
1677
1933
1714
2038
1764
2070
1741
2080
1841
2036
1933
2334
2011
2170
1851
2206
1996
2400
2187
2393
1926
2197
1922
2130
1898
2224
2056
2376
1949
2214
1762
2054
1721
2045
1802
2036
1750
2149
1898
2138
1773
2117
1807
2093
1697
2107
1748
2088
1707
2045
1653
1969
1677
2055
1690
2126
1837
2097
1790
2091
1797
2203
1873
2146
1670
2132
1838
2228
2132
2417
1832
1986
1486
1757
1369
1802
1424
1717
1474
1677
1410
1772
1349
1682
1350
1629
1174
0
0
1664
1539
1856
1550
1744
1601
2002
1864
2198
1897
2171
1913
2136
1801
2170
1830
1965
1685
1950
1805
2098
1758
2166
1961
2301
1957
2165
1954
2240
2027
2382
2062
2153
1931
2154
1989
2359
2077
2263
1885
2254
1828
2029
1739
2149
1899
2238
1845
2034
1714
1986
1690
1922
1692
1878
1614
1857
1637
1939
1762
1976
1673
1960
1734
1928
1634
1865
1545
1741
1474
1776
1458
1765
1657
1942
1634
1822
1677
1965
1754
2005
1707
1877
1629
1949
1726
2128
1970
2126
1618
1679
1264
1546
1270
1551
1307
1599
1253
1481
1175
1452
1179
1348
1107
1362
909
0
0
1485
1364
1657
1369
1642
1436
1931
1734
2148
1866
2178
1660
2005
1850
2203
1795
1994
1573
1907
1705
2018
1729
2152
1911
2353
2034
2290
1938
2189
2002
2347
1974
2182
1763
1962
1717
2206
1851
2052
1773
2041
1717
1951
1705
2062
1835
2090
1802
2051
1655
1916
1606
1886
1649
1800
1652
1812
1641
1879
1605
1997
1636
1956
1614
1943
1554
1870
1564
1691
1360
1709
1348
1717
1465
1742
1549
1768
1480
1789
1617
1926
1589
1786
1538
1909
1770
2116
1813
2057
1562
1614
1234
1610
1256
1605
1322
1706
1271
1371
1092
1419
1034
1195
1002
1305
717
0
0
1066
989
1330
1028
1302
1098
1523
1410
1865
1524
1812
1499
1773
1614
1922
1566
1842
1490
1710
1445
1753
1401
1874
1678
2085
1826
1993
1706
1806
1641
1978
1563
1815
1333
1661
1410
1798
1451
1677
1483
1714
1379
1629
1330
1705
1624
1893
1543
1757
1357
1593
1277
1540
1323
1618
1374
1624
1482
1673
1460
1723
1524
1789
1445
1642
1346
1662
1340
1546
1266
1485
1148
1442
1211
1437
1216
1424
1205
1464
1204
1503
1214
1380
1190
1552
1429
1834
1507
1701
1258
1362
995
1360
1069
1421
1138
1393
1050
1232
855
1103
921
948
821
1079
520
0
0
1290
1188
1483
1259
1550
1239
1764
1658
2187
1838
2197
1883
2226
1936
2311
2005
2254
1879
2069
1757
2136
1716
2216
2046
2475
2139
2354
2072
2214
1837
2303
1865
2140
1722
2002
1790
2109
1714
2114
1801
2166
1852
2189
1812
2229
2015
2489
2126
2310
1857
2180
1884
2241
1928
2234
1975
2242
1979
2249
2054
2417
2149
2400
2037
2301
1973
2327
1993
2202
1797
2099
1785
2029
1684
2024
1716
1979
1659
1966
1644
2001
1628
1960
1721
2057
1974
2301
1875
2137
1659
1970
1547
1876
1655
1905
1652
1938
1687
1881
1572
1836
1514
1758
1604
1830
1161
0
0
1416
1413
1785
1512
1831
1495
1981
1878
2346
2091
2402
2056
2486
2055
2490
2181
2486
2132
2323
1898
2012
1834
2260
2000
2374
2134
2379
1966
2230
1916
2190
1835
2198
1858
2093
1765
2077
1858
2029
1798
2082
1802
2060
1843
2219
2140
2490
2092
2339
1997
2214
2025
2166
1928
2282
1974
2277
2039
2322
2021
2356
2126
2313
2027
2182
1938
2283
1948
2242
1937
2042
1765
2015
1621
1797
1541
1707
1435
1643
1367
1731
1406
1684
1549
1859
1562
1851
1576
1800
1445
1558
1301
1570
1381
1681
1296
1702
1466
1625
1418
1581
1289
1556
1401
1657
1163
0
0
1384
1374
1687
1442
1773
1402
1898
1770
2237
1909
2256
1853
2220
1844
2225
1898
2230
1897
2027
1702
1875
1683
2054
1815
2138
1891
2150
1796
1978
1698
2026
1741
2048
1788
2075
1758
2109
1719
2042
1773
2072
1714
2065
1795
2209
2119
2438
2119
2324
1940
2160
1870
2108
1806
2187
1819
2213
1828
2228
1842
2164
2034
2174
1866
2107
1868
2225
1837
2218
1832
2032
1813
2050
1604
1879
1475
1722
1349
1573
1269
1662
1290
1604
1453
1707
1369
1661
1330
1556
1239
1494
1144
1418
1189
1477
1103
1513
1222
1429
1149
1355
1159
1491
1357
1582
1049
0
0
1014
953
1370
1153
1365
988
1463
1275
1810
1531
1869
1420
1834
1394
1663
1522
1739
1450
1733
1383
1572
1342
1686
1419
1736
1454
1756
1410
1679
1381
1701
1403
1877
1524
1831
1629
1883
1653
1869
1517
1796
1512
1840
1663
2010
1918
2274
1915
2015
1571
1813
1547
1670
1461
1755
1501
1789
1429
1715
1392
1814
1574
1736
1446
1733
1375
1706
1443
1739
1454
1730
1561
1693
1429
1726
1306
1530
1197
1390
1033
1483
1105
1463
1259
1429
1072
1355
997
1210
901
1258
917
1230
917
1131
818
1193
857
1078
823
1061
833
1252
1069
1205
721
0
0
1298
1250
1653
1346
1686
1306
1698
1546
2103
1805
2082
1637
2024
1633
1925
1577
1932
1705
1936
1557
1951
1666
2124
1805
2069
1699
2112
1713
2035
1742
2049
1773
2274
2053
2490
2205
2455
2166
2421
2086
2469
2052
2333
2132
2523
2429
2750
2235
2434
1930
2235
1847
2199
1826
2158
1922
2183
1824
2169
1765
2117
1890
2114
1803
2129
1842
2185
1829
2156
1834
2081
1787
2241
1897
2245
1880
2143
1818
2075
1746
2038
1749
2154
1856
2138
1590
1819
1522
1896
1539
1783
1448
1701
1487
1706
1430
1717
1336
1718
1336
1691
1253
1735
1521
1840
1302
0
0
1521
1472
1832
1502
1834
1545
1948
1723
2235
1922
2147
1789
2099
1808
2006
1648
2080
1770
2109
1877
2152
1821
2124
1810
2102
1885
2155
2029
2259
1956
2182
1992
2365
2222
2608
2372
2670
2356
2486
2116
2360
2007
2301
2040
2472
2277
2700
2236
2416
1917
2087
1737
2024
1818
2076
1778
1960
1782
1966
1659
1978
1667
2027
1749
1947
1685
1925
1623
1919
1505
1798
1611
1894
1659
1903
1647
2004
1712
1911
1723
2002
1806
1967
1714
1846
1460
1667
1430
1709
1283
1572
1268
1580
1310
1417
1253
1489
1211
1424
1167
1386
1141
1482
1318
1567
965
0
0
1380
1243
1541
1151
1746
1282
1753
1518
1956
1585
2002
1459
1812
1578
1888
1502
1942
1635
2056
1744
2002
1636
2058
1651
2036
1802
2213
1970
2259
1890
2133
1851
2201
2006
2293
2118
2500
2053
2312
1911
2080
1740
1981
1716
2173
2041
2469
1947
2246
1800
1978
1609
1931
1592
1851
1538
1793
1626
1834
1527
1817
1521
1822
1563
1809
1570
1794
1482
1770
1357
1709
1454
1698
1433
1780
1377
1673
1477
1778
1507
1819
1672
2006
1675
1781
1417
1531
1364
1618
1170
1499
1227
1404
1130
1316
1072
1495
1149
1321
1049
1298
955
1202
1114
1355
738
0
0
1077
918
1305
989
1345
1130
1482
1397
1825
1396
1713
1234
1517
1296
1620
1267
1643
1423
1845
1615
1880
1514
1864
1549
1861
1698
1889
1786
2125
1794
2001
1655
1859
1619
1867
1798
2068
1818
1893
1435
1737
1425
1669
1412
1837
1689
2053
1681
1902
1487
1645
1335
1650
1425
1675
1284
1578
1333
1555
1316
1578
1358
1586
1341
1690
1317
1522
1236
1492
1147
1469
1186
1403
1190
1446
1117
1430
1177
1325
1189
1556
1391
1661
1419
1467
1241
1401
1304
1454
1105
1298
1130
1287
990
1136
989
1306
908
1149
853
1013
801
1030
821
1109
468
0
0
1333
1189
1563
1232
1721
1371
1839
1748
2138
1740
2142
1618
1970
1769
2154
1707
2153
1906
2402
2149
2401
2021
2316
1911
2198
2024
2285
2190
2387
2071
2302
1962
2177
1958
2283
2043
2468
2063
2166
1867
2157
1748
2139
1956
2250
2068
2485
2023
2407
1970
2102
1846
2214
1987
2260
1866
2231
1903
2102
1903
2202
1903
2285
2074
2218
1890
2134
1764
2086
1730
2059
1672
2024
1659
2074
1653
1950
1670
1964
1733
2152
1900
2224
1861
2066
1799
1959
1869
2226
1761
2030
1732
1962
1662
1829
1610
1950
1482
1763
1424
1677
1377
1707
1446
1753
1034
0
0
1506
1460
1746
1386
1746
1635
1988
1924
2332
2073
2301
1931
2293
2014
2298
2061
2245
2053
2405
2246
2504
2183
2314
1939
2184
2005
2294
2050
2389
2054
2309
1861
2212
1838
2289
2012
2277
1974
2128
1829
2092
1722
2093
1738
2050
1973
2294
2006
2237
1861
2105
1877
2037
1978
2258
1966
2213
1937
2031
1926
2195
2005
2277
2021
2159
1835
2113
1802
1942
1701
1879
1570
1749
1505
1844
1498
1652
1369
1713
1522
1869
1687
1967
1490
1670
1390
1753
1513
1846
1574
1714
1451
1697
1437
1819
1531
1714
1365
1685
1274
1442
1154
1470
1246
1387
904
0
0
1330
1250
1605
1288
1681
1496
1984
1884
2360
1943
2216
1795
2212
1855
2202
1898
2182
1966
2238
2080
2379
1929
2176
1717
1918
1723
2088
1794
2121
1785
2038
1738
2000
1741
2102
1787
2140
1653
2003
1681
1986
1618
1933
1620
1931
1897
2134
1949
2226
1805
2034
1866
2177
1979
2249
2037
2289
1997
2165
1953
2290
2141
2308
1889
2212
1845
2158
1781
2020
1725
1941
1605
1713
1450
1700
1369
1605
1342
1572
1431
1855
1586
1765
1372
1501
1225
1506
1230
1560
1386
1562
1297
1571
1326
1750
1402
1714
1205
1579
1154
1388
1171
1461
1202
1378
770
0
0
1192
1083
1379
1058
1394
1278
1679
1512
1989
1714
1837
1538
1906
1528
1832
1562
1765
1451
1803
1748
2029
1642
1914
1506
1660
1469
1762
1522
1810
1458
1763
1453
1806
1498
1861
1554
1801
1396
1745
1473
1710
1411
1700
1434
1749
1585
1965
1780
2066
1624
1826
1669
1970
1829
2122
1906
2092
1751
2097
1799
2050
1874
2053
1749
2037
1608
1962
1651
1813
1630
1798
1391
1602
1373
1554
1234
1370
1085
1380
1181
1493
1258
1611
1200
1385
1076
1330
899
1326
1043
1287
978
1213
1029
1379
1178
1418
996
1395
996
1220
1027
1333
955
1157
613
0
0
1435
1283
1627
1270
1621
1467
1951
1815
2197
1907
2093
1664
1971
1629
1943
1730
2049
1681
2130
1870
2237
1897
2091
1812
1986
1718
2100
1805
2118
1801
2226
1882
2158
1942
2346
1931
2245
1896
2226
1929
2295
1862
2216
1918
2294
2176
2516
2317
2606
2289
2420
2130
2470
2152
2501
2179
2455
2121
2301
2206
2397
2257
2486
2092
2370
1965
2310
1965
2237
1993
2231
1930
2163
1907
2178
1782
1933
1622
1922
1634
2010
1800
2169
1815
1949
1576
1860
1503
1876
1579
1800
1476
1815
1602
1901
1627
1828
1526
1826
1491
1741
1588
1898
1579
1812
1255
0
0
1651
1449
1783
1514
1780
1529
2019
1933
2250
2091
2164
1725
2020
1658
2026
1710
1943
1701
2098
1982
2182
1892
2093
1815
2022
1780
2100
1861
2203
1904
2094
1941
2360
2005
2486
2129
2344
1973
2309
1970
2345
2085
2242
1922
2407
2171
2570
2300
2525
2150
2288
1947
2123
1847
2156
1832
2151
1771
2045
1886
2056
1909
2119
1839
2020
1698
1953
1642
1980
1565
1840
1537
1972
1655
1949
1561
1812
1444
1594
1416
1782
1655
2012
1690
1734
1428
1623
1382
1591
1339
1531
1257
1546
1290
1499
1245
1499
1230
1513
1210
1483
1179
1621
1330
1527
963
0
0
1544
1291
1701
1307
1641
1418
1853
1778
2117
1870
2041
1593
1882
1594
1851
1532
1918
1610
1990
1787
2025
1691
1966
1670
2013
1717
2007
1800
2163
1986
2218
1957
2434
2141
2489
2218
2420
2131
2458
2164
2381
2062
2325
1965
2354
2102
2420
2069
2354
2033
2180
1763
1972
1674
1977
1666
2054
1662
1903
1689
1882
1699
1885
1634
1924
1572
1847
1501
1861
1506
1734
1422
1818
1513
1807
1544
1787
1554
1854
1529
1922
1838
2067
1628
1859
1488
1706
1401
1544
1255
1545
1227
1403
1177
1492
1157
1462
1146
1453
1099
1418
1118
1409
1218
1306
886
0
0
1083
1037
1225
992
1387
1071
1467
1370
1680
1389
1595
1213
1551
1259
1604
1410
1581
1285
1636
1341
1560
1364
1707
1433
1674
1434
1740
1645
1992
1769
2068
1755
2153
1963
2242
1943
2226
1908
2197
1862
2010
1646
2007
1591
1867
1631
1962
1618
1950
1583
1723
1365
1658
1408
1594
1301
1623
1326
1640
1410
1648
1355
1557
1365
1575
1287
1442
1195
1493
1092
1403
1117
1519
1168
1513
1342
1676
1338
1645
1485
1902
1681
1890
1609
1738
1393
1530
1241
1261
949
1188
933
1187
946
1190
950
1194
893
1172
795
1051
912
1098
855
965
586
0
0
1357
1131
1555
1189
1616
1303
1714
1524
1914
1573
1828
1389
1877
1609
2119
1804
2065
1662
2035
1733
1998
1718
2191
1872
2139
1920
2266
2050
2541
2269
2505
2245
2534
2289
2597
2361
2554
2231
2514
2109
2346
2011
2181
1906
2270
2006
2318
1919
2236
1868
2202
1813
2091
1740
2151
1821
2169
1839
2157
1918
2233
1934
2200
1816
2205
1801
2081
1757
2090
1669
1946
1681
2107
1794
2238
1958
2222
1929
2313
2053
2509
2222
2532
2250
2418
2027
2237
1735
1844
1527
1870
1493
1828
1478
1768
1466
1818
1509
1864
1413
1741
1391
1681
1350
1570
1110
0
0
1556
1477
1781
1482
1851
1509
1867
1611
2026
1776
1929
1650
2000
1865
2417
2130
2476
1961
2312
1870
2252
2027
2302
2088
2301
2090
2442
2198
2517
2351
2467
2207
2410
2137
2580
2221
2492
2189
2352
2036
2205
1833
2086
1850
2180
1874
2152
1851
2026
1835
1975
1678
1973
1656
2084
1734
2061
1717
2056
1975
2308
1896
2139
1740
1950
1792
2011
1740
1938
1666
1856
1624
1803
1642
2096
1783
2057
1686
1936
1915
2299
2048
2281
2024
2174
1745
1934
1605
1730
1521
1682
1413
1568
1316
1573
1332
1594
1381
1762
1316
1565
1218
1394
1147
1321
836
0
0
1543
1429
1826
1546
1773
1355
1821
1431
1962
1649
1821
1545
1890
1852
2357
2066
2558
2101
2267
1943
2289
1996
2340
2059
2294
2002
2307
2047
2301
2034
2306
2001
2181
2002
2299
1955
2282
1901
2124
1789
2095
1725
2074
1719
2073
1739
1949
1688
2001
1781
1995
1621
1910
1651
2085
1746
1992
1780
2128
1916
2271
1922
2202
1856
2099
1871
2066
1871
2020
1640
1805
1617
1756
1501
1885
1584
1850
1461
1707
1626
2117
1818
2153
1894
2006
1712
1900
1530
1754
1371
1651
1402
1563
1266
1563
1341
1678
1538
1798
1355
1554
1129
1253
1098
1230
754
0
0
1313
1295
1659
1397
1540
1190
1480
1183
1629
1369
1450
1207
1568
1462
2029
1764
2245
1855
2085
1813
1970
1714
1907
1620
1828
1578
1896
1530
1866
1677
1813
1544
1819
1606
1979
1622
1787
1508
1813
1371
1777
1382
1750
1341
1691
1377
1627
1425
1717
1559
1826
1493
1680
1465
1861
1574
1805
1597
2010
1741
2101
1777
2033
1633
1903
1655
1903
1634
1657
1253
1602
1306
1492
1201
1457
1156
1457
1173
1415
1301
1657
1380
1618
1402
1613
1218
1478
1269
1382
1227
1371
1053
1363
1162
1324
1188
1673
1343
1674
1225
1326
913
1009
765
954
456
0
0
1691
1593
1954
1665
1931
1505
1773
1460
1877
1524
1809
1484
1883
1768
2426
2199
2660
2193
2521
2074
2288
1909
2178
1899
2165
1822
2230
1783
2135
1963
2164
1820
2169
1933
2288
1903
2197
1919
2216
1882
2178
1874
2230
1865
2290
1947
2361
2043
2431
2125
2522
2052
2306
2034
2371
2213
2512
2169
2599
2364
2732
2264
2504
2096
2321
2025
2322
1970
2121
1833
1972
1732
1911
1705
2005
1730
2070
1711
2056
1828
2098
1750
2094
1754
1985
1575
1937
1654
1917
1658
1883
1514
1863
1574
2002
1851
2231
2007
2320
1692
1872
1466
1602
1320
1605
1099
0
0
1925
1825
2255
1790
2114
1742
1933
1631
1818
1658
1954
1690
2042
2005
2466
2346
2671
2458
2533
2140
2234
1951
2216
1867
2230
1860
2177
1846
2125
1917
2184
1893
2084
1850
2198
2025
2326
1972
2302
1972
2337
1961
2234
2103
2425
2252
2505
2266
2457
2200
2478
2146
2261
1947
2225
2030
2345
2029
2457
2258
2405
2062
2149
1878
2066
1730
2021
1689
1897
1698
1840
1597
1845
1557
1830
1617
1924
1657
1989
1590
1866
1412
1721
1476
1670
1392
1619
1397
1701
1356
1590
1397
1745
1384
1797
1725
2295
1909
2004
1597
1605
1274
1413
1131
1421
973
0
0
1769
1597
2005
1492
1874
1449
1810
1444
1718
1466
1802
1433
1924
1858
2294
2012
2490
2174
2345
1933
2086
1682
2034
1641
2111
1768
2052
1698
1971
1687
2042
1769
1917
1771
2122
1895
2288
1986
2299
1996
2266
2005
2309
2057
2386
2152
2442
2059
2353
1965
2201
1837
1946
1649
1965
1764
2114
1837
2362
2094
2245
1837
1963
1581
1852
1514
1818
1458
1787
1493
1678
1396
1766
1408
1812
1570
2004
1716
1981
1525
1733
1306
1602
1334
1545
1204
1512
1269
1669
1165
1523
1301
1494
1243
1621
1562
2029
1762
1867
1455
1478
1165
1385
1067
1356
798
0
0
1271
1180
1606
1205
1483
1157
1439
1069
1366
1140
1449
1162
1606
1587
2057
1692
2006
1804
1901
1549
1622
1403
1669
1327
1754
1466
1690
1458
1812
1574
1833
1629
1782
1522
1962
1803
2215
1933
2206
1917
2184
1916
2102
1868
2150
1908
2047
1723
1901
1610
1742
1467
1605
1341
1554
1390
1708
1538
1992
1773
1869
1509
1634
1306
1515
1189
1461
1131
1505
1274
1480
1219
1604
1203
1621
1502
1945
1650
1872
1445
1549
1083
1414
1078
1285
989
1320
1013
1306
954
1236
1033
1273
1086
1320
1348
1697
1384
1640
1186
1305
945
1189
900
1229
789
0
0
1455
1369
1752
1322
1793
1426
1661
1426
1765
1520
1949
1602
2053
1848
2258
1950
2253
1938
2103
1861
2069
1757
2068
1754
2187
1868
2249
2033
2450
2129
2538
2228
2430
2138
2618
2344
2805
2505
2825
2411
2749
2276
2644
2326
2574
2311
2403
2115
2354
1911
2206
1874
2114
1810
2075
1882
2289
2149
2539
2277
2340
1938
2142
1826
2089
1811
1997
1709
2164
1909
2118
1861
2229
1947
2455
2197
2733
2309
2549
2070
2253
1736
1980
1642
1915
1594
1870
1593
1835
1576
1821
1515
1924
1640
1853
1833
2328
1954
2133
1627
1855
1531
1903
1598
2021
1365
0
0
1554
1521
1942
1565
1906
1645
1997
1725
2025
1805
2105
1737
2166
1911
2271
1889
2198
1843
2130
1803
2116
1837
2225
1902
2307
2130
2409
2229
2597
2405
2676
2327
2668
2257
2530
2415
2754
2516
2700
2320
2512
2164
2376
2118
2325
2060
2117
1818
2078
1733
2114
1806
2018
1722
2034
1867
2147
2109
2428
2194
2213
1869
1962
1718
2031
1763
1945
1720
2077
1792
1997
1731
2136
1861
2312
2098
2542
2169
2341
2004
2102
1701
1853
1467
1658
1389
1690
1398
1687
1274
1610
1302
1581
1319
1505
1462
1837
1653
1917
1397
1561
1346
1558
1470
1746
1234
0
0
1444
1314
1731
1512
1819
1547
1833
1681
1965
1666
1957
1654
1970
1620
2042
1625
2001
1608
1954
1675
2085
1672
2098
1933
2333
2136
2421
2237
2570
2404
2562
2178
2403
2005
2378
2173
2484
2158
2462
2110
2163
1815
2076
1762
2076
1776
1965
1749
1995
1666
1978
1674
1911
1629
1965
1781
2097
2045
2389
2064
2045
1814
1984
1809
2062
1723
2029
1805
2116
1791
2091
1818
2116
1830
2294
1981
2443
2058
2123
1985
2087
1682
1788
1366
1710
1385
1765
1437
1724
1425
1490
1201
1453
1205
1466
1230
1613
1386
1761
1189
1529
1186
1458
1276
1595
1043
0
0
1172
1061
1530
1225
1541
1293
1698
1434
1688
1473
1656
1268
1565
1302
1606
1205
1589
1409
1739
1492
1859
1591
1892
1658
2002
1905
2282
1945
2325
2007
2249
1800
1995
1621
1877
1738
2034
1749
1925
1650
1810
1549
1799
1529
1815
1515
1799
1439
1717
1385
1835
1477
1712
1448
1829
1729
2043
1869
2075
1821
1907
1598
1875
1563
1837
1539
1822
1570
1858
1658
1839
1538
1799
1513
1915
1605
1995
1626
1725
1527
1773
1353
1645
1285
1480
1269
1533
1348
1722
1235
1464
1063
1282
927
1172
980
1206
1186
1427
975
1189
911
1155
918
1245
693
0
0
1483
1469
1852
1590
1909
1576
1925
1613
1986
1571
1867
1514
1834
1476
1908
1582
1956
1624
2071
1889
2319
2041
2362
2178
2414
2205
2609
2319
2649
2394
2461
2003
2265
1892
2182
1979
2317
1892
2311
1962
2248
1930
2146
1911
2288
2034
2352
2068
2339
2018
2446
2106
2429
2131
2513
2319
2642
2372
2702
2294
2420
2089
2260
1960
2356
1979
2299
2006
2253
2021
2258
1921
2293
1901
2344
2105
2408
2026
2133
1811
2080
1718
2058
1746
2166
1858
2266
2112
2402
1978
2165
1794
2015
1530
1758
1534
1909
1607
2059
1570
1802
1468
1595
1405
1698
1238
0
0
1674
1596
2086
1819
2010
1586
1869
1749
1942
1676
1866
1580
1882
1658
1983
1817
1973
1801
2134
2102
2453
2204
2415
2037
2364
2158
2395
2149
2422
2096
2381
1917
2120
1874
2146
1890
2137
1945
2346
1922
2142
1777
2098
1870
2090
1937
2306
2100
2333
2149
2452
2217
2466
2106
2515
2283
2532
2279
2411
2038
2104
1754
1948
1672
2009
1657
1910
1701
1972
1661
1899
1606
1800
1568
1933
1732
2036
1718
1850
1514
1691
1362
1693
1338
1778
1589
1933
1875
2202
1829
2003
1673
1854
1426
1637
1448
1784
1523
1650
1363
1566
1218
1349
1093
1324
879
0
0
1671
1439
1882
1509
1783
1466
1730
1448
1792
1437
1748
1493
1800
1634
1892
1837
1973
1795
2084
1970
2333
2053
2299
1810
2150
1835
2165
1874
2233
1932
2182
1725
2083
1769
2081
1729
2078
1850
2162
1886
2070
1788
2077
1785
2133
1915
2376
2185
2511
2205
2493
2169
2389
2011
2333
2198
2401
2123
2239
1773
1899
1541
1770
1474
1835
1578
1749
1481
1822
1541
1814
1466
1709
1448
1710
1565
1844
1554
1792
1422
1587
1286
1539
1246
1699
1463
1888
1748
2086
1729
1898
1531
1765
1453
1687
1458
1786
1622
1706
1357
1541
1177
1278
1024
1253
737
0
0
1352
1218
1444
1155
1456
1109
1385
1194
1510
1264
1469
1134
1527
1275
1757
1618
1867
1493
1733
1532
1968
1695
1943
1470
1687
1410
1732
1500
1809
1480
1807
1431
1713
1463
1766
1608
1867
1605
1970
1633
1866
1602
1861
1632
1938
1645
2181
1956
2217
1989
2134
1882
1933
1514
1943
1845
2088
1746
1824
1512
1690
1339
1517
1209
1636
1227
1442
1256
1498
1170
1540
1197
1487
1182
1447
1238
1633
1210
1605
1201
1381
1086
1296
981
1378
1170
1542
1334
1757
1386
1529
1162
1430
1117
1390
1373
1700
1477
1606
1198
1334
936
1152
858
1060
466
0
0
1607
1417
1802
1386
1695
1348
1651
1450
1739
1527
1834
1462
1907
1657
2134
1973
2275
1845
1988
1785
2146
1934
2157
1765
2067
1820
2137
1863
2216
1774
2276
1922
2200
1910
2253
2042
2381
2118
2592
2202
2431
2186
2528
2229
2429
2121
2530
2233
2646
2249
2504
2082
2282
1911
2292
2234
2542
2157
2178
1860
2050
1754
1969
1712
2086
1751
2037
1670
2064
1641
2113
1812
1962
1666
2001
1693
2071
1693
2080
1690
2052
1605
1749
1563
1907
1649
2053
1828
2142
1750
2054
1628
1845
1595
1949
1970
2372
2050
2251
1826
2006
1698
1774
1357
1684
1089
0
0
1898
1770
1961
1608
1879
1625
1938
1702
2030
1866
2141
1818
2185
2021
2345
2061
2304
2002
2135
1882
2135
1964
2191
1840
2139
1858
2104
1898
2284
1981
2245
2021
2356
2056
2474
2180
2532
2281
2580
2318
2564
2250
2455
2155
2230
2014
2226
1970
2311
1981
2209
1794
2114
1845
2299
2124
2397
1933
2091
1638
1931
1583
1833
1705
1928
1666
1930
1584
1821
1490
1800
1506
1829
1508
1820
1634
1912
1695
1757
1576
1706
1458
1608
1328
1627
1430
1701
1497
1781
1450
1629
1377
1595
1290
1732
1566
1973
1690
1906
1652
1826
1567
1617
1349
1528
932
0
0
1909
1674
1888
1499
1712
1552
1932
1684
2140
1854
2241
1807
2194
1896
2228
1854
2121
1781
1956
1652
2005
1689
2035
1693
2090
1834
2082
1989
2388
2196
2427
2139
2410
2128
2527
2218
2569
2273
2537
2231
2550
2111
2234
1938
2075
1777
2025
1786
2116
1774
2056
1641
2027
1854
2269
2169
2358
1850
2027
1575
1914
1545
1885
1662
2004
1734
1904
1582
1798
1491
1892
1516
1810
1562
1897
1643
1873
1636
1801
1530
1722
1332
1594
1302
1601
1323
1581
1320
1660
1380
1577
1327
1472
1243
1589
1326
1825
1467
1737
1483
1778
1374
1570
1300
1490
894
0
0
1501
1390
1616
1242
1525
1328
1806
1528
1902
1674
1876
1476
1794
1409
1677
1370
1641
1305
1595
1387
1604
1410
1732
1333
1723
1494
1869
1690
2166
2039
2238
1929
2210
1861
2278
1963
2157
1966
2210
1801
2030
1636
1796
1474
1687
1446
1650
1350
1719
1357
1635
1370
1690
1536
2038
1867
2114
1636
1762
1386
1765
1483
1681
1550
1871
1724
1899
1509
1629
1243
1594
1313
1619
1374
1813
1522
1785
1506
1693
1335
1447
1115
1458
1077
1359
1036
1401
1165
1403
1066
1332
1052
1165
935
1256
980
1399
1066
1339
1035
1262
1014
1262
1092
1258
760
0
0
1904
1648
1930
1416
1862
1647
2101
1769
2197
1891
2128
1620
1957
1626
1947
1584
1911
1689
1995
1703
2014
1690
2083
1735
2138
1870
2253
2173
2597
2409
2668
2313
2558
2170
2541
2265
2508
2164
2387
1992
2270
1874
2165
1839
2157
1875
2139
1854
2125
1769
2171
1818
2244
2065
2538
2368
2722
2219
2383
2014
2359
2137
2421
2197
2562
2287
2487
2064
2362
1930
2291
1899
2377
2140
2426
2120
2455
2140
2351
1890
2050
1636
1960
1733
1950
1714
2053
1746
2153
1723
1962
1578
1782
1412
1788
1441
1830
1509
1781
1475
1794
1463
1655
1438
1790
1309
0
0
2090
1978
2289
1979
2199
1859
2185
1998
2206
1867
2194
1723
1933
1681
2091
1771
2033
1810
2120
1796
2141
1884
2206
1957
2310
2149
2429
2328
2582
2421
2761
2314
2420
2090
2329
2056
2306
2062
2364
2007
2186
1846
2116
1854
2128
1845
2133
1856
2197
1847
2114
1986
2319
2221
2614
2448
2610
2241
2453
2110
2337
2154
2421
2182
2519
2182
2384
2094
2293
1950
2223
1941
2190
2052
2322
2025
2225
1993
2128
1733
1899
1525
1717
1595
1777
1588
1994
1876
2052
1769
1809
1544
1556
1419
1540
1245
1594
1320
1562
1291
1511
1241
1465
1153
1483
1172
0
0
2030
1979
2139
1908
2078
1669
1978
1654
1867
1550
1845
1522
1821
1572
1874
1598
1852
1605
1989
1746
1994
1789
2225
1925
2247
2063
2299
2091
2434
2236
2490
1946
2171
1756
2070
1777
2076
1781
2189
1889
2051
1765
2114
1802
2102
1770
2094
1789
2198
1814
2084
1946
2377
2165
2523
2293
2412
2024
2242
1908
2229
1975
2228
1917
2296
2028
2170
1959
2143
1771
1982
1794
2084
1829
2132
1770
1943
1762
2021
1515
1787
1370
1594
1479
1780
1605
2030
1905
2058
1741
1860
1537
1559
1368
1481
1149
1466
1181
1330
1145
1429
1121
1333
978
1292
954
0
0
1709
1670
1910
1492
1661
1162
1573
1269
1450
1173
1445
1167
1469
1271
1618
1403
1610
1335
1762
1485
1663
1517
1908
1676
1956
1709
1917
1647
2001
1889
2006
1620
1737
1490
1755
1435
1723
1493
1789
1577
1869
1711
1931
1697
2011
1690
2043
1710
2018
1635
1982
1758
2156
1873
2257
2002
2042
1654
1765
1414
1740
1491
1740
1495
1841
1477
1735
1483
1569
1285
1610
1303
1554
1366
1570
1317
1617
1379
1641
1263
1508
1202
1370
1209
1573
1393
1820
1784
1908
1637
1722
1495
1511
1205
1194
976
1291
963
1146
899
1146
821
982
757
858
594
0
0
1980
1872
2139
1709
1877
1461
1818
1485
1798
1506
1876
1481
1829
1578
2007
1746
2094
1853
2146
1878
2142
1835
2266
2022
2266
2014
2157
1909
2280
2065
2352
1933
2152
1897
2189
1899
2117
1896
2379
2065
2562
2234
2594
2281
2572
2227
2649
2210
2506
2157
2338
2098
2544
2364
2709
2383
2501
2022
2157
1807
2057
1813
2180
1781
2189
1811
2109
1841
1965
1703
2036
1729
1937
1717
2041
1801
2000
1817
2099
1758
2058
1691
1931
1770
2202
1982
2346
2261
2585
2253
2485
2198
2276
1872
2075
1637
1972
1586
1722
1434
1698
1385
1741
1284
1568
1175
0
0
2198
2138
2402
1822
1840
1605
1901
1751
2094
1822
2111
1798
2123
1805
2111
1913
2244
2008
2261
1993
2180
1995
2341
1972
2221
1921
2248
1963
2199
2050
2306
2066
2189
1944
2219
1989
2267
2130
2506
2302
2629
2433
2618
2325
2568
2135
2387
2081
2221
1879
2098
1947
2221
2103
2402
2262
2293
1802
2011
1667
1893
1658
1841
1673
1973
1630
1897
1548
1883
1542
1790
1499
1717
1529
1765
1489
1733
1586
1718
1531
1771
1482
1684
1467
1815
1668
2062
1986
2277
1958
2307
2007
2184
1816
1977
1641
1835
1499
1589
1209
1485
1181
1512
1163
1450
1090
0
0
2059
1901
2145
1652
1733
1425
1809
1505
2026
1704
2056
1765
2117
1745
2065
1746
1973
1642
1979
1657
1937
1778
1976
1685
2054
1733
2017
1774
2008
2033
2313
1977
2165
1836
2196
2021
2264
2101
2485
2225
2602
2266
2394
2057
2227
1885
2081
1778
1992
1642
1906
1669
2059
1951
2314
2043
2091
1647
1901
1502
1794
1565
1812
1511
1917
1549
1730
1389
1673
1438
1702
1477
1650
1329
1621
1318
1629
1404
1591
1297
1549
1307
1538
1346
1608
1422
1812
1683
2014
1693
2090
1812
2015
1686
1789
1601
1764
1484
1621
1149
1426
1094
1512
1189
1410
1034
0
0
1649
1643
1909
1383
1480
1250
1554
1446
1742
1598
1917
1588
1842
1534
1739
1474
1630
1360
1709
1418
1611
1432
1701
1382
1745
1389
1762
1568
1881
1797
2107
1873
2073
1781
2042
1911
2146
1969
2205
1940
2256
1909
2000
1611
1825
1476
1762
1444
1726
1404
1642
1491
1832
1681
2005
1685
1858
1373
1634
1338
1491
1313
1476
1323
1621
1217
1462
1220
1465
1165
1426
1220
1482
1174
1422
1150
1285
1114
1342
1084
1298
1087
1238
1069
1371
1060
1411
1336
1533
1291
1725
1434
1628
1313
1476
1264
1450
1133
1303
1058
1218
923
1327
1046
1386
955
0
0
1958
1802
2298
1700
1731
1421
1770
1623
2116
1821
2125
1818
2126
1684
1981
1705
1992
1718
1993
1790
2097
1785
2129
1771
2123
1835
2205
2045
2394
2363
2732
2331
2678
2278
2595
2329
2601
2277
2557
2260
2477
2116
2373
1991
2261
1929
2161
1897
2173
1770
2157
1979
2455
2160
2477
2103
2358
1917
2285
1877
2057
1796
2054
1903
2202
1862
2190
1806
2082
1842
2106
1847
2170
1748
1986
1681
1984
1739
1960
1685
1938
1701
1965
1641
1968
1670
2022
1787
2020
1737
2147
1782
2128
1709
1961
1686
1946
1632
1806
1556
1851
1588
1992
1675
1990
1469
0
0
2056
2052
2490
1994
2089
1714
1973
1777
2088
1867
2210
1861
2106
1725
2068
1837
2114
1768
2098
1876
2148
2034
2237
1954
2310
2013
2434
2170
2587
2466
2724
2429
2517
2278
2503
2122
2408
2139
2377
1963
2222
2034
2204
1789
2167
1842
2092
1754
2080
1851
2219
2054
2514
2134
2376
1938
2198
1946
2184
1889
2101
1729
2023
1818
2187
1879
2138
1957
2226
1957
2151
1830
2082
1802
1947
1618
1930
1589
1847
1562
1756
1466
1747
1482
1623
1482
1658
1466
1676
1385
1704
1447
1646
1445
1591
1394
1650
1136
1586
1175
1544
1275
1597
1294
1740
1317
0
0
1837
1906
2349
1929
1997
1604
1846
1540
1854
1634
1926
1507
1894
1607
1903
1698
1965
1618
2045
1686
2161
2020
2238
1880
2237
1975
2353
2103
2507
2277
2605
2270
2257
1917
2264
1805
2122
1824
2106
1762
2005
1683
2099
1711
2075
1717
2034
1738
2029
1757
2257
2066
2522
2085
2357
1930
2221
1908
2197
2011
2071
1765
2007
1783
2198
1845
2227
1993
2288
2034
2194
1836
2231
1811
1995
1732
2058
1759
1912
1582
1768
1453
1771
1443
1702
1511
1675
1282
1618
1285
1576
1231
1495
1141
1382
1161
1454
1038
1392
1041
1357
1131
1426
1157
1579
1140
0
0
1576
1666
2085
1658
1804
1349
1482
1256
1514
1222
1569
1206
1613
1303
1599
1317
1790
1463
1809
1602
1989
1829
2061
1733
2080
1658
2068
1805
2118
1906
2148
1787
1909
1451
1854
1389
1737
1446
1783
1418
1753
1445
1829
1419
1729
1486
1818
1525
1890
1777
2199
1971
2354
1961
2166
1850
2088
1753
2054
1714
1907
1568
1828
1621
2038
1701
1994
1786
1992
1741
2017
1738
2005
1693
1933
1665
1962
1678
1733
1431
1674
1290
1692
1434
1562
1365
1547
1190
1422
1114
1358
1087
1320
955
1170
1004
1225
802
1173
741
1051
909
1139
921
1317
912
0
0
1889
1901
2410
2049
2255
1709
1876
1541
1854
1503
1930
1546
1933
1669
1906
1661
2225
1877
2283
2054
2470
2206
2490
2081
2347
1930
2306
1997
2385
2115
2356
2074
2202
1929
2181
1803
2104
1821
2162
1853
2165
1869
2203
1893
2310
2039
2503
2293
2665
2411
2833
2654
2951
2438
2750
2257
2541
2204
2414
2148
2314
1995
2257
1944
2380
2130
2449
2152
2457
2215
2459
2199
2468
2212
2515
2298
2567
2198
2477
2098
2317
1956
2308
1978
2206
1980
2205
1861
2114
1750
2145
1722
1965
1615
1740
1526
1772
1370
1722
1316
1637
1391
1776
1489
1917
1470
0
0
2111
2130
2507
2379
2571
2053
2201
1817
2116
1834
2212
1794
2214
2056
2274
2029
2348
2154
2363
2186
2637
2314
2553
2123
2278
1909
2300
2006
2154
1928
2293
1966
2221
1931
2093
1818
2118
1947
2231
1893
2290
1965
2249
1992
2360
2261
2469
2308
2681
2439
2831
2428
2636
2208
2306
1924
2190
1842
2135
1742
1975
1646
1869
1627
2069
1845
2147
1737
2002
1861
2157
1919
2155
1969
2148
1947
2196
1942
2093
1842
1960
1692
1930
1666
2013
1690
2015
1719
1931
1684
1962
1677
1846
1468
1596
1282
1533
1192
1443
1140
1419
1069
1405
1261
1678
1096
0
0
2062
2081
2480
2281
2534
2042
2255
1898
2073
1722
2106
1808
2146
1956
2202
1858
2162
1869
2235
1929
2357
2002
2299
1864
2038
1672
2107
1794
1986
1714
2082
1721
2037
1755
2016
1637
2013
1874
2283
1941
2331
1946
2313
1962
2354
2078
2350
2091
2554
2228
2553
2242
2456
2026
2043
1650
1974
1602
1943
1603
1802
1481
1770
1407
1963
1597
1810
1538
1834
1606
1857
1589
1896
1666
1930
1789
2024
1688
1871
1535
1814
1478
1737
1437
1737
1446
1756
1527
1750
1542
1903
1641
1810
1386
1631
1333
1562
1149
1466
1034
1317
936
1257
1102
1469
1051
0
0
1716
1771
2182
2006
2180
1812
2040
1568
1769
1421
1821
1451
1777
1604
1749
1498
1712
1549
1797
1610
1897
1679
1925
1586
1796
1495
1717
1410
1693
1354
1773
1534
1802
1531
1775
1582
1843
1770
2118
1867
2114
1873
2010
1684
1964
1765
1928
1650
2074
1789
2103
1888
2036
1576
1691
1418
1630
1274
1573
1294
1509
1225
1446
1135
1626
1211
1591
1256
1534
1303
1542
1277
1493
1354
1585
1410
1599
1284
1398
1030
1396
1138
1399
1122
1370
1072
1389
1188
1349
1131
1513
1360
1524
1235
1508
1225
1402
1048
1313
961
1071
743
1089
826
1174
746
0
0
1946
1946
2335
2110
2433
1883
2194
1713
1884
1561
1946
1612
1908
1747
1906
1694
2049
1635
2034
1729
2086
1754
2237
1975
2251
1855
2218
1813
1993
1691
2207
1937
2220
1958
2404
2090
2471
2248
2609
2218
2499
2058
2325
1958
2359
2034
2196
1993
2261
2044
2372
2141
2364
1854
2034
1701
2129
1764
1960
1694
2034
1638
1921
1614
2002
1673
2002
1734
2005
1737
1986
1748
2032
1758
2029
1782
2053
1645
1960
1578
1903
1614
1922
1598
1823
1551
1878
1517
1924
1552
1897
1660
1962
1522
1970
1733
1981
1643
1867
1490
1732
1246
1579
1329
1733
1256
0
0
2096
2104
2617
2301
2436
2172
2326
1887
2116
1743
1968
1800
2027
1866
2090
1813
2085
1812
2114
1865
2077
1927
2308
2125
2382
2089
2258
1931
2155
1898
2245
2034
2400
2190
2479
2270
2574
2315
2556
2266
2508
2014
2228
1939
2114
1876
2050
1858
2083
1809
2282
2045
2267
1786
1957
1669
1898
1636
1809
1608
1820
1614
1818
1550
1965
1620
1878
1786
2012
1686
1872
1573
1828
1611
1890
1477
1785
1594
1748
1456
1787
1482
1697
1506
1589
1470
1594
1387
1720
1386
1629
1306
1566
1337
1674
1528
1781
1658
1862
1349
1513
1195
1362
1121
1521
1223
0
0
1858
1849
2361
2052
2257
1950
2121
1678
1889
1538
1906
1593
1917
1705
1977
1741
2015
1730
2068
1735
1947
1838
2159
1961
2301
1990
2199
1743
2153
1874
2165
2019
2426
2189
2412
2167
2330
2085
2238
1945
2106
1817
2019
1680
1921
1675
1922
1589
1900
1747
2106
1956
2248
1737
1867
1522
1725
1482
1653
1409
1709
1526
1804
1416
1811
1626
1913
1748
1991
1605
1803
1517
1853
1503
1858
1408
1708
1409
1717
1349
1701
1314
1525
1331
1530
1329
1473
1211
1530
1297
1524
1223
1474
1161
1539
1242
1626
1495
1738
1234
1449
1124
1343
1120
1480
945
0
0
1298
1430
1893
1763
1989
1637
1826
1359
1707
1262
1577
1282
1614
1369
1655
1545
1803
1572
1897
1590
1811
1614
2020
1795
2146
1842
1994
1574
1902
1677
2007
1897
2142
1870
1930
1659
1832
1557
1722
1434
1758
1382
1567
1367
1658
1298
1579
1363
1618
1305
1907
1655
1929
1575
1618
1258
1485
1193
1393
1134
1458
1288
1450
1218
1594
1416
1844
1680
1878
1563
1800
1499
1730
1430
1709
1322
1633
1370
1506
1194
1429
1026
1312
1081
1254
1035
1213
1061
1282
1051
1362
922
1188
901
1218
1009
1223
1080
1341
945
1218
891
1146
989
1221
916
0
0
1453
1521
2142
1963
2286
1962
2226
1749
2053
1669
1973
1594
1930
1661
1997
1895
2192
1978
2349
2132
2421
2204
2619
2309
2669
2290
2477
2056
2332
2008
2404
2121
2528
2139
2334
1882
2061
1841
2109
1814
2093
1730
2066
1798
2089
1755
2041
1772
2106
1854
2338
2171
2565
2071
2223
1722
2052
1738
2022
1745
2096
1791
2054
1813
2202
1979
2516
2321
2484
2134
2437
2167
2469
2104
2429
2005
2281
2001
2159
1855
2113
1594
2004
1700
1899
1680
1803
1576
1840
1494
1825
1467
1711
1367
1720
1387
1693
1514
1805
1389
1691
1357
1654
1550
1914
1377
0
0
1715
1742
2310
2251
2523
2265
2612
2245
2377
2173
2193
1934
2092
1862
2156
1877
2291
2151
2515
2377
2714
2458
2821
2477
2743
2442
2565
2117
2411
2033
2298
1940
2324
1979
2231
1897
2084
1847
2092
1805
2025
1838
1968
1738
1995
1739
1982
1746
2123
1855
2338
2219
2455
2122
2184
1800
2018
1790
1958
1809
2146
1786
2167
1870
2198
1985
2473
2125
2430
2069
2325
2134
2325
2050
2254
1979
2107
1850
2180
1805
1962
1619
1866
1605
1950
1642
1707
1368
1643
1395
1586
1397
1526
1226
1525
1217
1542
1170
1426
1153
1361
1158
1486
1275
1702
1186
0
0
1585
1605
2133
2038
2396
2117
2411
2038
2269
1934
2071
1714
1796
1507
1878
1593
1946
1773
2192
2085
2455
2236
2646
2234
2483
2088
2437
1913
2082
1683
1850
1602
2056
1650
1927
1626
1865
1642
1890
1563
1790
1610
1845
1597
1846
1596
1873
1609
1984
1729
2155
2133
2393
2037
2178
1841
1989
1709
1974
1721
2084
1749
2020
1655
2043
1798
2341
1979
2283
1839
2042
1875
2149
1851
2003
1725
1960
1732
1978
1678
1858
1461
1790
1551
1818
1579
1628
1326
1540
1266
1418
1225
1459
1188
1393
1045
1340
993
1237
990
1274
973
1295
1029
1366
878
0
0
1367
1399
1859
1786
2107
1832
2138
1783
1902
1621
1659
1382
1549
1316
1511
1245
1594
1405
1746
1751
2111
1919
2250
1776
2090
1764
2028
1659
1853
1467
1690
1414
1685
1356
1562
1366
1650
1333
1647
1315
1626
1364
1643
1442
1676
1477
1716
1524
1901
1639
2091
1975
2157
1908
2009
1642
1776
1499
1676
1585
1866
1478
1739
1362
1645
1427
2028
1612
1842
1434
1559
1449
1730
1428
1647
1414
1618
1410
1627
1365
1546
1285
1523
1334
1626
1293
1413
1175
1410
1186
1294
1129
1214
916
1138
917
1054
826
1021
813
1069
757
1049
779
1218
683
0
0
1626
1548
2034
1883
2222
1979
2346
2025
2170
1862
1934
1675
1795
1490
1853
1554
1955
1708
2138
1992
2409
2058
2442
1989
2261
2042
2389
2056
2325
1956
2313
1873
2252
1770
2132
1799
2125
1830
2194
1918
2158
2013
2250
1995
2244
1972
2349
2088
2502
2184
2614
2443
2722
2373
2470
2103
2257
1850
2118
1964
2254
1833
2133
1613
2073
1842
2274
1989
2278
1782
1951
1785
2065
1821
2034
1787
2047
1824
2063
1819
2028
1738
2036
1698
2141
1770
1963
1677
2042
1787
1966
1781
1978
1565
1867
1477
1807
1490
1648
1349
1588
1401
1577
1323
1675
1087
0
0
1758
1717
2034
1828
2161
1924
2327
2094
2340
2004
2094
1726
2043
1759
2060
1834
2165
1933
2293
2008
2277
2011
2294
1917
2177
1918
2305
2132
2443
2225
2574
2178
2466
1936
2155
1998
2270
2086
2402
2062
2282
2077
2340
2043
2277
2087
2325
2026
2312
2095
2381
2226
2476
2186
2197
1891
1954
1669
1933
1568
1957
1645
1861
1486
1854
1595
2073
1865
1946
1462
1788
1548
1729
1522
1807
1492
1819
1456
1692
1497
1716
1444
1652
1508
1641
1451
1705
1457
1726
1429
1724
1474
1783
1517
1662
1338
1570
1373
1569
1229
1374
1141
1268
1072
1429
891
0
0
1512
1257
1712
1403
1786
1529
1977
1748
2132
1717
2032
1680
1959
1659
2022
1693
2074
1778
2021
1669
1924
1678
1957
1599
1879
1635
1994
1953
2350
2178
2517
2106
2390
1963
2201
1908
2224
2085
2362
1979
2145
1859
2164
1869
2068
1773
2021
1657
1976
1716
1995
1911
2250
1930
1949
1634
1661
1464
1688
1291
1689
1398
1674
1273
1578
1318
1790
1513
1701
1260
1553
1330
1570
1339
1640
1243
1514
1322
1510
1301
1522
1230
1418
1171
1410
1177
1448
1202
1447
1264
1507
1266
1547
1389
1543
1295
1466
1222
1442
1078
1229
1059
1170
915
1122
676
0
0
1074
916
1290
1147
1395
1125
1570
1418
1783
1476
1796
1531
1869
1617
1888
1501
1860
1454
1517
1245
1531
1298
1582
1282
1642
1325
1684
1730
2075
2009
2326
1956
2297
1912
2042
1788
2037
1774
2042
1642
1830
1530
1659
1409
1657
1325
1626
1284
1541
1269
1625
1459
1810
1554
1529
1220
1389
1146
1410
1022
1372
1032
1399
1007
1403
1175
1520
1250
1492
1039
1306
1103
1257
1047
1360
1034
1346
1028
1337
1044
1291
1025
1277
987
1170
890
1114
938
1086
865
1194
984
1270
917
1242
1057
1291
1060
1341
980
1101
797
922
717
1029
507
0
0
1266
1141
1486
1258
1645
1309
1890
1661
2034
1775
2165
1871
2225
1933
2244
1910
2077
1602
1837
1546
1856
1533
1942
1617
2010
1725
2217
2133
2565
2362
2821
2422
2730
2289
2454
2137
2386
2033
2325
1877
2037
1772
1981
1711
1909
1717
1973
1659
1954
1627
1906
1782
2273
1874
2043
1683
1834
1542
1866
1451
1867
1541
1889
1544
1882
1669
2022
1711
2007
1544
1816
1601
1904
1632
2066
1650
1998
1680
2013
1628
1899
1485
1722
1493
1766
1480
1746
1442
1642
1418
1643
1371
1680
1469
1672
1448
1684
1505
1867
1493
1717
1450
1595
1237
1610
1081
0
0
1349
1253
1653
1447
1806
1576
2069
1878
2191
1880
2271
2129
2366
2025
2274
1782
2085
1669
1845
1595
1869
1576
1879
1667
2102
1902
2278
2187
2550
2333
2642
2435
2583
2149
2337
1909
2076
1712
2071
1674
1827
1594
1815
1522
1859
1533
1735
1526
1770
1445
1778
1623
1875
1669
1885
1593
1757
1363
1634
1347
1721
1446
1721
1436
1662
1520
1971
1707
1838
1449
1711
1464
1701
1446
1810
1610
1858
1562
1814
1618
1722
1446
1630
1341
1627
1337
1547
1177
1474
1313
1403
1163
1421
1129
1269
1036
1368
1128
1419
1173
1394
1170
1435
1134
1339
763
0
0
1110
1064
1436
1284
1695
1522
1994
1599
1971
1638
2005
1746
2066
1643
1916
1462
1661
1326
1591
1386
1719
1400
1770
1617
1928
1760
2160
1943
2262
1989
2409
2010
2357
1822
1906
1541
1690
1353
1751
1380
1540
1307
1587
1245
1666
1321
1615
1288
1569
1201
1605
1377
1757
1468
1730
1405
1587
1170
1570
1244
1636
1287
1581
1259
1610
1442
1902
1604
1716
1362
1620
1428
1659
1354
1663
1408
1735
1417
1693
1380
1657
1280
1570
1172
1502
1130
1334
1050
1316
1114
1224
873
1262
955
1118
885
1217
796
1202
913
1160
873
1233
1013
1223
745
0
0
745
710
1037
901
1213
1026
1460
1074
1433
1124
1339
998
1360
1042
1285
894
1163
768
1202
895
1275
971
1346
1213
1590
1282
1582
1338
1709
1470
1769
1417
1746
1201
1363
982
1226
824
1341
935
1106
925
1143
851
1106
825
1082
805
1192
852
1060
858
1238
1069
1365
1045
1242
865
1234
861
1243
991
1213
1033
1250
1093
1396
1149
1290
969
1245
968
1214
925
1162
936
1165
873
1099
786
1060
739
1049
807
1074
741
932
563
909
690
895
490
822
520
706
498
797
372
749
523
613
463
801
552
873
398
0
0
0
0
0
0
0
0
0
0
0
0
0
0
0
0
0
0
0
0
0
0
0
0
0
0
0
0
0
0
0
0
0
0
0
0
0
0
0
0
0
0
0
0
0
0
0
0
0
0
0
0
0
0
0
0
0
0
0
0
0
0
0
0
0
0
0
0
0
0
0
0
0
0
0
0
0
0
0
0
0
0
0
0
0
0
0
0
0
0
0
0
0
0
0
0
0
0
0
0
0
0
0
0
0
0
0
0
0
