P2
108 88
4095
0
0
0
0
0
0
0
0
0
0
0
0
0
0
0
0
0
0
0
0
0
0
0
0
0
0
0
0
0
0
0
0
0
0
0
0
0
0
0
0
0
0
0
0
0
0
0
0
0
0
0
0
0
0
0
0
0
0
0
0
0
0
0
0
0
0
0
0
0
0
0
0
0
0
0
0
0
0
0
0
0
0
0
0
0
0
0
0
0
0
0
0
0
0
0
0
0
0
0
0
0
0
0
0
0
0
0
0
0
1003
888
1230
900
1307
1033
1395
1101
1433
1146
1325
1054
1487
1309
1617
1326
1613
1264
1490
1285
1632
1593
1943
1601
1794
1532
1655
1359
1658
1332
1701
1419
1908
1534
1804
1357
1565
1230
1571
1192
1594
1288
1541
1272
1559
1260
1438
1237
1536
1213
1549
1254
1582
1196
1584
1334
1507
1234
1594
1258
1569
1220
1437
1106
1460
1075
1343
1054
1413
1233
1578
1333
1482
1143
1339
1054
1246
891
1277
943
1219
909
1321
967
1278
976
1210
1029
1348
1080
1450
1174
1373
1010
1205
762
1035
722
1120
669
921
656
865
633
798
368
0
0
835
858
1117
769
1253
936
1364
1093
1288
1029
1234
953
1321
1130
1598
1297
1498
1182
1421
1168
1587
1434
1843
1424
1644
1316
1541
1162
1461
1188
1522
1305
1789
1429
1730
1231
1419
1170
1354
1123
1445
1186
1391
1132
1343
1110
1325
1162
1460
1082
1448
1148
1397
1112
1351
1125
1339
1090
1410
1077
1413
1091
1404
1110
1381
1021
1238
1034
1443
1194
1501
1202
1330
1001
1232
930
1127
860
1194
909
1175
897
1179
797
1156
901
1053
906
1181
1078
1449
1133
1364
937
1049
740
1014
649
1077
739
932
581
845
514
676
309
0
0
1181
1112
1509
1112
1581
1343
1796
1457
1771
1437
1613
1317
1729
1476
1882
1652
1957
1582
1835
1523
1911
1733
2139
1744
1970
1653
1860
1570
1833
1687
2054
1750
2259
1891
2183
1677
1869
1577
1829
1566
1860
1528
1807
1557
1885
1613
1844
1593
1919
1601
1962
1661
1998
1531
1905
1553
1728
1533
1908
1509
1924
1592
1988
1618
2018
1556
1860
1653
2069
1760
2057
1647
1893
1557
1805
1514
1728
1394
1740
1413
1702
1402
1740
1433
1798
1473
1647
1509
1819
1604
2049
1545
1750
1441
1637
1298
1621
1259
1681
1357
1647
1189
1537
1149
1386
947
0
0
1641
1583
1911
1650
2024
1775
2219
1898
2084
1713
1861
1586
1973
1743
2081
1933
2117
1748
1954
1723
2102
1874
2173
1979
2010
1830
1986
1779
2043
1776
2141
1861
2309
1978
2202
1929
2061
1705
2010
1709
2046
1736
1986
1687
1997
1654
1901
1653
2023
1770
2018
1586
1848
1615
1845
1690
1868
1525
1862
1626
1842
1558
1815
1584
1851
1563
1940
1714
2061
1797
1911
1611
1815
1595
1661
1425
1723
1322
1530
1383
1614
1397
1653
1313
1610
1318
1538
1361
1691
1397
1802
1366
1678
1224
1525
1217
1493
1179
1690
1269
1588
1162
1452
1141
1290
806
0
0
1494
1426
1758
1429
1866
1527
2162
1754
1882
1509
1718
1467
1795
1442
1877
1611
1883
1546
1781
1519
1894
1515
1901
1707
1845
1576
1802
1667
1922
1659
1957
1679
2170
1970
2021
1563
1874
1586
1881
1580
1954
1611
1906
1562
1899
1546
1883
1530
2038
1624
1857
1482
1753
1490
1780
1499
1821
1357
1704
1490
1770
1435
1717
1418
1810
1477
1838
1649
2061
1591
1814
1481
1726
1405
1633
1348
1614
1169
1470
1234
1488
1180
1453
1166
1520
1217
1498
1189
1523
1163
1549
1133
1395
1099
1396
1097
1293
1090
1490
1124
1525
1101
1312
1050
1284
748
0
0
1226
1124
1345
1115
1398
1154
1696
1330
1522
1205
1335
1001
1426
1140
1456
1241
1467
1165
1438
1201
1529
1306
1608
1330
1541
1283
1536
1230
1574
1290
1613
1301
1853
1472
1798
1353
1544
1288
1675
1321
1711
1362
1645
1283
1618
1281
1626
1354
1853
1399
1666
1243
1458
1108
1502
1254
1502
1096
1454
1288
1444
1163
1365
1101
1437
1177
1591
1438
1701
1361
1461
1216
1413
1186
1470
1059
1337
1061
1101
952
1322
978
1123
901
1187
905
1094
978
1209
850
1210
900
1117
871
1040
794
1075
760
1205
744
1179
828
1142
904
1000
523
0
0
1388
1214
1558
1238
1687
1374
1957
1526
1756
1468
1617
1309
1789
1397
1758
1550
1814
1499
1867
1576
1954
1710
1995
1685
1962
1701
2004
1714
1991
1755
2093
1707
2207
2010
2293
1813
2000
1688
2233
1914
2300
1936
2170
1874
2145
1830
2162
1925
2339
2117
2233
1813
2062
1723
1975
1810
2070
1673
1934
1777
2015
1681
1965
1602
1933
1786
2133
1835
2170
1686
1926
1657
2036
1786
1958
1682
1965
1583
1802
1621
1925
1579
1874
1529
1926
1432
1770
1486
1818
1460
1851
1435
1802
1348
1687
1429
1682
1339
1749
1357
1757
1357
1693
1409
1590
1058
0
0
1507
1458
1834
1563
1845
1720
2102
1706
2045
1642
1879
1562
1853
1651
1997
1673
2034
1752
2058
1728
2007
1906
2181
1714
2120
1762
2065
1738
2054
1809
2198
1970
2359
2169
2313
1939
2216
1965
2229
2093
2391
2123
2379
1963
2178
1875
2306
2137
2363
2073
2189
1837
2110
1905
2124
1822
2057
1735
1933
1597
1893
1629
1876
1581
1981
1634
1990
1653
1930
1460
1829
1534
1860
1590
1771
1576
1719
1449
1682
1431
1922
1465
1651
1393
1649
1333
1679
1406
1661
1419
1604
1375
1574
1279
1499
1186
1514
1194
1490
1210
1428
1165
1306
1129
1397
921
0
0
1312
1171
1611
1265
1705
1468
1855
1384
1663
1378
1609
1298
1706
1523
1881
1540
1859
1547
1888
1586
1917
1717
1990
1625
2046
1640
1926
1562
1918
1672
2054
1843
2298
1965
2244
1717
2072
1706
2097
1811
2132
1768
2146
1687
2026
1796
2122
1956
2102
1789
1949
1706
2067
1762
1976
1687
1943
1620
1821
1444
1770
1469
1682
1413
1853
1610
1882
1397
1734
1290
1637
1424
1586
1354
1565
1362
1506
1239
1543
1326
1738
1329
1566
1253
1494
1199
1523
1297
1522
1437
1503
1204
1401
1093
1381
984
1421
1193
1264
1013
1332
950
1139
847
1146
682
0
0
1086
976
1358
1042
1381
1202
1480
1131
1449
1121
1316
1070
1302
1190
1509
1305
1619
1307
1633
1393
1755
1555
1827
1499
1893
1562
1702
1289
1610
1451
1795
1720
2081
1813
1905
1517
1702
1461
1674
1493
1750
1386
1771
1417
1684
1462
1801
1597
1803
1540
1673
1413
1650
1469
1770
1435
1781
1505
1653
1257
1524
1208
1469
1188
1533
1309
1562
1226
1481
1124
1490
1159
1341
1098
1349
1155
1318
1053
1361
1125
1492
1073
1328
1036
1295
1019
1330
1156
1506
1239
1291
932
1205
886
1173
897
1172
914
1080
792
1060
698
922
597
926
372
0
0
1386
1300
1666
1283
1685
1320
1709
1301
1765
1365
1710
1378
1704
1476
1986
1690
1999
1697
2030
1779
2253
2005
2381
1934
2369
1933
2111
1683
2088
1877
2349
2069
2450
2037
2242
1844
2080
1815
2140
1796
2060
1702
2117
1734
2114
1862
2193
1942
2117
1845
2117
1797
2139
1773
2170
1717
2137
1891
2088
1666
2026
1701
2003
1658
2149
1738
2170
1845
2137
1705
2033
1685
1899
1670
1931
1602
1843
1617
1850
1579
1979
1637
1909
1527
1877
1596
1977
1778
2068
1783
1946
1593
1821
1507
1750
1383
1761
1504
1642
1338
1611
1266
1622
1206
1541
1026
0
0
1636
1665
2105
1641
1851
1549
1852
1491
1836
1563
1890
1581
1926
1822
2157
1853
2164
1860
2281
2069
2271
2119
2427
2151
2303
1978
2164
1866
2154
2033
2362
2057
2262
1973
2133
1794
2035
1757
2002
1721
1984
1771
2013
1650
1959
1757
2117
1830
2107
1698
1965
1713
1974
1768
1910
1682
1989
1693
1992
1630
1871
1576
1882
1570
1978
1701
2026
1855
2107
1658
1840
1593
1868
1494
1802
1462
1780
1393
1640
1411
1676
1389
1745
1299
1726
1449
1782
1651
1877
1532
1722
1426
1620
1264
1701
1223
1535
1232
1398
1141
1423
1163
1419
1130
1117
759
0
0
1581
1578
1974
1571
1757
1416
1732
1419
1806
1438
1795
1498
1805
1702
2075
1798
2035
1764
2066
1828
2178
1962
2228
1911
2137
1753
1941
1643
1945
1714
2086
1757
1974
1695
1935
1597
1850
1615
1972
1615
1861
1642
1901
1526
1906
1717
2016
1621
1960
1481
1815
1556
1864
1608
1898
1526
1867
1547
1818
1523
1775
1499
1779
1505
1897
1742
2137
1850
2021
1573
1860
1460
1827
1480
1650
1303
1568
1222
1532
1291
1555
1316
1531
1226
1633
1354
1715
1458
1710
1351
1642
1307
1432
1352
1657
1270
1542
1170
1381
1072
1357
1160
1308
957
1081
611
0
0
1396
1413
1807
1354
1541
1156
1426
1163
1529
1179
1501
1273
1556
1391
1776
1385
1634
1396
1722
1595
1829
1522
1766
1541
1740
1355
1589
1401
1567
1431
1729
1435
1616
1413
1716
1387
1666
1366
1683
1328
1637
1325
1668
1346
1787
1529
1797
1382
1756
1314
1652
1390
1574
1369
1497
1269
1658
1313
1680
1381
1513
1285
1550
1428
1738
1621
1950
1681
1933
1529
1735
1352
1522
1026
1428
1121
1322
1050
1358
1054
1287
1064
1442
982
1373
1243
1399
1221
1354
998
1266
1005
1317
1173
1521
1128
1429
1039
1227
986
1259
924
1179
779
922
449
0
0
1615
1538
2015
1563
1780
1372
1794
1430
1768
1426
1851
1482
1827
1534
1925
1539
1874
1581
2013
1800
2074
1791
2044
1721
1995
1658
1992
1751
1933
1771
2122
1803
2045
1751
2050
1738
2046
1802
2050
1672
2050
1833
2073
1883
2253
2068
2362
1961
2261
1812
2132
1820
2165
1893
2075
1787
2184
1942
2213
1837
2126
1796
2125
1813
2346
2146
2587
2242
2541
2089
2294
1828
2073
1619
1994
1661
1910
1602
1845
1498
1906
1644
1995
1549
1998
1636
1879
1674
1946
1499
1847
1483
1855
1564
2053
1653
1909
1684
1916
1677
2006
1477
1701
1269
1451
961
0
0
1866
1918
2278
1884
1921
1652
1931
1658
1877
1517
1834
1653
1883
1549
1998
1750
1925
1668
1988
1923
2220
1798
2101
1792
2082
1737
1947
1746
2028
1765
2077
1785
1975
1841
2074
1841
2109
1773
1993
1732
2194
1832
2090
1905
2378
2115
2430
2054
2230
1902
2186
1937
2165
1898
2018
1754
1997
1776
2085
1874
2004
1642
1971
1870
2229
2102
2391
2073
2228
1898
2069
1593
1800
1629
1846
1488
1666
1482
1695
1423
1677
1483
1787
1578
1832
1460
1693
1425
1613
1276
1526
1238
1589
1365
1674
1416
1730
1466
1786
1500
1704
1313
1380
1081
1269
779
0
0
1738
1773
2128
1762
1861
1463
1783
1428
1732
1401
1783
1328
1683
1494
1862
1531
1812
1472
1892
1771
2089
1713
2017
1629
1978
1641
1924
1626
1922
1733
2057
1734
2075
1786
2045
1765
2129
1690
1937
1762
2121
1846
2166
2034
2442
2141
2354
2055
2286
1897
2197
1925
2192
1904
1999
1805
1926
1724
1942
1626
1921
1493
1876
1686
2202
1923
2261
1940
2040
1659
1905
1453
1791
1522
1771
1523
1707
1362
1611
1390
1755
1558
1913
1683
1899
1509
1641
1250
1545
1197
1419
1158
1582
1238
1573
1285
1722
1429
1634
1349
1594
1128
1218
961
1227
644
0
0
1349
1399
1770
1400
1525
1115
1349
1062
1381
994
1320
1053
1326
1136
1431
1120
1464
1212
1553
1406
1734
1349
1709
1348
1650
1356
1566
1380
1598
1503
1829
1462
1846
1467
1868
1573
1860
1421
1689
1578
1849
1584
1940
1759
2125
1893
2032
1647
1880
1514
1793
1494
1741
1462
1706
1386
1573
1418
1611
1352
1520
1273
1602
1409
1734
1470
1755
1413
1627
1353
1549
1181
1505
1291
1525
1268
1414
1162
1414
1186
1589
1462
1736
1493
1610
1165
1357
982
1244
945
1160
865
1254
939
1273
964
1274
1067
1335
938
1123
898
890
694
938
437
0
0
1581
1528
1829
1558
1717
1246
1606
1305
1675
1258
1624
1349
1708
1403
1768
1471
1765
1485
1814
1641
2132
1740
2139
1806
2121
1765
2026
1861
2177
1906
2346
1938
2281
1902
2231
2005
2228
1768
2181
1893
2274
2040
2493
2234
2595
2145
2402
2004
2242
1845
2194
1900
2226
1865
2121
1794
2026
1755
2042
1825
2131
1842
2158
1873
2164
1797
2111
1765
2034
1681
2003
1713
2002
1705
2072
1733
1974
1659
2021
1829
2341
2090
2458
2066
2094
1723
1896
1467
1828
1461
1841
1455
1772
1533
1744
1453
1734
1541
1780
1463
1690
1361
1570
1368
1607
1057
0
0
1638
1621
1964
1633
1861
1437
1810
1523
1830
1500
1796
1494
1974
1565
2018
1719
2035
1741
2074
1842
2137
2038
2383
1958
2228
1961
2243
1941
2358
2117
2349
1959
2314
1971
2225
1891
2138
1873
2050
1824
2121
1928
2330
2199
2430
2042
2166
1749
2093
1794
2043
1872
1979
1701
1997
1659
1963
1738
2037
1754
2105
1914
2115
1806
1892
1582
1878
1520
1865
1613
1770
1538
1861
1530
1746
1514
1691
1451
1786
1685
2221
1973
2190
1836
1846
1349
1586
1338
1658
1373
1523
1288
1526
1325
1603
1180
1541
1298
1467
1257
1389
1072
1301
1122
1418
1075
0
0
1514
1461
1714
1414
1693
1305
1738
1441
1748
1365
1721
1381
1829
1531
1980
1659
1966
1635
1885
1777
2153
2042
2334
1966
2201
1915
2186
1893
2164
1898
2135
1769
2026
1733
2034
1716
2045
1626
1952
1707
2056
1794
2276
2010
2209
1793
1933
1635
1951
1653
1928
1672
1894
1554
1890
1499
1928
1585
2030
1736
2133
2025
2129
1714
1866
1541
1841
1416
1797
1429
1657
1475
1765
1382
1705
1347
1655
1385
1751
1658
2192
1833
2027
1620
1647
1221
1527
1258
1561
1289
1554
1177
1424
1202
1509
1125
1491
1170
1369
1072
1267
1045
1314
1156
1437
1018
0
0
1033
938
1302
1061
1269
909
1339
1018
1395
1099
1509
1149
1652
1333
1682
1541
1713
1366
1711
1538
1904
1745
2020
1649
1867
1544
1827
1506
1806
1483
1709
1327
1715
1302
1595
1417
1649
1384
1618
1316
1691
1534
1976
1744
1823
1438
1675
1385
1630
1316
1655
1428
1554
1301
1544
1298
1642
1388
1786
1618
2109
1838
1924
1483
1653
1201
1469
1160
1428
1158
1432
1259
1384
1117
1435
1066
1371
1173
1550
1397
1949
1514
1694
1258
1314
985
1335
1067
1365
1094
1413
1011
1285
1001
1287
1005
1334
942
1124
858
1098
847
1225
1003
1180
756
0
0
1264
1206
1595
1298
1674
1315
1645
1359
1786
1525
1940
1608
2085
1797
2157
1782
2065
1755
1989
1712
2245
2019
2433
2002
2161
1731
2107
1700
2034
1748
2018
1673
2065
1722
2100
1805
2043
1742
2039
1797
2324
2106
2508
2215
2325
1949
2169
1748
2158
1814
2213
1860
2210
1809
2101
1879
2231
2013
2538
2289
2682
2418
2537
2060
2228
1828
2116
1713
2024
1706
1957
1649
2054
1655
1975
1611
1933
1717
2133
1969
2326
1924
2148
1697
1993
1554
1895
1730
2180
1848
2010
1589
1833
1702
2033
1797
2016
1527
1845
1423
1784
1364
1818
1562
1885
1366
0
0
1467
1445
1813
1514
1909
1654
1989
1608
2006
1765
2167
1931
2285
2052
2287
1870
2205
1814
2122
1933
2305
2042
2315
1915
2104
1805
2006
1854
2092
1834
2077
1858
2117
1851
2148
1863
2157
1889
2123
1911
2365
2245
2620
2250
2383
1910
2227
1881
2299
1973
2234
1917
2206
1973
2187
1900
2185
2162
2489
2308
2661
2306
2568
2130
2166
1769
1933
1613
1910
1496
1797
1612
1862
1571
1775
1493
1841
1586
1851
1742
2028
1703
1732
1435
1657
1437
1790
1674
2020
1588
1793
1426
1781
1666
1889
1739
1872
1444
1539
1237
1461
1237
1558
1353
1593
996
0
0
1339
1230
1552
1210
1898
1493
1882
1456
1762
1467
2054
1613
1986
1771
2060
1620
1978
1578
1938
1652
1967
1671
2101
1624
1927
1597
1919
1623
1930
1617
1926
1654
1963
1702
1905
1661
2044
1675
2117
1946
2331
2148
2414
2021
2199
1780
2121
1737
2259
1986
2250
1922
2256
1892
2085
1766
2087
2053
2385
2154
2456
2077
2285
1909
2046
1674
1832
1522
1839
1435
1814
1582
1786
1461
1766
1328
1606
1408
1707
1429
1668
1381
1626
1313
1547
1357
1595
1502
1785
1338
1629
1362
1643
1554
1845
1585
1869
1329
1394
1090
1332
1001
1235
1102
1317
706
0
0
1053
928
1341
1090
1559
1404
1636
1312
1580
1209
1642
1249
1545
1322
1623
1229
1552
1245
1573
1331
1642
1339
1707
1389
1642
1395
1503
1353
1708
1454
1785
1532
1769
1501
1662
1505
1777
1651
1936
1719
2162
1883
2068
1665
1870
1497
1778
1512
1926
1651
1891
1623
1943
1685
1859
1446
1774
1637
1994
1817
2034
1687
1794
1477
1803
1381
1557
1301
1615
1336
1732
1462
1639
1323
1505
1137
1424
1154
1293
1117
1363
1038
1237
1062
1228
1109
1325
1228
1411
1066
1274
1186
1521
1408
1610
1382
1559
1022
1197
874
1029
826
1030
789
1064
425
0
0
1341
1232
1625
1358
1948
1619
1929
1569
1795
1413
1900
1430
1794
1584
1960
1475
1915
1590
1986
1691
1969
1669
2042
1701
1973
1766
1954
1814
2020
1828
2241
2042
2312
2069
2338
2017
2426
2138
2421
2294
2623
2125
2386
2076
2233
1898
2229
1822
2362
2032
2205
1975
2345
2056
2241
1818
2219
2009
2333
2177
2386
1902
2157
1954
2164
1866
2115
1801
2236
2014
2433
2066
2354
1890
2224
1734
1975
1674
1961
1675
1979
1576
1867
1589
1898
1669
1819
1702
2039
1588
1901
1712
2138
1992
2138
1806
2005
1485
1773
1457
1717
1387
1674
1378
1719
1046
0
0
1570
1547
1818
1488
1898
1770
1937
1594
1853
1606
1901
1576
1933
1650
1928
1690
1878
1647
1930
1710
1978
1765
2045
1778
2066
1865
2107
1828
2192
2002
2459
2157
2562
2153
2538
2190
2428
2185
2477
2289
2511
1970
2197
1760
2000
1830
2062
1776
2121
1837
2106
1868
1968
1813
2004
1695
1978
1778
1966
1865
2042
1681
1881
1666
1923
1680
1973
1709
1990
1924
2221
1940
2078
1785
2066
1633
1712
1403
1745
1511
1742
1441
1715
1342
1589
1330
1642
1350
1658
1398
1583
1434
1833
1650
1947
1498
1584
1234
1614
1282
1485
1181
1412
1178
1418
1034
0
0
1444
1352
1666
1330
1721
1474
1776
1444
1806
1394
1729
1353
1784
1421
1768
1485
1803
1597
1826
1595
1893
1576
2012
1697
1932
1726
2068
1738
2118
1906
2337
2141
2409
2085
2354
1960
2279
1849
2314
2088
2303
1766
1969
1608
1880
1765
1893
1673
2018
1705
1956
1739
1948
1622
1822
1589
1865
1626
1841
1611
1879
1637
1755
1394
1846
1531
1859
1517
1871
1730
2066
1766
1890
1634
1882
1502
1685
1425
1691
1541
1881
1480
1614
1294
1473
1201
1453
1137
1474
1290
1503
1330
1705
1477
1764
1261
1497
1005
1434
1101
1398
1178
1418
1185
1495
1010
0
0
1270
1142
1380
1019
1339
1156
1378
1014
1393
1138
1354
1178
1595
1194
1484
1234
1494
1219
1535
1413
1717
1458
1928
1643
1826
1633
1898
1622
1930
1651
2069
1829
2133
1695
1945
1584
1858
1524
2001
1783
1917
1473
1693
1400
1664
1411
1644
1382
1713
1382
1625
1425
1618
1394
1642
1421
1622
1306
1670
1373
1581
1342
1514
1291
1645
1265
1610
1309
1517
1435
1689
1316
1544
1357
1586
1306
1458
1245
1642
1498
1720
1325
1565
1166
1388
1077
1309
870
1299
1010
1274
1019
1322
1133
1339
1028
1216
813
1257
926
1218
1038
1350
1042
1370
917
0
0
1429
1250
1557
1179
1522
1320
1652
1345
1626
1373
1710
1490
1896
1540
1818
1588
1923
1586
2045
1790
2212
1986
2301
2082
2255
1946
2289
1929
2202
1901
2395
2098
2329
1949
2254
1838
2236
1973
2402
2131
2386
1835
2148
1803
2109
1877
2095
1818
2129
1909
2115
1835
2142
1794
2118
1826
2138
1822
1995
1896
2045
1854
2095
1772
2131
1751
2091
1723
1993
1783
2070
1777
2012
1762
2101
1787
2027
1853
2297
2078
2363
1969
2209
1826
1976
1602
1871
1509
1855
1538
1776
1491
1869
1640
1849
1530
1706
1429
1758
1469
1789
1671
2034
1770
2091
1562
0
0
1592
1398
1709
1431
1703
1417
1787
1530
1746
1644
1898
1717
2181
1845
2165
1783
1992
1746
2170
2121
2386
2147
2379
2081
2237
1947
2213
1902
2179
1862
2078
1970
2318
1823
2228
1897
2224
1956
2358
1973
2240
1917
2027
1664
2085
1771
2093
1802
2045
1765
2002
1741
1945
1658
1962
1670
2038
1675
1946
1778
1922
1719
1914
1677
1914
1631
1885
1540
1866
1476
1757
1458
1870
1527
1844
1529
1890
1663
1929
1781
2037
1714
1947
1626
1739
1442
1626
1365
1570
1302
1506
1266
1577
1310
1491
1218
1464
1197
1487
1243
1572
1342
1865
1659
1898
1264
0
0
1507
1261
1672
1281
1603
1353
1685
1458
1709
1508
1882
1705
2185
1930
2125
1707
2034
1714
2133
2017
2282
1924
2161
1810
2101
1773
2029
1743
2008
1776
2037
1794
2203
1787
2057
1836
2150
2010
2385
2020
2146
1797
2054
1657
1998
1714
2039
1717
2013
1765
2017
1684
1928
1634
1934
1653
2095
1753
1992
1748
1922
1701
1836
1580
1893
1552
1832
1490
1846
1488
1722
1416
1786
1450
1713
1461
1777
1620
1954
1610
1885
1621
1781
1396
1736
1425
1666
1402
1572
1275
1573
1270
1478
1271
1579
1205
1479
1143
1461
1133
1518
1303
1725
1646
1727
1175
0
0
1067
1027
1225
991
1390
1050
1371
1163
1398
1170
1564
1421
1926
1610
1810
1477
1590
1305
1731
1509
1730
1472
1763
1445
1663
1401
1669
1466
1693
1405
1713
1426
1772
1492
1719
1446
1882
1754
2115
1746
1845
1491
1890
1466
1702
1461
1861
1565
1866
1486
1697
1389
1717
1473
1658
1416
1826
1598
1900
1589
1781
1405
1562
1367
1576
1291
1453
1203
1507
1108
1421
1130
1503
1099
1373
1147
1481
1158
1447
1249
1562
1218
1372
1149
1385
1145
1418
1275
1353
1046
1293
1074
1385
1194
1430
1098
1248
881
1155
804
1117
1074
1396
1266
1354
801
0
0
1339
1113
1559
1207
1647
1325
1706
1445
1795
1506
1933
1665
2231
1850
2117
1628
1874
1526
1981
1748
2006
1672
2106
1773
2022
1773
2057
1739
2127
1800
2065
1841
2124
1813
2093
1915
2277
2169
2557
2186
2437
2138
2341
2066
2404
2135
2514
2161
2438
1997
2311
1939
2253
1933
2377
2109
2536
2249
2516
2155
2338
1919
2153
1786
2194
1805
2076
1765
2129
1730
1986
1675
2049
1653
1997
1642
1898
1618
1982
1658
2018
1640
1907
1634
1876
1599
2006
1705
1928
1680
2077
1803
2213
1914
2178
1731
1897
1461
1774
1362
1745
1477
1883
1642
1851
1239
0
0
1530
1441
1749
1477
1874
1533
1929
1646
2005
1780
2034
1871
2260
1952
2198
1706
2049
1621
2084
1693
2054
1790
2051
1839
2053
1819
2120
1817
2084
1911
2074
1883
2102
1799
2241
1988
2446
2314
2556
2255
2440
2099
2394
2159
2482
2158
2478
2210
2346
2091
2182
1890
2205
1924
2395
2095
2476
2113
2374
2126
2260
1706
1931
1581
1839
1691
1934
1723
2013
1781
1938
1621
1706
1474
1842
1491
1767
1412
1617
1512
1789
1450
1637
1382
1579
1242
1579
1427
1683
1595
1898
1787
2062
1869
2058
1618
1627
1225
1538
1142
1462
1217
1476
1300
1486
885
0
0
1444
1306
1699
1459
1742
1381
1899
1488
1917
1584
1824
1629
1972
1764
1984
1502
1967
1597
1864
1588
1938
1645
2002
1762
2022
1718
2023
1764
2008
1764
2124
1885
2071
1864
2197
1995
2485
2202
2379
1984
2251
1906
2294
1954
2315
1975
2198
1941
2218
1937
2124
1768
2075
1834
2300
1986
2217
1980
2241
1910
2068
1554
1813
1518
1833
1646
1933
1860
2125
1818
1986
1733
1764
1429
1761
1420
1693
1315
1513
1325
1679
1290
1597
1360
1495
1262
1553
1291
1594
1330
1778
1732
2054
1796
1990
1539
1605
1249
1444
1060
1390
1082
1271
1156
1306
771
0
0
1109
1069
1405
1169
1390
1129
1493
1179
1526
1226
1363
1179
1520
1254
1569
1126
1573
1232
1559
1348
1572
1373
1668
1474
1728
1491
1811
1469
1826
1669
1870
1639
1906
1643
2065
1854
2158
1866
2050
1476
1807
1434
1819
1418
1749
1434
1677
1458
1710
1482
1717
1424
1659
1445
1821
1527
1715
1453
1850
1540
1793
1338
1577
1239
1571
1414
1783
1671
1841
1557
1949
1628
1725
1325
1493
1124
1410
1130
1320
1103
1333
1014
1272
1081
1289
921
1235
1097
1257
1195
1525
1394
1804
1559
1577
1210
1462
970
1247
895
1150
853
1011
789
973
434
0
0
1402
1259
1606
1343
1690
1365
1720
1433
1785
1405
1739
1452
1819
1556
1970
1572
1962
1546
1953
1623
1989
1766
2186
2026
2346
2006
2391
1939
2288
2116
2334
1984
2297
2033
2429
2186
2603
2259
2389
1928
2163
1856
2206
1803
2185
1803
2199
1838
2192
1821
2196
1777
2109
1839
2138
1954
2209
1828
2259
2011
2341
1841
2117
1789
2089
1864
2281
2098
2418
2261
2458
2212
2322
1983
2178
1818
2122
1714
2010
1693
1903
1563
1956
1639
1850
1427
1824
1602
1938
1805
2192
1938
2294
1864
2065
1703
1933
1627
1942
1418
1733
1425
1606
1321
1577
1037
0
0
1596
1449
1882
1461
1876
1603
1882
1611
1786
1604
1919
1681
2021
1857
2058
1761
2008
1845
2030
1826
2154
2073
2458
2181
2571
2150
2401
2028
2266
2042
2290
1975
2148
1906
2319
2278
2638
2210
2381
1923
2217
1844
2094
1883
2124
1892
2121
1865
2058
1790
2081
1814
2031
1741
1991
1751
2036
1682
2049
1806
1957
1698
1890
1691
1953
1673
2050
1860
2201
2125
2326
2091
2277
1894
2074
1775
2001
1673
1957
1499
1768
1357
1706
1461
1648
1349
1595
1413
1835
1647
2006
1833
2120
1584
1723
1418
1909
1530
1691
1399
1521
1244
1385
1085
1347
853
0
0
1460
1251
1717
1231
1685
1353
1783
1437
1717
1458
1796
1456
1954
1783
1980
1525
1968
1698
1999
1794
2194
1963
2389
2022
2443
1997
2189
1773
2001
1704
2045
1759
1911
1780
2189
2040
2420
2006
2186
1776
1979
1719
2002
1677
1945
1680
1976
1622
1965
1619
1893
1606
1819
1557
1850
1619
1931
1554
1962
1634
1836
1558
1813
1493
1809
1507
1862
1587
2013
1797
2031
1750
2080
1644
1970
1620
1986
1646
1904
1461
1716
1324
1644
1378
1579
1233
1547
1362
1883
1529
1930
1669
1786
1363
1490
1214
1598
1377
1577
1289
1409
1125
1307
950
1211
625
0
0
1044
922
1397
1034
1356
1085
1416
1062
1370
1122
1441
1200
1681
1587
1877
1397
1705
1538
1746
1533
1770
1655
1973
1626
1972
1572
1693
1410
1715
1444
1691
1492
1672
1445
1926
1779
2101
1677
1846
1486
1746
1486
1658
1397
1672
1450
1653
1400
1656
1423
1599
1379
1579
1325
1525
1325
1573
1285
1609
1344
1521
1306
1549
1269
1501
1193
1489
1188
1602
1410
1629
1373
1706
1230
1522
1274
1650
1348
1610
1284
1508
1124
1498
1178
1372
1089
1439
1193
1605
1365
1629
1309
1453
1131
1157
1007
1259
978
1326
1007
1232
876
1061
707
986
566
0
0
1316
1205
1619
1221
1728
1399
1653
1424
1746
1467
1911
1652
2186
1956
2251
1879
2173
1858
2090
1886
2151
1878
2210
1885
2235
1832
2138
1848
2174
1805
2198
1922
2170
1941
2494
2194
2498
2058
2324
1931
2299
1851
2233
1909
2182
2001
2210
2003
2269
1882
2216
1910
2187
1865
2089
1850
2153
1878
2170
1899
2074
1812
2092
1786
2066
1787
1975
1680
2120
1873
2079
1826
2147
1751
2101
1694
2166
1745
2050
1698
2052
1674
2017
1754
2070
1801
2141
1929
2270
2061
2226
1748
2026
1638
1724
1562
1946
1552
1822
1454
1796
1465
1769
1385
1789
1192
0
0
1482
1451
1871
1508
1908
1680
2029
1723
1977
1716
2053
1835
2415
2158
2402
1929
2225
1869
2162
1829
2120
1845
2223
1824
2129
1885
2102
1846
2133
1898
2184
1876
2330
2068
2453
2263
2425
2092
2293
2027
2289
1958
2153
1911
2178
2012
2170
1906
2176
1854
2282
2018
2225
1882
2107
1858
2021
1878
2132
1889
1982
1747
1884
1637
1944
1653
1798
1538
1858
1565
1762
1490
1850
1477
1791
1452
1842
1477
1700
1449
1710
1466
1764
1489
1783
1641
2058
1866
2205
1794
1993
1494
1645
1330
1457
1323
1577
1346
1651
1268
1529
1324
1497
1358
1633
1158
0
0
1402
1274
1669
1453
1844
1646
1909
1686
1893
1565
1933
1808
2301
1947
2214
1673
2022
1613
1961
1640
2006
1602
1994
1717
1968
1699
1937
1686
1965
1813
2034
1781
2198
2014
2513
2229
2354
1942
2317
2099
2212
1838
2048
1730
2138
1945
2213
2003
2246
1926
2294
2039
2257
1893
2104
1809
2028
1905
2209
1847
1849
1657
1840
1653
1891
1530
1781
1476
1750
1398
1686
1419
1707
1373
1733
1322
1745
1367
1492
1437
1637
1346
1589
1290
1711
1508
2069
1853
2165
1846
1810
1354
1502
1214
1455
1173
1482
1186
1570
1115
1556
1270
1541
1357
1641
1066
0
0
1125
1009
1442
1155
1582
1429
1795
1426
1598
1377
1668
1446
1894
1636
1771
1253
1604
1390
1668
1330
1629
1378
1668
1352
1556
1381
1717
1349
1732
1487
1898
1686
2111
1941
2257
2030
2180
1805
2005
1811
1997
1670
1837
1568
1946
1750
2071
1706
1973
1652
2165
1861
2062
1694
1933
1749
2010
1811
2006
1717
1783
1462
1736
1445
1737
1424
1626
1281
1502
1271
1436
1163
1430
1130
1474
1045
1378
1057
1250
1133
1444
1083
1451
1138
1367
1278
1698
1591
1971
1476
1654
1162
1323
938
1177
965
1138
1069
1298
925
1261
1078
1386
1130
1394
764
0
0
1412
1399
1748
1529
1994
1741
2020
1572
1874
1484
1882
1650
2088
1714
2029
1609
1950
1584
1940
1602
1939
1676
2036
1826
1994
1738
2106
1829
2218
2117
2425
2229
2683
2381
2658
2352
2578
2070
2458
2126
2410
2029
2178
1956
2390
2162
2458
2123
2361
2058
2553
2273
2556
2155
2440
2221
2572
2330
2666
2267
2397
2068
2251
2007
2450
2082
2331
1947
2093
1814
2072
1752
2132
1724
2100
1718
1945
1611
1833
1610
1933
1594
1947
1658
2097
1850
2330
2180
2429
1992
2185
1788
2006
1514
1749
1501
1818
1462
1913
1513
1855
1629
1821
1629
1845
1297
0
0
1569
1524
2013
1812
2133
1765
1966
1717
1850
1618
1869
1669
2017
1766
2038
1811
1925
1710
1947
1767
2022
1805
2088
1765
2097
1872
2119
1922
2298
2141
2658
2381
2679
2403
2541
2147
2292
2050
2413
1993
2212
1810
2098
1874
2101
1909
2180
1865
2051
1862
2203
2015
2268
1869
2237
2054
2377
2159
2292
1973
2119
1802
2036
1814
2206
1892
2130
1861
2068
1751
2013
1746
1918
1624
1900
1542
1741
1435
1674
1424
1651
1336
1677
1329
1793
1611
1954
1841
2063
1636
1837
1550
1762
1367
1581
1358
1617
1303
1474
1288
1582
1307
1474
1211
1395
901
0
0
1514
1364
1826
1493
1864
1592
1794
1434
1751
1414
1755
1525
1842
1640
1830
1728
1830
1642
1864
1661
1993
1755
2094
1722
2120
1793
2119
1888
2342
2163
2565
2228
2618
2205
2348
1841
2107
1835
2116
1833
2033
1732
2005
1702
2011
1719
2052
1756
2011
1709
2040
1774
2046
1704
2039
1941
2170
1882
2004
1625
1864
1570
1822
1555
1959
1746
1923
1629
1958
1733
2082
1765
1990
1678
1841
1549
1702
1349
1622
1339
1557
1275
1541
1274
1739
1501
1896
1673
1890
1449
1644
1334
1614
1330
1559
1302
1554
1369
1530
1293
1545
1206
1310
1051
1258
724
0
0
1132
1074
1360
1109
1477
1167
1409
1205
1523
1257
1457
1114
1505
1192
1578
1364
1610
1301
1580
1402
1860
1627
1969
1586
1850
1523
1796
1589
1958
1713
2124
1851
2153
1797
1906
1590
1786
1477
1787
1449
1677
1397
1638
1403
1698
1333
1765
1448
1668
1474
1702
1537
1672
1306
1739
1605
1778
1437
1576
1379
1633
1350
1546
1238
1677
1294
1517
1333
1571
1288
1753
1461
1766
1454
1690
1388
1654
1129
1488
1113
1342
1069
1293
986
1389
1188
1549
1293
1591
1160
1338
1018
1301
987
1242
1203
1498
1290
1493
1175
1348
941
1141
837
1051
437
0
0
1294
1200
1666
1316
1676
1354
1662
1481
1734
1469
1755
1380
1787
1476
1858
1631
1998
1700
2001
1908
2313
2111
2349
1973
2267
1950
2182
1866
2246
1860
2436
2190
2514
2090
2244
1879
2130
1831
2266
1866
2095
1833
2162
1897
2116
1821
2191
1822
2212
1867
2207
1894
2150
1790
2109
1938
2185
1848
1997
1782
2010
1747
1978
1711
2103
1762
2055
1679
2085
1691
2214
1962
2129
1847
2214
1908
2230
1755
2053
1637
2014
1594
1748
1563
1925
1684
2109
1862
2078
1645
1966
1574
1789
1512
1830
1847
2257
1981
2234
1838
1997
1629
1695
1293
1624
1029
0
0
1512
1456
1761
1506
1831
1605
1917
1652
1893
1640
1898
1587
1942
1751
2054
1777
2117
1997
2302
2142
2406
2199
2372
1963
2217
1878
2014
1736
2110
1843
2154
1998
2354
1956
2218
1804
2071
1802
2092
1855
2130
1830
2069
1845
1998
1850
2082
1802
2095
1777
2045
1705
2045
1722
2048
1754
1994
1655
1965
1591
1913
1559
1799
1666
1882
1606
1867
1549
1806
1485
1814
1519
1847
1527
1852
1693
2004
1775
1796
1562
1682
1453
1608
1320
1642
1473
1781
1570
1766
1381
1586
1347
1559
1226
1634
1504
1966
1737
1977
1677
1757
1395
1417
1171
1361
775
0
0
1517
1323
1658
1396
1662
1516
1892
1586
1907
1494
1851
1466
1931
1723
2133
1822
2158
1929
2200
1916
2234
1851
2135
1736
2106
1789
1925
1710
2046
1862
2134
1909
2198
1834
2117
1704
2002
1684
1993
1747
2142
1770
1978
1767
1989
1769
2092
1877
2161
1771
2039
1649
2058
1799
2027
1769
1957
1604
1936
1541
1866
1481
1813
1565
1866
1544
1717
1460
1723
1441
1833
1453
1745
1475
1762
1482
1749
1585
1765
1498
1733
1359
1594
1285
1625
1417
1750
1480
1707
1357
1559
1316
1449
1197
1573
1389
1963
1640
1879
1551
1730
1222
1369
1069
1232
628
0
0
1113
1064
1387
1125
1451
1253
1716
1406
1637
1306
1504
1224
1690
1462
1835
1563
1838
1510
1788
1551
1717
1487
1768
1349
1711
1433
1698
1362
1722
1562
1770
1545
1896
1516
1847
1437
1611
1445
1736
1430
1768
1435
1680
1418
1695
1564
1906
1674
1991
1557
1776
1527
1860
1594
1870
1492
1740
1427
1683
1302
1624
1298
1472
1295
1550
1364
1554
1237
1441
1069
1413
1124
1420
1128
1483
1145
1422
1203
1454
1201
1435
1134
1428
1037
1402
1192
1634
1347
1429
1013
1285
1037
1156
941
1302
1106
1618
1288
1493
1107
1271
994
1208
958
998
451
0
0
1531
1333
1709
1295
1755
1538
2033
1706
2056
1649
1914
1542
2027
1814
2176
1812
2088
1821
2092
1764
2058
1702
2085
1707
2090
1770
2055
1827
2125
1874
2162
1947
2346
1970
2244
1913
2135
1818
2101
1804
2182
1826
2153
1850
2227
2090
2531
2326
2561
2130
2477
2107
2516
2190
2398
2038
2416
2051
2284
1842
2065
1769
2026
1783
2118
1829
2035
1645
2010
1614
1966
1551
2009
1707
1930
1595
1949
1669
1957
1636
1960
1616
1928
1697
2013
1885
2254
1846
2111
1589
1869
1558
1784
1437
1841
1558
2029
1710
1885
1525
1858
1579
1793
1491
1649
1038
0
0
1709
1626
2052
1845
2103
1802
2218
2075
2223
1790
2104
1723
2030
1825
2237
1899
2101
1842
2139
1788
2129
1846
2138
1854
2189
1974
2165
1956
2100
1883
2295
2109
2453
2169
2312
1962
2177
1933
2282
2013
2263
1931
2178
1897
2241
2107
2566
2356
2647
2219
2417
2253
2518
2246
2440
2146
2361
2117
2372
1918
1995
1735
1993
1794
2141
1781
1931
1626
1853
1542
1837
1537
1739
1538
1766
1474
1687
1476
1679
1433
1774
1477
1682
1585
1855
1708
2054
1816
1869
1537
1645
1480
1540
1432
1576
1309
1735
1469
1649
1335
1594
1412
1706
1347
1497
1013
0
0
1572
1576
1882
1805
2066
1738
2133
1827
1978
1557
1815
1524
1866
1622
1919
1620
1847
1563
1929
1680
1914
1678
2071
1743
2056
1821
2006
1738
2008
1774
2146
1925
2429
2092
2318
1930
2173
1847
2278
2036
2218
1900
2158
1776
2117
1933
2398
2121
2457
1969
2181
2024
2365
2007
2211
1931
2182
1976
2276
1855
2031
1701
1995
1747
2155
1827
1865
1602
1801
1457
1671
1477
1717
1385
1651
1307
1492
1301
1601
1224
1646
1302
1547
1449
1800
1586
1893
1663
1750
1422
1616
1403
1508
1341
1482
1181
1546
1270
1398
1194
1510
1289
1570
1218
1426
925
0
0
1189
1197
1642
1453
1741
1303
1750
1435
1533
1194
1444
1167
1481
1287
1623
1361
1511
1188
1605
1321
1498
1349
1723
1476
1758
1513
1710
1431
1749
1596
1860
1788
2153
1985
2181
1768
1966
1669
1932
1711
1949
1699
1796
1470
1794
1600
2095
1787
2006
1522
1836
1618
1946
1540
1802
1557
1819
1680
1914
1495
1705
1414
1717
1574
1936
1487
1654
1362
1457
1192
1517
1209
1396
1111
1293
1062
1350
1049
1307
1016
1364
1118
1288
1135
1509
1250
1521
1352
1423
1189
1380
1273
1370
1100
1129
927
1286
986
1187
952
1213
930
1146
968
1034
645
0
0
1442
1378
1879
1731
2004
1577
1923
1563
1822
1489
1846
1465
1812
1573
1950
1622
1896
1626
1941
1691
1981
1684
2120
1883
2159
1941
2125
1894
2246
1999
2425
2253
2650
2423
2615
2194
2297
1974
2375
1973
2388
1947
2212
1851
2171
1936
2493
2106
2365
1957
2130
1885
2253
1941
2192
1915
2250
2027
2275
1894
2090
1829
2244
1926
2338
1905
2149
1873
2021
1786
2146
1834
1990
1682
1966
1729
1902
1650
1897
1592
1972
1642
1874
1677
2085
1776
1970
1725
1983
1685
2020
1876
2055
1672
1858
1444
1826
1514
1707
1459
1737
1444
1834
1419
1681
1211
0
0
1693
1674
2146
1820
1931
1662
1936
1742
2022
1706
1995
1723
2077
1764
1997
1717
2053
1843
2169
1930
2125
1968
2347
1997
2277
2020
2373
2101
2322
2135
2454
2383
2635
2351
2481
2074
2213
1943
2214
1929
2180
1945
2107
1834
2150
1829
2186
1922
2084
1764
1981
1819
1984
1700
1898
1813
2026
1725
2041
1716
1908
1687
1890
1746
2061
1692
1934
1609
1962
1672
1974
1730
1917
1657
1830
1531
1771
1602
1687
1481
1726
1458
1663
1419
1738
1485
1713
1477
1678
1354
1768
1591
1866
1513
1651
1296
1542
1291
1492
1175
1489
1197
1525
1192
1457
1028
0
0
1627
1469
1860
1556
1728
1442
1805
1428
1859
1480
1861
1668
2084
1718
1960
1619
1912
1657
2102
1802
2051
1914
2165
1893
2259
1937
2213
1954
2107
2039
2322
2121
2421
2023
2205
1864
1971
1709
2013
1687
2053
1743
1906
1661
1958
1718
1963
1689
1935
1594
1861
1588
1837
1563
1870
1649
1846
1530
1893
1517
1802
1578
1832
1544
1939
1569
1749
1415
1709
1509
1838
1671
1853
1505
1770
1455
1777
1570
1698
1323
1550
1301
1535
1338
1579
1318
1571
1300
1557
1196
1595
1387
1658
1349
1453
1274
1450
1242
1470
1068
1361
1019
1419
1085
1267
843
0
0
1276
1218
1532
1178
1397
1224
1497
1299
1489
1300
1707
1558
1941
1643
1797
1525
1738
1562
1987
1701
1840
1636
1918
1594
1923
1533
1871
1613
1787
1545
1825
1718
2008
1682
1809
1573
1732
1503
1711
1427
1771
1478
1645
1369
1702
1416
1714
1394
1701
1389
1605
1389
1579
1280
1586
1362
1684
1316
1621
1346
1493
1307
1484
1323
1613
1193
1435
1193
1442
1156
1449
1277
1562
1269
1535
1294
1467
1330
1525
1172
1327
1103
1243
1074
1378
1027
1271
1114
1266
988
1402
1093
1316
1017
1218
1054
1291
1027
1229
971
1110
769
1131
798
1102
661
0
0
1585
1333
1854
1405
1605
1374
1701
1461
1858
1570
2019
1959
2436
2018
2271
1941
2229
2000
2290
2052
2263
1898
2221
1857
2165
1835
2131
1868
2091
1909
2234
1909
2353
1963
2255
1963
2214
1886
2173
1902
2153
1861
2197
1899
2226
1932
2162
1889
2171
1762
2096
1799
2145
1746
2103
1883
2298
1930
2316
1896
2063
1788
2034
1880
2138
1749
2054
1663
1939
1704
1968
1706
2066
1698
1993
1711
2046
1850
2069
1765
1978
1716
1980
1668
2014
1691
1971
1677
1899
1606
1999
1601
1931
1527
1827
1641
1995
1738
1905
1602
1830
1474
1781
1387
1640
1101
0
0
1638
1517
1965
1622
1908
1642
1925
1684
1945
1764
2299
2219
2626
2261
2493
2149
2340
1961
2266
1981
2138
1938
2139
1874
2199
1830
2167
1825
2128
1890
2126
1899
2102
1947
2219
1867
2162
1893
2162
1785
2091
1943
2157
1783
2182
1893
2166
1815
2093
1818
2117
1806
2149
1734
2065
1829
2219
1992
2202
1876
2074
1689
1975
1712
1994
1615
1826
1616
1867
1590
1770
1436
1746
1555
1754
1445
1754
1449
1780
1544
1765
1473
1761
1538
1710
1535
1659
1427
1626
1334
1641
1378
1578
1370
1563
1444
1788
1340
1828
1387
1707
1320
1500
1060
1387
904
0
0
1379
1325
1775
1474
1760
1518
1837
1541
1871
1736
2225
2042
2513
2165
2298
1914
2081
1661
2040
1605
1954
1734
1966
1650
2001
1682
1995
1687
2006
1719
2038
1801
1914
1707
2133
1690
2017
1730
2025
1714
1994
1686
2114
1748
2142
1842
2222
1877
2053
1681
2070
1752
2102
1643
2031
1769
2153
1842
2101
1893
1939
1652
1888
1583
1890
1429
1773
1497
1759
1481
1627
1282
1719
1373
1605
1322
1637
1356
1598
1393
1645
1362
1739
1485
1793
1559
1675
1250
1579
1253
1552
1210
1469
1121
1391
1204
1564
1220
1638
1354
1641
1310
1474
1033
1290
749
0
0
1079
1054
1446
1128
1483
1245
1514
1354
1678
1489
2005
1770
2199
1764
1842
1374
1735
1346
1623
1332
1615
1398
1655
1390
1775
1341
1738
1421
1698
1436
1720
1446
1697
1371
1845
1403
1754
1461
1806
1453
1797
1497
1922
1523
1866
1717
2066
1673
1845
1546
1845
1499
1816
1405
1706
1501
1815
1509
1800
1434
1650
1386
1668
1389
1662
1220
1477
1259
1449
1163
1399
1106
1399
1142
1402
1098
1365
1084
1221
1046
1365
1042
1517
1381
1554
1334
1465
1090
1316
1032
1290
1032
1274
927
1164
1026
1273
902
1371
1025
1378
1193
1315
933
1140
586
0
0
1380
1270
1716
1429
1855
1582
1957
1704
2052
1764
2289
1988
2349
1932
1957
1554
2004
1579
1923
1632
2005
1716
2053
1730
2083
1698
2084
1762
2102
1819
2107
1897
2119
1946
2281
1949
2237
1950
2280
1930
2246
1992
2378
2082
2527
2274
2709
2338
2471
2007
2314
2037
2292
1804
2220
1826
2185
1883
2090
1848
2069
1834
2138
1768
2082
1731
2033
1762
2066
1779
1943
1634
1914
1693
1974
1712
1919
1565
1910
1636
1932
1615
2066
1854
2146
1877
2041
1669
1894
1554
1972
1562
1841
1536
1683
1517
1787
1416
1834
1515
1902
1709
2056
1617
1858
1219
0
0
1595
1498
1794
1714
2117
1862
2192
1875
2155
1881
2325
1967
2363
2077
2138
1768
1997
1757
1931
1732
2165
1862
2171
1883
2146
1845
2290
2002
2109
1874
2253
1960
2276
2062
2324
2085
2353
2141
2341
1931
2324
2070
2410
2166
2553
2452
2582
2261
2406
2003
2273
1780
1981
1641
1901
1614
1946
1641
1941
1552
1829
1570
1810
1543
1905
1610
1914
1550
1832
1658
1859
1549
1781
1588
1747
1441
1627
1397
1642
1466
1653
1442
1774
1595
1981
1595
1834
1481
1674
1431
1721
1439
1632
1290
1467
1213
1506
1208
1484
1241
1614
1354
1712
1457
1670
894
0
0
1577
1481
1798
1650
2044
1723
2042
1733
1902
1573
2009
1780
2125
1843
1984
1575
1851
1534
1883
1573
1979
1638
2018
1726
2034
1782
2291
1986
2158
1848
2212
1866
2224
2009
2322
1922
2214
1950
2229
1794
2189
1882
2309
1988
2442
2202
2418
2050
2386
1937
2135
1704
1911
1623
1818
1518
1885
1530
1870
1527
1754
1462
1751
1373
1906
1489
1726
1481
1785
1545
1738
1429
1714
1457
1637
1394
1587
1317
1589
1331
1656
1362
1670
1452
1789
1423
1638
1362
1562
1378
1755
1490
1632
1181
1439
1176
1469
1121
1476
1088
1442
1154
1510
1274
1477
851
0
0
1300
1239
1554
1386
1655
1364
1690
1284
1545
1267
1714
1412
1789
1538
1607
1337
1548
1384
1626
1424
1673
1437
1745
1544
1915
1734
2029
1736
1978
1577
1962
1723
2020
1798
2037
1730
1819
1570
1798
1499
1770
1613
1810
1549
1943
1834
1986
1645
2026
1685
1860
1527
1663
1335
1590
1386
1617
1265
1559
1281
1490
1225
1444
1138
1619
1186
1562
1219
1495
1262
1499
1234
1441
1250
1369
1133
1330
1087
1269
946
1330
1093
1370
1147
1444
1113
1352
1115
1274
1092
1506
1364
1508
1133
1310
981
1194
917
1257
956
1114
854
1227
921
1129
531
0
0
1617
1485
1747
1477
1853
1399
1844
1485
1735
1485
1938
1712
2071
1851
1938
1703
2085
1680
2070
1733
2045
1674
2176
1978
2381
2084
2514
2098
2216
1841
2306
2002
2299
2057
2437
1960
2158
1805
2128
1749
2099
1752
2100
1797
2302
2101
2245
2009
2258
2004
2197
1868
2113
1723
2026
1741
2182
1825
2013
1740
2054
1653
1922
1634
1998
1658
1972
1657
1915
1659
1949
1737
2010
1697
1897
1652
1946
1590
1933
1552
1877
1597
1915
1622
1879
1604
1881
1501
1911
1580
1986
1810
2116
1603
1901
1528
1697
1384
1684
1392
1711
1261
1613
1326
1620
1018
0
0
1865
1690
2038
1650
1834
1692
2030
1746
2052
1733
2043
2007
2336
2141
2292
1969
2254
2003
2276
1973
2130
1928
2286
2088
2354
2119
2370
2050
2210
1880
2162
1877
2196
1973
2200
1896
2114
1814
2084
1854
2173
1780
2075
1845
2092
1919
2081
1865
2069
1725
2069
1742
2009
1686
1994
1778
2035
1795
1965
1738
1914
1665
1845
1566
1978
1590
1773
1615
1833
1562
1794
1520
1761
1521
1803
1433
1771
1622
1790
1485
1797
1478
1687
1515
1635
1521
1618
1409
1731
1416
1714
1461
1780
1538
1781
1464
1535
1353
1580
1149
1405
1138
1325
1034
1330
936
0
0
1684
1467
1806
1403
1640
1458
1826
1555
1854
1565
2050
1909
2333
2093
2257
1931
2152
1835
2118
1729
1902
1739
2006
1746
2065
1803
2105
1689
2046
1690
1904
1661
2011
1750
1971
1732
1919
1684
1917
1705
1927
1683
1943
1656
1922
1718
1954
1605
1883
1640
1850
1603
1930
1574
1885
1633
1899
1694
1889
1637
1891
1660
1902
1495
1861
1572
1704
1437
1686
1380
1630
1353
1659
1293
1686
1313
1681
1451
1801
1416
1737
1312
1516
1329
1558
1379
1528
1245
1554
1314
1579
1319
1618
1357
1719
1330
1534
1263
1480
1007
1277
1009
1237
957
1195
607
0
0
1161
1107
1380
1128
1354
1113
1475
1173
1637
1286
1757
1650
2053
1733
1862
1590
1746
1428
1661
1332
1540
1298
1645
1365
1710
1449
1716
1365
1655
1339
1604
1419
1652
1386
1502
1320
1590
1353
1565
1333
1688
1334
1538
1358
1675
1333
1623
1386
1608
1188
1634
1254
1544
1329
1554
1288
1573
1337
1569
1330
1645
1445
1602
1364
1702
1352
1554
1257
1431
1171
1453
1146
1327
1018
1354
1069
1467
1257
1451
1178
1430
1017
1292
1066
1268
1109
1321
1131
1302
1069
1390
965
1262
1020
1373
1154
1284
1021
1193
772
1050
757
994
731
868
519
0
0
1350
1258
1700
1361
1653
1386
1778
1434
1881
1627
2117
1913
2277
1882
2040
1790
1979
1646
1914
1653
1918
1672
2051
1704
2096
1795
2085
1746
2031
1680
2032
1720
2138
1789
2058
1709
1979
1794
2085
1810
2093
1746
2090
1841
2140
1826
2133
1841
2122
1759
2060
1729
2090
1730
2054
1654
2037
1746
2046
1758
2099
1796
2103
1902
2261
1878
2216
1878
2002
1637
1945
1653
1910
1526
1919
1578
1908
1652
1859
1657
2004
1528
1947
1641
1904
1781
1985
1708
1886
1514
1835
1490
1749
1430
1812
1520
1825
1584
1797
1332
1612
1274
1512
1274
1522
941
0
0
1579
1479
1870
1663
1890
1651
2074
1812
2068
2022
2215
2141
2318
1967
2132
1766
2091
1818
2055
1812
2082
1784
2146
1808
2128
1906
2135
1806
2189
1850
2129
1790
2198
1894
2173
1906
2138
1932
2181
1915
2158
1978
2102
1875
2142
1940
2216
1943
2235
1808
2055
1725
1893
1639
1846
1590
1861
1669
1813
1609
1894
1537
1974
1741
2068
1739
2110
1692
1958
1563
1802
1563
1714
1420
1661
1444
1590
1322
1688
1434
1707
1448
1720
1493
1941
1776
1958
1560
1729
1400
1585
1392
1527
1250
1558
1301
1658
1299
1508
1186
1360
1117
1377
1038
1337
772
0
0
1360
1254
1647
1442
1761
1498
1842
1518
1861
1669
1989
1812
1948
1573
1859
1539
1837
1557
1826
1554
1825
1545
1962
1603
1922
1587
2031
1635
1944
1650
1885
1690
2170
1777
2069
1794
2069
1872
2120
1809
2050
1880
2104
1868
2125
1912
2202
1917
2180
1717
1864
1597
1746
1418
1669
1432
1668
1441
1687
1358
1682
1357
1680
1374
1769
1428
1902
1525
1840
1428
1626
1399
1610
1293
1461
1214
1424
1165
1439
1236
1521
1190
1544
1371
1798
1738
1879
1525
1594
1229
1374
1178
1427
1176
1402
1077
1412
1093
1349
1066
1309
962
1226
845
1060
505
0
0
1077
1019
1382
1256
1553
1273
1573
1250
1444
1306
1518
1410
1633
1365
1509
1222
1541
1285
1485
1307
1556
1331
1702
1314
1703
1405
1717
1448
1762
1501
1845
1618
1894
1597
1826
1658
1962
1627
1919
1585
1877
1595
1879
1701
1944
1746
1973
1757
2054
1586
1810
1474
1520
1249
1429
1159
1391
1186
1352
1226
1464
1114
1449
1141
1418
1090
1584
1141
1451
1146
1324
1181
1389
1065
1291
1050
1202
932
1178
993
1258
1042
1277
1157
1634
1493
1690
1347
1413
1094
1180
996
1096
841
1107
922
1078
893
1125
911
1129
781
1027
669
1006
405
0
0
1366
1250
1700
1506
1778
1469
1802
1489
1721
1554
1773
1629
1794
1501
1830
1514
1890
1594
1904
1638
1987
1637
2110
1778
2113
1885
2199
1877
2202
1927
2389
1969
2350
1916
2337
2021
2338
1992
2277
1972
2167
1973
2203
1988
2254
1965
2327
2086
2476
2037
2303
1975
2160
1814
1978
1722
1978
1619
1901
1702
1975
1589
1972
1506
1957
1607
1898
1557
1954
1601
1859
1674
1938
1702
1917
1654
1825
1534
1769
1570
1841
1577
1865
1597
2223
2037
2291
1885
2050
1653
1765
1538
1742
1387
1761
1417
1772
1481
1682
1438
1690
1481
1634
1301
1557
901
0
0
1629
1594
1903
1634
1877
1531
1871
1618
1913
1684
1885
1605
1974
1708
1992
1723
2029
1757
2074
1776
2069
1867
2245
1947
2229
1908
2169
1901
2162
1970
2350
1941
2251
1794
2082
1938
2178
1905
2154
1789
1992
1750
2027
1741
1993
1805
2069
1818
2135
1866
2035
1757
1966
1733
1873
1716
1879
1647
1926
1534
1891
1563
1821
1473
1821
1483
1831
1545
1706
1365
1746
1531
1735
1561
1883
1558
1810
1363
1562
1365
1589
1332
1577
1498
1794
1764
2055
1709
1821
1377
1554
1202
1476
1265
1462
1174
1426
1230
1477
1242
1477
1288
1413
1141
1384
788
0
0
1520
1278
1705
1328
1637
1293
1665
1367
1738
1373
1742
1460
1790
1514
1863
1494
1854
1562
1858
1594
1934
1774
2085
1725
1971
1637
1855
1648
1924
1673
1973
1557
1866
1525
1835
1548
1834
1645
1913
1541
1733
1461
1790
1525
1738
1475
1748
1437
1783
1515
1686
1465
1750
1525
1739
1604
1735
1595
1861
1466
1834
1517
1778
1361
1632
1292
1635
1294
1542
1201
1529
1332
1579
1397
1746
1397
1655
1394
1509
1253
1450
1167
1386
1205
1585
1468
1752
1437
1602
1348
1461
1091
1307
1143
1321
1075
1235
977
1244
1000
1297
1228
1354
1013
1102
610
0
0
1123
957
1306
1128
1321
1001
1349
1110
1442
1117
1430
1193
1577
1386
1672
1282
1649
1321
1479
1302
1674
1467
1722
1378
1668
1276
1518
1373
1549
1358
1581
1193
1594
1296
1483
1272
1529
1282
1584
1226
1479
1234
1395
1194
1482
1160
1482
1161
1445
1166
1428
1106
1376
1188
1349
1204
1476
1305
1636
1301
1654
1303
1653
1231
1577
1234
1421
1072
1376
997
1290
1085
1233
1043
1393
1133
1502
1162
1419
1063
1272
996
1266
1021
1298
1124
1334
1093
1241
1009
1300
983
1198
786
1090
894
1091
820
1109
811
1073
877
1035
763
997
456
0
0
1284
1136
1469
1218
1545
1167
1649
1346
1666
1391
1769
1473
1900
1686
2068
1787
1990
1563
1854
1597
1953
1637
2010
1618
1948
1595
1963
1698
1957
1626
2009
1600
1966
1626
1891
1652
1954
1653
1980
1609
1844
1623
1865
1625
1834
1654
1917
1611
1907
1578
1805
1546
1933
1557
1864
1642
1867
1629
2014
1659
2123
1832
2186
1845
2131
1765
1926
1522
1882
1480
1771
1537
1823
1533
1975
1605
1995
1726
2061
1652
1906
1467
1695
1478
1815
1624
1894
1525
1717
1526
1782
1490
1761
1477
1626
1373
1578
1357
1685
1316
1588
1389
1573
1193
1537
994
0
0
1333
1216
1589
1332
1629
1323
1739
1503
1786
1483
1894
1786
2084
1851
2198
1787
2101
1677
1867
1616
1897
1586
1845
1567
1914
1635
1906
1680
1925
1578
1840
1645
1869
1572
1908
1579
1840
1525
1924
1566
1762
1553
1777
1494
1845
1524
1712
1509
1753
1423
1736
1497
1642
1415
1690
1496
1736
1377
1668
1412
1825
1601
1928
1674
1877
1587
1850
1506
1685
1352
1602
1310
1508
1221
1578
1370
1655
1416
1730
1581
1725
1433
1570
1254
1574
1375
1637
1226
1513
1365
1506
1303
1572
1243
1322
1042
1348
1069
1348
1066
1285
1057
1314
1001
1202
645
0
0
1051
969
1289
1066
1403
1178
1619
1219
1588
1297
1717
1511
1897
1561
1917
1510
1693
1330
1585
1386
1691
1322
1613
1360
1611
1391
1725
1414
1651
1302
1666
1294
1731
1358
1629
1391
1605
1297
1720
1364
1525
1294
1579
1242
1673
1317
1608
1274
1566
1205
1605
1313
1576
1205
1473
1218
1501
1114
1493
1170
1571
1253
1592
1307
1667
1393
1717
1371
1532
1227
1451
1175
1362
1061
1366
1113
1429
1137
1462
1266
1641
1285
1495
1032
1361
1069
1352
1054
1291
1085
1228
930
1375
1076
1195
915
1226
794
1177
881
1105
800
1122
830
1018
570
0
0
618
523
797
606
881
693
1146
789
1172
918
1186
877
1283
1045
1314
948
1170
747
1165
847
1203
819
1097
890
1232
927
1217
932
1259
946
1197
848
1253
874
1207
938
1227
853
1377
961
1133
961
1174
877
1122
845
1109
845
1221
889
1111
875
1138
843
1076
804
1061
717
1069
689
1083
828
1049
882
1110
895
1138
915
1132
861
1101
739
961
698
950
723
936
624
875
657
1058
783
1060
731
958
681
900
515
821
572
818
470
866
603
780
536
829
394
767
521
605
434
716
373
651
197
0
0
0
0
0
0
0
0
0
0
0
0
0
0
0
0
0
0
0
0
0
0
0
0
0
0
0
0
0
0
0
0
0
0
0
0
0
0
0
0
0
0
0
0
0
0
0
0
0
0
0
0
0
0
0
0
0
0
0
0
0
0
0
0
0
0
0
0
0
0
0
0
0
0
0
0
0
0
0
0
0
0
0
0
0
0
0
0
0
0
0
0
0
0
0
0
0
0
0
0
0
0
0
0
0
0
0
0
0
