P2
108 88
4095
0
0
0
0
0
0
0
0
0
0
0
0
0
0
0
0
0
0
0
0
0
0
0
0
0
0
0
0
0
0
0
0
0
0
0
0
0
0
0
0
0
0
0
0
0
0
0
0
0
0
0
0
0
0
0
0
0
0
0
0
0
0
0
0
0
0
0
0
0
0
0
0
0
0
0
0
0
0
0
0
0
0
0
0
0
0
0
0
0
0
0
0
0
0
0
0
0
0
0
0
0
0
0
0
0
0
0
0
0
1035
904
1246
935
1351
1066
1413
1133
1472
1157
1303
1018
1429
1205
1474
1175
1477
1195
1444
1207
1456
1330
1661
1354
1569
1365
1582
1385
1754
1438
1759
1356
1732
1322
1685
1362
1621
1314
1645
1246
1630
1306
1557
1279
1563
1274
1490
1338
1645
1293
1593
1275
1589
1177
1521
1242
1404
1140
1482
1150
1474
1129
1391
1114
1530
1220
1466
1108
1358
1093
1427
1258
1482
1201
1424
1142
1333
1005
1394
1067
1350
1045
1445
1076
1344
1040
1301
1170
1499
1178
1474
1130
1334
1014
1262
834
1098
797
1260
923
1277
1094
1370
1163
1315
835
0
0
805
798
1073
749
1253
882
1267
1018
1230
987
1178
873
1201
973
1380
1058
1302
1066
1371
1125
1478
1243
1653
1277
1547
1269
1560
1305
1688
1446
1714
1339
1695
1342
1757
1366
1591
1363
1539
1281
1593
1324
1508
1222
1405
1188
1466
1386
1706
1267
1541
1202
1448
1149
1358
1120
1335
1077
1398
1041
1366
1016
1321
1082
1428
1117
1338
1045
1341
986
1309
1128
1331
1042
1300
973
1161
927
1266
996
1269
991
1261
855
1197
948
1138
1051
1361
1210
1524
1189
1448
1089
1238
934
1178
795
1277
1021
1300
1043
1381
1085
1234
825
0
0
1057
966
1381
1019
1497
1188
1580
1230
1613
1332
1541
1246
1645
1355
1685
1427
1778
1509
1871
1634
1989
1773
2181
1834
2090
1794
2050
1844
2199
2071
2360
1915
2314
1968
2381
1965
2196
1924
2160
1888
2164
1809
2062
1763
2063
1794
2114
1956
2283
1876
2126
1797
2125
1666
2013
1658
1833
1637
2013
1605
1974
1601
1965
1625
2065
1640
1922
1636
1958
1573
1913
1604
1901
1576
1824
1533
1738
1426
1805
1487
1777
1463
1794
1462
1826
1502
1704
1578
1924
1700
2154
1718
1987
1744
1986
1611
1902
1506
1936
1643
1985
1614
2053
1706
1945
1445
0
0
1441
1360
1717
1509
1885
1554
1939
1632
1907
1654
1877
1643
2039
1801
2066
1865
2095
1831
2138
2000
2398
2171
2470
2289
2326
2157
2338
2185
2517
2239
2529
2114
2469
2162
2506
2308
2474
2123
2420
2091
2400
2058
2284
1965
2263
1956
2262
2082
2436
2092
2292
1864
2129
1883
2091
1926
2108
1761
2094
1847
2029
1714
1954
1750
2041
1754
2060
1721
2000
1732
1894
1637
1821
1586
1653
1419
1730
1348
1581
1469
1698
1445
1678
1330
1639
1336
1546
1360
1693
1425
1893
1576
2007
1614
1962
1638
1860
1506
1989
1560
1899
1541
1908
1638
1770
1238
0
0
1285
1210
1597
1326
1783
1386
1948
1567
1822
1597
1890
1691
2039
1685
2050
1737
2022
1746
2058
1861
2277
1924
2309
2109
2238
1963
2186
2091
2393
2125
2350
1946
2342
2152
2298
1913
2250
1950
2212
1865
2185
1812
2083
1757
2134
1828
2234
1903
2355
1897
2164
1826
2121
1841
2102
1815
2134
1691
2054
1833
2092
1738
2022
1756
2157
1803
2053
1742
2121
1682
1953
1576
1745
1362
1597
1330
1629
1200
1532
1314
1568
1227
1482
1190
1545
1218
1482
1175
1502
1166
1621
1302
1672
1461
1804
1520
1710
1491
1870
1470
1861
1484
1733
1460
1650
1085
0
0
1114
1013
1293
1148
1460
1149
1608
1259
1582
1421
1633
1322
1769
1464
1723
1450
1648
1360
1680
1490
1841
1622
1945
1690
1871
1582
1825
1569
1992
1699
1946
1531
2002
1589
1973
1605
1804
1513
1842
1419
1750
1362
1653
1312
1700
1412
1818
1537
1942
1464
1818
1499
1749
1386
1750
1513
1797
1435
1828
1681
1829
1538
1762
1536
1883
1585
1890
1637
1923
1650
1755
1397
1467
1156
1448
1090
1413
1125
1189
1039
1392
1029
1146
914
1187
891
1065
960
1206
853
1255
987
1255
1088
1318
1136
1463
1181
1653
1198
1630
1272
1541
1248
1275
776
0
0
1414
1249
1639
1363
1818
1419
1901
1493
1844
1677
1905
1621
2106
1701
2012
1724
1936
1600
1993
1731
2102
1872
2199
1946
2188
1898
2188
1962
2298
2077
2354
1894
2314
2041
2356
1949
2138
1768
2221
1809
2130
1734
2004
1741
2045
1785
2137
1842
2154
1937
2170
1863
2155
1798
2051
1919
2258
1930
2230
2098
2378
2025
2338
2021
2371
2179
2451
2138
2546
2141
2346
1933
2164
1845
2053
1840
2132
1757
1955
1757
2024
1669
1942
1563
1931
1426
1750
1477
1812
1446
1851
1456
1840
1431
1826
1637
1961
1694
2191
1864
2289
1874
2133
1758
1866
1306
0
0
1610
1546
1915
1650
1909
1684
2011
1637
2089
1776
2069
1787
2084
1874
2178
1778
2067
1778
2090
1746
2006
1922
2289
1883
2267
1877
2190
1916
2276
2024
2367
2082
2361
2071
2250
1959
2250
1928
2089
1840
2077
1819
2118
1735
1994
1709
2116
1854
2021
1768
1976
1699
1985
1773
2005
1778
2098
1852
2098
1811
2147
1899
2157
1905
2333
1974
2323
2053
2436
2011
2284
1840
2055
1785
2039
1898
2044
1756
1969
1676
2109
1639
1830
1524
1724
1357
1682
1387
1610
1348
1551
1339
1562
1285
1540
1259
1651
1420
1830
1650
1929
1690
1778
1525
1753
1242
0
0
1381
1211
1621
1261
1677
1382
1750
1317
1673
1455
1693
1415
1866
1690
1994
1574
1850
1527
1867
1506
1778
1612
2004
1672
2077
1685
2007
1684
2051
1789
2138
1815
2153
1732
2043
1609
2030
1620
1928
1549
1848
1509
1933
1530
1900
1680
1909
1626
1768
1513
1734
1515
1877
1548
1771
1520
1854
1593
1845
1534
1943
1647
1869
1636
2108
1879
2216
1840
2267
1799
2021
1659
1759
1578
1897
1761
1927
1668
1957
1685
2052
1652
1893
1507
1660
1299
1564
1261
1403
1291
1406
1157
1378
1078
1381
1004
1476
1302
1466
1323
1708
1384
1581
1289
1584
1109
0
0
1076
923
1278
979
1320
1115
1410
1093
1445
1143
1349
1111
1392
1261
1529
1254
1570
1282
1602
1264
1522
1322
1655
1356
1755
1506
1757
1394
1707
1501
1786
1609
1864
1555
1672
1384
1654
1403
1578
1348
1608
1293
1733
1449
1771
1517
1707
1358
1581
1390
1573
1343
1578
1364
1615
1281
1642
1385
1562
1264
1614
1322
1586
1339
1734
1561
1888
1623
1924
1523
1769
1321
1446
1256
1601
1502
1741
1512
1834
1550
1899
1522
1778
1401
1563
1210
1435
1125
1377
1090
1225
921
1197
870
1156
885
1169
955
1165
939
1262
979
1280
1013
1391
841
0
0
1276
1123
1482
1164
1602
1262
1675
1286
1745
1378
1749
1402
1723
1458
1896
1554
1917
1700
2037
1658
1977
1685
2073
1627
2114
1829
2198
1841
2229
1962
2354
2004
2337
1922
2170
1834
2110
1853
2159
1797
2089
1779
2270
1973
2402
2074
2226
1843
2029
1796
2114
1856
2228
1844
2186
1701
2085
1798
1994
1636
2062
1770
2084
1781
2333
1966
2389
2061
2388
1949
2186
1757
1946
1732
2058
1834
2186
2026
2280
1986
2396
2098
2388
1956
2240
1890
2151
1819
2026
1741
1965
1644
1861
1495
1721
1341
1734
1499
1665
1382
1685
1396
1853
1546
1973
1485
0
0
1439
1378
1826
1450
1757
1500
1821
1449
1784
1542
1910
1621
1917
1758
2036
1730
2148
1964
2395
2042
2065
1837
2125
1838
2081
1970
2380
2169
2453
2269
2538
2219
2425
2138
2330
2013
2242
1941
2173
1898
2186
2034
2373
2089
2398
2081
2278
1883
2155
1745
2011
1812
2141
1985
2129
1860
2110
1754
1974
1621
1890
1623
1948
1673
2094
1789
2021
1796
2094
1690
1841
1559
1834
1485
1850
1606
2030
1714
1958
1740
2023
1771
2142
1675
2085
1748
1993
1782
2000
1682
1896
1600
1729
1254
1622
1137
1478
1189
1373
1128
1414
1192
1512
1346
1454
1160
0
0
1368
1254
1657
1346
1650
1380
1702
1366
1730
1411
1842
1566
1857
1710
2071
1837
2210
2058
2357
1970
2155
1861
2103
1766
2077
1922
2310
2101
2389
2122
2452
2127
2373
2100
2354
2004
2225
1963
2301
1961
2253
2101
2434
2104
2419
2100
2276
1835
2170
1668
1972
1715
2082
1933
2293
1921
2194
1765
1909
1550
1797
1542
1837
1577
1957
1687
1932
1594
1810
1408
1706
1338
1773
1472
1693
1413
1765
1473
1771
1529
1792
1564
1797
1509
1899
1568
1882
1663
2006
1684
1992
1600
1597
1332
1520
1125
1442
1110
1318
1006
1297
1118
1321
1078
1314
918
0
0
1207
1096
1474
1136
1466
1146
1429
1157
1528
1234
1642
1451
1733
1572
1963
1634
2011
1861
2139
1867
1954
1614
1847
1608
1885
1668
2050
1901
2050
1865
2137
1872
2083
1867
2163
1832
2089
1781
2083
1748
2106
1873
2269
1954
2277
1883
2085
1693
2076
1621
1919
1642
1866
1766
2018
1811
2133
1617
1821
1422
1546
1339
1602
1472
1738
1522
1726
1387
1627
1231
1461
1191
1498
1051
1474
1203
1457
1208
1501
1193
1427
1202
1581
1137
1510
1318
1480
1420
1690
1420
1704
1391
1551
1198
1386
962
1294
937
1111
836
1111
821
1147
826
1074
667
0
0
1458
1274
1755
1436
1782
1427
1847
1489
1866
1593
2063
1716
2065
1797
2213
1908
2326
2066
2426
2066
2246
1934
2166
1834
2174
1972
2394
2152
2263
2052
2394
2106
2357
2048
2337
2025
2358
2122
2344
1978
2401
2253
2583
2389
2622
2285
2533
2178
2519
2077
2374
2050
2419
2275
2596
2325
2634
2231
2362
1929
2230
1933
2240
1886
2383
2103
2474
2042
2277
1782
2034
1690
2051
1633
2009
1690
1965
1668
1911
1562
1954
1661
1994
1546
1996
1627
1907
1805
2197
1845
2267
1898
2141
1669
2021
1574
1820
1559
1733
1444
1786
1339
1650
1283
1490
1027
0
0
1786
1732
2085
1785
1962
1749
2058
1804
2062
1733
2062
1874
2090
1772
2266
2101
2356
2084
2278
2088
2317
1875
2157
1857
2212
1989
2261
2003
2194
1877
2190
1919
2107
1942
2140
1911
2228
1941
2136
1845
2330
2036
2385
2180
2501
2085
2381
2045
2261
1943
2208
1930
2211
2116
2400
2176
2330
1986
2205
1980
2153
1841
2156
2022
2338
2164
2420
2042
2108
1716
1901
1509
1777
1637
1850
1495
1684
1506
1729
1447
1670
1402
1617
1387
1652
1331
1653
1478
1753
1531
1892
1625
1924
1597
1842
1546
1794
1419
1638
1304
1522
1221
1353
1099
1320
829
0
0
1680
1604
1914
1605
1835
1537
1896
1554
1863
1549
1909
1446
1789
1621
2057
1814
2154
1771
2066
1826
2105
1734
2029
1675
2089
1837
2135
1764
1964
1733
2054
1742
2062
1732
1941
1653
2100
1716
1941
1732
2069
1822
2200
2025
2295
1909
2125
1882
2163
1768
2014
1714
2051
1945
2216
2082
2158
1867
2032
1708
2029
1640
2034
1844
2362
2108
2466
2089
2102
1662
1907
1476
1814
1556
1794
1523
1711
1378
1613
1369
1659
1338
1581
1317
1603
1329
1586
1262
1624
1386
1694
1467
1866
1509
1854
1569
1945
1530
1653
1334
1589
1115
1219
1000
1297
709
0
0
1249
1202
1518
1175
1409
1117
1399
1109
1437
1045
1366
1102
1368
1218
1585
1357
1732
1424
1653
1411
1723
1324
1714
1418
1770
1512
1705
1430
1554
1392
1721
1352
1714
1316
1665
1378
1743
1371
1629
1482
1754
1474
1797
1529
1800
1564
1777
1498
1777
1395
1610
1298
1603
1469
1834
1593
1781
1539
1667
1384
1565
1317
1645
1499
1929
1788
2125
1738
1883
1549
1742
1367
1676
1476
1693
1363
1473
1188
1398
1098
1379
1108
1277
1054
1293
1021
1333
1005
1300
1060
1350
1074
1448
1162
1553
1286
1586
1318
1562
1173
1325
1026
969
797
1046
501
0
0
1418
1323
1595
1338
1579
1202
1602
1315
1687
1275
1646
1366
1749
1506
1938
1689
1977
1627
1878
1643
2068
1653
2116
1850
2192
1840
2060
1825
2036
1682
2134
1746
2093
1732
2031
1811
2115
1722
2157
1867
2282
1989
2313
1907
2197
1819
2232
1946
2228
1813
2126
1819
2176
1886
2198
1926
2173
1845
2073
1827
2105
1777
2077
1888
2375
2187
2545
2141
2321
1941
2298
2053
2374
2105
2437
2005
2151
1777
2061
1722
2085
1683
1966
1629
1854
1681
1932
1514
1868
1529
1956
1574
1885
1649
1922
1714
2066
1914
2186
1876
2047
1607
1754
1547
1754
1103
0
0
1474
1474
1828
1509
1778
1413
1807
1522
1845
1499
1811
1530
2066
1726
2226
1924
2190
1853
2154
1826
1997
1829
2222
1874
2157
1874
2137
1794
2153
1881
2151
1801
2199
1896
2163
1829
2130
1928
2157
2002
2332
2010
2178
1833
2051
1798
2098
1793
2167
1859
2080
1881
1993
1730
2032
1734
2038
1774
2025
1684
1962
1678
1881
1726
2069
1936
2258
1833
2099
1850
2069
1930
2338
2081
2251
1919
2006
1718
1946
1658
2000
1609
1764
1483
1689
1362
1649
1393
1677
1383
1550
1317
1569
1367
1684
1337
1798
1653
1906
1698
1787
1393
1566
1355
1562
1056
0
0
1395
1379
1672
1368
1682
1317
1747
1450
1745
1340
1705
1429
1986
1749
2190
1819
2077
1782
2013
1754
1923
1695
2025
1741
2034
1755
2020
1723
1981
1765
2102
1807
2109
1853
2153
1825
2167
1803
2209
2055
2421
1971
2133
1672
1906
1673
1973
1781
2153
1850
2089
1797
1990
1621
1928
1538
1962
1581
1949
1541
1802
1607
1765
1554
1951
1794
2109
1634
1947
1602
1911
1837
2245
1937
2237
1814
2045
1730
1998
1713
2071
1584
1721
1389
1563
1249
1562
1264
1512
1209
1487
1146
1414
1203
1509
1157
1595
1394
1683
1410
1590
1330
1579
1386
1529
939
0
0
997
941
1317
1066
1288
946
1374
1039
1394
1046
1448
1170
1797
1541
1878
1690
1853
1588
1897
1530
1666
1379
1701
1465
1803
1520
1787
1458
1783
1549
1917
1623
2043
1623
1907
1682
1909
1683
1981
1777
2138
1745
1853
1489
1691
1490
1861
1653
1972
1680
1985
1725
1780
1446
1626
1337
1669
1361
1621
1250
1591
1284
1443
1224
1637
1339
1638
1290
1514
1262
1609
1553
1811
1635
1934
1465
1721
1481
1791
1494
1906
1402
1556
1201
1353
1035
1339
991
1206
894
1251
913
1236
933
1174
889
1270
973
1243
1007
1227
1004
1396
1157
1225
677
0
0
1330
1284
1659
1345
1701
1362
1719
1431
1829
1485
1859
1595
2185
1970
2357
1995
2331
2098
2298
1847
2129
1786
2271
2032
2347
1958
2315
1892
2254
2043
2414
2156
2575
2221
2564
2225
2440
2153
2509
2323
2778
2302
2429
2091
2365
2178
2502
2148
2597
2292
2678
2280
2544
2033
2241
1963
2288
1975
2308
1847
2091
1801
2023
1736
2123
1886
2235
1810
2077
1759
2061
1847
2385
2085
2386
1910
2157
1930
2318
2071
2349
1947
2223
1851
2160
1659
1885
1572
1917
1559
1798
1467
1726
1513
1752
1498
1794
1414
1808
1437
1781
1381
1888
1643
1930
1373
0
0
1643
1628
1975
1642
1995
1736
2118
1775
2145
1822
2186
1997
2454
2293
2597
2257
2672
2309
2573
2234
2410
2042
2408
2178
2474
2194
2362
2188
2441
2230
2562
2411
2713
2417
2658
2309
2578
2317
2594
2392
2736
2353
2538
2180
2489
2201
2601
2282
2715
2410
2656
2283
2491
2178
2351
2036
2282
2148
2292
1929
2174
1800
2131
1846
2066
1850
2090
1746
1970
1525
1832
1693
2045
1871
2068
1700
1964
1718
2009
1874
2128
1846
1958
1733
1937
1610
1786
1501
1753
1317
1618
1325
1618
1342
1446
1307
1563
1277
1478
1204
1426
1209
1573
1426
1700
1138
0
0
1596
1522
1829
1435
2052
1594
2038
1687
1998
1642
2196
1824
2290
2153
2519
2148
2541
2125
2411
1997
2177
1809
2309
1954
2287
1946
2231
1919
2224
1947
2326
2140
2501
2202
2333
2009
2358
2004
2459
2255
2484
2093
2229
1879
2245
1986
2381
1986
2506
2244
2509
2114
2382
1974
2198
1911
2234
2109
2297
1951
2190
1842
2097
1833
2121
1907
2121
1743
1949
1463
1783
1530
1806
1598
1961
1472
1681
1483
1813
1550
1787
1556
1883
1627
1857
1567
1657
1426
1643
1189
1569
1323
1474
1169
1339
1105
1555
1211
1353
1067
1301
990
1237
1163
1459
930
0
0
1330
1234
1636
1316
1676
1442
1726
1517
1841
1462
1909
1586
1974
1805
2162
1796
2098
1722
1940
1594
1802
1485
1925
1654
1894
1602
1684
1540
1885
1621
1989
1815
2120
1829
1915
1661
1890
1748
2030
1755
2092
1688
1825
1497
1848
1597
1914
1636
2038
1788
2026
1694
1947
1672
1911
1601
1992
1801
2020
1755
1993
1729
1932
1714
2138
1821
2021
1655
1809
1381
1654
1318
1525
1327
1578
1206
1461
1187
1346
1185
1461
1173
1431
1301
1477
1322
1481
1330
1434
1106
1364
1251
1396
1027
1137
975
1321
939
1170
854
1007
814
1032
822
1160
616
0
0
1521
1414
1810
1474
1936
1533
1905
1690
2011
1670
2187
1796
2231
2068
2448
1946
2330
1948
2242
1842
2059
1762
2180
1858
2106
1865
2061
1930
2107
1861
2240
2056
2375
2121
2320
1941
2328
2021
2253
2070
2370
1885
2229
2023
2258
1977
2318
1910
2422
2103
2308
2037
2340
2029
2277
1960
2452
2186
2386
2176
2436
2077
2450
2355
2671
2450
2678
2261
2494
2088
2357
1908
2206
1802
2190
1722
1985
1680
1965
1691
2021
1638
1959
1719
2045
1821
1965
1842
2181
1770
2124
1882
2062
1673
1762
1533
1896
1452
1751
1413
1678
1366
1661
1366
1714
1090
0
0
1589
1554
1850
1490
1828
1653
1893
1669
2004
1790
2115
1866
2293
2020
2265
1984
2133
1866
2090
1796
2010
1793
2091
1830
2094
1902
2169
1881
2178
1907
2271
1921
2315
1925
2317
1979
2245
1994
2190
1917
2176
1782
2162
1844
2128
1945
2137
1819
2148
1859
2151
1904
1979
1810
2031
1783
2120
1892
1999
1885
2103
1841
2125
2042
2413
2255
2544
2181
2299
2055
2242
1913
2037
1750
2037
1636
1738
1412
1701
1450
1691
1428
1732
1392
1650
1394
1713
1450
1799
1618
1874
1663
1846
1453
1741
1437
1642
1293
1611
1217
1404
1115
1366
1085
1253
866
0
0
1338
1253
1625
1314
1701
1464
1805
1522
1915
1531
1901
1573
2029
1628
1933
1633
1934
1725
1930
1629
1865
1509
1949
1633
1882
1685
2028
1682
1995
1706
2033
1776
2039
1771
2109
1789
2165
1709
2046
1730
2027
1645
1994
1737
2042
1883
1950
1693
2024
1701
1973
1746
1954
1627
1835
1625
1931
1676
1863
1643
1944
1733
1904
1637
2205
1979
2324
1924
2177
1938
2219
1918
2057
1789
2026
1646
1819
1452
1581
1346
1678
1358
1582
1293
1498
1211
1474
1176
1545
1460
1771
1576
1805
1435
1769
1418
1702
1137
1442
1034
1302
1077
1305
994
1206
693
0
0
1115
1016
1325
1028
1384
1225
1477
1137
1533
1305
1528
1322
1692
1252
1515
1279
1546
1258
1550
1367
1592
1289
1735
1446
1642
1453
1725
1450
1730
1416
1751
1452
1796
1473
1831
1539
1825
1429
1786
1521
1759
1445
1737
1494
1783
1492
1693
1401
1717
1380
1621
1411
1617
1389
1629
1432
1653
1333
1684
1387
1614
1395
1571
1409
1873
1550
1899
1559
1743
1649
1915
1594
1882
1722
1950
1627
1680
1269
1410
1121
1350
1060
1427
1109
1353
1060
1307
880
1334
1097
1442
1207
1482
1247
1558
1370
1550
1002
1277
859
1106
875
1112
699
957
491
0
0
1304
1167
1532
1205
1584
1410
1786
1535
1867
1610
1876
1533
1844
1480
1781
1571
1915
1565
1975
1655
2023
1745
2020
1796
1986
1698
2082
1754
2063
1770
2205
1870
2141
1899
2297
1918
2287
1937
2258
2001
2370
1925
2248
1890
2185
1928
2133
1853
2165
1937
2135
1845
2146
1798
2130
1837
2173
1862
2007
1897
2049
1850
2088
1816
2266
1917
2235
1843
2121
1942
2281
2061
2378
2197
2565
2218
2314
1840
1995
1628
1909
1608
1950
1658
1874
1544
1847
1493
1868
1579
1860
1620
2041
1899
2245
1995
2133
1656
1813
1426
1667
1453
1687
1323
1589
1092
0
0
1547
1384
1754
1498
1796
1550
2021
1854
2118
1938
2045
1686
2053
1723
2073
1714
1941
1693
2100
2026
2282
2024
2205
1875
2037
1769
2084
1819
2139
1862
2084
1945
2353
1974
2474
2169
2425
2015
2323
2007
2414
2143
2255
1842
2185
1838
2188
1914
2171
1896
2120
1833
2020
1717
2030
1754
2149
1784
1987
1763
1883
1662
1870
1693
2013
1745
1968
1604
1939
1558
1890
1643
2128
1877
2244
1919
2154
1665
1685
1416
1686
1409
1698
1419
1570
1343
1573
1353
1573
1316
1544
1342
1754
1642
1954
1723
1902
1462
1589
1239
1472
1102
1474
1172
1389
827
0
0
1555
1370
1817
1424
1765
1593
2054
1938
2189
1876
2045
1675
2059
1835
2069
1670
2033
1746
2190
2086
2396
2058
2253
1824
2073
1737
2013
1754
2075
1924
2226
1993
2466
2149
2501
2278
2490
2166
2458
2185
2441
2162
2397
1927
2180
1859
2218
1941
2282
2063
2299
1933
2129
1818
2128
1866
2323
1915
2042
1698
1806
1578
1776
1580
1956
1628
1886
1525
1875
1523
1759
1490
1925
1650
1970
1745
1978
1684
1906
1517
1806
1561
1704
1284
1599
1316
1583
1338
1531
1254
1569
1292
1597
1533
1961
1640
1846
1387
1579
1183
1489
1120
1389
1211
1295
837
0
0
1227
1234
1473
1229
1650
1414
1881
1739
1940
1580
1782
1475
1878
1605
1896
1610
1778
1554
2009
1834
2118
1892
2126
1706
1819
1506
1757
1593
1881
1694
2066
1814
2210
1998
2264
1968
2244
1910
2190
1902
2128
1844
2221
1725
1882
1604
2020
1790
2174
1876
2091
1750
2038
1765
1965
1741
2107
1776
1931
1469
1589
1270
1510
1354
1589
1307
1480
1224
1515
1101
1418
1137
1541
1179
1500
1309
1611
1252
1568
1409
1769
1426
1547
1256
1418
1129
1349
1172
1264
975
1210
981
1341
1227
1569
1320
1481
1053
1274
917
1209
1053
1241
1026
1109
642
0
0
1526
1328
1785
1445
1954
1754
2250
2027
2330
1924
2186
1778
2282
1966
2357
1950
2245
1949
2469
2295
2589
2262
2610
2158
2303
1979
2243
1954
2406
2190
2516
2318
2622
2327
2605
2342
2522
2205
2509
2189
2541
2306
2486
2139
2405
2102
2517
2261
2630
2261
2615
2231
2493
2169
2636
2395
2786
2402
2538
2042
2189
1867
2171
1827
2240
1827
2104
1777
2092
1680
1949
1660
2045
1680
2054
1733
1974
1681
2109
1892
2326
2005
2260
1944
2139
1769
2061
1658
1862
1572
1892
1526
1910
1658
2022
1730
1995
1551
1882
1513
1938
1654
1987
1666
1838
1295
0
0
1624
1538
1860
1644
2170
1978
2458
2182
2501
2178
2314
2042
2378
2138
2505
2075
2449
2074
2622
2311
2715
2422
2574
2232
2322
2018
2295
2009
2342
2259
2485
2312
2511
2170
2546
2149
2408
2113
2334
2103
2378
2061
2318
2033
2290
1957
2352
2194
2381
2149
2249
1928
2245
1993
2514
2279
2658
2242
2391
2052
2212
1786
2094
1766
2006
1834
2033
1739
1938
1683
1869
1578
1684
1463
1862
1514
1796
1446
1705
1675
2053
1807
2055
1826
2006
1610
1838
1560
1765
1570
1690
1379
1565
1391
1690
1460
1634
1285
1617
1258
1674
1494
1769
1554
1716
1138
0
0
1431
1291
1714
1582
2037
1837
2410
1989
2376
1962
2106
1821
2133
1960
2250
1788
2277
1975
2343
2157
2563
2227
2471
2058
2178
1803
2088
1842
2116
1927
2313
2092
2261
2003
2252
1882
2210
1845
2091
1828
2192
1853
2190
1810
2139
1811
2096
1910
2198
1903
2093
1719
2036
1833
2378
2132
2391
2075
2209
1776
2001
1666
2042
1792
2101
1898
2091
1893
2059
1713
1867
1617
1681
1394
1744
1413
1705
1329
1562
1410
1835
1538
1960
1805
1988
1742
1966
1636
1884
1483
1646
1303
1480
1236
1558
1318
1558
1277
1492
1143
1541
1326
1601
1514
1687
1142
0
0
1048
994
1394
1292
1714
1602
2011
1654
1946
1555
1603
1349
1654
1418
1747
1290
1781
1522
1926
1801
2061
1830
1988
1621
1718
1426
1753
1415
1758
1593
1798
1576
1842
1571
1915
1579
1770
1497
1815
1395
1811
1436
1797
1371
1696
1382
1639
1461
1712
1467
1745
1461
1687
1498
1954
1714
1914
1556
1762
1326
1619
1334
1693
1416
1786
1636
1962
1759
1836
1472
1813
1462
1594
1238
1426
1089
1384
1108
1306
1108
1391
1146
1506
1418
1716
1405
1745
1607
1724
1462
1433
982
1261
1059
1189
983
1358
945
1250
913
1225
1006
1284
1159
1398
860
0
0
1369
1234
1621
1485
2018
1838
2214
1850
2126
1650
1894
1544
1901
1629
2034
1644
2075
1725
2181
1898
2282
2019
2283
1948
2153
1803
2235
1802
2118
1922
2148
1833
2173
1896
2230
1866
2202
1942
2235
1895
2170
1871
2224
1824
2182
1812
2197
1847
2201
1863
2301
1908
2212
1940
2299
2150
2382
1910
2181
1824
2170
1779
2134
1846
2180
2005
2448
2228
2482
2250
2377
2101
2218
1902
2075
1714
2005
1597
1899
1623
1893
1611
2069
1846
2139
1835
2330
2185
2458
2083
2113
1572
1837
1467
1802
1517
1790
1506
1830
1330
1716
1489
1778
1635
1966
1423
0
0
1656
1529
1956
1613
2165
2010
2290
1943
2018
1762
2006
1705
1983
1784
2010
1749
2023
1901
2106
1900
2224
2085
2343
1928
2274
1922
2257
1916
2153
1914
2188
1917
2107
1846
2173
2000
2293
1938
2250
1901
2231
1866
2126
1922
2149
1917
2148
1885
2086
1874
2262
2052
2230
1905
2151
1901
2131
1714
2022
1742
1889
1663
1893
1716
2002
1773
2214
2026
2325
2185
2343
2097
2298
1894
2005
1618
1766
1398
1706
1341
1705
1355
1754
1549
1802
1609
2021
1970
2338
1920
1974
1594
1830
1358
1597
1334
1781
1335
1477
1224
1435
1253
1486
1284
1609
1090
0
0
1612
1389
1801
1365
1924
1654
2082
1701
1914
1587
1860
1421
1810
1557
1805
1426
1898
1638
1940
1754
2164
1885
2207
1759
2205
1850
2117
1745
1975
1674
2045
1806
1974
1803
2125
1846
2168
1825
2105
1776
2021
1785
2082
1758
1988
1734
2037
1686
2043
1770
2179
1971
2140
1769
1994
1710
1966
1572
1973
1634
1819
1543
1810
1514
1846
1588
2010
1769
2137
1882
2109
1864
2234
1807
2039
1544
1749
1321
1578
1226
1589
1266
1626
1383
1615
1364
1865
1825
2309
1764
1985
1613
1707
1328
1502
1227
1538
1212
1346
1086
1298
1101
1333
1026
1310
693
0
0
1209
1038
1474
1156
1547
1297
1643
1309
1595
1281
1494
1110
1437
1252
1585
1197
1538
1394
1662
1563
1874
1723
1946
1556
1915
1573
1749
1478
1788
1501
1771
1618
1818
1573
1978
1738
2046
1686
1919
1605
1862
1643
1861
1558
1776
1568
1814
1573
1851
1718
2043
1894
2013
1601
1672
1402
1622
1319
1630
1371
1544
1309
1547
1288
1531
1260
1614
1340
1732
1512
1768
1555
1959
1530
1797
1413
1584
1143
1362
1074
1357
1028
1417
1101
1330
1113
1616
1512
1878
1498
1691
1405
1597
1298
1339
1168
1326
912
1178
865
1142
832
1042
679
933
466
0
0
1432
1286
1685
1313
1837
1514
1813
1661
2010
1642
1930
1494
1885
1599
1942
1645
1993
1749
2110
2106
2500
2228
2487
2087
2410
2018
2345
2060
2370
1970
2366
2108
2386
2148
2628
2289
2637
2267
2564
2141
2501
2101
2533
2186
2386
2203
2452
2265
2592
2298
2755
2490
2701
2229
2323
2011
2275
1981
2244
1974
2149
1878
2128
1810
2092
1844
2081
1805
2229
1972
2222
2012
2376
2075
2470
2024
2344
1764
1969
1598
1966
1595
1939
1661
1955
1678
2107
1997
2291
1986
2170
1858
2274
1966
2083
1886
2165
1620
1798
1406
1751
1419
1701
1282
1606
948
0
0
1549
1485
1901
1545
1915
1685
2123
1963
2263
1897
2049
1662
2138
1903
2218
1838
2199
1917
2373
2248
2674
2424
2745
2259
2511
2244
2485
2230
2493
2211
2446
2133
2555
2237
2542
2357
2598
2279
2467
2141
2401
2150
2460
2216
2382
2141
2325
2109
2445
2251
2782
2538
2692
2267
2417
2100
2214
2009
2235
2036
2180
1941
2020
1718
1999
1738
1929
1653
1941
1642
1851
1610
1998
1709
2137
1824
2146
1654
1769
1477
1713
1461
1748
1426
1634
1389
1802
1668
1966
1491
1782
1513
1876
1707
1925
1793
1968
1585
1771
1318
1522
1257
1354
1131
1323
817
0
0
1419
1286
1685
1451
1788
1572
1954
1914
2187
1789
1990
1714
2149
1847
2238
1807
2196
1851
2316
2161
2645
2263
2613
2258
2457
2162
2422
2190
2448
2226
2379
2024
2309
1986
2407
2144
2314
1896
2217
1957
2095
1861
2214
1926
2186
1869
2122
1994
2349
2165
2644
2389
2573
2154
2318
1965
2096
1914
2221
1949
2074
1915
2063
1789
1984
1656
1940
1618
1841
1476
1766
1487
1786
1522
1985
1620
2039
1636
1683
1573
1745
1437
1661
1284
1586
1235
1706
1485
1788
1441
1503
1275
1653
1566
1948
1719
1974
1554
1831
1254
1581
1158
1322
1035
1266
700
0
0
1129
1014
1457
1149
1506
1339
1842
1675
1951
1690
1845
1467
1860
1636
1905
1497
1868
1698
2065
1877
2280
2038
2274
1867
2018
1846
2221
1885
2236
1897
2166
1749
1962
1637
1934
1739
1933
1566
1728
1514
1756
1576
1890
1633
1857
1529
1847
1551
1956
1795
2387
2072
2218
1762
1924
1634
1794
1542
1789
1613
1821
1610
1913
1574
1829
1546
1809
1462
1630
1353
1515
1205
1466
1208
1609
1219
1583
1282
1486
1384
1698
1306
1597
1179
1271
1005
1284
1154
1525
1045
1320
998
1361
1201
1626
1494
1650
1501
1654
1170
1323
970
1155
847
1076
490
0
0
1426
1425
1794
1549
1958
1742
2173
1922
2312
1863
2110
1718
2069
1715
2129
1780
2138
1802
2266
2091
2539
2251
2525
2224
2344
2096
2520
2266
2588
2346
2470
2043
2292
1907
2213
1998
2292
1819
2203
1874
2222
1961
2203
1954
2280
1962
2245
1994
2378
2234
2802
2475
2669
2145
2297
1933
2162
1892
2283
1993
2234
2014
2280
2066
2541
2218
2527
2158
2280
1957
2157
1774
2117
1716
2123
1782
2034
1749
2041
1930
2322
1950
2194
1742
2003
1559
1884
1705
2006
1637
1869
1572
1946
1676
2090
1929
2245
1892
2295
1803
2005
1634
1769
1539
1737
1206
0
0
1640
1605
2101
1854
2139
1841
2210
2135
2314
1980
2061
1717
1993
1751
2065
1870
2013
1835
2176
2140
2478
2221
2437
2011
2290
2085
2377
2156
2421
2100
2427
1973
2159
1895
2160
1890
2125
1905
2282
1869
2130
1798
2130
1882
2039
1796
2068
1841
2177
2149
2552
2302
2424
1878
2109
1769
1965
1739
1963
1722
1945
1694
1970
1827
2306
2077
2389
2147
2355
1954
2107
1706
1802
1521
1831
1522
1757
1480
1802
1730
2078
1777
2013
1475
1742
1357
1531
1383
1723
1426
1632
1348
1653
1427
1783
1602
1861
1576
1743
1546
1795
1499
1693
1424
1549
1010
0
0
1669
1505
1942
1556
1892
1691
2055
1850
2171
1707
1889
1580
1850
1642
1851
1742
1866
1707
2002
1890
2236
1966
2258
1802
2142
1851
2226
1946
2263
1947
2206
1766
2107
1782
2099
1749
2085
1831
2107
1829
2057
1798
2088
1764
2034
1706
2056
1841
2249
2103
2485
2149
2250
1741
1957
1718
1869
1613
1833
1518
1788
1514
1797
1571
2075
1990
2266
2044
2361
2043
2230
1722
1821
1488
1686
1454
1649
1357
1708
1578
1958
1729
1917
1508
1781
1352
1584
1322
1669
1398
1605
1239
1541
1333
1620
1351
1573
1384
1572
1397
1764
1546
1742
1474
1586
930
0
0
1317
1247
1476
1174
1515
1261
1638
1525
1815
1446
1552
1166
1515
1198
1583
1361
1613
1305
1593
1419
1807
1550
1877
1474
1709
1451
1796
1568
1853
1509
1821
1439
1707
1474
1786
1638
1904
1595
1896
1557
1829
1586
1844
1574
1813
1423
1874
1641
2017
1949
2205
1938
1878
1348
1676
1445
1589
1307
1514
1339
1608
1322
1531
1247
1757
1514
1865
1769
2011
1666
1977
1512
1674
1321
1529
1221
1529
1057
1509
1258
1626
1442
1661
1289
1562
1197
1373
1042
1483
1243
1450
1057
1305
978
1191
1053
1273
1018
1258
1068
1481
1295
1620
1303
1392
631
0
0
1473
1349
1778
1387
1739
1444
1840
1696
1909
1573
1813
1411
1805
1464
1834
1602
1956
1634
1870
1693
2032
1830
2118
1786
2102
1852
2152
1853
2197
1765
2261
1898
2166
1874
2217
1999
2332
2038
2448
2066
2350
2156
2505
2210
2378
2056
2438
2145
2666
2410
2747
2293
2344
1833
2077
1862
2101
1797
1972
1770
2001
1749
1981
1728
2138
1898
2300
2018
2418
1997
2442
2094
2206
1909
2182
1758
2034
1584
1970
1664
2162
1815
2014
1853
2166
1790
2045
1698
2069
1837
2205
1717
1851
1509
1738
1586
1857
1514
1814
1578
2014
1921
2099
1693
1906
1173
0
0
1642
1562
1845
1572
1890
1701
2062
1814
2037
1730
1942
1604
1933
1725
1997
1690
2010
1836
2074
1858
2106
1981
2280
1938
2226
1894
2039
1765
2133
1858
2126
1886
2203
1868
2253
1915
2258
1991
2259
2064
2419
2208
2477
2216
2331
2158
2434
2220
2632
2385
2626
2110
2235
1787
2053
1746
2014
1676
1990
1608
1925
1563
1812
1691
1925
1682
2002
1733
2004
1667
1982
1690
2069
1787
2053
1723
1886
1595
1638
1477
1686
1514
1739
1550
1897
1677
1846
1573
1941
1755
1956
1586
1658
1233
1546
1230
1519
1210
1495
1379
1722
1574
1686
1425
1533
875
0
0
1566
1371
1705
1439
1703
1565
1970
1672
1993
1553
1870
1450
1866
1609
1962
1618
1949
1729
1975
1699
2050
1797
2233
1908
2243
1871
1986
1775
2128
1928
2149
1842
2074
1750
2118
1766
2109
1797
2101
1895
2374
2083
2301
2062
2241
1995
2357
2228
2647
2345
2565
2018
2213
1834
2023
1797
2029
1701
2026
1593
1898
1514
1850
1611
1916
1597
1791
1543
1816
1517
1918
1585
1959
1758
2026
1627
1747
1433
1578
1338
1629
1319
1645
1432
1824
1602
1862
1608
2015
1836
1989
1557
1525
1197
1465
1114
1532
1122
1412
1258
1640
1270
1461
1169
1305
698
0
0
1100
1048
1391
1126
1458
1265
1733
1430
1683
1337
1492
1154
1577
1269
1602
1342
1691
1442
1769
1553
1758
1626
2019
1626
1942
1589
1833
1525
1904
1737
1882
1539
1817
1453
1830
1470
1662
1501
1799
1533
1908
1641
1883
1590
1799
1610
1943
1805
2283
1935
2117
1722
1893
1527
1806
1513
1837
1563
1826
1410
1714
1390
1572
1388
1643
1444
1637
1297
1474
1117
1453
1208
1581
1357
1698
1270
1458
1131
1338
1060
1304
1067
1451
1125
1514
1288
1736
1562
1858
1562
1756
1290
1237
933
1232
910
1283
873
1141
884
1166
936
1154
912
986
469
0
0
1442
1231
1628
1233
1709
1512
2020
1722
2110
1709
1925
1513
1957
1689
2056
1762
2164
2001
2317
2001
2282
1978
2405
2020
2352
2000
2280
2090
2418
2167
2395
2046
2333
1943
2253
1936
2161
1841
2130
1842
2235
1901
2224
1906
2206
1986
2365
2225
2591
2212
2492
2009
2314
1928
2183
1909
2366
2053
2333
1946
2222
1956
2217
1938
2259
1975
2164
1738
2053
1630
1978
1594
2090
1828
2030
1651
1949
1634
1904
1570
1890
1576
1929
1719
2014
1868
2301
2077
2550
2141
2342
1820
1898
1480
1858
1513
1874
1467
1674
1381
1749
1453
1640
1338
1551
1007
0
0
1633
1498
1900
1713
2035
1797
2255
2187
2409
2013
2282
1847
2114
1851
2305
2045
2354
2178
2484
2121
2427
2134
2433
2134
2448
2230
2436
2267
2454
2277
2650
2323
2522
2190
2340
2004
2221
1981
2286
1966
2199
1873
2146
1870
2155
1921
2289
2093
2455
2049
2197
1963
2172
1885
2101
1870
2112
1912
2241
1917
2114
1901
2159
1919
2277
1978
2163
1827
1966
1588
1846
1549
1765
1578
1800
1482
1685
1462
1657
1412
1764
1477
1685
1573
1791
1645
2108
2061
2287
2025
2065
1764
1728
1595
1740
1462
1762
1381
1547
1258
1493
1259
1506
1139
1332
926
0
0
1609
1522
1754
1673
2005
1772
2266
2085
2336
1950
2118
1733
2001
1722
2036
1799
2094
1850
2216
1933
2118
1865
2259
1946
2260
2034
2225
1995
2317
2128
2475
2101
2441
2058
2327
1998
2269
1929
2269
1910
2043
1746
2066
1738
2077
1765
2107
1794
2164
1721
1926
1717
2028
1674
1930
1655
1853
1623
1973
1684
1978
1698
1964
1709
2196
2020
2164
1897
1990
1541
1692
1472
1717
1394
1674
1323
1493
1305
1610
1238
1662
1321
1549
1442
1757
1577
2027
1943
2110
1777
1899
1626
1726
1610
1781
1434
1680
1288
1363
1157
1430
1136
1370
990
1217
765
0
0
1354
1275
1595
1332
1687
1405
1993
1825
2025
1621
1720
1309
1554
1323
1674
1463
1672
1371
1764
1450
1594
1410
1803
1586
1881
1626
1814
1558
1899
1769
1973
1732
1933
1755
2055
1767
2060
1796
1986
1646
1812
1577
1757
1546
1890
1553
1861
1462
1749
1342
1685
1432
1730
1328
1642
1394
1549
1341
1586
1259
1573
1301
1565
1402
1906
1682
1979
1674
1655
1289
1541
1203
1398
1136
1332
1108
1380
1090
1357
1090
1429
1160
1301
1138
1494
1298
1733
1714
1802
1425
1482
1325
1525
1373
1469
1226
1478
1066
1196
930
1165
838
1002
769
825
468
0
0
1626
1485
1834
1576
1922
1684
2210
2029
2332
1879
2049
1528
1813
1544
1938
1648
1978
1725
2006
1733
1995
1684
2125
1888
2169
1939
2105
1847
2192
1945
2270
1941
2218
2017
2366
2122
2376
2138
2524
2063
2404
1965
2322
2086
2430
2053
2394
1890
2202
1878
2082
1815
2157
1842
2125
1838
2098
1811
2066
1738
1988
1747
2126
1797
2341
2107
2445
2114
2158
1817
2099
1770
1966
1707
2028
1810
1994
1762
2040
1770
2124
1733
1912
1690
2101
1875
2250
2148
2365
1890
2043
1826
2091
1868
2157
1722
2029
1635
1753
1469
1732
1405
1755
1290
1528
1062
0
0
1796
1684
2024
1650
1852
1759
2222
2187
2501
2048
2132
1714
1970
1640
1911
1701
2061
1844
2135
1890
2089
1898
2231
1861
2141
1885
2225
1928
2133
1928
2147
1966
2155
1942
2235
2010
2267
2088
2379
2085
2307
2056
2314
2170
2536
2097
2257
1893
2068
1777
2011
1810
1957
1674
1879
1784
1961
1637
1957
1643
1850
1627
1833
1716
2116
1882
2155
1755
2007
1618
1860
1579
1815
1638
1876
1621
1892
1757
1923
1786
2018
1659
1771
1485
1794
1648
2054
1940
2084
1577
1813
1534
1848
1597
1803
1482
1714
1445
1595
1248
1554
1211
1497
1138
1377
932
0
0
1621
1397
1719
1442
1706
1529
2049
1813
2266
1753
1914
1525
1832
1449
1801
1525
1842
1557
1938
1642
1918
1767
1956
1680
2056
1734
2012
1746
1909
1828
2049
1759
2028
1710
2054
1830
2006
1771
2095
1776
2133
1834
2118
2017
2397
2078
2180
1814
2058
1746
1991
1674
1873
1573
1853
1638
1828
1504
1852
1481
1758
1541
1815
1530
1990
1686
1885
1495
1717
1452
1714
1492
1700
1418
1738
1476
1833
1685
1942
1693
1938
1610
1722
1462
1710
1573
2002
1797
1963
1426
1668
1364
1634
1358
1497
1339
1550
1367
1603
1218
1508
1109
1435
1069
1238
794
0
0
1205
1122
1451
1139
1409
1298
1675
1591
1813
1493
1652
1261
1516
1229
1504
1364
1604
1375
1730
1453
1639
1472
1770
1491
1858
1458
1761
1493
1690
1451
1686
1498
1755
1495
1730
1561
1749
1538
1748
1458
1806
1544
1841
1722
2117
1782
1989
1634
1970
1690
1876
1578
1700
1336
1613
1371
1687
1299
1598
1316
1463
1298
1466
1330
1643
1264
1521
1242
1449
1132
1373
1160
1448
1183
1458
1222
1418
1346
1691
1514
1723
1443
1515
1278
1610
1403
1790
1643
1659
1206
1462
1099
1306
1034
1225
1029
1254
1037
1339
1173
1321
917
1194
837
1122
637
0
0
1507
1265
1819
1409
1628
1417
1816
1669
2123
1709
1877
1534
1882
1510
1915
1753
2124
1867
2138
1909
2181
1874
2295
2026
2366
1981
2202
1906
2110
1938
2246
1853
2262
1905
2241
1961
2219
1905
2186
1915
2173
1934
2394
2204
2549
2157
2334
2077
2455
2098
2409
2044
2315
1858
2170
1931
2305
1899
2253
1844
2027
1778
2033
1899
2196
1842
2155
1732
1957
1689
1934
1656
2010
1645
1933
1645
1984
1830
2158
1998
2276
2013
2258
1938
2345
2161
2546
2213
2254
1793
2060
1613
1947
1557
1861
1594
1873
1617
1901
1724
2008
1644
1914
1512
1762
1188
0
0
1587
1484
1967
1629
1926
1684
2007
1860
2189
1911
2131
1740
2045
1782
2237
2115
2451
2100
2397
2122
2315
2162
2466
2283
2626
2181
2401
1983
2295
2075
2290
2012
2168
2009
2265
1895
2162
1899
2163
1783
2113
2042
2358
2026
2376
1963
2162
1862
2251
2048
2315
1941
2245
1796
2106
1850
2201
1914
2100
1805
2043
1682
1962
1742
2115
1772
1954
1677
1882
1573
1754
1423
1728
1535
1733
1425
1730
1450
1841
1668
1919
1656
1986
1821
2089
2059
2265
1946
1956
1505
1730
1415
1610
1441
1627
1430
1674
1174
1683
1322
1702
1384
1635
1261
1610
1099
0
0
1360
1320
1779
1490
1780
1561
1926
1730
2140
1913
2089
1609
2030
1844
2250
2128
2429
2041
2409
1970
2315
2114
2402
2134
2475
2070
2293
1942
2289
2036
2352
2065
2130
1882
2247
1740
2023
1700
2002
1699
2004
1768
2267
1906
2216
1764
2042
1734
2026
1714
2085
1711
2042
1586
1989
1749
2138
1781
2018
1839
1934
1658
1880
1654
2067
1647
1917
1556
1779
1491
1634
1284
1721
1370
1602
1322
1634
1370
1653
1450
1708
1449
1874
1718
2134
2057
2253
1736
1893
1419
1634
1258
1522
1202
1483
1251
1522
1099
1467
1138
1446
1201
1483
1173
1499
981
0
0
1136
1105
1502
1194
1551
1334
1647
1574
1950
1672
1938
1482
1890
1616
1956
1702
2139
1753
1997
1686
1969
1773
2081
1844
2183
1669
1982
1645
1943
1749
2054
1764
1993
1618
2010
1458
1734
1416
1741
1400
1765
1497
1954
1561
1818
1490
1730
1347
1634
1442
1750
1386
1705
1322
1653
1529
1874
1535
1798
1474
1721
1439
1725
1537
1935
1507
1667
1333
1473
1179
1434
1141
1421
1157
1412
1105
1377
1101
1253
1069
1386
1083
1611
1569
1870
1778
1988
1545
1613
1183
1371
1097
1341
1002
1245
1082
1293
850
1233
798
1093
939
1149
884
1211
758
0
0
1527
1419
1865
1582
1997
1717
2114
1922
2310
1955
2317
1837
2148
1834
2050
1786
2267
1813
2140
1832
2226
1990
2394
2090
2385
1901
2203
1862
2238
1997
2320
2110
2315
2116
2370
1938
2152
1829
2152
1834
2158
1886
2290
2014
2390
1970
2280
1928
2193
1863
2219
1986
2248
1778
2234
1896
2286
1962
2156
1930
2156
1910
2253
1979
2389
2042
2253
1853
2100
1826
2029
1738
1989
1745
2013
1738
1937
1580
1925
1638
1930
1648
2154
2036
2424
2259
2474
2038
2156
1693
2066
1653
1924
1607
1760
1573
1831
1419
1770
1355
1658
1393
1743
1369
1741
1298
0
0
1835
1733
2021
1924
2261
1986
2327
2068
2407
2114
2443
1898
2178
1940
2132
1852
2107
1837
2000
1809
2285
2053
2429
2125
2325
1909
2274
1949
2082
1877
2279
1988
2281
2024
2219
1946
2198
1965
2196
1843
2237
1956
2317
2118
2440
2167
2158
1853
2133
1826
2165
1747
1978
1655
1918
1669
2017
1702
1995
1605
1870
1628
1926
1745
2168
1865
2119
1682
1915
1778
2066
1780
1965
1718
1847
1530
1696
1434
1650
1466
1657
1485
1890
1809
2276
1942
2196
1778
1845
1506
1776
1517
1724
1373
1538
1266
1570
1239
1492
1178
1450
1074
1364
1126
1490
922
0
0
1794
1659
1965
1754
2100
1788
2157
1902
2123
1810
2168
1745
1943
1687
1932
1578
1874
1551
1901
1597
2073
1810
2226
1867
2064
1686
2105
1787
1974
1703
2077
1730
2056
1785
2064
1719
2075
1866
2197
1814
2227
1919
2394
2102
2477
2065
2148
1777
2159
1717
1940
1598
1898
1614
1823
1541
1922
1562
1901
1551
1776
1502
1843
1527
2064
1630
1851
1623
1961
1789
2075
1799
2030
1709
1845
1604
1757
1418
1646
1350
1671
1420
1846
1734
2122
1781
1977
1594
1645
1351
1717
1477
1666
1256
1525
1248
1520
1146
1481
1058
1348
946
1236
1014
1339
890
0
0
1358
1264
1558
1352
1602
1371
1764
1410
1683
1413
1818
1358
1605
1395
1537
1304
1526
1354
1602
1421
1761
1626
1925
1587
1785
1469
1693
1406
1708
1374
1785
1534
1788
1515
1778
1608
1869
1706
1970
1710
2030
1902
2157
1910
2220
1962
2020
1646
1940
1486
1634
1373
1594
1315
1581
1396
1649
1309
1605
1322
1530
1267
1521
1237
1701
1245
1638
1370
1733
1608
1929
1681
1858
1616
1743
1495
1622
1267
1345
973
1354
1163
1573
1483
1811
1456
1636
1281
1309
1026
1403
1269
1434
1150
1398
1079
1269
957
1271
949
1072
752
1092
776
1074
590
0
0
1515
1361
1653
1403
1797
1390
1895
1546
1794
1544
1943
1585
1844
1658
1804
1610
1975
1557
1972
1693
2118
1883
2358
1986
2172
1773
2193
1849
2061
1762
2234
1917
2173
1904
2348
2052
2403
2095
2414
2063
2475
2198
2606
2326
2786
2472
2569
2264
2383
1949
2065
1750
2041
1681
1991
1712
2165
1834
2069
1833
2145
1739
2002
1692
2056
1685
2020
1802
2165
2022
2373
2186
2460
2158
2370
2113
2326
1818
2026
1586
1898
1668
2118
1981
2270
1885
2061
1581
1923
1534
1895
1682
1963
1531
1945
1648
1826
1460
1737
1429
1732
1265
1591
1298
1606
1058
0
0
1685
1550
1957
1617
1813
1691
2053
1773
2067
1750
2000
1830
2043
1838
2058
1773
2054
1798
2130
1949
2285
2226
2557
2196
2285
1994
2278
2066
2322
2037
2313
1990
2281
2030
2309
2117
2402
2109
2337
2122
2527
2234
2602
2407
2619
2398
2532
2267
2346
1854
2106
1738
2002
1657
1929
1685
1942
1755
2033
1899
2101
1832
1941
1604
1997
1595
1818
1739
2039
1835
2118
1897
2196
2011
2321
1924
2145
1842
1882
1517
1830
1571
1928
1916
2020
1746
1708
1430
1736
1398
1668
1382
1669
1437
1765
1553
1678
1467
1666
1242
1503
1241
1422
1104
1371
963
0
0
1550
1386
1778
1409
1649
1494
1861
1589
1883
1576
1997
1719
2021
1745
1965
1706
1974
1719
2120
1889
2238
2193
2434
2054
2249
1932
2260
1910
2339
2005
2194
1919
2226
1922
2121
1905
2102
1866
2063
1850
2156
2027
2358
2074
2317
2126
2349
1970
2171
1829
1979
1685
2018
1645
1876
1572
1840
1700
2021
1870
2147
1851
1954
1468
1805
1526
1701
1514
1834
1542
1834
1610
2005
1746
2172
1757
1989
1589
1850
1443
1782
1451
1828
1791
1954
1572
1571
1242
1542
1307
1571
1320
1594
1302
1685
1349
1602
1357
1581
1148
1467
1218
1467
1136
1290
634
0
0
1129
1101
1410
1173
1426
1224
1594
1298
1755
1365
1745
1487
1797
1477
1707
1547
1772
1530
1901
1698
2036
1865
2176
1777
2018
1694
1949
1618
1957
1673
1901
1674
1842
1510
1582
1389
1670
1439
1643
1429
1853
1595
1828
1604
1874
1550
1862
1609
1786
1333
1747
1363
1684
1474
1648
1366
1714
1567
1900
1710
1970
1609
1555
1202
1513
1181
1451
1237
1484
1255
1561
1303
1581
1363
1742
1397
1674
1361
1512
1253
1547
1264
1714
1579
1682
1268
1301
1077
1285
1060
1397
986
1277
1019
1359
1132
1253
1029
1264
933
1325
1108
1362
1026
1025
573
0
0
1416
1353
1789
1476
1815
1621
2054
1720
2125
1805
2154
1812
2121
1804
2078
1928
2169
1898
2253
2084
2441
2223
2544
2074
2346
1988
2233
1897
2217
1869
2190
1841
2218
1822
2069
1714
2006
1837
2151
1914
2250
1930
2241
1919
2178
1850
2154
1874
2149
1794
2107
1794
2191
1844
2176
1842
2345
2189
2568
2289
2519
1981
2030
1684
1989
1612
2010
1743
1940
1627
1981
1735
2037
1723
2120
1752
2029
1741
1977
1822
2253
1918
2462
2167
2261
1861
1861
1580
1840
1501
1852
1509
1762
1438
1813
1473
1743
1520
1813
1481
1913
1706
1967
1645
1742
1035
0
0
1773
1706
2107
1907
2177
2003
2461
2176
2379
2225
2283
2073
2230
1962
2225
1915
2265
2040
2338
2196
2551
2267
2536
2058
2276
1994
2186
1849
2235
1894
2138
1764
2137
1819
2117
1865
2134
1979
2283
2050
2264
2010
2070
1780
2010
1750
1997
1749
2091
1715
2011
1722
1917
1682
1927
1766
2235
2202
2426
2205
2377
1780
1979
1613
1897
1563
1958
1576
1882
1545
1825
1635
1800
1517
1753
1512
1641
1398
1827
1672
2097
1957
2280
1961
2181
1741
1725
1357
1637
1409
1636
1453
1567
1267
1578
1282
1581
1205
1483
1309
1668
1546
1837
1414
1589
915
0
0
1673
1605
2009
1787
2115
1853
2192
1842
2117
1834
2037
1746
1845
1538
1894
1595
1918
1676
2042
1893
2228
1949
2267
1774
2002
1608
2031
1623
1929
1595
1784
1533
1975
1582
1900
1678
2038
1921
2254
1933
2065
1762
1884
1595
1806
1544
1805
1522
1858
1473
1713
1530
1722
1419
1713
1602
2037
1971
2297
1963
2141
1618
1769
1405
1783
1474
1977
1609
1918
1494
1729
1559
1781
1427
1543
1259
1475
1258
1621
1543
1995
1775
2133
1794
1938
1594
1594
1274
1507
1285
1492
1325
1530
1229
1426
1085
1384
1019
1302
1139
1565
1352
1604
1163
1297
671
0
0
1418
1366
1725
1562
1829
1527
1800
1442
1610
1425
1556
1354
1555
1322
1502
1245
1578
1377
1682
1627
1907
1639
1895
1396
1707
1371
1657
1370
1674
1366
1618
1338
1603
1322
1594
1524
1958
1748
2121
1784
1965
1493
1632
1361
1550
1317
1517
1290
1613
1220
1534
1292
1410
1188
1433
1296
1721
1673
1917
1747
1851
1322
1563
1275
1594
1350
1906
1457
1729
1397
1575
1463
1694
1294
1410
1096
1250
1052
1396
1349
1766
1638
1851
1521
1671
1284
1371
1106
1377
1212
1396
1254
1302
954
1169
963
1090
868
1075
919
1275
1042
1277
865
1158
536
0
0
1630
1469
1861
1633
1900
1609
1929
1594
1819
1642
1818
1617
1764
1474
1829
1525
1938
1716
2129
1957
2307
1873
2205
1767
2061
1803
2097
1770
2101
1798
2197
1753
2149
1762
2239
2043
2480
2266
2674
2372
2477
2094
2155
1789
1988
1669
1997
1718
2094
1685
2013
1737
1965
1660
1908
1782
2203
2008
2374
2137
2254
1725
2062
1675
2240
2002
2362
2029
2359
1989
2258
2111
2346
1990
2044
1665
1830
1609
1955
1881
2290
2109
2359
1860
2158
1751
1950
1677
2069
1867
2101
1909
2065
1602
1883
1490
1808
1491
1673
1418
1733
1588
1724
1365
1610
985
0
0
1762
1646
1896
1626
1908
1596
1946
1686
1988
1770
1955
1628
1973
1691
1989
1755
2109
1947
2361
2100
2354
2029
2276
1907
2190
1884
2187
1939
2221
2022
2411
2013
2349
1928
2267
2210
2553
2391
2724
2360
2482
2103
2228
1797
1933
1722
1984
1696
1986
1722
1902
1619
1798
1556
1733
1655
1937
1842
2213
1783
2015
1608
1867
1626
2120
1900
2312
2038
2165
1822
2262
2084
2224
1876
1968
1484
1731
1345
1627
1531
1907
1754
1943
1648
1662
1432
1717
1518
1857
1624
1938
1644
1898
1563
1650
1283
1477
1275
1494
1227
1437
1228
1342
1083
1381
838
0
0
1547
1261
1661
1316
1660
1355
1738
1435
1825
1461
1830
1514
1810
1510
1874
1557
2014
1843
2202
1925
2189
1917
2141
1769
2058
1796
2053
1877
2166
1941
2276
1873
2197
1841
2163
1929
2302
2217
2525
2122
2241
1891
2109
1729
1844
1563
1868
1573
1925
1658
1802
1501
1718
1421
1606
1490
1661
1594
1924
1517
1798
1411
1702
1401
1825
1610
2040
1715
1946
1634
2073
1941
2142
1760
1865
1306
1497
1276
1469
1303
1629
1486
1698
1317
1443
1194
1494
1307
1645
1556
1801
1510
1730
1487
1542
1192
1293
1005
1253
971
1210
1077
1186
902
1082
653
0
0
1131
949
1299
1140
1352
1037
1442
1241
1594
1269
1573
1309
1646
1424
1719
1389
1893
1666
1878
1677
1947
1654
1869
1526
1861
1506
1770
1638
1826
1677
1919
1546
1923
1598
1776
1585
1940
1790
2116
1712
1883
1575
1682
1410
1646
1337
1735
1476
1804
1545
1751
1326
1483
1210
1307
1133
1393
1238
1589
1242
1509
1073
1427
1075
1553
1362
1652
1350
1649
1349
1794
1698
1809
1455
1589
1128
1354
978
1273
1012
1374
1261
1563
1170
1234
925
1179
1058
1300
1174
1540
1289
1526
1101
1341
1033
1160
842
1118
815
1010
749
885
675
978
500
0
0
1314
1163
1497
1236
1590
1227
1773
1549
1938
1677
2022
1681
2046
1766
2127
1909
2248
1959
2293
2018
2269
1842
2150
1765
2097
1736
2120
1878
2152
1839
2226
1822
2171
1803
2050
1850
2262
2060
2397
1943
2074
1803
2018
1750
1965
1826
2201
2026
2406
2094
2267
1915
2178
1710
1924
1641
1858
1643
2054
1668
2029
1607
1905
1563
1925
1678
1962
1613
2023
1751
2226
2107
2349
1899
2186
1686
1957
1579
1884
1543
1954
1730
2037
1687
1821
1490
1786
1528
1805
1658
1932
1673
1968
1720
1861
1544
1669
1405
1732
1381
1629
1365
1506
1133
1532
1051
0
0
1383
1262
1652
1409
1717
1448
1936
1776
2133
1850
2213
2029
2234
1916
2221
1863
2316
2034
2281
2007
2174
1738
1930
1625
1972
1685
1957
1744
1998
1668
1925
1728
1954
1639
1967
1687
2034
1801
2202
1768
1875
1614
1828
1534
1901
1618
1934
1900
2263
1981
2269
1943
1995
1653
1833
1560
1806
1508
1867
1573
1865
1498
1719
1411
1601
1365
1700
1431
1691
1520
1978
1794
1922
1490
1729
1483
1723
1399
1642
1501
1787
1693
1939
1522
1647
1297
1547
1226
1563
1439
1578
1378
1646
1357
1474
1186
1450
1150
1454
1239
1457
1165
1349
1002
1205
677
0
0
1150
1097
1428
1235
1589
1377
1845
1494
1925
1627
2004
1704
1981
1568
1883
1530
1848
1615
1925
1698
1900
1432
1665
1389
1627
1411
1747
1435
1682
1333
1702
1335
1768
1385
1653
1445
1718
1474
1902
1505
1608
1323
1595
1258
1690
1366
1758
1582
1995
1690
2055
1688
1893
1450
1647
1361
1646
1345
1805
1441
1709
1262
1498
1126
1433
1147
1495
1198
1421
1274
1694
1526
1648
1222
1463
1218
1549
1241
1554
1341
1779
1546
1845
1322
1467
1028
1289
1051
1307
1117
1254
953
1380
1090
1265
1025
1333
926
1394
1158
1383
989
1207
858
1012
557
0
0
794
745
1033
854
1122
907
1333
966
1381
1150
1389
1001
1301
979
1252
945
1301
967
1409
1058
1323
874
1124
897
1246
942
1214
930
1254
953
1200
851
1255
866
1192
931
1248
922
1460
1043
1174
954
1155
864
1116
856
1165
997
1480
1192
1359
1055
1278
972
1221
971
1268
1005
1410
981
1272
897
1045
809
967
723
943
693
927
769
1171
923
1115
773
1001
792
1045
776
1053
861
1297
1051
1341
948
1033
639
842
498
820
587
821
460
845
567
776
570
906
548
1018
837
891
617
793
388
623
145
0
0
0
0
0
0
0
0
0
0
0
0
0
0
0
0
0
0
0
0
0
0
0
0
0
0
0
0
0
0
0
0
0
0
0
0
0
0
0
0
0
0
0
0
0
0
0
0
0
0
0
0
0
0
0
0
0
0
0
0
0
0
0
0
0
0
0
0
0
0
0
0
0
0
0
0
0
0
0
0
0
0
0
0
0
0
0
0
0
0
0
0
0
0
0
0
0
0
0
0
0
0
0
0
0
0
0
0
0
