P2
108 88
4095
0
0
0
0
0
0
0
0
0
0
0
0
0
0
0
0
0
0
0
0
0
0
0
0
0
0
0
0
0
0
0
0
0
0
0
0
0
0
0
0
0
0
0
0
0
0
0
0
0
0
0
0
0
0
0
0
0
0
0
0
0
0
0
0
0
0
0
0
0
0
0
0
0
0
0
0
0
0
0
0
0
0
0
0
0
0
0
0
0
0
0
0
0
0
0
0
0
0
0
0
0
0
0
0
0
0
0
0
0
965
842
1192
853
1234
922
1262
988
1354
1073
1255
979
1378
1144
1405
1109
1434
1158
1416
1177
1437
1335
1696
1429
1709
1554
1805
1579
1890
1505
1746
1294
1635
1217
1617
1383
1740
1499
1878
1500
1893
1544
1770
1474
1710
1365
1492
1234
1491
1175
1525
1234
1556
1146
1525
1295
1525
1341
1773
1498
1808
1410
1562
1173
1482
1089
1322
1003
1302
1029
1309
1076
1298
1077
1395
1215
1474
1138
1498
1109
1313
933
1305
929
1217
916
1147
959
1275
997
1362
1108
1357
1034
1309
937
1266
964
1371
945
1257
1065
1360
1186
1355
884
0
0
781
782
1060
709
1156
762
1137
884
1137
916
1129
822
1142
893
1301
1002
1261
1018
1301
1037
1357
1111
1511
1169
1515
1350
1730
1467
1758
1398
1562
1138
1461
1073
1508
1190
1491
1338
1574
1371
1736
1497
1724
1459
1627
1354
1483
1233
1494
1110
1474
1166
1416
1110
1330
1115
1352
1170
1578
1313
1685
1316
1561
1225
1451
1067
1240
941
1258
900
1198
978
1205
955
1258
1031
1309
1105
1449
1128
1338
1001
1234
824
1146
882
1011
843
1083
913
1261
1005
1345
1037
1241
1029
1343
950
1333
967
1198
954
1330
1085
1277
878
0
0
1074
987
1408
1026
1466
1131
1494
1141
1544
1275
1485
1181
1549
1243
1584
1346
1704
1402
1725
1419
1733
1478
1864
1526
1857
1669
2036
1861
2133
1873
2062
1563
1926
1554
1975
1592
1870
1634
1926
1705
2052
1785
2150
1926
2258
1940
2093
1761
2040
1717
2077
1764
2086
1595
1930
1572
1733
1570
2011
1701
2164
1832
2197
1802
2173
1681
1893
1542
1828
1447
1806
1496
1826
1523
1797
1541
1821
1558
1990
1687
1957
1611
1940
1579
1882
1498
1622
1445
1700
1403
1821
1415
1771
1609
1937
1668
2009
1565
1861
1457
1770
1431
1929
1668
1960
1493
0
0
1502
1429
1794
1600
1969
1588
1906
1542
1818
1559
1768
1510
1870
1596
1883
1705
1930
1632
1869
1657
2011
1735
2018
1847
1917
1827
2087
1975
2258
1901
2118
1681
2005
1676
2017
1834
2024
1699
2032
1746
2108
1865
2218
2026
2375
2017
2179
1845
2189
1950
2234
1813
2038
1742
1915
1707
1866
1526
1883
1710
1982
1764
2054
1851
2150
1830
2087
1653
1851
1555
1750
1547
1772
1542
1621
1405
1745
1402
1693
1640
1936
1730
1989
1617
1851
1442
1572
1316
1575
1226
1613
1269
1718
1418
1869
1641
1894
1466
1798
1248
1556
1235
1683
1515
1741
1261
0
0
1373
1306
1703
1482
1941
1485
1930
1461
1674
1427
1714
1495
1826
1435
1812
1514
1801
1485
1736
1477
1846
1465
1821
1627
1789
1565
1835
1752
2021
1728
1937
1535
1921
1714
1851
1478
1841
1566
1850
1554
1914
1611
1997
1787
2209
1866
2130
1681
2160
1790
2124
1768
1985
1651
1847
1519
1806
1344
1701
1502
1818
1552
1901
1704
2179
1851
2090
1711
1990
1510
1812
1511
1717
1321
1531
1277
1580
1188
1554
1417
1773
1556
1874
1604
1914
1477
1610
1206
1464
1074
1459
1082
1424
1255
1722
1522
1714
1398
1618
1098
1445
1079
1403
1254
1562
1077
0
0
1116
1021
1335
1252
1587
1221
1579
1149
1412
1226
1439
1149
1589
1281
1542
1275
1490
1170
1435
1181
1493
1237
1540
1269
1495
1256
1526
1242
1591
1301
1598
1210
1659
1227
1613
1282
1522
1257
1618
1207
1562
1222
1597
1341
1771
1467
1764
1400
1869
1511
1894
1522
1691
1261
1562
1266
1475
1068
1430
1266
1426
1165
1439
1292
1758
1556
1892
1605
1810
1495
1653
1362
1451
1072
1309
954
1274
1024
1110
1015
1492
1266
1537
1379
1656
1285
1325
1081
1227
826
1176
877
1130
976
1285
1147
1455
1085
1412
840
1221
839
1151
971
1125
719
0
0
1306
1130
1554
1373
1883
1444
1851
1370
1675
1510
1761
1514
2018
1628
1946
1695
1948
1606
1933
1589
1902
1617
1914
1643
1924
1674
1979
1692
1979
1765
2118
1701
2080
1769
2088
1718
1963
1632
2107
1703
2044
1661
1978
1749
2088
1815
2114
1810
2228
2128
2389
2025
2270
1860
2042
1818
2055
1634
1882
1713
1972
1621
1957
1682
2122
2043
2383
2075
2450
2018
2279
1931
2141
1716
1826
1575
1877
1517
1750
1572
1938
1732
2181
1960
2413
1895
2109
1690
1910
1466
1829
1419
1805
1418
1845
1661
1956
1632
2033
1603
1948
1486
1741
1425
1642
1201
0
0
1466
1383
1805
1650
1951
1699
1963
1546
1960
1655
1995
1757
2059
1851
2171
1841
2210
1941
2217
1803
1973
1822
2139
1707
2117
1746
2040
1718
2052
1842
2273
2032
2293
1947
2074
1789
2125
1849
2040
1810
2065
1805
2101
1713
1978
1684
2088
1872
2149
2001
2263
1989
2270
2032
2186
1841
2020
1672
1853
1534
1828
1586
1855
1589
2024
1717
2126
1906
2309
1921
2288
1902
2075
1651
1755
1527
1661
1385
1591
1298
1795
1437
1804
1701
2062
1779
2081
1702
1808
1441
1582
1348
1578
1314
1563
1277
1644
1388
1749
1506
1730
1409
1458
1217
1498
1085
0
0
1275
1101
1547
1270
1699
1362
1701
1250
1588
1381
1670
1412
1821
1620
1929
1593
1962
1705
2056
1662
1884
1683
2031
1676
2061
1628
1905
1540
1925
1728
2153
1915
2250
1759
2006
1545
1967
1588
1908
1550
1853
1509
1911
1467
1811
1573
1849
1644
1866
1709
2020
1861
2233
1883
2038
1676
1877
1518
1719
1364
1733
1456
1685
1413
1817
1556
1911
1581
2086
1750
2114
1859
1914
1550
1674
1389
1498
1209
1460
1162
1547
1229
1594
1397
1754
1555
1912
1598
1674
1471
1506
1204
1416
1107
1398
1007
1469
1284
1434
1266
1647
1266
1397
1076
1360
932
0
0
1003
854
1237
965
1304
1086
1358
1045
1386
1123
1358
1111
1336
1161
1444
1214
1566
1329
1667
1352
1640
1499
1846
1531
1878
1531
1686
1280
1639
1541
1925
1798
2045
1705
1805
1498
1721
1439
1578
1345
1594
1259
1650
1306
1561
1314
1590
1341
1622
1509
1774
1612
1866
1652
1879
1467
1738
1418
1572
1227
1524
1227
1510
1205
1487
1220
1502
1271
1687
1461
1928
1610
1743
1385
1522
1242
1358
1047
1304
979
1334
982
1308
1050
1382
1211
1592
1370
1634
1310
1369
1023
1265
914
1179
895
1166
935
1146
951
1323
1042
1272
941
1266
706
0
0
1238
1090
1449
1131
1577
1232
1634
1241
1709
1360
1737
1372
1660
1371
1797
1458
1800
1562
1880
1552
1985
1806
2266
1835
2266
1853
2089
1699
2165
2035
2525
2173
2479
2061
2358
2057
2313
1979
2217
1798
2034
1662
2070
1678
2068
1783
2046
1781
2026
1840
2201
1965
2332
1957
2318
1842
2212
1935
2134
1757
2107
1764
2045
1673
2122
1655
2036
1728
2125
1860
2325
2059
2307
2008
2166
1777
1974
1673
1833
1498
1876
1572
1882
1498
1877
1643
2038
1846
2137
1906
2122
1776
1947
1546
1748
1353
1730
1485
1655
1411
1778
1558
2002
1620
1965
1429
0
0
1418
1339
1774
1417
1742
1499
1810
1420
1736
1480
1838
1522
1810
1629
1866
1509
1875
1625
2045
1738
1887
1803
2182
1935
2097
1844
2132
1906
2313
2276
2606
2240
2393
2138
2420
2189
2441
2109
2260
1890
2061
1796
2011
1621
1923
1705
2036
1757
2090
1706
1993
1778
2056
1869
2038
1843
2162
1884
2215
1879
2082
1707
1933
1579
1924
1573
1783
1563
1906
1609
1924
1815
2184
1850
2148
1786
2057
1590
1740
1427
1658
1357
1723
1273
1690
1374
1672
1562
1910
1702
1977
1669
1757
1266
1636
1155
1483
1186
1370
1146
1495
1368
1757
1565
1594
1210
0
0
1344
1209
1593
1334
1691
1424
1691
1293
1626
1275
1667
1388
1651
1461
1763
1455
1754
1556
1848
1514
1805
1653
2026
1714
1941
1640
1926
1709
2125
1993
2334
1941
2135
1901
2250
2017
2295
2042
2338
1919
2071
1765
1934
1510
1835
1608
1914
1573
1971
1502
1819
1561
1868
1634
1965
1653
2042
1802
2132
1874
2088
1713
1876
1498
1798
1494
1746
1427
1681
1338
1738
1485
2043
1845
2095
1769
2014
1614
1828
1477
1635
1320
1520
1195
1570
1216
1508
1307
1732
1543
1938
1551
1526
1269
1485
1115
1425
1098
1306
1009
1331
1231
1554
1357
1554
1065
0
0
1186
1050
1451
1173
1556
1204
1380
1017
1354
1021
1391
1182
1430
1210
1524
1122
1430
1261
1562
1343
1519
1301
1642
1445
1644
1306
1596
1487
1751
1665
1910
1553
1717
1551
1941
1685
1998
1715
2042
1686
1953
1550
1774
1350
1661
1316
1601
1278
1733
1304
1629
1361
1529
1339
1508
1317
1767
1514
1962
1682
1814
1539
1698
1413
1546
1249
1451
1162
1461
1164
1461
1247
1634
1333
1890
1656
1889
1587
1807
1385
1476
1102
1403
923
1267
1066
1194
1093
1367
1170
1513
1211
1386
1069
1283
897
1258
907
1087
822
1125
885
1309
1096
1348
877
0
0
1367
1194
1714
1469
1837
1426
1746
1323
1672
1381
1818
1451
1781
1457
1802
1421
1801
1520
1917
1626
1885
1675
1996
1690
1985
1650
2018
1828
2069
1906
2196
1857
2073
1789
2121
1857
2201
1994
2289
1959
2355
2086
2231
1921
2109
1789
2085
1761
2141
1733
2054
1738
2066
1810
2033
1754
2163
1986
2323
2010
2363
2073
2317
1830
2146
1722
2054
1676
2024
1680
2010
1693
2083
1781
2322
2138
2476
2166
2361
1903
2147
1686
1924
1431
1875
1501
1777
1602
1937
1544
1929
1556
1847
1441
1846
1444
1741
1511
1700
1418
1770
1354
1717
1407
1706
1270
0
0
1557
1509
1914
1707
1907
1674
1926
1668
1933
1609
1946
1768
1981
1626
2038
1782
1972
1686
1944
1811
2117
1753
2088
1797
2105
1755
1979
1802
2096
1816
2106
1810
1974
1821
2049
1830
2139
1847
2106
1892
2377
2000
2191
1877
2192
1814
2118
1786
2007
1717
2001
1731
1967
1718
1874
1618
1876
1687
2056
1924
2166
1906
2230
1987
2133
1793
1942
1572
1737
1504
1819
1477
1753
1654
2026
1865
2162
2026
2196
1826
1913
1501
1605
1332
1588
1273
1576
1367
1590
1285
1541
1250
1593
1339
1614
1346
1642
1333
1563
1221
1461
1180
1356
1154
1438
1033
0
0
1371
1297
1669
1443
1707
1406
1773
1466
1818
1523
1910
1490
1858
1687
2050
1710
1974
1578
1933
1753
2084
1748
2054
1674
2040
1703
1967
1644
1912
1699
2027
1704
2019
1695
1915
1637
2060
1669
1919
1751
2101
1812
2069
1868
2202
1909
2150
1860
2094
1670
1933
1630
1909
1673
1790
1633
1788
1629
1899
1634
2026
1698
2120
1882
2261
1842
2055
1626
1694
1362
1719
1345
1699
1450
1789
1713
2046
1781
2006
1694
1893
1465
1610
1302
1559
1282
1533
1194
1520
1188
1405
1157
1616
1303
1674
1362
1748
1362
1482
1136
1413
1015
1180
996
1325
800
0
0
989
933
1306
1025
1294
1015
1322
1069
1421
1057
1397
1168
1483
1341
1675
1374
1701
1425
1721
1533
1857
1461
1812
1460
1793
1501
1651
1392
1526
1371
1691
1330
1693
1292
1645
1374
1729
1339
1594
1445
1718
1410
1690
1448
1846
1751
2029
1691
1875
1417
1613
1277
1527
1291
1564
1289
1511
1381
1584
1349
1559
1363
1755
1602
1945
1657
1872
1400
1514
1211
1450
1117
1426
1200
1467
1301
1574
1395
1645
1323
1547
1220
1332
1065
1275
989
1296
954
1221
929
1154
882
1330
1096
1497
1182
1418
1106
1284
852
1038
841
865
697
981
490
0
0
1258
1157
1442
1223
1498
1148
1562
1288
1669
1265
1634
1386
1774
1519
1901
1654
1982
1733
2052
1840
2277
1847
2246
1978
2344
1991
2178
1854
2021
1646
2091
1691
2048
1682
1982
1786
2096
1674
2072
1767
2158
1866
2197
1851
2280
2049
2549
2262
2477
1981
2229
1855
2157
1804
2061
1757
1995
1735
2020
1799
2090
1796
2155
1995
2437
2156
2450
1985
2096
1648
1961
1689
1968
1654
2021
1729
2011
1733
2069
1773
2124
1711
2007
1675
1850
1642
1872
1459
1811
1446
1832
1457
1822
1688
2005
1762
2014
1718
1853
1466
1667
1332
1554
1371
1593
998
0
0
1416
1403
1739
1431
1730
1377
1785
1495
1800
1473
1778
1486
1974
1554
2000
1733
2126
1877
2213
1925
2152
2009
2411
2109
2467
2209
2397
1911
2131
1819
2062
1730
2120
1805
2070
1757
2078
1834
1997
1779
2064
1776
2027
1783
2093
1941
2326
2070
2457
2130
2302
2026
2062
1733
2007
1669
1954
1716
1996
1658
1941
1675
1908
1796
2117
1930
2248
1835
2042
1677
1801
1557
1860
1518
1731
1498
1686
1439
1685
1467
1877
1543
1782
1585
1767
1368
1595
1330
1627
1337
1493
1264
1544
1403
1805
1483
1893
1595
1647
1313
1398
1047
1268
1078
1302
873
0
0
1419
1366
1611
1309
1632
1270
1701
1419
1707
1301
1642
1314
1757
1412
1793
1485
1867
1604
1851
1653
1949
1834
2245
2041
2394
2116
2306
1865
1988
1697
2020
1709
1993
1708
2007
1704
2050
1626
1945
1688
2002
1626
1930
1587
1881
1678
2018
1878
2294
2050
2309
1988
2119
1686
1958
1530
1928
1550
1941
1529
1789
1589
1771
1567
1933
1749
2102
1686
1998
1570
1780
1582
1832
1398
1702
1342
1627
1303
1555
1295
1755
1413
1724
1545
1751
1346
1558
1218
1482
1181
1460
1122
1393
1205
1565
1290
1780
1497
1613
1195
1297
1005
1230
1017
1192
690
0
0
1049
945
1287
1027
1242
884
1325
1003
1348
981
1346
973
1453
1064
1368
1227
1473
1207
1547
1287
1579
1439
1866
1690
2049
1738
1930
1494
1735
1476
1833
1507
1876
1430
1723
1527
1732
1443
1642
1304
1605
1294
1579
1333
1549
1338
1695
1496
1851
1637
2031
1817
1885
1546
1716
1397
1657
1302
1572
1237
1582
1267
1449
1217
1594
1250
1586
1317
1595
1338
1650
1486
1559
1206
1470
1072
1350
1060
1291
978
1467
1113
1497
1341
1566
1202
1409
996
1193
877
1238
905
1225
917
1181
942
1426
1186
1398
1066
1170
804
1076
758
830
371
0
0
1376
1293
1646
1306
1647
1264
1611
1335
1738
1373
1689
1322
1753
1419
1745
1417
1806
1585
1835
1513
1975
1778
2316
2068
2353
1896
2189
1712
2050
1851
2242
1979
2357
2006
2395
2084
2277
1902
2130
1794
2185
1783
2053
1810
2077
1858
2153
1774
2221
1950
2450
2166
2532
2107
2370
2071
2269
1843
2158
1733
2027
1754
1978
1708
2062
1781
2134
1762
2122
1879
2212
1962
2338
1850
2061
1643
1910
1594
1882
1581
1883
1577
2025
1845
2285
1820
1997
1605
1928
1546
1794
1451
1713
1501
1725
1491
1866
1604
2081
1709
1979
1397
1714
1335
1556
1024
0
0
1685
1637
1970
1604
1906
1579
1922
1565
1964
1656
1978
1683
1989
1702
1930
1585
2022
1717
2070
1868
2205
1939
2285
1985
2234
1909
2045
1870
2107
1917
2259
2123
2445
2230
2574
2294
2557
2194
2299
1918
2165
1829
2128
1832
2130
1786
2152
1794
2202
1893
2203
1970
2337
2189
2454
2148
2262
1987
2038
1673
1958
1626
1985
1705
1928
1669
1908
1621
1960
1640
2065
1968
2229
1860
1923
1541
1834
1508
1688
1493
1716
1467
1650
1538
1889
1684
1914
1598
1785
1325
1594
1282
1586
1321
1421
1267
1543
1365
1719
1576
1806
1486
1680
1343
1448
805
0
0
1586
1498
1802
1374
1930
1416
1799
1434
1806
1520
2058
1578
1888
1577
1853
1478
1905
1549
1951
1669
1974
1646
2082
1638
1965
1628
1931
1636
1935
1641
1994
1795
2202
2039
2324
2122
2501
2068
2352
1949
2073
1709
1925
1611
1927
1620
1969
1540
2025
1723
2006
1713
2137
1910
2267
2002
2236
1970
2014
1585
1817
1493
1782
1523
1797
1559
1778
1478
1815
1518
2018
1883
2142
1780
1979
1433
1643
1394
1640
1312
1525
1257
1573
1341
1655
1511
1725
1534
1713
1205
1509
1235
1398
1121
1302
1060
1508
1218
1509
1395
1756
1438
1605
1357
1424
721
0
0
1231
1125
1530
1202
1545
1283
1539
1339
1742
1443
1902
1465
1680
1339
1618
1249
1580
1277
1614
1412
1725
1381
1716
1371
1634
1394
1499
1354
1701
1432
1751
1528
1850
1691
1930
1815
2110
1947
2098
1678
1931
1551
1736
1395
1687
1364
1642
1330
1701
1406
1622
1365
1721
1605
1978
1709
2027
1716
1786
1402
1577
1298
1493
1261
1644
1293
1506
1233
1524
1278
1785
1640
1909
1626
1770
1330
1559
1220
1302
1086
1321
987
1201
1047
1250
1178
1457
1397
1540
1142
1285
1089
1250
937
1092
922
1264
904
1240
1089
1428
1322
1531
1211
1345
582
0
0
1381
1279
1668
1334
1804
1398
1764
1573
2005
1747
2278
1771
2043
1752
2110
1642
2052
1704
2114
1883
2180
1837
2131
1728
1977
1754
1939
1802
1997
1765
2109
1875
2205
2021
2313
2013
2458
2165
2389
2161
2458
1997
2345
2085
2236
1882
2183
1746
2250
1885
2061
1818
2196
1989
2333
2050
2499
2163
2265
1975
2181
1781
2089
1898
2118
1834
2080
1714
2059
1805
2299
2066
2473
2090
2460
1992
2218
1835
2018
1679
1962
1542
1834
1575
1892
1693
1913
1906
2309
1833
2042
1656
1835
1525
1661
1446
1806
1385
1758
1542
1981
1829
2196
1861
2053
1229
0
0
1499
1476
1774
1399
1736
1551
1775
1590
2029
1894
2212
1836
2127
1815
2107
1894
2076
1861
2178
2036
2352
2103
2270
1886
2087
1844
2076
1783
2117
1862
2212
1827
2232
1870
2276
1938
2229
2002
2255
2054
2370
2042
2437
2050
2226
1974
2146
1809
2099
1786
2047
1809
1911
1793
2054
1821
2151
1930
2034
1927
2152
1854
2036
1777
1970
1677
1949
1626
1805
1640
1988
1832
2071
1829
2198
1873
2001
1629
1822
1485
1677
1381
1659
1308
1581
1332
1713
1540
1984
1748
1826
1447
1586
1239
1562
1262
1480
1190
1573
1268
1586
1465
1837
1594
1693
1161
0
0
1295
1228
1597
1274
1638
1370
1693
1446
1906
1554
1899
1471
1854
1489
1860
1610
1957
1796
2122
1989
2348
1996
2294
1813
1926
1666
1970
1626
1967
1676
1979
1709
2001
1735
2061
1718
2087
1664
2058
1796
2153
1877
2291
2013
2258
2067
2123
1814
2066
1690
1923
1709
1925
1621
1837
1634
1934
1716
1974
1847
2217
2021
2117
1659
1968
1563
1847
1453
1713
1489
1861
1661
1834
1603
1941
1682
1934
1636
1728
1414
1690
1323
1530
1249
1453
1202
1484
1282
1745
1652
1822
1469
1613
1207
1521
1162
1477
981
1389
1047
1394
1293
1653
1430
1658
1067
0
0
1101
1025
1326
999
1318
1125
1357
1014
1421
1178
1400
1193
1572
1169
1482
1258
1553
1317
1738
1737
2089
1775
2109
1672
1739
1473
1719
1448
1727
1400
1731
1429
1773
1445
1768
1458
1754
1389
1752
1501
1769
1550
1947
1763
2088
1841
2035
1654
1831
1400
1606
1401
1605
1389
1637
1418
1630
1352
1779
1613
1957
1815
1989
1649
1856
1337
1618
1270
1419
1285
1570
1275
1525
1323
1608
1405
1601
1358
1595
1257
1412
1075
1411
1075
1338
1065
1324
950
1474
1269
1570
1273
1437
1097
1316
1099
1333
861
1217
855
1147
994
1352
1048
1360
888
0
0
1309
1188
1565
1219
1549
1334
1659
1352
1621
1365
1682
1401
1746
1403
1714
1522
1894
1585
2085
1906
2344
2043
2288
1997
2133
1793
2136
1814
2118
1802
2203
1842
2101
1810
2169
1778
2154
1829
2145
1861
2250
1850
2267
2039
2471
2330
2554
2164
2318
1972
2125
1844
2133
1782
2114
1807
2132
1827
2043
2037
2329
2265
2562
2193
2426
1902
2146
1722
1957
1738
2052
1813
2039
1758
2101
1813
2068
1866
2205
1844
2059
1701
1986
1658
1866
1544
1850
1530
1930
1673
1986
1759
2130
1866
2082
1811
1985
1584
1792
1421
1680
1492
1801
1530
1894
1438
0
0
1584
1434
1814
1573
1832
1517
1854
1557
1754
1609
1821
1538
1901
1554
1919
1598
1864
1623
2058
2034
2293
2006
2205
1962
2178
1925
2242
1989
2303
1931
2045
1862
2221
1764
2184
1851
2128
1739
2054
1733
2141
1898
2062
1776
2332
2155
2522
2142
2273
1904
2091
1787
1971
1658
1958
1660
2010
1638
1928
1801
2034
1972
2290
2110
2302
1902
2029
1602
1889
1493
1815
1557
1931
1533
1820
1492
1840
1608
1860
1676
1916
1554
1754
1426
1561
1337
1568
1342
1578
1337
1596
1455
1861
1672
1899
1669
1894
1502
1643
1249
1454
1080
1469
1230
1521
1029
0
0
1637
1444
1916
1561
1885
1578
1832
1522
1716
1473
1783
1467
1808
1522
1768
1450
1845
1546
1943
1816
2097
1738
2004
1728
2111
1891
2244
2038
2314
1980
2102
1796
2203
1798
2064
1797
2020
1718
2034
1776
2041
1751
2034
1675
2125
1959
2321
1953
2223
1985
2206
1825
2008
1661
1931
1619
2017
1629
1867
1650
1858
1746
2072
1942
2300
1917
2093
1629
1914
1559
1833
1531
1845
1450
1677
1397
1681
1540
1956
1687
1994
1684
1742
1270
1563
1279
1559
1328
1514
1248
1578
1339
1643
1543
1961
1683
1965
1546
1704
1201
1414
1022
1286
1136
1261
869
0
0
1333
1348
1598
1411
1793
1388
1618
1266
1426
1147
1477
1182
1522
1175
1462
1259
1455
1186
1573
1327
1570
1350
1676
1421
1698
1547
1946
1865
2081
1675
1868
1545
1896
1621
1807
1470
1734
1410
1714
1442
1669
1365
1764
1365
1658
1480
1863
1558
1950
1705
1965
1623
1880
1557
1662
1326
1634
1328
1623
1331
1563
1326
1647
1584
1889
1647
1789
1437
1651
1253
1614
1287
1562
1097
1337
1100
1426
1120
1509
1435
1842
1489
1541
1179
1312
1039
1293
1134
1237
945
1202
978
1310
1201
1599
1451
1699
1307
1453
934
1058
834
1008
809
923
514
0
0
1613
1445
1961
1641
2067
1669
1948
1565
1837
1542
1910
1518
1931
1507
1870
1511
1818
1483
1919
1675
1931
1613
2052
1746
2043
1885
2318
2117
2485
2071
2269
2066
2382
2086
2318
2002
2132
1789
2105
1819
2162
1901
2085
1803
2164
1893
2235
1901
2314
2087
2542
2219
2480
2061
2365
1924
2203
1839
2109
1785
2050
1789
2153
1870
2366
2049
2357
2018
2319
1956
2253
1874
2122
1644
1979
1621
1883
1619
2049
1853
2348
2018
2210
1797
1913
1565
1922
1581
1794
1501
1845
1494
1867
1617
2054
1892
2270
1861
2090
1509
1737
1333
1625
1303
1518
1025
0
0
1677
1643
2014
1794
2180
1781
2084
1721
2081
1906
2178
1928
2171
1817
2124
1721
2085
1654
2101
1707
2049
1765
2013
1814
2062
1901
2331
2118
2333
2082
2232
2107
2410
2126
2499
2058
2242
1898
2109
1897
2178
1841
2085
1819
2139
1807
2103
1856
2082
2025
2306
2125
2480
2133
2433
1905
2120
1720
1958
1739
1970
1577
1903
1608
1892
1794
2071
1890
2183
2007
2208
1821
1770
1461
1835
1479
1767
1413
1661
1659
2077
1822
1992
1626
1681
1264
1557
1362
1574
1401
1577
1325
1531
1355
1704
1582
1902
1618
1882
1339
1531
1186
1362
1117
1282
749
0
0
1474
1332
1771
1590
1869
1462
1902
1457
1965
1777
2082
1855
2101
1853
2114
1661
2139
1748
1995
1675
1988
1652
1978
1734
1997
1747
2148
1946
2134
1780
2114
1966
2274
2105
2372
1976
2229
1802
2025
1748
2089
1737
2075
1708
2054
1709
1924
1669
2003
1834
2178
1979
2411
2161
2470
1930
2030
1759
1974
1586
1796
1433
1790
1522
1837
1641
1886
1828
2187
1965
2152
1817
1754
1390
1739
1405
1686
1314
1538
1404
1869
1578
1917
1633
1658
1330
1566
1277
1531
1163
1453
1239
1451
1206
1538
1359
1738
1588
1826
1346
1549
1143
1251
1081
1204
693
0
0
1049
978
1352
1162
1393
1092
1410
1086
1537
1382
1597
1400
1706
1442
1802
1419
1890
1549
1860
1586
1722
1431
1636
1385
1615
1389
1776
1490
1794
1534
1705
1525
1885
1682
2065
1746
1909
1578
1851
1389
1769
1377
1738
1314
1636
1317
1554
1339
1612
1433
1759
1610
1992
1815
2122
1672
1789
1506
1778
1314
1543
1221
1549
1229
1540
1329
1605
1482
1781
1592
1975
1573
1605
1217
1418
1080
1368
1086
1286
1104
1402
1166
1480
1306
1488
1066
1318
1133
1222
1036
1182
875
1204
1010
1146
962
1447
1202
1608
1257
1431
1025
1082
789
936
397
0
0
1303
1154
1510
1277
1643
1320
1651
1354
1786
1489
1856
1554
1909
1642
2130
1821
2301
1958
2381
2002
2250
1869
2114
1835
2092
1743
2192
1799
2123
1914
2125
1810
2183
1938
2306
2009
2385
2118
2368
1967
2194
1854
2185
1770
2149
1771
2156
1805
2164
1832
2238
1885
2313
2107
2422
2235
2498
2082
2345
1915
2195
1776
2115
1789
2063
1781
2105
1898
2309
2239
2420
2107
2160
1818
2043
1713
1994
1588
1890
1627
1902
1618
2063
1802
2071
1670
2021
1733
1930
1610
1803
1418
1765
1429
1753
1493
1834
1712
2178
1742
2091
1733
1794
1415
1607
1039
0
0
1506
1362
1816
1418
1840
1569
1844
1566
1777
1629
1949
1686
1973
1779
2061
1867
2235
2193
2450
2206
2405
2125
2353
1965
2288
1869
2177
1867
2129
1905
2161
1876
2068
1816
2165
2041
2413
2117
2458
2068
2326
1897
2114
1900
2116
1881
2116
1857
2061
1810
2106
1865
2104
1863
2185
2068
2438
2072
2293
1871
1962
1703
1924
1729
1960
1634
1959
1749
2157
2114
2282
2017
2204
1816
1970
1602
1758
1395
1693
1341
1710
1387
1785
1573
1844
1637
1907
1663
1883
1450
1613
1373
1704
1285
1557
1306
1805
1486
1756
1605
1863
1634
1725
1295
1443
866
0
0
1421
1217
1685
1205
1653
1325
1746
1405
1704
1453
1783
1388
1793
1562
1826
1481
2018
1840
2213
2006
2301
1951
2302
1890
2297
1855
2084
1709
1953
1654
1993
1718
1865
1691
2007
1738
2121
1869
2260
1965
2165
1841
2057
1714
1963
1675
1965
1615
1965
1634
1905
1615
1833
1584
1950
1858
2314
2012
2319
1846
1938
1617
1864
1545
1828
1492
1829
1578
2037
1807
1997
1742
2154
1753
1996
1487
1693
1295
1558
1221
1598
1330
1700
1450
1708
1482
1906
1677
2000
1366
1622
1325
1482
1169
1397
1150
1512
1275
1517
1353
1650
1501
1715
1266
1366
629
0
0
1092
966
1424
1041
1363
1078
1408
1051
1362
1117
1408
1075
1414
1239
1591
1200
1572
1461
1722
1538
1759
1641
1972
1652
2022
1655
1787
1480
1747
1465
1687
1482
1636
1343
1697
1433
1790
1522
1864
1627
1925
1642
1789
1495
1737
1487
1659
1395
1652
1426
1617
1368
1570
1320
1566
1461
1866
1701
2034
1693
1756
1443
1669
1380
1554
1210
1497
1239
1706
1467
1627
1413
1890
1501
1728
1300
1474
1079
1338
1072
1380
1090
1497
1187
1417
1251
1728
1476
1725
1273
1422
1109
1292
1034
1113
971
1188
886
1241
998
1366
1173
1450
1053
1173
556
0
0
1504
1393
1750
1303
1759
1402
1647
1422
1740
1477
1846
1450
1813
1503
1865
1596
1962
1699
1957
1790
2090
1863
2246
1971
2413
2066
2385
2050
2329
1906
2242
1913
2120
1790
2199
1826
2210
1908
2271
1938
2376
1994
2407
2109
2349
2091
2217
1970
2222
1850
2178
1851
2110
1813
2080
1890
2290
2162
2550
2286
2381
2039
2289
1962
2162
1825
2014
1768
2251
1947
2097
1875
2301
2034
2389
1869
2184
1652
1924
1586
1973
1640
1997
1716
2020
1781
2193
1996
2266
1963
2097
1672
1977
1610
1705
1546
1897
1470
1763
1442
1845
1629
2032
1661
1943
1146
0
0
1802
1783
2153
1706
1986
1685
2020
1737
2014
1741
1977
1562
1965
1674
2014
1688
2077
1754
2066
1749
2065
1827
2237
1895
2281
2103
2362
2128
2401
2075
2254
1870
2235
1834
2078
1890
2154
1898
2122
1861
2202
1989
2327
2178
2413
2097
2114
1787
2034
1709
2114
1797
2005
1712
2006
1810
1994
1908
2285
2154
2277
2027
2154
1874
2093
1730
1876
1663
2017
1647
1778
1515
1930
1653
2069
1721
2022
1550
1709
1448
1697
1467
1770
1451
1659
1434
1833
1637
2001
1622
1938
1525
1694
1349
1460
1309
1547
1295
1614
1251
1521
1341
1552
1434
1653
1071
0
0
1749
1637
1992
1690
1935
1633
1886
1722
1999
1685
1920
1573
1870
1497
1911
1525
1957
1573
1902
1578
1965
1578
1997
1742
2035
1812
2106
1947
2274
2037
2113
1725
2010
1653
2044
1794
2015
1646
2002
1794
1978
1744
2133
1941
2315
1945
2065
1812
2037
1683
1965
1654
1877
1584
1882
1621
1794
1651
2044
1853
1997
1911
2137
1924
2090
1666
1924
1686
1946
1486
1701
1421
1729
1464
1961
1645
2070
1620
1626
1486
1646
1346
1595
1249
1579
1236
1666
1404
1796
1613
1762
1459
1640
1293
1469
1165
1452
1139
1525
1063
1486
1152
1397
1195
1506
954
0
0
1366
1235
1637
1260
1545
1313
1743
1522
1829
1633
1813
1355
1602
1295
1561
1179
1572
1382
1645
1301
1605
1375
1669
1355
1568
1424
1806
1524
1977
1674
1915
1507
1778
1459
1723
1546
1770
1421
1622
1434
1698
1506
1821
1645
1987
1698
1977
1624
1882
1444
1797
1397
1602
1298
1603
1408
1595
1348
1589
1445
1709
1581
1982
1705
1939
1586
1833
1548
1723
1348
1433
1133
1428
1192
1629
1346
1755
1419
1501
1259
1490
1090
1434
1101
1243
986
1211
1036
1478
1168
1589
1277
1508
1073
1242
983
1115
1019
1245
868
1153
874
1099
848
1179
676
0
0
1480
1421
1738
1431
1781
1534
1972
1764
2221
1855
2178
1758
2007
1558
1945
1602
1962
1597
1943
1595
1940
1673
2027
1814
1997
1745
2125
1896
2293
2122
2293
1940
2261
1885
2156
1925
2225
1758
2162
1846
2181
1901
2139
1951
2372
2151
2518
2281
2518
2049
2314
1898
2162
1814
2121
1857
2091
1800
2170
1898
2194
2053
2388
2208
2652
2282
2569
2205
2260
1827
1993
1660
2074
1724
2172
1902
2234
1973
2165
1837
2038
1621
1941
1605
1961
1549
1851
1629
1946
1662
2058
1841
2180
1721
1898
1579
1824
1443
1878
1469
1770
1454
1576
1367
1674
1252
0
0
1472
1396
1863
1597
1864
1550
1958
1945
2193
1962
2148
1843
2107
1822
2106
1911
2022
1779
1980
1786
2013
1769
2045
1723
2052
1833
2073
1837
2134
1884
2327
2029
2310
2043
2249
1923
2117
1885
2267
1844
2088
1742
2061
1853
2094
1978
2405
2228
2411
2044
2154
1825
2048
1667
2037
1749
1956
1709
1924
1700
1945
1745
2097
1997
2474
2198
2437
2090
2133
1626
1798
1514
1738
1526
1869
1579
1875
1685
2008
1738
1849
1421
1697
1283
1657
1334
1524
1371
1669
1367
1675
1531
1910
1623
1828
1494
1640
1261
1426
1244
1520
1202
1338
1090
1320
898
0
0
1370
1220
1701
1346
1681
1474
1841
1632
1984
1598
1885
1637
1949
1770
1993
1902
2009
1802
2007
1747
1986
1674
1988
1599
2003
1685
2011
1723
2071
1805
2150
1863
2349
2074
2325
1867
2130
1829
2084
1800
1990
1702
1987
1699
2040
1853
2352
2170
2410
1970
2118
1757
1977
1626
1941
1725
1875
1610
1834
1515
1807
1546
1873
1730
2298
2196
2379
1974
2054
1593
1804
1428
1687
1458
1692
1466
1706
1498
1928
1726
1883
1481
1614
1265
1654
1301
1593
1347
1634
1288
1549
1329
1771
1605
1833
1445
1545
1284
1430
1207
1470
1147
1269
1016
1242
732
0
0
1034
1002
1317
1070
1418
1134
1460
1293
1602
1306
1498
1157
1546
1256
1680
1493
1770
1490
1789
1547
1864
1512
1786
1385
1645
1364
1656
1429
1742
1418
1781
1499
1913
1781
2095
1854
1994
1607
1847
1453
1669
1377
1621
1402
1717
1448
2009
1779
1979
1690
1815
1610
1725
1339
1722
1478
1614
1326
1521
1345
1626
1341
1565
1370
2002
1815
2078
1800
1809
1286
1573
1175
1457
1188
1444
1181
1530
1129
1676
1480
1740
1381
1459
1048
1380
1092
1353
1057
1421
1073
1300
1042
1448
1220
1448
1275
1421
1105
1295
989
1222
868
1114
832
1044
441
0
0
1262
1214
1756
1424
1742
1371
1675
1461
1702
1459
1757
1381
1802
1473
1861
1643
2030
1797
2114
2000
2329
2041
2234
1821
2095
1800
2080
1781
2151
1714
2230
1910
2270
2075
2498
2269
2506
2109
2422
1934
2129
1838
2165
1902
2132
1875
2314
1994
2358
1979
2314
2043
2327
1956
2214
1949
2162
1834
1997
1779
2020
1754
2000
1813
2395
2251
2618
2185
2433
1854
2185
1814
1926
1642
1985
1656
2002
1607
2071
1877
2382
1961
2025
1722
1972
1621
1937
1620
1903
1551
1938
1585
1862
1611
1894
1826
2130
1778
2011
1626
1845
1559
1662
1284
1628
1030
0
0
1569
1610
2014
1778
2003
1672
1913
1589
1846
1626
1897
1579
1931
1716
1997
1705
2037
1917
2257
2138
2454
2280
2482
2059
2249
1874
2005
1722
2103
1821
2097
1870
2213
1958
2442
2195
2525
2203
2397
2052
2258
1903
2101
1851
2002
1859
2090
1811
2102
1807
2152
1909
2340
2053
2325
1930
2115
1734
2018
1622
1949
1579
1825
1765
2147
2011
2295
1950
2158
1746
1941
1540
1813
1461
1770
1545
1803
1574
1680
1620
1937
1809
1965
1596
1765
1458
1647
1358
1630
1329
1572
1354
1580
1236
1601
1419
1840
1585
1838
1565
1718
1400
1419
1179
1369
778
0
0
1662
1606
2056
1780
1898
1591
1846
1463
1801
1450
1828
1434
1851
1590
1945
1605
1930
1709
2020
1819
2250
1987
2356
1973
2276
1874
1955
1716
2050
1848
2075
1786
2058
1786
2221
1986
2406
2145
2431
2137
2426
1926
2027
1770
1981
1717
1984
1721
2042
1714
2070
1778
2292
2130
2359
2072
2213
1799
2056
1602
1915
1525
1850
1642
2067
1819
1963
1677
1969
1694
2052
1593
1811
1493
1752
1418
1620
1390
1579
1410
1810
1624
1981
1643
1810
1399
1562
1235
1543
1290
1537
1299
1436
1170
1487
1230
1794
1525
1866
1606
1829
1285
1371
1057
1227
629
0
0
1342
1445
1882
1565
1725
1356
1661
1228
1493
1235
1448
1126
1524
1208
1535
1250
1551
1267
1618
1458
1714
1578
1933
1552
1909
1568
1770
1385
1732
1550
1723
1431
1749
1428
1863
1584
1876
1842
2247
1968
2197
1685
1761
1425
1653
1434
1639
1342
1713
1369
1663
1477
1893
1738
2120
1828
2095
1714
1861
1386
1673
1322
1488
1345
1659
1482
1649
1320
1554
1284
1666
1366
1594
1229
1519
1130
1363
1094
1325
1087
1418
1298
1757
1381
1591
1133
1382
1072
1264
948
1264
1025
1140
897
1218
955
1437
1227
1613
1342
1508
1099
1178
880
951
427
0
0
1757
1707
2154
1693
2026
1654
1958
1527
1907
1605
1890
1466
1860
1562
1906
1561
1899
1684
2008
1729
2052
1743
2156
1829
2248
1930
2164
1893
2142
1860
2109
1819
2154
1828
2203
1946
2257
2085
2570
2354
2671
2132
2268
1864
2146
1861
2129
1865
2147
1802
2190
1836
2285
2077
2482
2285
2718
2297
2430
1894
2074
1754
2005
1760
2114
1829
2039
1665
2056
1748
2216
1875
2304
1915
2033
1623
1928
1620
1892
1583
1946
1706
2125
1929
2137
1781
1969
1550
1929
1522
1853
1541
1770
1405
1792
1458
1914
1728
2114
1885
2177
1714
1710
1335
1551
990
0
0
1891
1917
2340
2044
2199
1801
2084
1882
2125
1862
2243
1820
2042
1746
2122
1800
2050
1813
2118
1783
2137
1860
2165
1914
2301
2139
2334
2076
2153
1877
2241
1931
2177
1925
2160
1897
2182
2073
2616
2452
2670
2205
2297
1914
2123
1813
2089
1810
2149
1802
2037
1859
2123
1963
2344
2269
2561
2286
2453
1928
1971
1676
1885
1641
1981
1667
1876
1607
1872
1610
2001
1832
2091
1852
1954
1549
1698
1461
1661
1418
1778
1515
1756
1677
1879
1593
1811
1546
1680
1451
1619
1461
1522
1405
1549
1277
1683
1532
1911
1715
1946
1557
1605
1133
1325
914
0
0
1732
1770
1990
1763
1937
1552
1898
1605
1907
1668
2012
1743
2040
1746
1986
1646
1883
1598
1949
1693
1928
1698
2091
1783
2139
2001
2252
1949
2103
1783
2053
1677
2041
1693
2021
1736
2066
1860
2445
2272
2441
2069
2278
1829
2037
1640
1938
1608
1990
1597
1846
1659
2000
1687
2064
1977
2288
2047
2309
1889
2035
1640
1809
1467
1866
1621
1758
1545
1773
1463
1752
1669
2030
1730
1909
1425
1525
1301
1597
1221
1644
1311
1562
1446
1738
1487
1777
1525
1607
1309
1538
1334
1434
1294
1453
1156
1533
1349
1608
1498
1807
1451
1510
1009
1200
753
0
0
1334
1324
1625
1258
1489
1073
1530
1250
1474
1250
1557
1322
1650
1473
1798
1519
1661
1314
1674
1361
1527
1365
1725
1483
1815
1646
1926
1654
1882
1611
1734
1459
1674
1478
1748
1434
1738
1572
1962
1757
1975
1764
1930
1619
1846
1465
1784
1390
1698
1307
1658
1416
1707
1325
1699
1578
1836
1669
1950
1621
1869
1487
1603
1296
1662
1333
1586
1285
1365
1117
1493
1267
1584
1395
1541
1208
1413
1082
1317
1018
1369
1126
1281
1077
1389
1155
1523
1433
1477
1141
1269
1126
1226
1003
1073
907
1294
1041
1308
1119
1413
1098
1174
818
823
451
0
0
1584
1465
1789
1474
1751
1405
1791
1469
1776
1487
1874
1499
1859
1686
2150
1871
2176
1862
2069
1749
2009
1690
2094
1839
2134
1950
2186
1981
2306
1981
2245
1881
2138
1898
2186
1873
2082
1869
2346
1938
2324
1946
2331
2066
2388
2035
2426
1940
2214
1869
2060
1792
2149
1843
2148
1903
2224
1978
2322
2085
2370
2066
2306
1828
2236
1938
2209
1829
1908
1649
1999
1723
1988
1803
2135
1872
1995
1730
1936
1595
1970
1643
1859
1622
1969
1681
2029
1926
2202
1796
1990
1734
1861
1517
1794
1410
1820
1530
1734
1512
1823
1571
1917
1361
1541
1043
0
0
1869
1753
2042
1599
1753
1576
1885
1709
2004
1698
1973
1659
1997
1717
2089
1971
2374
2147
2365
2038
2187
1957
2257
1861
2130
1890
2258
1995
2250
2073
2324
2109
2235
1945
2170
1879
2100
1908
2216
1898
2141
1937
2197
2061
2489
2178
2426
2036
2120
1762
1972
1786
1938
1661
1897
1806
1993
1703
2097
1889
2190
1975
2109
1892
2248
1974
2177
1678
1901
1541
1796
1518
1757
1601
1901
1692
1933
1733
1759
1501
1732
1477
1676
1396
1651
1417
1758
1693
1989
1653
1951
1621
1770
1382
1558
1250
1517
1283
1474
1165
1495
1241
1611
1219
1397
926
0
0
1821
1553
1770
1419
1642
1397
1781
1397
1841
1435
1758
1465
1819
1476
1885
1717
2125
1889
2258
1905
2122
1890
1986
1651
2026
1715
2013
1770
1993
2017
2330
2058
2235
1794
2040
1776
1936
1695
2013
1682
2034
1733
1964
1840
2315
2185
2406
2005
2114
1677
1877
1580
1826
1551
1853
1633
1828
1523
1915
1606
1962
1808
2110
1873
2354
2042
2133
1595
1730
1435
1695
1472
1657
1381
1768
1590
1948
1701
1755
1337
1562
1324
1561
1328
1530
1260
1585
1436
1831
1559
1944
1616
1715
1289
1361
1186
1374
1170
1409
1019
1327
1019
1461
1142
1282
794
0
0
1467
1306
1520
1134
1371
1207
1492
1282
1461
1231
1505
1192
1490
1207
1498
1399
1733
1570
1982
1724
1883
1626
1788
1402
1745
1374
1721
1490
1748
1630
2010
1878
2063
1666
1780
1550
1722
1506
1706
1426
1768
1467
1679
1499
2013
1879
2209
1835
2027
1577
1676
1401
1578
1270
1578
1327
1648
1282
1597
1349
1527
1435
1722
1714
2146
1762
1901
1443
1518
1146
1374
1167
1450
1198
1554
1418
1637
1445
1562
1190
1346
1117
1269
1073
1346
987
1274
1188
1475
1353
1814
1438
1490
1040
1150
932
1141
867
1101
891
1050
738
1141
851
1143
646
0
0
1789
1468
1906
1426
1620
1386
1707
1469
1837
1465
1746
1477
1845
1445
1801
1606
2014
1833
2162
1993
2286
1933
2214
1821
2132
1786
2085
1841
2094
2020
2474
2200
2603
2129
2335
1980
2213
1883
2171
1914
2154
1860
2217
1986
2439
2257
2555
2305
2568
2058
2244
1861
2156
1744
2082
1817
2201
1807
2201
1812
2036
1819
2185
2222
2670
2325
2523
1935
2040
1716
1950
1672
2025
1683
2056
1851
2199
1941
2128
1827
2038
1764
2002
1654
1961
1642
1957
1724
2056
1922
2374
1949
2154
1604
1790
1522
1793
1490
1701
1449
1721
1421
1773
1409
1687
1131
0
0
1829
1678
2068
1689
1963
1707
1994
1730
1949
1649
1960
1657
1957
1627
1976
1782
2101
1779
2134
1911
2148
1997
2227
1981
2278
1869
2171
1818
2138
1961
2307
2171
2410
2194
2347
1909
2163
1905
2179
1814
2102
1950
2168
1821
2267
2005
2308
2048
2415
2130
2310
1890
2186
1744
2006
1681
1998
1733
1950
1680
1964
1658
2037
1954
2410
2088
2254
1890
1986
1627
1782
1447
1749
1573
1818
1549
1845
1530
1885
1714
1948
1638
1840
1501
1603
1434
1618
1439
1718
1521
1898
1653
1799
1484
1562
1352
1597
1093
1551
1140
1488
1188
1437
1049
1405
932
0
0
1499
1444
1864
1562
1858
1645
1970
1663
1906
1604
1844
1444
1846
1570
1872
1671
1939
1582
1986
1573
1969
1786
2061
1796
2138
1755
2018
1692
2020
1756
2121
1961
2133
1921
2255
1737
2022
1723
2065
1784
2028
1678
2101
1729
2110
1755
2082
1819
2148
1869
2246
1890
2240
1739
2011
1608
1881
1523
1797
1652
1778
1558
1864
1694
2116
1738
2103
1781
1945
1602
1709
1323
1741
1394
1637
1364
1677
1437
1779
1685
1989
1677
1898
1432
1597
1384
1594
1233
1608
1320
1664
1381
1675
1277
1450
1181
1465
1036
1384
1036
1331
1085
1316
931
1229
742
0
0
1138
1101
1489
1179
1549
1330
1614
1445
1675
1300
1608
1224
1625
1309
1604
1298
1722
1334
1614
1325
1623
1430
1740
1515
1897
1426
1770
1433
1698
1450
1749
1509
1796
1481
1924
1428
1746
1467
1876
1561
1844
1460
1829
1416
1707
1441
1717
1378
1708
1598
2010
1755
2120
1699
1853
1480
1655
1282
1581
1267
1534
1305
1618
1416
1748
1358
1700
1553
1746
1418
1601
1226
1451
1156
1418
1122
1397
1179
1443
1403
1800
1448
1751
1325
1317
1085
1338
1053
1316
1037
1327
1121
1441
1117
1309
1104
1284
826
1182
735
1040
875
1033
698
973
506
0
0
1389
1270
1722
1420
1822
1513
1881
1641
1958
1561
1961
1569
1950
1702
1941
1658
2093
1613
1940
1638
2011
1742
2098
1797
2146
1751
2098
1748
2095
1806
2100
1899
2117
1958
2270
1910
2199
1936
2365
2070
2289
1890
2186
1841
2222
1851
2221
1910
2218
1978
2487
2394
2749
2231
2510
1934
2149
1795
2013
1783
2035
1805
2121
1765
2090
1773
2158
2027
2440
2166
2261
1829
1987
1712
1988
1721
1950
1650
2101
1945
2309
2005
2282
1786
1874
1608
1876
1594
1864
1529
1950
1590
1945
1743
1938
1745
1930
1441
1738
1322
1629
1358
1680
1256
1574
1082
0
0
1552
1438
1750
1638
1972
1652
1959
1691
2020
1723
2109
1690
2138
2053
2337
2050
2202
1846
1965
1743
2170
1858
2185
1892
2146
1809
2212
1911
2035
1802
2185
1885
2191
1941
2176
1962
2282
2151
2487
2124
2370
1917
2140
1829
2132
1930
2016
1774
2101
1898
2386
2107
2418
2059
2159
1725
1977
1637
1933
1549
1826
1565
1814
1538
1901
1627
2013
1795
2194
2056
2205
1738
1850
1606
1745
1450
1650
1458
1745
1644
1895
1690
1938
1550
1759
1364
1683
1405
1604
1341
1614
1365
1659
1473
1769
1538
1765
1312
1476
1145
1427
1053
1330
1066
1356
729
0
0
1455
1337
1673
1489
1834
1482
1839
1586
1822
1495
1901
1597
1976
1907
2290
1958
2149
1689
1941
1585
1979
1629
2000
1680
1946
1624
2070
1758
1950
1684
2057
1702
2032
1769
2062
1751
2213
2109
2507
2050
2254
1749
2058
1661
2011
1685
1874
1578
2038
1716
2074
1845
2189
1884
1986
1599
1945
1591
1914
1558
1777
1484
1768
1381
1900
1510
1803
1676
2082
1893
2061
1649
1806
1475
1640
1398
1602
1350
1645
1411
1755
1487
1803
1486
1701
1306
1580
1328
1498
1230
1558
1305
1546
1269
1692
1518
1770
1282
1510
1044
1324
937
1220
961
1218
713
0
0
1093
1034
1361
1197
1453
1201
1579
1225
1514
1227
1642
1266
1649
1578
1882
1680
1827
1542
1685
1416
1644
1402
1681
1421
1697
1426
1662
1377
1674
1351
1769
1522
1774
1507
1762
1623
1978
1937
2216
1829
1901
1565
1676
1338
1637
1434
1573
1295
1730
1427
1664
1462
1717
1426
1668
1448
1705
1393
1674
1378
1588
1307
1493
1143
1608
1186
1610
1330
1682
1519
1779
1482
1598
1288
1389
1130
1334
1106
1292
978
1368
1157
1486
1282
1509
1154
1417
1170
1274
1000
1322
1140
1314
1082
1430
1239
1490
1124
1345
965
1070
745
1074
740
969
426
0
0
1378
1252
1571
1345
1741
1322
1813
1458
1717
1465
1866
1546
1878
1797
2037
1851
2167
1684
2030
1661
1967
1586
2045
1774
2068
1703
2132
1780
1986
1685
2173
1869
2137
1837
2282
2027
2485
2291
2599
2103
2265
1790
2077
1730
2159
1859
2004
1819
2103
1834
2041
1762
2059
1714
2026
1765
2263
1992
2218
1957
2277
1829
2005
1639
1997
1653
1986
1709
2016
1806
2153
1992
2240
1805
1930
1644
1940
1577
1922
1549
1885
1636
2021
1783
2066
1805
2097
1707
2063
1648
1957
1662
1922
1448
1876
1645
1940
1638
1853
1466
1713
1242
1562
1254
1543
962
0
0
1650
1514
1937
1596
1806
1671
2021
1732
2038
1707
1944
1789
2029
1901
2155
1849
2094
1803
2069
1812
2013
1818
2150
1898
2102
1835
2109
1883
2132
1846
2139
1840
2142
1910
2226
2107
2509
2279
2463
2110
2330
1881
2171
1921
2091
1832
1986
1794
2018
1669
2028
1717
1974
1653
1938
1742
2066
1950
2224
2057
2219
1864
1907
1557
1954
1570
1758
1628
1867
1626
1911
1730
1997
1708
1893
1466
1758
1572
1733
1441
1780
1499
1764
1658
1851
1829
1994
1794
2095
1695
1882
1498
1712
1413
1658
1434
1666
1584
1797
1284
1457
1150
1323
1018
1309
905
0
0
1577
1409
1791
1419
1658
1485
1826
1555
1834
1514
1889
1582
1914
1701
1940
1651
1872
1559
1910
1581
1817
1678
1949
1683
1968
1690
2018
1675
2095
1750
1928
1670
2003
1762
2061
1972
2273
2023
2136
1828
2017
1832
2149
1845
2026
1726
1915
1572
1864
1630
1875
1643
1959
1559
1835
1573
1931
1869
2179
1957
2157
1780
1883
1419
1764
1483
1650
1424
1693
1412
1701
1490
1874
1534
1890
1461
1725
1371
1671
1305
1681
1314
1561
1428
1745
1702
1964
1755
2053
1739
1894
1529
1742
1343
1604
1193
1520
1398
1667
1151
1357
1034
1257
971
1197
587
0
0
1169
1149
1454
1221
1453
1199
1521
1197
1625
1197
1538
1242
1591
1320
1549
1353
1540
1243
1554
1266
1507
1285
1654
1386
1737
1469
1765
1469
1834
1521
1700
1465
1673
1418
1608
1542
1851
1536
1655
1385
1751
1494
1800
1608
1819
1365
1610
1361
1588
1195
1667
1319
1594
1354
1541
1289
1682
1608
1929
1690
1882
1493
1490
1186
1493
1163
1425
1186
1426
1213
1522
1237
1506
1285
1670
1363
1642
1271
1357
1072
1360
997
1306
1108
1387
1347
1697
1620
1828
1542
1798
1320
1534
1142
1324
1018
1171
1030
1314
934
1179
855
1073
793
895
514
0
0
1382
1322
1786
1498
1826
1550
1875
1473
1853
1497
1823
1492
1853
1573
1847
1678
1885
1587
1875
1636
1910
1674
2063
1731
2132
1858
2193
1949
2308
1938
2182
1778
2160
1822
2158
1907
2165
1881
2099
1801
2104
1822
2262
1994
2225
1834
2073
1779
2082
1749
2066
1766
2129
1746
2064
1692
2186
2061
2450
2150
2370
1881
2038
1734
2025
1619
1986
1705
1906
1634
1982
1709
2005
1729
2205
1925
2205
1814
1899
1639
1967
1503
1913
1589
1876
1829
2153
2039
2305
1962
2272
1892
2051
1594
1834
1409
1672
1499
1834
1485
1801
1459
1670
1376
1557
950
0
0
1589
1505
1930
1770
2048
1793
2151
1822
2027
1877
1949
1782
2030
1815
2069
1739
2069
1807
2043
1796
2075
1778
2138
1813
2138
1938
2230
2004
2477
2105
2257
1818
2196
1911
2283
2072
2254
1917
2101
1800
2042
1878
2046
1826
2083
1837
2042
1762
2098
1719
2009
1713
1892
1646
1850
1613
1986
1921
2135
1934
2170
1739
2082
1766
2002
1578
1893
1462
1789
1499
1797
1571
1754
1518
1853
1738
1933
1626
1905
1542
1741
1424
1638
1335
1708
1546
1852
1638
1963
1774
2026
1802
1819
1413
1620
1248
1539
1174
1470
1296
1587
1367
1562
1122
1365
783
0
0
1362
1252
1663
1489
1833
1521
1812
1487
1826
1582
1834
1629
1847
1578
1893
1545
1833
1554
1824
1552
1814
1533
1957
1589
1924
1593
2071
1755
2124
1800
1933
1653
2132
1812
2189
1914
2061
1709
1900
1549
1773
1602
1845
1615
1877
1655
1925
1622
1939
1524
1736
1526
1716
1405
1665
1461
1762
1610
1897
1579
1894
1579
1932
1626
1959
1509
1846
1385
1695
1346
1605
1390
1615
1327
1554
1390
1720
1526
1793
1483
1642
1220
1475
1162
1435
1305
1541
1385
1696
1545
1810
1602
1737
1354
1477
1065
1342
988
1289
1124
1503
1204
1376
913
1082
516
0
0
1060
987
1356
1219
1513
1194
1477
1190
1424
1290
1506
1424
1737
1492
1586
1254
1541
1284
1484
1307
1548
1314
1680
1290
1658
1352
1668
1418
1765
1462
1742
1522
1883
1697
1947
1682
1803
1339
1604
1261
1555
1277
1546
1348
1590
1413
1669
1470
1797
1333
1576
1309
1410
1186
1401
1182
1471
1286
1456
1333
1571
1264
1687
1477
1769
1378
1737
1165
1421
1110
1293
1147
1354
1032
1291
1113
1370
1238
1549
1333
1482
1139
1261
966
1238
977
1210
1051
1390
1331
1582
1445
1467
1081
1225
941
1045
823
1043
894
1224
912
1106
694
1016
408
0
0
1321
1174
1591
1397
1678
1377
1730
1450
1716
1569
1846
1790
2018
1689
1946
1558
1922
1620
1922
1638
1962
1590
2049
1695
2005
1760
2064
1722
2052
1757
2206
1909
2473
2166
2543
2053
2162
1722
2020
1748
1974
1794
2007
1753
2002
1733
2146
1938
2326
1836
2078
1772
1985
1676
1912
1738
2053
1687
1938
1731
2006
1651
2111
1780
2330
1987
2194
1738
2033
1620
1846
1634
1868
1609
1841
1604
1869
1713
2084
1927
2162
1785
1933
1474
1869
1526
1783
1516
1930
1783
2106
1990
2170
1717
1942
1478
1773
1442
1629
1385
1659
1500
1653
1317
1578
925
0
0
1540
1458
1757
1509
1782
1479
1845
1609
1919
1723
1995
1785
2154
1846
2074
1786
2082
1836
2135
1776
2006
1742
2090
1782
2065
1748
2027
1758
2005
1805
2251
2054
2597
2237
2442
2085
2107
1773
2039
1715
1954
1723
2002
1681
1898
1723
2036
1813
2133
1829
1978
1684
1861
1604
1780
1725
1951
1659
1866
1445
1821
1539
1860
1632
2130
1852
2178
1814
1865
1428
1762
1512
1659
1438
1730
1402
1733
1397
1737
1629
1922
1637
1749
1470
1533
1330
1602
1335
1597
1355
1765
1584
1906
1622
1707
1290
1455
1235
1453
1182
1390
1205
1386
1181
1478
895
0
0
1402
1146
1586
1242
1595
1285
1668
1368
1752
1406
1836
1579
1859
1515
1846
1514
1922
1690
1967
1605
1814
1578
1877
1545
1835
1542
1770
1569
1853
1622
2034
1829
2357
2057
2258
1764
1878
1628
1905
1538
1743
1501
1834
1549
1738
1462
1765
1478
1861
1613
1810
1605
1845
1533
1717
1658
1821
1564
1698
1253
1634
1362
1674
1361
1769
1541
1963
1613
1778
1327
1578
1338
1553
1316
1612
1205
1470
1281
1508
1379
1697
1480
1629
1266
1419
1138
1403
1143
1373
1215
1501
1304
1619
1478
1585
1227
1305
1005
1237
955
1192
1106
1307
1117
1307
811
0
0
1036
873
1242
1091
1309
1007
1369
1131
1452
1139
1476
1217
1521
1261
1530
1197
1675
1454
1630
1360
1586
1317
1586
1300
1622
1250
1490
1341
1525
1382
1738
1554
2100
1794
1877
1493
1621
1318
1609
1257
1515
1277
1431
1226
1495
1170
1501
1192
1490
1262
1589
1349
1622
1362
1498
1394
1646
1325
1447
1022
1347
1005
1389
1025
1474
1268
1601
1377
1669
1213
1410
1133
1243
1010
1327
988
1273
932
1245
1015
1384
1251
1535
1166
1243
899
1105
907
1058
841
1197
979
1301
986
1337
1098
1234
893
1133
794
996
783
1053
964
1314
763
0
0
1273
1120
1466
1218
1565
1212
1725
1416
1719
1421
1757
1397
1737
1434
1815
1593
1949
1686
2033
1737
2023
1688
2082
1727
2028
1619
1964
1698
1971
1682
2184
1960
2421
2038
2169
1819
2049
1723
2069
1698
1906
1673
1901
1653
1859
1689
1945
1636
1936
1627
1926
1776
2219
1858
2181
1997
2189
1773
1937
1444
1847
1517
1861
1525
1874
1606
1949
1723
2184
1778
1998
1659
1867
1544
1956
1525
1819
1453
1782
1458
1867
1622
1962
1700
1874
1487
1737
1421
1625
1410
1632
1370
1705
1562
1845
1631
1797
1499
1745
1334
1572
1391
1689
1487
1939
1389
0
0
1383
1245
1610
1366
1709
1437
1898
1629
1879
1489
1798
1604
1833
1538
1901
1565
2030
1746
2010
1781
2082
1825
2132
1834
2084
1700
1919
1685
1929
1643
2011
1949
2212
1847
2066
1660
1892
1597
2049
1698
1843
1590
1806
1511
1871
1545
1738
1529
1761
1447
1797
1626
1866
1722
2100
1959
2157
1609
1697
1324
1682
1405
1677
1374
1579
1341
1721
1531
1866
1642
1877
1492
1576
1239
1571
1340
1546
1204
1445
1304
1538
1414
1723
1458
1668
1327
1540
1166
1460
1306
1402
1174
1463
1243
1485
1298
1596
1245
1417
1096
1300
1125
1512
1350
1610
1018
0
0
1103
1013
1341
1162
1557
1384
1833
1393
1680
1245
1556
1274
1618
1257
1658
1338
1634
1348
1650
1497
1894
1623
1970
1676
1796
1459
1748
1434
1673
1366
1836
1571
1978
1509
1686
1406
1619
1354
1847
1497
1620
1354
1615
1261
1691
1334
1621
1289
1568
1206
1610
1343
1705
1474
1875
1705
1927
1355
1573
1166
1538
1176
1461
1112
1428
1140
1509
1250
1526
1366
1668
1369
1465
1098
1378
1103
1393
1033
1279
1026
1401
1130
1478
1111
1453
1077
1315
1035
1285
1065
1192
860
1301
1073
1326
1141
1451
962
1257
915
1148
891
1342
1173
1375
850
0
0
642
554
861
750
1109
954
1383
938
1201
827
1016
675
1069
811
1134
836
1137
744
1195
930
1378
1079
1386
1123
1370
998
1238
935
1282
1019
1366
1054
1395
913
1197
906
1203
859
1429
1040
1201
1005
1201
879
1124
841
1085
805
1186
848
1053
839
1197
1044
1421
1222
1433
933
1162
713
1086
805
991
795
964
725
949
712
967
800
1163
869
1077
763
996
749
940
582
790
515
866
584
912
674
962
702
925
556
849
596
810
434
825
581
835
660
981
492
809
544
637
531
931
658
885
351
0
0
0
0
0
0
0
0
0
0
0
0
0
0
0
0
0
0
0
0
0
0
0
0
0
0
0
0
0
0
0
0
0
0
0
0
0
0
0
0
0
0
0
0
0
0
0
0
0
0
0
0
0
0
0
0
0
0
0
0
0
0
0
0
0
0
0
0
0
0
0
0
0
0
0
0
0
0
0
0
0
0
0
0
0
0
0
0
0
0
0
0
0
0
0
0
0
0
0
0
0
0
0
0
0
0
0
0
0
