P2
108 88
4095
0
0
0
0
0
0
0
0
0
0
0
0
0
0
0
0
0
0
0
0
0
0
0
0
0
0
0
0
0
0
0
0
0
0
0
0
0
0
0
0
0
0
0
0
0
0
0
0
0
0
0
0
0
0
0
0
0
0
0
0
0
0
0
0
0
0
0
0
0
0
0
0
0
0
0
0
0
0
0
0
0
0
0
0
0
0
0
0
0
0
0
0
0
0
0
0
0
0
0
0
0
0
0
0
0
0
0
0
0
1009
913
1274
944
1301
950
1273
986
1346
1070
1245
965
1367
1138
1413
1123
1470
1209
1465
1216
1468
1338
1690
1418
1654
1430
1568
1297
1604
1274
1605
1236
1634
1245
1619
1298
1542
1206
1546
1162
1563
1261
1534
1300
1593
1278
1441
1234
1533
1211
1538
1218
1534
1125
1486
1218
1384
1149
1546
1262
1619
1285
1530
1204
1515
1099
1323
997
1309
1029
1306
1073
1315
1140
1494
1296
1487
1048
1323
934
1198
886
1274
915
1259
1022
1288
1090
1346
968
1207
882
1102
830
1113
714
1016
719
1169
799
1115
866
1029
718
813
360
0
0
878
942
1224
845
1217
783
1135
879
1131
908
1125
818
1145
905
1296
1011
1266
1040
1338
1055
1387
1155
1613
1330
1660
1378
1576
1166
1431
1147
1435
1091
1453
1085
1506
1145
1381
1142
1326
1089
1410
1149
1366
1148
1393
1172
1391
1242
1582
1181
1481
1137
1366
1071
1301
1067
1278
1037
1381
1085
1523
1252
1598
1289
1495
1058
1205
914
1243
899
1190
974
1211
1018
1349
1106
1332
1043
1289
939
1200
905
1157
772
1137
926
1077
932
1190
996
1262
886
1123
772
956
698
985
627
1098
846
1109
801
1029
601
695
298
0
0
1180
1184
1604
1150
1490
1103
1462
1134
1525
1259
1470
1163
1541
1229
1564
1325
1690
1404
1725
1422
1741
1509
1983
1765
2133
1855
2018
1637
1835
1649
1946
1524
1913
1549
1967
1565
1810
1542
1785
1537
1825
1482
1786
1544
1922
1706
2007
1814
2165
1774
2020
1652
1974
1501
1869
1520
1686
1503
1893
1570
2085
1840
2251
1844
2141
1570
1757
1439
1759
1403
1769
1469
1818
1551
1834
1593
1858
1587
1934
1570
1826
1458
1751
1405
1768
1453
1634
1498
1825
1605
2020
1490
1682
1372
1594
1256
1576
1214
1652
1365
1722
1332
1688
1237
1398
919
0
0
1573
1578
1934
1625
1885
1494
1854
1532
1814
1537
1738
1474
1825
1549
1818
1653
1887
1601
1866
1643
2005
1755
2122
2061
2199
2052
2171
1892
2080
1743
2043
1653
1989
1659
1995
1815
1997
1656
1962
1651
1986
1672
1942
1672
2034
1801
2161
1981
2332
1942
2065
1572
1814
1582
1814
1659
1842
1499
1847
1671
1997
1795
2082
1801
1965
1550
1780
1399
1652
1405
1646
1469
1731
1530
1622
1424
1805
1538
1832
1689
1862
1525
1685
1296
1585
1278
1503
1341
1721
1492
1928
1520
1812
1291
1531
1193
1430
1093
1576
1142
1498
1167
1523
1192
1256
725
0
0
1378
1354
1701
1335
1709
1282
1826
1430
1651
1379
1637
1394
1707
1307
1678
1399
1714
1438
1700
1458
1828
1467
1891
1785
1973
1717
1922
1754
1949
1646
1898
1525
1931
1717
1850
1469
1818
1538
1814
1488
1834
1503
1834
1541
1949
1743
2212
1885
2292
1741
1875
1458
1722
1464
1747
1478
1778
1325
1682
1498
1843
1566
1884
1565
1881
1450
1654
1323
1651
1231
1585
1348
1621
1279
1518
1293
1680
1399
1828
1615
1794
1346
1498
1163
1497
1177
1457
1192
1590
1306
1752
1370
1613
1224
1443
1091
1251
1026
1358
948
1349
998
1294
1037
1189
613
0
0
1108
1005
1229
1003
1262
943
1413
1061
1341
1124
1298
954
1370
1062
1320
1101
1355
1074
1374
1141
1450
1223
1572
1348
1576
1316
1567
1248
1577
1272
1579
1234
1724
1306
1672
1297
1517
1262
1620
1186
1522
1174
1538
1253
1698
1509
1947
1612
1968
1420
1646
1226
1418
1081
1469
1228
1455
1049
1419
1262
1433
1163
1400
1157
1460
1138
1447
1169
1397
1129
1325
1122
1281
998
1288
966
1369
1232
1403
1292
1597
1122
1163
890
1156
875
1067
979
1269
955
1362
1090
1304
998
1091
809
1062
717
1130
622
1047
714
1057
829
878
371
0
0
1290
1092
1431
1117
1563
1175
1677
1271
1590
1404
1604
1293
1770
1376
1716
1480
1749
1434
1800
1486
1826
1565
1893
1640
1934
1680
1981
1685
1960
1729
2067
1672
2130
1873
2192
1786
2026
1711
2173
1715
2013
1648
1973
1771
2158
1987
2331
1945
2198
1965
2141
1762
2034
1682
1919
1740
2005
1615
1867
1717
1981
1625
1930
1588
1919
1738
2013
1681
2044
1645
1924
1627
1909
1588
1769
1566
1930
1649
1949
1804
2093
1700
1910
1509
1890
1410
1741
1481
1811
1466
1889
1514
1916
1457
1755
1461
1686
1324
1723
1299
1682
1286
1615
1325
1501
973
0
0
1445
1350
1714
1449
1719
1509
1851
1481
1906
1582
1874
1579
1870
1701
2049
1682
2005
1712
1995
1610
1836
1723
2061
1642
2060
1709
2025
1698
2011
1765
2134
1867
2182
1948
2149
1906
2285
2043
2193
1876
2058
1789
2109
1765
2090
1867
2241
1905
2039
1800
2036
1777
2082
1850
2004
1689
1927
1625
1838
1534
1858
1597
1838
1545
1942
1570
1915
1652
2046
1645
1982
1565
1776
1448
1649
1477
1655
1427
1682
1431
1947
1528
1717
1398
1626
1303
1643
1354
1583
1322
1543
1364
1642
1399
1613
1264
1546
1209
1494
1197
1413
1147
1282
1098
1387
933
0
0
1296
1123
1514
1158
1569
1266
1654
1213
1557
1326
1579
1294
1736
1606
1954
1559
1850
1523
1827
1433
1691
1526
1885
1525
1938
1550
1861
1504
1860
1585
1928
1618
1973
1589
1962
1626
2171
1845
2141
1662
1866
1487
1921
1522
1925
1706
1918
1611
1757
1531
1829
1700
2076
1710
1826
1475
1746
1448
1685
1360
1756
1468
1668
1379
1795
1533
1893
1556
2038
1621
1870
1491
1548
1270
1499
1305
1467
1202
1477
1226
1673
1380
1674
1307
1490
1178
1487
1195
1358
1252
1380
1165
1462
1237
1569
1139
1535
1274
1321
1061
1365
997
1157
875
1188
762
0
0
1122
947
1261
933
1252
1051
1346
1037
1369
1061
1265
1040
1327
1225
1513
1229
1550
1260
1546
1189
1481
1341
1684
1330
1683
1390
1593
1208
1513
1306
1582
1402
1673
1395
1573
1403
1813
1653
1792
1477
1627
1262
1698
1403
1710
1428
1621
1306
1562
1403
1636
1458
1710
1473
1665
1274
1579
1293
1464
1157
1496
1201
1451
1162
1485
1277
1654
1489
1859
1490
1742
1245
1335
1045
1296
1109
1284
1013
1287
1002
1403
1117
1480
1145
1337
1014
1255
981
1258
1003
1147
896
1238
1004
1389
1141
1390
1110
1250
933
1174
801
985
634
970
448
0
0
1456
1266
1540
1156
1566
1215
1617
1233
1686
1294
1648
1324
1680
1417
1846
1478
1814
1562
1864
1520
1960
1778
2178
1658
2058
1678
1972
1588
1957
1695
2098
1733
2062
1657
1978
1757
2153
1986
2278
1866
2072
1728
2213
1898
2287
1929
2093
1757
1986
1775
2107
1843
2181
1802
2167
1673
2027
1730
1929
1565
1985
1687
1987
1634
2126
1743
2267
2066
2445
2023
2245
1768
1915
1619
1855
1542
1814
1587
1783
1485
1903
1656
2050
1706
2026
1658
1882
1542
1770
1518
1789
1530
1817
1562
1925
1661
2090
1846
1952
1594
1797
1424
1733
1270
1577
1079
0
0
1711
1604
1952
1508
1755
1468
1771
1390
1709
1435
1779
1494
1813
1645
1877
1524
1878
1638
2069
1806
2005
1924
2217
1858
1973
1733
2038
1781
2062
1890
2157
1804
1993
1722
1978
1746
2063
1833
2089
1802
2086
1941
2286
1990
2232
1882
2074
1733
2041
1661
1929
1701
1968
1780
1972
1738
2002
1659
1914
1562
1825
1557
1849
1541
1924
1649
1997
1888
2228
1827
1971
1661
1878
1473
1749
1421
1751
1357
1586
1346
1633
1395
1845
1483
1934
1563
1706
1405
1609
1308
1576
1343
1562
1237
1780
1466
1913
1643
1794
1465
1672
1366
1568
1235
1166
789
0
0
1653
1510
1833
1451
1663
1320
1601
1249
1587
1245
1637
1367
1644
1461
1765
1447
1754
1557
1875
1610
1972
1813
2088
1695
1904
1607
1905
1638
1917
1636
1957
1598
1827
1562
1867
1573
1863
1641
2000
1686
2034
1964
2322
1945
2167
1771
1941
1538
1909
1453
1786
1530
1834
1599
1945
1626
1973
1618
1818
1469
1722
1459
1734
1427
1777
1542
1891
1623
1883
1518
1847
1498
1917
1561
1713
1317
1576
1203
1497
1258
1526
1299
1573
1339
1797
1473
1682
1321
1563
1221
1556
1221
1325
1226
1612
1399
1853
1565
1762
1381
1618
1374
1482
1072
1125
617
0
0
1434
1318
1658
1229
1446
1013
1237
944
1299
969
1339
1136
1398
1181
1515
1117
1425
1264
1594
1433
1639
1387
1663
1418
1660
1348
1669
1515
1629
1418
1656
1354
1542
1351
1681
1381
1658
1363
1700
1417
1873
1738
2164
1754
1943
1429
1618
1253
1686
1275
1610
1346
1517
1328
1526
1370
1828
1445
1691
1282
1397
1202
1461
1283
1498
1259
1516
1235
1527
1211
1547
1358
1700
1261
1642
1238
1374
1055
1335
1030
1246
1010
1398
984
1412
1284
1415
1226
1335
970
1207
922
1180
982
1349
1110
1581
1280
1466
1195
1452
1096
1315
854
946
432
0
0
1524
1352
1811
1421
1655
1200
1577
1218
1572
1269
1717
1352
1698
1399
1766
1399
1783
1508
1933
1661
1914
1669
1965
1668
2003
1760
2186
1963
2075
1814
2097
1778
2011
1716
2011
1708
2038
1791
2061
1778
2313
2253
2535
2189
2250
1819
2067
1744
2126
1729
2050
1738
2039
1796
2050
1825
2282
2021
2182
1714
2006
1717
2017
1618
2021
1684
2046
1671
2014
1644
2002
1773
2235
1907
2288
1864
2029
1635
1858
1485
1861
1553
1877
1437
1925
1619
1946
1776
2025
1517
1835
1429
1738
1369
1833
1521
1894
1709
1958
1729
2050
1506
1734
1283
1439
942
0
0
1629
1577
1929
1588
1713
1469
1770
1547
1785
1442
1771
1585
1818
1501
1965
1745
1950
1680
1934
1793
2073
1698
2038
1757
2111
1870
2202
2029
2234
1869
2122
1818
1985
1809
2005
1771
2070
1755
2009
1842
2471
2219
2437
2018
2196
1725
2025
1737
1991
1707
1993
1711
1925
1691
1885
1672
1960
1766
2046
1819
1979
1625
1898
1674
1908
1651
1855
1531
1714
1460
1786
1497
1890
1862
2129
1733
1811
1549
1712
1402
1602
1335
1541
1313
1589
1324
1709
1562
1752
1367
1562
1210
1513
1243
1531
1301
1634
1360
1690
1465
1719
1339
1399
1082
1262
765
0
0
1403
1315
1642
1341
1576
1293
1690
1387
1709
1379
1754
1317
1695
1555
1975
1700
1982
1576
1871
1663
1969
1626
1942
1585
1995
1743
2132
1862
2120
1869
2173
1842
2129
1742
1914
1610
2029
1637
1906
1833
2324
2093
2277
1894
2085
1700
1950
1743
2045
1653
1919
1610
1881
1649
1801
1657
1835
1675
1940
1675
2026
1586
1862
1560
1974
1616
1879
1525
1645
1335
1701
1364
1795
1615
1933
1714
1874
1462
1623
1331
1603
1282
1528
1267
1551
1301
1613
1354
1706
1348
1512
1179
1546
1170
1498
1201
1617
1266
1493
1323
1676
1220
1266
981
1218
617
0
0
990
933
1275
974
1237
970
1297
1042
1380
989
1330
1130
1473
1364
1738
1466
1773
1389
1578
1338
1644
1241
1606
1289
1627
1382
1646
1482
1685
1582
1951
1595
1890
1384
1660
1345
1706
1330
1610
1581
1966
1656
1819
1402
1654
1477
1751
1509
1773
1359
1586
1259
1527
1295
1573
1291
1520
1391
1616
1429
1675
1406
1642
1384
1701
1424
1626
1218
1425
1188
1434
1124
1464
1291
1589
1419
1614
1293
1413
1041
1300
1037
1225
1006
1252
986
1318
1050
1384
1122
1338
980
1285
923
1233
910
1173
923
1218
968
1306
1102
1026
746
931
385
0
0
1239
1140
1426
1197
1482
1133
1559
1286
1656
1253
1646
1462
1950
1778
2201
1902
2106
1659
1821
1575
1995
1556
1974
1689
2029
1687
1966
1808
2093
1844
2373
1965
2254
1781
2013
1765
2056
1659
2111
1899
2357
2018
2251
1795
2116
1797
2267
2031
2292
1828
2124
1809
2155
1814
2082
1765
2003
1741
2037
1846
2200
1911
2203
1962
2343
1993
2189
1726
1957
1595
1938
1674
1971
1686
2085
1855
2178
1827
2022
1588
1918
1534
1870
1573
1791
1591
1860
1482
1899
1618
2061
1650
1881
1549
1719
1407
1674
1464
1736
1532
1899
1610
1741
1437
1573
941
0
0
1373
1355
1717
1417
1722
1371
1786
1499
1805
1476
1810
1620
2272
1992
2462
2116
2295
1841
2046
1700
1902
1725
2096
1738
2027
1762
2058
1752
2139
1933
2242
1886
2238
1876
2097
1742
2044
1828
2070
1930
2221
1866
2029
1746
2004
1786
2122
1844
2202
1876
2071
1865
1980
1708
1998
1673
1951
1716
1998
1682
2005
1812
2106
1978
2235
1910
2048
1546
1840
1578
1746
1521
1842
1521
1761
1586
1856
1618
1799
1439
1730
1365
1602
1400
1616
1261
1546
1328
1676
1452
1705
1515
1690
1383
1598
1149
1508
1273
1468
1313
1538
1259
1441
1157
1319
867
0
0
1322
1287
1583
1290
1621
1262
1702
1403
1694
1300
1684
1448
2076
1878
2290
1874
2053
1614
1764
1534
1789
1612
1943
1625
1901
1634
1923
1636
1901
1680
1990
1673
1950
1691
2001
1682
2034
1675
2083
1879
2140
1668
1937
1568
1839
1602
1897
1686
2028
1748
2002
1718
1918
1559
1885
1485
1901
1532
1909
1509
1818
1717
2034
1914
2245
1883
2008
1464
1796
1412
1640
1453
1749
1360
1702
1381
1721
1470
1738
1398
1700
1239
1485
1243
1464
1146
1464
1198
1485
1245
1620
1349
1591
1261
1466
1043
1413
1128
1334
1066
1294
1082
1342
1113
1254
715
0
0
905
846
1237
1001
1222
869
1301
969
1309
965
1370
1107
1771
1513
1797
1538
1611
1235
1535
1248
1520
1329
1634
1313
1594
1307
1627
1307
1613
1317
1608
1260
1674
1290
1608
1437
1723
1553
1850
1531
1732
1333
1586
1317
1521
1302
1637
1391
1662
1385
1749
1528
1611
1313
1538
1269
1570
1252
1524
1196
1613
1408
1738
1623
2002
1515
1637
1218
1448
1161
1430
1253
1371
1108
1433
1058
1378
1149
1450
1132
1501
1000
1259
998
1194
914
1253
935
1165
900
1330
1082
1405
1031
1182
818
1167
818
1035
789
1014
761
1120
866
964
453
0
0
1190
1166
1570
1266
1626
1241
1578
1288
1674
1315
1674
1425
2021
1767
2070
1623
1878
1604
1837
1521
2001
1762
2186
1798
2018
1627
2050
1643
1960
1671
1958
1629
2036
1719
2130
1885
2234
2045
2381
2030
2295
1811
2059
1786
2053
1813
2109
1713
2133
1834
2285
1957
2261
1807
2070
1810
2084
1738
2085
1700
2053
1899
2269
2072
2406
2029
2258
1801
2090
1751
1962
1636
2034
1644
1964
1589
1893
1626
1971
1719
1986
1569
1877
1558
1931
1487
1765
1493
1858
1538
1814
1543
1853
1633
1810
1497
1736
1332
1714
1323
1669
1211
1653
1384
1681
1137
0
0
1461
1472
1847
1538
1867
1535
1864
1482
1841
1484
1826
1633
2085
1897
2092
1678
2050
1723
2077
1929
2315
2039
2297
1876
2085
1851
2117
1959
2135
1821
2057
1822
2097
1862
2210
2021
2470
2295
2532
2113
2248
1841
2116
1805
2091
1749
2118
1770
2180
1866
2163
1851
2109
1864
2087
1759
1933
1757
1923
1632
1975
1736
2194
1963
2105
1804
2033
1749
2058
1603
1834
1576
1817
1538
1742
1454
1793
1498
1728
1579
1857
1579
1669
1444
1657
1378
1616
1371
1653
1250
1565
1302
1659
1466
1594
1398
1570
1250
1433
1168
1378
1117
1430
1233
1460
883
0
0
1370
1338
1702
1337
1908
1338
1682
1274
1558
1193
1714
1316
1782
1615
1908
1487
1893
1546
1991
1797
2173
1850
2211
1687
2026
1789
2186
1883
2069
1638
1898
1621
1949
1738
2021
1886
2418
2114
2470
2040
2089
1684
1896
1584
1905
1594
1947
1530
2029
1748
2011
1677
1996
1661
1923
1613
1865
1689
1848
1513
1809
1546
1908
1654
1873
1614
1869
1658
2011
1578
1829
1485
1675
1384
1717
1301
1577
1361
1653
1361
1647
1460
1780
1485
1658
1327
1426
1227
1467
1059
1434
1211
1430
1227
1495
1290
1669
1247
1357
1051
1278
945
1165
1049
1261
688
0
0
1101
1080
1579
1302
1611
1246
1410
1122
1416
1010
1419
1066
1427
1238
1545
1164
1514
1243
1638
1493
1861
1549
1854
1493
1843
1739
1908
1712
1906
1485
1719
1442
1717
1523
1786
1742
2091
1950
2091
1618
1819
1421
1626
1322
1647
1349
1629
1325
1709
1421
1642
1357
1668
1458
1751
1439
1787
1521
1626
1306
1531
1295
1526
1301
1669
1317
1576
1382
1718
1385
1653
1266
1434
1185
1422
1101
1418
1149
1273
1110
1421
1227
1530
1366
1454
1177
1245
1067
1202
886
1141
1026
1236
982
1229
1162
1509
1051
1228
874
999
779
992
742
1029
410
0
0
1348
1352
1866
1594
2031
1521
1776
1451
1716
1322
1818
1376
1761
1566
1938
1451
1885
1584
2010
1768
2085
1785
2123
1813
2232
2173
2411
2185
2206
1819
2092
1830
2125
1954
2322
2091
2548
2173
2290
1988
2219
1738
2123
1917
2153
1869
2193
1757
2254
1898
2072
1826
2181
1949
2274
2010
2482
2136
2189
1865
2085
1701
2042
1878
2101
1830
2102
1785
2192
1905
2258
1832
2106
1689
2086
1659
1963
1681
1941
1671
2027
1739
2134
1925
2197
1848
1865
1646
1949
1490
1805
1545
1806
1538
1741
1624
2047
1620
1889
1481
1695
1352
1634
1320
1622
952
0
0
1487
1562
1987
1682
1991
1754
1898
1591
1847
1588
1894
1602
1997
1694
1932
1680
1854
1626
1917
1714
1994
1771
2061
1869
2320
2269
2529
2116
2289
1908
2198
1797
2187
1846
2315
2058
2329
2012
2158
1869
2111
1731
2121
1802
2101
1961
2149
1803
2097
1796
2057
1812
1909
1807
2134
1998
2342
2043
1994
1762
1925
1613
1844
1643
1909
1659
1950
1645
1850
1723
2029
1770
1909
1610
1895
1512
1657
1375
1690
1437
1693
1477
1842
1562
1873
1574
1801
1403
1646
1362
1505
1264
1499
1213
1582
1330
1622
1400
1773
1342
1461
1111
1326
1042
1198
796
0
0
1290
1285
1746
1453
1793
1497
1793
1480
1828
1405
1778
1463
1934
1541
1808
1491
1794
1570
1794
1547
1827
1498
1938
1714
2128
2042
2325
1874
2085
1709
1985
1701
1978
1726
2082
1789
2149
1658
1999
1686
1994
1650
2042
1815
2154
2045
2103
1766
2041
1687
1930
1708
1930
1655
1974
1879
2205
1892
1962
1626
1865
1625
1749
1395
1835
1524
1826
1445
1723
1549
1947
1746
1902
1620
1811
1426
1611
1338
1527
1320
1651
1333
1590
1367
1673
1476
1698
1289
1515
1282
1453
1178
1429
1108
1465
1115
1483
1092
1549
1188
1410
1103
1269
937
1157
637
0
0
1092
1037
1389
1074
1373
1156
1390
1035
1413
1183
1480
1370
1818
1360
1549
1239
1477
1170
1462
1301
1541
1254
1732
1530
1878
1749
1948
1570
1791
1431
1768
1453
1786
1454
1810
1530
1819
1385
1723
1451
1701
1450
1855
1706
2057
1808
1964
1547
1758
1386
1601
1402
1613
1417
1741
1613
1842
1487
1785
1428
1606
1361
1516
1298
1676
1266
1581
1248
1417
1319
1647
1397
1719
1538
1695
1299
1384
1082
1338
1090
1321
1028
1398
1115
1472
1316
1612
1104
1421
1045
1248
924
1137
868
1131
922
1195
826
1290
982
1256
977
1145
681
913
452
0
0
1274
1158
1535
1198
1525
1317
1656
1348
1650
1457
1881
1706
2100
1698
1875
1584
1885
1513
1892
1538
1898
1634
1972
1845
2170
1909
2203
1812
2090
1805
2274
1938
2176
1877
2269
1928
2270
1854
2136
1841
2230
1848
2295
2106
2522
2297
2426
1987
2181
1906
2093
1832
2129
1801
2166
1904
2219
1890
2053
1965
2114
1906
2123
1841
2217
1776
2080
1691
1938
1741
2062
1877
2230
2045
2317
1878
1969
1621
1898
1582
1882
1572
1917
1646
1938
1740
2148
1807
2073
1643
1794
1445
1764
1499
1747
1469
1682
1405
1741
1478
1803
1606
1791
1365
1582
1077
0
0
1501
1333
1693
1432
1704
1416
1787
1526
1771
1733
2062
1862
2269
1882
2162
1742
1911
1598
1924
1766
1984
1749
2032
1839
2130
1882
2120
1817
2123
1839
2077
1970
2360
1930
2413
2129
2330
1824
2053
1723
2144
1925
2129
1889
2406
2105
2372
1940
2076
1755
1985
1729
1930
1649
1968
1682
2031
1655
1942
1835
2036
1854
2071
1907
2146
1731
1894
1529
1858
1453
1767
1517
2011
1754
2075
1659
1845
1421
1547
1323
1605
1343
1642
1385
1590
1453
1812
1632
1815
1466
1570
1266
1533
1244
1437
1174
1434
1169
1476
1229
1557
1251
1625
1286
1442
856
0
0
1474
1258
1691
1290
1605
1341
1670
1448
1714
1549
1951
1694
2068
1789
2013
1650
1980
1586
1881
1659
1926
1618
1926
1667
2038
1736
1984
1699
1973
1772
2050
1851
2361
2059
2430
2186
2307
1837
2062
1766
2029
1757
2063
1734
2140
1886
2185
1775
2003
1733
1994
1659
1899
1607
1899
1610
2020
1632
1877
1723
2013
1911
2175
1989
2258
1755
1885
1489
1826
1477
1717
1423
1845
1565
1865
1595
1796
1493
1730
1323
1620
1386
1572
1189
1563
1334
1698
1522
1729
1437
1684
1305
1443
1179
1480
1129
1424
1111
1445
1105
1456
1154
1451
1323
1419
938
0
0
1131
1110
1297
1045
1391
1035
1348
1115
1362
1114
1477
1226
1594
1277
1606
1438
1629
1302
1617
1306
1525
1310
1657
1400
1652
1390
1645
1440
1672
1389
1720
1506
1995
1874
2194
1872
2030
1546
1737
1426
1637
1349
1754
1361
1627
1399
1781
1452
1746
1398
1628
1328
1649
1388
1559
1274
1610
1322
1634
1419
1803
1687
2040
1894
2006
1514
1513
1194
1481
1078
1397
1110
1502
1133
1456
1306
1650
1266
1483
1190
1466
1115
1262
1031
1265
1046
1335
1207
1353
1142
1423
1133
1325
989
1196
917
1145
842
1136
777
1040
886
1120
1014
1195
774
0
0
1524
1307
1717
1288
1658
1289
1637
1349
1671
1373
1729
1349
1814
1451
1893
1597
1944
1626
2048
1770
2000
1668
2119
1805
2067
1797
2056
1722
2103
1793
2070
1940
2378
2242
2600
2318
2376
1901
2131
1782
2100
1842
2054
1778
2125
1850
2202
1854
2171
1803
2176
1821
2103
1741
2135
1805
2154
1819
2123
1897
2347
2262
2693
2326
2601
1978
2103
1715
2034
1636
1910
1625
2027
1652
2058
1832
2197
1924
2229
1800
2059
1629
1865
1578
1826
1548
1915
1586
1836
1682
2139
1798
2039
1577
1783
1444
1749
1399
1761
1349
1682
1341
1689
1472
1807
1347
0
0
1797
1736
1998
1623
1908
1493
1809
1466
1813
1594
1821
1577
1881
1597
2002
1661
2083
1717
2219
1853
2220
1962
2231
2036
2206
1896
2135
1794
2050
1868
2065
1963
2346
2190
2644
2245
2401
1974
2122
1861
2090
1753
2035
1783
2103
1780
2083
1831
2010
1837
1997
1741
2049
1687
2058
1685
2014
1656
1951
1869
2308
2074
2457
2073
2152
1800
1888
1568
1781
1544
1757
1491
1635
1446
1876
1636
2052
1763
1969
1776
1947
1506
1637
1368
1554
1218
1534
1346
1594
1530
1854
1672
1793
1436
1582
1277
1453
1161
1512
1117
1424
1151
1380
1218
1504
1035
0
0
1764
1642
2019
1694
1833
1353
1755
1288
1733
1442
1684
1439
1720
1514
1835
1461
1971
1642
1980
1774
2194
1971
2373
2133
2314
1858
2034
1721
1941
1666
2033
1883
2234
2145
2435
2024
2258
1814
2019
1717
2037
1684
2046
1684
2038
1691
1906
1653
1973
1778
2068
1775
2068
1715
2041
1622
1844
1615
1891
1663
2109
1883
2249
1890
2036
1677
1800
1585
1768
1442
1638
1461
1588
1352
1743
1482
1849
1563
1834
1626
1901
1399
1635
1354
1480
1241
1521
1244
1531
1233
1636
1513
1738
1378
1534
1188
1397
1160
1397
1034
1352
1050
1231
1132
1342
882
0
0
1404
1402
1771
1476
1572
1158
1412
1045
1424
1161
1299
1085
1373
1106
1482
1096
1564
1243
1610
1479
1817
1751
2107
1918
2060
1627
1781
1356
1670
1473
1670
1502
1906
1750
2095
1669
1778
1454
1768
1350
1742
1365
1733
1312
1629
1315
1552
1342
1643
1508
1883
1654
1833
1461
1698
1302
1495
1258
1617
1354
1809
1578
1842
1419
1650
1405
1641
1363
1411
1066
1458
1194
1408
1137
1393
1099
1436
1234
1521
1360
1576
1174
1339
1090
1279
905
1209
1061
1179
1039
1254
1061
1469
1226
1242
917
1252
829
1174
846
1109
820
981
777
973
474
0
0
1625
1567
1969
1687
1942
1506
1776
1437
1810
1420
1730
1416
1739
1456
1897
1531
1942
1544
1962
1687
2163
2077
2572
2384
2587
2062
2286
1750
2056
1881
2107
1808
2229
2031
2349
1896
2155
1867
2173
1874
2183
1898
2242
1802
2153
1776
2165
1830
2237
1986
2485
2082
2315
1898
2093
1858
2122
1736
2133
1913
2386
1999
2258
1849
2121
1908
2257
1924
2052
1762
1909
1684
1885
1679
1970
1678
2006
1642
2022
1811
2100
1751
2068
1682
1853
1424
1806
1562
1829
1561
1818
1509
1933
1621
1917
1561
1757
1467
1806
1307
1673
1384
1578
1307
1559
1025
0
0
1725
1683
2182
1762
2120
1799
2042
1774
1960
1748
1975
1659
1925
1714
1957
1706
1961
1806
2005
1834
2255
2289
2729
2414
2702
2180
2322
1896
2125
1890
2163
1885
2102
1899
2202
1958
2205
1838
2202
1930
2357
2022
2246
1956
2129
1890
2111
1875
2123
1946
2311
2031
2167
1794
1992
1739
2021
1646
2002
1786
2013
1797
1956
1719
1988
1776
2173
1855
2002
1743
1850
1613
1853
1555
1785
1510
1732
1407
1746
1428
1833
1508
1869
1551
1682
1365
1588
1370
1678
1333
1574
1402
1774
1418
1749
1497
1904
1426
1541
1247
1417
1194
1358
1062
1302
795
0
0
1512
1365
1871
1407
1829
1487
1938
1653
1978
1682
1907
1417
1785
1531
1780
1403
1858
1579
1892
1764
2273
2137
2578
2146
2514
2054
2232
1786
1990
1657
2002
1728
1879
1730
2033
1707
2001
1682
2053
1846
2217
2002
2227
1789
1970
1675
1961
1619
1989
1683
1987
1682
1862
1587
1883
1648
1935
1548
1947
1626
1850
1586
1827
1493
1832
1597
2000
1675
1941
1577
1729
1455
1809
1390
1702
1324
1640
1285
1580
1237
1634
1383
1769
1484
1655
1294
1586
1323
1684
1159
1521
1303
1501
1253
1584
1427
1770
1398
1478
1135
1297
1054
1257
904
1141
525
0
0
1046
945
1436
1081
1405
1142
1509
1221
1570
1325
1547
1138
1448
1256
1599
1194
1522
1365
1625
1561
1949
1913
2166
1697
1993
1659
1846
1564
1819
1481
1701
1480
1633
1347
1698
1416
1734
1433
1780
1625
2021
1796
1911
1536
1725
1499
1698
1437
1662
1424
1605
1370
1566
1357
1613
1437
1652
1305
1588
1323
1512
1314
1547
1259
1501
1234
1565
1270
1642
1410
1623
1353
1661
1128
1365
1078
1390
1061
1332
1058
1373
1086
1551
1277
1514
1231
1547
1166
1366
972
1234
1029
1291
1116
1338
1309
1557
1132
1319
915
1141
814
1010
626
868
395
0
0
1295
1193
1608
1206
1713
1384
1661
1467
1814
1539
1908
1501
1872
1588
1958
1677
2029
1777
2113
2090
2491
2233
2452
1941
2237
1901
2314
2074
2371
1912
2229
1909
2121
1788
2196
1817
2184
1878
2276
2035
2518
2110
2453
2080
2333
2155
2358
2092
2280
1838
2149
1821
2103
1858
2197
2031
2298
1935
2135
1846
2043
1817
2105
1781
2051
1783
1988
1736
2223
2052
2314
2017
2226
1733
2026
1593
2034
1589
1896
1570
1962
1632
2062
1905
2283
1984
2210
1810
1924
1596
1819
1519
1965
1739
1987
1919
2288
1779
1911
1458
1757
1418
1689
1257
1578
929
0
0
1466
1426
1847
1469
1820
1561
1921
1640
1892
1634
1893
1537
2010
1771
2171
1885
2318
2054
2450
2211
2537
2198
2426
1884
2133
1924
2233
2058
2340
2025
2218
1861
2242
1834
2079
1875
2133
1892
2133
1943
2317
2082
2341
2142
2434
2257
2369
1999
2116
1712
2086
1776
2004
1768
2154
2005
2149
1870
1998
1762
1915
1739
1905
1634
1913
1622
1791
1583
2000
1813
2073
1758
1986
1487
1765
1408
1782
1405
1627
1411
1684
1475
1874
1731
2074
1803
1994
1541
1690
1231
1576
1299
1638
1466
1710
1610
1859
1577
1821
1371
1561
1285
1361
1122
1309
794
0
0
1398
1264
1643
1385
1687
1401
1652
1456
1693
1364
1681
1437
1844
1549
2043
1803
2349
2054
2435
2094
2388
1858
2120
1746
1974
1717
2008
1813
2107
1897
2050
1712
2018
1687
2089
1818
2016
1650
2021
1835
2074
1889
2266
2056
2466
2197
2326
1965
2066
1645
1942
1645
1883
1626
1978
1778
1964
1735
1938
1611
1717
1613
1817
1606
1811
1446
1724
1490
1846
1564
1926
1657
1846
1427
1743
1307
1715
1335
1467
1420
1634
1387
1747
1564
1998
1645
1898
1386
1557
1262
1381
1162
1474
1293
1584
1313
1615
1349
1794
1307
1671
1260
1382
1035
1248
680
0
0
1133
1002
1413
1042
1329
1061
1426
1120
1342
1165
1425
1111
1490
1269
1641
1431
2032
1962
2244
1798
1919
1516
1723
1360
1549
1382
1740
1397
1749
1461
1797
1461
1800
1543
1860
1651
1809
1439
1627
1485
1818
1734
2136
1979
2300
1946
2074
1547
1709
1312
1747
1384
1613
1307
1637
1476
1694
1446
1614
1398
1604
1381
1682
1322
1538
1193
1450
1194
1488
1293
1521
1291
1572
1222
1522
1075
1373
1038
1226
1128
1448
1120
1569
1334
1562
1312
1458
1098
1357
893
1225
914
1215
913
1200
1002
1179
1165
1514
1201
1482
1154
1258
837
1027
445
0
0
1445
1419
1723
1399
1706
1378
1684
1323
1704
1353
1740
1435
1795
1453
1935
1781
2387
2187
2547
2053
2187
1765
2053
1819
1988
1723
2098
1801
2129
1924
2138
1849
2269
2028
2378
2113
2317
1773
2170
1877
2277
2115
2501
2382
2746
2320
2410
1967
2167
1803
2217
1870
2158
1813
2130
1867
2134
1861
2269
2021
2298
2062
2221
1841
2162
1740
2025
1728
1959
1718
2013
1751
2220
1838
2209
1805
1986
1617
1828
1606
1930
1619
2005
1722
2107
1746
2059
1743
1925
1510
1793
1499
1820
1426
1712
1499
1829
1519
2109
1827
2171
1802
1793
1427
1609
1110
0
0
1581
1555
2041
1749
1945
1514
1754
1587
1770
1556
1805
1554
1865
1640
2018
1997
2372
2330
2556
2245
2294
1885
2077
1723
2057
1830
2068
1814
2074
1802
2221
1933
2289
2166
2469
2101
2198
1903
2269
1855
2138
1876
2349
2217
2374
2010
2148
1798
1973
1751
2021
1780
2030
1659
2042
1755
1979
1781
2077
1976
2286
1997
2118
1722
1962
1564
1792
1576
1834
1529
1793
1573
1871
1700
2029
1672
1817
1442
1653
1409
1635
1332
1686
1306
1704
1437
1682
1500
1721
1335
1554
1285
1560
1242
1512
1314
1585
1320
1604
1550
1883
1526
1533
1144
1302
827
0
0
1484
1401
1927
1573
1861
1540
1744
1397
1731
1390
1712
1478
1785
1608
1879
1961
2289
2237
2474
2157
2282
1825
2029
1610
1997
1685
2018
1714
2070
1804
2155
1865
2360
2125
2421
1932
2114
1794
2068
1793
2005
1763
2139
1925
2177
1776
2053
1746
2002
1672
1962
1688
1943
1622
1945
1769
1930
1728
2070
1917
2262
1926
2024
1577
1845
1561
1713
1433
1778
1498
1782
1474
1803
1633
1883
1618
1746
1357
1606
1325
1547
1275
1529
1242
1662
1343
1672
1451
1738
1336
1521
1188
1469
1222
1469
1195
1435
1277
1522
1389
1716
1375
1417
1077
1259
714
0
0
1086
1102
1461
1258
1605
1282
1497
1236
1508
1241
1439
1094
1478
1192
1653
1621
2065
1851
2122
1818
2058
1602
1789
1356
1627
1352
1661
1434
1748
1462
1870
1608
1979
1770
2011
1686
1811
1472
1776
1425
1672
1402
1698
1502
1762
1349
1770
1457
1677
1467
1675
1521
1657
1293
1717
1544
1730
1514
1862
1825
2109
1736
1782
1317
1662
1229
1428
1243
1483
1143
1512
1189
1532
1290
1560
1297
1579
1054
1441
1081
1321
1061
1277
976
1358
1094
1373
1122
1543
1209
1368
981
1255
922
1128
996
1226
990
1238
998
1298
1013
1259
937
1090
452
0
0
1256
1188
1715
1413
1812
1517
1828
1562
1754
1469
1755
1364
1777
1462
1910
1853
2393
2157
2373
2116
2327
1956
2090
1710
2042
1788
2092
1793
2155
1747
2301
2034
2359
2039
2286
1928
2155
1829
2255
1861
2090
1827
2173
1926
2133
1813
2174
1825
2228
1890
2239
1956
2225
1845
2133
1946
2226
2022
2327
2204
2419
2078
2206
1860
2153
1774
2038
1659
2041
1625
2086
1794
1938
1676
2026
1703
2028
1573
1934
1571
1977
1578
1739
1557
1899
1608
1938
1666
2044
1757
2090
1617
1793
1469
1691
1554
1832
1492
1768
1449
1778
1636
1833
1453
1733
1074
0
0
1494
1453
1769
1540
1910
1736
2092
1800
2001
1706
1911
1578
1918
1721
2054
1902
2389
2280
2463
2150
2298
2022
2196
1835
2162
1879
2064
1785
2130
1840
2133
1932
2267
1909
2226
1825
2093
1828
2128
1882
2140
1834
2075
1844
2002
1825
2045
1762
2098
1872
2229
1925
2258
1878
2106
1762
2043
1773
2203
1878
2150
1745
1977
1849
2041
1693
1899
1556
1802
1467
1781
1466
1785
1460
1765
1565
1845
1606
1640
1458
1629
1421
1597
1314
1625
1403
1627
1390
1738
1538
1800
1498
1635
1221
1514
1204
1502
1191
1438
1242
1517
1387
1581
1402
1546
858
0
0
1482
1294
1641
1394
1683
1557
1967
1669
2002
1588
1890
1438
1852
1595
2010
1797
2242
2022
2210
1826
2092
1724
2059
1751
2187
1946
2121
1885
2146
1889
2098
1810
2074
1749
2090
1709
2036
1754
2071
1814
2171
1784
1974
1749
1969
1706
1970
1737
2118
1922
2338
1983
2314
1930
2030
1741
1937
1627
2026
1654
1956
1554
1915
1753
2083
1707
1798
1491
1733
1442
1822
1442
1720
1444
1735
1445
1714
1519
1677
1413
1672
1317
1573
1274
1577
1291
1522
1238
1621
1469
1807
1570
1623
1255
1462
1098
1513
1106
1396
1189
1540
1197
1490
1297
1448
758
0
0
1046
989
1342
1089
1418
1223
1645
1325
1624
1356
1526
1147
1525
1235
1626
1451
1814
1494
1749
1476
1642
1434
1774
1454
1922
1729
2037
1672
1924
1626
1750
1443
1755
1410
1805
1446
1659
1554
1902
1586
1835
1469
1682
1397
1644
1423
1637
1395
1874
1687
2079
1828
2029
1578
1749
1370
1629
1319
1615
1277
1623
1307
1526
1444
1783
1565
1666
1277
1454
1076
1416
1113
1409
1115
1482
1154
1505
1336
1572
1273
1463
1128
1425
1015
1293
977
1318
1058
1303
1088
1541
1352
1403
1042
1252
885
1251
869
1147
900
1149
919
1229
1092
1194
596
0
0
1401
1190
1581
1182
1654
1410
1813
1445
1867
1576
1866
1417
1826
1596
2040
1785
2112
1824
2068
1730
2026
1697
2130
1875
2378
2148
2468
2193
2349
1946
2134
1819
2151
1811
2178
1898
2177
1954
2323
2022
2312
1873
2149
1821
2134
1861
2140
1940
2354
2154
2617
2219
2474
1978
2126
1786
2161
1768
2028
1682
1998
1731
2010
1830
2242
1972
2126
1681
2013
1619
1971
1554
2001
1692
1924
1629
2081
1917
2246
1885
2120
1666
1915
1633
1826
1562
1853
1506
1924
1609
2074
1833
2023
1556
1825
1427
1781
1430
1689
1419
1754
1438
1653
1462
1748
1169
0
0
1550
1420
1821
1614
1889
1560
1885
1699
1936
1645
2031
1626
1925
1776
2313
2073
2276
1931
2153
1781
2122
1853
2205
2045
2507
2373
2573
2290
2285
1946
2260
1938
2179
1917
2149
1894
2186
2058
2503
2230
2402
1971
2152
1837
2089
1803
2095
1890
2362
2113
2366
2134
2270
1909
2082
1822
2021
1733
2002
1663
1859
1638
1888
1668
2058
1755
1934
1635
1866
1550
1841
1524
1730
1521
1764
1520
1842
1742
1999
1730
1970
1549
1677
1494
1598
1309
1612
1434
1620
1470
1732
1638
1721
1565
1614
1269
1594
1292
1541
1274
1501
1221
1461
1167
1469
1096
0
0
1434
1366
1578
1463
1749
1419
1783
1480
1736
1437
1765
1499
1890
1764
2180
1954
2138
1723
1979
1683
1899
1684
2134
1921
2351
2181
2336
1984
2138
1802
2082
1689
2043
1689
2011
1738
2082
1869
2395
2154
2287
1914
2122
1706
1970
1614
1939
1658
2159
1842
2054
1797
2062
1677
1941
1701
1893
1627
1930
1594
1870
1553
1776
1456
1861
1615
1759
1572
1798
1469
1670
1461
1690
1371
1657
1357
1614
1492
1838
1450
1799
1369
1542
1346
1533
1198
1485
1307
1470
1249
1543
1409
1577
1477
1589
1210
1481
1173
1329
1154
1419
1106
1322
981
1290
917
0
0
1130
1056
1358
1078
1402
1025
1487
1202
1392
1131
1421
1181
1563
1501
1966
1760
1853
1392
1670
1333
1499
1339
1755
1597
1993
1766
1900
1550
1808
1622
1789
1498
1680
1472
1749
1445
1749
1559
1910
1710
1958
1708
1802
1461
1721
1378
1733
1400
1783
1454
1767
1459
1734
1348
1710
1538
1737
1521
1755
1403
1676
1330
1509
1242
1593
1225
1514
1309
1451
1193
1491
1154
1341
1085
1285
1099
1413
1141
1413
1137
1473
1197
1306
1046
1273
920
1202
1113
1226
996
1208
1128
1336
1199
1271
1021
1303
946
1145
899
1144
810
969
755
873
580
0
0
1466
1318
1659
1397
1722
1403
1785
1461
1755
1451
1834
1475
1902
1801
2299
2004
2218
1810
1998
1686
1966
1670
2110
1932
2290
2072
2167
1874
2228
2018
2344
1954
2153
1901
2182
1893
2091
1845
2304
1926
2377
1981
2277
1925
2209
1882
2311
1877
2230
1938
2118
1819
2165
1888
2234
2043
2377
2116
2402
2059
2245
1884
2148
1705
2092
1722
2062
1848
2034
1769
2049
1685
1853
1597
1925
1715
1904
1662
1917
1636
2059
1764
1962
1672
1932
1539
1779
1597
1884
1551
1845
1667
1911
1704
2027
1599
1910
1529
1684
1421
1682
1365
1721
1271
1541
1124
0
0
1725
1659
2005
1597
1765
1590
1906
1722
2006
1685
1962
1684
2090
1894
2237
1979
2235
1924
2144
1874
2070
1891
2234
1908
2233
1978
2276
1970
2236
2131
2394
2156
2246
1947
2184
1909
2129
1897
2181
1898
2193
1996
2218
2018
2372
2013
2255
1901
2056
1758
1985
1786
1954
1699
2000
2021
2309
2062
2425
2111
2231
1861
1902
1666
1948
1605
1908
1627
2010
1684
1860
1515
1690
1483
1718
1455
1704
1525
1638
1477
1802
1627
1847
1522
1699
1380
1617
1429
1643
1301
1661
1410
1701
1475
1757
1477
1690
1372
1514
1155
1442
1126
1456
1099
1349
933
0
0
1603
1431
1774
1482
1704
1461
1858
1449
1860
1444
1756
1494
1922
1652
2025
1688
1924
1585
1949
1637
1913
1754
1948
1672
2071
1770
2034
1778
2025
2070
2362
2060
2245
1830
2103
1850
2017
1741
2021
1687
2070
1815
2101
1985
2365
2089
2213
1801
1957
1601
1850
1571
1826
1588
1979
1911
2250
2038
2426
2029
2200
1800
1899
1524
1900
1538
1753
1460
1798
1586
1813
1517
1643
1309
1598
1309
1610
1392
1570
1274
1606
1476
1766
1545
1680
1325
1548
1290
1546
1172
1539
1285
1535
1282
1490
1409
1623
1365
1502
1046
1312
968
1367
1025
1205
762
0
0
1187
1131
1480
1174
1460
1348
1637
1387
1501
1244
1520
1211
1562
1354
1609
1393
1579
1338
1706
1442
1634
1437
1699
1374
1746
1389
1738
1506
1773
1652
1978
1828
2058
1739
1911
1714
1884
1610
1761
1450
1827
1620
1933
1823
2222
1869
2005
1527
1734
1389
1593
1373
1572
1313
1737
1685
2164
1879
2199
1865
1859
1485
1531
1321
1590
1178
1433
1216
1514
1277
1539
1285
1485
1162
1402
1136
1270
1097
1330
1085
1345
1222
1485
1341
1577
1114
1290
1110
1269
982
1373
1053
1257
981
1226
1144
1401
1072
1204
917
1051
726
1099
761
1060
588
0
0
1481
1252
1812
1425
1673
1492
1857
1588
1900
1490
1755
1495
1913
1551
1878
1620
1945
1704
1995
1803
2101
1773
2102
1743
2084
1772
2082
1846
2104
2007
2404
2104
2543
2194
2533
2254
2502
2074
2258
1943
2212
2039
2551
2391
2723
2306
2371
1958
2177
1757
2070
1783
2125
1785
2270
2231
2754
2400
2757
2277
2314
1880
2052
1861
2114
1733
2050
1674
1981
1800
2117
1845
2128
1698
1930
1614
1915
1681
1910
1665
1957
1808
2181
1915
2202
1789
2004
1683
1904
1613
1986
1577
1908
1509
1840
1670
1989
1659
1786
1474
1718
1410
1742
1354
1606
1072
0
0
1570
1467
1946
1623
1938
1710
2029
1787
1984
1668
1988
1689
2025
1707
2032
1789
2081
1744
2076
1841
2065
1907
2116
1860
2196
1834
2166
1820
2151
1951
2247
2066
2318
2245
2608
2297
2546
2153
2260
1817
2134
2082
2474
2194
2539
2093
2219
1787
2063
1783
2069
1746
2098
1759
2234
2122
2537
2249
2404
2017
2135
1695
1925
1645
1938
1585
1812
1613
1878
1654
1920
1657
1909
1645
1765
1420
1701
1372
1698
1477
1728
1510
1859
1646
1789
1582
1677
1429
1636
1346
1643
1372
1562
1365
1558
1419
1715
1196
1615
1165
1503
1190
1428
1015
1352
878
0
0
1333
1293
1748
1461
1750
1518
1846
1556
1835
1589
1870
1490
1914
1646
1906
1669
1914
1556
1960
1547
1938
1742
1997
1691
2037
1713
2007
1690
2023
1750
2089
1890
2075
2000
2552
2162
2418
1954
2107
1725
1999
1753
2309
1993
2298
1826
2060
1703
1924
1590
1960
1616
2001
1658
2195
2004
2331
1909
2090
1840
1869
1566
1786
1466
1774
1374
1744
1485
1769
1539
1781
1514
1931
1499
1659
1330
1614
1326
1562
1353
1612
1349
1701
1395
1685
1514
1678
1250
1581
1254
1551
1199
1455
1115
1371
1171
1485
1085
1446
1097
1371
1097
1315
917
1205
699
0
0
1067
1034
1424
1101
1445
1191
1426
1242
1524
1226
1590
1248
1684
1362
1593
1254
1677
1307
1597
1318
1610
1429
1742
1509
1888
1425
1794
1450
1706
1452
1737
1498
1831
1626
2226
1821
2086
1645
1846
1434
1762
1469
1929
1540
1790
1465
1715
1341
1626
1423
1725
1380
1776
1524
1965
1777
1960
1493
1722
1363
1585
1309
1573
1284
1577
1163
1457
1245
1446
1205
1546
1329
1627
1323
1498
1133
1366
1079
1206
1022
1343
1010
1413
1154
1314
1209
1467
1100
1310
1025
1281
1018
1261
922
1156
1001
1234
837
1258
850
1129
918
1045
691
958
488
0
0
1360
1239
1686
1386
1765
1424
1747
1466
1802
1453
1899
1569
1974
1674
1828
1499
1979
1558
1911
1625
2010
1754
2159
1898
2276
1872
2195
1829
2132
1814
2109
1920
2189
2092
2490
2146
2372
1993
2247
1881
2169
1861
2202
1871
2233
1855
2219
1906
2217
1928
2298
2078
2452
2109
2589
2125
2312
1879
2065
1826
2054
1813
2114
1722
2026
1698
2002
1719
2034
1783
2019
1781
2091
1865
2090
1778
1962
1580
1906
1619
1907
1580
1938
1602
1848
1701
2002
1674
1884
1517
1933
1519
1813
1514
1679
1501
1770
1397
1817
1456
1766
1444
1710
1258
1574
1076
0
0
1541
1435
1736
1613
1933
1610
1901
1604
1935
1663
2080
1730
2187
1978
2090
1745
1986
1741
1922
1719
2164
1878
2242
2022
2353
2071
2462
2095
2125
1840
2195
1906
2223
2003
2242
1962
2217
2008
2277
1898
2244
1874
2129
1822
2123
1915
2018
1778
2133
1944
2382
2043
2362
2105
2292
1852
2028
1643
1930
1550
1846
1598
1861
1574
1915
1597
1882
1498
1757
1605
1858
1578
1847
1707
1873
1570
1731
1451
1643
1467
1637
1404
1655
1366
1694
1409
1797
1489
1634
1342
1591
1317
1550
1243
1439
1179
1477
1195
1515
1293
1593
1171
1393
1085
1369
721
0
0
1472
1354
1672
1474
1805
1463
1816
1563
1790
1491
1944
1729
2138
1885
2018
1585
1853
1529
1877
1562
1974
1634
2035
1787
2158
1936
2420
2060
2149
1795
2111
1734
2042
1765
2037
1635
1961
1782
2198
1837
2177
1737
2053
1652
2010
1682
1875
1586
2076
1846
2290
2081
2427
2133
2189
1709
1934
1538
1872
1553
1816
1580
1918
1521
1989
1539
1724
1442
1717
1483
1707
1397
1714
1538
1810
1629
1794
1429
1628
1341
1648
1330
1605
1290
1578
1284
1634
1405
1553
1245
1535
1242
1439
1070
1370
1135
1433
1097
1506
1174
1514
1114
1341
1026
1242
714
0
0
1130
1066
1385
1189
1437
1185
1563
1208
1494
1238
1717
1463
1875
1646
1684
1372
1566
1374
1595
1390
1637
1394
1682
1473
1845
1701
2020
1739
1989
1579
1902
1586
1780
1488
1694
1437
1621
1485
1829
1623
1863
1574
1670
1333
1627
1416
1566
1310
1803
1634
2051
1931
2165
1798
1883
1501
1633
1249
1555
1317
1611
1437
1707
1389
1811
1302
1602
1207
1461
1221
1466
1194
1418
1306
1571
1417
1590
1233
1321
950
1319
1074
1322
1058
1300
1009
1342
1153
1296
1014
1285
1050
1193
924
1194
924
1149
894
1270
1042
1250
969
1276
864
1015
437
0
0
1413
1317
1621
1375
1746
1323
1805
1451
1716
1485
1947
1738
2098
1896
1966
1741
2109
1666
2011
1646
1962
1577
2037
1786
2137
1882
2429
2149
2373
2034
2427
1990
2151
1806
2172
1781
2076
1805
2226
1927
2266
1818
2066
1713
2135
1845
2002
1849
2224
2125
2501
2270
2550
2081
2202
1765
2137
1767
1975
1768
2206
1914
2215
1917
2262
1832
2037
1676
1922
1659
1933
1713
2002
1733
2036
1882
2193
1754
2000
1576
1882
1591
1898
1573
1809
1547
1865
1533
1970
1598
1895
1570
1812
1333
1738
1429
1643
1365
1694
1461
1867
1486
1834
1458
1640
1010
0
0
1646
1546
1986
1637
1818
1674
2014
1729
2033
1712
1997
1925
2198
1980
2155
1906
2230
1972
2217
1887
2025
1811
2118
1866
2097
1914
2306
2178
2496
2215
2429
1978
2155
1850
2070
1815
2088
1845
2190
2042
2374
1902
2114
1826
2020
1790
1984
1836
2158
1964
2406
2101
2354
1933
2066
1705
1896
1637
1821
1660
1960
1819
2030
1765
2166
1706
1819
1638
1861
1576
1787
1503
1743
1534
1855
1555
1954
1774
1878
1512
1806
1469
1677
1494
1588
1461
1593
1413
1803
1547
1818
1435
1637
1333
1569
1313
1460
1316
1574
1192
1524
1366
1621
1285
1494
1019
0
0
1519
1368
1783
1417
1653
1484
1832
1549
1830
1520
1921
1681
2034
1764
1978
1752
2090
1858
2183
1769
1883
1684
1909
1622
1924
1691
2117
1851
2341
2040
2184
1793
2029
1706
1922
1705
1914
1711
1992
1847
2105
1825
2010
1662
1893
1666
1916
1641
2025
1880
2116
1847
2187
1798
1957
1548
1739
1482
1665
1428
1754
1616
1885
1512
1879
1569
1693
1449
1738
1421
1642
1347
1645
1295
1716
1383
1794
1568
1867
1462
1756
1320
1515
1310
1520
1307
1470
1237
1638
1538
1861
1554
1723
1282
1533
1130
1409
1205
1451
1023
1354
1197
1531
1291
1486
785
0
0
1077
1050
1364
1145
1394
1175
1520
1186
1607
1196
1553
1304
1668
1369
1581
1432
1721
1549
1882
1523
1635
1330
1622
1325
1663
1427
1770
1503
1885
1642
1864
1563
1696
1386
1490
1308
1589
1370
1608
1417
1819
1478
1637
1393
1678
1309
1624
1464
1779
1397
1797
1396
1730
1541
1675
1283
1480
1186
1371
1111
1428
1243
1412
1179
1524
1195
1457
1226
1487
1251
1502
1157
1338
1037
1389
1129
1541
1339
1522
1253
1485
1034
1282
1028
1203
990
1195
1090
1402
1339
1771
1346
1538
1093
1266
973
1101
910
1141
766
1111
917
1277
1098
1207
742
0
0
1321
1245
1681
1374
1682
1448
1833
1453
1842
1492
1841
1541
1909
1606
1869
1716
2021
1825
2186
1922
2094
1754
2074
1705
2090
1805
2118
1824
2165
1858
2216
1861
2205
1811
2059
1691
1966
1781
2074
1810
2133
1815
2165
1875
2135
1803
2130
1930
2261
1869
2122
1782
2197
1895
2203
1719
2022
1693
1957
1635
1953
1620
1876
1654
2002
1648
2053
1805
2053
1762
2042
1692
1931
1550
1933
1607
1951
1710
1962
1786
2110
1573
1919
1554
1751
1557
1749
1587
1961
1754
2193
1871
2057
1570
1783
1372
1649
1450
1722
1312
1642
1398
1756
1611
1865
1188
0
0
1570
1469
1867
1654
1884
1649
2064
1778
1994
1874
1974
1838
2085
1833
2067
1754
2127
1944
2255
2056
2297
1925
2199
1826
2132
1903
2133
1814
2219
1898
2193
1870
2263
1910
2155
1845
2044
1837
2075
1797
2043
1878
2052
1829
2092
1866
2150
1930
2222
1771
2024
1713
1930
1735
1973
1670
1890
1674
1794
1572
1835
1449
1844
1572
1893
1596
2034
1693
2086
1758
1938
1613
1738
1434
1682
1458
1597
1354
1773
1578
1869
1526
1691
1325
1650
1380
1561
1325
1703
1547
1801
1645
1781
1389
1579
1222
1523
1148
1401
1133
1361
1181
1525
1267
1618
1013
0
0
1350
1237
1629
1409
1703
1402
1737
1430
1796
1611
1917
1733
1880
1561
1855
1532
1853
1607
1938
1734
2031
1734
2074
1647
1922
1566
2006
1614
1916
1604
1836
1654
2153
1736
1973
1635
1860
1620
1866
1541
1765
1613
1890
1714
2005
1800
2074
1730
1960
1507
1718
1521
1722
1453
1766
1530
1749
1483
1719
1372
1669
1334
1633
1341
1754
1480
2043
1717
2094
1668
1766
1442
1614
1299
1476
1211
1431
1178
1493
1355
1698
1332
1550
1188
1413
1224
1394
1194
1490
1265
1458
1302
1575
1285
1433
1044
1332
971
1226
981
1269
980
1288
989
1273
729
0
0
1065
983
1337
1181
1433
1123
1428
1165
1431
1399
1677
1572
1785
1461
1545
1231
1538
1296
1525
1403
1711
1519
1850
1377
1685
1349
1637
1348
1659
1353
1644
1425
1758
1467
1644
1394
1620
1270
1570
1250
1549
1284
1627
1525
1850
1675
1834
1474
1684
1235
1530
1290
1409
1208
1467
1271
1526
1301
1437
1269
1472
1102
1445
1162
1486
1258
1865
1499
1814
1451
1481
1221
1377
1029
1262
1033
1194
934
1195
1070
1409
1215
1358
1005
1230
944
1146
954
1230
1046
1187
1028
1163
917
1160
929
1034
810
1000
795
1051
754
1025
725
1130
572
0
0
1349
1197
1602
1386
1642
1352
1716
1449
1758
1724
2077
1989
2117
1706
1913
1522
1891
1590
1909
1670
2054
1758
2225
1810
2057
1765
2054
1706
2033
1710
2112
1711
2157
1771
2152
1758
2018
1669
2002
1732
1963
1800
2085
1957
2316
2043
2299
1856
2115
1680
2002
1730
1963
1677
1938
1813
2157
1823
2069
1794
1994
1584
1966
1533
2022
1777
2202
1970
2362
1957
2074
1768
1919
1619
1829
1570
1774
1502
1767
1611
1961
1757
1990
1505
1874
1510
1756
1466
1817
1559
1734
1540
1776
1467
1843
1468
1770
1438
1605
1332
1580
1387
1557
1273
1597
1000
0
0
1618
1531
1794
1518
1776
1462
1835
1613
1970
1881
2266
2066
2383
1970
2093
1742
2014
1743
2043
1733
2035
1849
2243
1919
2135
1766
2021
1747
1999
1778
2133
1754
2125
1714
1997
1810
2010
1750
2021
1693
1925
1712
2051
1866
2202
2036
2189
1740
1930
1632
1829
1566
1782
1557
1759
1732
2033
1853
2096
1591
1874
1530
1787
1465
1849
1591
2065
1893
2073
1704
2021
1679
1729
1467
1730
1394
1690
1289
1538
1371
1685
1516
1735
1486
1538
1332
1590
1316
1546
1226
1487
1181
1503
1337
1585
1301
1496
1255
1452
1158
1341
1130
1250
1033
1356
824
0
0
1503
1269
1676
1293
1606
1275
1653
1371
1797
1555
2125
1944
2228
1798
1957
1481
1801
1506
1780
1478
1778
1606
1960
1674
1933
1579
1786
1566
1845
1578
1875
1466
1819
1496
1831
1542
1842
1646
1911
1529
1711
1472
1858
1677
1975
1733
1954
1507
1745
1430
1601
1373
1648
1398
1614
1549
1782
1700
1917
1419
1713
1378
1645
1259
1578
1327
1783
1509
1783
1455
1776
1490
1628
1341
1615
1202
1457
1236
1416
1221
1492
1325
1572
1265
1437
1163
1414
1142
1351
1146
1333
1028
1299
1216
1445
1234
1368
1045
1256
949
1165
1021
1140
868
1048
610
0
0
1126
1015
1398
1205
1362
1005
1350
1112
1482
1274
1771
1643
1992
1635
1732
1215
1541
1204
1353
1150
1477
1268
1593
1365
1721
1316
1515
1350
1517
1322
1549
1160
1581
1301
1533
1373
1670
1397
1643
1246
1484
1258
1459
1295
1610
1327
1668
1298
1496
1161
1405
1075
1331
1130
1274
1147
1453
1324
1630
1221
1489
1077
1397
984
1386
1145
1430
1150
1471
1130
1450
1225
1335
1077
1361
1002
1277
915
1215
946
1266
1124
1465
1162
1273
941
1122
913
1048
814
1121
851
1122
808
1200
1050
1254
948
1178
813
972
697
845
633
938
443
0
0
1301
1236
1636
1394
1677
1226
1661
1341
1690
1509
2028
1835
2216
1864
2084
1682
1850
1453
1757
1499
1828
1517
1943
1645
2045
1676
2010
1718
1978
1637
2003
1597
1986
1682
2006
1832
2163
1806
2065
1634
1849
1648
1912
1677
1897
1741
2057
1770
2022
1618
1800
1540
1914
1530
1829
1608
1853
1647
2066
1682
2061
1640
1896
1517
1838
1548
1816
1490
1889
1523
1847
1663
1958
1641
2021
1562
1833
1451
1770
1444
1821
1571
1919
1698
1889
1542
1757
1434
1618
1392
1608
1317
1621
1422
1680
1496
1765
1557
1829
1381
1559
1291
1457
1093
1480
983
0
0
1349
1285
1737
1537
1813
1431
1768
1482
1765
1517
2028
1986
2253
1929
2181
1707
2022
1621
1830
1584
1850
1542
1826
1594
2013
1759
2010
1758
1974
1606
1838
1639
1889
1643
2048
1775
2032
1650
1979
1576
1758
1553
1789
1502
1861
1542
1796
1659
1903
1520
1759
1493
1625
1389
1669
1469
1735
1413
1768
1549
1917
1541
1722
1384
1571
1314
1652
1368
1607
1323
1635
1410
1657
1371
1680
1386
1565
1202
1451
1310
1567
1480
1774
1480
1684
1340
1542
1165
1455
1298
1387
1155
1403
1122
1306
1121
1503
1287
1540
1171
1291
1021
1253
937
1142
597
0
0
1052
1003
1390
1243
1605
1308
1653
1175
1525
1240
1739
1562
1924
1551
1910
1512
1717
1351
1589
1380
1678
1308
1606
1385
1685
1522
1866
1530
1725
1330
1666
1293
1746
1419
1746
1514
1724
1365
1746
1365
1521
1288
1571
1232
1666
1318
1650
1381
1718
1326
1633
1282
1548
1193
1451
1206
1493
1133
1578
1321
1732
1308
1510
1117
1416
1133
1470
1161
1362
1125
1428
1242
1493
1210
1485
1149
1394
1032
1294
1060
1483
1269
1614
1179
1454
1053
1285
1006
1262
1060
1171
846
1250
961
1143
955
1349
986
1386
1006
1146
791
1096
790
954
487
0
0
602
538
853
727
1042
806
1171
714
1054
810
1144
845
1220
973
1305
1014
1272
825
1194
858
1202
809
1096
905
1282
1029
1333
1040
1312
957
1195
836
1242
882
1236
964
1237
854
1367
951
1111
918
1133
841
1100
821
1089
860
1300
965
1098
806
1073
808
1055
786
1050
722
1111
779
1202
905
1046
795
954
710
929
674
885
668
1002
733
1034
808
1058
776
933
592
811
559
971
729
1038
733
946
643
848
484
802
554
794
421
792
513
710
529
876
524
925
633
638
438
698
340
585
102
0
0
0
0
0
0
0
0
0
0
0
0
0
0
0
0
0
0
0
0
0
0
0
0
0
0
0
0
0
0
0
0
0
0
0
0
0
0
0
0
0
0
0
0
0
0
0
0
0
0
0
0
0
0
0
0
0
0
0
0
0
0
0
0
0
0
0
0
0
0
0
0
0
0
0
0
0
0
0
0
0
0
0
0
0
0
0
0
0
0
0
0
0
0
0
0
0
0
0
0
0
0
0
0
0
0
0
0
0
