P2
108 88
4095
0
0
0
0
0
0
0
0
0
0
0
0
0
0
0
0
0
0
0
0
0
0
0
0
0
0
0
0
0
0
0
0
0
0
0
0
0
0
0
0
0
0
0
0
0
0
0
0
0
0
0
0
0
0
0
0
0
0
0
0
0
0
0
0
0
0
0
0
0
0
0
0
0
0
0
0
0
0
0
0
0
0
0
0
0
0
0
0
0
0
0
0
0
0
0
0
0
0
0
0
0
0
0
0
0
0
0
0
0
1597
1566
1974
1680
2072
1784
2121
1842
2197
1930
2107
1829
2221
1989
2266
1973
2294
2021
2277
2030
2268
2114
2423
2118
2343
2146
2339
2082
2391
2050
2369
1949
2309
1864
2210
1882
2134
1797
2122
1732
2148
1844
2121
1854
2114
1781
1908
1610
1774
1347
1655
1413
1813
1431
1713
1346
1456
1191
1568
1281
1617
1270
1485
1157
1499
1110
1379
1086
1422
1177
1475
1234
1433
1134
1332
1056
1251
900
1266
926
1209
917
1394
1143
1527
1239
1425
1157
1386
999
1258
932
1162
914
1246
877
1147
791
1150
671
907
634
849
617
781
365
0
0
1498
1608
1943
1633
2106
1720
2100
1866
2108
1897
2114
1807
2114
1865
2276
1974
2240
2011
2294
2010
2309
2045
2430
2060
2346
2086
2362
2025
2307
2021
2293
1908
2229
1815
2204
1811
2033
1781
1946
1702
2039
1810
2037
1768
1941
1662
1806
1544
1722
1250
1622
1422
1758
1460
1602
1258
1419
1162
1503
1211
1591
1243
1492
1178
1417
1053
1282
1069
1471
1171
1438
1157
1314
986
1217
917
1123
873
1180
877
1157
907
1259
976
1405
1147
1227
1009
1199
985
1265
917
1205
919
1179
981
1245
797
1133
733
885
549
822
492
658
301
0
0
1819
1845
2325
1965
2426
2100
2488
2170
2570
2301
2521
2205
2578
2269
2628
2373
2747
2451
2768
2458
2757
2485
2869
2522
2812
2533
2772
2484
2731
2545
2829
2370
2724
2306
2685
2258
2475
2166
2373
2108
2418
2122
2420
2146
2438
2087
2246
1880
2103
1741
2166
1988
2386
1906
2198
1779
1910
1739
2161
1824
2270
1903
2212
1767
2102
1600
1883
1675
2101
1777
2062
1637
1885
1546
1787
1523
1745
1421
1753
1406
1691
1412
1812
1569
1986
1657
1767
1546
1783
1488
1877
1413
1718
1547
1909
1642
1950
1477
1747
1314
1554
1125
1502
1136
1373
929
0
0
2248
2296
2714
2521
2877
2541
2922
2614
2902
2660
2870
2610
2952
2681
2946
2779
3016
2733
2973
2756
3083
2818
3082
2901
2945
2804
2954
2728
2958
2637
2918
2491
2794
2426
2717
2488
2630
2241
2500
2134
2450
2159
2434
2152
2430
2030
2161
1789
2070
1814
2182
1874
2162
1896
2067
1874
2068
1780
2194
2042
2311
1999
2158
1837
2041
1687
1998
1745
2093
1833
1936
1618
1805
1574
1653
1458
1805
1417
1597
1412
1621
1396
1669
1371
1736
1445
1609
1354
1622
1277
1684
1320
1748
1433
1879
1637
1858
1388
1706
1144
1420
1037
1381
1093
1219
725
0
0
2077
2108
2544
2293
2735
2333
2878
2481
2716
2494
2772
2541
2843
2457
2834
2546
2858
2571
2839
2573
2922
2541
2894
2698
2844
2578
2792
2621
2811
2505
2729
2311
2676
2427
2536
2117
2416
2069
2262
1840
2118
1778
2130
1842
2186
1793
2018
1517
1941
1549
1942
1674
1943
1641
1891
1608
1958
1572
2018
1913
2255
1893
2075
1685
2045
1677
1981
1736
2130
1669
1882
1523
1753
1421
1661
1429
1770
1350
1633
1338
1538
1194
1450
1192
1582
1280
1518
1169
1468
1090
1498
1134
1500
1349
1775
1514
1640
1285
1501
998
1349
947
1195
932
1122
587
0
0
1836
1838
2165
2022
2333
2026
2456
2092
2395
2218
2406
2082
2493
2188
2454
2242
2484
2201
2504
2254
2548
2309
2610
2345
2532
2266
2501
2157
2453
2111
2362
1937
2379
1933
2294
1906
2042
1695
1956
1402
1662
1284
1649
1369
1751
1398
1642
1197
1595
1201
1621
1308
1514
1162
1554
1322
1574
1226
1707
1653
1845
1498
1606
1277
1623
1384
1762
1566
1834
1505
1602
1333
1515
1272
1579
1239
1581
1333
1374
1149
1426
994
1105
885
1186
926
1081
949
1173
808
1189
901
1224
1109
1386
1155
1355
923
1266
708
1091
733
1048
772
791
298
0
0
2060
1981
2422
2191
2653
2257
2741
2324
2666
2474
2696
2388
2846
2449
2789
2570
2854
2539
2907
2592
2930
2651
2954
2674
2938
2658
2939
2598
2822
2549
2816
2327
2727
2443
2758
2311
2445
1993
2367
1854
2114
1705
1999
1765
2089
1778
2018
1626
1945
1779
2040
1706
1994
1675
1958
1809
2090
1755
2114
2043
2293
1859
2062
1681
2038
1917
2250
1956
2306
1839
2070
1801
2171
1941
2157
1955
2285
1949
2148
1871
2045
1605
1843
1509
1925
1445
1758
1458
1769
1403
1809
1439
1889
1541
1949
1682
1866
1451
1826
1422
1811
1420
1729
1359
1435
872
0
0
2249
2293
2749
2546
2828
2612
2951
2578
3005
2670
2969
2657
2930
2701
3029
2693
3046
2790
3093
2704
2925
2795
3110
2664
3061
2677
2939
2577
2842
2538
2869
2542
2825
2546
2698
2360
2552
2163
2282
2003
2210
1899
2140
1739
1979
1687
2068
1773
1936
1693
1904
1598
1902
1718
1960
1706
1988
1749
2036
1764
2034
1712
1917
1614
2025
1673
2003
1707
2022
1554
1914
1622
1973
1751
2006
1877
2082
1852
2039
1669
2026
1466
1642
1424
1730
1416
1715
1388
1579
1306
1524
1338
1623
1412
1658
1321
1599
1253
1546
1311
1597
1375
1509
1245
1385
833
0
0
2093
2042
2557
2261
2698
2412
2789
2354
2692
2469
2706
2408
2802
2600
2935
2557
2885
2577
2909
2530
2765
2568
2888
2509
2916
2482
2749
2331
2632
2335
2644
2319
2678
2276
2549
2028
2338
1877
2197
1844
2107
1669
1981
1512
1860
1668
1959
1693
1801
1500
1706
1458
1810
1499
1722
1453
1784
1539
1815
1490
1834
1528
1749
1485
1882
1562
1819
1365
1754
1320
1669
1458
1657
1485
1762
1602
1826
1595
1845
1499
1805
1372
1638
1378
1686
1397
1644
1274
1393
1257
1381
1160
1424
1160
1466
1047
1458
1210
1293
1111
1526
1245
1443
1083
1261
714
0
0
1857
1826
2266
2019
2388
2189
2486
2169
2517
2207
2410
2157
2405
2242
2527
2280
2587
2301
2605
2259
2508
2306
2597
2258
2609
2293
2437
1987
2221
1986
2261
2114
2411
2109
2195
1820
1981
1702
1902
1720
1925
1465
1755
1385
1692
1541
1870
1586
1732
1439
1550
1258
1458
1262
1547
1214
1578
1337
1530
1211
1544
1269
1561
1269
1548
1233
1449
1130
1426
1110
1525
1210
1403
1170
1446
1282
1518
1282
1541
1186
1512
1126
1474
1253
1568
1289
1509
1149
1350
1049
1179
898
1218
922
1218
914
1163
905
1092
874
1244
1003
1239
859
1110
508
0
0
2082
2058
2491
2205
2674
2344
2754
2357
2819
2444
2786
2469
2762
2481
2915
2550
2875
2612
2916
2545
2912
2645
3028
2543
2962
2544
2752
2277
2590
2324
2758
2458
2817
2386
2597
2188
2394
2130
2485
2174
2398
1930
2251
1866
2317
2150
2493
2192
2285
1908
2091
1738
2048
1659
2055
1609
2013
1746
1955
1613
2067
1788
2085
1715
2162
1668
2028
1672
2006
1675
2069
1751
1947
1678
1925
1632
1938
1713
1907
1568
1945
1659
2043
1764
2178
1878
2146
1792
1964
1668
1890
1614
1874
1537
1764
1357
1728
1488
1653
1418
1782
1542
1898
1418
1708
1202
0
0
2252
2304
2818
2468
2805
2567
2890
2519
2839
2558
2916
2617
2921
2741
2981
2641
2976
2707
3112
2781
2891
2733
3026
2714
2843
2542
2749
2388
2609
2456
2794
2506
2715
2394
2517
2125
2306
2061
2374
2138
2358
2052
2242
1906
2299
2194
2585
2274
2447
1862
1999
1689
1922
1714
1874
1674
1994
1659
1955
1661
2002
1733
1990
1620
1973
1613
1822
1582
1889
1550
1826
1602
1844
1445
1743
1433
1786
1401
1618
1374
1643
1396
1837
1482
1940
1623
1863
1639
1860
1554
1811
1574
1777
1350
1691
1170
1481
1183
1385
1196
1570
1382
1613
1261
1227
907
0
0
2150
2137
2614
2348
2683
2420
2738
2398
2741
2394
2798
2518
2780
2601
2884
2573
2874
2651
2942
2581
2841
2632
2918
2554
2743
2363
2523
2126
2362
2142
2569
2274
2498
2152
2300
1856
2054
1866
2298
1969
2159
1866
2107
1809
2279
2170
2526
2125
2370
1721
1905
1558
1833
1597
1933
1645
2005
1655
1910
1692
2023
1765
1973
1605
1891
1588
1845
1504
1725
1342
1705
1347
1751
1424
1622
1285
1560
1205
1511
1270
1529
1306
1569
1318
1718
1378
1653
1399
1738
1484
1879
1589
1687
1493
1647
1173
1442
1101
1315
1056
1422
1289
1425
1017
1128
692
0
0
1930
1925
2378
2073
2421
2109
2381
2094
2445
2143
2498
2294
2542
2312
2642
2231
2546
2358
2646
2405
2549
2267
2546
2282
2444
2007
2133
1818
1914
1821
2198
1948
2109
1800
2002
1559
1793
1542
1938
1585
1829
1469
1836
1594
2098
1890
2218
1835
2122
1538
1729
1389
1551
1402
1646
1514
1943
1549
1882
1620
1822
1627
1836
1588
1721
1413
1610
1308
1586
1201
1451
1173
1453
1010
1446
1134
1319
1037
1336
1028
1250
1007
1395
957
1339
1142
1268
1141
1380
1147
1526
1326
1620
1334
1499
999
1298
923
1108
862
1187
927
1218
794
933
473
0
0
2094
2013
2571
2286
2638
2282
2694
2335
2701
2386
2842
2474
2804
2485
2836
2469
2834
2542
2940
2612
2826
2557
2786
2404
2602
2142
2322
1945
2118
2042
2480
2213
2425
2042
2219
1829
2120
1929
2214
1826
2141
1925
2229
2107
2483
2292
2647
2270
2498
1927
2132
1746
2084
1922
2267
2074
2494
2202
2436
2082
2443
2166
2447
2004
2347
1951
2301
1926
2230
1770
2029
1691
2067
1689
2077
1721
1947
1607
1843
1490
1859
1559
1882
1446
1906
1544
1810
1640
1981
1604
2062
1784
2124
1718
2069
1594
1827
1560
1730
1444
1802
1385
1679
1257
1441
957
0
0
2325
2361
2788
2534
2730
2537
2874
2653
2906
2556
2878
2691
2906
2559
2982
2721
2904
2637
2887
2738
2983
2546
2808
2410
2601
2101
2165
1886
2170
1966
2318
2075
2277
2069
2175
1865
2125
1842
2060
1761
2187
1853
2178
1986
2418
2138
2513
2145
2242
1818
2019
1706
1954
1795
2083
1917
2187
1953
2250
2075
2267
1942
2248
2010
2205
1944
2198
1889
2031
1682
1896
1556
1904
1801
2029
1627
1752
1527
1705
1410
1623
1354
1576
1349
1605
1292
1605
1399
1621
1333
1661
1432
1779
1489
1745
1480
1771
1409
1611
1257
1488
1188
1329
1053
1250
765
0
0
2213
2233
2634
2398
2654
2400
2805
2491
2817
2498
2866
2418
2743
2554
2893
2541
2806
2437
2793
2574
2842
2430
2639
2141
2357
1880
2042
1691
1999
1811
2159
1909
2305
1962
2074
1694
2068
1663
1888
1669
1997
1746
2070
1904
2272
2034
2313
2018
2196
1711
1943
1620
1911
1705
1909
1809
1983
1813
2056
1768
2090
1677
2009
1719
2109
1784
2150
1862
1960
1558
1861
1527
1995
1781
2029
1749
1893
1490
1673
1378
1669
1358
1627
1364
1589
1301
1548
1205
1543
1237
1500
1246
1653
1294
1653
1401
1843
1460
1573
1229
1498
1065
1181
938
1202
609
0
0
1853
1917
2333
2074
2350
2095
2413
2154
2485
2099
2416
2153
2411
2198
2471
2138
2466
2177
2448
2212
2456
1975
2198
1701
1874
1458
1604
1392
1588
1467
1833
1571
2011
1570
1802
1413
1730
1339
1570
1410
1677
1397
1707
1468
1853
1746
1987
1621
1814
1391
1632
1324
1566
1319
1606
1341
1583
1445
1668
1426
1598
1320
1598
1342
1621
1381
1714
1401
1612
1323
1572
1322
1773
1609
1832
1556
1694
1373
1517
1182
1476
1243
1455
1202
1355
1013
1293
960
1250
976
1210
909
1274
957
1312
1045
1390
1156
1420
1035
1222
977
922
690
910
378
0
0
2105
2125
2486
2309
2585
2241
2668
2398
2773
2354
2706
2427
2762
2437
2768
2449
2718
2411
2669
2405
2754
2215
2459
1979
2180
1761
2005
1825
2085
1782
2317
2036
2437
1973
2120
1815
2109
1690
2081
1757
2138
1877
2246
1943
2373
2072
2436
2053
2262
1835
2174
1878
2196
1821
2082
1771
2021
1762
2059
1842
2117
1780
2039
1750
2074
1766
2106
1764
2021
1670
2033
1865
2276
2005
2348
2001
2219
1860
2140
1821
2234
1925
2262
1894
1972
1659
1868
1455
1830
1488
1884
1477
1769
1521
1739
1467
1797
1653
1950
1691
1925
1547
1674
1389
1547
933
0
0
2237
2342
2774
2516
2837
2494
2884
2597
2902
2566
2862
2554
2992
2544
2941
2613
2917
2605
2869
2502
2634
2356
2557
2015
2196
1902
2190
1878
2242
2020
2394
2165
2570
2132
2229
1837
2169
1941
2059
1785
2062
1812
2148
2015
2378
2120
2299
1877
2166
1845
2081
1890
1988
1694
1994
1669
1964
1739
2018
1691
1972
1694
1874
1636
1823
1569
1871
1525
1866
1618
1810
1659
2053
1725
1913
1662
1820
1546
1809
1622
2110
1858
2105
1810
1867
1378
1581
1335
1643
1362
1517
1269
1505
1297
1583
1166
1554
1372
1623
1462
1646
1296
1429
1109
1282
844
0
0
2189
2287
2641
2405
2749
2388
2825
2533
2818
2407
2746
2389
2808
2435
2788
2427
2746
2420
2597
2337
2522
2269
2460
2008
2188
1890
2171
1868
2108
1910
2338
2137
2426
2037
2202
1857
2240
1840
2088
1763
2054
1738
2171
1987
2338
2054
2198
1844
2082
1730
1972
1702
1918
1562
1898
1525
1941
1577
1988
1578
1842
1637
1783
1493
1768
1512
1835
1429
1809
1446
1691
1540
1845
1451
1770
1410
1687
1366
1674
1519
2046
1701
1965
1665
1765
1314
1562
1241
1507
1205
1472
1117
1381
1149
1434
1035
1429
1172
1419
1174
1429
1205
1380
1064
1193
682
0
0
1781
1840
2313
2111
2358
2006
2436
2104
2436
2074
2422
2036
2505
2100
2357
2197
2381
2077
2349
2013
2219
1954
2178
1781
1974
1622
1883
1555
1864
1649
2074
1819
2173
1643
1835
1637
1918
1668
1841
1458
1747
1522
1960
1858
2129
1853
2066
1676
1833
1452
1761
1515
1610
1339
1578
1329
1659
1385
1694
1361
1698
1353
1476
1187
1538
1170
1480
1179
1455
1175
1449
1277
1401
1145
1482
1115
1392
1120
1429
1237
1766
1333
1571
1288
1442
1099
1392
1056
1274
939
1269
919
1227
905
1124
797
1170
837
1073
859
1125
870
1160
795
853
384
0
0
2037
2131
2610
2347
2715
2353
2701
2404
2779
2395
2721
2333
2779
2411
2734
2374
2699
2421
2611
2202
2593
2262
2646
2210
2347
1861
2193
1789
2187
2021
2442
2168
2468
1981
2273
1978
2267
1973
2245
1936
2370
2070
2509
2400
2702
2410
2596
2075
2409
2033
2410
2033
2323
1865
2122
1890
2225
1983
2414
2008
2262
1926
2066
1738
2085
1822
2161
1750
2040
1710
1957
1632
2036
1676
2050
1716
1980
1677
2048
1837
2133
1700
1985
1661
2031
1595
1894
1669
2063
1693
1899
1519
1754
1514
1713
1427
1710
1325
1730
1367
1731
1262
1652
1314
1593
1084
0
0
2260
2374
2821
2534
2891
2596
2967
2597
2952
2577
2877
2596
2934
2668
2890
2514
2902
2509
2778
2481
2728
2370
2598
2161
2288
1917
2079
1933
2244
2126
2504
2292
2422
2005
2230
1942
2261
1989
2194
1917
2260
2069
2568
2417
2725
2308
2579
2151
2519
2189
2440
2086
2308
2018
2194
1880
2146
2091
2333
2048
2322
1931
2205
1865
2045
1826
2077
1714
1933
1507
1785
1586
1845
1623
1928
1691
2002
1653
1860
1684
1868
1531
1594
1380
1634
1388
1682
1510
1863
1472
1778
1465
1738
1421
1482
1282
1485
1209
1432
1182
1397
1126
1410
1195
1461
919
0
0
2154
2180
2571
2227
2843
2361
2771
2390
2686
2289
2811
2346
2717
2477
2785
2384
2761
2324
2628
2254
2475
2073
2416
1862
2068
1674
1979
1698
2071
1890
2291
1992
2164
1769
1930
1674
2051
1658
2035
1754
2035
1866
2314
2141
2461
2066
2314
1842
2354
2114
2397
2025
2301
1897
2067
1714
2006
1947
2204
1897
2166
1833
2068
1749
2002
1834
2067
1686
1884
1442
1785
1509
1765
1564
2032
1675
1894
1582
1797
1422
1590
1277
1554
1276
1509
1260
1427
1290
1593
1245
1693
1513
1691
1370
1482
1158
1520
1147
1320
1050
1285
939
1160
1045
1312
790
0
0
1869
1874
2344
2066
2429
2187
2453
2213
2523
2101
2515
2114
2389
2133
2451
2082
2375
2011
2256
1934
2156
1756
2033
1586
1761
1461
1548
1427
1854
1699
2054
1723
1830
1485
1622
1445
1679
1494
1693
1351
1743
1569
1979
1787
2091
1693
1865
1531
1963
1756
2015
1742
2010
1706
1862
1404
1713
1538
1784
1517
1753
1492
1674
1422
1833
1570
1831
1477
1659
1306
1640
1355
1627
1518
1884
1578
1784
1349
1386
1133
1345
1005
1205
1029
1174
1024
1192
1078
1252
994
1349
1353
1612
1299
1377
1115
1339
891
1138
839
997
782
998
754
1068
504
0
0
2130
2146
2604
2306
2794
2376
2725
2482
2770
2402
2877
2390
2706
2466
2826
2345
2738
2365
2671
2278
2458
2067
2330
1874
2058
1804
1988
1883
2171
2031
2380
2043
2203
1911
2165
1817
2193
1834
2034
1819
2174
1843
2349
2226
2458
2074
2312
1858
2422
2149
2373
2148
2472
2147
2286
1803
2186
1909
2123
1898
2149
1777
2106
1940
2206
2029
2321
1910
2192
1858
2244
1911
2366
2127
2634
2189
2355
1874
2041
1704
1985
1563
1856
1573
1866
1618
1748
1611
1954
1554
1956
1802
2142
1877
2011
1730
1965
1448
1730
1398
1663
1351
1636
1326
1650
1011
0
0
2310
2413
2781
2453
2790
2610
2822
2588
2893
2633
2921
2566
2886
2560
2821
2565
2713
2424
2617
2291
2442
2109
2276
1901
2105
1860
2107
1860
2298
2141
2468
1971
2253
1835
2229
1885
2120
1845
2054
1800
2097
1753
2177
1882
2174
1974
2138
1826
2197
1954
2237
2008
2077
1890
2041
1699
1944
1703
1810
1707
1917
1623
1858
1669
1967
1778
2085
1718
1860
1675
1947
1783
2130
2034
2453
2069
2093
1648
1853
1544
1749
1449
1732
1354
1583
1303
1606
1307
1628
1391
1594
1408
1713
1469
1845
1541
1701
1301
1593
1207
1393
1089
1323
1042
1204
820
0
0
2154
2196
2645
2358
2733
2473
2790
2505
2866
2440
2752
2362
2748
2359
2669
2386
2666
2393
2534
2186
2347
1879
2154
1721
1898
1662
2010
1736
2202
2010
2267
1855
2029
1737
2048
1693
2053
1587
1965
1661
1971
1601
1937
1671
1986
1859
1949
1713
2073
1769
2013
1789
2000
1653
1829
1586
1851
1572
1758
1542
1829
1605
1745
1399
1875
1581
1893
1476
1725
1500
1846
1701
2038
1946
2276
1902
2027
1649
1777
1518
1832
1513
1713
1385
1523
1209
1437
1115
1454
1286
1496
1253
1525
1237
1642
1325
1683
1162
1482
1049
1298
1037
1242
927
1154
645
0
0
1957
1994
2384
2089
2427
2238
2461
2104
2457
2186
2369
2139
2512
2101
2377
2131
2365
2038
2258
2005
2137
1698
1984
1571
1701
1497
1805
1626
2059
1829
2080
1610
1850
1472
1782
1453
1742
1364
1738
1473
1700
1383
1685
1449
1778
1518
1736
1451
1757
1402
1629
1420
1626
1395
1626
1405
1618
1293
1641
1343
1556
1323
1498
1270
1659
1269
1601
1261
1413
1305
1607
1419
1845
1766
2008
1622
1642
1302
1531
1285
1554
1311
1693
1325
1498
1137
1322
870
1297
1009
1273
954
1181
933
1234
1081
1422
1047
1402
941
1124
854
1074
648
895
457
0
0
2145
2124
2558
2263
2627
2417
2749
2426
2679
2400
2679
2378
2713
2352
2623
2410
2763
2357
2706
2277
2529
2143
2317
1990
2133
1847
2282
2070
2506
2266
2634
2120
2274
1937
2246
1827
2192
1869
2222
1946
2298
1831
2176
1903
2284
2057
2224
1876
2149
1899
2101
1827
2130
1789
2101
1815
2151
1850
2020
1914
2043
1846
2080
1772
2137
1746
2078
1693
1954
1766
2145
2026
2401
2210
2469
1997
2058
1689
1979
1683
2050
1818
2202
1917
2100
1702
1929
1546
1896
1573
1787
1466
1798
1541
1810
1579
1904
1701
1981
1559
1714
1437
1653
1270
1530
1058
0
0
2355
2293
2726
2521
2804
2522
2886
2620
2799
2645
2837
2520
2858
2488
2827
2488
2740
2445
2740
2514
2618
2266
2399
2059
2210
1961
2363
2223
2645
2385
2494
2194
2459
1958
2331
1972
2242
1898
2270
1972
2331
2010
2134
1850
2350
2021
2242
1832
2027
1748
2004
1738
1942
1649
1955
1670
2053
1709
1990
1816
1936
1737
1973
1784
2020
1673
1891
1546
1888
1557
1966
1817
2282
1908
2095
1605
1793
1409
1546
1350
1688
1473
1802
1585
1787
1555
1746
1492
1691
1396
1546
1276
1557
1275
1475
1261
1628
1467
1771
1408
1523
1087
1419
1102
1310
754
0
0
2317
2217
2721
2381
2716
2468
2789
2549
2762
2519
2798
2445
2762
2445
2667
2342
2722
2371
2658
2372
2494
2025
2205
1830
2126
1853
2247
2148
2550
2330
2469
2055
2378
1931
2173
1911
2179
1951
2329
2095
2338
1987
2221
1895
2309
1994
2172
1701
1976
1780
2061
1724
1941
1627
1911
1622
2052
1683
1918
1678
1850
1707
1981
1802
2106
1700
1914
1550
1938
1672
2048
1845
2206
1744
1840
1450
1654
1394
1668
1301
1637
1426
1625
1282
1690
1504
1845
1617
1785
1426
1645
1282
1456
1205
1501
1197
1578
1349
1709
1319
1513
1061
1277
1090
1169
735
0
0
1906
1996
2270
2082
2491
2142
2458
2226
2415
2150
2421
2090
2418
2059
2333
2107
2294
1981
2263
1885
1949
1565
1785
1462
1675
1473
1875
1872
2213
1899
2044
1587
1861
1547
1755
1451
1821
1595
1961
1698
1903
1569
1966
1607
1932
1659
1908
1492
1806
1547
1818
1474
1732
1429
1586
1290
1622
1334
1630
1337
1570
1363
1713
1614
1829
1473
1605
1357
1708
1413
1840
1584
1874
1297
1419
1108
1389
1031
1302
1093
1420
1105
1271
1057
1335
1196
1597
1510
1604
1250
1388
1059
1268
975
1194
946
1224
967
1301
954
1147
893
1027
800
901
462
0
0
2181
2067
2594
2274
2725
2385
2742
2432
2734
2397
2709
2266
2694
2292
2674
2309
2610
2230
2568
2176
2242
1755
2102
1754
2032
1845
2270
2132
2603
2213
2293
1924
2138
1813
2069
1842
2101
1871
2233
1917
2244
1963
2185
1978
2402
2120
2388
1993
2344
2056
2468
2065
2276
1843
2186
1829
2160
1819
2098
1769
2057
1853
2261
1972
2371
1942
2205
1957
2394
2093
2435
2116
2370
1786
2020
1625
1864
1558
1921
1586
1949
1584
1848
1588
1853
1652
2154
1940
2189
1897
2173
1729
1972
1546
1781
1450
1770
1437
1832
1450
1800
1427
1713
1364
1547
1029
0
0
2332
2365
2741
2517
2910
2548
2872
2535
2866
2602
2801
2514
2773
2455
2820
2437
2801
2322
2674
2120
2285
1858
2036
1815
2052
1883
2333
2188
2510
2254
2237
1904
2070
1729
2122
1778
2107
1892
2145
1905
2139
1798
2087
1892
2271
1942
2209
1941
2169
2078
2282
2006
2261
1866
2186
1746
2030
1654
1909
1706
1966
1620
1981
1681
1914
1735
1974
1829
2198
2070
2285
1960
1926
1553
1861
1478
1750
1388
1597
1482
1762
1422
1608
1355
1574
1276
1695
1629
1935
1803
1980
1682
1757
1406
1570
1267
1456
1158
1544
1172
1534
1314
1530
1262
1365
778
0
0
2235
2197
2664
2490
2774
2386
2807
2363
2775
2466
2674
2391
2641
2391
2697
2270
2740
2294
2452
2002
2152
1697
1979
1719
1997
1766
2195
2073
2365
2019
2184
1832
1970
1707
1963
1643
2038
1746
2021
1733
2066
1711
2068
1721
2098
1749
1954
1702
2045
1884
2181
1886
2218
1915
2245
1769
1917
1650
1867
1506
1770
1437
1815
1547
1847
1627
1870
1815
2159
1926
2103
1829
1834
1466
1771
1434
1704
1327
1513
1325
1672
1279
1582
1346
1486
1275
1614
1434
1785
1469
1802
1570
1709
1320
1517
1192
1402
1160
1405
1065
1459
1253
1497
1302
1346
741
0
0
1874
1909
2342
2171
2404
2119
2424
2074
2442
2165
2294
2034
2289
1995
2331
1930
2346
1928
2129
1755
1763
1395
1593
1364
1605
1421
1846
1654
2052
1786
1809
1479
1706
1419
1766
1446
1676
1429
1764
1348
1758
1364
1723
1302
1639
1314
1546
1330
1610
1430
1741
1512
1795
1578
1913
1527
1686
1389
1643
1224
1507
1201
1525
1211
1541
1357
1677
1547
1749
1461
1814
1457
1587
1273
1482
1156
1466
1174
1351
1115
1338
1019
1265
1062
1271
922
1256
1156
1324
1173
1367
1092
1403
1138
1205
913
1243
818
1161
858
1201
1049
1290
1047
1117
467
0
0
2145
2097
2535
2331
2695
2373
2684
2374
2741
2363
2674
2338
2645
2322
2756
2363
2733
2231
2517
2029
2168
1739
2018
1770
2064
1767
2286
1998
2426
2169
2242
1810
2138
1867
2222
1867
2178
1895
2171
1859
2141
1828
2172
1770
2136
1762
2142
1790
2148
1803
2202
1812
2161
1914
2228
2068
2373
1977
2266
1859
2153
1733
2074
1772
2092
1872
2250
1999
2263
2034
2146
1859
2007
1776
2063
1786
2136
1757
2042
1713
1917
1585
1964
1629
1844
1426
1821
1594
1870
1613
1858
1512
1879
1562
1901
1558
1739
1416
1763
1303
1738
1571
1866
1598
1781
1115
0
0
2346
2325
2852
2484
2898
2629
2887
2597
2762
2578
2865
2558
2811
2583
2821
2545
2763
2524
2594
2205
2298
1966
2198
1833
2212
1894
2324
2164
2517
2210
2321
1946
2126
1914
2289
2133
2386
1962
2251
1884
2218
1832
2094
1899
2116
1881
2102
1841
2045
1786
2077
1813
2035
1765
2027
1846
2219
1900
2225
1864
1945
1684
1903
1755
2061
1806
2116
1810
2043
1840
1947
1672
1909
1604
1855
1589
1846
1554
1886
1475
1802
1426
1773
1494
1670
1379
1618
1383
1686
1339
1582
1398
1773
1429
1743
1442
1804
1306
1448
1216
1452
1307
1551
1290
1493
905
0
0
2229
2156
2628
2281
2734
2386
2798
2453
2708
2437
2733
2313
2673
2426
2674
2268
2677
2340
2511
2145
2302
1850
2134
1693
2168
1885
2299
2105
2442
2041
2227
1869
2038
1937
2326
2058
2356
1956
2200
1830
2025
1738
2037
1739
1977
1689
1967
1607
1955
1605
1877
1588
1806
1548
1851
1646
2012
1707
2139
1784
1915
1615
1905
1653
2024
1701
1956
1558
1858
1537
1710
1422
1794
1405
1749
1365
1698
1373
1693
1341
1709
1403
1745
1450
1652
1338
1642
1346
1685
1163
1526
1309
1547
1305
1571
1301
1570
1204
1345
1082
1294
1105
1356
1026
1273
626
0
0
1844
1850
2386
2098
2422
2138
2462
2087
2349
2086
2346
1981
2314
2110
2466
2058
2332
2106
2224
1883
1949
1668
1869
1485
1921
1699
2026
1893
2250
1910
2030
1748
1909
1693
2117
1899
2203
1837
2052
1693
1886
1597
1796
1544
1778
1514
1686
1421
1675
1431
1594
1352
1554
1305
1514
1326
1595
1332
1682
1437
1604
1421
1746
1533
1781
1397
1563
1162
1509
1266
1467
1201
1555
1120
1394
1098
1415
1083
1381
1124
1432
1129
1543
1239
1498
1268
1588
1175
1360
968
1241
1038
1316
1109
1221
1074
1250
858
1161
852
1132
825
1042
680
943
491
0
0
2132
2147
2626
2251
2744
2421
2653
2394
2670
2362
2718
2307
2666
2358
2729
2430
2745
2393
2545
2251
2385
1994
2237
1894
2334
2094
2550
2357
2713
2281
2556
2165
2373
2083
2569
2250
2610
2269
2603
2197
2537
2089
2498
2166
2402
2156
2312
2082
2332
1909
2194
1845
2099
1805
2047
1812
2133
1850
2129
1879
2082
1906
2299
2062
2332
1949
2037
1672
2084
1824
2022
1757
2078
1690
2031
1602
2039
1596
1910
1588
1975
1622
1990
1785
2187
1954
2222
1830
1933
1592
1819
1510
1931
1619
1732
1571
1914
1465
1722
1370
1722
1398
1690
1279
1641
1013
0
0
2323
2393
2869
2516
2862
2595
2922
2602
2820
2507
2743
2362
2787
2503
2852
2498
2824
2412
2621
2155
2308
1938
2253
1861
2249
2109
2429
2254
2575
2269
2411
2000
2356
1989
2289
2130
2385
2146
2408
2157
2468
2230
2518
2254
2438
2193
2302
2015
2266
1901
2228
1864
2039
1736
2000
1778
1914
1706
1940
1741
1937
1806
2042
1830
2110
1764
1858
1573
1899
1584
1758
1469
1822
1444
1753
1402
1781
1408
1649
1417
1669
1428
1746
1531
1895
1714
1989
1610
1770
1274
1589
1285
1574
1307
1450
1301
1539
1275
1587
1216
1475
1227
1330
1128
1350
874
0
0
2242
2208
2642
2414
2709
2416
2647
2428
2632
2274
2538
2267
2635
2292
2702
2293
2651
2171
2381
1877
2101
1621
1997
1725
2020
1810
2101
1928
2245
2031
2122
1741
2035
1694
2111
1875
2095
1750
2150
1980
2203
2011
2346
2019
2266
1969
2197
2013
2284
1928
2193
1822
1988
1643
1896
1601
1750
1542
1834
1565
1720
1655
1902
1701
1908
1541
1800
1558
1850
1489
1731
1425
1698
1346
1712
1291
1702
1338
1466
1416
1613
1321
1586
1338
1802
1501
1849
1446
1650
1320
1398
1148
1437
1198
1438
1153
1442
1120
1509
1046
1462
1101
1285
1000
1261
739
0
0
1925
1905
2371
2045
2342
2082
2421
2094
2290
2061
2274
1913
2263
2022
2295
1893
2230
1946
2069
1527
1686
1380
1668
1341
1572
1422
1786
1454
1853
1552
1818
1448
1741
1445
1730
1559
1786
1461
1694
1583
1913
1762
2035
1701
1892
1574
1883
1569
1898
1589
2029
1653
1813
1424
1645
1395
1562
1297
1490
1320
1569
1387
1702
1339
1568
1236
1520
1307
1621
1397
1511
1187
1442
1134
1465
1050
1365
1034
1231
1125
1427
1065
1433
1158
1387
1146
1324
1057
1385
939
1269
957
1264
946
1205
976
1125
1014
1249
865
1133
854
1061
759
1043
518
0
0
2139
2205
2583
2318
2662
2363
2652
2281
2635
2226
2566
2220
2557
2185
2587
2232
2553
2107
2310
1787
1995
1677
2025
1810
1992
1740
2117
1847
2192
1972
2133
1795
2146
1804
2109
1911
2218
1772
2226
2009
2405
2111
2290
1989
2286
1964
2235
1957
2253
1954
2405
2089
2381
1978
2194
1847
2074
1777
2141
1872
2166
1965
2162
1808
2154
1754
2073
1841
2118
1865
2088
1749
2139
1742
2127
1765
1966
1619
1822
1602
1928
1578
1933
1625
2006
1594
1874
1610
1877
1500
1810
1555
1933
1548
1825
1574
1858
1469
1930
1499
1781
1450
1558
1362
1661
1228
0
0
2213
2251
2804
2572
2818
2448
2704
2530
2696
2438
2623
2322
2607
2354
2644
2430
2524
2210
2290
1933
2063
1781
2059
1741
2069
1850
2089
1854
2138
1829
2181
1818
2065
1827
2117
1850
2099
1903
2353
2052
2342
1919
2154
1874
2034
1789
2045
1765
1979
1782
2086
1893
2167
1811
2120
1757
1947
1702
1914
1703
1974
1767
1973
1652
1943
1557
1830
1645
1933
1617
1851
1578
1805
1608
1964
1640
1815
1460
1669
1412
1626
1318
1656
1273
1659
1332
1501
1318
1602
1278
1537
1319
1650
1375
1666
1447
1700
1386
1565
1365
1579
1225
1349
1109
1363
973
0
0
2142
2096
2650
2333
2674
2404
2651
2344
2653
2267
2546
2269
2532
2331
2519
2387
2442
2149
2221
1834
2001
1684
2042
1694
2075
1753
2077
1800
2182
1872
2114
1687
2066
1762
2077
1721
2058
1845
2222
2054
2275
1892
2060
1714
1994
1675
2006
1721
1969
1658
1974
1710
2006
1702
2005
1751
1874
1602
1828
1535
1861
1642
1877
1517
1829
1561
1722
1463
1812
1531
1799
1452
1728
1547
1846
1636
1789
1419
1660
1356
1562
1273
1539
1258
1653
1285
1542
1259
1554
1229
1476
1179
1514
1304
1576
1332
1595
1461
1658
1417
1602
1194
1286
1040
1301
828
0
0
1796
1860
2244
2036
2385
2075
2345
2107
2410
2114
2269
1893
2252
1937
2309
2059
2248
1814
1953
1573
1826
1509
1895
1591
1851
1550
1846
1641
1961
1599
1867
1443
1729
1501
1798
1621
1854
1620
2044
1786
2029
1634
1750
1451
1706
1332
1763
1431
1643
1432
1649
1502
1668
1325
1748
1517
1636
1346
1546
1398
1742
1524
1693
1295
1653
1226
1435
1254
1502
1169
1529
1156
1474
1256
1586
1338
1646
1151
1543
1156
1365
1085
1324
1031
1395
1073
1288
965
1339
1020
1254
938
1241
939
1173
1092
1379
1234
1506
1202
1357
925
1140
866
1108
563
0
0
2002
2014
2584
2260
2628
2289
2592
2354
2565
2308
2569
2164
2564
2229
2602
2345
2630
2220
2337
2042
2288
2034
2346
2049
2383
2112
2412
2125
2478
1997
2418
2002
2281
2002
2318
2071
2377
2141
2667
2330
2542
2186
2402
2056
2222
1910
2269
1863
2207
1838
2181
1899
2189
1877
2223
2005
2222
1910
2097
1954
2279
2066
2253
1874
2158
1780
2062
1674
2074
1658
2110
1785
1930
1691
2070
1740
2062
1650
2050
1669
2037
1617
1811
1650
1962
1605
1901
1566
1853
1522
1906
1525
1748
1453
1705
1598
1963
1722
2059
1709
1905
1586
1701
1361
1765
1221
0
0
2248
2302
2692
2466
2803
2584
2824
2479
2704
2421
2634
2286
2617
2436
2715
2404
2667
2426
2575
2262
2459
2277
2526
2159
2445
2143
2337
2074
2428
2111
2324
2045
2383
2077
2456
2105
2453
2254
2610
2395
2619
2249
2412
2126
2253
2098
2301
1947
2171
1815
2098
1780
2163
1910
2262
1941
2159
1832
2199
1938
2366
2031
2221
1968
2067
1725
1941
1581
1826
1492
1795
1475
1787
1476
1797
1574
1833
1598
1674
1503
1681
1490
1700
1430
1682
1414
1621
1334
1610
1310
1558
1331
1532
1174
1499
1234
1585
1334
1643
1444
1640
1396
1498
1355
1627
1061
0
0
2241
2169
2600
2373
2637
2453
2748
2333
2613
2189
2497
2042
2456
2225
2609
2258
2530
2212
2359
2006
2314
2002
2338
1936
2274
1965
2135
1926
2254
2042
2247
1927
2213
1924
2305
1994
2409
2194
2543
2276
2569
2104
2249
2033
2285
2071
2325
2017
2246
1854
2129
1722
2122
1913
2185
1925
2089
1769
2202
1958
2405
2049
2333
2002
2177
1734
1809
1498
1735
1445
1826
1450
1735
1454
1739
1415
1627
1390
1570
1352
1677
1405
1709
1387
1627
1313
1527
1225
1549
1293
1527
1298
1421
1148
1435
1109
1553
1170
1476
1282
1629
1266
1552
1374
1613
977
0
0
1819
1883
2315
2085
2385
2146
2493
2025
2216
1850
1976
1570
1970
1707
2070
1812
2062
1677
1891
1594
1783
1597
1909
1465
1797
1514
1786
1449
1810
1623
1793
1495
1826
1497
1923
1649
1970
1924
2245
1866
2053
1621
1813
1549
1842
1695
1908
1586
1907
1514
1744
1438
1720
1477
1800
1481
1721
1438
1819
1649
2127
1847
2016
1782
1924
1572
1636
1259
1446
1076
1410
1130
1413
1124
1475
1114
1365
1095
1325
1083
1398
1189
1531
1089
1341
1001
1358
1098
1300
979
1282
1029
1134
891
1197
887
1268
880
1157
898
1210
1097
1460
1342
1426
791
0
0
2163
2072
2534
2154
2615
2337
2669
2186
2468
2037
2205
1707
2110
1872
2285
1970
2274
1977
2175
1801
2082
1764
2141
1759
2118
1803
2087
1860
2137
1877
2122
1833
2180
1854
2258
2075
2457
2224
2500
2074
2295
1865
2163
1858
2199
1957
2245
1941
2201
1823
2196
1797
2147
1830
2109
1815
2194
1846
2189
1973
2395
2170
2435
2154
2404
1968
2075
1662
2024
1618
1972
1556
1997
1694
1929
1593
1938
1633
1909
1614
1983
1674
1968
1672
1861
1618
1964
1644
2044
1614
1897
1554
1769
1401
1771
1403
1790
1419
1662
1409
1834
1675
2038
1849
2040
1330
0
0
2290
2274
2740
2546
2813
2450
2717
2455
2557
2110
2345
1858
2090
1854
2323
2049
2275
1995
2218
1822
2146
1867
2172
1888
2214
1999
2185
1971
2100
1867
2230
1926
2189
1951
2247
2106
2465
2250
2502
2068
2198
1832
2088
1826
2100
1810
2101
1814
2135
1770
2018
1834
2066
1806
2057
1834
2044
1786
2102
1837
2090
1893
2154
1909
2193
1770
1913
1635
1883
1573
1850
1531
1730
1540
1774
1522
1753
1529
1707
1470
1826
1521
1687
1506
1641
1406
1811
1718
1908
1640
1725
1517
1553
1419
1534
1237
1582
1289
1521
1275
1608
1531
1943
1650
1794
1209
0
0
2166
2201
2511
2413
2685
2325
2622
2235
2355
1922
2082
1690
1946
1682
2002
1715
1950
1653
1998
1707
1924
1693
2116
1810
2120
1877
2050
1771
2017
1750
2053
1687
2077
1768
2171
1997
2370
2021
2309
1896
2002
1697
2018
1672
1962
1608
1914
1591
1973
1578
1835
1657
1986
1658
1958
1747
1950
1671
1962
1645
1919
1632
1893
1586
1942
1636
1757
1577
1827
1499
1685
1469
1716
1409
1721
1445
1673
1453
1710
1297
1693
1329
1529
1350
1578
1303
1724
1642
1845
1564
1745
1491
1553
1363
1472
1131
1456
1162
1324
1186
1588
1476
1829
1462
1598
1009
0
0
1806
1853
2253
2013
2337
1917
2312
1946
2019
1605
1733
1364
1614
1403
1738
1478
1618
1284
1670
1353
1514
1362
1783
1595
1914
1637
1806
1512
1788
1578
1743
1507
1761
1642
2011
1778
2069
1736
1851
1494
1706
1502
1675
1412
1705
1364
1706
1362
1677
1301
1660
1424
1776
1458
1861
1686
1819
1503
1655
1278
1550
1266
1514
1277
1612
1230
1498
1277
1413
1185
1495
1181
1414
1204
1464
1333
1659
1318
1485
1106
1401
1129
1259
1042
1305
1015
1377
1374
1551
1329
1521
1393
1462
1155
1138
906
1242
925
1145
963
1346
1192
1434
1153
1090
623
0
0
2052
2042
2501
2290
2625
2281
2596
2194
2381
1961
2212
1754
2054
1797
2181
1851
2107
1819
2073
1756
2011
1730
2222
2092
2436
2185
2314
2040
2316
2010
2325
2012
2347
2197
2553
2268
2420
2054
2338
1840
2258
1884
2226
1908
2210
1881
2310
1900
2225
1897
2119
1906
2359
2189
2574
2317
2488
2039
2154
1765
1987
1726
2095
1698
2091
1713
2021
1754
1919
1674
2018
1732
1995
1836
2260
2122
2301
1974
2087
1662
1997
1641
1844
1612
1948
1593
1864
1745
2078
1824
2198
2038
2167
1735
1890
1427
1810
1482
1686
1491
1902
1733
2104
1556
1676
1134
0
0
2320
2347
2805
2472
2671
2469
2732
2466
2676
2278
2477
2128
2429
2090
2349
2099
2405
2139
2365
2041
2201
2048
2487
2246
2605
2336
2626
2289
2442
2191
2406
2250
2501
2314
2582
2280
2422
2102
2301
1949
2235
2057
2266
2040
2377
2022
2309
2021
2176
1863
2129
2027
2318
2194
2502
2402
2446
1913
2063
1674
1858
1623
1805
1642
1936
1594
1867
1533
1864
1533
1803
1557
1897
1842
2192
1981
2186
1890
1819
1522
1740
1461
1658
1387
1646
1370
1640
1485
1755
1517
2003
1798
1995
1569
1661
1294
1521
1271
1485
1221
1648
1429
1709
1268
1434
942
0
0
2226
2133
2561
2308
2571
2314
2650
2202
2578
2102
2383
2061
2402
2025
2341
2027
2271
1925
2233
1867
2107
1990
2275
2106
2557
2249
2477
2150
2260
2126
2314
2058
2389
2090
2402
2101
2179
1860
2128
1781
2170
1897
2122
1938
2274
2052
2292
2002
2202
1838
2122
1924
2309
2172
2536
2290
2347
1828
1986
1515
1771
1546
1803
1498
1893
1528
1716
1378
1661
1429
1707
1539
1865
1709
2105
1845
2098
1725
1719
1306
1541
1295
1525
1317
1523
1241
1530
1306
1614
1343
1824
1597
1755
1366
1430
1239
1402
1194
1455
1130
1517
1200
1522
1103
1236
773
0
0
1846
1877
2274
1978
2277
2106
2362
2090
2203
1925
2164
1841
2118
1819
2036
1808
1966
1652
1954
1630
1797
1636
1967
1759
2212
1851
2133
1805
1930
1637
1846
1706
2044
1810
2018
1769
1862
1588
1772
1484
1841
1577
1790
1578
1954
1721
2056
1738
2003
1672
1901
1762
2088
1898
2229
1938
2134
1599
1747
1373
1478
1294
1462
1313
1601
1173
1418
1173
1421
1125
1395
1264
1690
1544
1886
1627
1688
1366
1448
1120
1316
1110
1260
1072
1342
976
1253
1120
1305
1089
1542
1225
1362
1014
1178
982
1177
918
1195
1059
1271
922
1192
801
1075
589
0
0
2170
2013
2618
2229
2453
2225
2516
2220
2538
2109
2356
2061
2416
1986
2282
1989
2246
1908
2133
1897
2171
1847
2235
1978
2413
2106
2354
2019
2171
1970
2286
1974
2466
2132
2426
2082
2276
1903
2194
1925
2171
1890
2251
1986
2337
2074
2341
2085
2353
1940
2314
2114
2593
2274
2597
2262
2554
2065
2347
1867
2030
1777
2037
1880
2139
1753
2053
1659
1931
1689
1964
1763
2245
2004
2356
2041
2246
1861
1995
1723
1989
1762
2039
1702
1989
1655
1959
1704
1930
1658
2050
1645
1945
1528
1809
1563
1859
1619
1901
1710
1975
1576
1816
1378
1613
1079
0
0
2253
2250
2772
2461
2755
2475
2703
2383
2523
2162
2422
2080
2365
2010
2322
2037
2249
1837
2123
1861
2068
1910
2141
1946
2338
1994
2293
1893
2180
1973
2256
2073
2313
2122
2333
1924
2167
1897
2145
1781
2085
1937
2160
1786
2184
1878
2136
1796
2105
1860
2170
1958
2423
2060
2302
1909
2180
1877
2048
1729
1992
1690
2005
1738
2024
1645
1846
1617
1860
1579
1768
1497
1892
1814
2077
1722
1898
1467
1755
1556
1840
1614
1882
1581
1657
1485
1682
1524
1734
1401
1668
1390
1573
1373
1553
1410
1743
1338
1903
1502
1764
1322
1475
1030
1357
880
0
0
2049
2089
2588
2319
2577
2293
2521
2124
2292
1925
2114
1662
2054
1783
2062
1806
2021
1597
1981
1554
1930
1723
1969
1669
2042
1733
2042
1719
2066
1860
2261
2067
2167
1873
2194
1701
2010
1698
2001
1686
1966
1652
2085
1705
2069
1692
2005
1677
1925
1596
1990
1730
2172
1757
2058
1659
1932
1570
1819
1661
1821
1657
1966
1690
1993
1514
1813
1509
1765
1480
1626
1298
1802
1547
1832
1515
1723
1373
1621
1461
1794
1574
1901
1491
1677
1506
1782
1473
1804
1380
1594
1223
1485
1160
1447
1282
1689
1394
1818
1444
1623
1214
1354
926
1205
710
0
0
1796
1850
2280
1957
2250
1925
2062
1721
1863
1423
1674
1269
1678
1382
1678
1356
1751
1348
1610
1324
1618
1399
1668
1388
1778
1354
1744
1453
1764
1619
2011
1758
1958
1494
1853
1360
1703
1408
1741
1394
1738
1428
1813
1403
1684
1416
1685
1313
1602
1391
1702
1377
1765
1420
1685
1409
1637
1279
1570
1267
1582
1430
1816
1606
1882
1395
1579
1322
1475
1167
1394
1115
1442
1246
1561
1227
1425
1110
1257
1150
1550
1269
1672
1338
1409
1301
1683
1446
1646
1225
1357
1047
1314
1017
1307
1230
1566
1210
1602
1102
1290
1009
1079
704
957
501
0
0
2092
2066
2539
2218
2538
2109
2287
1843
2021
1561
1922
1509
1899
1670
1917
1629
2098
1647
1978
1661
2030
1738
2070
1751
2089
1704
2083
1777
2178
2015
2411
2222
2350
2027
2210
1811
2101
1821
2149
1834
2153
1851
2180
1834
2205
1837
2206
1883
2166
1834
2164
1927
2248
1834
2248
1810
2114
1779
1995
1781
2053
1902
2329
2058
2388
1984
2215
1873
2118
1787
1934
1641
1937
1762
2071
1790
1956
1581
1944
1713
2076
1808
2165
1767
1972
1874
2306
2050
2219
1701
1998
1562
1866
1613
1849
1779
2130
1755
2058
1557
1787
1461
1723
1275
1594
1096
0
0
2266
2249
2579
2448
2690
2245
2382
1899
2075
1728
2098
1683
2122
2026
2288
2008
2233
1942
2069
1840
2251
1947
2254
1953
2190
1860
2274
1995
2193
2081
2563
2260
2461
2082
2184
1874
2146
1954
2193
1845
2240
1924
2165
1837
2121
1922
2013
1759
2063
1776
2106
1685
1973
1690
1935
1626
1928
1609
1904
1530
1827
1618
1978
1830
2230
1898
2151
1721
1913
1670
1853
1553
1819
1668
1829
1501
1652
1403
1642
1499
1725
1532
1790
1478
1835
1650
2138
1866
1925
1489
1636
1338
1578
1314
1554
1403
1773
1460
1641
1258
1492
1102
1378
1111
1420
789
0
0
2190
2166
2533
2326
2597
2129
2303
1861
1938
1570
1992
1748
2149
2022
2323
1972
2213
1835
2118
1773
2171
1833
2213
1890
2140
1799
2249
1965
2234
2073
2501
2121
2365
1997
2175
1741
2077
1883
2224
1846
2246
1883
2173
1717
2042
1705
1898
1582
2029
1654
1942
1618
1937
1681
1869
1547
1896
1529
1866
1520
1755
1493
1874
1595
2164
1734
1925
1645
1889
1598
1770
1481
1815
1597
1757
1461
1616
1321
1589
1337
1680
1386
1655
1358
1739
1581
2002
1729
1765
1342
1562
1250
1458
1109
1449
1273
1621
1270
1556
1082
1343
969
1290
1078
1366
854
0
0
1826
1858
2242
2054
2235
1893
2106
1557
1713
1390
1867
1585
1993
1877
2068
1815
1977
1730
1902
1645
1895
1677
1966
1709
1970
1676
1914
1669
2053
1789
2214
1899
2054
1713
1902
1653
1859
1716
2002
1757
2054
1834
1898
1491
1746
1533
1685
1388
1811
1506
1755
1525
1731
1426
1670
1437
1637
1259
1554
1266
1486
1229
1506
1270
1762
1306
1654
1313
1581
1354
1623
1398
1654
1477
1556
1220
1355
1092
1274
940
1337
1101
1364
1137
1485
1346
1718
1415
1405
1019
1284
1066
1225
955
1245
1002
1282
1012
1303
946
1068
779
1163
927
1216
683
0
0
2078
2056
2431
2201
2539
2037
2378
1860
2014
1722
2186
1942
2301
2172
2352
2129
2449
1941
2237
1838
2151
1805
2254
1973
2251
1881
2323
2014
2309
2063
2534
2135
2293
1930
2334
1981
2327
2070
2454
2118
2481
2095
2357
1946
2349
2081
2258
2067
2347
2114
2354
2057
2317
1914
2155
1781
2165
1776
1966
1696
2025
1645
1953
1682
2065
1701
1990
1684
1968
1766
2141
2021
2354
2029
2159
1778
1982
1581
1911
1525
1865
1599
1923
1636
1980
1837
2171
1688
1981
1532
1830
1564
1833
1378
1785
1517
1779
1473
1722
1401
1707
1269
1653
1461
1840
1284
0
0
2343
2316
2792
2445
2596
2394
2616
2190
2383
2021
2285
2154
2425
2282
2525
2220
2441
2066
2235
1907
2093
1903
2212
1937
2133
1885
2187
2004
2334
2109
2370
1979
2185
1891
2141
1933
2255
2037
2353
2165
2512
2101
2361
2062
2263
2089
2315
2186
2437
2116
2468
2129
2378
1993
2164
1779
1924
1658
1834
1620
1829
1616
1829
1570
1984
1567
1756
1621
1861
1659
2006
1853
2162
1933
2139
1640
1836
1593
1709
1413
1771
1474
1693
1541
1709
1685
1793
1495
1764
1392
1645
1340
1629
1371
1684
1485
1662
1482
1641
1170
1419
1181
1410
1197
1581
1213
0
0
2253
2183
2635
2268
2462
2209
2445
2034
2197
1815
2158
1861
2212
2018
2282
1992
2179
1788
2017
1630
1833
1691
1925
1629
1917
1659
2026
1707
2184
1892
2069
1744
2020
1715
1942
1738
1981
1783
2048
1869
2109
1885
2141
1825
2072
1891
2198
1952
2292
2087
2301
2054
2365
1938
2055
1604
1762
1522
1706
1445
1729
1547
1834
1445
1794
1498
1642
1409
1711
1450
1803
1645
2024
1677
2043
1576
1801
1413
1666
1297
1674
1300
1523
1345
1613
1479
1622
1288
1563
1322
1572
1309
1626
1365
1761
1438
1721
1438
1553
1028
1291
1031
1294
1081
1389
821
0
0
1850
1909
2256
2024
2203
1876
2091
1647
1951
1434
1718
1409
1767
1531
1787
1586
1738
1381
1611
1289
1508
1279
1621
1322
1668
1431
1744
1451
1818
1530
1746
1498
1669
1380
1492
1317
1597
1374
1597
1382
1754
1418
1624
1445
1734
1402
1737
1592
1901
1539
1992
1642
1960
1685
1722
1293
1492
1221
1432
1181
1517
1362
1530
1275
1563
1178
1414
1165
1405
1210
1562
1336
1582
1298
1621
1317
1630
1284
1364
1082
1384
1008
1293
1070
1295
1148
1325
1111
1301
1066
1402
1028
1386
1206
1594
1395
1521
1200
1270
798
1069
775
1028
800
968
635
0
0
2070
2090
2567
2238
2475
2107
2352
1859
2126
1669
1927
1575
1930
1680
1970
1777
1977
1644
1911
1645
1909
1676
2047
1705
2117
1865
2206
1914
2219
1842
2125
1754
2132
1766
2038
1687
1961
1779
2058
1778
2071
1724
2070
1818
2117
1781
2084
1853
2234
1922
2250
1990
2422
2026
2210
1695
2022
1716
2010
1764
2170
1906
2169
1875
2116
1642
1967
1678
1871
1587
1962
1727
2029
1672
2050
1707
2037
1717
1874
1669
2036
1565
1955
1633
1892
1730
1870
1597
1842
1506
1853
1574
1911
1713
2165
1851
2109
1763
1861
1339
1608
1272
1523
1299
1554
980
0
0
2312
2284
2722
2498
2644
2283
2581
2173
2258
1993
2005
1803
2029
1802
2081
1752
2086
1825
2062
1821
2101
1816
2186
1861
2229
2102
2398
2066
2381
1944
2146
1743
2134
1805
2089
1826
2049
1828
2068
1781
2011
1819
1949
1728
1988
1737
1978
1748
2116
1758
2081
1849
2100
1850
1969
1626
1878
1693
1879
1782
2199
1896
2290
1937
2095
1602
1867
1430
1757
1452
1755
1559
1749
1474
1711
1483
1642
1381
1758
1553
1862
1581
1809
1514
1900
1625
1705
1348
1620
1373
1589
1451
1701
1558
1977
1716
1977
1466
1546
1173
1342
1105
1371
1026
1330
778
0
0
2066
2052
2492
2256
2489
2073
2305
1889
2091
1726
1890
1632
1781
1498
1845
1546
1851
1581
1869
1608
1894
1661
2103
1769
2158
1919
2410
1965
2133
1692
1833
1572
2014
1590
1876
1594
1846
1625
1882
1554
1776
1581
1815
1567
1810
1537
1797
1520
1862
1482
1744
1590
1837
1522
1733
1461
1691
1485
1824
1652
2109
1866
2182
1805
2026
1498
1818
1350
1669
1301
1568
1365
1599
1314
1480
1222
1444
1189
1513
1390
1746
1450
1787
1504
1766
1524
1560
1229
1449
1190
1378
1231
1589
1482
1818
1493
1735
1245
1366
1028
1275
951
1209
837
1051
496
0
0
1745
1766
2195
2036
2231
1836
2053
1680
1798
1546
1642
1462
1675
1426
1580
1293
1614
1365
1594
1460
1735
1562
1986
1636
2075
1833
2139
1766
1911
1493
1737
1458
1690
1353
1538
1348
1622
1301
1626
1314
1614
1317
1570
1354
1573
1331
1521
1283
1609
1221
1534
1322
1456
1227
1415
1147
1397
1203
1461
1490
1895
1647
2010
1672
1829
1349
1693
1144
1397
1093
1271
1133
1348
1019
1266
1033
1197
937
1211
1101
1463
1345
1637
1419
1649
1277
1341
1011
1230
1024
1170
1040
1235
1097
1460
1253
1323
983
1093
837
1078
753
995
642
987
378
0
0
1962
1919
2424
2224
2463
2091
2371
2026
2198
1957
2104
1922
2068
1751
2060
1708
2090
1787
2122
1883
2261
1965
2491
2198
2564
2330
2583
2149
2338
1954
2333
1884
2234
1748
2095
1739
2057
1770
2171
1938
2157
1934
2122
1844
2061
1717
2014
1703
2066
1668
2002
1737
1973
1675
1886
1661
1933
1603
1942
1874
2297
2035
2478
2022
2406
1970
2167
1732
2054
1641
1855
1646
1870
1604
1827
1565
1773
1513
1778
1635
1996
1866
2275
1962
2349
1877
1959
1548
1837
1561
1740
1556
1822
1564
1998
1632
1909
1515
1646
1356
1604
1417
1572
1252
1517
869
0
0
2173
2217
2587
2370
2612
2245
2545
2235
2493
2228
2388
2072
2395
2085
2322
2033
2310
2027
2330
2018
2321
2146
2573
2357
2676
2338
2529
2150
2330
2077
2426
2010
2295
1787
2004
1814
2086
1938
2331
2054
2285
2026
2258
1941
2130
1861
2018
1646
1909
1653
1862
1597
1787
1550
1720
1585
1778
1553
1847
1514
2006
1819
2163
1861
2205
1850
2161
1837
1931
1512
1832
1545
1669
1442
1717
1394
1691
1299
1556
1403
1738
1653
2033
1949
2037
1709
1816
1418
1588
1236
1486
1188
1506
1342
1587
1274
1477
1247
1461
1192
1405
1211
1353
1097
1364
769
0
0
2056
1909
2423
2118
2449
2095
2410
2062
2402
1990
2317
1973
2229
1861
2139
1748
2087
1778
2013
1706
2021
1869
2269
2054
2389
2060
2166
1845
2065
1813
2102
1678
1975
1571
1840
1527
1875
1830
2229
1926
2134
1884
2218
1942
2122
1757
1906
1485
1787
1531
1722
1474
1694
1410
1591
1458
1585
1421
1643
1264
1712
1495
1851
1515
1840
1541
1909
1594
1820
1430
1701
1420
1584
1322
1606
1204
1458
1254
1444
1286
1640
1557
1900
1689
1880
1526
1653
1281
1427
1187
1353
1034
1288
1167
1368
1117
1258
979
1242
1001
1291
1218
1343
1024
1121
618
0
0
1669
1620
2068
1949
2157
1816
2122
1823
2087
1715
1953
1609
1881
1550
1739
1326
1712
1358
1485
1263
1603
1425
1833
1668
2066
1640
1739
1482
1600
1418
1640
1258
1653
1323
1494
1271
1586
1448
1845
1557
1828
1614
1835
1658
1934
1557
1775
1402
1661
1402
1662
1275
1435
1170
1275
1109
1354
1122
1378
1001
1359
1044
1450
1087
1517
1261
1530
1263
1595
1222
1497
1234
1294
1042
1338
986
1275
936
1265
1073
1501
1429
1770
1466
1550
1179
1334
1093
1177
901
1170
859
1102
744
1094
894
1093
819
1125
859
1157
990
1147
859
1062
499
0
0
1875
1829
2245
2028
2376
1956
2387
2005
2265
1898
2138
1691
1972
1624
1914
1634
1883
1508
1805
1544
1888
1627
2150
1921
2299
1868
2102
1746
1984
1642
2021
1610
1985
1629
1890
1658
1988
1742
2132
1797
2053
1876
2194
2026
2263
2058
2290
1997
2311
2002
2206
1871
2119
1636
1879
1630
1834
1542
1845
1418
1842
1519
1873
1544
1889
1611
1875
1565
1978
1621
1926
1676
1913
1594
2018
1578
1873
1522
1894
1645
2134
1881
2136
1826
1973
1623
1894
1602
1802
1559
1702
1348
1617
1387
1597
1365
1578
1362
1708
1409
1762
1618
1787
1350
1650
1091
0
0
1925
1861
2297
2093
2381
2038
2387
2066
2263
1826
2049
1754
1930
1606
1917
1562
1963
1607
1838
1597
1889
1644
2026
1846
2203
1831
1977
1694
1919
1573
1835
1631
1860
1570
1898
1579
1842
1546
1966
1622
1834
1658
1961
1748
2125
1789
2026
1901
2231
1943
2222
1898
1930
1587
1810
1586
1815
1408
1628
1307
1669
1397
1669
1373
1578
1339
1675
1394
1637
1366
1649
1367
1556
1291
1668
1454
1687
1383
1693
1620
1912
1725
1864
1442
1613
1306
1591
1290
1635
1478
1509
1197
1417
1115
1265
1018
1337
1066
1354
1147
1451
1292
1548
1186
1354
783
0
0
1624
1590
1947
1753
2085
1807
2162
1672
1937
1479
1708
1337
1642
1272
1645
1318
1601
1293
1578
1387
1717
1418
1806
1622
1847
1527
1773
1426
1651
1297
1658
1283
1723
1349
1608
1367
1585
1289
1714
1362
1547
1329
1652
1366
1811
1457
1791
1588
2001
1687
2046
1669
1864
1435
1672
1433
1693
1252
1558
1170
1530
1173
1454
1101
1417
1141
1483
1173
1371
1124
1402
1169
1371
1098
1451
1242
1597
1329
1661
1453
1818
1433
1605
1077
1330
985
1284
1097
1405
1206
1287
900
1275
957
1130
907
1219
785
1190
925
1220
987
1339
1034
1221
756
0
0
1149
1092
1386
1200
1462
1214
1581
1119
1393
997
1122
709
1066
810
1126
818
1120
722
1173
869
1245
933
1286
1122
1428
1024
1242
938
1251
938
1187
827
1231
830
1162
890
1183
812
1334
937
1115
946
1173
901
1167
887
1193
1037
1531
1211
1353
1042
1275
986
1253
1013
1277
890
1190
745
1105
810
994
779
957
715
938
680
885
660
978
686
947
705
1002
834
1138
925
1220
965
1243
827
1005
648
861
566
838
539
884
658
860
474
828
538
746
537
826
379
752
533
669
582
922
616
893
411
0
0
0
0
0
0
0
0
0
0
0
0
0
0
0
0
0
0
0
0
0
0
0
0
0
0
0
0
0
0
0
0
0
0
0
0
0
0
0
0
0
0
0
0
0
0
0
0
0
0
0
0
0
0
0
0
0
0
0
0
0
0
0
0
0
0
0
0
0
0
0
0
0
0
0
0
0
0
0
0
0
0
0
0
0
0
0
0
0
0
0
0
0
0
0
0
0
0
0
0
0
0
0
0
0
0
0
0
0
