P2
108 88
4095
0
0
0
0
0
0
0
0
0
0
0
0
0
0
0
0
0
0
0
0
0
0
0
0
0
0
0
0
0
0
0
0
0
0
0
0
0
0
0
0
0
0
0
0
0
0
0
0
0
0
0
0
0
0
0
0
0
0
0
0
0
0
0
0
0
0
0
0
0
0
0
0
0
0
0
0
0
0
0
0
0
0
0
0
0
0
0
0
0
0
0
0
0
0
0
0
0
0
0
0
0
0
0
0
0
0
0
0
0
976
850
1197
877
1285
983
1323
1035
1397
1111
1271
971
1362
1129
1403
1128
1470
1208
1466
1212
1433
1261
1576
1264
1498
1306
1513
1270
1605
1278
1611
1250
1651
1253
1594
1272
1549
1264
1616
1261
1677
1370
1623
1334
1575
1249
1405
1178
1459
1146
1506
1218
1542
1137
1486
1218
1375
1124
1489
1157
1469
1114
1354
1066
1472
1131
1389
1054
1325
1035
1307
1060
1273
1008
1254
1001
1205
855
1227
899
1184
874
1278
931
1250
978
1220
1051
1355
1002
1264
895
1104
820
1125
754
1076
786
1178
693
925
667
908
733
925
471
0
0
762
763
1034
683
1149
762
1145
888
1138
922
1130
817
1127
877
1290
1005
1265
1034
1327
1052
1349
1074
1452
1081
1381
1149
1429
1100
1410
1142
1442
1110
1473
1089
1493
1127
1370
1156
1347
1126
1461
1228
1437
1181
1354
1102
1290
1122
1414
1045
1415
1122
1383
1082
1301
1058
1277
1013
1327
972
1296
943
1252
1018
1373
1092
1318
1018
1297
922
1194
970
1189
925
1197
889
1093
827
1148
854
1136
869
1144
756
1122
893
1076
972
1270
1066
1295
868
1094
755
955
734
1053
688
1086
723
897
568
882
616
817
433
0
0
1038
942
1356
965
1401
1067
1460
1131
1529
1273
1479
1166
1546
1225
1565
1334
1697
1412
1726
1429
1733
1464
1837
1490
1797
1533
1796
1523
1802
1664
1986
1565
1942
1554
1969
1565
1819
1556
1801
1550
1842
1513
1819
1562
1881
1584
1817
1557
1882
1569
1937
1653
2011
1540
1890
1533
1691
1497
1867
1458
1850
1485
1846
1498
1963
1578
1858
1541
1835
1454
1804
1494
1841
1549
1818
1516
1714
1367
1713
1389
1678
1367
1716
1396
1770
1449
1654
1540
1884
1613
1965
1394
1585
1322
1610
1325
1677
1285
1649
1277
1557
1139
1543
1210
1482
1025
0
0
1409
1326
1674
1444
1789
1458
1829
1514
1797
1534
1738
1480
1837
1563
1831
1661
1902
1614
1885
1666
2015
1734
2005
1825
1897
1770
1947
1761
2038
1786
2143
1735
2039
1678
2012
1819
2001
1653
1970
1653
1989
1686
1954
1665
1975
1636
1869
1597
1947
1691
1989
1620
1930
1682
1868
1677
1854
1499
1822
1590
1800
1492
1726
1490
1793
1531
1818
1451
1702
1451
1685
1521
1802
1620
1698
1431
1704
1301
1509
1362
1593
1371
1622
1274
1577
1282
1507
1350
1681
1374
1754
1323
1657
1243
1610
1370
1614
1207
1597
1110
1418
1034
1377
1098
1252
778
0
0
1252
1160
1525
1235
1682
1292
1834
1412
1634
1380
1650
1419
1722
1330
1716
1442
1762
1493
1778
1543
1898
1495
1844
1650
1821
1577
1828
1685
1961
1755
2064
1677
2014
1757
1871
1483
1829
1545
1828
1499
1847
1514
1834
1523
1898
1570
1875
1453
1913
1511
1865
1610
1955
1659
1858
1531
1815
1349
1682
1463
1740
1399
1666
1378
1773
1408
1655
1318
1659
1258
1623
1426
1754
1461
1655
1334
1590
1150
1461
1220
1470
1162
1421
1146
1501
1175
1450
1154
1493
1138
1533
1159
1483
1257
1642
1378
1519
1154
1412
946
1325
938
1186
923
1128
613
0
0
1067
926
1182
1026
1363
1082
1522
1129
1379
1168
1347
994
1402
1099
1381
1177
1468
1225
1534
1326
1626
1343
1621
1370
1608
1367
1626
1330
1707
1485
1844
1437
1849
1362
1705
1327
1530
1267
1626
1209
1541
1193
1530
1221
1629
1328
1609
1214
1647
1265
1731
1490
1763
1361
1654
1338
1522
1090
1425
1248
1394
1094
1317
1062
1394
1082
1379
1102
1346
1094
1330
1183
1453
1195
1445
1019
1301
1032
1087
929
1291
926
1069
859
1147
870
1051
945
1181
820
1202
930
1250
1138
1406
1165
1329
852
1167
619
1037
685
978
701
752
300
0
0
1382
1173
1547
1310
1828
1464
1946
1481
1755
1547
1730
1386
1834
1429
1790
1597
1930
1646
2039
1749
2071
1777
2047
1788
2090
1837
2139
1875
2210
2050
2404
1914
2259
1925
2230
1826
2034
1699
2185
1758
2066
1689
1973
1733
2082
1799
2045
1668
2032
1936
2298
2083
2402
2009
2196
1947
2126
1662
1885
1709
1958
1599
1898
1553
1873
1658
1906
1547
1914
1530
1860
1654
2026
1741
1890
1626
1918
1563
1791
1588
1858
1502
1797
1472
1882
1403
1738
1464
1785
1417
1821
1466
1966
1687
2118
1830
1930
1427
1753
1304
1687
1270
1562
1206
1342
835
0
0
1634
1531
1927
1738
2075
1898
2230
1806
2171
1815
2067
1721
1962
1750
2089
1777
2148
1892
2194
1825
2033
1884
2189
1770
2197
1841
2155
1882
2282
2106
2472
2101
2288
1977
2149
1894
2226
1949
2132
1876
2098
1825
2107
1723
1994
1706
2054
1773
1988
1852
2201
2010
2349
2116
2286
1939
2086
1693
1846
1517
1810
1566
1815
1527
1904
1490
1778
1458
1786
1394
1806
1523
1818
1506
1695
1521
1702
1477
1723
1424
1842
1355
1577
1339
1604
1298
1641
1353
1576
1316
1541
1402
1786
1666
1954
1566
1734
1284
1498
1188
1395
1119
1239
994
1232
764
0
0
1437
1253
1691
1406
1894
1653
2036
1560
1832
1549
1753
1429
1819
1618
1949
1565
1874
1573
1903
1521
1765
1545
1891
1544
1985
1602
1926
1621
2054
1865
2188
1769
2035
1591
1921
1523
1985
1621
1950
1572
1851
1492
1901
1462
1814
1573
1817
1562
1755
1585
1925
1794
2184
1844
2026
1673
1873
1502
1704
1346
1722
1434
1649
1365
1768
1457
1730
1294
1683
1269
1618
1395
1535
1283
1509
1323
1510
1316
1650
1378
1714
1271
1525
1211
1458
1162
1478
1195
1347
1243
1396
1254
1649
1486
1805
1320
1613
1257
1276
1010
1309
930
1092
788
1055
602
0
0
1108
941
1314
1053
1449
1319
1640
1285
1562
1183
1353
1101
1346
1205
1477
1198
1516
1218
1524
1179
1445
1257
1572
1264
1669
1394
1618
1259
1627
1472
1717
1469
1688
1374
1533
1288
1586
1370
1535
1322
1561
1221
1629
1288
1554
1309
1570
1298
1570
1421
1674
1451
1674
1463
1712
1333
1626
1323
1495
1174
1510
1220
1469
1167
1476
1214
1482
1201
1498
1137
1487
1138
1301
1045
1293
1114
1322
1111
1460
1186
1524
1120
1381
1060
1288
981
1237
962
1253
1005
1179
1000
1442
1229
1497
1125
1284
966
1097
810
1064
693
885
553
885
341
0
0
1276
1110
1474
1163
1638
1345
1785
1380
1773
1345
1675
1342
1661
1389
1819
1451
1790
1515
1818
1461
1842
1604
2010
1570
2037
1685
1988
1615
2018
1771
2158
1769
2076
1659
1956
1681
2000
1764
2069
1717
1974
1634
2054
1682
2074
1798
2074
1785
2010
1796
2107
1808
2117
1730
2101
1640
2021
1739
1945
1598
2042
1736
2017
1674
2167
1741
2170
1874
2191
1752
2022
1654
1862
1609
1848
1552
1841
1626
1865
1589
2006
1741
2069
1670
1967
1581
1831
1514
1757
1533
1817
1630
1995
1717
1909
1462
1791
1526
1685
1400
1650
1276
1609
1166
1514
1021
0
0
1413
1335
1770
1397
1718
1483
1815
1435
1730
1448
1786
1497
1809
1629
1873
1520
1877
1626
2030
1714
1833
1697
2039
1767
1949
1749
2062
1818
2099
1909
2174
1812
2002
1733
1974
1721
2004
1736
1970
1681
1937
1738
1994
1642
1982
1805
2154
1845
2102
1678
1931
1681
1927
1710
1847
1623
1918
1608
1893
1578
1870
1591
1893
1614
2069
1812
2091
1903
2157
1658
1775
1508
1777
1404
1714
1405
1742
1362
1597
1385
1696
1508
1954
1518
1872
1435
1597
1364
1590
1320
1611
1433
1701
1313
1673
1165
1490
1206
1424
1217
1494
1203
1417
1113
1106
752
0
0
1291
1158
1543
1241
1556
1285
1602
1256
1601
1242
1645
1380
1643
1467
1790
1495
1797
1579
1865
1520
1794
1613
1947
1645
1906
1638
1943
1677
1949
1650
1965
1610
1847
1594
1885
1598
1872
1642
1974
1609
1840
1641
1913
1586
2013
1867
2185
1770
2043
1494
1789
1517
1802
1548
1843
1485
1825
1494
1746
1458
1730
1474
1758
1525
1989
1850
2212
1871
2004
1453
1682
1298
1709
1402
1590
1267
1546
1194
1506
1271
1565
1409
1709
1419
1739
1313
1527
1224
1527
1230
1606
1322
1444
1269
1485
1101
1421
1107
1364
1093
1401
1196
1324
963
1077
598
0
0
1064
923
1304
970
1305
969
1242
953
1307
987
1355
1153
1412
1213
1589
1239
1550
1360
1638
1418
1573
1325
1653
1468
1713
1410
1709
1512
1626
1429
1682
1397
1610
1446
1778
1474
1769
1465
1771
1391
1675
1371
1753
1490
1958
1720
2029
1615
1898
1345
1618
1330
1492
1288
1441
1209
1601
1220
1553
1227
1378
1202
1482
1362
1705
1625
1941
1626
1769
1254
1437
1147
1426
977
1394
1094
1301
1025
1328
1030
1277
1094
1501
1035
1352
1124
1224
1075
1269
982
1293
1061
1294
1012
1245
869
1235
893
1103
871
1178
900
1211
820
949
441
0
0
1245
1042
1530
1219
1575
1198
1608
1258
1610
1317
1764
1410
1765
1497
1925
1605
1994
1707
2108
1793
2025
1781
2085
1789
2094
1780
2123
1859
1997
1787
2118
1836
2121
1871
2205
1922
2264
2028
2254
1828
2149
1928
2221
2090
2448
2238
2565
2163
2390
1842
2059
1704
2017
1769
1995
1701
2069
1780
2006
1629
1965
1696
2018
1685
2214
2039
2490
2077
2261
1718
1973
1650
2002
1590
1974
1642
1905
1588
1842
1484
1877
1597
1929
1461
1892
1526
1790
1621
1947
1550
1941
1577
1840
1407
1805
1403
1700
1466
1668
1417
1791
1386
1726
1348
1512
980
0
0
1515
1456
1829
1577
1769
1574
1890
1642
1895
1550
1886
1708
1959
1673
2176
1988
2201
1940
2198
2029
2279
1868
2189
1893
2212
1865
2069
1824
2067
1773
2091
1828
2043
1938
2198
2002
2318
2022
2235
1901
2276
1893
2186
2013
2451
2161
2487
2129
2266
1851
2021
1682
1893
1666
1850
1597
1824
1582
1883
1673
1864
1554
1869
1710
2039
1917
2218
1830
1878
1516
1781
1444
1749
1615
1829
1476
1649
1483
1700
1412
1623
1361
1554
1314
1576
1276
1603
1414
1694
1434
1722
1384
1610
1273
1524
1255
1549
1208
1466
1165
1444
1192
1390
1160
1349
816
0
0
1451
1395
1779
1545
1818
1533
1902
1562
1870
1557
1928
1477
1837
1675
2090
1819
2122
1741
2075
1850
2121
1749
2042
1671
2057
1723
1989
1642
1903
1689
2017
1705
2048
1749
1999
1735
2171
1802
2043
1804
2070
1753
2058
1902
2296
2024
2262
1997
2228
1776
1967
1603
1865
1645
1800
1642
1798
1613
1837
1517
1842
1433
1786
1541
2012
1748
2093
1708
1733
1360
1720
1378
1783
1542
1781
1515
1707
1390
1642
1384
1650
1308
1540
1273
1546
1294
1565
1286
1725
1475
1704
1355
1649
1205
1498
1189
1576
1178
1313
1047
1396
1019
1191
998
1269
666
0
0
1117
1115
1528
1290
1572
1285
1563
1251
1563
1157
1451
1189
1440
1252
1580
1338
1706
1396
1638
1412
1705
1285
1645
1331
1668
1373
1563
1341
1503
1350
1682
1318
1690
1302
1662
1371
1743
1381
1637
1467
1702
1381
1654
1413
1796
1636
1849
1533
1786
1391
1598
1256
1526
1323
1629
1379
1611
1437
1594
1312
1477
1206
1506
1265
1579
1362
1666
1275
1459
1195
1472
1202
1597
1402
1613
1306
1476
1259
1501
1183
1403
1089
1238
1014
1257
1017
1362
1122
1517
1304
1486
1109
1363
953
1243
906
1165
879
1110
744
1001
823
845
677
934
413
0
0
1346
1290
1643
1479
1772
1390
1759
1435
1779
1347
1685
1384
1737
1432
1789
1530
1857
1546
1805
1585
2006
1570
1998
1718
2056
1697
1942
1740
1975
1618
2070
1666
2034
1672
1969
1757
2061
1655
2065
1762
2138
1836
2166
1801
2169
1826
2217
1914
2190
1775
2106
1792
2157
1874
2220
1975
2226
1898
2085
1813
2057
1720
1989
1705
2050
1755
2084
1714
1949
1604
1986
1789
2141
1869
2205
1834
2095
1844
2180
1817
2087
1611
1890
1581
1809
1653
1975
1662
2139
1804
2126
1651
1867
1550
1722
1416
1681
1463
1680
1378
1626
1314
1525
1324
1545
948
0
0
1421
1429
1827
1555
1881
1501
1862
1558
1842
1498
1788
1474
1946
1508
1924
1627
1977
1700
2005
1690
1899
1740
2122
1764
2045
1761
2045
1713
2044
1751
2001
1664
2082
1782
2043
1708
2027
1789
1973
1750
2033
1747
1995
1737
2005
1757
2019
1690
2058
1769
2006
1833
1975
1776
2185
1946
2250
1950
2125
1717
1949
1650
1826
1599
1802
1566
1865
1498
1830
1589
1770
1581
1946
1643
1846
1599
1825
1681
1962
1661
1896
1437
1621
1402
1627
1299
1638
1499
1877
1592
1673
1358
1557
1322
1594
1174
1546
1298
1477
1226
1365
1033
1243
1033
1265
853
0
0
1334
1322
1614
1347
1677
1316
1726
1422
1711
1297
1640
1298
1737
1380
1749
1419
1777
1498
1733
1522
1789
1629
1979
1672
1922
1640
1928
1622
1851
1582
1879
1568
1885
1637
1942
1648
1997
1598
1915
1659
1972
1605
1917
1563
1836
1577
1842
1597
1927
1642
1901
1648
1894
1610
2042
1750
2202
1794
2108
1632
1841
1606
1739
1474
1772
1522
1836
1410
1781
1413
1653
1480
1778
1403
1737
1391
1764
1569
1884
1556
1814
1285
1493
1252
1469
1162
1519
1293
1622
1325
1538
1152
1395
1166
1486
1131
1548
1250
1438
1093
1239
972
1204
985
1170
680
0
0
915
855
1239
1018
1238
885
1322
982
1332
968
1330
961
1435
1052
1339
1199
1433
1166
1508
1229
1504
1327
1670
1356
1622
1333
1633
1313
1604
1307
1591
1264
1679
1278
1570
1394
1626
1378
1590
1270
1577
1285
1571
1322
1535
1297
1614
1352
1613
1290
1620
1402
1530
1314
1624
1433
1779
1439
1704
1339
1666
1306
1445
1208
1580
1210
1481
1158
1426
1144
1429
1250
1374
1109
1442
1086
1454
1290
1585
1198
1526
1010
1257
1003
1198
922
1277
994
1254
940
1265
907
1224
914
1195
961
1401
1083
1280
933
1060
731
1034
725
812
357
0
0
1173
1145
1541
1254
1615
1257
1611
1324
1710
1349
1661
1304
1758
1426
1751
1420
1802
1580
1809
1483
1938
1724
2194
1843
2058
1657
2066
1661
2005
1725
2027
1718
2125
1781
2129
1805
2041
1732
2021
1741
2154
1781
2051
1797
2058
1828
2117
1707
2107
1754
2139
1789
2135
1750
2082
1866
2159
1809
2166
1773
2080
1805
2045
1814
2202
1899
2166
1720
2021
1693
1940
1622
2025
1638
1970
1620
1981
1774
2093
1722
1915
1512
1846
1554
1933
1487
1798
1558
1969
1595
1798
1448
1705
1513
1786
1622
2018
1685
2039
1550
1762
1210
1585
1243
1508
996
0
0
1410
1402
1782
1479
1837
1577
1970
1624
1986
1629
1941
1667
2013
1758
2008
1668
2090
1765
2092
1886
2237
1973
2306
1937
2149
1882
2105
1994
2240
1990
2266
2066
2344
2048
2279
1917
2187
1894
2101
1814
2146
1853
2173
1870
2150
1812
2170
1803
2165
1818
2053
1711
1996
1783
2031
1738
1910
1741
1922
1642
1981
1698
2148
1977
2219
1919
2054
1658
1898
1465
1764
1554
1813
1537
1748
1482
1862
1625
1818
1557
1741
1442
1569
1386
1650
1393
1672
1498
1817
1349
1590
1266
1580
1337
1486
1421
1776
1573
1767
1417
1496
1148
1389
1125
1318
744
0
0
1317
1227
1569
1218
1862
1429
1883
1537
1838
1462
1970
1513
1906
1682
2001
1630
2033
1653
2026
1755
2108
1818
2242
1747
2021
1714
2084
1837
2185
1897
2235
1985
2298
2009
2139
1796
2130
1734
2093
1806
2056
1778
2054
1746
2054
1747
2073
1591
2027
1707
1941
1586
1920
1577
1826
1497
1736
1563
1779
1485
1806
1562
1990
1859
2154
1886
2011
1602
1818
1365
1705
1429
1655
1381
1726
1312
1618
1452
1708
1333
1525
1243
1557
1309
1573
1356
1553
1435
1714
1207
1490
1213
1390
1130
1346
1170
1680
1413
1593
1266
1418
997
1156
990
1171
584
0
0
1092
996
1434
1161
1581
1375
1661
1437
1741
1319
1705
1305
1607
1381
1701
1339
1666
1339
1670
1478
1865
1593
1914
1512
1722
1477
1610
1517
1926
1700
2036
1798
2053
1789
1906
1685
1897
1706
1906
1546
1909
1632
1897
1609
1917
1576
1780
1384
1725
1417
1626
1329
1634
1393
1624
1234
1522
1274
1497
1258
1533
1330
1633
1517
1941
1575
1759
1397
1591
1193
1485
1177
1394
1170
1418
1095
1425
1182
1302
1086
1307
991
1211
1058
1270
1200
1457
1386
1520
1079
1213
1047
1225
935
1098
958
1334
1001
1299
1011
1138
864
1008
730
981
350
0
0
1428
1347
1759
1466
1974
1589
1949
1699
1972
1563
1992
1498
1847
1620
2008
1541
1966
1636
2037
1802
2183
1909
2219
1780
2006
1786
1986
1883
2113
1909
2281
2050
2347
2130
2393
2037
2420
2072
2268
2074
2404
1989
2402
2228
2440
2071
2292
1782
2269
1924
2106
1847
2188
1919
2148
1725
2100
1792
2000
1806
2074
1722
2102
1995
2252
1984
2237
1877
2181
1801
2082
1671
2013
1650
2067
1645
1958
1686
1958
1659
1949
1542
1840
1594
1955
1845
2101
2024
2307
1718
1893
1571
1810
1514
1658
1458
1821
1414
1781
1494
1770
1418
1661
1330
1616
937
0
0
1597
1592
1883
1538
1892
1725
1954
1695
1981
1694
1932
1581
1930
1632
1922
1694
1866
1647
1946
1798
2141
1942
2149
1803
2045
1832
2081
1797
2141
1892
2253
1876
2273
1910
2317
1989
2241
1978
2199
1976
2289
1910
2284
1963
2234
2013
2133
1775
2094
1805
2090
1866
1980
1861
2061
1710
1935
1668
1776
1685
1898
1613
1854
1672
1944
1702
2001
1705
1898
1675
1867
1579
1757
1513
1867
1525
1706
1429
1719
1439
1658
1361
1658
1327
1658
1542
2005
1765
2007
1590
1604
1289
1508
1204
1538
1236
1458
1178
1558
1233
1453
1148
1373
1073
1239
827
0
0
1357
1285
1650
1330
1707
1452
1786
1492
1850
1408
1714
1325
1754
1387
1745
1477
1792
1594
1856
1670
2018
1655
2024
1633
1845
1635
1964
1621
1962
1674
1979
1710
1988
1736
2065
1718
2080
1637
2016
1738
2084
1706
2024
1738
2050
1893
1944
1681
2010
1689
1977
1818
2113
1857
2029
1717
1907
1584
1752
1540
1833
1607
1742
1380
1827
1525
1845
1466
1742
1501
1806
1545
1713
1489
1787
1521
1785
1498
1626
1341
1645
1297
1517
1259
1545
1441
1837
1561
1805
1477
1541
1210
1442
1114
1450
1086
1418
952
1359
1010
1312
1092
1318
1031
1274
740
0
0
1115
1017
1323
1005
1339
1147
1380
1021
1390
1114
1317
1102
1516
1130
1437
1202
1485
1229
1581
1476
1732
1390
1777
1443
1614
1425
1699
1425
1709
1393
1722
1421
1758
1429
1759
1444
1739
1362
1721
1461
1714
1415
1697
1445
1743
1474
1681
1393
1710
1386
1681
1595
1925
1773
1995
1689
1782
1353
1643
1332
1554
1317
1489
1249
1622
1231
1581
1252
1413
1275
1526
1227
1527
1398
1706
1507
1690
1348
1490
1139
1333
1018
1385
1083
1427
1307
1685
1242
1557
1142
1288
946
1154
885
1141
915
1170
762
1179
834
1102
893
1183
838
1120
619
0
0
1277
1142
1499
1171
1524
1309
1653
1330
1607
1333
1636
1354
1722
1387
1702
1511
1903
1615
2074
1746
2058
1722
1990
1765
1965
1678
2058
1743
2050
1740
2169
1830
2090
1802
2158
1757
2130
1798
2116
1832
2214
1782
2126
1801
2132
1893
2094
1808
2110
1910
2180
2037
2485
2228
2578
2222
2418
1947
2010
1867
2012
1818
2032
1709
2088
1705
2059
1678
1936
1709
1997
1744
2050
1879
2331
2114
2329
1946
2084
1650
1893
1577
1916
1642
1930
1743
2146
1755
1998
1595
1778
1454
1782
1525
1773
1480
1683
1391
1698
1381
1658
1466
1781
1509
1797
1238
0
0
1502
1312
1677
1417
1711
1412
1790
1524
1730
1598
1806
1530
1909
1566
1945
1642
1965
1793
2184
1993
2109
1809
2042
1803
2015
1755
2062
1800
2102
1798
1996
1843
2217
1754
2177
1840
2100
1721
2037
1715
2116
1868
2001
1650
2074
1754
2061
1745
1994
1744
2037
1880
2218
2054
2427
2137
2391
1871
1993
1761
1880
1661
1846
1629
1882
1590
1848
1522
1844
1448
1735
1450
1901
1633
2073
1877
2204
1776
1765
1408
1633
1353
1641
1381
1586
1444
1750
1497
1622
1316
1501
1253
1562
1312
1509
1227
1467
1178
1461
1179
1437
1101
1533
1302
1525
907
0
0
1449
1225
1659
1283
1622
1353
1688
1458
1698
1477
1787
1493
1866
1607
1877
1594
2076
1844
2203
1906
2051
1672
1964
1685
2043
1725
1982
1702
1989
1777
2034
1781
2203
1805
2070
1816
2032
1732
2039
1763
2021
1737
1995
1610
1954
1662
1957
1586
1904
1710
2007
1739
2075
1906
2294
2036
2398
1890
1992
1708
1869
1655
1826
1570
1877
1525
1810
1466
1829
1475
1707
1414
1828
1580
1963
1813
2093
1773
1913
1413
1638
1398
1569
1189
1557
1326
1662
1410
1541
1242
1548
1253
1484
1322
1658
1270
1492
1140
1437
1079
1387
1042
1348
1205
1291
813
0
0
1047
1017
1245
1042
1453
1098
1408
1173
1398
1138
1474
1224
1625
1349
1682
1521
1818
1596
1915
1520
1642
1382
1718
1472
1714
1467
1687
1465
1701
1455
1802
1529
1892
1626
1842
1521
1811
1478
1741
1434
1644
1335
1749
1323
1556
1305
1642
1307
1633
1354
1623
1349
1722
1549
1801
1563
1875
1515
1751
1453
1690
1412
1633
1403
1573
1257
1421
1168
1470
1073
1401
1122
1562
1277
1653
1469
1747
1334
1525
1220
1485
1133
1274
1029
1261
1047
1332
1162
1229
932
1194
974
1323
1178
1458
1129
1250
873
1149
777
1018
839
1030
830
930
485
0
0
1343
1159
1652
1362
1824
1466
1796
1495
1817
1498
1846
1485
1990
1669
2115
1830
2220
1908
2258
1875
2041
1695
2133
1821
2106
1860
2118
1765
2158
1898
2228
2054
2362
2083
2366
2118
2309
1962
2216
1833
2128
1873
2097
1806
2130
1824
2146
1765
2093
1755
2148
1807
2117
1789
2233
1925
2274
1914
2187
1890
2194
1950
2266
1876
2213
1776
2038
1702
2045
1636
1928
1671
2145
1878
2283
1900
2082
1734
2072
1719
2062
1670
1885
1589
1828
1545
1925
1564
1769
1483
1858
1549
1994
1749
2059
1656
1869
1463
1810
1390
1706
1341
1626
1314
1520
1010
0
0
1574
1546
1942
1749
2172
1776
2077
1714
2045
1786
1981
1730
2059
1806
2212
1898
2328
1914
2295
1809
2110
1813
2067
1865
2088
1861
2142
1817
2099
1992
2228
2085
2330
2052
2501
2178
2474
2166
2317
2002
2222
1906
2199
1944
2197
1807
2075
1793
1955
1770
1926
1653
1970
1654
2069
1708
2039
1670
1934
1755
2036
1687
2018
1657
1859
1666
1866
1585
1803
1573
1794
1590
1829
1704
2095
1659
1851
1450
1654
1573
1890
1553
1694
1386
1560
1213
1540
1338
1542
1385
1586
1390
1668
1510
1768
1434
1579
1300
1669
1265
1530
1197
1354
1113
1272
745
0
0
1546
1454
1919
1762
2050
1621
2013
1520
1942
1595
1789
1529
1817
1634
1970
1594
2122
1748
1970
1640
1959
1634
1978
1739
1993
1687
1981
1717
1973
1735
2132
1926
2130
1930
2267
2013
2414
2068
2276
1955
2315
2014
2405
2007
2251
1789
1930
1654
1946
1697
1915
1558
1882
1611
2005
1613
1828
1594
1848
1508
1780
1450
1813
1541
1821
1594
1795
1622
1828
1529
1768
1652
1853
1627
1929
1516
1726
1322
1526
1365
1783
1419
1686
1390
1493
1254
1535
1265
1521
1149
1463
1265
1527
1309
1602
1335
1596
1403
1684
1275
1531
1128
1240
1066
1192
685
0
0
1202
1169
1555
1370
1585
1257
1512
1126
1497
1213
1333
1117
1410
1149
1530
1168
1642
1292
1585
1354
1547
1320
1577
1355
1586
1338
1675
1325
1678
1494
1702
1490
1754
1496
1894
1651
1915
1651
1967
1586
2082
1795
2192
1738
1941
1476
1621
1365
1625
1393
1627
1335
1569
1330
1654
1290
1489
1226
1565
1189
1480
1178
1512
1200
1506
1300
1573
1362
1508
1238
1707
1483
1713
1390
1527
1125
1387
1094
1289
1101
1386
1103
1335
1093
1284
918
1251
1114
1211
1013
1170
886
1242
1082
1252
1074
1506
1154
1510
1111
1277
899
996
746
907
378
0
0
1427
1274
1636
1399
1748
1387
1678
1360
1734
1378
1714
1410
1750
1464
1927
1576
1980
1562
1945
1588
1908
1626
1965
1748
2039
1699
2130
1701
2052
1890
2107
1781
2122
1835
2192
1866
2222
1957
2260
2013
2438
2237
2595
2135
2423
1938
2245
1877
2228
1874
2237
1790
2089
1794
2059
1847
2107
1726
2082
1764
2109
1714
2052
1734
2026
1753
2075
1790
2082
1985
2249
2066
2213
1893
2057
1694
1993
1587
1895
1627
1897
1582
1973
1636
1851
1454
1880
1686
1912
1589
1789
1418
1792
1492
1896
1700
2037
1798
2094
1513
1782
1429
1586
1293
1541
997
0
0
1557
1405
1858
1449
1863
1577
1834
1556
1744
1583
1898
1636
1917
1714
1971
1736
2002
1818
1973
1717
1970
1785
2097
1781
2160
1803
2124
1814
2095
1883
2162
1868
2057
1797
2117
1937
2214
1857
2211
1950
2404
2089
2324
2066
2245
1972
2173
1917
2125
1885
2194
1880
2058
1748
1981
1738
2030
1657
1979
1695
1861
1634
1854
1667
1912
1602
1917
1629
1949
1941
2248
2052
2212
1738
1857
1522
1723
1394
1700
1333
1693
1333
1692
1450
1658
1410
1737
1573
1826
1394
1578
1364
1716
1325
1653
1506
2029
1612
1707
1346
1477
1217
1369
1066
1301
794
0
0
1415
1209
1688
1202
1657
1322
1742
1402
1689
1435
1765
1366
1773
1529
1806
1457
1930
1615
1853
1588
1898
1590
1970
1577
2048
1711
2007
1666
1922
1634
2002
1741
1884
1714
2014
1693
2015
1684
2025
1775
2067
1817
2068
1710
1964
1683
1981
1636
1994
1682
1976
1659
1842
1579
1892
1674
1988
1586
1953
1599
1798
1523
1779
1471
1783
1467
1786
1454
1869
1751
2117
1903
2182
1595
1787
1348
1648
1281
1557
1217
1573
1252
1594
1352
1605
1354
1756
1536
1847
1234
1535
1298
1483
1177
1438
1267
1673
1374
1488
1165
1311
1082
1284
914
1149
533
0
0
1015
890
1367
1007
1340
1065
1402
1039
1351
1095
1391
1065
1410
1227
1611
1277
1629
1409
1534
1293
1491
1341
1626
1277
1698
1405
1608
1366
1690
1437
1730
1555
1709
1386
1716
1429
1749
1431
1723
1461
1755
1494
1658
1390
1645
1429
1634
1389
1644
1429
1622
1386
1579
1335
1584
1454
1720
1385
1644
1348
1510
1285
1521
1251
1474
1176
1448
1143
1603
1546
1933
1722
2004
1381
1495
1129
1403
1061
1329
1060
1346
1017
1402
1111
1382
1195
1605
1285
1467
1013
1260
1029
1269
1021
1122
1013
1258
925
1210
891
1155
842
1032
653
889
411
0
0
1293
1195
1594
1194
1701
1365
1619
1388
1704
1425
1812
1429
1809
1524
1962
1774
2136
1769
1917
1709
1977
1707
2021
1690
2093
1757
2110
1835
2177
1861
2323
2076
2260
1859
2226
1845
2205
1890
2221
1855
2254
1839
2212
1893
2149
1946
2150
1937
2216
1819
2153
1832
2098
1820
2120
1964
2314
2001
2210
1894
2054
1796
2067
1766
2042
1765
1956
1674
2190
2120
2481
2270
2525
2021
2215
1670
2057
1594
1902
1572
1954
1589
1929
1682
2042
1799
2116
1789
1940
1608
1821
1510
1917
1589
1693
1545
1914
1482
1739
1387
1748
1435
1723
1298
1621
965
0
0
1498
1461
1879
1495
1852
1594
1954
1654
1903
1622
1882
1523
1978
1743
2215
1995
2360
1914
2121
1761
2057
1787
2165
1770
2098
1874
2114
1855
2181
2035
2431
2162
2484
1973
2149
1957
2232
1989
2178
1868
2154
1886
2124
1876
2085
1871
1998
1738
1995
1672
2081
1777
1994
1710
2033
1871
2045
1850
2058
1833
1962
1738
1874
1609
1901
1616
1768
1536
1943
1805
2117
1861
2178
1725
1941
1481
1812
1428
1658
1429
1682
1428
1717
1448
1723
1492
1777
1440
1666
1224
1578
1285
1576
1293
1437
1293
1542
1284
1594
1229
1493
1274
1421
1230
1453
941
0
0
1483
1360
1723
1462
1775
1522
1776
1570
1800
1460
1765
1510
1917
1661
2213
1950
2347
1842
2070
1684
2033
1628
2042
1769
2011
1741
1978
1739
2075
2041
2397
2138
2378
1902
2226
1986
2251
1892
2186
1866
1996
1724
2002
1666
1965
1677
1891
1683
1930
1596
1930
1637
1867
1572
1877
1629
1806
1624
1924
1666
1785
1637
1802
1582
1802
1432
1705
1453
1797
1565
1947
1676
1911
1531
1835
1357
1755
1394
1538
1493
1680
1354
1578
1252
1620
1273
1630
1258
1515
1253
1389
1160
1434
1195
1433
1140
1434
1117
1509
1053
1488
1175
1443
1241
1519
944
0
0
1290
1178
1575
1205
1530
1322
1691
1375
1584
1394
1640
1301
1674
1512
1948
1677
2064
1778
1938
1514
1770
1509
1822
1481
1656
1460
1797
1434
1872
1740
2229
1937
2142
1743
1987
1858
2150
1822
1930
1618
1816
1619
1846
1516
1743
1425
1714
1349
1640
1289
1732
1378
1590
1281
1586
1393
1581
1320
1537
1378
1633
1405
1661
1301
1538
1198
1451
1182
1502
1364
1606
1297
1524
1200
1512
1077
1445
1189
1434
1337
1621
1182
1467
1117
1264
996
1198
957
1308
899
1261
973
1259
925
1165
951
1109
1002
1237
859
1178
974
1314
1117
1417
795
0
0
1590
1573
1885
1584
1942
1668
2010
1636
1989
1619
2002
1654
2021
1732
2284
2052
2429
1997
2245
1815
2101
1816
2192
1957
2089
1807
2153
1873
2274
2212
2525
2202
2453
2041
2354
2235
2635
2179
2522
2122
2438
2178
2344
1990
2260
1928
2197
1879
2149
1804
2217
1861
2152
1797
2102
1821
2080
1782
2162
1886
2182
1981
2146
1803
2154
1740
2027
1750
2037
1852
2131
1768
2109
1697
2089
1749
2041
1842
2166
1996
2277
1810
2026
1629
1958
1530
1824
1570
1848
1498
1829
1600
1948
1518
1750
1495
1798
1416
1866
1456
1800
1589
1861
1742
1999
1437
0
0
1647
1590
2050
1776
2021
1683
1986
1810
1972
1752
1992
1709
2042
1878
2317
2220
2342
2047
2150
1886
2085
1842
2123
1797
2122
1877
2090
1842
2162
1976
2454
2094
2253
1957
2266
2098
2425
2230
2586
2164
2450
2127
2383
2018
2093
1825
2096
1826
2011
1766
2024
1773
2027
1647
2014
1730
1934
1699
1917
1693
1955
1726
1940
1659
1963
1565
1820
1648
1989
1723
1942
1585
1738
1481
1818
1530
1853
1711
2088
1919
2098
1633
1796
1317
1652
1317
1486
1314
1610
1295
1585
1405
1738
1413
1617
1355
1578
1244
1413
1229
1542
1346
1613
1424
1610
1074
0
0
1486
1331
1796
1426
1741
1494
1778
1474
1810
1479
1802
1554
1869
1758
2093
2074
2164
1846
1947
1661
1925
1637
1981
1619
2031
1706
2023
1732
2101
1874
2237
1837
2156
1798
2125
1829
2228
1986
2269
2034
2305
2067
2293
1882
2092
1764
2142
1893
2129
1732
1981
1681
1938
1602
1910
1709
1859
1598
1817
1509
1786
1521
1777
1490
1833
1569
1770
1572
2005
1762
1956
1493
1683
1408
1648
1464
1763
1622
2068
1849
2021
1585
1674
1275
1647
1282
1531
1264
1558
1251
1526
1289
1662
1434
1621
1270
1443
1227
1381
1172
1482
1250
1482
1258
1428
829
0
0
1069
1014
1310
1050
1398
1099
1371
1180
1501
1251
1454
1130
1515
1259
1760
1627
1843
1397
1557
1285
1630
1339
1685
1332
1627
1354
1659
1442
1755
1462
1823
1459
1714
1448
1742
1576
1828
1533
1854
1554
1853
1607
1814
1524
1751
1395
1899
1652
1858
1550
1693
1499
1638
1260
1663
1442
1585
1298
1493
1328
1605
1314
1518
1199
1627
1243
1523
1458
1787
1465
1725
1229
1452
1141
1414
1193
1599
1275
1829
1527
1701
1316
1413
1029
1366
1065
1288
973
1349
1041
1301
1042
1409
1110
1282
1092
1266
978
1179
906
1187
916
1236
965
1126
485
0
0
1252
1157
1640
1285
1647
1320
1622
1418
1666
1439
1746
1376
1800
1498
1963
1798
2107
1698
1853
1632
1947
1709
1972
1675
2029
1783
2081
1780
2153
1733
2252
1884
2155
1832
2132
1862
2138
1843
2282
1903
2164
1924
2250
1950
2148
1860
2274
1976
2354
1930
2212
1885
2154
1789
2080
1865
2101
1801
1961
1762
1997
1734
1960
1695
2085
1771
2146
1914
2405
1985
2327
1872
1938
1629
1973
1660
2052
1737
2214
1867
2205
1732
1864
1651
1958
1615
1909
1579
1866
1534
1945
1605
1868
1597
1851
1688
1920
1532
1787
1457
1747
1538
1713
1339
1657
1045
0
0
1496
1441
1746
1495
1819
1585
1877
1574
1842
1614
1889
1570
1917
1733
2056
1806
2106
1873
2061
1821
2054
1874
2114
1787
2103
1814
1988
1717
2094
1837
2107
1860
2170
1820
2171
1785
2070
1805
2103
1880
2147
1865
2102
1861
2012
1856
2100
1826
2116
1781
2055
1725
2075
1769
2073
1755
1986
1639
1954
1583
1906
1550
1790
1661
1893
1649
1998
1815
2157
1830
2049
1593
1810
1453
1754
1546
1825
1659
1779
1579
1713
1506
1715
1473
1745
1464
1642
1353
1620
1331
1580
1370
1598
1256
1619
1345
1628
1308
1561
1346
1554
1312
1402
1186
1372
777
0
0
1493
1298
1634
1378
1648
1486
1806
1448
1805
1458
1826
1421
1846
1595
1974
1668
1999
1718
1934
1636
1981
1661
2010
1674
2063
1766
1919
1721
2074
1897
2122
1802
2043
1730
2074
1700
2006
1690
2000
1757
2150
1786
1987
1774
1986
1717
1977
1717
2029
1687
1989
1602
2019
1796
2033
1778
1938
1563
1899
1512
1853
1477
1806
1562
1869
1587
1843
1693
2030
1750
2069
1590
1787
1477
1737
1418
1640
1437
1638
1378
1646
1354
1707
1469
1747
1412
1595
1258
1558
1315
1558
1321
1453
1183
1505
1214
1700
1355
1645
1395
1637
1162
1329
1049
1220
617
0
0
1067
1005
1352
1093
1425
1202
1590
1209
1501
1241
1453
1114
1514
1213
1549
1298
1637
1330
1623
1401
1618
1425
1742
1333
1709
1436
1714
1403
1815
1671
1818
1481
1764
1420
1812
1450
1634
1460
1766
1462
1785
1461
1692
1419
1657
1422
1626
1314
1672
1325
1590
1342
1656
1422
1754
1412
1646
1307
1562
1230
1597
1286
1460
1283
1545
1374
1649
1418
1662
1290
1594
1253
1497
1178
1506
1116
1378
1124
1349
1083
1331
1113
1522
1194
1499
1161
1467
1137
1320
1015
1326
1062
1149
906
1243
1002
1492
1210
1495
1146
1265
930
1106
865
940
420
0
0
1467
1234
1618
1214
1701
1465
1879
1506
1914
1622
1882
1433
1822
1546
1911
1602
1991
1791
2081
1766
2070
1739
2103
1718
2106
1810
2118
1935
2315
2104
2302
1924
2213
1865
2235
1946
2185
1890
2197
1875
2221
1857
2170
1833
2142
1857
2107
1829
2089
1738
2131
1755
2133
1826
2102
1802
2170
1774
2022
1677
1999
1731
1980
1725
2061
1795
2061
1749
2142
1728
2053
1634
2084
1770
1954
1595
1924
1626
1902
1578
1901
1602
1979
1770
2011
1779
2079
1685
2062
1671
1989
1611
1794
1421
1828
1562
2066
1802
2029
1629
1842
1442
1587
1293
1533
978
0
0
1689
1533
1911
1709
2004
1714
2076
1933
2180
1873
2206
1738
1947
1686
2130
1866
2154
1957
2261
1896
2233
1933
2194
1885
2236
2077
2325
2206
2441
2263
2568
2125
2268
2005
2250
1980
2234
2038
2394
2063
2249
1915
2171
1866
2106
1809
2086
1798
2114
1741
2001
1824
2057
1802
2023
1781
1990
1698
1978
1654
1872
1637
1869
1610
1940
1638
1879
1647
1905
1573
1853
1561
1777
1581
1790
1475
1677
1453
1666
1411
1765
1483
1691
1570
1738
1513
1876
1735
1934
1725
1854
1582
1562
1428
1577
1366
1840
1599
1801
1424
1559
1230
1426
1069
1306
907
0
0
1605
1501
1705
1597
1928
1630
2044
1792
2057
1736
1994
1634
1883
1615
1949
1721
2007
1745
2099
1841
2056
1795
2133
1797
2155
2008
2286
2106
2448
2228
2442
1905
2158
1781
2111
1814
2114
1832
2260
1941
2086
1795
2116
1741
2005
1654
1981
1629
1981
1578
1833
1645
1958
1591
1850
1587
1789
1527
1840
1554
1847
1538
1768
1435
1813
1573
1739
1563
1788
1436
1657
1450
1712
1398
1668
1318
1493
1301
1603
1222
1645
1313
1548
1386
1614
1339
1732
1661
1895
1654
1831
1498
1491
1306
1465
1200
1611
1362
1489
1229
1450
1121
1323
944
1176
747
0
0
1236
1121
1424
1175
1537
1206
1722
1489
1677
1352
1563
1238
1506
1299
1680
1506
1706
1373
1768
1460
1611
1418
1758
1527
1893
1731
2012
1825
2195
2014
2082
1658
1755
1525
1805
1473
1739
1493
1768
1509
1746
1544
1729
1442
1730
1429
1802
1422
1693
1301
1653
1395
1689
1277
1572
1334
1517
1303
1543
1229
1539
1257
1480
1243
1581
1222
1508
1274
1370
1107
1436
1134
1346
1093
1284
1072
1364
1081
1346
1041
1369
1124
1271
1050
1297
998
1387
1434
1653
1434
1542
1271
1273
1017
1088
918
1309
1015
1194
937
1162
833
989
751
802
456
0
0
1458
1284
1636
1419
1780
1494
1924
1633
1921
1561
1886
1473
1788
1531
1970
1716
2042
1755
2027
1747
2007
1693
2106
1882
2215
2066
2312
2154
2564
2282
2507
2040
2223
1942
2205
1879
2061
1792
2200
1793
2222
1835
2157
1833
2134
1843
2327
1906
2214
1886
2075
1813
2153
1829
2093
1810
2085
1803
2055
1732
1981
1732
2097
1705
2110
1751
2070
1788
1901
1636
1972
1667
1850
1597
1931
1717
1933
1728
1985
1656
2001
1645
1857
1610
1922
1572
1893
1851
2235
1936
2145
1829
1897
1534
1802
1419
1821
1506
1683
1418
1698
1399
1770
1306
1546
1078
0
0
1663
1556
1914
1559
1749
1597
1933
1760
2051
1713
1974
1650
1949
1623
1925
1732
2095
1854
2130
1876
2073
1893
2232
1865
2162
1945
2352
2150
2435
2218
2390
2133
2259
1973
2189
1878
2088
1855
2133
1834
2109
1890
2075
1817
2132
1790
2110
1867
2061
1774
2005
1826
1973
1674
1875
1772
1955
1621
1947
1640
1847
1630
1815
1652
1981
1662
1949
1586
1879
1527
1773
1482
1682
1484
1726
1469
1764
1646
1794
1600
1829
1528
1675
1389
1630
1360
1661
1570
1864
1538
1868
1573
1764
1412
1586
1261
1514
1263
1460
1149
1448
1157
1510
1185
1446
1014
0
0
1556
1323
1660
1393
1637
1402
1786
1410
1845
1434
1757
1459
1806
1444
1786
1530
1834
1541
1909
1608
1892
1738
1925
1640
2025
1739
2068
1880
2105
2005
2192
1877
2130
1777
2061
1790
1937
1687
1986
1657
2022
1713
1890
1650
1946
1698
1930
1663
1944
1636
1895
1624
1875
1575
1853
1629
1809
1495
1845
1474
1759
1538
1798
1506
1932
1611
1814
1452
1691
1427
1690
1450
1620
1301
1598
1322
1656
1491
1746
1481
1749
1455
1606
1341
1525
1245
1541
1343
1629
1267
1645
1422
1678
1350
1419
1210
1382
1177
1404
1018
1312
988
1419
1136
1378
967
0
0
1162
1082
1411
1094
1362
1209
1485
1277
1448
1233
1507
1189
1490
1210
1466
1305
1531
1306
1673
1397
1584
1406
1679
1362
1721
1372
1750
1555
1780
1517
1733
1538
1797
1542
1765
1580
1744
1517
1720
1418
1759
1453
1633
1360
1685
1396
1701
1387
1699
1396
1627
1418
1624
1309
1589
1338
1642
1266
1570
1293
1450
1282
1461
1314
1634
1265
1520
1257
1467
1140
1369
1158
1426
1135
1393
1134
1295
1170
1498
1335
1589
1339
1402
1139
1370
985
1238
1109
1285
1001
1412
1154
1430
1147
1265
994
1156
868
1099
889
1046
740
1133
877
1281
869
0
0
1477
1240
1796
1387
1591
1355
1698
1458
1838
1473
1755
1493
1882
1490
1826
1588
1943
1693
1979
1770
2059
1747
2088
1738
2069
1753
2090
1858
2086
1893
2196
1828
2248
1909
2258
2002
2267
1930
2201
1917
2154
1859
2193
1894
2212
1909
2130
1869
2154
1746
2089
1812
2154
1773
2099
1833
2199
1800
2172
1786
1996
1755
2013
1860
2158
1824
2159
1751
2011
1736
1971
1674
2013
1638
1917
1614
1934
1722
2032
1900
2237
2001
2213
1797
2044
1681
1949
1676
1903
1613
2006
1669
2085
1716
1942
1606
1815
1494
1691
1444
1720
1432
1789
1488
1854
1379
0
0
1572
1482
1949
1621
1918
1658
1942
1707
1941
1650
1997
1712
2066
1758
2101
1851
2122
1770
2098
1840
2048
1879
2093
1841
2181
1814
2158
1821
2122
1888
2113
1869
2066
1924
2222
1898
2198
1949
2206
1815
2095
1942
2160
1768
2154
1828
2070
1724
2036
1782
2062
1741
2088
1669
1982
1685
2001
1719
1930
1669
1941
1618
1909
1651
1973
1659
1909
1706
1954
1677
1845
1495
1768
1548
1738
1413
1716
1397
1762
1621
1950
1733
2009
1685
1751
1507
1640
1419
1621
1330
1646
1430
1695
1553
1712
1454
1645
1097
1546
1137
1485
1196
1477
1157
1595
1162
0
0
1370
1333
1786
1498
1780
1541
1865
1576
1866
1614
1896
1528
2000
1790
2108
1852
2050
1647
2034
1601
1968
1747
1965
1654
2004
1690
2015
1717
2046
1746
2049
1794
1906
1690
2120
1686
2020
1742
2053
1726
1998
1695
2116
1719
2069
1690
1994
1662
1900
1576
1946
1595
1950
1492
1865
1556
1870
1505
1773
1619
1755
1530
1773
1476
1811
1432
1825
1557
1834
1602
1768
1410
1812
1414
1615
1321
1621
1337
1597
1428
1760
1553
1918
1589
1779
1485
1631
1225
1563
1246
1549
1233
1540
1252
1529
1278
1517
1051
1385
1032
1342
1101
1378
1045
1398
897
0
0
1146
1128
1514
1183
1528
1268
1509
1322
1594
1277
1625
1293
1755
1529
1853
1522
1884
1457
1719
1417
1687
1457
1708
1434
1818
1387
1794
1514
1801
1533
1767
1464
1698
1338
1799
1342
1707
1418
1768
1418
1768
1466
1866
1431
1706
1428
1694
1317
1597
1383
1675
1307
1640
1266
1573
1353
1621
1269
1554
1250
1522
1279
1561
1284
1595
1213
1510
1296
1486
1247
1554
1295
1569
1245
1447
1114
1363
1078
1219
1055
1418
1152
1626
1398
1470
1202
1382
1050
1299
1012
1277
1045
1301
991
1267
1129
1314
841
1189
746
1051
920
1108
789
1061
572
0
0
1490
1367
1802
1498
1871
1517
1834
1541
1862
1508
1930
1565
1980
1776
2023
1717
2171
1721
2053
1742
2106
1802
2133
1822
2162
1786
2199
1933
2322
2011
2234
1962
2121
1882
2149
1787
2086
1805
2146
1829
2152
1854
2188
1844
2229
1863
2235
1913
2177
1839
2167
1899
2188
1738
2171
1771
2100
1780
1993
1778
2031
1800
2087
1714
2042
1741
2065
1766
2063
1802
2043
1812
2104
1843
2063
1742
1931
1570
1914
1633
1940
1672
2087
1787
1993
1704
1918
1605
1857
1514
1933
1533
1834
1554
1751
1603
1858
1418
1755
1338
1655
1411
1750
1317
1618
1106
0
0
1650
1537
1830
1710
2016
1668
1949
1647
1966
1686
2063
1650
2081
1928
2145
1842
2094
1844
2029
1818
2246
1936
2243
1946
2219
1930
2405
2186
2372
2137
2474
2069
2282
1954
2098
1807
2083
1891
2135
1781
2178
1858
2125
1826
2132
1953
2062
1829
2136
1841
2138
1680
1930
1618
1876
1586
1916
1608
1913
1545
1834
1565
1795
1530
1910
1646
1974
1578
1802
1626
1892
1650
1921
1741
1848
1489
1647
1404
1632
1466
1656
1438
1733
1465
1782
1433
1748
1435
1613
1330
1589
1317
1558
1259
1460
1242
1553
1250
1502
1204
1493
1129
1388
1092
1377
735
0
0
1509
1393
1719
1522
1857
1499
1834
1576
1800
1483
1879
1559
1898
1698
1942
1585
1874
1570
1933
1618
2018
1655
2025
1722
2018
1741
2265
2036
2314
2080
2426
1999
2232
1873
2061
1613
1918
1706
2050
1658
2042
1682
2046
1653
2013
1707
1941
1685
2163
1774
1994
1617
1879
1602
1797
1504
1873
1521
1864
1533
1767
1473
1757
1384
1939
1590
1865
1573
1786
1510
1726
1458
1775
1578
1769
1495
1634
1334
1594
1333
1653
1349
1633
1329
1621
1329
1658
1397
1530
1218
1519
1237
1438
1079
1381
1165
1485
1167
1565
1173
1457
1032
1266
977
1216
705
0
0
1110
1041
1381
1211
1449
1195
1579
1211
1498
1223
1637
1243
1569
1389
1545
1301
1514
1355
1602
1398
1650
1398
1675
1429
1725
1490
1777
1557
1940
1677
2107
1834
2037
1700
1832
1512
1645
1442
1708
1438
1700
1497
1652
1330
1635
1437
1625
1424
1912
1577
1741
1439
1632
1317
1576
1363
1595
1249
1545
1271
1495
1226
1459
1173
1699
1353
1785
1394
1547
1256
1483
1213
1434
1298
1505
1270
1423
1130
1281
949
1331
1085
1353
1082
1339
1091
1442
1210
1282
956
1236
1026
1197
919
1204
939
1193
1001
1419
1147
1250
853
1115
737
962
421
0
0
1364
1237
1564
1346
1742
1320
1803
1450
1716
1462
1858
1525
1819
1653
1806
1608
1965
1538
1933
1621
1941
1568
2026
1756
2056
1709
2158
1843
2109
1877
2402
2103
2354
2037
2360
1905
2137
1802
2146
1773
2105
1722
2039
1691
2131
1850
2031
1912
2251
1992
2166
1836
2085
1704
1989
1680
2116
1748
1947
1690
2025
1642
1942
1702
2165
1914
2257
1866
2003
1672
1939
1714
1989
1707
1969
1777
2065
1658
1941
1542
1861
1589
1905
1587
1829
1595
1954
1588
1948
1498
1778
1493
1763
1320
1739
1443
1691
1485
1893
1626
1890
1339
1588
1264
1538
954
0
0
1612
1492
1923
1589
1793
1673
2024
1736
2035
1707
1946
1780
2010
1826
2038
1743
2017
1730
2034
1782
1985
1801
2116
1850
2059
1811
2101
1879
2154
1898
2210
1931
2245
1986
2215
1949
2197
1924
2206
1979
2266
1822
2085
1821
2021
1802
1988
1832
2088
1745
2085
1757
2029
1682
1942
1680
1896
1634
1802
1597
1819
1610
1840
1661
2204
1919
2132
1867
1938
1586
1786
1504
1741
1524
1829
1509
1872
1680
1773
1432
1770
1462
1682
1506
1594
1495
1640
1454
1770
1393
1613
1258
1503
1254
1546
1323
1506
1448
1762
1358
1572
1226
1348
1025
1303
906
0
0
1501
1343
1739
1389
1627
1474
1837
1558
1837
1516
1897
1586
1925
1691
1919
1633
1868
1557
1898
1576
1806
1659
1897
1613
1894
1631
1974
1605
2018
1682
1913
1669
2011
1746
1988
1797
2022
1835
2101
1879
2059
1778
1990
1675
1906
1670
1903
1579
1875
1624
1859
1613
1958
1608
1880
1550
1754
1482
1638
1394
1681
1501
1809
1515
2043
1885
2050
1692
1797
1405
1621
1339
1641
1287
1694
1341
1734
1454
1729
1322
1677
1290
1513
1316
1521
1317
1490
1233
1570
1337
1569
1250
1486
1146
1479
1122
1435
1297
1573
1127
1402
1090
1275
966
1185
586
0
0
1082
1053
1361
1133
1386
1177
1545
1223
1642
1224
1564
1301
1650
1386
1621
1435
1604
1294
1586
1289
1524
1284
1610
1317
1654
1398
1685
1333
1643
1346
1608
1429
1653
1387
1513
1355
1662
1480
1733
1499
1832
1464
1649
1447
1722
1341
1601
1355
1578
1179
1626
1254
1557
1381
1616
1333
1547
1227
1381
1104
1405
1221
1414
1261
1768
1582
1849
1479
1530
1199
1462
1144
1325
1021
1354
1097
1490
1269
1417
1118
1375
994
1272
1033
1202
996
1201
1073
1332
1155
1497
1039
1261
921
1200
962
1128
961
1202
825
1142
841
1059
773
874
511
0
0
1345
1258
1700
1387
1722
1513
1917
1541
1913
1568
1929
1632
2014
1750
2054
1876
2069
1719
1986
1730
1980
1716
2075
1721
2097
1790
2082
1745
2037
1684
2039
1723
2135
1773
2051
1698
1996
1834
2152
1877
2182
1838
2212
1973
2257
1874
2106
1779
2066
1728
2030
1718
2090
1770
2135
1765
2121
1759
1990
1643
1946
1610
1897
1746
2257
2029
2419
2029
2050
1638
1949
1650
1898
1538
1909
1585
1930
1693
1909
1674
1990
1505
1905
1554
1754
1554
1753
1588
1930
1683
2043
1661
1818
1399
1717
1362
1661
1467
1738
1330
1641
1350
1594
1335
1546
947
0
0
1613
1502
1899
1722
2010
1837
2260
1932
2110
1971
2092
1992
2274
2091
2376
2045
2347
2033
2234
1979
2212
1882
2209
1866
2166
1931
2156
1829
2219
1874
2145
1786
2167
1821
2098
1825
2060
1847
2110
1833
2090
1930
2111
1933
2223
1961
2122
1794
2082
1696
1990
1688
1881
1645
1893
1676
1973
1755
1854
1605
1850
1453
1866
1658
2102
1907
2299
1817
2008
1580
1797
1552
1709
1413
1659
1443
1605
1364
1754
1498
1749
1453
1662
1330
1655
1387
1585
1370
1763
1618
1851
1599
1633
1246
1522
1213
1518
1162
1403
1139
1358
1166
1464
1117
1381
786
0
0
1428
1304
1695
1540
1941
1695
2006
1636
1913
1651
1927
1770
2026
1811
2196
1872
2125
1797
2042
1750
1988
1662
2066
1690
1988
1637
2085
1715
2030
1716
1927
1688
2094
1619
1883
1596
1847
1620
1879
1563
1797
1646
1936
1770
2067
1830
2040
1651
1902
1482
1715
1520
1704
1402
1678
1473
1750
1541
1794
1444
1717
1352
1651
1381
1878
1650
2129
1701
1960
1498
1660
1405
1610
1288
1463
1206
1432
1185
1491
1326
1629
1282
1549
1197
1416
1237
1421
1265
1607
1434
1618
1374
1514
1189
1378
1028
1329
977
1233
989
1274
989
1295
941
1117
523
0
0
1149
1053
1420
1349
1704
1437
1715
1356
1514
1339
1509
1402
1726
1604
1818
1517
1773
1461
1633
1454
1673
1409
1781
1389
1755
1429
1755
1499
1850
1574
1880
1595
1786
1385
1541
1348
1624
1269
1582
1262
1573
1300
1614
1496
1802
1633
1817
1482
1725
1285
1565
1307
1403
1174
1391
1161
1429
1270
1490
1371
1566
1159
1462
1179
1531
1279
1793
1332
1614
1285
1418
1224
1393
1041
1264
1034
1196
937
1211
1090
1410
1193
1341
1014
1240
960
1167
1003
1348
1205
1332
1141
1177
877
1117
906
1037
811
1010
809
1066
770
1051
725
1053
422
0
0
1388
1222
1660
1521
1867
1609
1924
1578
1771
1563
1768
1634
1865
1670
2050
1698
2018
1671
1963
1686
2018
1637
2100
1753
2058
1818
2132
1821
2186
1933
2409
1965
2293
1778
2115
1741
2025
1675
2020
1751
1975
1780
2027
1837
2165
1935
2286
1940
2250
1802
2090
1779
1973
1658
1876
1659
1961
1656
2022
1870
2130
1690
2021
1544
2033
1730
2026
1677
2083
1736
1994
1776
1964
1650
1835
1578
1780
1513
1796
1662
2002
1738
1945
1489
1869
1521
1771
1499
1879
1641
1814
1597
1810
1468
1804
1435
1754
1438
1605
1335
1583
1403
1573
1285
1558
916
0
0
1577
1495
1787
1586
1918
1625
1940
1658
1930
1690
1888
1604
1995
1768
2075
1786
2061
1767
2064
1731
1992
1752
2100
1800
2085
1765
2062
1803
2082
1931
2381
2026
2323
1814
2038
1837
2027
1763
2031
1712
1933
1694
1956
1687
1977
1867
2173
1874
2142
1860
2018
1688
1826
1557
1714
1593
1789
1592
1929
1597
2006
1685
1877
1498
1870
1550
1893
1596
1757
1451
1876
1661
1802
1512
1749
1398
1691
1300
1562
1413
1699
1462
1646
1421
1514
1325
1597
1332
1578
1257
1508
1222
1549
1373
1577
1252
1448
1226
1445
1173
1352
1130
1256
1039
1352
798
0
0
1413
1151
1594
1282
1647
1339
1691
1371
1741
1355
1741
1437
1762
1481
1821
1455
1805
1522
1783
1474
1758
1546
1857
1530
1828
1537
1777
1582
1877
1658
2032
1663
1994
1614
1894
1577
1838
1636
1908
1529
1719
1454
1770
1513
1757
1549
1893
1605
1970
1713
1882
1588
1768
1438
1602
1465
1595
1437
1687
1341
1794
1531
1785
1358
1650
1326
1658
1301
1554
1241
1615
1456
1697
1412
1644
1204
1457
1248
1426
1238
1482
1226
1434
1163
1387
1140
1403
1146
1362
1168
1352
1054
1356
1274
1474
1188
1277
986
1223
938
1170
1028
1139
871
1051
624
0
0
1034
877
1250
1100
1321
1008
1354
1109
1425
1096
1403
1146
1492
1259
1521
1130
1525
1201
1370
1146
1474
1244
1522
1242
1589
1234
1489
1341
1525
1356
1629
1269
1667
1364
1554
1348
1591
1333
1622
1253
1495
1243
1394
1197
1489
1200
1565
1318
1662
1450
1739
1370
1540
1252
1327
1130
1356
1129
1399
1058
1473
1188
1568
1151
1525
1200
1395
1064
1362
1003
1325
1172
1364
1141
1397
1013
1293
938
1232
949
1229
997
1290
1017
1205
917
1115
917
1066
825
1131
873
1172
878
1250
1020
1148
837
1099
777
968
706
848
634
950
471
0
0
1251
1122
1466
1218
1551
1174
1653
1343
1645
1365
1701
1375
1751
1483
1834
1566
1813
1450
1765
1503
1831
1506
1915
1562
1926
1578
1957
1691
1962
1635
2029
1637
2001
1659
1927
1714
2021
1714
2049
1674
1908
1675
1898
1638
1850
1679
1954
1706
2061
1825
2107
1858
2196
1755
1975
1672
1818
1534
1850
1450
1924
1666
2039
1725
2033
1677
1850
1478
1863
1472
1787
1589
1922
1668
2081
1608
1882
1509
1808
1431
1766
1418
1706
1505
1801
1519
1762
1441
1636
1406
1619
1330
1668
1500
1741
1487
1643
1388
1700
1307
1542
1293
1453
1098
1495
1017
0
0
1349
1241
1622
1357
1653
1343
1762
1488
1755
1411
1762
1610
1882
1618
1958
1582
1980
1617
1833
1592
1867
1554
1818
1554
1916
1645
1909
1680
1917
1581
1834
1642
1870
1573
1906
1593
1864
1557
1986
1663
1880
1643
1829
1514
1849
1515
1722
1535
1814
1554
1942
1765
1941
1709
1921
1609
1762
1341
1594
1306
1704
1494
1846
1597
1793
1474
1714
1384
1606
1309
1589
1321
1553
1339
1733
1506
1702
1330
1512
1307
1490
1290
1525
1261
1581
1341
1579
1197
1480
1314
1401
1164
1425
1168
1336
1098
1410
1104
1354
1073
1264
1019
1254
939
1161
630
0
0
1126
1045
1367
1129
1454
1218
1623
1193
1529
1173
1540
1301
1691
1358
1744
1399
1658
1333
1609
1422
1731
1346
1634
1380
1626
1424
1765
1437
1658
1305
1655
1294
1723
1349
1618
1380
1602
1301
1759
1460
1669
1424
1672
1286
1677
1311
1611
1274
1576
1241
1689
1466
1833
1535
1780
1428
1590
1124
1478
1139
1547
1237
1608
1335
1657
1309
1557
1194
1371
1113
1391
1170
1381
1144
1532
1326
1634
1224
1393
1054
1388
1071
1378
996
1378
1083
1362
1079
1306
1078
1183
848
1266
981
1153
929
1266
845
1221
899
1107
786
1099
803
969
530
0
0
756
653
906
699
954
738
1140
731
1074
784
1030
720
1137
909
1234
923
1204
804
1237
949
1306
901
1149
925
1281
994
1282
986
1282
953
1195
836
1235
838
1165
899
1191
837
1366
1011
1225
1051
1256
930
1149
838
1082
805
1192
852
1074
882
1259
1087
1378
1045
1190
763
1079
685
1090
842
1093
969
1186
900
1035
715
898
674
978
682
962
746
1099
962
1202
830
944
573
877
566
875
628
941
709
968
598
874
597
802
433
810
533
722
523
859
452
834
558
613
422
706
349
625
165
0
0
0
0
0
0
0
0
0
0
0
0
0
0
0
0
0
0
0
0
0
0
0
0
0
0
0
0
0
0
0
0
0
0
0
0
0
0
0
0
0
0
0
0
0
0
0
0
0
0
0
0
0
0
0
0
0
0
0
0
0
0
0
0
0
0
0
0
0
0
0
0
0
0
0
0
0
0
0
0
0
0
0
0
0
0
0
0
0
0
0
0
0
0
0
0
0
0
0
0
0
0
0
0
0
0
0
0
0
