P2
108 88
4095
0
0
0
0
0
0
0
0
0
0
0
0
0
0
0
0
0
0
0
0
0
0
0
0
0
0
0
0
0
0
0
0
0
0
0
0
0
0
0
0
0
0
0
0
0
0
0
0
0
0
0
0
0
0
0
0
0
0
0
0
0
0
0
0
0
0
0
0
0
0
0
0
0
0
0
0
0
0
0
0
0
0
0
0
0
0
0
0
0
0
0
0
0
0
0
0
0
0
0
0
0
0
0
0
0
0
0
0
0
1554
1520
1909
1586
1967
1648
1971
1673
2007
1718
1872
1556
1914
1649
1875
1550
1860
1546
1778
1517
1775
1682
2038
1729
1919
1673
1832
1574
1893
1538
1844
1446
1850
1458
1834
1510
1743
1395
1722
1354
1761
1427
1676
1399
1683
1394
1560
1349
1618
1289
1642
1339
1674
1302
1705
1482
1663
1395
1713
1346
1640
1282
1535
1288
1725
1418
1674
1362
1658
1404
1695
1472
1668
1385
1613
1339
1530
1170
1531
1209
1506
1204
1608
1243
1532
1229
1465
1284
1550
1165
1427
1095
1286
970
1229
816
1099
772
1165
705
951
686
893
676
843
421
0
0
1458
1554
1867
1529
1980
1578
1940
1667
1903
1653
1837
1494
1768
1472
1833
1486
1707
1418
1659
1357
1697
1498
1929
1524
1732
1410
1662
1323
1640
1353
1629
1289
1673
1321
1742
1347
1549
1301
1462
1236
1566
1279
1466
1210
1421
1201
1420
1246
1531
1146
1505
1196
1447
1175
1442
1257
1493
1221
1495
1109
1410
1055
1366
1161
1545
1261
1474
1190
1516
1193
1518
1323
1546
1271
1522
1217
1405
1133
1458
1182
1482
1221
1515
1138
1489
1267
1441
1290
1497
1233
1476
1101
1338
982
1154
898
1174
773
1170
805
973
621
882
541
714
347
0
0
1764
1778
2221
1846
2270
1929
2296
1946
2312
2007
2169
1809
2130
1753
2032
1717
2011
1673
1947
1627
1972
1795
2221
1824
2035
1700
1927
1649
1924
1764
2063
1662
2088
1752
2158
1724
1933
1645
1885
1633
1929
1578
1861
1599
1950
1693
1950
1702
2009
1671
2008
1712
2039
1574
1954
1637
1819
1627
1962
1530
1903
1533
1909
1570
2046
1638
1900
1578
1897
1563
1972
1700
2039
1722
1972
1678
1881
1544
1897
1599
1901
1622
1992
1686
2069
1794
2010
1856
2081
1730
2059
1552
1787
1538
1790
1501
1835
1446
1818
1446
1713
1258
1606
1203
1413
950
0
0
2166
2180
2573
2333
2653
2286
2633
2282
2511
2198
2354
2027
2299
1938
2122
1877
2066
1749
1997
1786
2182
1993
2299
2057
2056
1885
2045
1838
2085
1789
2121
1758
2137
1845
2178
1957
2106
1738
2056
1747
2080
1776
2050
1798
2137
1831
2071
1810
2148
1870
2128
1697
1936
1681
1898
1745
1933
1585
1906
1641
1837
1538
1779
1555
1853
1570
1845
1482
1750
1523
1794
1650
1896
1660
1710
1466
1765
1369
1597
1463
1722
1520
1783
1450
1771
1519
1773
1574
1805
1412
1765
1357
1719
1300
1635
1373
1649
1334
1803
1352
1662
1270
1577
1227
1306
785
0
0
1972
1975
2357
2067
2462
2009
2510
2053
2231
1924
2137
1837
2058
1578
1862
1530
1828
1545
1824
1604
2030
1698
2027
1787
1922
1649
1876
1711
1936
1671
1949
1602
2034
1861
2011
1619
1957
1675
1947
1624
1989
1675
2026
1770
2154
1815
2134
1719
2157
1714
2002
1642
1885
1588
1837
1541
1853
1403
1740
1498
1769
1433
1706
1430
1860
1493
1726
1387
1745
1349
1742
1531
1786
1410
1596
1307
1604
1190
1499
1288
1557
1275
1540
1252
1621
1341
1641
1314
1573
1158
1534
1149
1438
1150
1450
1161
1369
1168
1548
1158
1573
1205
1444
1141
1294
719
0
0
1722
1674
1954
1749
1997
1622
2010
1594
1824
1578
1709
1315
1642
1246
1446
1197
1445
1194
1509
1314
1701
1482
1717
1392
1604
1350
1589
1273
1590
1306
1620
1264
1761
1397
1825
1490
1717
1446
1810
1400
1757
1424
1802
1509
1879
1538
1825
1430
1813
1362
1720
1352
1538
1157
1526
1290
1538
1145
1495
1307
1449
1161
1395
1186
1551
1228
1488
1209
1475
1236
1459
1260
1424
1106
1352
974
1313
1051
1110
968
1356
1009
1161
940
1245
989
1173
1055
1258
874
1239
954
1170
907
1068
826
1113
793
1233
753
1204
882
1185
917
961
483
0
0
1922
1798
2184
1860
2265
1805
2235
1748
2004
1763
1922
1551
1947
1478
1776
1541
1834
1553
1960
1725
2141
1866
2090
1741
1995
1739
2046
1751
2021
1794
2121
1725
2197
1999
2394
2021
2238
1893
2348
1914
2229
1850
2183
1965
2257
1922
2162
1803
2100
1913
2135
1773
2018
1666
1941
1815
2142
1774
2023
1836
2067
1713
2045
1766
2102
1847
2045
1668
2060
1693
1995
1712
2002
1686
1841
1602
1925
1562
1781
1580
1882
1549
1860
1544
1974
1501
1826
1534
1845
1474
1872
1475
1837
1370
1710
1458
1714
1370
1781
1378
1778
1371
1674
1332
1493
1005
0
0
2081
2068
2453
2157
2357
2071
2347
1892
2234
1846
2082
1733
1954
1709
2029
1714
2077
1846
2234
1956
2233
2063
2263
1749
2128
1790
2105
1800
2142
1917
2319
2080
2426
2198
2390
2105
2414
2098
2226
1933
2153
1913
2262
1922
2154
1813
2153
1862
2041
1806
2004
1677
1941
1754
2034
1851
2173
1898
2102
1757
2042
1801
2110
1870
2226
1741
1965
1616
1975
1608
1991
1652
1914
1611
1786
1576
1722
1457
1659
1354
1826
1388
1634
1450
1745
1433
1739
1434
1645
1369
1576
1370
1586
1288
1513
1218
1547
1227
1517
1230
1447
1178
1286
1060
1322
889
0
0
1909
1782
2212
1809
2152
1778
2065
1547
1796
1506
1720
1396
1789
1605
1975
1645
1986
1709
2139
1874
2146
1852
2055
1618
2023
1659
1991
1685
2101
1900
2289
2024
2385
1938
2181
1716
2132
1734
2010
1610
1894
1565
2036
1649
1982
1704
1917
1661
1833
1581
1796
1549
1922
1662
1972
1769
2112
1827
2045
1689
2066
1812
2085
1829
2163
1768
1973
1522
1946
1561
1913
1652
1792
1556
1754
1508
1643
1355
1610
1314
1690
1333
1669
1424
1693
1391
1645
1297
1429
1317
1446
1210
1445
1137
1441
1061
1487
1234
1287
1038
1350
969
1134
836
1138
707
0
0
1646
1539
1890
1530
1790
1501
1704
1291
1554
1211
1414
1178
1449
1357
1700
1498
1835
1572
1962
1714
1958
1661
1836
1450
1844
1605
1847
1518
1908
1776
2102
1941
2149
1740
1770
1465
1753
1482
1617
1385
1629
1315
1770
1470
1725
1450
1700
1437
1711
1529
1706
1449
1701
1572
1917
1627
1981
1684
1829
1494
1850
1627
1957
1653
1858
1473
1673
1378
1723
1438
1834
1490
1660
1412
1652
1437
1611
1327
1586
1258
1595
1244
1597
1357
1627
1301
1495
1161
1402
1141
1291
1018
1324
1029
1331
1064
1302
1003
1134
843
1096
730
934
618
947
418
0
0
1878
1774
2121
1729
2099
1679
1989
1517
1922
1533
1906
1610
1977
1766
2254
1937
2272
2025
2386
2077
2437
2071
2365
1864
2326
2005
2319
1985
2414
2227
2675
2302
2554
2016
2212
1899
2193
1910
2171
1806
2093
1790
2262
1914
2298
1997
2258
2001
2250
2027
2312
1998
2331
1987
2402
1955
2322
2001
2160
1810
2286
2084
2455
2074
2418
1829
2159
1837
2223
1928
2296
1940
2160
1922
2173
1896
2193
1960
2146
1813
2213
1914
2290
1971
2333
1962
2185
1826
2036
1794
2066
1806
2074
1758
2007
1622
1973
1675
1764
1437
1682
1304
1642
1218
1570
1075
0
0
2037
2029
2465
2036
2292
1984
2231
1787
2078
1815
2197
1930
2280
2158
2428
2086
2410
2155
2628
2330
2397
2148
2370
2058
2245
2036
2340
2098
2449
2351
2681
2333
2465
2095
2249
1973
2234
1925
2128
1866
2174
2017
2312
1967
2234
1963
2250
1974
2310
1909
2146
1880
2125
1941
2101
1875
2157
1798
2042
1713
2064
1878
2244
1882
2128
1679
1866
1658
2011
1706
1945
1701
1970
1594
1929
1674
2053
1666
1872
1633
1900
1642
2100
1754
2184
1793
1957
1691
1905
1641
1954
1757
1966
1577
1990
1507
1815
1476
1592
1290
1531
1243
1470
1185
1168
804
0
0
1922
1866
2261
1934
2206
1891
2143
1738
2049
1702
2098
1840
2129
1985
2275
1927
2178
1997
2363
2058
2255
1937
2157
1805
2059
1779
2063
1834
2205
2039
2408
2061
2238
1883
2125
1810
2077
1835
2165
1832
2121
1962
2250
1864
2138
1813
2056
1699
2116
1668
1973
1673
1961
1736
2059
1690
2007
1646
1862
1593
1930
1749
2034
1690
1926
1577
1827
1524
1781
1449
1802
1453
1866
1534
1746
1458
1771
1429
1716
1482
1713
1475
1784
1598
1990
1573
1755
1430
1731
1463
1893
1632
1738
1586
1845
1490
1822
1464
1634
1264
1509
1289
1438
1077
1172
651
0
0
1681
1599
1994
1627
1933
1551
1751
1383
1691
1349
1692
1484
1769
1604
1926
1439
1701
1576
1981
1791
1899
1523
1745
1495
1721
1417
1736
1609
1855
1754
2054
1755
1890
1611
1892
1572
1846
1530
1834
1494
1843
1578
1950
1589
1878
1461
1701
1381
1843
1453
1780
1475
1626
1436
1613
1378
1749
1349
1659
1366
1578
1426
1686
1459
1586
1291
1524
1249
1545
1239
1533
1282
1559
1103
1537
1243
1469
1202
1512
1202
1387
1138
1583
1235
1610
1325
1365
1180
1367
1103
1466
1243
1492
1230
1515
1189
1585
1261
1434
1160
1415
1122
1414
1002
1089
530
0
0
1645
1466
1956
1628
1972
1584
1938
1518
1834
1519
1949
1598
2002
1746
2082
1622
1973
1755
2234
1943
2141
1840
2074
1738
2027
1717
2102
1909
2154
2026
2378
2066
2255
1898
2156
1826
2135
1876
2109
1746
2149
1970
2225
1975
2178
1839
2115
1807
2201
1829
2139
1797
2091
1851
2092
1801
2165
1890
2118
1738
2083
1828
2118
1705
2067
1703
2076
1716
2055
1685
2032
1725
2095
1682
2056
1725
1997
1698
1957
1586
1936
1632
2011
1634
2085
1658
1866
1668
1986
1599
1997
1624
1910
1501
1938
1581
1898
1695
1923
1680
2068
1668
1986
1554
1680
1097
0
0
1737
1658
2003
1717
1914
1701
1967
1693
1930
1599
1955
1832
2116
1802
2180
1867
2054
1827
2129
1994
2259
1850
2154
1838
2147
1805
2042
1870
2175
1944
2274
2005
2159
1958
2132
1864
2134
1811
2020
1751
2221
1876
2110
1803
2099
1717
2057
1773
2061
1789
2061
1754
1970
1742
1932
1693
1958
1746
2042
1829
1997
1662
1957
1745
1953
1694
1933
1609
1783
1544
1862
1525
1806
1651
1859
1515
1711
1545
1762
1460
1655
1391
1632
1450
1737
1394
1669
1444
1682
1409
1668
1322
1613
1322
1605
1350
1645
1327
1594
1336
1659
1442
1606
1328
1485
936
0
0
1491
1389
1726
1444
1706
1426
1789
1474
1806
1546
1997
1629
2015
1779
2053
1661
1926
1574
1962
1787
2098
1733
2037
1669
2039
1707
2004
1719
2029
1849
2207
1909
2211
1850
2013
1689
2089
1685
1914
1722
2067
1779
2037
1781
2045
1716
1997
1794
2146
1782
2037
1714
1986
1764
1938
1824
2027
1875
2109
1778
2057
1601
1924
1659
2074
1737
2041
1685
1812
1510
1861
1478
1821
1527
1754
1515
1739
1424
1654
1387
1668
1342
1611
1397
1719
1449
1658
1284
1626
1307
1517
1200
1583
1224
1562
1252
1646
1252
1412
1167
1539
1192
1353
1120
1355
739
0
0
1080
1020
1373
1090
1368
1079
1367
1120
1512
1224
1658
1458
1698
1396
1588
1222
1562
1332
1658
1467
1772
1342
1704
1373
1707
1412
1645
1482
1701
1610
1966
1608
1938
1493
1803
1478
1814
1433
1694
1565
1838
1533
1805
1497
1798
1618
1873
1625
1960
1613
1840
1510
1778
1562
1877
1661
1930
1816
1997
1713
1829
1493
1780
1554
1866
1617
1885
1515
1746
1508
1753
1390
1682
1426
1629
1366
1554
1309
1512
1173
1426
1148
1364
1224
1531
1254
1481
1074
1320
1026
1218
901
1259
946
1269
951
1226
943
1183
851
1132
982
1003
803
1024
471
0
0
1329
1225
1520
1320
1611
1250
1640
1390
1860
1579
2048
1786
2034
1587
1851
1558
1908
1682
2011
1801
2196
1704
2088
1818
2171
1829
2106
1970
2278
2005
2493
2080
2405
1998
2268
2022
2301
1903
2324
2033
2449
2157
2492
2107
2445
2093
2521
2267
2580
2177
2490
2165
2505
2187
2489
2229
2500
2237
2501
2243
2484
2101
2380
2130
2491
2182
2485
2123
2379
2034
2363
2072
2354
2042
2383
2050
2290
1956
2212
1841
2163
1773
2151
1943
2218
1966
2091
1586
1915
1539
1911
1493
1798
1552
1751
1454
1734
1514
1748
1463
1750
1457
1693
1467
1641
1013
0
0
1478
1449
1812
1557
1899
1514
1894
1665
2101
1922
2292
1930
2249
1690
2073
1819
2242
2037
2370
2040
2202
1978
2312
1970
2295
2044
2349
2073
2483
2267
2552
2197
2569
2221
2451
2105
2397
2146
2322
2101
2391
2114
2362
2126
2390
2140
2442
2139
2516
2200
2381
2151
2253
1989
2329
2051
2359
2111
2367
2013
2261
1966
2181
2010
2254
1990
2266
1893
2222
1986
2141
1907
2249
1932
2132
1892
2055
1770
1962
1678
2034
1730
2039
1909
2138
1713
1861
1547
1833
1531
1650
1387
1622
1405
1680
1255
1614
1370
1539
1320
1474
1165
1381
1158
1370
922
0
0
1442
1386
1691
1474
1826
1442
1853
1652
2110
1846
2219
1770
2058
1618
2007
1753
2176
1949
2166
1928
2139
1931
2251
1974
2279
2024
2317
2050
2337
2098
2389
2061
2332
2037
2301
1980
2299
1866
2154
1900
2205
1828
2154
1822
2096
1849
2141
1936
2282
1947
2148
1818
2020
1691
2065
1716
2146
1770
2134
1700
1941
1742
1934
1761
2117
1831
2090
1659
2035
1691
1922
1725
2003
1623
1946
1581
1861
1522
1751
1481
1904
1557
1932
1773
1978
1579
1809
1493
1786
1499
1747
1378
1621
1385
1672
1275
1639
1317
1503
1207
1386
1114
1342
1111
1283
775
0
0
1061
986
1406
1235
1477
1089
1547
1349
1854
1613
1959
1467
1819
1361
1674
1584
1866
1602
1883
1557
1782
1561
1906
1656
1988
1704
2007
1709
2011
1720
1959
1577
1956
1510
1769
1569
1786
1500
1713
1400
1712
1413
1693
1442
1648
1434
1792
1571
1847
1499
1765
1487
1602
1347
1614
1381
1725
1419
1694
1325
1658
1341
1542
1371
1771
1381
1637
1353
1645
1367
1617
1406
1508
1220
1540
1156
1441
1144
1384
1070
1537
1188
1586
1397
1559
1209
1508
1210
1483
1203
1559
1233
1570
1278
1522
1197
1540
1169
1370
1103
1289
976
1243
933
1018
535
0
0
1374
1360
1813
1572
1933
1550
1951
1789
2314
2007
2277
1782
2082
1668
1994
1722
2136
1889
2067
1646
2065
1799
2298
2027
2311
1934
2336
1926
2253
1949
2189
1840
2222
1846
2186
1866
2102
1790
2073
1814
2255
1869
2130
1867
2133
1904
2210
1840
2269
1908
2242
1862
2187
1793
2093
1861
2186
1883
2265
1824
2093
1822
2061
1818
2202
1911
2257
1883
2227
1914
2130
1765
2122
1709
2030
1652
1940
1630
1925
1627
1929
1613
2037
1770
2091
1610
1894
1655
2056
1731
1989
1700
2020
1862
2134
1900
2181
1793
2169
1789
2093
1589
1929
1581
1833
1293
0
0
1613
1661
2114
1852
2197
1912
2341
2088
2538
2194
2406
1971
2153
1813
2066
1788
2274
1938
2197
1924
2218
1926
2261
1979
2259
2009
2229
2062
2246
1955
2180
1938
2219
1925
2201
1898
2194
1909
2125
1865
2190
1894
2187
1875
2173
1840
2205
1860
2265
1914
2117
1790
2093
1894
2131
1806
1989
1845
2040
1730
2041
1723
2093
1818
2044
1814
2067
1771
2080
1686
1954
1713
1916
1602
1798
1501
1838
1552
1746
1556
1789
1531
1661
1439
1666
1399
1658
1438
1732
1325
1647
1393
1755
1558
1730
1642
1933
1675
1898
1659
1869
1591
1851
1584
1781
1161
0
0
1442
1429
1869
1540
2148
1674
2167
1911
2278
1874
2260
1638
1881
1585
1928
1613
2099
1717
2034
1706
1990
1672
2121
1701
2054
1773
2125
1796
2035
1671
1956
1689
2010
1743
1950
1706
2088
1693
2068
1797
2040
1739
1979
1684
2037
1754
2085
1629
2107
1801
2054
1759
2148
1840
2072
1690
1875
1677
1865
1585
1930
1684
1979
1706
1977
1755
1979
1680
1992
1574
1883
1581
1778
1468
1786
1357
1648
1449
1739
1458
1689
1390
1636
1320
1535
1291
1453
1277
1528
1112
1502
1271
1490
1245
1480
1321
1800
1492
1682
1438
1714
1416
1652
1529
1712
1051
0
0
1108
1077
1602
1333
1682
1452
1810
1705
2084
1610
1873
1317
1515
1234
1582
1306
1689
1365
1654
1391
1709
1405
1800
1492
1772
1570
1699
1509
1787
1475
1758
1499
1765
1534
1723
1565
1818
1626
1825
1484
1835
1538
1771
1494
1851
1578
1853
1522
1894
1595
1851
1659
2054
1850
2052
1569
1762
1434
1610
1406
1770
1605
1807
1554
1946
1608
1830
1554
1806
1429
1695
1356
1556
1310
1530
1196
1531
1298
1485
1365
1615
1226
1330
1086
1220
1079
1276
1148
1287
961
1204
1101
1298
1001
1174
1066
1424
1053
1332
1073
1288
1162
1450
1259
1514
800
0
0
1385
1366
1857
1526
1962
1578
2045
1961
2298
1841
2154
1547
1826
1579
1995
1578
2023
1669
2052
1749
2066
1817
2222
1893
2193
2008
2192
2005
2123
1845
2177
1955
2282
2101
2408
2078
2451
2090
2298
2092
2424
2002
2400
2202
2450
2186
2521
2101
2611
2261
2494
2341
2768
2494
2687
2202
2478
2074
2230
2063
2450
2171
2506
2325
2554
2295
2570
2228
2538
2149
2413
1971
2298
1904
2297
1878
2197
1967
2330
2101
2378
1858
2016
1658
1931
1705
1884
1781
2095
1613
1907
1625
1873
1565
1718
1532
1893
1474
1815
1530
1853
1636
2036
1797
2073
1285
0
0
1627
1686
2013
1597
1883
1755
2133
2049
2377
2021
2153
1709
2005
1709
2003
1773
1945
1717
2018
1834
2178
2030
2354
2132
2437
2237
2470
2096
2344
2037
2401
2063
2519
2205
2647
2308
2537
2252
2474
2230
2507
2124
2485
2132
2413
2261
2492
2212
2557
2277
2596
2438
2546
2379
2549
2171
2358
2033
2106
2065
2380
2154
2365
2150
2424
2213
2533
2229
2386
2133
2293
1986
2154
1910
2248
1907
2098
1877
2262
2024
2193
1769
1928
1502
1714
1445
1804
1565
1879
1589
1702
1421
1621
1293
1604
1293
1520
1243
1645
1321
1578
1373
1684
1438
1558
1034
0
0
1533
1503
1841
1435
1774
1607
2114
1956
2322
1795
2006
1541
1931
1561
1884
1579
1888
1705
2002
1842
2219
1950
2427
2146
2406
2194
2485
2066
2308
1958
2266
2035
2370
2171
2537
2189
2500
2028
2405
2105
2390
1995
2299
1989
2258
2132
2250
2027
2392
2113
2454
2285
2474
2102
2258
1951
2148
1829
2030
1896
2282
2084
2173
1782
2225
1971
2334
1970
2228
1955
2218
1929
2091
1873
2167
1888
2178
1978
2226
2004
2251
1807
1928
1578
1730
1438
1706
1443
1828
1654
1814
1502
1678
1274
1544
1140
1461
1023
1472
1150
1483
1289
1528
1210
1395
802
0
0
1405
1290
1533
1131
1467
1413
1840
1589
1926
1570
1701
1449
1842
1418
1670
1373
1649
1430
1824
1754
2088
1850
2324
2060
2250
2022
2237
1881
2057
1645
1949
1662
2051
1785
2146
1815
2068
1647
1997
1722
1933
1611
1881
1601
1864
1586
1832
1580
1933
1666
2020
1859
1993
1690
1888
1617
1750
1396
1778
1558
1875
1653
1745
1456
1840
1495
1874
1570
1725
1561
1797
1460
1739
1577
1861
1642
1883
1719
2042
1780
1949
1570
1874
1504
1708
1415
1680
1290
1778
1529
1776
1420
1533
1142
1292
1013
1242
846
1294
983
1262
1035
1251
810
1032
542
0
0
1610
1401
1680
1297
1707
1675
2207
1967
2206
1890
2150
1842
2194
1811
2037
1789
2155
1853
2328
2053
2448
2214
2557
2356
2530
2184
2489
2082
2258
1880
2275
1932
2229
1995
2395
1985
2321
1946
2246
1957
2314
1879
2223
1894
2194
1949
2171
1906
2253
2118
2420
2166
2382
1953
2252
1922
2201
1877
2057
2020
2233
2022
2165
1808
2185
1832
2188
1828
2069
1826
2100
1842
2114
1885
2246
1972
2277
2122
2485
2139
2378
2018
2322
2010
2211
1898
2234
1942
2385
2145
2395
2034
2260
1883
2026
1678
1847
1530
1863
1594
1876
1634
1820
1408
1620
1108
0
0
1781
1524
1814
1562
1965
1890
2422
2223
2413
2245
2407
2084
2410
2005
2282
1897
2125
1878
2286
2187
2429
2230
2513
2266
2437
2101
2327
2010
2237
1861
2027
1882
2261
1845
2300
1969
2243
1829
2106
1770
2165
1918
2071
1732
2131
1799
2139
1876
2181
2006
2291
1992
2121
1769
2060
1751
2113
1754
2034
1866
2004
1762
1893
1675
1947
1668
1923
1581
1899
1488
1773
1495
1928
1596
1908
1585
1966
1746
1946
1674
1894
1601
1869
1594
1753
1533
1808
1661
2013
1866
2088
1785
1988
1650
1793
1495
1730
1435
1746
1534
1810
1426
1707
1299
1418
806
0
0
1678
1380
1782
1454
1945
1918
2394
2201
2418
2134
2377
1979
2246
1877
2034
1629
1992
1670
2070
1917
2218
1950
2286
1994
2292
1913
2138
1842
2082
1825
2037
1782
2203
1835
2138
1905
2133
1804
2087
1799
2059
1780
2070
1693
2019
1742
2099
1830
2231
2063
2295
1895
2099
1800
2066
1761
2189
1807
2017
1746
1883
1637
1803
1613
1955
1615
1892
1545
1898
1533
1771
1473
1873
1546
1781
1500
1805
1658
1957
1513
1757
1526
1701
1305
1634
1363
1669
1512
1829
1675
2002
1613
1715
1450
1751
1425
1733
1450
1842
1573
1916
1541
1705
1381
1323
802
0
0
1214
1143
1375
1257
1828
1690
2122
1914
2075
1735
1942
1541
1806
1386
1620
1346
1513
1238
1626
1391
1662
1502
1885
1621
1833
1540
1795
1595
1789
1464
1742
1449
1834
1614
1850
1540
1821
1476
1754
1474
1689
1389
1794
1382
1642
1451
1928
1722
2130
1815
1974
1617
1958
1693
1813
1474
1801
1495
1758
1442
1618
1309
1581
1482
1724
1436
1595
1323
1633
1224
1526
1240
1640
1253
1518
1277
1594
1274
1512
1214
1510
1179
1355
1125
1326
1074
1355
1234
1426
1229
1502
1188
1362
1077
1309
1068
1347
1103
1507
1274
1597
1405
1489
1143
1103
554
0
0
1496
1285
1810
1593
2197
2010
2441
2121
2370
1949
2157
1639
2026
1592
1951
1565
1851
1508
1947
1717
2008
1742
2219
1917
2194
1956
2260
1925
2254
1893
2132
1936
2272
2038
2308
2025
2182
1848
2179
1873
2206
1942
2146
1879
2255
2081
2587
2341
2714
2306
2617
2258
2549
2164
2450
2018
2332
2011
2301
1961
2181
1900
2288
2036
2487
2094
2338
1992
2316
1896
2148
1872
2288
1941
2313
1961
2154
1779
2060
1680
2021
1658
1934
1678
1901
1597
1961
1633
1867
1661
2062
1685
1957
1557
1826
1513
1850
1557
2042
1778
2211
1859
2071
1647
1762
1166
0
0
1722
1686
2109
1967
2493
2234
2594
2203
2454
2092
2162
1801
2035
1722
2090
1712
2070
1648
2130
1783
2188
1945
2210
2030
2289
2121
2446
2107
2293
2081
2245
2097
2382
2114
2497
2093
2344
2062
2309
2094
2344
2004
2290
2076
2436
2221
2660
2492
2684
2450
2550
2275
2571
2166
2457
1993
2309
1986
2285
2058
2249
1847
2219
1972
2279
2146
2329
2026
2216
1935
2103
1863
2041
1908
2349
1951
2089
1582
1719
1581
1873
1581
1797
1542
1714
1337
1633
1414
1612
1482
1716
1483
1620
1365
1610
1327
1515
1273
1737
1485
1873
1559
1673
1370
1515
954
0
0
1709
1613
2099
1995
2378
2063
2486
1946
2256
1813
1917
1580
1835
1627
1940
1522
2000
1658
1997
1812
2201
1903
2261
2058
2394
2161
2482
2177
2345
2050
2390
2200
2448
2221
2469
2104
2453
2120
2398
2146
2496
2149
2530
2188
2577
2301
2612
2426
2731
2458
2641
2263
2557
2202
2505
2062
2294
2113
2387
2009
2221
1854
2232
2023
2372
2198
2389
2170
2314
1957
2132
1949
2125
1946
2347
1962
2070
1553
1713
1513
1896
1570
1941
1702
1806
1518
1737
1381
1586
1227
1547
1346
1527
1242
1515
1222
1461
1253
1594
1338
1710
1331
1399
1195
1358
868
0
0
1394
1364
1794
1681
2006
1779
2042
1557
1783
1390
1447
1189
1496
1238
1595
1168
1626
1358
1805
1702
1940
1732
2017
1848
2150
1961
2293
1930
2189
1970
2144
1941
2227
1942
2261
1917
2129
1885
2228
1837
2260
1915
2294
1896
2258
1995
2299
2138
2396
2142
2349
2011
2186
1866
2142
1787
2026
1802
2138
1719
1996
1672
2021
1747
2125
1969
2234
1962
2002
1642
2032
1771
2034
1815
2074
1683
1853
1477
1650
1459
1738
1458
1762
1588
1782
1361
1579
1314
1333
1128
1293
1014
1331
1085
1165
905
1270
899
1315
1061
1362
1005
1082
810
993
502
0
0
1656
1523
1954
1820
2289
2010
2251
1780
1990
1521
1807
1525
1906
1637
2084
1665
2074
1764
2312
2074
2418
2150
2506
2313
2658
2347
2767
2289
2557
2320
2511
2189
2522
2205
2507
2114
2444
2181
2502
2203
2524
2263
2642
2253
2676
2386
2872
2562
2894
2487
2802
2267
2490
2129
2363
2192
2522
2154
2493
2139
2472
2074
2440
2165
2544
2352
2698
2352
2493
2230
2421
2253
2518
2350
2634
2258
2487
2034
2349
2118
2404
2108
2534
2245
2457
2008
2314
1966
2119
1805
2050
1706
2011
1590
1839
1508
1754
1498
1878
1449
1834
1509
1637
1348
1604
1082
0
0
1787
1683
2226
1953
2486
2245
2415
1962
1980
1718
2021
1812
2186
2029
2261
1942
2205
2145
2444
2263
2522
2306
2570
2229
2641
2322
2637
2242
2418
2141
2388
2109
2273
1977
2256
2052
2327
1972
2320
2020
2388
2050
2333
2152
2458
2350
2705
2472
2635
2311
2509
2133
2226
1870
2078
1881
2220
1858
2174
1871
2033
1813
2053
1906
2233
2039
2395
2024
2170
1950
2146
1995
2353
2100
2313
1925
2054
1713
2053
1739
2149
1819
2226
2021
2234
1909
2094
1813
2093
1748
2021
1834
2117
1606
1777
1444
1866
1429
1589
1348
1545
1288
1418
1099
1352
861
0
0
1646
1498
2066
1770
2334
2020
2346
1854
1989
1655
2004
1690
2181
1988
2206
1754
2192
1983
2318
2085
2355
1967
2261
1827
2320
2024
2319
1918
2124
1789
2139
1874
1992
1774
2048
1734
2064
1751
2102
1826
2074
1821
2123
1836
2177
2039
2406
2055
2346
1946
2170
1815
1949
1630
1905
1699
2030
1652
2056
1714
1926
1650
1903
1614
1982
1749
2098
1693
1937
1618
1837
1636
2091
1755
2025
1557
1811
1442
1749
1439
1837
1549
1942
1739
1966
1613
1878
1622
2026
1594
2041
1844
2006
1634
1778
1467
1759
1439
1602
1316
1474
1197
1343
963
1192
587
0
0
1259
1229
1842
1642
2061
1807
2073
1593
1769
1475
1783
1506
1893
1718
1990
1494
1782
1641
1873
1634
1777
1552
1778
1398
1821
1550
1770
1509
1827
1560
1814
1595
1717
1391
1721
1441
1787
1506
1831
1565
1851
1619
1825
1591
1917
1734
1934
1634
1838
1585
1765
1526
1689
1391
1572
1381
1646
1359
1698
1467
1653
1402
1623
1362
1625
1362
1652
1269
1595
1378
1618
1371
1751
1308
1533
1206
1509
1189
1457
1178
1493
1171
1579
1298
1529
1205
1507
1194
1509
1262
1659
1509
1765
1512
1576
1401
1602
1261
1588
1268
1476
1066
1163
727
926
452
0
0
1601
1613
2157
1871
2448
2146
2348
2026
2237
1882
2229
1847
2233
1908
2166
1770
2070
1805
2076
1900
2151
1851
2137
1779
2171
1842
2218
1974
2321
1961
2346
2013
2178
1841
2247
1870
2254
1958
2334
2005
2452
2081
2504
2173
2419
2199
2334
2065
2309
1917
2253
1942
2224
1906
2122
1882
2197
1937
2228
1973
2149
1858
2148
1877
2182
1915
2074
1766
2203
1981
2212
1922
2194
1788
2114
1684
2173
1765
2066
1696
2065
1689
2022
1755
2056
1719
1970
1675
1917
1737
2080
1815
2244
1929
2061
1925
2330
1968
2281
1934
2238
1807
1970
1434
1692
999
0
0
1869
1961
2497
2217
2631
2386
2685
2288
2397
1982
2164
1796
2251
1949
2205
1780
2125
1798
2128
1829
2150
1905
2258
1856
2187
2009
2306
2099
2402
2157
2390
2009
2340
1947
2212
2022
2269
1997
2280
2103
2501
2286
2510
2165
2313
2055
2171
1869
2092
1747
2156
1878
2125
1885
2148
1874
1992
1802
2038
1835
1968
1755
1919
1704
2025
1729
1876
1641
2018
1733
1901
1584
1901
1507
1816
1480
1916
1601
1828
1534
1759
1502
1781
1482
1697
1424
1711
1393
1668
1306
1715
1444
1733
1461
1610
1512
1849
1719
2141
1817
2045
1736
1741
1419
1541
965
0
0
1890
1874
2354
2181
2522
2238
2422
2076
2115
1635
1883
1656
2061
1700
2040
1594
1988
1611
1977
1685
2105
1714
2111
1853
2181
2001
2325
2135
2418
2223
2373
1988
2258
1914
2333
2070
2253
1877
2304
2219
2486
2234
2429
1953
2186
1903
2167
1958
2125
1732
2058
1812
2134
1910
2177
1802
1864
1614
1898
1612
1716
1598
1821
1669
1906
1533
1825
1621
1952
1584
1811
1526
1801
1469
1822
1394
1831
1493
1621
1529
1698
1402
1650
1300
1621
1262
1626
1275
1544
1312
1465
1245
1542
1275
1520
1253
1610
1409
1934
1546
1965
1577
1723
1401
1602
954
0
0
1666
1660
2150
1837
2157
1889
2148
1655
1681
1380
1617
1322
1691
1426
1668
1265
1657
1523
1858
1557
1883
1636
1938
1659
1955
1882
2290
1942
2298
1973
2255
1860
2114
1805
2085
1900
2107
1789
2085
2050
2365
2126
2266
1846
2059
1797
2150
1773
1963
1554
2004
1730
2042
1797
2073
1742
1755
1389
1545
1330
1531
1327
1668
1397
1652
1343
1650
1477
1789
1524
1653
1356
1645
1359
1670
1218
1525
1165
1347
1224
1554
1205
1553
1189
1309
1017
1218
985
1353
957
1308
1006
1300
980
1229
1011
1192
1171
1496
1161
1446
1177
1416
1141
1410
790
0
0
1968
2026
2392
2121
2468
2133
2328
1762
1953
1516
1896
1599
1962
1588
2022
1730
2173
1899
2341
2051
2398
2113
2457
2286
2519
2321
2726
2426
2710
2427
2551
2170
2478
2115
2395
2183
2516
2150
2709
2548
2940
2601
2701
2376
2711
2450
2761
2429
2606
2225
2670
2406
2780
2475
2750
2327
2398
1961
2247
1919
2157
1946
2219
1986
2393
2034
2418
2196
2470
2185
2411
2065
2458
2059
2437
2037
2202
1794
1970
1779
2163
1858
2169
1769
2057
1610
1882
1639
1929
1597
1922
1625
1937
1525
1778
1534
1865
1545
2034
1614
1899
1589
1755
1609
1914
1422
0
0
2066
2074
2585
2322
2570
2162
2290
1922
1956
1684
1942
1701
2029
1813
2194
2103
2321
2194
2466
2306
2534
2246
2493
2165
2546
2363
2610
2329
2518
2118
2418
2006
2221
1972
2248
1996
2317
2266
2854
2589
2881
2449
2662
2349
2536
2343
2642
2337
2472
2234
2566
2426
2758
2413
2761
2338
2374
2000
2106
1836
2068
1861
2181
1994
2356
2027
2332
2165
2456
2116
2328
2026
2212
1966
2294
1950
2111
1718
1911
1722
2042
1765
2056
1582
1890
1523
1669
1484
1801
1516
1789
1522
1728
1354
1575
1355
1632
1353
1533
1322
1574
1257
1413
1192
1449
1042
0
0
1991
1892
2388
2049
2388
2074
2194
1686
1921
1562
1915
1740
2075
1929
2196
2165
2301
2117
2340
2098
2340
1986
2255
1881
2324
2062
2414
2100
2373
1975
2185
1749
2114
1800
2130
1817
2286
2229
2708
2537
2722
2335
2482
2082
2390
2150
2521
2186
2380
2062
2454
2306
2673
2387
2658
2317
2293
1910
2042
1693
1994
1789
2149
1925
2301
2058
2251
1992
2317
2016
2266
1877
2095
1858
2118
1906
2066
1691
1951
1742
2063
1833
2052
1691
2036
1637
1878
1611
1936
1661
1910
1562
1749
1380
1557
1256
1495
1311
1481
1245
1487
1172
1298
1049
1299
795
0
0
1625
1638
1958
1742
2097
1748
1874
1525
1793
1550
1794
1502
1903
1606
1989
1762
1963
1590
1828
1576
1883
1543
1832
1492
1834
1634
1978
1757
2010
1594
1851
1444
1725
1492
1797
1681
2092
1994
2449
2126
2280
1862
1949
1634
1919
1626
2086
1723
1867
1687
2035
2027
2290
1974
2322
1940
1929
1509
1651
1461
1758
1535
1839
1584
1988
1576
1800
1618
1820
1445
1778
1399
1673
1403
1715
1488
1801
1279
1698
1449
1811
1589
1770
1404
1746
1453
1698
1426
1875
1609
1851
1473
1629
1161
1270
1092
1294
1028
1225
941
1189
872
1125
838
1058
466
0
0
1833
1796
2319
2013
2401
2018
2219
1915
2137
1909
2186
1796
2173
1797
2126
1842
2122
1753
1974
1779
2074
1824
2091
1817
2230
2058
2411
2132
2465
1961
2377
1985
2264
1960
2262
2040
2497
2379
2895
2465
2564
2154
2362
2035
2263
2010
2402
1973
2317
2040
2502
2321
2683
2377
2628
2251
2323
1917
2041
1827
2073
1851
2154
1916
2279
1930
2237
1871
2241
1781
2201
1877
2017
1730
2094
1789
2123
1666
2061
1813
2338
1960
2055
1824
2140
1840
2213
1994
2413
2168
2553
2117
2221
1812
1945
1737
1973
1586
1810
1461
1738
1525
1669
1294
1637
1041
0
0
2076
2098
2464
2269
2619
2367
2574
2203
2411
2118
2278
1863
2134
1877
2110
1775
2058
1866
2113
1880
2120
1959
2269
2011
2395
2169
2405
2166
2518
2178
2374
2102
2424
2059
2354
1979
2402
2285
2626
2337
2478
2062
2204
1929
2102
1967
2176
1840
2133
1922
2316
2052
2465
2187
2474
2053
2150
1730
2030
1666
1978
1609
1861
1751
1985
1710
1988
1693
1947
1588
1865
1525
1834
1508
1817
1611
1866
1621
1687
1587
1845
1640
1755
1462
1737
1522
1796
1655
2077
1887
2116
1821
1967
1558
1837
1497
1762
1400
1595
1348
1577
1349
1444
1222
1404
800
0
0
2074
1988
2415
2219
2513
2315
2569
2114
2333
1837
2056
1551
1917
1646
1988
1629
1949
1713
1958
1674
2029
1783
2266
2031
2497
2261
2454
2263
2578
2314
2473
2132
2347
1942
2218
1842
2276
2062
2389
2132
2453
1986
2098
1839
2050
1786
2025
1739
2075
1815
2192
1850
2289
2094
2325
1979
2067
1673
2018
1629
1937
1524
1844
1598
1914
1610
1810
1572
1861
1565
1931
1527
1779
1494
1778
1466
1695
1445
1618
1413
1734
1413
1676
1390
1695
1392
1665
1485
1931
1738
1914
1588
1677
1409
1717
1389
1833
1426
1675
1429
1738
1320
1493
1190
1326
676
0
0
1668
1723
2178
1985
2312
2052
2330
1767
1853
1426
1525
1141
1530
1234
1578
1311
1645
1370
1677
1449
1685
1611
2082
1802
2232
1992
2283
1966
2274
2006
2093
1725
1978
1551
1882
1547
1815
1689
2010
1764
2098
1695
1829
1474
1695
1469
1669
1351
1721
1417
1746
1544
1936
1726
2010
1605
1797
1424
1684
1323
1655
1316
1489
1322
1606
1428
1645
1358
1585
1217
1526
1201
1464
1162
1503
1163
1431
1150
1356
1099
1381
1143
1498
1173
1481
1127
1481
1307
1586
1254
1490
1160
1235
989
1314
1046
1469
1128
1449
1207
1494
1249
1434
1158
1147
526
0
0
2070
1977
2458
2114
2571
2255
2485
1854
2029
1592
1818
1387
1824
1586
2000
1713
2081
1897
2180
1835
2153
1943
2493
2215
2621
2314
2615
2372
2602
2213
2361
2013
2295
1896
2233
1968
2260
1961
2309
2117
2537
2103
2301
1897
2210
1954
2193
1891
2138
1819
2280
2029
2524
2237
2459
2084
2383
1921
2114
1748
2051
1770
2034
1811
2181
1918
2191
1853
2234
1809
2110
1658
2077
1776
2001
1669
1997
1682
1946
1609
1946
1650
2043
1879
2132
1821
2093
1762
2152
1691
1957
1602
1818
1435
1812
1477
1876
1559
1871
1691
2130
1862
2041
1707
1852
1178
0
0
2242
2237
2711
2544
2804
2384
2516
2070
2090
1684
2037
1649
1950
1779
2290
2038
2310
2101
2383
1969
2290
2069
2501
2302
2673
2446
2634
2388
2427
2100
2394
2063
2271
1970
2189
1938
2225
2054
2498
2345
2636
2217
2322
1981
2283
2025
2279
1924
2206
1878
2237
2230
2601
2363
2530
2210
2310
1937
2149
1802
1996
1749
1996
1778
2153
1902
2187
1971
2202
1861
2091
1742
1915
1718
1969
1663
1831
1570
1766
1509
1854
1605
1903
1892
2068
1718
1916
1671
1770
1491
1638
1485
1547
1420
1551
1264
1622
1346
1618
1437
1765
1585
1846
1503
1685
1187
0
0
2138
2181
2477
2389
2644
2217
2375
1825
1890
1524
1836
1604
1985
1807
2159
1885
2115
1845
2189
1863
2026
1816
2309
2090
2445
2217
2363
2036
2200
1875
2157
1782
2128
1761
2089
1829
2200
1993
2546
2386
2595
2214
2403
2003
2321
2004
2274
1866
2200
1830
2209
2199
2637
2289
2472
2137
2242
1902
2170
1864
2125
1796
2013
1717
2142
1967
2191
2031
2237
1865
2036
1803
2014
1694
2010
1667
1781
1520
1816
1445
1875
1587
1936
1878
2112
1697
1830
1510
1571
1280
1530
1348
1458
1306
1453
1142
1482
1205
1380
1234
1573
1321
1571
1242
1518
1059
0
0
1790
1825
2213
1973
2268
1786
2050
1542
1576
1257
1556
1352
1723
1555
1890
1595
1715
1389
1794
1458
1573
1416
1858
1709
2059
1818
1954
1598
1835
1639
1822
1597
1812
1625
1941
1690
2046
1906
2285
2136
2378
2096
2165
1843
2146
1827
2138
1730
2016
1669
2133
2039
2418
2025
2264
1951
2062
1818
2052
1722
2001
1693
1889
1630
1984
1650
1965
1732
1798
1513
1813
1482
1655
1403
1652
1465
1700
1341
1611
1350
1733
1565
1832
1707
1936
1482
1581
1333
1366
1094
1286
1172
1290
1050
1099
910
1265
961
1189
980
1247
918
1106
918
1038
715
0
0
2051
2019
2458
2244
2547
2127
2345
1822
1972
1607
1990
1652
2033
1777
2132
1766
2029
1747
2044
1762
2022
1723
2197
2029
2379
2130
2242
1956
2294
2053
2409
2101
2394
2189
2520
2258
2514
2309
2818
2480
2875
2367
2567
2185
2490
2149
2564
2135
2462
2170
2487
2404
2853
2526
2734
2375
2612
2322
2618
2308
2542
2250
2564
2103
2419
2025
2349
2061
2159
1869
2182
1842
2013
1780
2177
2006
2148
1850
2117
1863
2310
2118
2477
2325
2622
2123
2210
1918
2133
1785
2074
1873
2026
1669
1888
1456
1834
1524
1722
1490
1763
1437
1813
1380
1644
1213
0
0
2301
2308
2752
2402
2553
2301
2485
2122
2274
1880
2133
1838
2158
1799
2039
1796
2127
1907
2186
1925
2117
1949
2344
2077
2413
2117
2397
2129
2413
2258
2541
2357
2530
2267
2513
2237
2462
2293
2669
2456
2676
2294
2327
2007
2310
1937
2216
1940
2136
1885
2253
2265
2540
2237
2352
2163
2318
2028
2409
2141
2358
2110
2224
1941
2134
1749
2020
1669
1981
1626
1863
1549
1758
1593
1867
1640
1842
1621
1747
1618
1978
1893
2273
2085
2293
1888
2021
1762
1956
1629
2026
1781
2004
1643
1768
1371
1593
1341
1557
1231
1508
1201
1541
1187
1419
1001
0
0
2217
2115
2533
2245
2449
2139
2423
1904
2205
1716
1978
1653
1958
1545
1868
1618
1956
1689
2045
1722
1997
1867
2130
1970
2390
2022
2257
2034
2274
2262
2504
2197
2386
1971
2230
1963
2130
1954
2396
2167
2476
1985
2037
1743
2020
1757
1978
1701
1967
1673
2053
1941
2299
2010
2209
1870
2003
1715
2122
1800
2125
1909
2090
1685
1988
1591
1781
1437
1716
1489
1741
1502
1698
1410
1725
1421
1699
1450
1634
1374
1754
1716
2114
1963
2090
1657
1794
1483
1746
1426
1860
1646
1888
1566
1650
1408
1542
1338
1579
1165
1405
1047
1458
1110
1276
835
0
0
1846
1892
2293
1954
2181
1978
2184
1887
1947
1621
1820
1405
1613
1284
1540
1443
1765
1597
1959
1656
1837
1668
2029
1796
2166
1719
1988
1729
1977
1795
2051
1825
1990
1633
1808
1618
1812
1686
2042
1847
2094
1642
1730
1431
1745
1450
1741
1418
1725
1450
1754
1629
1902
1623
1853
1502
1754
1394
1740
1485
1666
1499
1637
1416
1659
1213
1455
1210
1454
1161
1413
1210
1517
1258
1506
1224
1333
1149
1386
1181
1524
1502
1812
1641
1821
1290
1403
1195
1352
1103
1550
1261
1476
1204
1405
1221
1421
1156
1391
1126
1210
850
1205
866
1128
647
0
0
2185
2062
2662
2244
2416
2157
2441
2133
2446
1986
2158
1755
2006
1546
1919
1794
2267
2111
2407
2167
2410
2077
2484
2192
2496
2036
2230
1956
2197
2066
2404
2011
2376
1962
2277
1998
2274
2037
2485
2257
2395
1979
2254
1946
2271
1961
2178
1898
2184
1815
2193
1943
2322
1971
2285
1934
2269
1893
2302
1917
2110
1869
2110
1911
2155
1764
2074
1705
1988
1749
1997
1741
2132
1786
2059
1715
1975
1723
1966
1794
2214
2138
2505
2179
2373
1877
2053
1726
1933
1666
2063
1669
2010
1614
1940
1765
2127
1890
2110
1813
1994
1614
1911
1483
1681
1122
0
0
2302
2324
2837
2500
2768
2482
2731
2446
2626
2262
2483
2036
2201
1802
2186
2071
2486
2229
2565
2242
2362
2157
2423
2229
2511
2001
2234
1862
2186
1981
2244
2005
2174
2003
2269
1911
2214
2049
2461
2109
2300
2034
2199
1807
2205
1880
2106
1751
2076
1841
2154
1850
2203
1845
2154
1800
2089
1812
2037
1750
2011
1694
1984
1698
1968
1614
1873
1709
2006
1723
1893
1605
1961
1805
1977
1595
1830
1469
1818
1687
2082
1946
2258
1938
1928
1606
1700
1456
1658
1371
1676
1410
1609
1427
1610
1498
1878
1499
2030
1598
1892
1522
1688
1195
1435
928
0
0
2091
2172
2676
2388
2646
2377
2660
2320
2557
2225
2384
1849
2115
1762
2066
1931
2294
2014
2403
1881
2135
1881
2158
1914
2234
1802
2055
1737
2067
1786
2130
1900
2006
1776
2174
1718
2068
1879
2329
2058
2216
1774
2138
1745
2101
1733
2033
1699
1972
1663
2052
1700
2074
1709
2120
1768
2026
1613
1842
1675
1801
1578
1826
1499
1809
1409
1825
1629
1969
1702
1844
1547
2054
1752
1975
1634
1873
1547
1803
1685
2085
1906
2201
1741
1811
1494
1639
1254
1587
1273
1565
1232
1482
1146
1413
1229
1624
1343
1787
1485
1782
1494
1653
1158
1330
773
0
0
1842
1925
2362
2039
2355
2074
2289
2050
2270
1866
2084
1554
1810
1411
1685
1429
1957
1677
1946
1565
1754
1509
1814
1595
1960
1469
1826
1510
1769
1505
1810
1546
1792
1413
1851
1397
1789
1628
2133
1842
2070
1602
1925
1489
1770
1495
1780
1437
1754
1573
1874
1493
1854
1584
1953
1699
1864
1414
1636
1318
1595
1341
1615
1314
1597
1202
1521
1373
1614
1335
1580
1354
1751
1555
1821
1486
1712
1425
1590
1502
1947
1648
1973
1522
1426
1147
1368
1057
1314
1032
1293
1035
1282
941
1182
1047
1325
989
1446
1067
1398
1237
1360
937
1113
597
0
0
2130
2130
2628
2315
2662
2299
2586
2268
2521
2071
2360
1815
2041
1674
1885
1637
2196
1844
2165
1808
2123
1809
2170
1917
2283
1897
2261
1912
2223
1925
2224
2022
2201
1975
2242
1892
2253
2124
2642
2381
2587
2135
2393
2030
2397
2049
2442
2169
2494
2189
2510
2236
2546
2179
2673
2233
2451
2020
2171
1950
2193
1947
2202
1774
2066
1722
2050
1803
2142
1851
2029
1793
2171
2022
2319
2014
2217
1918
2374
2202
2577
2266
2507
1950
1972
1659
1906
1616
1879
1542
1957
1545
1836
1537
1701
1545
1826
1490
1892
1508
1820
1568
1884
1454
1753
1245
0
0
2302
2301
2645
2530
2813
2450
2714
2362
2615
2240
2509
1957
2212
1962
2153
1882
2177
1949
2100
1870
2276
1941
2266
2030
2364
2116
2558
2229
2314
2074
2474
2154
2402
2103
2293
2035
2406
2363
2757
2440
2729
2267
2451
2107
2393
2204
2348
2148
2501
2234
2570
2133
2408
2165
2452
2150
2374
1985
2246
1893
2184
1875
2045
1686
1988
1641
1924
1546
1825
1649
1893
1645
1946
1806
1942
1609
1801
1659
2061
2060
2309
2046
2169
1710
1870
1449
1765
1477
1682
1412
1661
1371
1586
1286
1483
1234
1545
1264
1545
1231
1501
1136
1418
1173
1542
942
0
0
2199
2198
2567
2373
2678
2293
2594
2267
2422
2024
2318
1909
2118
1832
2058
1695
1993
1700
2056
1738
2138
1747
2105
1833
2210
2027
2566
2254
2421
2138
2505
2114
2391
2074
2320
1940
2347
2271
2730
2356
2625
2093
2331
1888
2217
1900
2128
1882
2370
2023
2300
1994
2317
2114
2370
2066
2357
1938
2286
1990
2238
1931
2150
1684
2114
1617
1776
1486
1772
1521
1759
1497
1824
1576
1736
1482
1694
1538
1996
1901
2249
1857
1995
1573
1764
1409
1702
1477
1675
1409
1682
1355
1538
1164
1477
1243
1545
1195
1526
1076
1360
971
1251
1033
1363
906
0
0
1832
1874
2254
2069
2289
2005
2315
1885
2103
1749
2101
1637
1876
1606
1718
1458
1690
1554
1844
1681
1933
1644
1861
1613
1994
1903
2254
2003
2273
1908
2269
1956
2138
1814
2001
1749
1994
1971
2373
2090
2210
1802
1813
1435
1722
1524
1700
1461
1921
1594
1819
1605
1862
1658
2015
1825
1975
1572
1885
1681
1960
1715
1917
1557
1957
1437
1729
1329
1561
1301
1538
1289
1509
1309
1434
1206
1459
1344
1683
1453
1806
1437
1585
1242
1442
1140
1462
1273
1457
1218
1506
1273
1411
1154
1422
1141
1369
1096
1370
982
1089
763
1101
806
1092
585
0
0
2095
2070
2436
2197
2569
2111
2532
2110
2322
2001
2376
2004
2222
1968
2080
1875
2257
1870
2331
2052
2378
1957
2344
2046
2417
2186
2746
2418
2594
2214
2590
2176
2358
1998
2347
1961
2325
2202
2698
2326
2490
1917
2123
1744
2172
1885
2058
1904
2210
1920
2109
1832
2146
1861
2258
1986
2337
1916
2127
1924
2325
1998
2278
1992
2349
1985
2259
1922
2135
1810
2036
1796
2071
1746
1957
1754
2145
1876
2297
1940
2203
1821
2078
1718
1924
1646
1954
1604
2061
1733
2050
1768
2061
1628
2053
1768
2009
1705
1918
1511
1743
1261
1594
1316
1636
1058
0
0
2357
2330
2794
2456
2629
2465
2758
2403
2651
2301
2542
2358
2519
2267
2430
2123
2395
2153
2484
2277
2479
2237
2466
2141
2367
2213
2630
2449
2639
2238
2406
1988
2222
1914
2137
1915
2269
2178
2601
2378
2522
1936
2123
1842
2048
1829
2005
1849
2091
1726
2073
1746
2020
1716
2044
1810
1986
1693
1866
1694
1945
1771
1988
1734
2166
1811
2069
1949
2157
1830
1982
1640
1842
1605
1928
1643
2039
1884
2004
1670
1945
1594
1803
1617
1716
1584
1684
1459
1819
1515
1757
1435
1718
1506
1837
1682
1906
1780
1934
1387
1521
1191
1351
1055
1358
961
0
0
2254
2194
2626
2273
2484
2284
2596
2265
2505
2171
2557
2255
2523
2201
2333
1974
2190
1902
2279
2004
2234
2014
2152
1781
2067
1894
2377
2085
2447
2000
2093
1749
2028
1738
1965
1780
2069
2013
2380
2168
2234
1838
2006
1677
1925
1700
1943
1621
1918
1677
1907
1661
1957
1582
1866
1566
1769
1498
1672
1425
1737
1575
1845
1460
1838
1594
1824
1663
1978
1677
1892
1550
1806
1466
1950
1658
1998
1613
1811
1403
1747
1352
1577
1391
1631
1448
1581
1271
1584
1366
1609
1305
1562
1259
1661
1418
1829
1698
1893
1324
1475
1100
1278
984
1217
622
0
0
1845
1914
2258
2027
2235
1974
2274
1939
2329
1898
2245
1960
2234
1829
1897
1581
1730
1458
1801
1555
1803
1502
1748
1400
1745
1567
1969
1709
1989
1601
1758
1499
1687
1414
1531
1389
1738
1646
1992
1753
1985
1493
1613
1403
1733
1394
1681
1446
1659
1256
1716
1323
1591
1380
1591
1297
1517
1205
1385
1128
1437
1243
1411
1178
1509
1201
1487
1284
1553
1362
1677
1362
1565
1339
1777
1538
1828
1395
1408
1107
1404
1033
1321
1088
1282
1104
1271
1101
1324
1114
1427
982
1241
971
1326
1195
1468
1337
1545
1070
1278
896
1082
808
942
590
0
0
2098
2111
2589
2266
2537
2240
2578
2186
2548
2179
2518
2181
2474
2026
2106
1803
1988
1704
2028
1835
2109
1811
2134
1766
2142
1910
2312
2034
2281
1850
2137
1775
2154
1800
2088
1762
2082
2013
2425
2181
2376
1867
2122
1869
2226
1958
2259
1971
2238
1866
2162
1811
2171
1851
2229
1821
2105
1745
1994
1668
1983
1637
1904
1665
1997
1613
1998
1723
1937
1651
2033
1781
2122
1909
2415
2086
2282
1830
1909
1673
2043
1571
1962
1605
1803
1610
1784
1584
1858
1541
1882
1525
1753
1426
1818
1558
1941
1763
1978
1493
1748
1390
1629
1415
1678
1113
0
0
2350
2342
2767
2546
2731
2452
2830
2498
2666
2486
2578
2413
2563
2171
2256
1833
2158
1893
2158
1954
2217
1899
2222
1879
2214
2058
2378
2057
2379
1969
2177
1784
2156
1836
2137
1880
2160
2050
2439
2218
2376
2020
2061
1861
2225
2088
2365
2109
2395
1972
2229
1892
2077
1912
2202
1924
2091
1789
1891
1658
1924
1535
1914
1626
1905
1526
1869
1461
1796
1490
1780
1608
1881
1781
2164
1922
1949
1553
1853
1594
1895
1592
1780
1403
1707
1420
1595
1330
1643
1424
1622
1425
1548
1270
1589
1355
1740
1374
1554
1221
1401
1170
1460
1173
1542
1005
0
0
2138
2123
2537
2297
2558
2223
2516
2158
2419
2155
2413
2158
2237
1805
2010
1632
1938
1651
1933
1678
1954
1665
2059
1707
2054
1818
2314
1889
2111
1754
1900
1613
2054
1640
1941
1684
1989
1892
2286
2043
2222
1899
2036
1834
2173
2025
2336
2056
2331
1914
2111
1880
2082
1860
2180
1928
2059
1733
1939
1606
1901
1530
1808
1465
1793
1375
1782
1357
1698
1334
1595
1437
1776
1643
1919
1609
1696
1366
1649
1490
1825
1456
1697
1325
1507
1299
1475
1269
1524
1267
1421
1213
1444
1198
1430
1135
1483
1149
1355
1046
1298
974
1258
937
1225
716
0
0
1837
1842
2229
2052
2285
1943
2212
1884
2054
1875
2030
1826
1956
1580
1651
1337
1650
1380
1584
1450
1729
1494
1840
1451
1901
1694
2034
1693
1938
1615
1847
1517
1755
1448
1677
1526
1890
1668
2100
1853
2133
1730
1911
1701
1993
1826
2068
1830
2118
1706
1997
1751
1890
1736
1994
1706
1866
1605
1755
1622
1847
1458
1750
1402
1615
1195
1599
1091
1382
1096
1301
1217
1556
1379
1648
1322
1346
1037
1304
1220
1546
1312
1476
1165
1382
1085
1316
1146
1399
1173
1252
1033
1113
854
1147
985
1174
965
1133
861
1083
754
1010
681
1069
507
0
0
2075
2005
2446
2227
2482
2169
2506
2177
2386
2181
2338
2094
2139
1718
2004
1662
2032
1704
2026
1827
2230
1888
2314
1975
2374
2225
2546
2166
2453
2129
2499
2002
2354
1928
2352
2056
2414
2179
2610
2402
2590
2296
2402
2078
2314
2037
2401
2093
2435
2026
2367
2125
2406
2181
2429
2154
2356
1981
2270
2106
2392
2018
2375
1884
2282
1840
2010
1595
1954
1599
1858
1737
2098
1946
2167
1794
1869
1569
1852
1722
2024
1751
1993
1586
2007
1700
2013
1771
2100
1783
1889
1613
1786
1429
1838
1547
1922
1603
1719
1399
1610
1397
1561
1245
1531
919
0
0
2287
2293
2610
2349
2613
2295
2642
2362
2631
2347
2477
2077
2310
1950
2190
1919
2198
1909
2251
2023
2373
2159
2482
2194
2555
2322
2627
2334
2577
2318
2642
2170
2452
2002
2293
2157
2423
2226
2586
2300
2486
2127
2237
1836
2037
1854
2119
1785
2048
1794
2044
1840
2116
1980
2153
1936
2026
1767
2050
1706
2124
1861
2141
1821
2160
1758
1981
1604
1722
1365
1762
1586
1860
1741
2006
1572
1765
1332
1589
1424
1675
1410
1611
1444
1582
1464
1840
1633
1853
1490
1693
1329
1563
1355
1627
1426
1663
1388
1529
1203
1370
1137
1256
1021
1323
770
0
0
2148
1974
2441
2098
2440
2132
2493
2165
2501
2068
2342
1945
2164
1817
2121
1745
2082
1786
2103
1896
2252
2056
2329
2004
2352
2140
2404
2196
2448
2152
2372
1860
2107
1716
2039
1776
2098
1962
2298
1992
2177
1779
1947
1585
1770
1502
1792
1443
1753
1493
1731
1606
1965
1762
1924
1680
1723
1514
1736
1349
1765
1512
1837
1488
1818
1498
1785
1363
1561
1212
1551
1382
1713
1593
1898
1380
1542
1294
1452
1250
1483
1221
1405
1146
1398
1219
1589
1390
1593
1378
1548
1200
1424
1306
1594
1428
1538
1146
1293
973
1189
1050
1158
876
1049
602
0
0
1765
1693
2103
1945
2157
1867
2219
1949
2225
1819
2048
1695
1986
1717
1953
1531
1908
1580
1773
1634
1970
1714
1926
1629
2046
1780
2066
1892
2033
1794
1917
1402
1723
1389
1581
1390
1693
1489
1832
1556
1819
1481
1517
1250
1512
1191
1514
1187
1457
1197
1522
1319
1653
1425
1490
1243
1437
1185
1438
1045
1385
1053
1432
1067
1501
1263
1492
1141
1424
1047
1350
1166
1405
1323
1662
1233
1405
995
1273
978
1261
1039
1290
982
1167
939
1226
1078
1210
962
1272
1000
1266
1002
1458
1299
1417
991
1174
819
1008
758
891
677
965
454
0
0
1977
1925
2308
2065
2420
2042
2533
2198
2472
2116
2386
1982
2297
1977
2295
1989
2216
1833
2140
1910
2233
1834
2154
1794
2250
2013
2414
2110
2324
1937
2211
1716
2025
1654
1929
1714
2043
1769
2126
1821
2093
1836
1989
1683
1870
1691
1954
1655
1943
1636
1959
1846
2263
1799
1986
1685
1858
1583
1886
1462
1868
1531
1881
1549
1890
1637
1933
1619
1996
1625
1938
1742
2124
1957
2408
1887
2053
1613
1901
1503
1823
1457
1714
1462
1739
1495
1809
1535
1731
1500
1710
1424
1789
1709
2018
1767
1882
1538
1782
1384
1639
1418
1565
1162
1530
1011
0
0
2036
2005
2413
2180
2486
2197
2605
2334
2562
2162
2448
2213
2394
2031
2293
1877
2250
1877
2062
1834
2101
1710
1931
1673
2135
1957
2234
1963
2158
1778
1962
1701
1890
1590
1917
1610
1874
1577
2005
1694
1959
1737
1898
1547
1877
1541
1746
1551
1805
1520
1965
1864
2013
1669
1822
1561
1782
1411
1672
1378
1726
1431
1705
1414
1637
1450
1850
1600
1826
1573
1892
1673
1964
1773
2122
1809
1907
1482
1650
1405
1538
1317
1522
1226
1507
1274
1562
1239
1545
1385
1474
1242
1588
1428
1629
1321
1546
1210
1448
1190
1446
1244
1458
1078
1231
668
0
0
1713
1730
2076
1870
2227
2005
2429
1982
2285
1874
2179
1842
2095
1628
1901
1501
1771
1450
1697
1509
1801
1386
1662
1437
1768
1624
1956
1608
1823
1445
1768
1349
1750
1367
1646
1417
1637
1339
1789
1491
1731
1516
1732
1324
1721
1373
1695
1366
1658
1370
1897
1726
2009
1545
1705
1394
1656
1277
1670
1311
1658
1256
1529
1202
1570
1368
1777
1445
1605
1405
1757
1618
1903
1661
1974
1637
1845
1399
1541
1138
1418
1078
1370
962
1299
998
1307
1083
1370
1170
1273
968
1449
1242
1412
1078
1323
872
1286
1050
1358
1103
1390
1013
1122
626
0
0
1205
1181
1489
1309
1597
1408
1819
1409
1726
1389
1558
1149
1424
1060
1276
918
1210
821
1261
937
1275
861
1131
950
1353
1096
1384
1075
1397
1061
1267
882
1268
874
1229
986
1290
925
1467
1119
1363
1201
1358
996
1235
980
1250
989
1381
1099
1402
1256
1538
1220
1402
1078
1322
998
1365
964
1309
971
1128
943
1157
974
1237
944
1093
908
1325
1124
1463
1263
1521
1252
1395
968
1057
648
913
581
885
605
862
593
869
557
923
709
931
570
994
740
906
608
867
426
846
693
872
754
1012
610
804
297
0
0
0
0
0
0
0
0
0
0
0
0
0
0
0
0
0
0
0
0
0
0
0
0
0
0
0
0
0
0
0
0
0
0
0
0
0
0
0
0
0
0
0
0
0
0
0
0
0
0
0
0
0
0
0
0
0
0
0
0
0
0
0
0
0
0
0
0
0
0
0
0
0
0
0
0
0
0
0
0
0
0
0
0
0
0
0
0
0
0
0
0
0
0
0
0
0
0
0
0
0
0
0
0
0
0
0
0
0
