P2
108 88
4095
0
0
0
0
0
0
0
0
0
0
0
0
0
0
0
0
0
0
0
0
0
0
0
0
0
0
0
0
0
0
0
0
0
0
0
0
0
0
0
0
0
0
0
0
0
0
0
0
0
0
0
0
0
0
0
0
0
0
0
0
0
0
0
0
0
0
0
0
0
0
0
0
0
0
0
0
0
0
0
0
0
0
0
0
0
0
0
0
0
0
0
0
0
0
0
0
0
0
0
0
0
0
0
0
0
0
0
0
0
1603
1577
1978
1681
2077
1785
2124
1854
2214
1943
2130
1847
2246
2013
2282
2003
2326
2054
2301
2052
2289
2146
2459
2146
2379
2190
2390
2146
2464
2136
2459
2058
2430
1997
2357
2032
2282
1942
2248
1820
2162
1773
1963
1637
1870
1538
1685
1449
1706
1335
1645
1309
1614
1198
1588
1379
1612
1410
1794
1461
1758
1396
1602
1275
1622
1214
1419
1074
1365
1097
1373
1129
1318
1035
1271
1012
1217
869
1253
936
1243
965
1414
1074
1390
1082
1269
1030
1274
913
1210
900
1132
852
1134
746
1038
730
1154
722
1013
801
1051
818
938
456
0
0
1512
1621
1954
1643
2120
1746
2119
1882
2128
1925
2138
1825
2146
1898
2300
2013
2277
2042
2326
2036
2350
2092
2478
2106
2400
2148
2437
2102
2398
2129
2422
2057
2385
1981
2390
1997
2203
1931
2061
1754
1992
1624
1723
1380
1530
1271
1498
1320
1602
1211
1559
1251
1508
1234
1506
1345
1640
1417
1722
1327
1602
1195
1434
1140
1413
1053
1243
971
1302
972
1260
1037
1250
961
1221
948
1155
904
1242
965
1278
1051
1357
954
1266
977
1082
889
1100
878
1167
834
1110
784
989
749
1068
715
1166
859
1098
808
1102
759
861
427
0
0
1834
1857
2338
1986
2443
2120
2513
2196
2594
2333
2554
2237
2615
2305
2662
2406
2774
2481
2810
2509
2803
2538
2918
2582
2874
2608
2856
2582
2839
2675
2970
2532
2900
2504
2888
2454
2653
2324
2498
2148
2319
1846
2002
1656
1961
1672
1929
1702
2041
1746
2129
1866
2234
1796
2209
1909
2088
1869
2178
1706
2022
1606
1925
1525
1944
1496
1764
1482
1828
1477
1846
1549
1885
1604
1876
1633
1871
1572
1930
1604
1896
1577
1901
1531
1852
1494
1649
1481
1738
1435
1810
1337
1607
1377
1661
1374
1739
1398
1835
1520
1826
1397
1750
1338
1517
1001
0
0
2253
2312
2727
2526
2892
2556
2939
2632
2914
2673
2896
2633
2981
2704
2970
2806
3043
2763
2999
2793
3122
2857
3122
2949
3018
2874
3050
2844
3087
2788
3080
2670
2992
2621
2910
2666
2778
2346
2580
2171
2376
1925
2075
1740
2037
1712
1974
1749
2158
1945
2267
1902
2173
1946
2187
2010
2135
1730
1986
1698
1874
1533
1745
1487
1769
1461
1769
1442
1734
1515
1779
1622
1898
1725
1865
1680
2014
1618
1799
1610
1783
1510
1710
1339
1624
1302
1526
1346
1642
1320
1705
1354
1737
1328
1668
1386
1661
1330
1786
1323
1621
1212
1506
1174
1266
745
0
0
2075
2117
2549
2308
2752
2347
2898
2498
2735
2506
2793
2563
2866
2477
2853
2570
2885
2599
2868
2610
2954
2586
2945
2756
2906
2661
2894
2744
2953
2663
2906
2499
2862
2606
2685
2229
2490
2121
2308
1893
2129
1697
1967
1650
2022
1696
2054
1681
2175
1811
2121
1780
2037
1755
2017
1694
1950
1437
1750
1514
1765
1416
1666
1368
1756
1397
1662
1378
1795
1450
1854
1653
1946
1649
1917
1669
1954
1477
1689
1381
1574
1224
1458
1171
1525
1206
1507
1239
1606
1250
1658
1301
1597
1297
1587
1275
1448
1198
1504
1066
1434
1022
1241
950
1124
584
0
0
1853
1851
2170
2031
2345
2036
2479
2116
2418
2236
2429
2106
2526
2216
2481
2269
2511
2237
2542
2298
2594
2351
2666
2406
2605
2358
2616
2282
2604
2280
2561
2138
2564
2079
2377
1938
2042
1682
1962
1482
1770
1384
1732
1456
1861
1563
1871
1501
1902
1450
1782
1385
1571
1202
1576
1323
1535
1117
1477
1298
1434
1124
1329
1084
1424
1136
1474
1273
1625
1462
1725
1547
1743
1451
1717
1325
1591
1231
1209
1002
1342
977
1122
910
1205
951
1171
1121
1393
1037
1413
1093
1286
1014
1172
913
1177
825
1214
686
1100
740
1026
741
762
296
0
0
2068
1993
2441
2189
2679
2266
2757
2342
2679
2498
2717
2418
2875
2478
2809
2601
2879
2581
2948
2631
2972
2698
3011
2731
3014
2750
3052
2746
2984
2728
3012
2517
2881
2530
2787
2290
2404
1978
2396
1964
2302
1947
2290
2082
2410
2089
2308
1883
2146
1917
2103
1730
1988
1642
1907
1758
2042
1662
1917
1760
2005
1634
1949
1618
1974
1812
2130
1863
2322
1996
2326
2039
2326
1970
2086
1793
2035
1626
1800
1580
1878
1559
1894
1584
1994
1528
1894
1638
1969
1590
1970
1525
1860
1393
1746
1494
1749
1388
1771
1351
1738
1322
1634
1274
1384
853
0
0
2252
2301
2758
2554
2838
2633
2973
2600
3025
2705
2989
2683
2954
2730
3067
2733
3089
2820
3138
2744
2964
2839
3162
2731
3154
2786
3086
2740
3034
2746
3067
2728
2943
2592
2705
2349
2580
2242
2395
2169
2433
2194
2520
2128
2340
1955
2229
1869
1994
1738
1923
1598
1874
1670
1917
1677
1951
1655
1868
1568
1890
1660
1946
1708
2133
1776
2132
1873
2251
1846
2194
1822
2027
1655
1781
1576
1716
1437
1629
1330
1814
1429
1720
1505
1754
1417
1750
1480
1695
1418
1605
1374
1576
1286
1514
1212
1544
1222
1515
1228
1458
1224
1378
1138
1333
826
0
0
2108
2053
2569
2273
2707
2425
2795
2370
2714
2493
2730
2436
2825
2625
2955
2582
2910
2616
2948
2570
2814
2615
2957
2596
3027
2625
2922
2549
2860
2581
2869
2491
2772
2298
2566
2093
2470
2058
2357
1973
2239
1869
2263
1798
2053
1739
1914
1610
1743
1480
1691
1448
1798
1477
1716
1458
1766
1491
1736
1430
1858
1627
1901
1674
2109
1821
2101
1662
2027
1562
1838
1546
1636
1349
1549
1338
1506
1234
1487
1205
1598
1298
1647
1345
1546
1221
1541
1270
1432
1321
1422
1177
1399
1099
1389
996
1431
1207
1285
1062
1421
1114
1350
1044
1261
742
0
0
1864
1840
2282
2037
2406
2204
2504
2187
2538
2230
2429
2185
2430
2273
2555
2310
2621
2341
2644
2311
2566
2371
2673
2358
2742
2456
2654
2251
2512
2269
2509
2276
2476
2126
2237
1924
2157
1883
1993
1704
1861
1469
1842
1478
1690
1413
1640
1333
1562
1380
1533
1274
1478
1280
1584
1262
1641
1403
1637
1354
1735
1501
1801
1510
1805
1489
1694
1346
1594
1220
1559
1194
1354
1074
1310
1122
1307
1039
1316
1010
1378
1051
1373
1059
1284
981
1269
1018
1302
1048
1185
910
1197
890
1178
891
1166
938
1131
898
1245
981
1241
901
1162
533
0
0
2102
2077
2510
2221
2692
2360
2780
2377
2839
2460
2805
2494
2783
2510
2948
2590
2922
2649
2958
2600
2977
2718
3117
2662
3114
2741
2997
2589
2930
2641
2997
2585
2845
2378
2609
2261
2515
2199
2412
1961
2134
1748
2152
1770
2146
1858
2107
1797
2021
1812
2114
1802
2115
1734
2150
1743
2180
1968
2229
1901
2322
2013
2286
1905
2314
1798
2132
1755
2064
1678
2025
1681
1901
1632
1866
1557
1837
1596
1798
1498
1899
1603
1910
1512
1840
1529
1835
1550
1805
1559
1828
1555
1812
1490
1733
1365
1770
1557
1764
1534
1866
1585
1946
1494
1764
1170
0
0
2266
2324
2841
2490
2835
2584
2909
2542
2869
2589
2944
2646
2950
2778
3017
2682
3014
2756
3163
2829
2949
2809
3125
2842
3014
2770
3041
2754
3000
2778
3005
2585
2693
2321
2471
2149
2358
2027
2186
1832
2038
1800
2036
1669
1979
1759
2070
1782
2120
1769
2076
1846
2102
1900
2075
1885
2210
1922
2221
1882
2092
1757
2013
1659
1996
1624
1814
1578
1890
1524
1756
1531
1804
1428
1749
1456
1800
1389
1611
1366
1634
1362
1732
1269
1685
1341
1579
1385
1634
1362
1647
1419
1626
1247
1661
1210
1579
1343
1565
1339
1636
1376
1620
1312
1245
834
0
0
2178
2172
2645
2372
2711
2438
2765
2425
2768
2419
2829
2557
2820
2636
2926
2619
2916
2698
2986
2638
2907
2717
3028
2694
2930
2625
2854
2558
2805
2485
2734
2293
2402
2018
2218
1867
2093
1817
2110
1714
1922
1694
1946
1556
1906
1672
1977
1645
2071
1687
2072
1838
2129
1860
2138
1768
2088
1738
1967
1637
1847
1538
1794
1490
1813
1519
1772
1455
1693
1318
1663
1321
1750
1437
1653
1370
1658
1288
1565
1315
1558
1318
1525
1212
1574
1221
1514
1270
1618
1340
1714
1398
1509
1379
1636
1268
1595
1270
1480
1146
1413
1210
1383
1028
1132
624
0
0
1950
1950
2396
2098
2438
2130
2403
2117
2475
2172
2522
2319
2577
2347
2683
2278
2583
2400
2697
2453
2612
2354
2642
2421
2629
2285
2516
2301
2406
2160
2333
1914
1981
1669
1924
1574
1838
1517
1803
1426
1737
1441
1780
1421
1762
1448
1765
1491
1975
1591
1957
1674
1809
1547
1658
1381
1739
1330
1645
1307
1429
1218
1486
1320
1513
1237
1458
1175
1465
1130
1426
1166
1459
1018
1480
1243
1493
1206
1475
1146
1343
1090
1434
942
1305
1121
1281
1201
1445
1186
1473
1197
1453
1208
1463
1054
1373
1000
1159
869
1146
854
1162
784
923
436
0
0
2109
2027
2587
2293
2654
2294
2709
2353
2726
2412
2856
2496
2821
2507
2850
2477
2834
2539
2925
2600
2809
2521
2742
2343
2518
2091
2376
2084
2210
1965
2229
1869
2077
1778
2100
1809
2150
1918
2165
1787
2166
1981
2234
1994
2250
1973
2315
2032
2408
1988
2274
1905
2172
1889
2078
1765
2118
1821
2050
1659
1976
1700
2007
1625
2021
1655
2027
1668
2010
1641
1981
1685
2053
1649
2073
1830
2154
1852
2084
1714
2074
1742
2033
1546
1978
1646
1969
1830
2169
1730
2072
1664
1949
1540
1945
1518
1764
1509
1691
1411
1770
1335
1646
1252
1437
941
0
0
2344
2383
2813
2555
2756
2561
2895
2667
2924
2574
2894
2705
2921
2569
2989
2724
2913
2637
2873
2714
2945
2498
2747
2333
2507
2045
2210
1960
2201
1896
2154
1842
2010
1874
2116
1924
2254
1961
2194
1930
2402
2053
2296
2005
2313
1941
2282
1970
2186
1850
2085
1755
1958
1719
1892
1635
1862
1614
1915
1702
1875
1557
1865
1655
1879
1613
1858
1553
1755
1525
1857
1557
1867
1731
1988
1714
1966
1808
2002
1704
1896
1609
1778
1508
1764
1451
1783
1579
1786
1437
1658
1322
1611
1316
1578
1304
1582
1235
1483
1173
1445
1173
1322
1057
1253
765
0
0
2229
2250
2653
2413
2681
2413
2820
2514
2825
2513
2877
2427
2753
2552
2894
2539
2792
2408
2756
2533
2782
2365
2582
2095
2334
1893
2102
1769
2026
1797
2110
1794
2129
1845
2123
1895
2359
1976
2213
1994
2309
1994
2222
1925
2171
1821
2064
1836
2114
1707
1940
1609
1888
1658
1809
1646
1801
1621
1861
1538
1849
1446
1802
1522
1915
1560
1894
1601
1778
1506
1906
1582
1949
1662
1897
1705
1953
1614
1818
1537
1818
1482
1708
1417
1679
1400
1641
1298
1618
1273
1478
1186
1576
1207
1522
1206
1591
1197
1336
1053
1390
1007
1146
936
1218
619
0
0
1862
1936
2348
2093
2372
2118
2441
2180
2503
2108
2423
2162
2413
2194
2468
2116
2438
2125
2397
2154
2394
1911
2180
1725
1936
1550
1714
1495
1680
1545
1890
1556
1957
1609
2025
1778
2139
1737
1925
1718
1933
1572
1777
1415
1693
1499
1754
1473
1754
1353
1577
1261
1525
1298
1577
1306
1526
1398
1589
1330
1501
1245
1573
1341
1626
1378
1705
1406
1667
1453
1714
1371
1664
1393
1587
1339
1530
1257
1448
1117
1398
1161
1321
1083
1313
1019
1325
1005
1285
996
1201
891
1268
937
1253
922
1182
890
1121
757
1013
837
846
671
918
397
0
0
2125
2154
2509
2337
2618
2281
2693
2413
2779
2361
2709
2429
2754
2426
2746
2405
2675
2354
2612
2341
2693
2175
2488
2114
2362
1954
2202
2029
2288
1970
2452
2082
2453
2089
2405
2171
2440
1957
2292
1915
2266
1938
2229
1811
2141
1794
2214
1925
2207
1788
2109
1796
2146
1816
2099
1802
2057
1797
2085
1861
2137
1829
2148
1901
2246
1947
2283
1941
2189
1817
2126
1829
2082
1742
2081
1746
2009
1657
1929
1582
1956
1602
1930
1615
1818
1616
1868
1465
1856
1498
1876
1476
1782
1540
1736
1420
1685
1467
1690
1405
1677
1355
1562
1358
1572
974
0
0
2256
2373
2795
2532
2859
2509
2903
2619
2912
2570
2858
2546
2971
2514
2899
2550
2847
2533
2789
2418
2552
2310
2622
2213
2468
2171
2469
2167
2530
2244
2504
2132
2483
2118
2346
1989
2263
1999
2107
1841
2101
1803
2037
1766
2036
1787
2066
1736
2109
1818
2057
1882
2016
1754
2085
1782
2101
1885
2182
1846
2098
1819
2022
1809
2028
1770
2050
1653
1957
1680
1822
1574
1888
1542
1755
1521
1698
1415
1617
1322
1701
1392
1629
1416
1634
1284
1552
1339
1666
1375
1515
1283
1538
1339
1605
1174
1538
1302
1499
1323
1499
1162
1361
1136
1365
925
0
0
2217
2312
2662
2425
2768
2407
2834
2538
2819
2394
2729
2358
2762
2370
2703
2338
2643
2330
2514
2251
2445
2219
2511
2170
2423
2147
2435
2138
2362
2081
2323
1924
2134
1812
2092
1789
2149
1749
2026
1723
2021
1639
1944
1594
1869
1631
1909
1689
2050
1774
2053
1784
2034
1721
2092
1733
2167
1830
2204
1761
1965
1738
1861
1584
1892
1628
1919
1473
1834
1454
1681
1486
1776
1386
1716
1367
1654
1305
1542
1237
1624
1234
1499
1267
1486
1166
1491
1225
1508
1226
1494
1154
1441
1224
1512
1109
1499
1231
1490
1278
1520
1242
1448
1189
1322
789
0
0
1804
1861
2326
2121
2370
2013
2443
2109
2422
2055
2392
1988
2442
2018
2249
2068
2264
1978
2265
1942
2146
1893
2169
1821
2090
1777
2051
1713
1989
1675
1894
1459
1779
1333
1634
1470
1738
1492
1685
1338
1626
1322
1601
1365
1595
1397
1766
1560
1874
1576
1897
1661
1786
1533
1793
1533
1855
1526
1776
1379
1673
1323
1470
1210
1587
1219
1501
1181
1448
1170
1447
1275
1390
1122
1454
1078
1355
1069
1306
977
1411
983
1271
1029
1234
970
1317
1012
1237
946
1314
1017
1357
1081
1321
989
1362
1051
1339
1179
1409
1085
1330
962
983
483
0
0
2058
2154
2619
2364
2726
2366
2703
2402
2765
2372
2671
2273
2693
2314
2602
2239
2577
2315
2522
2106
2477
2141
2525
2126
2325
1910
2292
1857
2194
1906
2158
1768
2099
1747
2122
1837
2102
1810
2086
1797
2214
1825
2112
1898
2222
2037
2376
2025
2458
2100
2456
2058
2362
1934
2213
1962
2245
1890
2230
1773
2050
1770
1981
1705
2066
1789
2120
1714
2027
1707
1954
1643
2042
1653
1975
1610
1895
1594
1902
1615
1897
1541
1893
1621
2028
1626
1945
1683
2057
1723
1997
1694
1994
1793
2018
1714
1972
1601
2045
1725
2050
1498
1789
1391
1609
1082
0
0
2294
2402
2850
2555
2909
2605
2965
2586
2919
2523
2810
2510
2825
2528
2732
2353
2736
2357
2637
2319
2529
2142
2376
1984
2205
1949
2159
1989
2225
1958
2171
1914
2157
1879
2177
1909
2217
1947
2166
1891
2214
1928
2261
2038
2397
2078
2432
2061
2430
2045
2240
1873
2117
1874
2097
1803
1993
1825
1989
1668
1969
1643
1991
1718
1926
1674
1914
1600
1885
1475
1776
1579
1830
1559
1778
1494
1821
1534
1747
1585
1837
1581
1732
1573
1881
1663
1950
1721
2007
1600
1900
1616
1914
1630
1690
1477
1666
1386
1637
1424
1610
1262
1465
1174
1357
774
0
0
2171
2207
2598
2235
2849
2361
2769
2378
2659
2239
2733
2244
2589
2313
2582
2149
2508
2067
2373
1990
2186
1770
2142
1673
1997
1704
2046
1770
2056
1721
2013
1717
2018
1749
1954
1732
2147
1793
2194
1924
2158
1868
2146
1887
2226
1875
2167
1689
2146
1802
2036
1673
1991
1634
1873
1552
1819
1655
1845
1541
1821
1514
1802
1529
1798
1572
1797
1477
1769
1373
1742
1485
1721
1462
1806
1390
1672
1490
1807
1542
1778
1520
1851
1619
1894
1662
1796
1604
1829
1396
1746
1466
1601
1290
1430
1154
1558
1218
1403
1157
1390
1005
1174
1004
1189
597
0
0
1894
1890
2362
2074
2440
2185
2446
2192
2492
2051
2421
1992
2233
1930
2169
1738
1995
1619
1889
1582
1810
1432
1758
1428
1710
1495
1637
1517
1890
1611
1908
1630
1858
1594
1765
1627
1934
1796
1982
1613
1940
1614
1847
1543
1844
1492
1734
1398
1758
1457
1655
1374
1687
1442
1655
1272
1578
1334
1562
1310
1565
1302
1493
1257
1646
1296
1522
1237
1520
1220
1581
1326
1573
1377
1644
1298
1610
1364
1531
1380
1603
1262
1474
1330
1508
1322
1449
1276
1398
1069
1294
1150
1306
985
1124
957
1283
890
1169
876
1021
805
996
731
983
356
0
0
2147
2170
2628
2325
2794
2376
2721
2455
2743
2342
2781
2267
2522
2187
2454
1878
2228
1842
2192
1853
2083
1742
2094
1753
2059
1902
2164
2074
2308
2084
2422
2157
2411
2161
2422
2106
2530
2177
2319
2036
2290
1837
2218
1991
2202
1890
2221
1788
2294
1937
2100
1858
2205
1930
2153
1746
2142
1853
2080
1878
2132
1742
2053
1878
2114
1859
2122
1783
2157
1869
2255
1914
2286
1951
2365
1908
2170
1866
2142
1861
2122
1682
1963
1696
2011
1742
1849
1697
2031
1577
1878
1594
1837
1531
1669
1454
1812
1388
1731
1411
1666
1354
1629
1323
1609
925
0
0
2329
2434
2801
2467
2801
2610
2806
2568
2853
2565
2805
2385
2626
2189
2330
1966
2068
1806
2068
1833
2075
1832
2108
1877
2213
2103
2422
2157
2494
2242
2588
2185
2528
2109
2490
2158
2402
2101
2237
1928
2163
1757
2114
1745
2010
1854
2093
1797
2122
1817
2085
1834
1918
1778
1997
1722
2020
1790
1930
1844
2051
1726
1928
1703
1978
1773
2074
1778
1960
1754
1992
1729
1946
1716
2047
1660
1770
1460
1770
1510
1730
1418
1693
1346
1609
1335
1642
1360
1675
1405
1555
1298
1531
1222
1553
1252
1468
1192
1568
1202
1396
1094
1330
1045
1200
797
0
0
2165
2218
2670
2366
2734
2469
2773
2477
2818
2357
2609
2122
2410
1906
2106
1720
1979
1768
2002
1762
2043
1676
2095
1813
2130
2002
2359
1994
2281
1971
2290
1994
2218
1919
2215
1873
2237
1776
2097
1755
2042
1653
1960
1626
1906
1796
1934
1709
2052
1729
1973
1748
1960
1661
1906
1738
2061
1829
2030
1820
2089
1818
1890
1504
1975
1704
2014
1584
1802
1531
1803
1535
1703
1482
1755
1426
1646
1365
1562
1354
1685
1328
1538
1250
1449
1191
1445
1140
1473
1289
1478
1210
1453
1128
1463
1102
1452
1002
1410
1028
1289
1047
1256
937
1157
650
0
0
1972
2006
2402
2090
2428
2230
2450
2070
2394
2066
2171
1841
2120
1619
1794
1477
1730
1473
1795
1650
1898
1553
1958
1674
1900
1749
2022
1706
1936
1595
1917
1594
1903
1544
1868
1586
1896
1499
1820
1522
1754
1450
1717
1425
1695
1442
1695
1444
1782
1466
1716
1510
1717
1527
1835
1688
1938
1633
1966
1627
1798
1508
1627
1368
1750
1381
1702
1322
1451
1278
1502
1157
1433
1258
1501
1230
1370
1098
1358
1110
1339
1044
1385
1066
1325
1058
1305
865
1290
1002
1258
949
1173
902
1159
951
1257
893
1293
885
1113
870
1093
676
918
485
0
0
2150
2146
2573
2266
2622
2405
2738
2390
2606
2245
2434
2005
2265
1865
2082
1849
2210
1878
2287
1942
2274
1940
2170
1936
2155
1922
2316
1972
2245
1913
2318
1949
2187
1889
2256
1882
2261
1906
2193
1908
2285
1858
2180
1837
2146
1933
2171
1924
2287
2111
2346
2061
2340
1991
2338
2066
2412
2082
2205
2045
2133
1906
2101
1757
2139
1771
2102
1722
1964
1717
1988
1714
1971
1725
2066
1750
1931
1619
1909
1597
1894
1578
1917
1625
1864
1546
1850
1492
1847
1546
1789
1498
1844
1589
1828
1570
1850
1627
1898
1489
1691
1464
1698
1341
1613
1149
0
0
2372
2307
2737
2518
2788
2494
2845
2557
2679
2437
2486
2044
2331
1949
2277
1930
2181
1910
2245
2086
2267
1966
2157
1910
2142
1933
2266
1990
2270
1926
2098
1918
2285
1825
2243
1918
2194
1804
2126
1814
2230
1977
2107
1757
2190
1906
2258
1995
2276
2058
2326
2018
2148
1802
2088
1806
2182
1807
2030
1817
1901
1666
1847
1641
1900
1610
1867
1534
1860
1458
1738
1437
1853
1514
1820
1483
1774
1413
1540
1334
1627
1361
1649
1390
1563
1349
1586
1373
1610
1380
1616
1410
1733
1462
1621
1381
1733
1531
1757
1353
1522
1146
1530
1264
1481
945
0
0
2332
2220
2725
2373
2696
2431
2734
2463
2616
2242
2346
1846
2122
1828
2045
1691
2071
1734
2063
1851
2089
1742
2015
1732
2085
1817
2104
1828
2095
1843
2069
1803
2231
1828
2089
1850
2098
1840
2195
1968
2237
1951
2226
1837
2189
1926
2237
1876
2186
1977
2269
1883
2033
1687
1963
1678
2119
1725
1931
1654
1794
1564
1751
1549
1877
1540
1819
1477
1835
1485
1717
1410
1781
1444
1690
1406
1669
1422
1693
1337
1647
1430
1610
1236
1597
1340
1651
1445
1678
1453
1817
1551
1758
1518
1782
1451
1821
1545
1771
1299
1518
1137
1418
1262
1346
898
0
0
1918
2005
2274
2071
2468
2113
2402
2120
2245
1829
1911
1445
1763
1418
1676
1429
1609
1310
1659
1366
1589
1366
1717
1459
1703
1467
1732
1544
1762
1461
1749
1462
1841
1579
1818
1531
1893
1652
2004
1751
1975
1670
2058
1611
1842
1573
1881
1517
1814
1520
1798
1462
1722
1430
1595
1323
1660
1369
1642
1338
1537
1232
1489
1347
1576
1279
1455
1201
1497
1099
1414
1121
1499
1106
1385
1147
1435
1096
1394
1213
1554
1236
1420
1195
1427
1200
1508
1391
1529
1277
1553
1314
1559
1271
1467
1221
1517
1220
1410
933
1114
920
1105
895
987
541
0
0
2189
2077
2596
2259
2690
2338
2669
2315
2541
2074
2223
1692
2101
1676
2024
1642
1929
1584
1993
1714
1950
1636
2093
1802
2080
1851
2149
1842
2220
1901
2162
1959
2261
1994
2299
2094
2347
2102
2444
2122
2410
2117
2293
1974
2293
1982
2282
1881
2173
1840
2241
1877
2133
1755
2153
1819
2186
1848
2114
1789
2050
1774
2107
1770
2202
1826
2118
1803
2129
1711
1970
1673
2074
1729
2127
1778
2009
1717
2126
1849
2234
1879
2164
1905
2122
1822
2202
1870
2074
1784
2114
1746
2042
1652
1908
1616
1997
1634
1910
1425
1716
1352
1659
1341
1546
1045
0
0
2348
2372
2750
2493
2884
2505
2810
2409
2673
2319
2394
2018
2226
1845
2157
1763
2148
1737
2167
1748
2087
1813
2090
1924
2165
1976
2324
2033
2291
2120
2295
2106
2331
2023
2430
2091
2396
2116
2331
2068
2262
1897
2167
1917
2221
1882
2170
1875
2013
1834
1978
1709
1990
1652
2066
1704
2050
1688
1966
1785
2046
1651
1954
1629
1910
1809
2072
1824
2036
1753
1910
1640
1789
1655
2118
1780
2005
1642
1875
1800
2099
1771
1969
1691
1851
1458
1757
1549
1733
1536
1703
1435
1602
1352
1593
1341
1577
1270
1586
1162
1451
1162
1357
1128
1294
760
0
0
2250
2203
2664
2463
2738
2329
2729
2222
2594
2197
2322
1947
2093
1764
2008
1606
2134
1787
2051
1741
2068
1765
2148
1960
2266
2020
2357
2117
2317
2019
2321
2054
2202
1941
2188
1837
2190
1845
2093
1797
2106
1765
2146
1792
2135
1788
1978
1709
1986
1730
1934
1584
1898
1622
2038
1670
1904
1713
2018
1718
2009
1650
1957
1666
2004
1850
2117
1961
2124
1742
1893
1671
1816
1622
2041
1700
1917
1502
1707
1514
1874
1493
1818
1553
1650
1362
1621
1332
1586
1221
1525
1282
1476
1197
1483
1210
1453
1204
1437
1064
1382
1060
1219
1074
1202
697
0
0
1881
1918
2334
2149
2362
2060
2338
1946
2261
1928
1989
1641
1778
1381
1701
1349
1874
1570
1899
1665
1842
1629
1924
1754
2021
1805
2139
1794
2045
1774
1876
1593
1820
1526
1851
1517
1722
1461
1786
1359
1766
1402
1799
1386
1706
1380
1612
1371
1623
1402
1643
1356
1605
1386
1754
1439
1677
1485
1882
1553
1871
1527
1795
1417
1736
1553
1863
1640
1701
1307
1637
1333
1553
1316
1585
1243
1482
1167
1357
1134
1394
1097
1349
1145
1338
951
1253
1106
1238
1097
1267
938
1235
1013
1115
874
1238
834
1175
857
1127
829
977
746
917
393
0
0
2157
2116
2534
2312
2664
2323
2597
2260
2574
2165
2422
2009
2183
1776
2229
1931
2409
2042
2431
2042
2330
2045
2397
2189
2480
2129
2539
2069
2324
2060
2222
1845
2157
1872
2202
1837
2157
1877
2171
1842
2139
1864
2231
1837
2221
1845
2229
1885
2243
1897
2274
1850
2181
1938
2289
2129
2405
2030
2397
2099
2454
2014
2286
1899
2156
1882
2231
1933
2125
1854
1978
1738
1942
1744
2043
1739
2028
1613
1911
1646
1893
1582
1985
1649
1861
1445
1839
1614
1919
1707
1922
1487
1789
1422
1744
1442
1697
1422
1771
1296
1675
1396
1582
1301
1547
1010
0
0
2366
2338
2846
2461
2866
2576
2805
2487
2626
2414
2658
2278
2398
2108
2387
2195
2510
2357
2508
2197
2380
2161
2467
2131
2488
2118
2452
2111
2320
2027
2234
1904
2086
1817
2148
1958
2226
1853
2179
1847
2206
1864
2154
1991
2273
2059
2295
2075
2299
2042
2310
2035
2238
1978
2271
2030
2261
1826
2138
1867
2029
1779
1969
1733
1967
1653
1978
1673
1906
1722
1860
1614
1869
1570
1818
1538
1741
1395
1706
1346
1706
1342
1699
1452
1649
1359
1610
1437
1823
1514
1698
1426
1717
1284
1558
1303
1749
1312
1466
1214
1426
1218
1382
1082
1322
811
0
0
2276
2180
2633
2257
2697
2331
2722
2355
2584
2289
2560
2053
2281
1943
2202
1855
2346
2062
2301
1986
2219
1874
2263
1882
2332
2005
2340
1993
2171
1785
2067
1766
1908
1736
2038
1734
2043
1705
2026
1730
1995
1781
2143
1914
2246
2018
2329
2003
2336
1957
2189
1867
2065
1789
2096
1832
2042
1613
1994
1663
1856
1578
1837
1510
1818
1492
1806
1467
1797
1506
1691
1421
1786
1390
1714
1334
1654
1289
1578
1225
1586
1270
1605
1341
1562
1241
1582
1417
1877
1334
1611
1340
1510
1211
1463
1235
1571
1250
1410
1151
1341
1124
1350
981
1206
594
0
0
1888
1874
2381
2062
2378
2075
2386
1991
2231
1956
2185
1737
1901
1569
1865
1477
1822
1677
1875
1617
1766
1597
1915
1560
1942
1669
1914
1653
1896
1536
1748
1541
1709
1437
1783
1509
1814
1481
1766
1496
1825
1642
1930
1762
2080
1877
2068
1787
1988
1677
1793
1531
1706
1436
1651
1429
1627
1296
1615
1354
1545
1323
1558
1275
1498
1188
1461
1124
1485
1268
1476
1210
1570
1098
1380
1093
1409
1063
1343
1065
1355
1024
1404
1085
1306
1059
1486
1294
1594
1139
1323
1090
1346
1143
1282
1178
1397
1029
1323
1013
1268
968
1184
788
1009
526
0
0
2153
2161
2610
2225
2690
2346
2570
2293
2556
2239
2568
2066
2248
1765
2049
1765
2137
1901
2185
1988
2203
1938
2281
1919
2278
1949
2330
2018
2293
1881
2260
1985
2244
1967
2418
2039
2378
2018
2360
2030
2478
2109
2542
2260
2545
2329
2487
2210
2420
1951
2241
1899
2149
1847
2109
1869
2154
1853
2122
1874
2060
1813
2088
1787
2066
1778
1958
1648
2069
1821
2036
1788
2106
1712
2052
1627
2069
1617
1925
1582
1962
1597
1925
1646
1957
1717
2157
1979
2202
1821
1965
1640
2066
1809
1970
1829
2163
1706
1950
1584
1925
1611
1901
1444
1730
1053
0
0
2317
2394
2850
2470
2794
2507
2830
2482
2690
2373
2578
2101
2357
1896
2158
1805
2212
1933
2266
1919
2213
1966
2369
1938
2250
2025
2253
1974
2232
1981
2261
1984
2448
2153
2461
2269
2489
2180
2386
2125
2426
2128
2346
2091
2317
2093
2209
1901
2120
1754
2128
1821
2028
1725
2020
1797
1928
1719
1950
1756
1922
1738
1882
1640
1929
1648
1783
1531
1861
1565
1765
1510
1874
1497
1826
1499
1890
1490
1699
1445
1709
1476
1757
1452
1706
1562
2035
1849
2082
1532
1786
1451
1754
1512
1674
1514
1730
1450
1745
1362
1629
1405
1502
1243
1402
878
0
0
2240
2203
2621
2358
2635
2319
2548
2299
2490
2116
2349
1975
2173
1685
2027
1634
2064
1694
2034
1707
2105
1765
2164
1867
2131
1846
2075
1834
2118
1965
2192
1931
2330
2070
2506
2234
2401
1977
2290
2018
2141
1813
2070
1757
2091
1815
2033
1812
2037
1670
1969
1675
1908
1603
1888
1612
1766
1565
1853
1576
1700
1579
1795
1613
1845
1487
1749
1494
1806
1461
1749
1502
1795
1465
1849
1451
1877
1474
1572
1506
1722
1444
1674
1345
1746
1551
2091
1801
1972
1535
1549
1250
1527
1299
1557
1263
1529
1193
1581
1125
1555
1210
1380
1054
1285
712
0
0
1933
1900
2346
1978
2248
1968
2292
1935
2110
1860
2025
1562
1762
1403
1658
1276
1659
1468
1753
1433
1792
1589
1893
1566
1776
1581
1924
1586
1993
1727
2088
1773
2106
1822
2086
1879
2050
1663
1804
1571
1784
1538
1788
1517
1805
1517
1809
1444
1709
1348
1771
1429
1661
1337
1614
1403
1590
1309
1513
1317
1525
1303
1623
1326
1629
1322
1572
1323
1636
1413
1572
1305
1569
1249
1588
1166
1489
1143
1325
1238
1597
1242
1584
1254
1487
1395
1748
1521
1725
1114
1329
969
1249
937
1222
1011
1149
1043
1272
906
1188
925
1108
787
1037
457
0
0
2164
2215
2561
2251
2567
2221
2485
2081
2391
1966
2257
1805
2025
1585
1990
1640
2006
1673
2069
1809
2226
2002
2371
2165
2331
2056
2423
2162
2501
2282
2434
2087
2417
2053
2332
2098
2413
1925
2292
1934
2237
1930
2133
1897
2276
1977
2249
1933
2187
1846
2273
1961
2269
1896
2185
1901
2138
1828
2186
1890
2132
1899
2130
1899
2350
1981
2261
1974
2209
1922
2137
1797
2173
1749
2133
1766
1984
1645
1872
1687
2074
1746
2062
1731
2166
1933
2360
2085
2182
1657
1860
1527
1853
1450
1748
1521
1825
1437
1890
1484
1799
1473
1585
1354
1605
1115
0
0
2237
2258
2766
2469
2671
2263
2480
2249
2374
2106
2282
1900
2101
1804
2088
1896
2043
1876
2167
2090
2429
2228
2506
2178
2487
2242
2450
2180
2408
2050
2372
1987
2217
1977
2234
1988
2251
2028
2372
1914
2142
1766
2074
1842
2048
1826
2078
1789
1994
1796
2135
1988
2262
1865
2232
1929
2085
1828
2034
1809
2038
1787
2035
1832
2202
1826
2033
1786
2016
1648
1863
1559
1757
1501
1819
1503
1726
1430
1675
1477
1768
1443
1734
1354
1817
1661
1947
1693
1821
1384
1579
1307
1574
1258
1533
1325
1576
1253
1429
1250
1540
1225
1360
1094
1305
843
0
0
2173
2103
2601
2226
2506
2190
2380
2006
2276
1914
2221
1901
2117
1888
2043
1942
2077
1908
2185
2037
2394
2125
2434
2026
2381
2033
2309
1986
2292
1947
2198
1784
2167
1859
2171
1819
2149
1893
2143
1840
2021
1732
2019
1717
2034
1736
2066
1773
2041
1773
2186
2030
2341
1985
2269
2026
2109
1810
2018
1704
1978
1683
1936
1642
1993
1716
1845
1552
1858
1541
1803
1443
1682
1420
1637
1429
1624
1321
1629
1397
1671
1362
1581
1291
1776
1584
1882
1508
1684
1288
1502
1192
1475
1235
1483
1205
1429
1234
1410
1217
1509
1208
1344
1078
1293
750
0
0
1830
1873
2195
1931
2221
1867
2058
1764
2013
1765
1989
1637
1970
1611
1956
1732
1978
1621
1882
1674
2065
1758
2033
1618
1875
1581
1876
1644
1946
1565
1859
1475
1777
1549
1833
1621
1834
1529
1829
1469
1698
1421
1669
1453
1748
1431
1883
1571
1787
1621
1957
1925
2114
1715
2041
1738
1818
1474
1644
1466
1732
1426
1599
1282
1691
1285
1493
1306
1512
1162
1525
1161
1446
1147
1411
1169
1499
1058
1480
1170
1421
1122
1316
1017
1483
1305
1522
1106
1404
1064
1282
971
1259
929
1135
1003
1236
1005
1242
1031
1332
1038
1307
1018
1209
560
0
0
2042
2029
2541
2181
2505
2101
2326
2005
2174
1978
2341
1986
2366
1982
2298
2048
2349
1954
2118
1915
2246
1982
2205
1873
2224
1973
2269
1975
2317
1850
2309
1940
2230
1925
2217
1915
2170
1875
2298
1917
2173
1928
2258
2010
2275
2025
2418
2034
2370
2015
2426
2241
2557
2130
2316
2016
2213
1882
2032
1818
2050
1777
2007
1734
2117
1781
2074
1694
2073
1640
2102
1785
1911
1623
1975
1659
2035
1650
2036
1661
2038
1606
1763
1613
2042
1797
2049
1658
1902
1563
1958
1577
1788
1467
1714
1589
1910
1611
1938
1678
2029
1846
1994
1595
1906
1242
0
0
2276
2309
2634
2356
2630
2327
2509
2081
2267
2077
2437
2171
2494
2212
2393
2062
2337
2080
2235
1985
2229
2032
2266
1953
2282
1986
2146
1865
2221
1913
2162
1923
2237
1891
2228
1826
2103
1845
2162
1981
2322
2061
2289
2053
2229
2085
2296
1961
2182
1848
2165
1929
2341
1947
2142
1795
2045
1689
1993
1618
1943
1580
1818
1687
1915
1637
1906
1581
1835
1496
1802
1477
1787
1459
1777
1588
1917
1733
1777
1527
1657
1442
1626
1405
1810
1619
1751
1429
1698
1424
1668
1437
1617
1237
1576
1314
1674
1412
1704
1546
1841
1662
1744
1482
1623
973
0
0
2245
2134
2483
2178
2362
2098
2301
1803
2074
1750
2237
1922
2338
1992
2253
1897
2199
1884
2060
1759
2088
1764
2122
1809
2227
1914
2043
1812
2128
1922
2141
1843
2077
1762
2109
1733
2058
1757
2106
1959
2438
2082
2221
1972
2148
1879
2118
1825
2085
1723
2041
1716
2170
1886
2026
1749
1964
1611
1941
1547
1883
1507
1832
1585
1882
1577
1751
1499
1778
1489
1867
1474
1757
1499
1795
1506
1778
1584
1714
1399
1633
1308
1619
1421
1849
1574
1737
1410
1739
1506
1750
1493
1597
1290
1573
1249
1698
1309
1590
1394
1765
1380
1554
1229
1357
724
0
0
1781
1784
2119
1766
1970
1642
1893
1381
1594
1366
1684
1457
1897
1558
1829
1529
1812
1469
1725
1487
1693
1493
1815
1442
1835
1554
1805
1451
1810
1626
1798
1487
1797
1456
1861
1523
1738
1586
1905
1658
2021
1661
1837
1524
1736
1506
1704
1386
1717
1354
1634
1402
1764
1480
1730
1377
1652
1337
1611
1259
1626
1316
1494
1324
1589
1400
1597
1318
1547
1201
1516
1194
1481
1223
1581
1204
1474
1233
1428
1111
1331
1084
1483
1237
1684
1385
1661
1355
1540
1214
1530
1256
1329
1042
1317
986
1355
962
1219
953
1242
1010
1209
945
997
462
0
0
2109
1928
2264
1731
2082
1732
2003
1506
1837
1545
1917
1602
2084
1849
2189
1817
2107
1858
2125
1800
2094
1746
2146
1796
2202
1898
2178
1950
2253
1997
2246
1944
2287
1960
2338
2068
2306
1972
2231
1914
2278
1896
2202
1878
2190
1908
2159
1879
2118
1761
2157
1803
2212
1879
2095
1794
2182
1807
2062
1708
2027
1768
2043
1802
2143
1861
2098
1783
2203
1826
2132
1662
2090
1800
2017
1643
1988
1711
1975
1611
1925
1616
2026
1946
2322
2056
2260
1810
2131
1692
2002
1678
1882
1474
1830
1451
1825
1457
1699
1419
1781
1476
1630
1331
1562
997
0
0
2198
2091
2422
2091
2257
1841
2063
1796
1963
1656
2091
1768
2100
1910
2346
2000
2203
1943
2220
1861
2187
1899
2203
1949
2349
2177
2386
2162
2310
2130
2495
2182
2429
2161
2373
2050
2254
1986
2288
1970
2189
1853
2130
1853
2117
1828
2102
1815
2134
1768
2018
1858
2099
1826
2042
1805
2034
1775
2052
1708
1922
1739
2010
1802
2122
1773
1985
1766
2037
1719
1974
1618
1786
1593
1818
1506
1724
1524
1712
1442
1793
1550
1864
1909
2162
1828
1968
1655
1747
1495
1658
1509
1563
1429
1549
1256
1603
1297
1533
1264
1501
1233
1460
1099
1334
930
0
0
2050
1979
2137
1916
2100
1682
1947
1580
1794
1508
1874
1614
1984
1781
2085
1807
2027
1738
2073
1767
1986
1757
2173
1913
2318
2171
2362
2070
2314
2074
2375
1978
2322
1922
2177
1807
2071
1750
2145
1842
2009
1714
2041
1693
1989
1621
1924
1597
1990
1590
1852
1666
1988
1622
1877
1648
1897
1698
2004
1668
1969
1723
2004
1716
2058
1725
1815
1621
1858
1521
1722
1506
1741
1419
1695
1341
1524
1335
1645
1265
1714
1437
1812
1829
2114
1675
1789
1486
1569
1293
1535
1353
1460
1307
1450
1138
1462
1172
1320
1136
1427
1122
1339
976
1221
779
0
0
1674
1579
1828
1458
1690
1226
1620
1307
1477
1232
1518
1255
1587
1420
1787
1602
1813
1479
1813
1458
1624
1492
1909
1726
2116
1942
2117
1783
2030
1810
1944
1653
1838
1592
1810
1450
1709
1453
1716
1461
1706
1506
1689
1410
1701
1352
1699
1352
1680
1315
1672
1412
1719
1334
1657
1458
1701
1546
1776
1409
1686
1446
1714
1478
1772
1314
1546
1278
1389
1141
1472
1162
1365
1109
1306
1099
1402
1110
1382
1105
1480
1305
1590
1533
1815
1325
1438
1251
1310
1037
1217
1103
1226
1008
1074
892
1239
935
1145
910
1163
845
1037
820
906
526
0
0
1917
1738
2010
1653
1903
1532
1894
1562
1851
1556
1927
1533
1877
1656
2111
1925
2324
2037
2219
1867
2168
1914
2367
2145
2462
2282
2436
2106
2352
2020
2286
1933
2192
1945
2210
1886
2066
1784
2189
1799
2222
1833
2157
1831
2125
1781
2226
1837
2217
1929
2121
1849
2216
1938
2245
1959
2255
1995
2238
1865
2080
1837
2218
1833
2196
1785
2064
1778
1914
1655
1998
1682
1861
1611
1954
1776
2010
1787
2038
1717
2093
1810
2154
2062
2385
1855
1930
1686
1933
1587
1861
1652
1826
1510
1794
1414
1819
1511
1707
1459
1745
1471
1893
1489
1746
1234
0
0
2149
2006
2245
1748
1862
1674
1997
1827
2132
1826
2086
1781
2128
1826
2172
2082
2534
2297
2454
2098
2302
2147
2481
2093
2365
2148
2492
2144
2280
2012
2192
1994
2182
1943
2187
1893
2103
1867
2151
1861
2135
1918
2117
1869
2172
1798
2102
1861
2126
1870
2089
1878
2042
1766
1977
1870
2046
1718
2042
1709
1909
1685
1875
1712
2004
1649
1913
1557
1884
1545
1798
1509
1712
1515
1782
1601
1918
1760
1819
1570
1806
1572
1883
1757
2008
1570
1705
1472
1677
1326
1688
1421
1662
1352
1563
1282
1573
1376
1582
1271
1602
1347
1756
1458
1689
1193
0
0
2058
1794
2014
1610
1793
1552
1957
1593
2070
1677
1976
1680
2073
1734
2099
1929
2326
2021
2250
1814
2063
1919
2101
1804
2173
1906
2215
1911
2029
1911
2100
1802
2057
1737
2042
1791
1948
1694
2013
1704
2085
1786
2006
1804
2090
1805
2018
1750
2054
1766
2005
1678
1894
1604
1899
1669
1848
1531
1897
1523
1807
1576
1842
1538
1929
1574
1765
1430
1705
1469
1746
1528
1693
1365
1684
1466
1840
1597
1689
1330
1578
1372
1700
1608
1807
1396
1581
1316
1569
1202
1589
1339
1565
1249
1380
1254
1527
1394
1661
1277
1572
1243
1685
1377
1537
1030
0
0
1702
1599
1850
1418
1626
1489
1811
1612
1813
1598
1842
1481
1783
1493
1738
1637
1985
1762
1980
1565
1706
1531
1827
1503
1851
1509
1851
1586
1757
1508
1730
1548
1797
1531
1755
1576
1741
1538
1770
1529
1906
1643
1867
1622
1919
1559
1802
1466
1785
1520
1744
1461
1614
1293
1593
1365
1680
1299
1599
1333
1486
1322
1485
1333
1642
1251
1524
1312
1553
1256
1525
1322
1557
1218
1476
1236
1406
1221
1403
1117
1334
1154
1394
1305
1564
1092
1297
1138
1300
1055
1499
1216
1403
1051
1220
1075
1370
1163
1397
1158
1277
923
1288
976
1266
749
0
0
2052
1813
2308
1809
1966
1757
2105
1867
2254
1874
2084
1733
2075
1652
1973
1821
2314
2107
2261
1917
2158
1837
2202
1844
2173
1857
2169
1901
2114
1918
2233
1878
2299
1970
2314
2030
2285
1979
2309
2103
2383
2100
2443
2133
2404
2018
2189
1902
2200
1834
2178
1850
2149
1733
2084
1846
2229
1826
2203
1812
2021
1783
2049
1903
2214
1899
2262
1914
2188
1924
2167
1847
2125
1695
1957
1662
1970
1733
1950
1694
1966
1768
2107
1851
2152
1750
2013
1746
2002
1769
2234
1873
2168
1675
1906
1681
2007
1723
1885
1604
1837
1493
1823
1434
1691
1130
0
0
2158
2068
2482
2061
2301
2025
2315
2056
2266
1958
2212
1830
2102
1764
2116
1979
2418
2120
2338
1966
2138
1962
2166
1910
2250
1903
2242
1886
2181
1938
2171
1969
2206
2098
2405
2045
2318
2068
2350
1994
2294
2122
2306
1911
2258
1893
2109
1757
2073
1829
2122
1787
2096
1665
1973
1685
2020
1741
1962
1686
1973
1659
1978
1753
2123
1841
2114
1897
2123
1797
1932
1549
1790
1574
1758
1434
1732
1399
1730
1501
1752
1514
1870
1692
1837
1628
1770
1578
1814
1577
1937
1680
1822
1514
1618
1438
1719
1197
1636
1195
1524
1211
1450
1043
1379
905
0
0
1915
1862
2221
1829
2035
1774
2091
1774
2040
1772
2002
1554
1946
1675
1978
1841
2220
1877
2181
1669
2009
1796
2011
1701
2069
1762
2097
1802
2122
1824
2149
1964
2138
1965
2377
1904
2203
1882
2154
1819
2090
1754
2162
1781
2125
1739
2032
1691
1931
1602
1981
1627
1972
1518
1907
1586
1906
1545
1820
1672
1805
1604
1892
1633
2004
1637
1998
1672
1906
1594
1704
1322
1735
1384
1617
1334
1640
1348
1589
1387
1653
1419
1854
1649
1937
1703
1864
1450
1777
1453
1751
1396
1605
1190
1419
1187
1482
1068
1411
1055
1357
1099
1330
939
1229
733
0
0
1614
1536
1802
1364
1640
1371
1623
1437
1693
1380
1694
1285
1673
1352
1649
1394
1894
1534
1757
1411
1669
1453
1729
1485
1896
1494
1902
1612
1894
1634
1930
1701
1963
1591
2018
1513
1832
1521
1830
1453
1793
1481
1872
1466
1741
1458
1719
1353
1626
1419
1707
1339
1690
1348
1685
1461
1706
1370
1677
1363
1613
1384
1668
1406
1734
1353
1621
1348
1496
1183
1426
1121
1410
1147
1416
1114
1384
1101
1242
1093
1449
1178
1714
1580
1724
1469
1608
1207
1417
1111
1367
1104
1328
954
1173
1014
1234
808
1183
751
1052
896
1058
733
1018
567
0
0
1885
1694
2004
1602
1938
1601
1942
1659
1962
1594
1994
1554
1903
1621
1865
1613
2143
1730
2042
1706
2066
1783
2157
1906
2305
1943
2306
1981
2338
2037
2324
2142
2322
2045
2281
1894
2161
1874
2195
1858
2165
1860
2206
1877
2248
1885
2263
1965
2255
1910
2225
1962
2282
1893
2386
1994
2298
1973
2198
1938
2127
1861
2150
1777
2122
1825
2113
1783
2061
1758
1929
1642
1922
1705
1995
1736
1950
1619
1996
1768
2121
1866
2333
2076
2276
1917
2039
1666
1912
1556
1972
1560
1847
1544
1698
1524
1777
1380
1746
1330
1660
1401
1749
1371
1736
1252
0
0
2057
1861
2025
1825
2101
1763
2072
1770
2074
1770
2133
1674
2043
1866
2093
1849
2170
1954
2091
1843
2251
1963
2327
2117
2420
2076
2418
2075
2196
1959
2357
2086
2358
2033
2184
1889
2138
1939
2173
1803
2185
1874
2149
1853
2157
1992
2129
1957
2283
1978
2265
1805
2075
1831
2132
1846
2133
1803
2091
1673
1889
1594
1826
1554
1945
1672
1957
1532
1771
1596
1826
1530
1769
1602
1765
1489
1717
1533
1821
1723
1933
1702
2015
1784
2056
1547
1768
1432
1626
1350
1610
1345
1577
1273
1469
1232
1546
1242
1502
1206
1494
1147
1485
1294
1653
1025
0
0
1965
1784
1963
1680
1964
1598
1940
1686
1905
1569
1956
1626
1936
1737
2008
1710
2091
1832
2150
1778
2135
1771
2187
1934
2212
1828
2203
1847
2038
1765
2157
1826
2150
1845
2078
1662
1965
1736
2082
1688
2069
1709
2073
1706
2085
1806
2096
1908
2389
1966
2146
1751
2020
1779
2000
1693
2012
1616
1950
1589
1782
1477
1770
1395
1933
1532
1741
1458
1738
1493
1701
1403
1698
1464
1681
1508
1780
1546
1874
1620
1906
1545
1822
1577
1821
1371
1594
1322
1496
1217
1539
1260
1469
1117
1451
1265
1596
1266
1616
1183
1469
1101
1445
1242
1525
1007
0
0
1597
1456
1655
1380
1573
1295
1690
1330
1611
1323
1734
1365
1723
1552
1698
1526
1862
1746
1961
1681
1836
1545
1811
1573
1858
1547
1737
1430
1722
1381
1801
1576
1837
1551
1754
1498
1658
1467
1723
1460
1739
1557
1733
1461
1809
1646
1888
1719
2169
1738
1810
1483
1680
1387
1675
1473
1677
1286
1576
1285
1498
1236
1450
1151
1637
1208
1578
1222
1484
1252
1498
1251
1466
1282
1480
1320
1557
1318
1494
1139
1470
1189
1457
1242
1466
1074
1333
1102
1228
957
1266
1081
1274
1044
1373
1148
1402
1131
1456
1122
1217
897
1238
938
1167
618
0
0
1853
1660
1843
1509
1854
1434
1948
1606
1855
1595
2023
1733
2075
1915
2033
1865
2340
1989
2331
1896
2115
1672
2098
1845
2142
1769
2175
1803
2001
1686
2181
1881
2148
1847
2238
1850
2126
1813
2162
1802
2165
1837
2211
1925
2387
2102
2312
2216
2498
2093
2146
1782
2061
1708
2020
1742
2162
1778
1969
1710
2034
1647
1937
1651
2042
1706
2018
1710
1963
1698
2004
1844
2154
1829
2030
1789
2086
1711
2029
1621
1930
1645
1993
1717
1919
1587
1878
1514
1932
1556
1892
1630
1935
1531
1950
1645
1842
1524
1819
1498
1777
1301
1626
1339
1634
1046
0
0
2117
1918
2216
1770
1924
1803
2214
1967
2248
1910
2176
2039
2292
2098
2261
1984
2354
2146
2362
1994
2110
1860
2152
1901
2116
1869
2140
1893
2116
1825
2131
1845
2149
1910
2189
1962
2206
1940
2229
2018
2362
1977
2282
2041
2217
1994
2210
2102
2310
1843
2081
1711
1966
1635
1928
1685
1915
1661
1822
1626
1834
1624
1846
1614
2075
1716
1925
1769
1965
1658
1902
1687
1957
1700
1898
1480
1797
1621
1775
1469
1816
1525
1798
1650
1697
1540
1659
1485
1858
1546
1797
1459
1711
1454
1706
1429
1546
1383
1620
1192
1437
1156
1341
1050
1352
951
0
0
2045
1825
2111
1631
1818
1645
2066
1855
2130
1779
2131
1832
2152
1877
2058
1797
2135
1886
2157
1742
1901
1718
1927
1635
1933
1677
2010
1635
2021
1682
1911
1685
2042
1825
2130
1956
2138
1912
2141
1924
2121
1861
2100
1768
2007
1813
2103
1809
2050
1724
1882
1611
1925
1541
1818
1513
1748
1526
1682
1425
1713
1544
1866
1558
2015
1786
1947
1674
1871
1514
1737
1466
1781
1390
1739
1316
1643
1362
1678
1325
1725
1401
1704
1531
1688
1465
1650
1429
1754
1509
1707
1365
1585
1232
1545
1157
1432
1229
1473
1014
1292
1019
1253
978
1230
633
0
0
1668
1627
1838
1485
1640
1367
1744
1501
1932
1443
1734
1413
1737
1434
1644
1493
1761
1510
1745
1394
1582
1321
1637
1339
1676
1431
1722
1387
1698
1393
1669
1539
1803
1574
1778
1637
1869
1593
1770
1499
1814
1431
1614
1424
1743
1432
1749
1499
1687
1236
1658
1277
1565
1341
1531
1243
1518
1269
1457
1166
1478
1316
1532
1393
1802
1501
1725
1406
1560
1253
1510
1194
1378
1061
1381
1077
1429
1164
1318
1079
1438
1183
1604
1389
1515
1294
1493
1322
1485
1192
1463
989
1234
925
1217
971
1118
921
1155
773
1079
793
1034
793
939
616
0
0
1950
1885
2233
1770
1940
1596
1974
1674
2098
1684
1963
1609
1945
1645
1922
1793
2064
1757
2005
1730
1978
1717
2072
1715
2114
1837
2153
1850
2155
1790
2148
1882
2324
1992
2306
1979
2188
1924
2177
1870
2137
1770
2102
1844
2177
1869
2139
1833
2122
1766
2073
1751
2115
1755
2086
1686
2093
1851
2130
1781
2085
1750
2045
1847
2212
1846
2184
1821
1962
1621
1960
1662
1925
1549
1925
1581
1898
1608
1807
1639
2092
1804
2363
2058
2198
1914
2019
1748
1950
1554
1860
1492
1723
1377
1720
1361
1659
1453
1730
1329
1654
1365
1618
1389
1675
1117
0
0
2201
2138
2449
2066
2129
1778
2157
1905
2149
1986
2037
1858
2066
1841
2133
1821
2176
1908
2130
1884
2150
1838
2183
1855
2197
2000
2268
1965
2349
1974
2199
1859
2274
1961
2269
2019
2210
1935
2150
1852
2068
1866
1988
1765
2057
1819
2029
1770
2111
1739
2038
1753
1941
1709
1934
1691
2005
1893
2056
1787
2000
1567
1941
1668
1970
1618
1954
1501
1813
1482
1771
1551
1723
1431
1679
1461
1597
1330
1719
1527
1930
1834
2193
1877
2102
1678
1723
1384
1658
1391
1581
1386
1522
1226
1527
1223
1541
1177
1435
1178
1462
1289
1554
1198
1512
964
0
0
1971
1907
2226
1832
1970
1585
1851
1527
1862
1613
1873
1630
1794
1533
1922
1604
1906
1637
1911
1655
1931
1630
2036
1701
2062
1748
2180
1768
2041
1674
1826
1574
2045
1655
1978
1710
1954
1700
1929
1587
1797
1611
1833
1596
1868
1622
1869
1599
1946
1577
1817
1650
1842
1541
1809
1579
1842
1676
1946
1563
1790
1397
1689
1360
1733
1362
1793
1373
1699
1330
1586
1384
1610
1312
1498
1261
1491
1235
1547
1429
1839
1638
2034
1683
1776
1406
1461
1214
1459
1202
1367
1181
1445
1200
1420
1082
1397
1041
1285
1066
1426
1171
1403
981
1188
631
0
0
1654
1626
1944
1627
1755
1362
1594
1259
1460
1309
1488
1332
1572
1383
1584
1298
1621
1391
1601
1469
1749
1485
1829
1458
1864
1548
1787
1449
1716
1386
1626
1333
1610
1341
1573
1413
1705
1362
1638
1293
1584
1293
1570
1394
1672
1461
1661
1467
1816
1413
1707
1481
1602
1346
1530
1256
1493
1314
1516
1350
1533
1149
1477
1173
1430
1083
1543
1077
1385
1109
1299
1161
1386
1086
1362
1178
1365
1101
1357
1224
1562
1435
1702
1377
1470
1049
1189
965
1228
1036
1187
1034
1170
926
1177
980
1131
909
1076
874
1175
890
1107
712
1037
442
0
0
1860
1772
2180
1851
1995
1608
1885
1556
1786
1618
1818
1641
1821
1561
1918
1591
2003
1741
2062
1849
2252
1898
2305
1938
2222
1909
2146
1754
2053
1728
2099
1647
2060
1661
2100
1805
2134
1818
2133
1813
2010
1810
2058
1886
2214
1926
2244
1957
2312
1871
2154
1876
2101
1773
1962
1725
1990
1648
1946
1749
2001
1603
1995
1538
1989
1636
1906
1574
1989
1661
1903
1708
1970
1764
2050
1842
2059
1765
1973
1751
2028
1853
2197
1746
2015
1569
1781
1477
1838
1589
1794
1615
1851
1509
1841
1472
1814
1501
1652
1369
1631
1450
1594
1254
1522
888
0
0
2043
2011
2322
2010
2143
1707
1996
1715
2007
1784
1978
1658
2029
1804
2090
1813
2135
1934
2267
1986
2357
2158
2463
2077
2260
1848
2086
1789
2034
1802
2148
1742
2091
1680
2021
1933
2242
2037
2288
1880
2033
1773
2086
1907
2245
2047
2206
1830
2051
1750
1923
1636
1838
1608
1764
1634
1806
1561
1835
1439
1818
1531
1814
1480
1841
1513
1873
1618
1847
1565
1955
1694
1870
1705
2027
1690
1955
1500
1678
1442
1707
1549
1811
1566
1587
1344
1605
1331
1562
1266
1555
1274
1561
1333
1513
1216
1448
1248
1464
1186
1362
1141
1256
1026
1320
770
0
0
1894
1677
2109
1739
1978
1525
1811
1461
1825
1461
1837
1520
1851
1625
1975
1580
1943
1730
2045
1769
2157
2037
2302
1868
2019
1625
1824
1613
1895
1649
1932
1501
1834
1526
1916
1749
2158
2018
2254
1786
1894
1582
1954
1812
2141
1838
1961
1514
1785
1497
1653
1421
1680
1431
1619
1484
1602
1423
1650
1233
1645
1378
1690
1321
1630
1328
1718
1439
1803
1551
1890
1640
1818
1565
1835
1385
1590
1341
1486
1265
1536
1355
1557
1229
1402
1138
1397
1147
1363
1179
1394
1072
1314
1158
1341
1087
1250
985
1230
943
1172
1038
1157
877
1042
594
0
0
1501
1361
1725
1531
1697
1278
1529
1229
1515
1193
1522
1249
1625
1477
1790
1356
1721
1456
1649
1448
1851
1731
2013
1609
1804
1342
1553
1414
1627
1485
1700
1257
1636
1369
1654
1577
1934
1712
1937
1480
1637
1358
1578
1515
1904
1523
1687
1261
1492
1199
1438
1103
1358
1151
1293
1128
1365
1139
1394
1021
1389
1098
1508
1142
1553
1284
1540
1291
1698
1402
1690
1400
1434
1149
1414
1041
1306
954
1258
997
1320
1128
1354
1010
1167
885
1110
917
1059
836
1143
874
1113
746
1087
902
1108
821
1109
787
982
744
893
683
973
457
0
0
1713
1588
1903
1610
1928
1510
1911
1512
1787
1499
1867
1542
1922
1740
2171
1869
2059
1691
2010
1755
2135
1935
2370
1937
2138
1691
2042
1810
2139
1894
2266
1771
2072
1739
2066
1911
2293
1993
2253
1783
1968
1757
2099
1983
2245
1973
2091
1709
1978
1625
1828
1565
1946
1569
1861
1621
1817
1553
1882
1490
1985
1751
2138
1805
2111
1789
2026
1708
2138
1781
2066
1760
1938
1589
1975
1531
1826
1467
1800
1480
1883
1529
1730
1458
1729
1460
1738
1437
1631
1411
1621
1323
1618
1401
1611
1397
1613
1391
1721
1337
1581
1386
1578
1212
1562
1030
0
0
1799
1704
2059
1767
2043
1740
2109
1773
1988
1611
1973
1818
2061
1869
2281
1867
2178
1789
2010
1763
2082
1888
2233
1908
2128
1742
1998
1816
2154
1921
2159
1858
1985
1659
2006
1730
2036
1746
2117
1701
1882
1715
2074
1883
2212
1738
1834
1589
1810
1460
1760
1527
1685
1477
1735
1517
1766
1409
1707
1451
1938
1773
2078
1740
1853
1531
1814
1521
1765
1478
1735
1424
1579
1261
1587
1342
1557
1224
1495
1396
1649
1421
1563
1231
1515
1290
1560
1210
1505
1337
1417
1171
1421
1147
1323
1120
1466
1194
1445
1156
1372
1183
1461
1114
1253
657
0
0
1527
1482
1802
1555
1847
1602
2013
1529
1787
1381
1733
1476
1829
1554
2009
1617
1789
1431
1691
1493
1829
1562
1956
1691
1813
1485
1802
1526
1858
1605
1954
1466
1810
1402
1668
1442
1682
1409
1835
1462
1642
1482
1895
1623
1950
1458
1687
1325
1594
1225
1622
1354
1668
1334
1584
1321
1602
1243
1647
1348
1822
1572
1850
1410
1613
1251
1561
1238
1445
1185
1450
1205
1386
1076
1385
1102
1389
1051
1371
1204
1620
1257
1474
1021
1380
1084
1408
1154
1387
1154
1243
901
1300
1030
1254
1092
1445
1012
1366
1016
1237
968
1294
934
1026
526
0
0
1062
1007
1281
1064
1293
1050
1458
1013
1275
918
1146
842
1245
1069
1442
1094
1287
838
1250
919
1289
980
1349
1157
1416
1018
1266
995
1384
1150
1394
954
1297
880
1206
930
1230
867
1401
1019
1227
1123
1451
1183
1333
939
1141
864
1243
905
1115
919
1250
1021
1254
953
1197
869
1225
843
1302
1113
1289
978
1066
778
982
725
938
708
1010
709
955
699
962
722
930
618
914
765
1169
834
1059
741
1018
790
1073
726
1019
731
908
513
885
628
877
723
1057
594
907
614
681
529
821
419
623
115
0
0
0
0
0
0
0
0
0
0
0
0
0
0
0
0
0
0
0
0
0
0
0
0
0
0
0
0
0
0
0
0
0
0
0
0
0
0
0
0
0
0
0
0
0
0
0
0
0
0
0
0
0
0
0
0
0
0
0
0
0
0
0
0
0
0
0
0
0
0
0
0
0
0
0
0
0
0
0
0
0
0
0
0
0
0
0
0
0
0
0
0
0
0
0
0
0
0
0
0
0
0
0
0
0
0
0
0
0
