P2
108 88
4095
0
0
0
0
0
0
0
0
0
0
0
0
0
0
0
0
0
0
0
0
0
0
0
0
0
0
0
0
0
0
0
0
0
0
0
0
0
0
0
0
0
0
0
0
0
0
0
0
0
0
0
0
0
0
0
0
0
0
0
0
0
0
0
0
0
0
0
0
0
0
0
0
0
0
0
0
0
0
0
0
0
0
0
0
0
0
0
0
0
0
0
0
0
0
0
0
0
0
0
0
0
0
0
0
0
0
0
0
0
1592
1565
1976
1675
2075
1776
2118
1842
2194
1924
2101
1800
2164
1894
2124
1805
2141
1897
2203
1997
2253
2118
2449
2145
2381
2196
2402
2165
2487
2158
2498
2106
2487
2062
2449
2142
2419
2106
2448
2067
2473
2149
2410
2153
2436
2138
2306
2090
2370
2054
2414
2121
2445
2052
2402
2129
2292
2028
2363
2020
2318
1978
2204
1907
2282
1921
2161
1839
2125
1845
2114
1888
2098
1865
2123
1885
2110
1754
2129
1792
2071
1764
2151
1783
2080
1788
2007
1803
2058
1693
1986
1677
1936
1668
1956
1571
1858
1554
1953
1493
1734
1453
1661
1394
1497
980
0
0
1496
1613
1950
1637
2103
1726
2109
1867
2118
1898
2109
1781
2073
1788
2149
1827
2093
1886
2222
1973
2298
2048
2445
2086
2386
2155
2441
2118
2417
2155
2474
2107
2461
2084
2506
2153
2406
2184
2361
2120
2453
2193
2411
2139
2347
2117
2327
2147
2448
2073
2443
2161
2425
2126
2343
2109
2314
2054
2357
1989
2313
1957
2250
1980
2278
1939
2122
1845
2150
1789
2082
1885
2131
1903
2176
1904
2122
1852
2174
1874
2154
1877
2146
1751
2100
1851
1994
1818
2028
1785
2058
1722
1997
1674
1883
1642
1949
1584
2010
1665
1850
1495
1748
1374
1481
1010
0
0
1817
1851
2318
1978
2428
2113
2507
2182
2580
2315
2529
2204
2568
2222
2553
2278
2645
2369
2704
2418
2711
2450
2850
2530
2859
2608
2866
2609
2874
2718
3034
2618
3002
2630
3056
2665
2920
2650
2898
2643
2925
2599
2898
2628
2952
2669
2901
2646
2974
2650
3013
2733
3082
2614
2986
2638
2811
2609
2953
2532
2916
2553
2903
2532
2933
2477
2725
2426
2746
2376
2749
2489
2830
2570
2841
2565
2783
2450
2797
2466
2749
2437
2779
2450
2816
2501
2644
2459
2704
2370
2734
2229
2487
2237
2524
2218
2573
2215
2633
2295
2570
2117
2482
2061
2224
1661
0
0
2245
2289
2710
2525
2886
2541
2931
2626
2910
2667
2885
2618
2953
2670
2932
2758
2997
2722
2987
2793
3129
2868
3151
2983
3050
2925
3108
2905
3167
2884
3195
2810
3167
2839
3178
2992
3178
2834
3155
2841
3173
2859
3117
2830
3140
2801
3032
2765
3120
2856
3122
2737
3002
2774
3006
2861
3043
2692
3005
2761
2960
2654
2894
2640
2904
2596
2866
2516
2766
2523
2770
2614
2884
2690
2774
2548
2866
2466
2683
2532
2769
2532
2790
2430
2744
2434
2639
2419
2693
2341
2717
2310
2685
2270
2590
2293
2544
2210
2676
2213
2519
2126
2425
2085
2126
1508
0
0
2069
2101
2537
2295
2747
2346
2895
2498
2732
2502
2782
2549
2858
2466
2843
2548
2873
2590
2862
2609
2966
2595
2970
2788
2957
2722
2964
2832
3056
2791
3060
2682
3089
2885
3023
2642
2999
2721
3002
2686
3036
2705
3022
2711
3055
2693
3009
2602
3053
2659
2957
2636
2925
2662
2958
2690
2999
2532
2874
2634
2916
2574
2838
2544
2923
2538
2781
2438
2790
2389
2757
2542
2810
2478
2714
2461
2756
2344
2642
2420
2646
2347
2610
2318
2675
2353
2619
2290
2610
2216
2583
2183
2486
2193
2504
2196
2391
2154
2506
2070
2447
2052
2260
1942
2046
1401
0
0
1834
1833
2164
2026
2337
2029
2475
2102
2413
2230
2425
2102
2518
2210
2474
2260
2517
2229
2533
2301
2600
2377
2690
2448
2665
2422
2687
2378
2729
2422
2730
2352
2823
2402
2780
2441
2662
2386
2777
2374
2727
2383
2697
2379
2733
2402
2709
2347
2769
2357
2725
2377
2622
2265
2662
2427
2670
2261
2602
2423
2557
2268
2482
2234
2562
2237
2529
2253
2509
2263
2485
2289
2477
2199
2490
2136
2474
2206
2277
2121
2462
2114
2276
2041
2331
2052
2224
2094
2322
1946
2299
1986
2213
1971
2148
1909
2193
1850
2258
1749
2170
1796
2058
1741
1702
1123
0
0
2053
1986
2426
2183
2667
2269
2758
2337
2670
2487
2712
2406
2873
2478
2813
2602
2885
2587
2955
2645
2994
2725
3048
2790
3085
2835
3147
2857
3122
2891
3202
2747
3166
2894
3219
2837
3080
2754
3226
2834
3174
2807
3096
2843
3135
2837
3122
2775
3118
2951
3205
2855
3125
2778
3058
2921
3206
2805
3050
2857
3085
2730
3029
2686
3009
2781
3025
2679
3060
2685
3002
2737
3063
2769
2946
2738
3048
2692
2916
2714
3001
2666
2967
2635
3046
2572
2886
2594
2909
2532
2928
2509
2867
2437
2790
2539
2787
2450
2840
2420
2789
2363
2625
2226
2282
1653
0
0
2245
2289
2755
2561
2834
2622
2967
2593
3027
2699
2991
2690
2957
2741
3065
2724
3076
2810
3117
2714
2930
2818
3162
2761
3209
2865
3191
2868
3195
2932
3291
2996
3275
2986
3176
2932
3264
3001
3194
2961
3197
2957
3269
2879
3110
2802
3178
2898
3087
2869
3082
2779
3053
2846
3095
2857
3134
2833
3044
2713
3005
2741
2994
2711
3081
2656
2941
2610
2965
2570
2970
2666
2939
2656
2838
2663
2821
2556
2749
2454
2916
2458
2703
2474
2753
2446
2784
2498
2706
2431
2630
2415
2620
2340
2571
2275
2602
2290
2587
2286
2497
2220
2297
2024
2181
1586
0
0
2097
2051
2569
2278
2714
2426
2801
2370
2724
2493
2735
2448
2835
2643
2971
2602
2926
2620
2942
2557
2810
2632
2983
2651
3101
2725
3048
2702
3051
2806
3126
2800
3125
2711
3032
2610
3065
2715
3054
2701
2999
2664
3083
2660
2973
2731
2984
2757
2916
2678
2910
2676
3012
2681
2928
2660
2957
2666
2909
2558
2924
2637
2853
2576
2957
2643
2899
2469
2859
2457
2811
2583
2734
2506
2727
2522
2679
2394
2653
2353
2730
2361
2653
2357
2598
2328
2642
2357
2510
2394
2511
2272
2486
2182
2477
2086
2546
2310
2376
2126
2425
2037
2178
1829
2027
1454
0
0
1860
1837
2282
2038
2404
2205
2506
2195
2548
2238
2442
2199
2445
2292
2580
2337
2642
2361
2662
2326
2591
2410
2737
2442
2843
2582
2797
2415
2722
2502
2792
2602
2844
2539
2677
2413
2682
2468
2667
2459
2730
2409
2819
2493
2728
2484
2738
2484
2761
2577
2760
2486
2694
2492
2772
2449
2796
2523
2709
2349
2686
2390
2661
2362
2662
2373
2619
2306
2602
2280
2687
2348
2523
2280
2523
2326
2505
2210
2482
2170
2509
2142
2445
2141
2384
2107
2398
2138
2416
2148
2297
2026
2315
1998
2283
2017
2289
2037
2202
1907
2169
1806
1981
1614
1871
1193
0
0
2092
2058
2502
2218
2686
2365
2778
2384
2839
2468
2817
2500
2797
2518
2961
2617
2941
2679
2989
2626
3021
2772
3182
2747
3212
2865
3146
2758
3122
2873
3285
2915
3222
2799
3067
2766
3079
2852
3155
2827
3129
2804
3234
2841
3217
2937
3204
2932
3179
2962
3275
2958
3259
2886
3265
2829
3209
2938
3141
2777
3188
2878
3182
2835
3291
2830
3197
2852
3170
2812
3180
2838
3069
2810
3048
2738
3012
2765
2957
2634
3046
2733
3036
2624
2953
2644
2939
2656
2906
2674
2936
2666
2926
2597
2846
2475
2845
2609
2757
2449
2698
2356
2675
2213
2484
1854
0
0
2261
2321
2834
2486
2824
2592
2917
2543
2861
2591
2949
2662
2965
2794
3042
2708
3037
2775
3181
2861
2993
2870
3204
2950
3133
2926
3218
2963
3245
3069
3342
2997
3193
2918
3150
2906
3179
2932
3157
2882
3139
2930
3185
2821
3106
2875
3205
2925
3253
2872
3141
2895
3141
2928
3069
2834
3130
2807
3058
2697
2952
2683
3002
2671
3031
2671
2895
2679
3014
2682
2913
2695
2969
2598
2928
2605
2941
2550
2778
2545
2795
2533
2905
2430
2839
2506
2724
2500
2716
2433
2700
2462
2645
2263
2670
2213
2551
2277
2468
2232
2502
2225
2457
2128
2066
1589
0
0
2162
2154
2637
2364
2698
2438
2763
2429
2771
2427
2822
2562
2831
2650
2942
2644
2953
2735
3035
2697
2981
2797
3126
2821
3080
2795
3057
2805
3093
2834
3157
2814
3043
2776
3052
2763
3035
2810
3159
2798
3046
2845
3092
2699
3026
2800
3097
2747
3135
2697
3025
2756
3060
2797
3090
2717
3055
2728
2964
2658
2914
2641
2922
2629
2941
2650
2916
2596
2850
2486
2838
2500
2930
2621
2827
2499
2770
2422
2715
2490
2737
2474
2710
2398
2757
2405
2653
2388
2694
2383
2715
2384
2472
2331
2594
2233
2572
2238
2461
2141
2415
2205
2352
1984
2033
1429
0
0
1940
1936
2395
2093
2441
2130
2404
2117
2476
2183
2532
2327
2578
2357
2694
2302
2629
2450
2753
2527
2693
2454
2773
2578
2813
2493
2762
2593
2757
2589
2856
2558
2759
2555
2874
2569
2844
2558
2873
2509
2829
2523
2857
2479
2826
2502
2789
2470
2910
2503
2839
2578
2743
2534
2693
2470
2854
2470
2773
2451
2602
2394
2679
2487
2674
2398
2605
2330
2632
2302
2611
2353
2646
2187
2641
2327
2534
2254
2534
2234
2468
2222
2582
2117
2474
2255
2363
2234
2437
2123
2382
2101
2341
2122
2394
2029
2386
2042
2234
1979
2232
1937
2210
1782
1869
1242
0
0
2111
2034
2589
2301
2662
2306
2728
2372
2747
2440
2894
2526
2866
2553
2923
2577
2950
2679
3102
2798
3050
2833
3125
2836
3144
2821
3180
2941
3116
2941
3269
2973
3210
2907
3205
2907
3238
2995
3230
2852
3234
3009
3226
2962
3204
2917
3253
2958
3347
2941
3249
2931
3254
3010
3239
2934
3305
3009
3242
2842
3182
2893
3208
2801
3195
2818
3166
2797
3143
2766
3118
2821
3182
2777
3162
2850
3114
2813
3054
2702
3079
2771
3100
2627
3058
2681
2948
2757
3067
2622
2966
2599
2892
2516
2948
2562
2859
2607
2807
2537
2897
2453
2725
2280
2397
1761
0
0
2343
2379
2813
2562
2770
2577
2909
2699
2959
2621
2948
2776
2994
2666
3099
2858
3061
2822
3095
2973
3264
2895
3244
2949
3258
2922
3145
2948
3219
2949
3254
2955
3138
2964
3158
2916
3194
2875
3098
2837
3303
2933
3134
2829
3154
2811
3185
2920
3185
2914
3194
2904
3135
2922
3086
2834
3073
2818
3108
2905
3081
2764
3067
2843
3045
2787
3014
2685
2890
2646
2953
2614
2905
2747
2982
2642
2834
2670
2886
2606
2825
2546
2729
2479
2752
2444
2757
2551
2762
2442
2678
2365
2677
2417
2701
2448
2718
2379
2630
2328
2566
2283
2406
2087
2226
1597
0
0
2229
2246
2653
2417
2685
2422
2836
2540
2864
2561
2938
2501
2839
2669
3022
2701
2982
2633
3023
2839
3176
2843
3170
2804
3176
2852
3138
2829
3094
2889
3213
2895
3214
2881
3090
2786
3205
2805
3042
2832
3182
2873
3124
2857
3122
2829
3113
2926
3229
2870
3140
2842
3107
2882
3027
2868
3012
2832
3061
2757
3078
2669
3012
2710
3088
2693
3006
2679
2819
2507
2876
2526
2886
2593
2855
2628
2861
2562
2791
2539
2835
2513
2735
2466
2754
2480
2725
2385
2722
2381
2595
2309
2709
2361
2689
2386
2775
2363
2502
2228
2541
2135
2260
1981
2189
1466
0
0
1864
1934
2349
2093
2374
2119
2440
2202
2541
2164
2491
2243
2505
2321
2610
2304
2660
2397
2715
2533
2858
2473
2840
2520
2846
2558
2757
2567
2730
2580
2901
2554
2916
2506
2852
2552
2901
2525
2782
2620
2893
2568
2830
2506
2801
2615
2887
2625
2929
2570
2804
2502
2765
2526
2802
2518
2758
2602
2787
2538
2709
2434
2725
2450
2706
2408
2675
2331
2574
2322
2597
2269
2593
2373
2606
2381
2578
2342
2549
2234
2514
2261
2440
2228
2466
2184
2485
2145
2426
2133
2342
2035
2416
2098
2429
2103
2371
2069
2290
1911
2157
1961
1949
1725
1885
1246
0
0
2108
2136
2497
2314
2588
2249
2664
2419
2802
2411
2774
2523
2869
2557
2908
2618
2923
2647
2962
2754
3190
2774
3191
2906
3248
2876
3157
2964
3189
2842
3285
2888
3261
2890
3193
2974
3257
2856
3264
2962
3361
3056
3365
2970
3293
2956
3375
3094
3390
2992
3334
3026
3362
3026
3291
2979
3208
2951
3226
2994
3278
2934
3205
2898
3208
2838
3147
2802
3037
2690
3053
2789
3096
2795
3179
2874
3134
2802
3083
2739
3105
2741
3088
2781
3003
2797
3038
2635
2990
2626
3018
2615
2949
2678
2900
2572
2846
2605
2825
2513
2772
2436
2622
2376
2509
1771
0
0
2253
2361
2790
2536
2866
2524
2922
2658
2970
2643
2958
2656
3109
2674
3095
2802
3138
2882
3188
2884
3092
2926
3292
2950
3239
2961
3255
2933
3249
2966
3221
2882
3296
2989
3250
2928
3227
3000
3181
2971
3266
2970
3223
2969
3221
2971
3237
2925
3282
3001
3250
3060
3180
2912
3217
2888
3177
2929
3211
2863
3144
2856
3043
2803
3009
2752
3056
2702
3031
2782
2946
2716
3038
2733
2922
2697
2874
2587
2778
2492
2860
2538
2803
2600
2818
2445
2718
2502
2810
2522
2674
2429
2685
2480
2761
2330
2679
2442
2589
2364
2501
2160
2354
2066
2225
1659
0
0
2206
2292
2657
2421
2765
2408
2845
2587
2884
2486
2842
2494
2928
2575
2952
2628
2989
2717
2950
2738
2999
2829
3159
2843
3125
2859
3143
2850
3065
2813
3106
2809
3137
2878
3192
2895
3240
2845
3150
2910
3223
2842
3159
2815
3084
2840
3085
2850
3191
2895
3162
2910
3138
2793
3122
2725
3140
2770
3157
2740
2999
2809
2945
2684
2977
2729
3040
2628
3003
2646
2860
2675
2963
2579
2915
2570
2852
2514
2725
2422
2811
2410
2693
2472
2679
2354
2682
2402
2682
2393
2665
2309
2586
2357
2642
2249
2626
2309
2502
2213
2383
2108
2316
2033
2109
1468
0
0
1803
1842
2313
2118
2361
2018
2454
2145
2500
2159
2536
2154
2637
2258
2541
2408
2650
2394
2721
2443
2693
2498
2802
2523
2820
2537
2846
2527
2802
2522
2812
2484
2914
2515
2823
2632
2873
2632
2844
2530
2845
2538
2824
2566
2782
2546
2868
2608
2875
2568
2884
2669
2781
2538
2793
2523
2833
2499
2754
2426
2792
2485
2642
2392
2749
2382
2691
2378
2658
2378
2649
2468
2583
2329
2666
2276
2546
2257
2474
2137
2559
2125
2434
2181
2394
2133
2466
2157
2391
2086
2449
2126
2428
2116
2331
2009
2359
2018
2241
1986
2164
1874
2127
1765
1730
1098
0
0
2059
2135
2599
2338
2715
2362
2717
2445
2839
2482
2828
2463
2930
2578
2924
2607
2985
2760
3015
2649
3078
2807
3264
2921
3178
2813
3205
2799
3134
2861
3159
2866
3265
2929
3318
3023
3269
2965
3246
2971
3400
3002
3282
3026
3278
3056
3333
2931
3345
2997
3396
3041
3382
2985
3278
3028
3319
2940
3301
2901
3208
2947
3159
2878
3237
2962
3304
2918
3229
2906
3156
2845
3242
2853
3179
2801
3076
2758
3010
2700
2969
2596
2935
2660
3060
2665
2962
2707
3069
2728
2970
2645
2909
2673
2901
2634
2891
2516
2899
2518
2831
2335
2649
2239
2362
1682
0
0
2283
2387
2822
2534
2901
2605
2987
2637
3006
2651
2971
2710
3065
2820
3090
2765
3217
2898
3226
2998
3280
2973
3284
2955
3229
2981
3195
3049
3272
3028
3281
3066
3332
3069
3373
3081
3388
3094
3298
3032
3343
3045
3351
3050
3330
2984
3343
2996
3388
3050
3285
2960
3258
3026
3260
2949
3122
2934
3101
2821
3140
2813
3161
2838
3045
2783
3017
2699
2984
2574
2890
2689
2962
2715
2945
2662
2991
2698
2892
2690
2917
2635
2754
2546
2807
2543
2811
2571
2856
2445
2742
2452
2762
2497
2597
2410
2648
2372
2575
2326
2537
2244
2468
2125
2201
1460
0
0
2166
2201
2575
2217
2831
2362
2788
2429
2754
2379
2918
2481
2886
2666
3014
2660
3099
2747
3128
2822
3109
2755
3181
2754
3096
2809
3153
2846
3141
2835
3144
2874
3195
2933
3131
2894
3257
2862
3242
2953
3192
2903
3149
2841
3154
2842
3205
2768
3262
2953
3211
2845
3188
2846
3093
2780
2999
2821
3017
2702
2994
2683
2966
2700
2965
2742
2954
2642
2930
2520
2874
2622
2872
2595
2942
2532
2797
2589
2857
2532
2732
2450
2752
2483
2714
2494
2634
2453
2715
2284
2653
2418
2603
2330
2501
2264
2683
2342
2507
2230
2456
2094
2257
2024
2075
1312
0
0
1883
1876
2327
2034
2410
2174
2446
2232
2568
2188
2625
2257
2571
2341
2692
2375
2747
2446
2774
2529
2835
2512
2878
2554
2836
2619
2737
2581
2926
2654
2957
2686
2931
2684
2845
2677
2913
2730
2913
2577
2929
2626
2874
2570
2889
2582
2869
2558
2939
2634
2850
2558
2890
2652
2882
2488
2773
2510
2712
2450
2683
2430
2633
2407
2807
2475
2699
2413
2670
2330
2667
2367
2615
2418
2659
2317
2626
2349
2476
2289
2533
2199
2412
2230
2405
2251
2418
2280
2428
2106
2353
2241
2443
2132
2265
2114
2437
2053
2321
2021
2174
1947
2101
1768
1896
1096
0
0
2125
2128
2555
2244
2734
2333
2690
2452
2781
2458
2984
2547
2898
2676
3078
2650
3102
2798
3189
2890
3176
2867
3221
2878
3174
2962
3174
3028
3237
2988
3316
3053
3334
3107
3380
3036
3428
3078
3262
3042
3354
2933
3328
3125
3336
3050
3362
2928
3447
3088
3268
3025
3390
3131
3357
2942
3318
2981
3147
2920
3170
2794
3130
2974
3225
2970
3241
2893
3220
2884
3218
2842
3204
2861
3282
2861
3159
2858
3146
2857
3141
2756
3042
2769
3070
2839
2958
2814
3125
2690
2984
2730
2987
2686
2825
2610
2957
2555
2875
2558
2834
2496
2742
2361
2538
1693
0
0
2322
2414
2770
2418
2764
2602
2834
2632
2956
2742
3057
2734
3095
2798
3098
2886
3090
2863
3138
2923
3186
2967
3233
2967
3245
3041
3288
2987
3321
3059
3424
3033
3429
3036
3438
3112
3357
3085
3290
3035
3307
2931
3298
2939
3202
3049
3284
3006
3332
3040
3290
3058
3153
2997
3220
2916
3182
2917
3014
2928
3151
2846
3066
2869
3114
2869
3157
2836
2993
2765
2977
2699
2898
2690
3043
2695
2839
2548
2852
2610
2836
2549
2826
2492
2768
2515
2844
2534
2838
2569
2722
2472
2711
2413
2726
2420
2635
2357
2731
2385
2561
2254
2442
2090
2133
1536
0
0
2158
2205
2635
2323
2697
2449
2780
2514
2916
2538
2892
2546
2965
2609
2959
2705
3020
2819
3033
2789
3073
2735
3157
2842
3082
2871
3205
2853
3189
2906
3221
2939
3230
2971
3289
2960
3298
2853
3232
2948
3237
2851
3163
2843
3118
3020
3141
2933
3257
2947
3189
2971
3190
2864
3069
2836
3106
2829
3009
2790
3082
2850
2984
2622
3030
2738
3060
2669
2918
2653
2924
2641
2825
2606
2903
2583
2818
2536
2726
2508
2829
2486
2706
2444
2669
2414
2669
2358
2665
2478
2668
2389
2629
2297
2627
2249
2586
2132
2555
2194
2468
2213
2391
2012
2116
1441
0
0
1966
1992
2363
2042
2381
2187
2440
2103
2491
2271
2503
2317
2739
2363
2667
2448
2706
2430
2714
2562
2798
2499
2950
2674
2862
2670
2945
2678
2961
2653
2972
2687
3041
2697
3003
2693
2989
2622
2988
2724
2954
2648
2935
2649
2918
2665
2907
2652
2970
2628
2865
2667
2884
2639
2893
2666
2870
2538
2874
2586
2801
2569
2729
2494
2855
2477
2813
2466
2620
2459
2677
2333
2602
2458
2709
2444
2573
2297
2546
2292
2517
2214
2585
2285
2557
2293
2541
2093
2494
2190
2416
2097
2307
2027
2284
2058
2306
1917
2365
2020
2280
2034
2224
1741
1890
1299
0
0
2142
2109
2530
2212
2565
2366
2722
2425
2700
2475
2826
2568
2951
2621
2918
2725
3090
2718
3126
2774
3130
2866
3191
2993
3194
2916
3306
2980
3284
2993
3430
3090
3340
3050
3405
3006
3377
3049
3367
3098
3469
3038
3382
3048
3359
3124
3326
3066
3380
3145
3342
3076
3389
3027
3364
3056
3361
3041
3212
3093
3251
3054
3270
2956
3316
2936
3276
2890
3138
2882
3154
2886
3148
2934
3281
2953
3122
2803
3093
2764
3060
2750
3108
2839
3074
2770
3071
2709
3048
2714
2925
2578
2885
2630
2853
2573
2790
2519
2842
2540
2810
2580
2781
2357
2539
1913
0
0
2377
2313
2734
2512
2804
2529
2916
2674
2878
2774
2999
2722
3100
2760
3118
2792
3054
2793
3138
2996
3209
2985
3249
3010
3227
2969
3290
3018
3353
3045
3240
3090
3458
2997
3416
3084
3358
2971
3286
2970
3378
3108
3252
2907
3319
2974
3272
2969
3212
2949
3206
2970
3181
2896
3205
2901
3221
2818
3020
2834
2964
2774
2980
2765
3047
2771
3050
2733
3059
2674
2958
2673
3077
2735
3057
2690
2961
2581
2703
2481
2757
2486
2804
2567
2763
2531
2772
2530
2734
2477
2682
2429
2714
2444
2636
2366
2630
2362
2654
2378
2610
2238
2569
2191
2309
1638
0
0
2343
2238
2731
2381
2724
2484
2822
2606
2859
2658
2968
2663
3018
2742
2984
2668
3064
2741
3088
2895
3153
2843
3174
2883
3234
2916
3197
2945
3236
3005
3266
2998
3434
3022
3292
3037
3277
2986
3290
3040
3293
3002
3273
2893
3221
2925
3209
2838
3149
2950
3245
2933
3174
2877
3165
2869
3259
2845
3030
2761
2938
2721
2941
2729
3067
2733
3026
2706
3035
2713
2948
2636
3021
2686
2912
2637
2871
2628
2891
2500
2800
2577
2770
2407
2768
2519
2801
2558
2724
2453
2749
2433
2614
2373
2675
2336
2632
2325
2636
2298
2580
2212
2427
2202
2201
1621
0
0
1932
2022
2295
2091
2506
2180
2511
2302
2525
2294
2618
2324
2694
2374
2679
2469
2662
2385
2748
2481
2733
2545
2890
2621
2856
2623
2889
2708
2946
2641
2948
2671
3009
2737
2951
2658
2961
2658
2965
2695
2906
2619
3026
2594
2839
2596
2900
2577
2906
2618
2890
2585
2922
2653
2832
2547
2861
2545
2821
2505
2722
2443
2701
2549
2778
2483
2668
2417
2710
2322
2638
2347
2730
2339
2585
2323
2640
2279
2535
2288
2610
2290
2475
2250
2482
2251
2526
2365
2453
2170
2401
2137
2406
2152
2384
2125
2354
2055
2333
1969
2201
2002
2156
1893
1924
1348
0
0
2210
2103
2629
2298
2758
2434
2802
2523
2854
2562
2904
2502
2969
2608
3022
2682
2994
2669
3104
2850
3100
2821
3279
2976
3245
2982
3285
2965
3341
3034
3298
3060
3348
3030
3301
3060
3285
3010
3321
3023
3362
3099
3318
3029
3373
3074
3398
3006
3340
3008
3402
3053
3342
2985
3394
3062
3396
3040
3298
2971
3222
2967
3310
2969
3393
2993
3270
2947
3278
2869
3150
2866
3268
2862
3210
2845
3097
2780
3111
2764
3118
2746
3037
2768
3026
2753
3125
2772
2965
2708
3052
2690
3020
2669
2963
2640
2963
2589
2949
2529
2855
2482
2757
2389
2523
1867
0
0
2333
2325
2678
2425
2816
2458
2804
2506
2910
2752
3010
2778
3082
2802
3197
2850
3242
2839
3290
2902
3254
2994
3252
3058
3261
3031
3345
3028
3285
3124
3285
3092
3301
2969
3377
3022
3349
3094
3339
3109
3362
3019
3317
3078
3373
3037
3322
3035
3205
3026
3173
2903
3217
2894
3302
2926
3250
2853
3114
2881
3138
2745
3089
2774
3025
2867
3041
2746
2962
2705
2914
2690
2845
2658
3065
2714
2997
2641
2834
2717
2988
2649
2837
2577
2788
2452
2770
2564
2758
2568
2730
2461
2638
2409
2657
2350
2546
2249
2629
2251
2578
2292
2482
2193
2288
1614
0
0
2249
2196
2649
2459
2754
2374
2833
2423
2892
2637
2907
2669
2957
2753
3077
2688
3194
2824
3101
2823
3176
2866
3221
2962
3221
2913
3217
2957
3188
2929
3253
3014
3212
2965
3230
2901
3288
2974
3245
2971
3309
2959
3338
2981
3340
2966
3185
2907
3200
2954
3183
2834
3146
2868
3265
2874
3078
2821
3069
2716
2967
2615
2973
2734
3026
2818
2999
2800
2967
2653
2878
2692
2846
2587
2960
2653
2933
2554
2754
2544
2908
2517
2830
2576
2724
2496
2778
2490
2739
2373
2658
2421
2634
2361
2627
2334
2561
2307
2557
2204
2538
2210
2366
2156
2205
1558
0
0
1907
1947
2370
2192
2436
2165
2493
2179
2592
2362
2533
2313
2608
2358
2725
2350
2807
2469
2788
2581
2782
2574
2825
2605
2842
2593
2909
2586
2901
2728
2898
2671
2948
2666
3010
2678
2920
2683
3010
2610
3004
2645
3002
2591
2909
2589
2811
2590
2838
2627
2876
2603
2838
2596
2907
2535
2731
2451
2778
2398
2690
2388
2717
2425
2754
2534
2786
2529
2618
2297
2702
2450
2662
2396
2647
2312
2628
2344
2521
2322
2565
2254
2490
2289
2517
2146
2458
2312
2436
2242
2393
2084
2413
2198
2307
2058
2420
2009
2347
2028
2306
2002
2121
1833
1909
1261
0
0
2191
2153
2573
2376
2736
2417
2752
2486
2893
2565
2914
2621
2969
2679
3127
2768
3181
2765
3160
2806
3140
2867
3211
2978
3268
2938
3334
2924
3263
3093
3309
2977
3323
3041
3386
3014
3350
3090
3405
3090
3386
3095
3432
3021
3394
3012
3396
3030
3371
3033
3426
2981
3318
3021
3277
3046
3310
2917
3258
2925
3277
2866
3223
2938
3249
2989
3285
2952
3165
2948
3126
2928
3133
2919
3213
2909
3237
2834
3128
2852
3108
2781
3172
2844
3061
2645
3030
2795
3044
2768
2981
2609
2954
2610
2933
2626
2883
2608
2951
2480
2852
2566
2719
2365
2529
1870
0
0
2410
2378
2916
2561
2998
2742
3010
2756
2948
2797
3100
2836
3114
2914
3177
2915
3172
2990
3150
2906
3179
3008
3323
3008
3386
3026
3360
3046
3334
3118
3397
3108
3298
3048
3348
3169
3449
3087
3432
3112
3469
3094
3343
3135
3382
3149
3367
3112
3305
3054
3341
3071
3282
2999
3236
2982
3259
2885
3233
2953
3122
2906
3122
2937
3173
2864
3157
2842
3069
2914
3073
2829
3082
2778
3016
2717
2930
2581
2856
2468
2822
2473
2846
2629
2833
2549
2786
2572
2900
2551
2786
2574
2901
2498
2754
2489
2921
2485
2626
2392
2587
2354
2493
2125
2282
1661
0
0
2313
2240
2714
2381
2847
2508
2939
2626
2901
2660
2993
2594
2984
2760
3020
2641
3082
2801
3052
2824
3130
2831
3204
2821
3288
2930
3236
2903
3200
2884
3242
2965
3124
2949
3257
2950
3279
2941
3298
2986
3255
2994
3258
2941
3210
2941
3237
2883
3236
2887
3157
2884
3092
2837
3120
2898
3176
2811
3209
2862
3067
2798
3059
2753
3063
2739
3050
2693
3011
2725
2929
2652
3017
2621
2938
2572
2867
2500
2762
2404
2766
2450
2806
2546
2770
2448
2757
2506
2907
2402
2756
2523
2709
2397
2608
2358
2692
2394
2553
2298
2485
2252
2426
2003
2145
1405
0
0
1941
1942
2472
2197
2546
2271
2617
2260
2555
2325
2613
2287
2645
2445
2802
2423
2742
2551
2743
2525
2730
2579
2850
2506
2890
2597
2805
2583
2923
2653
2914
2711
2875
2605
2949
2693
3013
2706
2999
2718
2996
2740
2927
2661
2925
2707
2907
2674
2928
2695
2865
2637
2842
2600
2797
2608
2865
2537
2841
2590
2777
2565
2794
2541
2768
2434
2722
2346
2715
2479
2711
2458
2812
2341
2602
2314
2607
2255
2514
2234
2539
2219
2615
2305
2522
2229
2571
2261
2558
2197
2482
2265
2511
2249
2333
2178
2407
2058
2381
2075
2346
2011
2173
1748
1890
1286
0
0
2205
2229
2724
2370
2870
2568
2827
2587
2908
2628
3022
2639
3014
2715
3090
2809
3157
2864
3097
2927
3195
2922
3206
2859
3239
2909
3278
3023
3377
3009
3414
3121
3346
3020
3434
3069
3446
3125
3482
3122
3517
3085
3474
3156
3418
3236
3426
3202
3490
3100
3422
3089
3374
3070
3324
3094
3396
3101
3373
3105
3308
3045
3336
3044
3312
3001
3177
2867
3274
3012
3245
3006
3318
2937
3253
2819
3205
2739
3019
2693
3099
2756
3115
2846
3139
2819
3100
2809
3065
2806
3057
2743
3133
2809
2917
2746
3104
2677
2937
2581
2927
2566
2829
2349
2600
1795
0
0
2382
2468
2950
2609
2967
2728
3073
2772
3039
2774
3051
2715
3153
2875
3237
2914
3285
2953
3258
2955
3285
3018
3398
2998
3319
3099
3342
3086
3367
3126
3396
3084
3475
3080
3314
3125
3405
3135
3382
3116
3410
3137
3374
3114
3352
3132
3276
2981
3220
2910
3316
2999
3221
2918
3202
2978
3100
2900
3095
2897
3060
2894
3082
2857
3157
2875
3035
2778
3106
2790
3003
2726
3085
2708
3010
2659
3030
2666
2883
2645
2905
2666
2943
2630
2856
2550
2845
2546
2837
2443
2821
2518
2781
2519
2658
2510
2760
2507
2810
2423
2676
2405
2477
2194
2295
1674
0
0
2308
2293
2749
2525
2834
2578
2835
2642
2887
2581
2890
2665
3050
2721
3143
2770
3184
2794
3131
2805
3205
2818
3225
2939
3201
2928
3178
2946
3211
3041
3238
2935
3249
2910
3299
3043
3277
2922
3285
3063
3236
2956
3252
2923
3238
2964
3165
2961
3201
2858
3194
2893
3130
2827
3120
2839
2996
2770
3050
2779
2900
2794
3023
2846
3073
2712
2986
2703
2987
2639
2938
2674
2966
2618
2983
2563
2970
2605
2731
2666
2860
2575
2806
2480
2801
2437
2803
2461
2738
2468
2622
2381
2660
2427
2676
2391
2678
2346
2743
2262
2649
2283
2425
2074
2212
1537
0
0
2010
2005
2481
2173
2485
2262
2629
2333
2587
2397
2658
2346
2711
2485
2770
2418
2810
2618
2882
2540
2850
2613
2925
2595
2806
2637
2978
2598
2958
2668
3002
2687
2988
2707
2975
2807
3028
2722
2917
2731
2972
2758
3015
2730
3002
2694
2975
2621
2911
2564
3013
2660
2868
2549
2857
2659
2835
2564
2750
2554
2757
2533
2843
2538
2794
2476
2728
2441
2704
2482
2674
2406
2693
2387
2724
2309
2626
2314
2494
2375
2677
2298
2658
2336
2479
2219
2418
2196
2552
2135
2480
2155
2441
2134
2393
2193
2345
2237
2456
2051
2306
1995
2152
1785
1949
1257
0
0
2242
2327
2710
2446
2810
2539
2861
2527
2916
2566
2950
2638
3002
2644
3069
2746
3143
2800
3156
2818
3161
2909
3263
3062
3227
2962
3326
3026
3336
3126
3327
3018
3378
3051
3361
3154
3458
2998
3412
3114
3446
3149
3357
3120
3477
3154
3425
3124
3392
3066
3477
3127
3414
3051
3365
3078
3341
3041
3401
3081
3319
3074
3259
2977
3376
2981
3278
2967
3205
2941
3223
2914
3314
2923
3319
2959
3182
2849
3081
2850
3149
2797
3138
2807
3150
2740
3048
2817
3074
2719
3019
2738
3046
2664
2935
2705
2987
2634
3058
2614
2866
2490
2561
2289
2447
1845
0
0
2327
2390
2942
2711
2973
2642
2928
2795
2988
2793
3046
2786
3109
2862
3177
3015
3150
2950
3165
2971
3223
2955
3218
2864
3190
2977
3222
2989
3229
2930
3321
2985
3261
3063
3351
3098
3350
3138
3517
3117
3367
3010
3325
3089
3274
3029
3277
3005
3213
2999
3285
3053
3293
2922
3291
2994
3203
2965
3157
2924
3138
2872
3084
2833
3158
2782
2998
2747
3021
2714
2990
2737
2953
2714
3037
2692
2893
2573
2804
2580
2806
2510
2874
2504
2882
2563
2745
2570
2853
2518
2762
2506
2765
2453
2733
2510
2746
2455
2609
2396
2646
2293
2394
2070
2194
1654
0
0
2270
2250
2802
2484
2822
2596
2874
2607
2960
2626
2961
2730
3019
2837
3042
2961
3063
2865
3088
2855
3146
2843
3162
2794
3173
2874
3205
2917
3255
2941
3240
2852
3245
2977
3300
2961
3302
3045
3346
3068
3270
2981
3274
2978
3261
2948
3269
2983
3254
2940
3254
2964
3225
2897
3205
2986
3142
2879
3097
2768
3037
2761
2992
2705
3066
2799
2940
2657
2997
2730
3025
2678
2902
2658
2890
2665
2847
2522
2802
2526
2756
2493
2746
2472
2860
2523
2784
2511
2817
2500
2724
2417
2713
2465
2712
2426
2645
2445
2594
2357
2586
2218
2306
1997
2133
1530
0
0
1930
2015
2393
2186
2543
2259
2549
2365
2708
2472
2678
2347
2731
2426
2807
2609
2846
2507
2764
2516
2879
2580
2908
2537
2822
2544
2838
2616
2910
2557
2868
2527
2854
2644
2956
2778
3014
2733
3061
2694
2928
2668
2916
2671
2952
2583
3010
2701
2920
2724
2940
2774
2923
2549
2953
2734
2900
2590
2784
2605
2860
2565
2753
2450
2866
2450
2661
2481
2702
2381
2747
2404
2677
2382
2670
2419
2745
2266
2666
2322
2554
2302
2519
2205
2584
2293
2532
2206
2598
2290
2509
2210
2493
2170
2375
2249
2448
2194
2378
2075
2283
1919
2120
1789
1934
1259
0
0
2111
2172
2736
2422
2800
2478
2797
2601
2868
2658
2966
2608
3016
2689
3058
2839
3173
2851
3064
2878
3182
2939
3188
2839
3176
2907
3202
2900
3261
2798
3275
2940
3278
2997
3327
3064
3364
3077
3512
3118
3342
3082
3422
3161
3365
3067
3430
3044
3435
3083
3439
3127
3394
3034
3340
3127
3378
3074
3235
3005
3237
2973
3175
2906
3280
2940
3213
2852
3239
2826
3266
2965
3112
2834
3197
2900
3220
2798
3165
2810
3209
2802
2961
2775
3114
2797
3109
2779
3082
2756
3154
2793
2986
2699
2923
2790
3070
2706
2948
2588
2830
2548
2642
2225
2511
1865
0
0
2355
2472
2853
2642
2989
2782
3065
2762
3051
2820
3086
2773
3099
2891
3162
2874
3194
3037
3268
3041
3285
3106
3338
3004
3323
3027
3218
2946
3322
3043
3312
3066
3404
3068
3417
3048
3339
3053
3344
3122
3376
3097
3341
3121
3260
3093
3292
2994
3278
2991
3289
2957
3287
2980
3270
2978
3242
2901
3222
2836
3167
2813
3063
2927
3163
2869
3118
2799
3062
2722
3037
2718
3042
2708
3000
2778
3037
2772
2820
2642
2810
2618
2785
2518
2822
2613
2833
2554
2822
2543
2795
2569
2773
2420
2723
2423
2735
2404
2626
2390
2581
2303
2328
2058
2203
1554
0
0
2351
2325
2762
2554
2833
2676
3005
2660
3002
2659
3053
2647
3061
2794
3146
2810
3138
2905
3156
2875
3229
2907
3249
2915
3302
3015
3154
2945
3289
3074
3305
3018
3287
2980
3322
2957
3268
2959
3258
3021
3408
3037
3247
3048
3261
2990
3240
2966
3265
2943
3241
2866
3241
2986
3210
2998
3197
2856
3181
2790
3133
2750
3078
2842
3130
2804
2987
2733
3002
2710
3086
2706
2988
2715
2985
2677
2883
2637
2794
2554
2835
2507
2769
2484
2782
2504
2738
2444
2757
2522
2778
2538
2683
2405
2686
2340
2750
2347
2601
2357
2650
2197
2309
1974
2098
1438
0
0
1941
2045
2490
2269
2610
2393
2781
2401
2669
2395
2626
2312
2733
2429
2755
2490
2788
2481
2815
2633
2858
2664
2957
2565
2948
2664
2917
2603
2962
2774
2947
2665
2987
2650
3049
2694
2878
2711
3013
2705
3040
2706
2953
2693
2925
2702
2895
2587
2954
2594
2875
2620
2905
2629
2924
2628
2918
2601
2851
2509
2875
2559
2745
2570
2829
2621
2836
2526
2718
2343
2669
2383
2670
2378
2725
2372
2621
2353
2556
2294
2530
2270
2614
2213
2506
2170
2518
2235
2458
2164
2497
2262
2379
2141
2440
2125
2491
2106
2349
2057
2293
2000
2149
1857
1876
1271
0
0
2310
2242
2724
2354
2849
2608
2982
2582
2957
2644
2933
2548
2986
2741
3114
2776
3112
2890
3202
2914
3239
2916
3309
2934
3310
2992
3275
3051
3349
3081
3329
3041
3391
3056
3420
3126
3370
3063
3368
3035
3408
3055
3386
3083
3386
3101
3374
3082
3346
2988
3377
3007
3381
3063
3322
3052
3437
3033
3285
2934
3258
3009
3262
2990
3334
3046
3271
2910
3266
2874
3216
2809
3237
2932
3148
2810
3156
2878
3134
2782
3092
2758
3082
2808
3019
2729
3003
2635
3045
2676
3041
2750
3002
2634
3003
2646
3003
2649
2878
2581
2905
2568
2685
2331
2504
1837
0
0
2448
2455
2929
2749
3046
2719
3065
2874
3096
2789
3162
2791
3080
2856
3293
3017
3258
3045
3334
2998
3357
3069
3357
3067
3382
3166
3347
3125
3249
3002
3345
3025
3308
3072
3347
3086
3346
3139
3476
3160
3396
3072
3338
3074
3318
3018
3306
3026
3346
2994
3243
3082
3306
3041
3273
3042
3236
2948
3223
2881
3070
2845
3085
2832
3154
2816
3033
2779
3022
2724
3017
2724
2941
2753
3000
2708
2928
2716
2914
2657
2992
2694
2863
2697
2806
2501
2771
2570
2746
2568
2773
2657
2728
2626
2758
2467
2820
2502
2722
2448
2645
2347
2510
2106
2236
1723
0
0
2345
2406
2722
2638
2942
2635
2988
2695
2932
2638
2954
2676
3009
2794
3106
2833
3074
2813
3174
2924
3157
2917
3302
2967
3273
3030
3211
2927
3178
2905
3178
2809
3210
2902
3244
2963
3272
2984
3387
3092
3254
2955
3292
2941
3205
2857
3154
2821
3202
2822
3081
2909
3236
2878
3113
2858
3069
2790
3108
2804
3077
2775
3010
2694
3061
2787
2934
2747
2980
2638
2874
2692
2931
2632
2914
2585
2772
2582
2868
2491
2893
2560
2765
2570
2735
2381
2634
2405
2570
2350
2666
2518
2650
2525
2673
2373
2685
2407
2546
2342
2603
2283
2456
2024
2181
1618
0
0
2020
2073
2474
2248
2606
2236
2690
2414
2598
2316
2592
2336
2658
2482
2837
2583
2756
2445
2867
2583
2754
2586
2946
2692
2983
2735
2917
2639
2924
2722
2870
2616
2858
2699
2974
2674
2960
2722
2974
2733
2957
2754
2938
2659
2926
2590
2917
2566
2871
2507
2892
2654
2939
2542
2843
2615
2795
2594
2828
2490
2785
2530
2746
2506
2839
2466
2719
2479
2583
2351
2686
2386
2589
2346
2541
2326
2620
2318
2580
2276
2633
2378
2498
2265
2459
2066
2310
2158
2250
2057
2329
2276
2427
2224
2309
2131
2484
2172
2376
2125
2349
1998
2129
1834
1824
1327
0
0
2290
2271
2723
2519
2884
2574
2953
2650
2930
2605
2961
2586
2948
2722
3126
2822
3130
2850
3163
2914
3201
2889
3319
3072
3336
3112
3278
3028
3346
3037
3332
2990
3290
3069
3380
3069
3281
3020
3432
3028
3435
3060
3380
3030
3310
2981
3388
2978
3300
3004
3242
3023
3378
3050
3337
3078
3341
3063
3324
2988
3237
2978
3339
2943
3325
2938
3237
2984
3117
2869
3218
2889
3081
2836
3158
2949
3124
2882
3138
2842
3194
2868
3060
2795
3074
2634
2805
2562
2831
2559
2921
2793
3017
2726
3006
2629
3019
2704
2892
2622
2889
2550
2866
2353
2499
1910
0
0
2548
2574
3030
2703
2924
2777
3093
2906
3204
2900
3162
2869
3184
2842
3122
2890
3223
3001
3298
3065
3279
3093
3437
3037
3306
3050
3388
3114
3302
3061
3284
3087
3295
3093
3371
3129
3335
3117
3386
3107
3356
3149
3337
3076
3382
2998
3299
3045
3266
2973
3220
3041
3202
2924
3140
3052
3221
2902
3217
2902
3096
2871
3063
2893
3208
2847
3115
2774
3093
2759
2985
2687
2880
2667
2906
2669
2914
2758
2856
2682
2910
2637
2845
2567
2789
2480
2718
2523
2754
2443
2829
2597
2844
2557
2766
2474
2729
2482
2677
2361
2646
2310
2597
2194
2325
1764
0
0
2469
2388
2810
2564
2844
2610
3005
2616
3069
2663
2974
2674
3038
2682
3020
2747
3056
2765
3149
2845
3130
2986
3186
2881
3248
2945
3220
2959
3135
3044
3245
2955
3237
2917
3253
3027
3186
2948
3259
2943
3290
2990
3178
2917
3221
2939
3181
2895
3163
2855
3114
2839
3106
2836
3129
2906
3093
2783
3131
2747
3030
2818
3073
2769
3163
2793
2982
2630
2905
2662
2906
2653
2813
2501
2797
2521
2837
2632
2801
2501
2765
2527
2748
2522
2698
2389
2630
2373
2650
2311
2714
2484
2728
2442
2568
2413
2616
2410
2642
2254
2522
2153
2510
2086
2159
1597
0
0
2077
2128
2555
2265
2570
2425
2711
2516
2683
2450
2738
2419
2717
2437
2708
2529
2782
2556
2923
2649
2840
2664
2933
2597
2958
2603
2958
2715
2912
2670
2884
2698
2962
2706
2937
2788
2969
2750
2974
2698
3022
2741
2909
2644
2952
2662
2949
2631
2949
2657
2864
2650
2837
2540
2846
2617
2918
2549
2858
2569
2722
2562
2737
2555
2836
2419
2665
2410
2641
2330
2569
2319
2589
2291
2547
2301
2471
2314
2561
2310
2525
2309
2467
2254
2519
2116
2353
2194
2352
2106
2523
2244
2449
2154
2344
2151
2362
2093
2325
2109
2256
1891
2192
1757
1930
1354
0
0
2370
2261
2896
2538
2772
2573
2894
2665
3061
2674
2966
2696
3077
2671
3016
2795
3150
2922
3190
2995
3271
2962
3321
2966
3301
2985
3297
3057
3269
3067
3332
2974
3421
3067
3434
3172
3434
3124
3420
3153
3401
3114
3446
3133
3465
3142
3373
3097
3389
3010
3323
3043
3367
2970
3314
3067
3440
3054
3419
3036
3236
2997
3244
3071
3330
2939
3246
2862
3123
2834
3056
2764
3096
2713
2997
2704
3053
2829
3086
2855
3134
2888
3157
2811
3091
2749
3030
2753
2977
2701
3109
2731
3062
2664
2937
2710
2990
2706
2897
2646
2906
2545
2786
2265
2372
1733
0
0
2489
2519
3056
2754
3063
2816
3091
2826
3029
2733
3086
2826
3158
2843
3189
2986
3298
2974
3291
3050
3266
3106
3336
3081
3422
3076
3397
3056
3371
3118
3337
3097
3293
3140
3420
3067
3368
3116
3391
3021
3323
3167
3389
2997
3370
3005
3249
2909
3211
2989
3286
2965
3308
2877
3190
2907
3249
2966
3176
2901
3184
2857
3163
2883
3172
2821
3049
2852
3111
2828
2997
2682
2969
2768
2967
2639
2925
2601
2917
2690
2922
2642
2912
2611
2717
2516
2668
2452
2674
2413
2773
2554
2786
2578
2760
2562
2817
2301
2770
2341
2677
2310
2480
1945
2134
1577
0
0
2243
2339
2874
2626
2925
2696
3010
2692
2950
2685
2984
2632
3053
2794
3101
2890
3163
2808
3202
2796
3174
2948
3193
2892
3255
2939
3253
2943
3276
2959
3273
3030
3146
2940
3346
2920
3238
2948
3262
2958
3222
2920
3325
2954
3309
2897
3187
2866
3117
2814
3192
2861
3202
2745
3116
2816
3134
2764
3019
2859
2982
2752
3000
2701
3021
2614
2997
2730
2996
2734
2871
2517
2950
2594
2821
2537
2832
2544
2790
2582
2817
2524
2829
2481
2702
2475
2657
2264
2633
2351
2696
2396
2681
2340
2610
2377
2685
2264
2610
2258
2525
2219
2362
1862
1997
1395
0
0
1957
2066
2546
2261
2638
2397
2643
2421
2695
2378
2729
2378
2806
2509
2788
2497
2926
2565
2834
2555
2841
2629
2888
2646
3023
2614
2994
2685
2941
2693
2959
2686
2938
2590
3034
2604
2950
2674
3012
2659
3007
2693
3080
2660
2933
2659
2916
2544
2829
2629
2949
2596
2915
2541
2840
2628
2875
2518
2786
2458
2713
2462
2764
2499
2806
2427
2700
2498
2682
2395
2637
2338
2626
2350
2609
2310
2562
2280
2417
2217
2541
2181
2571
2306
2388
2195
2418
2101
2385
2146
2461
2221
2485
2147
2388
2224
2453
2018
2389
1942
2226
2014
2102
1651
1776
1207
0
0
2228
2258
2792
2531
2938
2630
2951
2662
2964
2605
3029
2650
3030
2770
2988
2713
3189
2772
3115
2829
3189
2914
3272
2957
3312
2937
3305
2997
3334
3045
3314
3109
3311
3093
3387
3018
3321
3045
3397
3070
3382
3067
3415
3063
3438
3083
3437
3114
3393
3066
3401
3154
3457
2989
3418
3014
3336
3004
3189
2933
3159
2947
3250
2878
3231
2916
3220
2950
3265
2971
3154
2852
3106
2868
3166
2885
3099
2725
3048
2762
3026
2730
3078
2724
2934
2690
2941
2651
2937
2641
3097
2729
3026
2740
2898
2714
2962
2539
2894
2480
2733
2470
2734
2231
2429
1805
0
0
2390
2414
2802
2756
3106
2798
3117
2825
3142
2854
3236
2805
3202
3035
3241
2962
3225
2985
3154
2952
3387
3080
3401
3091
3338
3018
3415
3115
3241
2989
3356
3041
3328
3069
3274
2990
3289
3109
3368
3020
3401
3081
3346
3023
3325
3117
3217
2966
3269
2985
3314
2902
3157
2857
3108
2840
3161
2857
3161
2781
3050
2781
3030
2739
3082
2768
3054
2660
2914
2739
2963
2650
2874
2706
2872
2574
2790
2578
2833
2678
2850
2607
2839
2513
2763
2341
2646
2365
2607
2396
2708
2462
2715
2421
2630
2384
2677
2370
2610
2317
2579
2179
2412
2054
2228
1424
0
0
2331
2353
2772
2634
2992
2673
3036
2772
3002
2684
3077
2770
3086
2891
3141
2806
3067
2762
3121
2807
3223
2868
3228
2920
3182
2865
3307
2990
3183
2898
3244
2892
3206
2952
3205
2812
3154
2946
3292
2913
3292
2920
3282
2888
3257
2931
3125
2824
3255
2882
3150
2824
3118
2854
3054
2768
3130
2770
3115
2774
2990
2713
2991
2610
3124
2709
2914
2630
2912
2676
2873
2546
2822
2573
2758
2541
2766
2511
2797
2552
2857
2557
2813
2472
2682
2281
2550
2317
2537
2317
2668
2418
2639
2276
2587
2358
2642
2283
2618
2191
2468
2058
2297
1971
2111
1453
0
0
1972
2037
2470
2340
2606
2378
2765
2418
2709
2420
2842
2474
2804
2628
2793
2549
2756
2580
2825
2618
2874
2637
2907
2657
2928
2662
2905
2615
2918
2564
2967
2709
2962
2693
2922
2669
2843
2666
2949
2678
2948
2747
2900
2581
2871
2683
2824
2544
2978
2637
2858
2610
2837
2549
2810
2605
2850
2493
2788
2506
2730
2472
2691
2379
2837
2411
2774
2426
2666
2431
2637
2349
2546
2349
2502
2301
2499
2301
2486
2167
2535
2298
2541
2262
2446
2092
2354
2139
2301
2062
2420
2234
2410
2149
2423
2146
2350
2062
2387
2086
2184
1832
2127
1745
1880
1218
0
0
2230
2235
2642
2448
2845
2450
2953
2630
2915
2650
3067
2745
3045
2870
3058
2837
3188
2757
3152
2827
3154
2775
3230
2954
3245
2894
3346
2979
3190
2871
3342
3034
3295
2990
3381
2991
3274
2957
3308
2938
3284
2920
3250
2909
3362
3074
3224
3042
3314
3029
3236
2934
3210
2842
3150
2867
3311
2942
3164
2909
3242
2877
3140
2843
3216
2870
3173
2843
3081
2794
3049
2805
3085
2782
3010
2782
3100
2749
3106
2746
3061
2794
3093
2768
2966
2648
2934
2554
2972
2608
2946
2682
2970
2536
2936
2628
2825
2511
2805
2506
2777
2282
2570
2230
2447
1758
0
0
2497
2494
3023
2734
2950
2845
3189
2908
3210
2889
3140
2980
3213
3037
3255
2971
3214
2936
3197
2952
3153
2968
3304
3060
3276
3030
3318
3087
3309
3026
3318
3022
3340
3045
3281
3042
3299
3041
3312
3076
3409
3010
3297
3053
3252
3042
3211
3048
3259
2894
3222
2915
3174
2837
3118
2865
3067
2802
2964
2726
2931
2740
2953
2699
3144
2762
2981
2810
3023
2753
2966
2666
2888
2617
2859
2469
2785
2618
2778
2526
2885
2600
2821
2664
2741
2613
2711
2522
2862
2530
2779
2449
2701
2459
2753
2506
2647
2493
2725
2308
2545
2247
2395
2042
2248
1739
0
0
2395
2357
2853
2542
2794
2638
2997
2738
3019
2713
3093
2808
3132
2893
3133
2839
3074
2769
3094
2778
3003
2855
3109
2826
3126
2857
3198
2841
3234
2897
3111
2858
3218
2937
3150
2931
3141
2925
3146
2934
3166
2932
3178
2892
3140
2935
3156
2837
3104
2859
3061
2823
3130
2749
3001
2692
2909
2658
2821
2566
2844
2678
2958
2584
2970
2690
2862
2641
2894
2585
2841
2551
2843
2456
2822
2426
2754
2453
2763
2441
2821
2454
2677
2506
2710
2503
2644
2372
2693
2474
2724
2419
2681
2352
2701
2324
2597
2398
2625
2158
2427
2121
2317
1987
2150
1448
0
0
1969
2065
2454
2269
2519
2287
2646
2365
2802
2398
2729
2459
2799
2541
2772
2572
2754
2461
2745
2455
2687
2468
2802
2514
2854
2617
2892
2557
2875
2570
2837
2653
2882
2613
2734
2546
2812
2583
2810
2569
2933
2581
2785
2612
2917
2578
2849
2613
2835
2423
2871
2488
2754
2521
2705
2386
2625
2338
2533
2277
2598
2411
2578
2341
2690
2365
2618
2382
2610
2377
2656
2353
2525
2202
2533
2223
2579
2305
2452
2220
2532
2166
2473
2237
2410
2205
2386
2233
2454
2232
2558
2133
2405
2122
2407
2162
2305
2100
2324
1917
2186
1874
2069
1765
1825
1369
0
0
2187
2229
2739
2471
2776
2522
2918
2594
3010
2675
3017
2690
3042
2763
3041
2866
3085
2771
3054
2797
3061
2807
3189
2858
3246
2959
3260
2933
3237
2894
3250
2938
3338
2990
3242
2905
3163
2978
3279
2994
3298
2952
3291
3040
3339
2988
3269
2980
3285
2940
3255
2925
3277
2897
3204
2777
3113
2806
3080
2775
3106
2788
3053
2813
3131
2752
3125
2864
3050
2766
3115
2841
3074
2698
3053
2703
3010
2725
2932
2735
3119
2664
3086
2762
2953
2756
2917
2718
2986
2660
2992
2645
2892
2554
2886
2523
2824
2598
2869
2440
2712
2373
2572
2282
2454
1792
0
0
2462
2469
2924
2729
2938
2706
3150
2893
3126
3003
3111
2956
3185
2964
3257
2941
3275
3006
3250
3018
3288
2998
3349
3014
3331
3106
3341
3004
3377
3021
3266
2906
3309
3001
3285
3014
3246
3030
3277
2997
3253
3034
3157
2937
3213
2948
3177
2931
3269
2913
3191
2902
3083
2837
3051
2778
3056
2869
2995
2770
3053
2667
3047
2779
3064
2702
3045
2639
2938
2623
2907
2709
2865
2587
2846
2627
2773
2512
2852
2581
2853
2574
2807
2486
2825
2568
2732
2444
2742
2510
2730
2550
2692
2391
2675
2361
2665
2281
2502
2202
2381
2108
2338
1966
2205
1581
0
0
2261
2253
2702
2506
2812
2523
2874
2589
2930
2724
2989
2766
2925
2665
3031
2730
3045
2762
3040
2773
3031
2766
3183
2818
3115
2794
3233
2834
3129
2801
2981
2724
3170
2779
3087
2802
3045
2833
3081
2752
2989
2805
3028
2791
3020
2762
3023
2752
3060
2702
2930
2748
2922
2617
2876
2650
2890
2670
2900
2589
2898
2559
2878
2537
2899
2526
2948
2519
2862
2500
2737
2543
2768
2466
2662
2414
2629
2375
2641
2426
2703
2357
2677
2357
2629
2440
2590
2363
2609
2346
2537
2352
2594
2318
2531
2164
2462
2109
2362
2102
2357
2018
2220
1794
1942
1310
0
0
1970
1989
2422
2289
2564
2269
2589
2319
2565
2432
2622
2465
2701
2487
2688
2414
2738
2490
2683
2519
2757
2521
2899
2487
2861
2557
2853
2576
2875
2545
2813
2516
2769
2477
2709
2525
2802
2461
2768
2450
2761
2485
2744
2519
2741
2505
2719
2500
2821
2436
2753
2516
2626
2415
2618
2361
2598
2397
2570
2436
2690
2338
2658
2348
2610
2259
2718
2253
2546
2271
2442
2292
2521
2198
2446
2218
2397
2139
2360
2169
2437
2220
2415
2154
2437
2162
2355
2140
2390
2189
2330
2160
2262
1956
2194
1979
2129
1923
2133
1922
2161
1821
2021
1597
1867
1170
0
0
2205
2161
2647
2482
2775
2487
2856
2594
2855
2703
2920
2766
2907
2634
2998
2677
3087
2766
3078
2813
3142
2788
3226
2868
3201
2949
3234
2901
3216
2886
3274
2809
3208
2777
3162
2836
3126
2786
3148
2895
3122
2926
3122
2852
3085
2789
3138
2858
3242
2849
3187
2922
3168
2868
3078
2875
3146
2788
3065
2877
3155
2775
3157
2695
3143
2786
3069
2717
3067
2706
2943
2754
3002
2749
2981
2761
2954
2686
2937
2730
2999
2737
3005
2629
3055
2715
2955
2659
2988
2722
2895
2686
2861
2455
2781
2431
2786
2491
2675
2412
2665
2452
2566
2176
2362
1640
0
0
2390
2422
2792
2586
2888
2605
2997
2762
3088
2865
3073
2786
3123
2863
3146
2882
3180
2907
3196
2837
3082
2838
3178
2893
3189
2891
3184
2928
3195
2954
3318
2914
3258
2845
3121
2952
3162
2909
3208
2883
3110
2873
3141
2842
3065
2874
3114
2805
3086
2818
3027
2754
2946
2725
2876
2724
2874
2618
2906
2522
2923
2659
2927
2612
2968
2649
2997
2709
2857
2505
2875
2618
2773
2551
2829
2494
2794
2429
2682
2523
2764
2516
2733
2570
2698
2501
2749
2465
2667
2337
2602
2315
2615
2418
2618
2338
2573
2366
2594
2293
2475
2214
2282
1962
2154
1506
0
0
2269
2150
2645
2358
2726
2441
2826
2548
2933
2586
2942
2654
2946
2644
2974
2620
2991
2691
2955
2635
2903
2708
3012
2700
2985
2714
2952
2773
3050
2785
3076
2653
3012
2667
2989
2673
2966
2786
3067
2724
2930
2654
2972
2711
2930
2641
2913
2587
2917
2658
2835
2614
2881
2623
2796
2644
2750
2573
2788
2388
2798
2517
2814
2450
2745
2433
2812
2482
2715
2373
2699
2474
2700
2452
2748
2355
2614
2413
2605
2411
2628
2374
2584
2326
2569
2320
2586
2310
2509
2309
2491
2189
2445
2302
2484
2245
2404
2130
2374
2087
2312
2133
2199
1856
1922
1381
0
0
1869
1849
2308
2194
2430
2134
2515
2283
2613
2295
2605
2330
2651
2421
2682
2299
2686
2377
2518
2319
2613
2393
2685
2394
2740
2401
2656
2509
2699
2510
2749
2352
2750
2452
2661
2438
2693
2449
2746
2409
2668
2425
2586
2375
2660
2340
2666
2346
2625
2365
2632
2308
2566
2367
2490
2324
2549
2313
2569
2181
2525
2191
2557
2189
2583
2300
2546
2246
2546
2165
2449
2234
2361
2141
2438
2107
2428
2093
2423
2138
2411
2179
2443
2160
2337
2039
2251
2034
2173
1961
2269
2007
2253
1890
2245
2040
2245
1968
2236
1915
2091
1819
1909
1641
1854
1254
0
0
2062
2061
2490
2282
2654
2286
2783
2474
2812
2532
2856
2506
2851
2581
2942
2690
2949
2575
2881
2621
2942
2633
3029
2673
3034
2702
3077
2833
3095
2763
3154
2750
3121
2786
3048
2826
3126
2811
3149
2774
3020
2798
3036
2781
3001
2837
3090
2805
3108
2770
3004
2755
3132
2766
3042
2810
2998
2715
3037
2601
3014
2698
3029
2692
3022
2723
2984
2640
3020
2630
2914
2683
2961
2656
3053
2610
2940
2606
2957
2610
2951
2594
2846
2614
2870
2562
2805
2481
2674
2470
2714
2438
2725
2540
2734
2500
2709
2487
2795
2411
2635
2377
2505
2111
2417
1808
0
0
2052
2068
2532
2323
2627
2329
2743
2501
2785
2452
2789
2593
2809
2534
2885
2545
2955
2608
2806
2562
2856
2545
2822
2562
2924
2653
2940
2714
2957
2622
2865
2668
2895
2601
2921
2602
2856
2542
2946
2587
2790
2578
2791
2514
2871
2552
2769
2578
2818
2493
2817
2589
2736
2504
2788
2592
2822
2414
2670
2353
2725
2448
2725
2429
2633
2365
2701
2429
2650
2350
2617
2338
2522
2229
2557
2328
2557
2235
2483
2314
2518
2333
2572
2277
2532
2238
2442
2050
2352
2224
2355
2133
2390
2076
2189
1944
2266
2002
2278
2018
2231
1988
2205
1862
2010
1356
0
0
1701
1778
2178
1989
2348
2122
2539
2122
2469
2120
2477
2203
2542
2198
2587
2270
2550
2241
2493
2294
2612
2242
2551
2316
2562
2362
2698
2409
2642
2300
2651
2267
2709
2332
2597
2345
2548
2262
2686
2326
2502
2282
2569
2229
2650
2312
2608
2294
2574
2212
2626
2324
2601
2242
2511
2274
2545
2133
2506
2162
2532
2184
2463
2121
2421
2145
2499
2178
2372
2126
2396
2154
2344
2024
2336
2053
2341
2008
2277
2016
2374
2068
2374
1962
2262
1886
2106
1807
2063
1888
2068
1771
2194
1881
2022
1789
2113
1700
2103
1806
2044
1726
2025
1677
1789
1233
0
0
1165
1212
1579
1424
1714
1509
1914
1506
1862
1580
1825
1501
1896
1646
1964
1680
1979
1590
2020
1694
2043
1668
1956
1746
2096
1801
2095
1809
2148
1835
2084
1722
2125
1709
2034
1751
2047
1693
2210
1813
2006
1818
2048
1754
2005
1729
1978
1706
2095
1758
1955
1706
1985
1734
1994
1716
1974
1636
1994
1599
1984
1683
1858
1650
1844
1597
1841
1604
1796
1577
1895
1589
1853
1590
1846
1602
1787
1445
1668
1394
1749
1442
1761
1472
1716
1387
1589
1217
1538
1309
1559
1235
1625
1333
1512
1289
1606
1211
1604
1385
1482
1275
1540
1151
1330
763
0
0
0
0
0
0
0
0
0
0
0
0
0
0
0
0
0
0
0
0
0
0
0
0
0
0
0
0
0
0
0
0
0
0
0
0
0
0
0
0
0
0
0
0
0
0
0
0
0
0
0
0
0
0
0
0
0
0
0
0
0
0
0
0
0
0
0
0
0
0
0
0
0
0
0
0
0
0
0
0
0
0
0
0
0
0
0
0
0
0
0
0
0
0
0
0
0
0
0
0
0
0
0
0
0
0
0
0
0
