P2
108 88
4095
0
0
0
0
0
0
0
0
0
0
0
0
0
0
0
0
0
0
0
0
0
0
0
0
0
0
0
0
0
0
0
0
0
0
0
0
0
0
0
0
0
0
0
0
0
0
0
0
0
0
0
0
0
0
0
0
0
0
0
0
0
0
0
0
0
0
0
0
0
0
0
0
0
0
0
0
0
0
0
0
0
0
0
0
0
0
0
0
0
0
0
0
0
0
0
0
0
0
0
0
0
0
0
0
0
0
0
0
0
981
866
1210
869
1258
949
1306
1060
1457
1214
1412
1143
1566
1356
1641
1348
1673
1365
1580
1285
1499
1322
1640
1342
1577
1370
1559
1322
1657
1331
1661
1277
1659
1242
1596
1294
1562
1252
1605
1246
1672
1364
1623
1361
1658
1401
1632
1470
1750
1403
1716
1380
1674
1261
1637
1409
1594
1329
1674
1330
1609
1208
1413
1101
1468
1106
1373
1077
1382
1109
1397
1181
1421
1176
1418
1150
1355
1001
1378
1050
1384
1123
1565
1242
1587
1362
1654
1509
1825
1498
1826
1555
1830
1584
1896
1511
1821
1520
1918
1467
1719
1453
1657
1401
1499
973
0
0
799
812
1085
737
1179
813
1234
1045
1366
1188
1402
1091
1396
1138
1522
1205
1449
1178
1430
1114
1403
1128
1508
1151
1448
1192
1470
1145
1476
1210
1517
1198
1570
1197
1626
1259
1490
1269
1485
1285
1642
1401
1611
1364
1594
1403
1675
1543
1860
1474
1802
1463
1688
1382
1621
1428
1658
1403
1714
1336
1627
1217
1476
1173
1433
1061
1259
981
1297
950
1253
1047
1293
1046
1304
993
1181
913
1221
940
1258
1030
1333
977
1374
1218
1444
1366
1669
1506
1847
1555
1882
1593
1826
1598
1909
1541
1986
1641
1834
1484
1742
1380
1479
1013
0
0
1117
1044
1474
1077
1506
1210
1663
1398
1837
1585
1771
1420
1747
1399
1705
1438
1789
1483
1786
1469
1766
1491
1878
1549
1849
1581
1844
1577
1861
1746
2121
1762
2178
1834
2266
1859
2093
1821
2096
1889
2213
1890
2185
1909
2244
1993
2268
2053
2397
2075
2408
2091
2415
1954
2336
2030
2202
2020
2386
1956
2310
1908
2229
1814
2184
1678
1882
1546
1835
1464
1844
1574
1911
1622
1879
1587
1777
1422
1757
1430
1743
1457
1817
1503
1897
1636
1890
1823
2203
1990
2450
2026
2347
2155
2466
2164
2536
2171
2596
2262
2549
2100
2474
2058
2228
1672
0
0
1570
1518
1888
1641
1979
1647
2066
1785
2063
1773
1929
1629
1956
1653
1895
1706
1942
1651
1914
1685
2026
1764
2043
1877
1950
1835
2041
1867
2162
1935
2341
2030
2414
2101
2440
2248
2394
2045
2370
2089
2434
2117
2342
2014
2305
1963
2222
2009
2395
2130
2369
1954
2210
2004
2278
2162
2362
2011
2334
2081
2282
1968
2182
1924
2161
1802
2029
1610
1815
1538
1773
1645
1919
1709
1781
1529
1805
1369
1553
1410
1648
1429
1670
1333
1643
1374
1645
1532
1924
1708
2197
1894
2340
1996
2371
2111
2394
2085
2564
2117
2443
2066
2380
2055
2110
1514
0
0
1433
1371
1747
1437
1842
1413
1964
1562
1770
1483
1725
1475
1765
1361
1723
1435
1757
1492
1768
1520
1890
1518
1894
1706
1883
1681
1981
1897
2172
1957
2282
1963
2382
2165
2278
1865
2177
1867
2139
1828
2193
1826
2090
1734
2058
1690
2026
1674
2165
1739
1998
1649
1942
1718
2064
1828
2162
1701
2037
1810
2107
1781
2061
1778
2167
1758
1963
1590
1898
1456
1809
1621
1914
1577
1789
1497
1723
1242
1529
1285
1530
1197
1458
1168
1533
1235
1533
1277
1683
1423
1945
1660
2059
1852
2226
1973
2190
1992
2367
1953
2352
1975
2214
1901
2033
1387
0
0
1160
1049
1309
1110
1361
1026
1453
1077
1360
1158
1329
983
1390
1077
1341
1139
1415
1177
1501
1266
1602
1394
1714
1453
1698
1508
1826
1564
1923
1623
1946
1582
2043
1579
1910
1500
1675
1389
1743
1340
1694
1334
1643
1291
1634
1300
1610
1274
1716
1271
1605
1238
1469
1156
1590
1386
1646
1239
1590
1421
1594
1321
1554
1322
1674
1353
1627
1339
1580
1322
1554
1394
1599
1325
1621
1245
1501
1161
1187
1026
1371
981
1110
885
1193
923
1130
1051
1333
1050
1547
1357
1694
1556
1819
1627
1958
1658
2090
1618
2053
1709
1993
1699
1661
1092
0
0
1299
1128
1501
1202
1627
1217
1703
1275
1615
1450
1651
1338
1789
1386
1747
1554
1885
1642
2037
1751
2117
1883
2205
1938
2206
1975
2309
2023
2289
2036
2330
1898
2289
1977
2261
1829
2007
1659
2130
1726
2081
1713
2001
1744
2041
1741
2018
1673
2011
1829
2031
1680
1946
1620
1914
1785
2077
1691
1943
1782
2030
1690
2000
1659
1997
1793
2035
1673
2042
1663
1994
1771
2122
1837
2054
1869
2155
1749
1927
1722
1985
1614
1886
1538
1954
1499
1868
1603
1930
1605
2101
1817
2291
1962
2401
2220
2522
2218
2641
2261
2660
2273
2553
2178
2250
1621
0
0
1450
1381
1765
1515
1769
1559
1897
1533
2004
1738
2039
1713
1956
1746
2106
1809
2198
1975
2293
1930
2173
2085
2410
1943
2316
1949
2261
1934
2245
1970
2325
2028
2278
1986
2141
1851
2155
1858
2041
1809
2065
1826
2130
1739
1985
1687
2061
1787
1975
1730
1922
1589
1871
1675
1928
1698
1965
1660
1890
1569
1865
1606
1862
1565
1943
1525
1812
1491
1834
1435
1848
1553
1837
1560
1807
1698
1878
1606
1809
1528
1987
1531
1736
1485
1769
1508
1893
1613
1797
1534
1806
1702
2031
1858
2164
1921
2308
2033
2365
2104
2347
2100
2200
1943
2122
1531
0
0
1279
1124
1556
1226
1643
1361
1769
1381
1774
1621
1890
1570
1925
1705
2045
1677
2002
1706
2031
1653
1925
1774
2105
1702
2078
1677
1989
1637
1984
1721
2046
1726
2058
1634
1957
1529
1972
1585
1910
1557
1869
1540
1935
1505
1867
1651
1913
1669
1813
1550
1738
1481
1819
1499
1763
1495
1789
1494
1733
1403
1786
1494
1702
1401
1799
1485
1733
1285
1674
1270
1628
1399
1541
1314
1565
1402
1581
1315
1590
1348
1762
1421
1722
1434
1714
1494
1869
1590
1710
1582
1731
1570
1898
1684
2034
1701
2205
2021
2123
1909
2249
1895
2061
1729
1947
1393
0
0
1050
914
1297
1025
1386
1227
1556
1291
1680
1422
1645
1363
1537
1323
1571
1305
1617
1309
1605
1265
1559
1398
1707
1373
1733
1456
1663
1277
1579
1381
1656
1477
1736
1438
1589
1339
1633
1408
1592
1388
1634
1298
1695
1382
1687
1506
1802
1517
1762
1551
1675
1361
1540
1365
1674
1346
1668
1386
1577
1275
1612
1323
1563
1236
1522
1236
1461
1130
1414
1077
1469
1141
1314
1061
1314
1138
1317
1050
1335
1060
1443
1117
1435
1189
1520
1332
1684
1450
1711
1432
1595
1373
1732
1476
1815
1588
1914
1719
1925
1674
1970
1643
1846
1493
1770
1115
0
0
1369
1233
1613
1298
1764
1453
1876
1499
1978
1610
1978
1616
1840
1482
1878
1515
1838
1551
1857
1512
1914
1678
2082
1622
2077
1716
2024
1627
2022
1763
2180
1840
2168
1767
2050
1783
2119
1903
2235
1897
2154
1785
2211
1875
2338
2134
2439
2160
2376
2130
2372
1993
2275
1905
2322
1866
2228
1946
2177
1851
2260
1943
2216
1805
2222
1733
2087
1700
2006
1640
1993
1659
1879
1620
1858
1547
1820
1585
1795
1506
1907
1625
1941
1594
2025
1810
2191
1958
2199
1956
2220
1989
2293
2025
2320
1997
2440
2266
2455
2192
2481
2172
2520
2081
2379
1770
0
0
1597
1549
1978
1604
1902
1637
1941
1573
1906
1661
2015
1690
1930
1693
1919
1557
1899
1641
2051
1738
1869
1737
2069
1798
1981
1760
2085
1834
2134
2002
2325
2021
2241
1973
2191
1957
2270
2048
2317
2045
2269
2040
2283
1957
2333
2180
2544
2261
2574
2182
2412
2113
2327
2122
2281
2053
2337
2028
2327
2014
2274
1973
2229
1833
2142
1766
1934
1644
1914
1524
1748
1529
1812
1439
1734
1416
1750
1360
1593
1369
1645
1371
1741
1310
1763
1490
1808
1662
1903
1611
1876
1659
1919
1589
2061
1666
2090
1878
2118
1927
2231
2013
2265
1975
1941
1501
0
0
1474
1353
1720
1389
1678
1389
1689
1352
1717
1394
1780
1490
1720
1508
1801
1487
1785
1578
1867
1537
1823
1636
1977
1669
1921
1638
1943
1714
2057
1869
2262
1970
2250
1984
2260
1974
2257
2063
2421
2026
2216
1969
2223
1867
2263
2075
2397
2055
2446
1994
2299
2018
2303
2043
2350
2000
2339
2022
2271
1979
2235
1954
2197
1851
2124
1819
2035
1647
1805
1373
1707
1370
1813
1493
1668
1307
1584
1225
1527
1303
1565
1307
1521
1213
1599
1269
1594
1383
1717
1402
1729
1397
1522
1430
1754
1465
1899
1681
1981
1732
2067
1922
2109
1782
1877
1329
0
0
1185
1048
1403
1041
1371
1021
1284
1001
1381
1086
1442
1217
1446
1227
1553
1163
1487
1328
1634
1416
1595
1363
1686
1491
1717
1397
1719
1597
1832
1746
2071
1823
2041
1836
2128
1803
2078
1800
2098
1681
1899
1533
1856
1509
1898
1610
1918
1610
2053
1634
1970
1701
1878
1699
1864
1655
2055
1671
2000
1673
1821
1621
1871
1679
1861
1605
1825
1491
1705
1301
1570
1333
1642
1181
1573
1227
1413
1114
1397
1082
1307
1057
1398
933
1293
1096
1231
1154
1397
1101
1337
1031
1283
1071
1391
1076
1531
1295
1589
1421
1770
1548
1879
1527
1674
1122
0
0
1308
1097
1550
1229
1565
1189
1604
1260
1658
1398
1837
1444
1762
1467
1842
1512
1930
1692
2107
1809
2059
1847
2166
1865
2148
1836
2228
2038
2269
2146
2514
2230
2478
2146
2388
2029
2327
2094
2310
1876
2168
1897
2106
1845
2109
1854
2190
1888
2289
1877
2186
1862
2201
1978
2233
1954
2327
2042
2267
1858
2186
1922
2236
1851
2266
1958
2381
2018
2319
1905
2219
1938
2317
1902
2260
1898
2132
1781
1981
1604
1967
1638
1932
1485
1921
1549
1813
1669
2045
1639
1969
1542
1834
1458
1914
1554
1885
1730
2050
1893
2362
2005
2372
2020
2214
1644
0
0
1520
1420
1759
1466
1654
1464
1789
1605
1918
1642
1966
1746
1954
1645
2116
1918
2170
1940
2212
2059
2341
1966
2312
2020
2296
1946
2176
1995
2301
2067
2409
2157
2348
2162
2297
1981
2227
1908
2098
1783
2188
1787
1994
1692
2024
1684
2039
1758
2034
1742
2015
1720
1957
1746
1933
1685
1915
1687
1977
1757
1938
1621
1934
1731
1969
1746
2056
1780
1954
1700
2020
1729
2043
1908
2129
1782
1965
1780
1946
1613
1795
1481
1679
1445
1712
1380
1669
1461
1728
1472
1723
1377
1673
1390
1670
1384
1649
1342
1661
1467
1832
1643
1891
1693
1941
1403
0
0
1395
1281
1602
1314
1576
1324
1749
1509
1938
1693
2054
1556
1871
1705
2097
1805
2109
1749
2097
1890
2184
1839
2162
1794
2132
1783
2059
1755
2058
1901
2275
1999
2354
1999
2139
1749
2116
1691
1910
1692
1995
1695
1938
1678
1961
1654
1926
1723
2042
1668
1929
1618
1902
1674
1813
1643
1801
1630
1865
1552
1866
1454
1805
1517
1906
1565
1927
1629
1755
1444
1828
1509
1901
1638
1906
1706
1963
1658
1881
1599
1850
1498
1738
1498
1781
1483
1696
1348
1704
1444
1715
1412
1795
1427
1734
1365
1685
1265
1429
1218
1620
1316
1558
1435
1803
1206
0
0
1043
995
1339
1042
1313
1078
1458
1293
1733
1374
1669
1323
1528
1314
1632
1347
1701
1403
1673
1452
1755
1357
1726
1402
1720
1411
1618
1417
1610
1499
1872
1561
1947
1530
1817
1446
1750
1364
1611
1454
1707
1394
1626
1313
1630
1477
1736
1472
1741
1358
1590
1282
1538
1302
1570
1290
1511
1380
1581
1322
1494
1225
1514
1253
1520
1261
1575
1234
1466
1219
1485
1172
1498
1275
1515
1301
1545
1322
1545
1229
1483
1211
1423
1259
1534
1256
1531
1194
1492
1266
1552
1264
1617
1266
1544
1124
1290
950
1186
841
1136
1001
1091
1025
1378
893
0
0
1362
1306
1609
1390
1657
1337
1812
1621
2068
1668
1947
1549
1814
1480
1850
1577
1876
1581
1871
1658
2081
1642
2045
1754
2082
1738
1990
1788
2034
1706
2191
1826
2213
1842
2090
1842
2133
1750
2168
1858
2217
1906
2211
1825
2186
1879
2322
2022
2277
1834
2149
1831
2156
1814
2077
1773
2009
1749
2045
1811
2085
1744
2015
1732
2065
1754
2090
1729
1973
1620
1985
1719
1995
1686
2032
1722
1994
1682
1970
1623
1970
1609
1972
1741
2022
1869
2144
1764
2162
1862
2318
1951
2245
1941
2058
1653
1810
1522
1731
1450
1739
1431
1685
1563
1907
1360
0
0
1590
1636
2010
1689
1965
1601
2035
1817
2197
1869
2078
1631
2023
1553
1964
1672
2017
1741
2062
1745
1957
1781
2139
1776
2058
1802
2094
1770
2118
1843
2130
1815
2254
1956
2192
1865
2225
2050
2242
1981
2209
1885
2125
1888
2190
1993
2307
1991
2314
1978
2157
1937
2036
1754
2066
1726
1998
1766
2063
1742
2009
1717
1910
1698
1924
1698
1991
1595
1893
1650
1832
1592
1909
1563
1758
1506
1684
1417
1616
1325
1691
1366
1634
1455
1725
1428
1753
1574
1961
1759
2000
1813
2041
1765
1944
1412
1658
1349
1506
1315
1499
1180
1386
1218
1546
1193
0
0
1578
1578
1867
1540
1818
1429
1869
1661
2037
1635
1898
1431
1789
1410
1786
1453
1803
1533
1770
1563
1817
1645
1975
1675
1954
1705
2012
1720
1978
1753
2103
1849
2193
1949
2239
1953
2357
2018
2322
2019
2261
1834
2157
1840
2160
1958
2270
2045
2352
2005
2218
1914
2099
1752
2107
1700
2056
1680
2100
1729
1986
1779
1941
1714
2042
1818
2107
1622
1947
1578
1821
1620
1883
1469
1762
1373
1645
1305
1531
1234
1612
1214
1491
1268
1509
1214
1565
1341
1690
1514
1897
1619
1893
1598
1810
1306
1583
1237
1439
1189
1433
1186
1403
1202
1451
1005
0
0
1093
1035
1408
1141
1328
961
1420
1172
1573
1207
1499
1045
1478
1074
1365
1218
1460
1198
1546
1266
1528
1334
1670
1390
1721
1485
1837
1535
1860
1641
1989
1685
2117
1693
1961
1774
2046
1826
2033
1642
1891
1572
1885
1678
1933
1749
2114
1892
2158
1819
2093
1835
1930
1680
1946
1658
1898
1556
1856
1557
1915
1613
1800
1594
1986
1625
1884
1502
1730
1436
1702
1500
1615
1333
1606
1165
1408
1103
1325
982
1410
980
1261
1009
1217
948
1304
998
1275
1066
1532
1284
1620
1274
1453
1069
1362
1004
1241
1046
1301
1018
1307
1016
1140
709
0
0
1277
1226
1626
1315
1667
1289
1669
1426
1838
1447
1714
1327
1755
1430
1759
1428
1819
1614
1865
1526
1966
1741
2237
1945
2251
1924
2379
2000
2365
2141
2474
2158
2513
2095
2397
2062
2322
2054
2313
1965
2342
1970
2283
2089
2398
2202
2547
2197
2639
2292
2658
2274
2602
2216
2525
2255
2486
2103
2480
2094
2398
2155
2413
2167
2555
2276
2565
2091
2365
2039
2295
1974
2377
1997
2278
1829
2056
1722
1990
1680
1925
1542
1875
1565
1939
1510
1802
1529
1928
1621
1931
1668
1940
1721
1954
1676
1947
1588
2023
1689
2045
1568
1934
1609
1896
1391
0
0
1467
1448
1808
1492
1829
1541
1924
1597
1950
1574
1853
1597
1950
1723
1988
1660
2122
1824
2181
1981
2309
2037
2381
2083
2379
2158
2399
2261
2514
2277
2535
2286
2477
2102
2312
1979
2274
2005
2203
1889
2197
1895
2229
1989
2322
1993
2404
2129
2581
2258
2462
2078
2339
2148
2418
2086
2221
2019
2203
1919
2238
1947
2358
2138
2359
2095
2270
1878
2133
1759
2100
1928
2202
1957
2146
1810
2090
1773
1943
1721
1908
1585
1661
1423
1652
1397
1664
1430
1719
1317
1629
1360
1676
1421
1550
1419
1715
1510
1791
1585
1809
1539
1804
1561
1778
1178
0
0
1357
1259
1573
1163
1758
1290
1745
1421
1721
1326
1828
1397
1824
1642
2005
1668
2130
1806
2216
1917
2205
1867
2286
1841
2184
1882
2229
1949
2258
1945
2250
1933
2164
1834
1973
1703
2066
1674
2039
1755
2003
1693
1951
1684
2038
1738
2118
1764
2314
2015
2226
1809
2095
1771
2053
1706
1914
1730
1940
1650
1950
1673
2021
1798
2085
1835
1994
1616
1894
1514
1915
1697
1970
1736
2085
1645
1909
1715
2007
1675
1858
1546
1782
1438
1617
1354
1535
1356
1586
1154
1501
1248
1424
1155
1358
1142
1633
1389
1650
1442
1713
1369
1595
1477
1673
1046
0
0
1118
1015
1393
1039
1394
1194
1533
1365
1684
1264
1675
1307
1644
1450
1807
1497
1878
1595
1915
1634
1890
1526
1860
1507
1769
1542
1669
1538
1893
1614
1913
1607
1800
1505
1642
1454
1707
1517
1700
1352
1722
1414
1659
1378
1706
1418
1723
1480
1922
1625
1807
1453
1723
1486
1718
1312
1587
1339
1558
1332
1602
1357
1581
1367
1769
1421
1602
1278
1528
1206
1550
1282
1549
1377
1645
1313
1634
1425
1607
1449
1711
1385
1574
1329
1417
1242
1441
1305
1398
1040
1233
1069
1243
948
1102
955
1317
1003
1356
1141
1346
1172
1419
1197
1465
816
0
0
1475
1393
1737
1370
1861
1522
1960
1769
2075
1684
2148
1669
2022
1802
2196
1755
2219
1891
2248
1893
2106
1763
2097
1742
2027
1818
2035
1910
2112
1864
2193
1906
2152
1903
2168
1813
2202
1849
2042
1824
2156
1738
2122
1922
2141
1861
2225
1870
2446
2097
2238
1930
2222
1944
2171
1742
2109
1815
2028
1834
2101
1739
2068
1893
2132
1854
2101
1722
2053
1725
2054
1670
2043
1717
2155
1728
2029
1783
2129
1908
2267
1915
2250
1961
2221
1975
2136
1995
2262
1729
1933
1597
1832
1530
1682
1462
1833
1441
1818
1554
1877
1620
1974
1718
2045
1337
0
0
1765
1777
2032
1640
1986
1849
2114
1914
2203
1899
2128
1757
2089
1783
2061
1846
2034
1806
2073
1812
2035
1795
2061
1787
2074
1866
2117
1841
2174
1914
2241
1842
2210
1826
2230
1885
2130
1860
2070
1825
2103
1730
2086
1717
1989
1841
2107
1883
2300
2043
2267
1947
1973
1827
2012
1676
1925
1674
1802
1705
1938
1653
1875
1665
1923
1672
1954
1626
1795
1570
1780
1499
1709
1495
1845
1508
1672
1402
1749
1539
1825
1598
1945
1651
1937
1719
2093
1821
2069
1673
1683
1339
1544
1245
1578
1277
1489
1213
1602
1263
1485
1237
1529
1306
1505
1107
0
0
1655
1626
1948
1573
1910
1637
1985
1721
2073
1578
1846
1427
1841
1466
1814
1541
1861
1661
1883
1620
1893
1539
1951
1629
1875
1672
2006
1666
2002
1693
2005
1725
1993
1724
2055
1706
2070
1617
1988
1693
2006
1636
1954
1637
1906
1807
1979
1836
2287
2020
2230
1925
2087
1754
1908
1619
1866
1590
1779
1586
1905
1694
1814
1418
1852
1539
1850
1457
1694
1428
1701
1426
1594
1389
1675
1370
1604
1350
1555
1357
1702
1383
1643
1419
1698
1521
1898
1669
1969
1652
1674
1318
1541
1205
1530
1143
1475
1019
1428
1061
1334
1114
1340
1061
1322
837
0
0
1475
1394
1645
1225
1488
1265
1509
1193
1558
1242
1389
1173
1570
1169
1475
1229
1495
1218
1509
1341
1590
1293
1739
1458
1673
1494
1772
1501
1773
1434
1764
1456
1789
1454
1783
1469
1770
1394
1757
1493
1757
1483
1798
1505
1765
1508
1815
1680
2121
1828
2025
1746
1929
1687
1857
1558
1722
1386
1725
1449
1720
1510
1658
1370
1721
1329
1659
1312
1434
1267
1476
1133
1400
1237
1492
1221
1365
1095
1355
1114
1339
1045
1419
1122
1437
1259
1668
1372
1818
1447
1572
1173
1360
1081
1292
1010
1261
886
1291
898
1138
887
1115
698
970
538
0
0
1604
1462
1749
1308
1604
1379
1723
1450
1738
1442
1709
1416
1773
1422
1729
1529
1876
1527
1922
1576
1932
1675
2010
1845
2102
1863
2260
1930
2210
1885
2314
1966
2210
1909
2276
1880
2268
1944
2262
1993
2409
2042
2418
2066
2334
2103
2413
2266
2683
2482
2650
2348
2642
2282
2546
2165
2439
2077
2210
2121
2325
2169
2356
1989
2347
1982
2305
1879
2069
1795
2042
1758
2029
1798
2130
1800
1972
1659
1950
1627
1918
1601
1946
1659
1915
1654
2098
1922
2358
2031
2212
1845
2142
1832
1996
1627
1825
1571
1865
1483
1693
1465
1681
1302
1581
1110
0
0
1738
1537
1837
1512
1757
1460
1834
1579
1809
1668
1842
1565
1942
1578
1941
1613
1869
1608
1970
1819
2045
1832
2139
1959
2243
2056
2394
2129
2431
2106
2295
2140
2488
2020
2453
2123
2385
1976
2286
1985
2438
2248
2418
2045
2424
2117
2541
2358
2668
2411
2646
2376
2590
2290
2549
2204
2503
2091
2301
2129
2269
2071
2257
2026
2285
2020
2261
1881
2125
1671
1930
1629
2068
1737
2034
1680
1940
1570
1688
1459
1723
1425
1713
1448
1612
1402
1738
1654
1967
1744
1966
1725
2005
1682
1780
1435
1677
1437
1691
1316
1492
1098
1451
1133
1341
809
0
0
1598
1349
1741
1322
1642
1378
1706
1476
1722
1494
1797
1480
1835
1561
1803
1482
1894
1597
1979
1797
2063
1779
2120
1875
2276
2025
2337
2086
2362
2134
2390
2130
2553
2134
2409
2138
2309
1956
2241
1988
2302
2074
2365
1947
2261
2026
2463
2223
2581
2373
2651
2325
2570
2258
2513
2164
2539
2117
2295
2026
2166
1926
2103
1902
2260
1941
2222
1866
2172
1790
2022
1724
2137
1818
2070
1775
2018
1754
1994
1589
1837
1559
1689
1275
1602
1330
1670
1538
1774
1530
1896
1650
1887
1656
1930
1540
1803
1485
1739
1274
1486
1076
1309
1117
1205
777
0
0
1117
1065
1251
1011
1402
1058
1374
1157
1371
1114
1426
1141
1523
1221
1531
1318
1550
1323
1732
1493
1733
1522
1851
1582
1845
1623
1918
1732
1946
1659
1967
1694
2045
1768
2005
1687
1910
1534
1801
1540
1811
1554
1955
1510
1747
1578
2087
1885
2254
1958
2189
1889
2205
1915
2029
1698
2004
1689
1946
1609
1780
1457
1685
1531
1781
1509
1686
1413
1719
1323
1668
1417
1856
1499
1800
1586
1904
1543
1784
1515
1764
1335
1404
1109
1314
1066
1362
1238
1346
1065
1368
1191
1549
1363
1653
1415
1646
1316
1513
1014
1158
918
1067
843
954
526
0
0
1365
1126
1557
1196
1635
1308
1681
1391
1728
1418
1762
1373
1869
1546
1972
1597
1924
1621
2106
1883
2123
1769
2173
1846
2108
1881
2182
1860
2232
1906
2163
1962
2237
1932
2218
1989
2164
1824
2125
1837
2201
1950
2146
1853
2209
2015
2512
2253
2599
2211
2573
2204
2466
2054
2402
2034
2365
2016
2280
1922
2134
1839
2168
1844
2260
1855
2131
1791
2130
1748
2041
1800
2255
1945
2357
2077
2388
2110
2461
2093
2354
1860
1996
1651
1861
1572
1969
1634
1821
1546
1909
1602
2004
1741
2134
1917
2305
1941
2201
1637
1851
1439
1729
1414
1653
1131
0
0
1511
1414
1714
1449
1858
1520
1877
1573
1941
1717
1914
1663
1995
1765
2135
1733
2103
1703
2192
1825
2182
1868
2075
1861
2078
1841
2151
1842
2089
1925
2089
1890
2099
1766
2176
1846
2146
1870
2093
1864
2143
1804
2074
1834
2181
1938
2377
2198
2336
2082
2173
1873
2142
1778
2151
1767
2078
1716
1971
1749
1969
1570
1896
1584
1836
1684
1882
1595
1815
1578
1790
1556
1725
1570
2037
1765
2125
1837
2085
1966
2177
1716
1770
1430
1602
1262
1604
1403
1581
1398
1604
1374
1586
1405
1764
1624
1946
1689
1997
1459
1648
1298
1510
1325
1518
964
0
0
1396
1236
1637
1434
1733
1365
1853
1450
1933
1629
1826
1542
1819
1643
1954
1522
2005
1642
1925
1662
2011
1672
1995
1737
1994
1688
1989
1737
1968
1706
2041
1797
1976
1719
1978
1655
2041
1724
1986
1710
2053
1698
2061
1716
2106
1853
2194
2004
2229
1890
2042
1645
1947
1660
2042
1649
1851
1615
1874
1523
1762
1402
1758
1499
1810
1583
1780
1590
1765
1442
1645
1478
1617
1387
1796
1517
1855
1550
1816
1667
2008
1551
1762
1442
1550
1320
1597
1301
1540
1178
1480
1261
1477
1226
1559
1374
1756
1608
1840
1395
1619
1243
1443
1370
1536
987
0
0
1059
993
1371
1179
1425
1163
1520
1205
1597
1321
1427
1165
1448
1182
1552
1146
1602
1262
1597
1396
1604
1370
1626
1392
1620
1362
1693
1351
1693
1517
1686
1454
1708
1419
1758
1435
1678
1429
1749
1322
1733
1362
1742
1352
1738
1510
1862
1658
1826
1501
1694
1380
1621
1385
1717
1338
1540
1299
1650
1265
1521
1190
1509
1201
1520
1306
1559
1300
1378
1064
1462
1200
1412
1153
1409
1111
1432
1186
1425
1249
1505
1201
1445
1230
1425
1072
1382
1189
1246
1051
1202
906
1233
1028
1157
963
1425
1122
1502
1160
1391
1081
1288
1135
1335
754
0
0
1399
1267
1653
1421
1773
1442
1789
1481
1847
1480
1794
1453
1777
1495
1944
1562
1973
1578
1995
1681
2013
1737
2081
1850
2111
1756
2178
1762
2108
1941
2157
1829
2148
1847
2156
1810
2165
1906
2186
1858
2154
1872
2260
1878
2314
2048
2519
2146
2382
1918
2251
1833
2193
1941
2216
1997
2262
1909
2302
1962
2229
1782
2098
1762
2041
1759
2068
1744
1954
1724
1894
1678
1882
1685
1978
1685
2014
1618
1930
1672
1941
1642
2101
1860
2127
1743
2129
1832
1982
1636
1826
1448
1795
1445
1768
1482
1784
1570
1950
1483
1878
1644
1918
1718
1985
1391
0
0
1707
1576
2035
1611
1982
1693
1970
1682
1844
1682
1979
1703
1960
1747
1993
1744
2035
1917
2134
1930
2212
2037
2347
1990
2323
1928
2257
1963
2245
2029
2317
2034
2201
1902
2193
2008
2327
1981
2286
1956
2333
2011
2330
2185
2478
2326
2596
2289
2370
2017
2265
2016
2283
2057
2310
2070
2374
2048
2397
2070
2145
1838
1993
1772
1988
1653
1955
1609
1845
1674
1826
1593
1844
1546
1788
1518
1742
1403
1713
1350
1723
1393
1845
1742
2071
1852
2098
1804
1970
1480
1626
1407
1755
1331
1579
1306
1765
1350
1517
1281
1525
1370
1637
1427
1702
1160
0
0
1637
1446
1917
1443
1862
1508
1945
1605
1869
1589
1894
1481
1862
1620
1869
1508
2010
1789
2122
1909
2245
1934
2294
1879
2303
1930
2235
1932
2221
1929
2312
2049
2169
1937
2181
1877
2245
1938
2269
1958
2254
2079
2446
2192
2496
2282
2582
2185
2452
2030
2265
1992
2250
2039
2357
2148
2469
2128
2525
2126
2246
1897
2075
1710
1972
1621
1910
1514
1810
1508
1701
1422
1782
1382
1706
1335
1650
1289
1578
1235
1618
1355
1806
1724
2102
1866
2172
1832
2056
1357
1611
1359
1549
1220
1419
1163
1503
1205
1365
1106
1333
1156
1451
1175
1429
820
0
0
1202
1100
1597
1260
1571
1315
1686
1349
1622
1339
1608
1258
1576
1386
1738
1349
1714
1586
1806
1598
1802
1634
1902
1530
1919
1613
1842
1658
2029
1804
2076
1872
1993
1626
1908
1629
1995
1739
2049
1765
2069
1893
2189
2015
2346
2154
2350
2061
2250
1962
2101
1874
2092
1875
2101
1925
2209
1925
2225
1909
2013
1717
1896
1586
1790
1450
1701
1309
1612
1345
1560
1301
1645
1151
1412
1113
1422
1075
1349
1099
1447
1194
1718
1565
1931
1722
2042
1637
1741
1201
1382
1130
1354
1082
1150
995
1202
864
1173
877
1160
869
1106
781
1038
580
0
0
1387
1304
1734
1346
1862
1562
1876
1672
1959
1658
2020
1618
1974
1666
2026
1739
2092
1818
2070
1879
2149
1862
2158
1808
2202
1862
2239
2021
2417
2103
2516
2205
2371
1963
2322
1940
2349
2103
2474
2085
2487
2134
2669
2491
2852
2701
2882
2604
2801
2347
2627
2282
2562
2295
2557
2347
2708
2459
2698
2341
2434
2106
2350
2037
2318
2043
2235
1932
2330
2054
2276
2034
2334
1902
2205
1738
2152
1686
1987
1682
2131
1865
2314
2165
2586
2325
2596
2218
2312
1923
2099
1737
2090
1723
1805
1606
1936
1507
1757
1407
1771
1450
1753
1338
1663
1013
0
0
1520
1485
1901
1526
1891
1658
2061
1779
2024
1719
1963
1602
2026
1751
2094
1750
2132
1796
2119
1802
2107
1841
2200
1800
2120
1897
2148
1913
2244
2033
2314
1983
2334
1898
2114
1917
2213
2022
2244
1944
2249
2035
2414
2338
2709
2561
2668
2294
2427
2015
2376
2059
2290
2027
2324
2123
2341
2199
2373
2057
2107
1853
1978
1721
2027
1754
1947
1723
2093
1828
2069
1853
2229
1841
2117
1726
2070
1666
1838
1585
1868
1680
2032
1852
2213
1997
2294
1943
2131
1669
2002
1672
1902
1581
1659
1451
1643
1382
1688
1320
1572
1330
1413
1172
1352
832
0
0
1424
1284
1659
1399
1703
1440
1721
1529
1762
1421
1718
1468
1850
1513
1931
1551
1967
1591
1945
1635
2026
1634
2024
1745
1998
1717
1957
1712
1992
1828
2037
1729
2034
1677
2052
1800
2043
1712
2065
1823
2002
1773
2178
2043
2506
2291
2462
2117
2201
1773
2062
1771
2023
1748
2033
1800
2043
1883
2098
1714
1765
1613
1808
1612
1837
1474
1766
1525
1855
1555
1919
1744
2089
1787
2164
1747
2153
1733
1758
1601
1747
1457
1738
1533
2021
1747
2131
1769
2002
1724
1873
1623
1880
1605
1774
1394
1637
1325
1741
1269
1681
1306
1424
1066
1261
697
0
0
1121
986
1383
1027
1327
1084
1462
1171
1408
1222
1478
1156
1517
1269
1566
1199
1622
1455
1754
1430
1737
1493
1778
1453
1646
1436
1759
1363
1710
1426
1773
1444
1751
1457
1722
1543
1797
1483
1660
1465
1723
1561
1938
1818
2230
1989
2197
1674
1795
1360
1782
1436
1668
1352
1650
1477
1723
1482
1630
1364
1537
1300
1602
1274
1524
1201
1450
1195
1477
1282
1514
1308
1654
1434
1842
1492
1860
1490
1557
1284
1506
1128
1501
1259
1528
1336
1584
1379
1735
1312
1694
1413
1709
1369
1549
1223
1339
1290
1574
1195
1454
1140
1249
842
1035
453
0
0
1353
1308
1625
1323
1675
1380
1722
1389
1794
1445
1837
1518
1861
1503
1944
1658
2073
1774
2165
1836
2171
1884
2218
1995
2148
1843
2171
1828
2123
1919
2118
1802
2162
1824
2123
1917
2259
1826
2205
1870
2221
2020
2370
2290
2762
2485
2658
2170
2278
1854
2240
1885
2171
1825
2138
1898
2165
1866
2206
1869
2085
1828
2031
1737
2124
1732
2028
1726
1956
1717
1994
1705
2141
1817
2293
2058
2379
2031
2123
1753
1992
1627
1998
1701
2092
1737
2075
1871
2157
1797
2146
1933
2306
1905
2090
1741
2019
1738
2256
1850
2120
1747
1770
1449
1642
1131
0
0
1450
1381
1843
1591
1854
1517
1839
1725
1954
1758
2005
1725
2013
1771
2098
1960
2153
1994
2237
2051
2262
1986
2220
1869
2199
1946
2139
1850
2098
1807
2197
1837
2079
1853
2139
1893
2162
1963
2312
1889
2172
1957
2452
2370
2646
2406
2574
2130
2165
1828
2053
1791
2037
1674
2083
1847
2071
1783
1947
1691
1899
1622
1847
1586
1921
1548
1795
1576
1835
1541
1782
1514
1737
1524
1902
1685
2032
1744
1897
1541
1693
1389
1742
1346
1717
1416
1633
1497
1813
1485
1758
1606
1966
1669
1858
1541
1788
1579
1813
1636
1890
1549
1611
1253
1381
872
0
0
1394
1256
1741
1406
1765
1562
1906
1658
2010
1687
1998
1726
1974
1749
1943
1867
2025
1860
2082
1840
2088
1757
2053
1669
2074
1750
2061
1754
2117
1838
2131
1717
2085
1777
2110
1789
2165
1885
2122
1838
2101
2000
2501
2338
2701
2390
2642
2219
2307
1842
2044
1718
1972
1658
2051
1940
2093
1734
1877
1514
1777
1501
1747
1459
1819
1562
1722
1439
1784
1513
1789
1422
1671
1423
1677
1510
1787
1525
1789
1444
1626
1353
1613
1288
1686
1342
1610
1363
1702
1370
1614
1389
1770
1537
1730
1403
1674
1554
1778
1581
1868
1553
1624
1268
1384
778
0
0
1109
1110
1445
1243
1637
1394
1704
1485
1762
1488
1680
1301
1618
1258
1627
1424
1713
1418
1653
1385
1723
1401
1722
1370
1667
1402
1722
1526
1874
1581
1907
1506
1771
1515
1846
1744
2004
1637
1886
1534
1859
1782
2237
2129
2467
2093
2457
2043
2107
1757
1845
1593
1714
1397
1930
1823
1956
1541
1635
1390
1637
1346
1547
1237
1658
1242
1453
1264
1497
1173
1541
1165
1447
1153
1427
1193
1561
1134
1579
1239
1458
1158
1358
1019
1398
1129
1365
1042
1435
1115
1346
1070
1426
1113
1298
1157
1437
1265
1525
1301
1620
1320
1521
1133
1227
531
0
0
1426
1411
1963
1666
2056
1738
1985
1668
1843
1578
1869
1473
1853
1491
1847
1627
2000
1694
1914
1695
2001
1746
2005
1706
2074
1861
2214
1990
2422
2007
2484
2082
2320
2007
2387
2212
2504
2101
2445
2043
2396
2327
2852
2685
2950
2637
2945
2486
2756
2282
2501
2092
2319
2025
2478
2373
2598
2186
2242
1938
2114
1860
2105
1842
2185
1817
2097
1709
2092
1664
2132
1803
1937
1642
1985
1656
2004
1597
2045
1777
2222
1766
1857
1613
1946
1655
1969
1626
1941
1617
1988
1605
1846
1558
1799
1675
2001
1705
2049
1820
2193
1987
2071
1581
1807
1141
0
0
1733
1776
2154
1965
2297
2024
2199
1776
1957
1709
1963
1622
1965
1737
2000
1714
2038
1877
2101
1874
2118
1929
2183
1877
2205
1967
2231
2053
2476
2188
2413
2104
2389
2079
2537
2253
2490
2071
2257
2062
2478
2401
2810
2664
2848
2664
2833
2458
2670
2278
2463
2037
2338
2084
2531
2330
2574
2154
2365
1885
2150
1827
2116
1973
2134
1810
2053
1700
1910
1555
1846
1541
1858
1520
1802
1565
1810
1585
1714
1686
1989
1781
1834
1448
1700
1481
1682
1403
1691
1421
1640
1382
1586
1237
1563
1298
1621
1345
1670
1578
1923
1733
1750
1419
1541
904
0
0
1668
1565
1994
1807
2090
1886
2110
1625
1909
1518
1877
1464
1893
1626
1989
1659
2000
1765
2002
1740
2114
1815
2178
1850
2260
2009
2221
2071
2408
2162
2324
1968
2197
1949
2435
2141
2357
1876
2089
1882
2431
2299
2680
2570
2808
2523
2726
2398
2620
2197
2391
1928
2285
2089
2462
2345
2537
2105
2327
1834
2138
1824
2206
1957
2200
1858
2027
1749
1970
1609
1972
1621
1942
1650
1865
1473
1653
1434
1709
1645
2085
1791
1972
1547
1765
1450
1650
1326
1629
1390
1627
1349
1469
1188
1476
1156
1595
1209
1546
1434
1851
1467
1602
1256
1397
755
0
0
1161
1182
1627
1435
1780
1513
1818
1346
1568
1297
1497
1178
1606
1328
1675
1421
1757
1462
1765
1570
1824
1668
1984
1563
1926
1658
1966
1653
1997
1777
1889
1529
1851
1604
2124
1809
1874
1550
1795
1525
1985
1892
2326
2157
2426
2188
2326
1945
2214
1746
1906
1584
1860
1641
2120
1914
2165
1747
1879
1436
1803
1582
1818
1593
1802
1626
1874
1593
1772
1361
1675
1449
1789
1470
1738
1261
1450
1207
1559
1501
1877
1650
1942
1474
1706
1323
1613
1285
1430
1090
1380
1079
1166
920
1226
919
1304
938
1230
1011
1333
1106
1301
1053
1108
548
0
0
1481
1335
1796
1438
1918
1626
1946
1503
1893
1593
1887
1493
1958
1730
2125
1833
2197
1958
2197
1874
2207
1910
2306
1897
2237
1910
2222
2008
2290
2013
2210
1882
2250
2021
2466
2160
2281
1874
2137
1853
2318
2165
2694
2509
2854
2530
2733
2346
2501
2042
2354
1932
2277
2020
2457
2245
2570
2065
2205
1778
2121
1930
2188
1874
2174
1925
2219
1914
2285
1890
2290
1958
2448
2106
2246
1810
2101
1847
2274
2111
2516
2202
2509
2240
2431
2123
2357
1929
2234
1762
2009
1611
1799
1420
1796
1443
1842
1491
1731
1459
1841
1540
1705
1431
1659
1085
0
0
1602
1514
1933
1763
2042
1691
1972
1764
2002
1704
2089
1711
1998
1802
2268
2018
2299
2031
2253
1867
2225
1981
2305
1997
2278
2042
2254
2045
2178
1942
2278
1963
2254
2068
2341
2020
2197
1929
2266
1973
2280
2109
2578
2441
2731
2382
2563
2153
2357
1924
2133
1932
2154
1985
2352
2138
2262
1876
2065
1707
1956
1761
1958
1666
1979
1686
1941
1722
1972
1696
2063
1867
2091
1853
2011
1676
1904
1772
2139
2026
2402
2096
2280
2147
2297
2005
2266
2040
2152
1840
1890
1609
1589
1445
1558
1265
1634
1338
1572
1296
1537
1282
1499
1158
1389
994
0
0
1470
1411
1642
1541
1835
1497
1835
1529
1783
1486
1813
1533
1870
1641
1970
1734
2013
1719
2024
1730
1959
1749
2163
1822
2107
1868
2047
1781
2032
1764
2065
1689
2093
1778
2102
1772
2044
1742
2159
1884
2106
1941
2458
2249
2553
2123
2294
1819
2097
1657
1893
1702
2035
1768
2100
1853
1993
1641
1898
1597
1914
1604
1803
1454
1837
1588
1745
1565
1798
1488
1786
1668
1918
1547
1771
1430
1652
1591
2088
1818
2233
1859
2082
1950
2194
1883
2169
1981
2122
1814
1961
1625
1617
1405
1515
1186
1502
1204
1364
1175
1466
1162
1354
978
1233
813
0
0
1128
1066
1387
1130
1449
1065
1521
1229
1428
1160
1440
1174
1486
1309
1658
1426
1594
1275
1655
1349
1517
1362
1748
1498
1770
1514
1717
1434
1736
1542
1712
1464
1682
1503
1765
1442
1722
1477
1751
1509
1819
1753
2111
1963
2250
1817
2013
1502
1733
1321
1672
1422
1745
1410
1762
1569
1738
1433
1608
1278
1585
1285
1492
1239
1585
1214
1492
1245
1361
1129
1512
1270
1483
1181
1331
1114
1452
1301
1740
1510
1830
1531
1676
1506
1797
1488
1802
1734
1874
1618
1754
1542
1548
1251
1262
1034
1333
977
1167
937
1206
881
1012
767
826
488
0
0
1431
1308
1682
1453
1774
1442
1828
1489
1785
1474
1844
1458
1798
1552
1958
1641
1940
1666
1962
1698
1984
1685
2111
1863
2130
1914
2089
1845
2184
1906
2225
1892
2161
1915
2202
1895
2108
1870
2276
1873
2381
2154
2660
2410
2686
2250
2547
1993
2235
1888
2074
1814
2181
1917
2276
2081
2359
1951
2123
1773
2014
1742
2097
1700
2086
1716
2025
1751
1902
1662
2019
1762
1970
1678
1961
1737
1971
1858
2217
1933
2278
1896
2091
1897
2270
1933
2202
2078
2420
2128
2380
2120
2235
1885
2133
1710
2009
1612
1742
1463
1741
1432
1774
1298
1535
1066
0
0
1741
1693
2084
1729
1889
1691
1984
1789
2065
1749
2018
1706
2015
1697
1975
1759
2098
1873
2170
1915
2132
1960
2308
1932
2202
1948
2310
2054
2298
2107
2338
2139
2306
2034
2251
1979
2250
2072
2343
2049
2421
2373
2701
2492
2764
2295
2466
2059
2172
1828
2034
1847
2013
1778
2110
2134
2288
1811
2030
1691
1897
1651
1821
1656
1962
1618
1890
1546
1883
1558
1818
1558
1777
1563
1767
1511
1805
1726
1847
1633
1877
1589
1765
1517
1810
1567
1852
1718
2010
1712
2062
1781
2026
1757
2005
1698
1905
1554
1661
1268
1534
1211
1520
1154
1382
934
0
0
1718
1602
1994
1718
1937
1654
2000
1594
2015
1594
1915
1620
1970
1610
1965
1701
1998
1707
2075
1782
2077
1945
2145
1850
2219
1914
2222
2024
2254
2214
2441
2118
2349
1966
2234
2019
2248
2068
2369
2042
2498
2316
2610
2382
2653
2306
2437
2050
2214
1829
2050
1746
1994
1787
2215
2082
2210
1736
1987
1584
1867
1618
1854
1557
1949
1597
1789
1429
1706
1487
1768
1550
1730
1423
1719
1430
1761
1554
1700
1335
1594
1346
1558
1364
1595
1337
1631
1419
1738
1394
1766
1499
1793
1574
1803
1704
1901
1642
1782
1306
1525
1122
1469
1105
1252
791
0
0
1390
1408
1805
1489
1736
1545
1797
1570
1734
1490
1778
1450
1758
1492
1763
1595
1846
1617
1979
1719
1936
1778
2053
1717
2052
1669
2037
1848
2106
1898
2105
1881
2084
1782
1998
1882
2153
1977
2165
1882
2307
2116
2359
2114
2410
2063
2271
1865
2093
1730
1914
1677
1878
1669
2070
1878
2121
1629
1842
1541
1680
1473
1626
1457
1770
1362
1601
1317
1558
1285
1572
1354
1637
1373
1666
1413
1521
1294
1433
1116
1317
1106
1255
1077
1367
1028
1301
1163
1332
1068
1469
1156
1410
1205
1509
1429
1693
1438
1637
1353
1418
1002
1286
898
1154
654
0
0
1668
1498
2090
1657
1864
1611
1930
1685
2074
1701
1969
1690
2074
1690
2053
1845
2225
1991
2291
2118
2441
2132
2476
2075
2359
2020
2336
2131
2391
2204
2467
2043
2428
2060
2417
2235
2619
2324
2553
2288
2631
2452
2861
2566
2858
2473
2617
2243
2455
2007
2346
2076
2464
2159
2597
2365
2677
2216
2536
2114
2289
2024
2271
2146
2438
2069
2359
1942
2220
2002
2276
1994
2347
2013
2346
2065
2312
1933
2014
1702
1961
1722
1986
1653
1981
1681
1992
1707
1930
1647
2021
1634
1994
1637
2020
1914
2297
2070
2293
2018
2234
1823
2046
1576
1788
1203
0
0
1686
1621
2103
1753
2037
1762
2027
1782
2026
1746
2065
1751
2058
1735
2102
1908
2239
1915
2269
2072
2321
2155
2360
2054
2326
1933
2282
1954
2289
2040
2226
1971
2148
1995
2310
2069
2479
2226
2414
2060
2474
2429
2727
2333
2654
2219
2352
1922
2177
1890
2184
1899
2305
2007
2405
2091
2352
2039
2228
1930
2168
1833
2170
1960
2294
1958
2184
1985
2258
1993
2185
1867
2169
2021
2293
2002
2203
1705
1861
1572
1801
1523
1773
1486
1621
1489
1674
1450
1644
1361
1669
1394
1606
1426
1658
1593
1984
1581
2106
1728
2057
1682
1837
1355
1653
1115
0
0
1414
1389
1834
1527
1805
1572
1858
1540
1827
1579
1854
1457
1874
1613
1914
1715
1992
1633
2065
1682
2099
1883
2087
1738
2057
1721
2043
1739
2069
1778
2095
1853
1960
1744
2199
1850
2245
1925
2187
1921
2305
2099
2582
2155
2408
1921
2123
1738
1960
1614
1994
1681
2110
1776
2203
1815
2053
1666
1917
1743
1860
1637
1933
1674
2029
1670
2066
1819
2107
1872
2042
1719
2185
1909
2217
1959
2178
1732
1834
1573
1834
1545
1819
1429
1668
1486
1690
1281
1610
1288
1563
1224
1486
1152
1433
1287
1693
1382
1810
1539
1866
1597
1783
1362
1617
1066
0
0
1115
1082
1466
1140
1473
1224
1450
1245
1506
1196
1552
1186
1604
1298
1585
1274
1710
1350
1646
1386
1708
1493
1728
1426
1805
1371
1756
1437
1706
1469
1781
1502
1741
1394
1874
1469
1842
1533
1878
1579
2018
1819
2237
1745
1910
1525
1732
1341
1605
1401
1714
1395
1821
1531
1819
1501
1691
1316
1605
1287
1562
1333
1639
1370
1694
1346
1674
1456
1658
1399
1694
1467
1845
1693
2031
1729
1880
1490
1548
1366
1738
1400
1755
1434
1522
1354
1557
1200
1401
1073
1306
1042
1290
962
1207
1096
1366
1002
1448
1089
1456
1330
1505
1179
1441
939
0
0
1390
1268
1718
1403
1785
1448
1781
1486
1801
1452
1872
1477
1854
1588
1807
1512
2018
1610
1956
1659
2053
1769
2092
1754
2109
1727
2096
1757
2096
1821
2121
1924
2135
1941
2230
1862
2159
1882
2229
1951
2357
2163
2501
2069
2333
1893
2229
1895
2171
1845
2216
2041
2414
1989
2344
1854
2134
1791
2011
1782
2030
1809
2124
1748
2079
1795
2122
1828
2129
1867
2090
1892
2306
2222
2573
2224
2299
1849
2185
1966
2346
2082
2429
2066
2270
2048
2283
1922
2082
1641
1990
1563
1847
1558
1736
1576
1849
1469
1864
1509
1873
1680
2068
1723
2077
1550
0
0
1579
1462
1764
1652
1979
1658
1964
1660
1973
1697
2075
1642
2034
1866
2069
1770
2033
1806
1984
1770
2202
1907
2222
1940
2219
1907
2294
1962
2057
1814
2196
1915
2228
1999
2187
1902
2153
1957
2229
1930
2415
2162
2385
1979
2201
1951
2033
1783
2098
1837
2228
1914
2218
1851
1997
1641
1941
1638
1937
1550
1830
1574
1816
1547
1917
1638
1941
1542
1809
1655
1949
1746
2129
2061
2222
1797
1829
1522
1769
1682
1990
1858
2173
1917
2261
1930
2243
1909
2011
1605
1751
1408
1611
1293
1489
1238
1540
1222
1494
1214
1522
1207
1580
1426
1805
1170
0
0
1529
1405
1747
1578
1929
1599
1965
1703
1908
1580
1979
1680
1996
1784
2027
1652
1930
1626
1978
1662
2091
1757
2154
1877
2185
1882
2297
1902
2036
1725
2093
1745
2121
1929
2199
1782
2054
1845
2229
1929
2406
2058
2340
1834
2110
1743
1930
1632
2098
1786
2164
1938
2216
1835
1922
1565
1903
1562
1920
1565
1778
1501
1794
1410
1917
1503
1721
1461
1753
1557
1838
1624
1997
1810
1969
1604
1685
1365
1648
1431
1851
1645
2029
1813
2146
1848
2157
1902
2009
1624
1831
1450
1583
1177
1453
1194
1483
1115
1469
1058
1360
991
1338
1201
1547
1072
0
0
1243
1166
1518
1373
1670
1451
1861
1493
1755
1461
1876
1508
1848
1659
1796
1527
1733
1569
1806
1610
1891
1695
2004
1792
2109
1842
2046
1677
1881
1482
1860
1622
1962
1798
2058
1774
1907
1734
2073
1886
2206
2001
2072
1646
1869
1618
1736
1460
1930
1713
2039
1842
1985
1582
1770
1493
1661
1304
1618
1349
1582
1339
1579
1239
1653
1190
1557
1214
1504
1313
1609
1378
1606
1418
1542
1239
1371
1106
1292
985
1419
1245
1637
1475
1772
1491
1833
1639
1754
1437
1685
1417
1522
1191
1394
1067
1262
970
1290
954
1074
759
1123
861
1173
667
0
0
1531
1400
1738
1541
1988
1626
2150
1819
2066
1789
2189
1880
2185
2013
2169
1946
2298
1878
2264
1942
2293
1966
2474
2237
2547
2171
2573
2158
2288
1918
2365
2078
2423
2213
2628
2198
2467
2189
2596
2290
2669
2301
2573
2158
2548
2217
2352
2168
2502
2327
2605
2308
2507
2058
2298
1917
2261
1851
2062
1873
2267
1933
2202
1819
2093
1693
1990
1690
1965
1768
2089
1877
2139
1789
1957
1672
1951
1589
1929
1554
1907
1685
2091
1838
2093
1838
2196
1866
2301
1940
2257
1987
2250
1775
2111
1741
1903
1547
1791
1437
1717
1245
1592
1334
1666
1094
0
0
1726
1587
2018
1698
1946
1882
2295
2029
2319
1965
2195
2045
2278
2109
2330
2037
2294
2024
2301
2044
2264
2125
2504
2277
2463
2183
2445
2167
2357
2024
2317
2077
2474
2253
2455
2149
2405
2173
2517
2362
2729
2346
2617
2348
2513
2276
2458
2309
2597
2317
2679
2341
2545
2151
2370
2033
2157
1832
2028
1929
2247
2068
2217
1826
2122
1691
1875
1711
1945
1758
2077
1821
2015
1706
1878
1427
1739
1570
1738
1429
1794
1524
1786
1619
1712
1597
1736
1574
1964
1687
1989
1726
2052
1832
2097
1809
1888
1658
1778
1239
1439
1156
1333
1067
1377
965
0
0
1565
1386
1780
1424
1691
1570
1970
1710
1992
1655
2011
1710
2043
1810
2043
1750
1990
1685
2025
1696
1940
1846
2164
1890
2126
1826
2149
1762
2130
1764
2005
1847
2283
2011
2149
1870
2060
1874
2173
2033
2318
2106
2374
2086
2315
2078
2340
2078
2459
2289
2517
2253
2536
2119
2315
1933
2077
1772
1987
1838
2226
2033
2206
1728
2028
1739
1898
1650
1931
1719
2098
1860
2114
1618
1846
1348
1639
1349
1658
1305
1686
1325
1557
1367
1561
1365
1531
1289
1663
1481
1774
1567
1940
1713
2095
1720
1949
1654
1733
1122
1333
1034
1256
983
1229
617
0
0
1117
1083
1385
1154
1385
1162
1540
1244
1687
1262
1580
1295
1637
1362
1605
1408
1589
1302
1605
1319
1562
1374
1764
1477
1773
1477
1741
1397
1697
1391
1702
1608
1890
1576
1613
1378
1636
1433
1674
1494
1909
1572
1783
1623
1911
1534
1842
1707
2072
1765
2218
1821
2091
1840
1975
1575
1746
1431
1689
1551
1918
1674
1717
1403
1732
1419
1693
1460
1757
1643
2050
1787
1910
1446
1602
1171
1458
1176
1327
1074
1378
1003
1294
1048
1225
1026
1219
1096
1342
1150
1498
1138
1533
1374
1769
1576
1714
1421
1501
955
1162
821
1047
762
891
529
0
0
1358
1282
1717
1385
1667
1398
1794
1449
1870
1525
1850
1501
1864
1582
1876
1709
1919
1614
1922
1691
1973
1746
2130
1773
2143
1835
2110
1783
2085
1769
2180
1918
2324
1897
2105
1728
1988
1810
2105
1855
2197
1834
2170
1930
2212
1860
2146
1940
2397
2149
2452
2102
2491
2109
2359
1842
2136
1813
2170
1979
2331
1911
2065
1771
2102
1740
2133
1885
2196
2075
2549
2314
2490
1979
2218
1762
2003
1680
1885
1680
2004
1521
1911
1561
1765
1574
1754
1577
1867
1541
1893
1578
1915
1692
2165
1922
2252
1982
2135
1595
1797
1422
1619
1349
1568
970
0
0
1603
1502
1901
1682
1893
1630
2049
1765
1990
1864
1948
1789
2009
1790
2066
1751
2099
1846
2123
1918
2213
1901
2210
1865
2189
1956
2176
1855
2275
1965
2258
1910
2270
1892
2141
1858
2073
1861
2111
1867
2146
1940
2033
1797
2050
1783
2026
1814
2269
1960
2218
1903
2123
1906
2058
1694
1905
1714
1917
1786
2058
1616
1930
1610
1898
1547
1908
1550
2002
1892
2327
2128
2197
1813
1990
1722
1826
1546
1918
1639
1835
1476
1659
1337
1682
1405
1578
1314
1627
1397
1601
1437
1611
1394
1829
1672
2043
1666
1859
1522
1669
1378
1582
1188
1446
844
0
0
1398
1298
1700
1492
1788
1485
1798
1461
1786
1559
1829
1597
1763
1484
1847
1554
1878
1657
2010
1805
2072
1726
2074
1711
2043
1686
2082
1683
2010
1705
1892
1627
2056
1629
1930
1659
1901
1663
1922
1652
1939
1749
1930
1650
1883
1614
1881
1626
2000
1626
1825
1646
1898
1634
1848
1522
1712
1481
1776
1476
1774
1429
1689
1331
1688
1331
1770
1393
1851
1690
2053
1819
1932
1545
1733
1525
1796
1570
1880
1624
1788
1325
1565
1250
1507
1309
1449
1206
1455
1210
1390
1214
1474
1264
1591
1381
1742
1398
1672
1421
1694
1348
1558
1148
1300
655
0
0
1183
1123
1509
1373
1654
1338
1610
1302
1495
1357
1552
1386
1609
1380
1563
1306
1655
1478
1794
1702
1915
1589
1893
1502
1889
1514
1731
1418
1732
1432
1691
1389
1629
1333
1584
1425
1710
1366
1665
1405
1787
1512
1721
1475
1690
1471
1682
1445
1738
1313
1601
1410
1614
1443
1602
1254
1442
1218
1402
1269
1493
1142
1461
1135
1394
1058
1526
1094
1517
1395
1638
1419
1524
1145
1434
1317
1595
1437
1717
1495
1659
1330
1482
1203
1464
1154
1286
1015
1242
1054
1206
1046
1136
891
1227
1115
1286
1082
1332
1203
1513
1220
1461
1082
1354
622
0
0
1552
1424
1883
1707
1991
1697
2036
1739
1977
1802
2026
1859
1997
1693
2032
1729
2154
1922
2345
2141
2438
1986
2395
2049
2338
1987
2177
1786
2123
1847
2255
1781
2134
1724
2158
1861
2193
1872
2212
1976
2262
2082
2229
1931
2199
1945
2266
1903
2184
1738
2077
1884
2234
1998
2179
1871
2073
1675
1922
1706
1973
1590
1978
1509
1954
1602
1879
1563
2043
1800
2050
1773
1942
1659
1926
1802
2159
2026
2338
2102
2309
1998
2242
1867
2269
1875
2019
1609
1877
1604
1806
1617
1796
1430
1821
1506
1867
1572
1800
1640
2004
1877
2084
1755
1948
1154
0
0
1796
1738
2068
1842
2122
1825
2192
1966
2282
2069
2288
1997
2354
2070
2352
2106
2440
2229
2621
2346
2579
2276
2589
2266
2491
2065
2235
1917
2219
2089
2461
2004
2299
1874
2178
2054
2338
2123
2418
2093
2338
2082
2283
1949
2222
2097
2302
1846
2022
1740
2009
1842
2179
2020
2168
1976
2089
1757
1929
1469
1835
1557
1851
1493
1821
1474
1830
1577
1772
1476
1860
1573
1691
1473
1782
1563
2023
1768
2054
1817
2005
1771
2029
1902
2026
1787
1943
1530
1643
1286
1561
1269
1523
1283
1490
1227
1458
1279
1541
1370
1673
1557
1773
1547
1768
1047
0
0
1562
1322
1787
1461
1808
1498
1893
1620
2036
1687
2086
1824
2153
1866
2218
1893
2297
2082
2421
2147
2408
2155
2423
2051
2268
1876
2044
1862
2215
2015
2301
1837
2139
1805
2149
1901
2266
2153
2438
2065
2248
1941
2205
1923
2187
1955
2154
1673
1896
1662
1941
1828
2186
1992
2181
2006
2045
1746
1821
1330
1722
1496
1833
1403
1629
1273
1646
1328
1593
1273
1609
1384
1574
1330
1656
1317
1732
1653
1845
1557
1722
1505
1806
1614
1890
1628
1819
1427
1529
1264
1424
1078
1305
1143
1334
1096
1261
1007
1282
1078
1398
1351
1558
1317
1418
851
0
0
1106
960
1341
1176
1396
1079
1450
1229
1573
1264
1602
1364
1741
1540
1830
1483
1947
1739
1966
1781
2056
1777
1998
1634
1904
1483
1730
1654
1898
1723
1906
1481
1860
1576
1813
1682
2043
1866
2182
1809
2014
1738
1877
1682
2014
1706
1938
1484
1710
1502
1877
1650
1970
1800
1942
1738
1885
1533
1654
1205
1575
1320
1728
1258
1556
1221
1456
1142
1476
1128
1425
1197
1291
1035
1341
1050
1462
1224
1541
1170
1386
1184
1549
1343
1588
1322
1540
1286
1342
1025
1256
918
1136
747
1092
904
1107
829
1137
879
1131
932
1142
950
1203
642
0
0
1294
1167
1509
1250
1585
1189
1684
1385
1722
1445
1794
1463
1841
1590
1986
1760
2108
1867
2244
1987
2258
1871
2194
1770
2069
1698
2098
1902
2218
1861
2197
1765
2135
1813
2107
1951
2390
2173
2525
2108
2282
2041
2298
2098
2373
2162
2309
1893
2189
1949
2294
2129
2557
2210
2491
2205
2301
1914
2145
1706
2197
1950
2306
1908
2154
1815
2048
1694
2105
1768
2062
1789
1977
1589
1980
1562
1926
1647
1994
1573
1851
1510
1845
1684
1997
1777
2125
1843
2013
1723
1834
1442
1681
1426
1627
1397
1603
1370
1717
1387
1668
1453
1634
1273
1633
1111
0
0
1362
1249
1618
1357
1641
1338
1757
1496
1794
1466
1811
1637
1881
1618
1978
1662
2150
1885
2124
1858
2076
1717
1946
1627
1958
1680
1970
1786
2044
1698
1940
1757
1994
1686
2018
1751
2120
1881
2293
1899
2050
1815
2079
1879
2275
1879
1958
1668
1922
1691
2132
1997
2186
1958
2223
1944
2068
1579
1789
1543
2015
1827
2101
1773
1946
1670
1982
1689
1954
1717
2021
1685
1772
1380
1675
1409
1622
1306
1554
1368
1530
1334
1579
1313
1623
1445
1810
1527
1861
1677
1704
1370
1544
1192
1316
1083
1381
1092
1364
1130
1362
1130
1347
1018
1214
683
0
0
1091
1003
1306
1086
1414
1190
1604
1174
1541
1196
1571
1312
1683
1337
1726
1431
1732
1435
1707
1481
1757
1370
1653
1396
1622
1403
1755
1465
1706
1361
1748
1418
1845
1425
1688
1477
1749
1491
1917
1550
1706
1452
1764
1482
1945
1527
1722
1346
1651
1369
1871
1662
1981
1610
1850
1520
1681
1216
1573
1282
1770
1465
1746
1389
1677
1417
1773
1453
1668
1506
1843
1591
1705
1335
1592
1262
1494
1103
1353
1060
1401
1089
1386
986
1335
1058
1421
1252
1580
1402
1519
1138
1462
1097
1250
1012
1285
818
1201
919
1183
873
1163
829
986
539
0
0
701
594
850
651
921
715
1131
704
1055
781
1038
742
1162
915
1224
915
1190
782
1205
884
1221
834
1115
902
1242
937
1226
947
1276
985
1266
921
1302
885
1226
986
1290
912
1429
1057
1260
1060
1271
978
1227
915
1126
850
1264
965
1223
1051
1355
1069
1282
954
1140
757
1108
772
1214
938
1117
906
1074
853
1111
882
1109
978
1373
1074
1301
1022
1261
980
1107
708
874
574
893
580
877
600
863
603
895
628
1006
809
1074
706
1047
715
904
667
911
420
776
539
650
495
756
363
608
132
0
0
0
0
0
0
0
0
0
0
0
0
0
0
0
0
0
0
0
0
0
0
0
0
0
0
0
0
0
0
0
0
0
0
0
0
0
0
0
0
0
0
0
0
0
0
0
0
0
0
0
0
0
0
0
0
0
0
0
0
0
0
0
0
0
0
0
0
0
0
0
0
0
0
0
0
0
0
0
0
0
0
0
0
0
0
0
0
0
0
0
0
0
0
0
0
0
0
0
0
0
0
0
0
0
0
0
0
0
