P2
108 88
4095
0
0
0
0
0
0
0
0
0
0
0
0
0
0
0
0
0
0
0
0
0
0
0
0
0
0
0
0
0
0
0
0
0
0
0
0
0
0
0
0
0
0
0
0
0
0
0
0
0
0
0
0
0
0
0
0
0
0
0
0
0
0
0
0
0
0
0
0
0
0
0
0
0
0
0
0
0
0
0
0
0
0
0
0
0
0
0
0
0
0
0
0
0
0
0
0
0
0
0
0
0
0
0
0
0
0
0
0
0
1125
1024
1378
1058
1456
1156
1508
1238
1584
1282
1424
1092
1451
1199
1459
1156
1481
1192
1428
1181
1421
1277
1600
1295
1553
1371
1589
1360
1707
1413
1776
1419
1828
1438
1835
1543
1828
1533
1906
1559
1986
1680
1947
1686
1945
1601
1728
1458
1699
1362
1706
1381
1670
1229
1586
1330
1539
1338
1741
1480
1832
1561
1864
1626
2061
1747
2029
1749
2064
1819
2098
1884
2088
1842
2095
1853
2074
1716
2102
1777
2059
1750
2154
1786
2086
1794
2025
1826
2083
1725
2022
1717
1972
1699
1991
1604
1899
1584
1985
1528
1766
1487
1694
1429
1530
1003
0
0
885
908
1173
834
1317
949
1348
1108
1354
1105
1267
909
1199
934
1341
1032
1286
1054
1331
1051
1357
1097
1469
1110
1412
1178
1469
1150
1454
1205
1517
1194
1577
1209
1650
1307
1547
1350
1576
1392
1756
1538
1778
1546
1764
1507
1677
1464
1742
1352
1707
1385
1585
1231
1419
1181
1426
1219
1598
1307
1699
1423
1793
1597
1974
1695
1954
1716
2070
1758
2067
1875
2108
1869
2130
1853
2081
1815
2138
1860
2139
1874
2146
1768
2114
1863
2013
1849
2055
1831
2106
1781
2059
1746
1949
1710
1997
1625
2050
1710
1879
1533
1786
1417
1514
1044
0
0
1110
1032
1437
1042
1506
1208
1608
1294
1688
1409
1581
1237
1590
1275
1613
1370
1717
1435
1764
1445
1750
1482
1869
1512
1815
1563
1826
1554
1828
1673
1992
1569
1965
1605
2029
1650
1890
1627
1900
1678
2011
1709
2061
1853
2219
1944
2178
1933
2247
1940
2290
1986
2282
1762
2082
1706
1878
1729
2146
1790
2242
1938
2359
2048
2522
2149
2458
2212
2573
2245
2650
2390
2738
2473
2745
2487
2724
2402
2756
2430
2732
2438
2797
2466
2822
2513
2667
2502
2764
2449
2817
2325
2600
2354
2630
2317
2655
2282
2679
2337
2610
2165
2519
2100
2261
1705
0
0
1452
1381
1721
1483
1837
1525
1903
1610
1901
1629
1816
1544
1901
1626
1900
1717
1936
1645
1906
1684
2033
1762
2045
1862
1924
1778
1958
1769
2026
1731
2051
1657
1991
1673
2028
1854
2029
1684
2005
1698
2049
1757
2053
1819
2165
1842
2093
1865
2258
2026
2327
1927
2180
1917
2123
1941
2116
1783
2149
1949
2203
1942
2215
2007
2304
2046
2387
2092
2395
2195
2473
2340
2650
2472
2585
2373
2715
2344
2582
2441
2690
2462
2742
2379
2694
2405
2613
2401
2690
2341
2722
2329
2698
2278
2613
2315
2562
2225
2685
2218
2544
2142
2440
2106
2163
1552
0
0
1290
1205
1563
1276
1730
1322
1866
1467
1713
1468
1745
1518
1842
1469
1842
1531
1815
1522
1788
1545
1902
1526
1890
1694
1842
1576
1801
1653
1893
1621
1878
1508
1904
1697
1851
1489
1829
1541
1832
1506
1850
1525
1861
1573
1938
1589
1919
1546
2050
1685
2025
1722
2039
1805
2097
1832
2135
1687
2058
1860
2176
1866
2154
1857
2250
1897
2181
1899
2301
1928
2327
2153
2466
2168
2440
2221
2558
2170
2500
2290
2547
2261
2538
2257
2619
2310
2578
2269
2593
2202
2580
2198
2505
2222
2530
2221
2411
2166
2522
2082
2465
2071
2287
1970
2077
1433
0
0
1116
1008
1263
1093
1403
1114
1554
1192
1485
1285
1483
1169
1610
1317
1569
1306
1520
1233
1527
1298
1609
1364
1686
1421
1627
1351
1571
1236
1561
1257
1550
1173
1629
1220
1614
1270
1492
1238
1593
1181
1524
1165
1526
1213
1569
1231
1534
1181
1630
1238
1630
1305
1576
1275
1719
1517
1787
1418
1810
1674
1855
1581
1808
1546
1862
1548
1871
1637
1934
1711
1969
1819
2057
1812
2145
1826
2201
1975
2076
1957
2327
1998
2177
1963
2267
1993
2186
2070
2308
1940
2309
1997
2225
1990
2177
1936
2216
1880
2276
1774
2186
1818
2084
1774
1721
1146
0
0
1419
1251
1637
1370
1845
1468
1948
1514
1817
1608
1807
1513
2001
1607
1936
1686
1945
1646
2038
1741
2081
1828
2150
1899
2161
1873
2124
1785
2027
1778
2090
1648
2043
1756
2100
1723
1957
1622
2114
1701
2030
1651
1958
1707
1995
1686
1961
1608
1954
1786
2034
1705
1989
1677
1985
1888
2206
1868
2174
2056
2344
2033
2354
2021
2335
2121
2369
2053
2465
2114
2458
2239
2613
2346
2554
2361
2709
2388
2650
2491
2820
2522
2846
2544
2974
2514
2847
2570
2895
2523
2929
2510
2881
2453
2802
2570
2818
2466
2858
2439
2816
2388
2659
2269
2318
1682
0
0
1627
1584
1982
1758
2037
1826
2130
1713
2090
1725
1998
1693
1972
1769
2098
1746
2094
1869
2213
1882
2118
2021
2370
1970
2385
2013
2280
1910
2206
1930
2295
1994
2240
1931
2113
1858
2198
1917
2103
1876
2122
1866
2173
1782
1997
1677
2034
1754
1937
1713
1921
1597
1882
1681
1933
1719
2009
1738
1983
1707
2050
1861
2181
1941
2332
1931
2222
1942
2330
1972
2404
2125
2437
2165
2373
2218
2404
2173
2411
2156
2661
2261
2544
2350
2658
2365
2717
2458
2678
2420
2623
2427
2646
2376
2605
2306
2634
2324
2615
2310
2522
2242
2326
2051
2212
1606
0
0
1390
1241
1691
1373
1797
1488
1835
1349
1653
1397
1623
1319
1726
1532
1862
1494
1814
1549
1933
1604
1879
1693
2083
1767
2198
1805
2109
1745
2090
1839
2182
1870
2183
1745
2068
1666
2116
1741
2074
1723
2037
1705
2110
1646
1940
1659
1885
1624
1771
1510
1711
1467
1802
1474
1707
1450
1757
1476
1721
1394
1801
1573
1858
1645
2100
1838
2139
1750
2201
1846
2229
2036
2203
1989
2216
2019
2187
1925
2212
1949
2373
2053
2402
2155
2441
2194
2549
2276
2462
2357
2490
2265
2501
2202
2497
2111
2554
2323
2390
2125
2438
2053
2196
1842
2040
1461
0
0
1066
922
1317
1029
1367
1170
1444
1107
1411
1095
1290
1037
1282
1130
1410
1165
1493
1224
1558
1253
1544
1360
1693
1402
1797
1525
1730
1352
1673
1490
1796
1637
1892
1598
1751
1501
1796
1570
1772
1594
1877
1551
1946
1572
1794
1511
1739
1430
1661
1460
1614
1329
1508
1293
1550
1222
1566
1299
1482
1162
1496
1233
1533
1282
1650
1458
1769
1548
1914
1654
2090
1794
1997
1751
2004
1807
1986
1709
1991
1706
2079
1754
2107
1873
2177
1949
2270
2042
2345
2092
2258
2002
2299
1994
2288
2017
2288
2045
2200
1907
2178
1817
1996
1621
1875
1206
0
0
1274
1125
1489
1170
1613
1266
1673
1265
1715
1322
1661
1331
1643
1362
1797
1446
1798
1524
1849
1512
1900
1659
2070
1641
2108
1736
2022
1634
2034
1784
2201
1870
2194
1790
2092
1818
2135
1910
2250
1945
2253
1925
2341
1930
2293
2014
2282
1978
2196
1970
2258
1916
2181
1741
2095
1621
2011
1742
1943
1571
1988
1700
2016
1684
2180
1758
2210
1963
2393
2130
2557
2260
2510
2271
2518
2216
2489
2244
2453
2139
2554
2285
2631
2301
2703
2445
2789
2536
2815
2603
2876
2629
2892
2580
2830
2466
2852
2604
2756
2450
2708
2369
2685
2222
2498
1870
0
0
1420
1354
1787
1419
1723
1469
1783
1403
1717
1453
1801
1501
1804
1620
1866
1516
1877
1628
2045
1733
1851
1728
2066
1806
1994
1755
2061
1801
2081
1909
2197
1842
2043
1778
2021
1769
2057
1801
2056
1806
2090
1886
2123
1743
2046
1851
2213
1950
2292
1941
2219
1957
2154
1873
1971
1705
1984
1646
1919
1577
1835
1563
1876
1550
1929
1594
1846
1680
2077
1831
2136
1995
2340
2001
2338
2042
2377
1997
2225
1988
2262
2006
2405
1986
2454
2178
2474
2309
2586
2350
2635
2422
2636
2263
2691
2242
2594
2305
2480
2241
2514
2249
2480
2146
2085
1615
0
0
1303
1170
1554
1258
1569
1293
1605
1250
1597
1250
1647
1371
1642
1453
1762
1460
1754
1556
1847
1515
1786
1602
1946
1642
1898
1602
1880
1608
1901
1639
1961
1610
1843
1586
1870
1586
1860
1634
1979
1630
1881
1670
1910
1519
1870
1652
1981
1654
2090
1686
2056
1805
2082
1794
2061
1658
1963
1591
1813
1494
1738
1474
1746
1445
1765
1489
1755
1464
1755
1445
1847
1613
2132
1900
2154
1865
2158
1829
2134
1917
2165
1911
2141
1866
2278
1986
2317
2102
2486
2218
2597
2289
2398
2282
2556
2207
2555
2224
2445
2126
2409
2210
2357
1985
2042
1450
0
0
1110
970
1339
998
1322
987
1243
953
1298
987
1357
1154
1403
1181
1514
1129
1444
1271
1562
1350
1516
1271
1589
1389
1629
1299
1576
1396
1553
1394
1657
1346
1538
1355
1682
1380
1666
1375
1682
1321
1626
1314
1642
1274
1629
1313
1603
1297
1765
1391
1755
1515
1701
1509
1678
1458
1835
1410
1701
1345
1454
1241
1493
1306
1491
1217
1437
1159
1458
1156
1483
1290
1675
1328
1861
1627
1892
1652
1967
1669
1898
1649
1998
1541
1942
1782
1960
1896
2157
1902
2214
1965
2245
2039
2344
1988
2356
2017
2206
1962
2222
1930
2213
1796
1881
1281
0
0
1334
1130
1591
1259
1595
1205
1609
1245
1603
1306
1753
1385
1725
1418
1781
1426
1819
1557
1965
1657
1893
1662
1975
1684
1988
1670
2015
1771
1951
1770
2090
1775
2005
1717
2022
1718
2048
1810
2041
1656
2023
1798
2018
1763
2006
1729
2049
1746
2134
1741
2065
1750
2074
1851
2109
1857
2230
1955
2196
1818
2103
1781
2064
1662
2034
1660
2018
1654
1998
1618
1962
1662
2050
1700
2172
1947
2293
2036
2310
1955
2299
1911
2125
1586
1989
1634
1962
1906
2379
2105
2589
2310
2690
2364
2836
2486
2792
2557
2757
2500
2866
2428
2716
2283
2413
1794
0
0
1645
1578
1925
1620
1785
1572
1880
1632
1873
1522
1844
1661
1890
1554
2003
1786
2021
1786
2058
1898
2156
1780
2130
1858
2167
1815
2035
1826
2094
1814
2099
1795
1965
1812
2021
1804
2100
1794
1994
1694
2127
1741
1964
1666
1995
1638
1994
1716
1979
1702
1978
1681
1917
1698
1891
1650
1906
1700
2050
1906
2089
1729
2002
1779
1970
1659
1869
1541
1713
1460
1765
1435
1728
1585
1874
1640
1947
1883
2152
1883
2091
1773
1897
1588
1806
1480
1802
1647
1981
1797
2170
1956
2363
2165
2499
2295
2597
2281
2546
2257
2522
2242
2381
2076
2230
1616
0
0
1530
1453
1797
1514
1770
1486
1877
1547
1847
1530
1897
1426
1771
1587
1972
1678
2006
1682
2058
1849
2137
1803
2150
1798
2166
1814
2085
1783
2082
1863
2145
1786
2093
1750
1947
1665
2109
1717
1919
1689
1986
1678
1928
1661
1944
1618
1888
1689
2010
1640
1904
1586
1866
1634
1789
1634
1800
1641
1919
1666
2036
1634
1986
1721
2094
1672
1926
1562
1662
1338
1691
1333
1694
1402
1670
1517
1847
1649
1965
1770
2086
1774
1986
1685
1938
1650
1874
1548
1926
1670
1978
1786
2277
2010
2411
2177
2604
2235
2394
2138
2472
2083
2218
1972
2190
1482
0
0
1099
1044
1403
1122
1401
1149
1467
1201
1526
1136
1444
1158
1411
1211
1515
1234
1617
1388
1689
1483
1802
1437
1845
1546
1869
1562
1778
1606
1829
1680
1973
1561
1900
1461
1779
1491
1866
1495
1705
1521
1754
1432
1661
1326
1610
1425
1661
1398
1701
1327
1565
1253
1506
1278
1558
1283
1501
1379
1585
1362
1563
1338
1687
1501
1802
1477
1674
1254
1445
1191
1439
1116
1425
1178
1405
1194
1449
1285
1581
1364
1718
1525
1734
1539
1764
1477
1755
1402
1691
1419
1669
1409
1851
1611
2036
1797
2129
1890
2150
1810
2074
1901
1903
1701
1879
1243
0
0
1287
1194
1483
1269
1557
1218
1643
1362
1730
1322
1685
1387
1732
1412
1766
1485
1805
1537
1853
1643
2070
1673
2115
1858
2202
1844
2139
2009
2308
1969
2398
1973
2317
1923
2180
1956
2270
1873
2265
1945
2324
2029
2328
1898
2193
1811
2203
1917
2195
1786
2118
1806
2133
1798
2063
1755
1996
1736
2010
1796
2082
1780
2098
1914
2326
1994
2225
1790
1997
1627
1966
1700
1977
1661
2010
1692
1963
1667
1995
1734
2203
1942
2352
2105
2351
2148
2397
1988
2339
1965
2333
1942
2259
2050
2348
2141
2527
2371
2657
2389
2672
2365
2570
2345
2500
1777
0
0
1398
1389
1749
1454
1762
1402
1806
1526
1831
1502
1803
1484
1963
1516
1930
1626
1971
1707
2027
1716
1930
1770
2154
1802
2098
1834
2152
1885
2269
1981
2220
1872
2287
1964
2199
1862
2172
1949
2139
1941
2271
2009
2258
1973
2193
1908
2157
1828
2191
1886
2107
1905
2012
1707
2002
1669
1957
1713
1989
1658
1942
1662
1878
1733
2044
1835
2106
1685
1962
1685
1834
1580
1885
1546
1744
1507
1686
1418
1643
1394
1842
1611
1958
1839
2125
1806
2110
1897
2212
1902
2019
1730
1943
1722
2040
1712
2191
2056
2310
2154
2346
2049
2277
2029
2209
1674
0
0
1341
1314
1602
1323
1650
1289
1712
1417
1708
1300
1652
1301
1736
1376
1764
1429
1784
1506
1742
1538
1796
1626
1956
1650
1927
1672
1966
1698
1941
1660
1961
1650
1975
1714
2017
1703
2055
1644
1986
1764
2106
1770
2102
1750
2018
1770
2036
1814
2170
1872
2123
1833
2017
1636
1948
1537
1930
1550
1926
1515
1789
1598
1754
1533
1906
1717
2061
1666
2022
1622
1810
1565
1806
1401
1730
1373
1650
1310
1540
1256
1674
1322
1669
1541
1856
1621
2011
1775
2065
1776
1997
1591
1803
1525
1801
1459
1946
1778
2099
1898
2159
1946
2212
1978
2106
1502
0
0
926
874
1268
1037
1258
898
1318
981
1322
969
1331
962
1435
1057
1339
1194
1441
1172
1509
1231
1485
1273
1599
1301
1607
1332
1654
1330
1620
1322
1602
1261
1683
1277
1586
1409
1649
1396
1617
1306
1626
1350
1649
1389
1614
1400
1742
1530
1850
1581
1922
1698
1793
1504
1709
1398
1649
1291
1549
1228
1601
1289
1437
1205
1591
1266
1613
1383
1713
1450
1673
1410
1461
1163
1487
1108
1364
1068
1294
968
1416
1004
1322
1133
1424
1253
1689
1459
1737
1444
1770
1379
1633
1250
1425
1094
1528
1303
1655
1529
1845
1654
1997
1704
1741
1179
0
0
1221
1202
1606
1301
1650
1271
1610
1299
1682
1309
1640
1288
1734
1405
1732
1402
1781
1569
1805
1453
1880
1606
2059
1733
2004
1627
2036
1614
1963
1679
1963
1637
2042
1706
2086
1794
2034
1738
2026
1741
2169
1783
2069
1818
2075
1849
2149
1773
2226
1933
2378
2075
2456
2059
2323
2014
2206
1790
2114
1710
2026
1764
1966
1693
2061
1794
2155
1827
2234
1994
2245
1869
2181
1746
2059
1661
1917
1594
1892
1587
1862
1506
1865
1594
2003
1646
2034
1866
2313
2017
2277
1896
2094
1828
1997
1677
1958
1635
2125
1885
2374
2021
2462
2171
2394
1789
0
0
1517
1528
1903
1573
1901
1594
1929
1542
1875
1514
1845
1594
1948
1689
1927
1601
2037
1723
2042
1805
2089
1773
2084
1755
2025
1789
2002
1856
2085
1813
2066
1835
2103
1841
2139
1860
2141
1857
2074
1790
2110
1819
2133
1818
2109
1757
2126
1781
2197
1879
2160
1885
2227
2070
2338
2001
2086
1827
1949
1643
1954
1633
1981
1717
1922
1672
1918
1642
1996
1670
2039
1861
2069
1744
1924
1580
1846
1526
1708
1507
1728
1445
1559
1365
1635
1416
1723
1561
1917
1598
1964
1698
2000
1720
1782
1557
1730
1428
1674
1514
1877
1773
2167
1979
2174
1518
0
0
1450
1398
1741
1350
1933
1432
1806
1395
1672
1289
1828
1410
1797
1568
1902
1549
1986
1626
1998
1669
1921
1574
1997
1559
1910
1623
1973
1685
1978
1636
1923
1643
1968
1707
1917
1646
2011
1622
1993
1716
1952
1651
1905
1595
1911
1605
1954
1538
2026
1722
1988
1659
2027
1738
2046
1750
1965
1714
1845
1517
1814
1501
1803
1542
1797
1558
1796
1487
1810
1450
1875
1707
1992
1709
2001
1493
1678
1426
1674
1337
1538
1264
1549
1274
1510
1272
1438
1298
1597
1269
1747
1604
1853
1597
1774
1483
1824
1412
1545
1282
1621
1442
1814
1769
1981
1330
0
0
1137
1076
1520
1221
1570
1282
1522
1243
1537
1134
1584
1243
1559
1326
1662
1362
1746
1473
1788
1520
1783
1442
1789
1458
1732
1521
1647
1509
1855
1553
1827
1549
1803
1572
1709
1493
1703
1510
1693
1339
1686
1386
1618
1326
1645
1338
1621
1325
1702
1403
1624
1350
1678
1460
1725
1371
1677
1412
1589
1319
1553
1297
1495
1263
1653
1294
1517
1236
1498
1179
1553
1349
1701
1567
1802
1357
1549
1241
1352
1126
1351
1014
1220
1038
1192
1038
1211
1086
1258
997
1347
1354
1668
1442
1605
1434
1706
1225
1416
1063
1231
1138
1509
1396
1710
1061
0
0
1332
1258
1691
1381
1841
1403
1726
1460
1762
1405
1912
1499
1878
1661
2071
1659
2164
1892
2308
2000
2263
1941
2289
1936
2205
2014
2228
2093
2286
2029
2340
2088
2391
2185
2410
1996
2318
1925
2090
1851
2152
1719
2106
1898
2113
1821
2165
1744
2251
1888
2063
1837
2197
1915
2158
1762
2157
1877
2102
1893
2133
1746
2068
1885
2110
1843
2096
1729
2053
1719
2069
1733
2197
1973
2445
1949
2137
1789
2051
1744
2024
1593
1877
1577
1877
1627
1760
1622
1972
1547
1915
1765
2155
1967
2186
1999
2326
1833
2065
1655
1881
1602
2012
1851
2229
1561
0
0
1479
1463
1781
1426
1749
1556
1749
1498
1825
1594
1905
1605
1977
1687
1978
1788
2022
1853
2170
1979
2251
2038
2304
2033
2317
2129
2390
2100
2436
2178
2523
2154
2596
2228
2578
2174
2363
2056
2216
1928
2159
1744
2089
1715
1972
1821
2056
1759
2084
1787
2059
1821
1917
1771
1968
1669
1942
1714
1861
1818
2050
1753
1958
1721
1949
1684
1963
1642
1802
1580
1802
1539
1790
1670
2107
1764
1867
1531
1833
1593
1812
1490
1733
1337
1578
1307
1622
1330
1637
1378
1570
1374
1717
1550
1998
1769
2000
1661
1956
1500
1622
1302
1594
1418
1678
1302
0
0
1291
1213
1589
1282
1642
1369
1685
1397
1786
1378
1723
1342
1785
1418
1780
1522
1860
1681
1928
1704
2005
1665
2081
1764
2019
1828
2166
1830
2173
1883
2211
1986
2328
2082
2353
1962
2290
1823
2188
1872
2137
1733
2009
1646
1915
1793
1922
1691
2024
1685
1929
1716
1927
1602
1808
1573
1850
1602
1837
1725
2116
1924
2029
1590
1944
1558
1854
1458
1730
1466
1737
1451
1638
1469
1815
1549
1802
1530
1735
1577
1904
1509
1653
1317
1489
1200
1450
1133
1458
1279
1477
1237
1546
1316
1789
1533
1922
1453
1809
1358
1564
1274
1458
1189
1492
1041
0
0
1111
1005
1317
994
1320
1122
1352
994
1371
1109
1320
1125
1540
1146
1461
1228
1509
1244
1542
1372
1618
1330
1758
1481
1682
1494
1772
1513
1798
1473
1820
1578
1986
1642
1910
1572
1856
1475
1850
1604
1837
1528
1811
1526
1785
1514
1756
1467
1771
1399
1618
1413
1612
1386
1628
1418
1640
1350
1758
1597
1986
1821
1957
1596
1818
1320
1611
1275
1443
1300
1501
1141
1413
1258
1541
1293
1483
1245
1565
1402
1652
1317
1611
1222
1435
1102
1318
867
1277
984
1248
948
1186
978
1330
1224
1581
1246
1666
1268
1467
1133
1302
872
1153
744
0
0
1301
1153
1515
1170
1520
1309
1652
1337
1611
1346
1652
1377
1738
1403
1706
1512
1884
1551
1943
1587
1924
1657
1970
1776
1976
1705
2082
1769
2082
1778
2221
1909
2188
1883
2205
1797
2178
1840
2167
1893
2281
1866
2234
1938
2275
2059
2308
2017
2279
1997
2172
1877
2164
1807
2138
1858
2221
1956
2190
2230
2541
2426
2613
2146
2329
1813
2098
1722
1985
1750
2007
1714
1975
1743
2088
1764
1969
1704
2059
1827
2181
1886
2190
1863
2026
1623
1874
1493
1836
1522
1755
1450
1796
1551
1840
1649
1981
1815
2173
1869
2090
1799
1941
1525
1786
1314
0
0
1510
1330
1686
1435
1715
1426
1799
1533
1751
1626
1838
1549
1917
1557
1918
1606
1868
1597
1949
1786
1994
1754
2030
1797
2005
1753
2068
1810
2118
1804
2008
1872
2235
1771
2182
1846
2122
1732
2056
1730
2135
1899
2054
1729
2182
1910
2279
2017
2258
1954
2181
1886
2062
1742
2038
1758
2141
1804
2133
2093
2378
2247
2403
2074
2141
1725
1927
1572
1886
1484
1757
1449
1866
1538
1834
1485
1767
1430
1610
1458
1810
1602
1906
1632
1741
1435
1608
1349
1558
1290
1495
1245
1537
1275
1473
1259
1611
1467
1866
1655
1915
1507
1796
1414
1586
1028
0
0
1465
1249
1689
1307
1623
1368
1701
1474
1743
1533
1842
1498
1825
1538
1786
1474
1867
1541
1893
1674
1939
1629
1922
1639
1972
1678
1957
1692
1981
1754
2011
1748
2162
1755
2019
1769
2003
1714
2033
1753
2022
1733
2002
1631
1993
1730
2078
1770
2124
1958
2262
1940
2150
1797
2025
1687
2093
1714
1982
1860
2162
2038
2236
1949
2155
1736
1974
1594
1925
1541
1745
1418
1790
1452
1691
1403
1643
1406
1709
1367
1710
1544
1758
1386
1704
1371
1618
1352
1521
1248
1545
1226
1398
1176
1494
1170
1510
1277
1711
1474
1841
1490
1698
1455
1480
1011
0
0
1101
1093
1321
1095
1469
1110
1426
1214
1493
1288
1593
1229
1544
1195
1512
1329
1532
1255
1633
1346
1555
1330
1666
1396
1627
1373
1637
1453
1684
1417
1732
1426
1765
1475
1690
1377
1694
1399
1701
1413
1627
1330
1743
1329
1570
1327
1685
1383
1751
1530
1873
1639
1954
1601
1666
1323
1641
1352
1652
1418
1738
1530
1818
1658
1849
1547
1716
1435
1701
1244
1502
1150
1517
1103
1353
1111
1418
1060
1333
1137
1477
1183
1394
1170
1381
1110
1357
1179
1267
978
1220
951
1197
946
1194
947
1187
921
1277
1016
1359
1257
1460
1230
1288
804
0
0
1458
1290
1765
1398
1802
1431
1787
1552
1961
1715
2014
1522
1922
1538
1974
1668
2000
1673
2113
1841
2050
1694
2117
1787
2042
1787
2069
1758
2166
1878
2128
1876
2114
1800
2059
1815
2038
1757
2084
1769
2090
1832
2051
1764
2109
1823
2164
1797
2133
1837
2315
2074
2379
1931
2218
1837
2169
1829
2105
1799
2106
1873
2242
1946
2390
2059
2396
2078
2393
1930
2114
1734
2101
1714
2054
1689
1932
1620
1962
1629
1989
1626
1914
1674
1928
1619
1979
1649
1878
1622
1957
1557
1860
1503
1781
1463
1780
1437
1819
1451
1876
1642
2050
1781
1988
1429
0
0
1690
1647
1965
1657
2017
1632
1985
1730
2195
2010
2149
1788
2028
1762
2206
1910
2331
1922
2375
1963
2282
1968
2190
1977
2158
1894
2182
1890
2214
2101
2225
1939
2096
1748
2133
1789
2106
1846
2087
1853
2090
1765
2046
1801
2123
1783
2075
1808
1974
1810
2021
1833
2187
1807
2118
1713
2028
1661
1918
1714
1966
1591
1935
1642
1940
1869
2170
1979
2210
1925
2020
1669
1794
1610
2013
1637
1890
1501
1658
1521
1794
1443
1637
1412
1643
1306
1627
1476
1762
1636
1806
1497
1627
1378
1604
1306
1481
1179
1538
1165
1518
1334
1682
1568
1796
1234
0
0
1540
1401
1780
1535
1786
1384
1869
1510
2085
1807
1941
1574
1810
1622
2028
1716
2265
1891
2159
1874
2201
1885
2234
1986
2201
1858
2141
1917
2252
2050
2311
1957
2058
1785
2020
1700
2085
1761
2013
1730
2058
1714
2065
1706
2057
1709
1909
1647
1946
1705
1937
1645
2013
1732
2067
1640
1858
1636
1875
1513
1772
1429
1794
1556
1878
1701
1990
1903
2162
1818
1908
1649
1789
1604
1992
1637
1869
1420
1563
1349
1684
1296
1602
1376
1531
1313
1614
1403
1769
1482
1781
1501
1643
1339
1584
1239
1435
1169
1409
1049
1401
1149
1429
1424
1668
1178
0
0
1096
1032
1379
1157
1355
1076
1429
1179
1672
1405
1462
1163
1425
1168
1590
1265
1762
1419
1741
1522
1719
1530
1815
1595
1801
1525
1877
1611
2062
1947
2062
1735
1909
1581
1893
1581
1820
1558
1861
1405
1796
1403
1754
1332
1655
1333
1554
1323
1585
1355
1608
1346
1614
1395
1714
1332
1523
1265
1593
1218
1523
1209
1537
1236
1557
1358
1661
1509
1682
1357
1694
1387
1636
1434
1706
1327
1554
1204
1333
1092
1334
1014
1274
1081
1293
933
1273
1195
1421
1345
1545
1220
1494
1237
1294
970
1269
834
1164
842
1133
873
1077
965
1270
810
0
0
1338
1173
1538
1299
1648
1326
1689
1430
1872
1499
1788
1450
1780
1493
1957
1621
2039
1626
2027
1677
2001
1743
2107
1887
2167
1822
2264
1926
2409
2313
2482
2077
2347
2021
2347
2026
2406
2130
2388
2026
2281
1968
2275
1821
2180
1789
2174
1812
2149
1792
2170
1751
2093
1841
2139
1934
2170
1761
2111
1811
2170
1762
2092
1776
2069
1786
2124
1845
2111
1903
2074
1890
2148
1999
2290
1942
2210
1738
1969
1653
1888
1559
1949
1640
1853
1430
1842
1642
1988
1824
2135
1796
2107
1717
1981
1596
1769
1442
1773
1297
1689
1425
1627
1406
1758
1316
0
0
1524
1382
1840
1429
1842
1578
1862
1608
1802
1626
1937
1660
1945
1741
1991
1746
2007
1844
2015
1750
2011
1844
2167
1849
2227
1865
2194
1956
2358
2181
2389
2037
2184
1902
2248
2138
2485
2114
2418
2082
2442
2074
2291
2013
2194
1943
2157
1906
2093
1810
2081
1818
2038
1778
2089
1907
2155
1715
2013
1737
1901
1677
1894
1709
1954
1634
1941
1646
1903
1746
1921
1749
2091
1857
2115
1842
2050
1644
1863
1417
1724
1334
1693
1454
1655
1357
1594
1402
1755
1498
1833
1695
2056
1622
1845
1494
1833
1325
1463
1224
1435
1230
1398
1107
1400
957
0
0
1414
1218
1691
1211
1666
1327
1757
1420
1708
1453
1781
1389
1787
1546
1805
1431
1889
1598
1862
1605
1922
1611
1993
1611
2098
1750
2053
1765
2110
1807
2085
1776
1910
1732
2060
1815
2175
1822
2130
1845
2149
1941
2231
1878
2097
1824
2129
1770
2081
1684
1909
1606
1841
1633
2035
1899
2171
1697
2013
1645
1825
1549
1809
1509
1835
1495
1809
1453
1786
1521
1730
1493
1926
1603
2014
1709
2054
1637
1812
1342
1628
1269
1598
1341
1553
1222
1531
1299
1705
1238
1669
1530
1784
1499
1706
1372
1602
1227
1362
1101
1305
1093
1298
933
1183
607
0
0
1027
916
1404
1053
1374
1099
1424
1069
1371
1132
1429
1098
1435
1249
1602
1206
1538
1355
1541
1301
1499
1358
1642
1302
1722
1429
1637
1432
1794
1501
1719
1496
1646
1357
1734
1492
1814
1474
1746
1488
1802
1591
1813
1566
1855
1678
1922
1674
1882
1562
1668
1410
1646
1495
1813
1684
1901
1537
1782
1461
1588
1325
1556
1285
1532
1218
1477
1136
1497
1281
1513
1261
1648
1259
1655
1478
1826
1430
1591
1201
1417
1044
1430
1099
1304
1025
1366
1051
1324
984
1303
1148
1462
1274
1387
1208
1341
942
1223
912
1175
857
1045
661
900
440
0
0
1333
1245
1685
1294
1797
1455
1694
1449
1755
1498
1914
1522
1866
1543
1915
1655
1997
1683
1911
1723
1991
1713
2035
1703
2100
1759
2122
1861
2210
1830
2212
1917
2126
1810
2233
1857
2210
1884
2218
1866
2276
1870
2276
1968
2283
2154
2407
2215
2462
2032
2298
1955
2302
2134
2466
2218
2469
2181
2456
2146
2241
1905
2135
1810
2094
1810
1973
1659
2083
1834
2066
1819
2139
1812
2254
1923
2390
1906
2109
1708
2042
1659
2006
1710
1963
1621
1899
1611
1843
1590
1844
1551
2002
1730
1902
1777
2123
1663
1901
1532
1857
1490
1741
1285
1597
942
0
0
1600
1610
2058
1700
2054
1784
2111
1779
2014
1781
2100
1717
2078
1793
2178
1866
2229
1851
2126
1781
2075
1806
2167
1773
2098
1874
2103
1853
2158
1934
2202
1869
2241
1854
2094
1883
2138
1890
2110
1844
2164
1890
2139
1901
2150
1975
2147
1886
2135
1813
2214
1955
2297
2149
2459
2165
2261
2095
2381
2194
2282
1989
2043
1726
1977
1653
1791
1532
1848
1559
1757
1499
1867
1509
1883
1592
1994
1597
1795
1549
1802
1589
1918
1604
1739
1377
1642
1347
1626
1236
1592
1303
1601
1354
1559
1509
1846
1619
1919
1533
1765
1450
1478
1181
1338
813
0
0
1595
1524
1954
1703
2002
1698
1937
1712
1963
1687
2050
1761
2073
1748
2219
1874
2277
1833
2114
1741
2084
1681
2061
1772
2014
1730
1958
1725
2026
1907
2088
1736
2020
1663
2050
1784
2005
1642
2009
1791
1958
1690
1980
1670
1995
1749
1990
1771
2002
1674
2008
1795
2177
2002
2271
1921
2055
1899
2271
2048
2160
2005
2130
1835
1960
1508
1738
1458
1739
1393
1690
1437
1726
1389
1769
1374
1803
1442
1586
1549
1770
1558
1901
1574
1794
1302
1605
1256
1533
1288
1405
1163
1450
1222
1503
1302
1725
1509
1961
1510
1915
1486
1554
1137
1291
704
0
0
1258
1185
1618
1259
1546
1281
1647
1354
1634
1515
1801
1446
1779
1563
1930
1606
1989
1764
2006
1613
1874
1605
1874
1530
1709
1489
1807
1454
1881
1630
1909
1494
1769
1462
1733
1541
1765
1429
1634
1437
1699
1483
1740
1474
1753
1489
1805
1429
1678
1318
1787
1518
1862
1595
1829
1562
1733
1525
1798
1675
1915
1727
2034
1673
1807
1339
1507
1201
1451
1236
1418
1146
1436
1141
1489
1067
1399
1086
1305
1213
1589
1353
1833
1514
1563
1163
1264
1003
1346
926
1259
945
1243
932
1202
1037
1306
1355
1709
1393
1687
1353
1435
969
1098
467
0
0
1411
1390
1722
1422
1754
1450
1779
1449
1885
1601
2003
1645
1994
1670
2158
1905
2290
1936
2292
1914
2215
1929
2280
2059
2210
1925
2283
2031
2429
2219
2327
1905
2217
1881
2176
1951
2237
1772
2181
1870
2198
1892
2116
1881
2243
1951
2244
1924
2161
1826
2262
1986
2338
1965
2216
1908
2146
1875
2280
2021
2316
2141
2418
2169
2500
1975
2173
1809
2002
1732
1988
1665
2074
1685
2090
1729
1956
1623
1861
1663
2065
1858
2322
2026
2325
1819
2011
1690
1930
1549
1821
1533
1885
1506
1769
1540
1906
1674
2292
1990
2313
1946
1946
1581
1697
1143
0
0
1457
1384
1853
1597
1858
1487
1769
1630
1871
1711
1955
1659
1957
1742
2105
1961
2116
1916
2148
1938
2140
1900
2186
1873
2222
2019
2283
2110
2430
2125
2430
1999
2233
1997
2274
1979
2198
1971
2362
1956
2184
1802
2098
1862
2054
1806
2069
1786
1981
1766
2056
1860
2128
1722
2092
1788
1976
1746
1962
1748
1992
1785
2106
1939
2282
1850
2035
1781
1995
1627
1834
1522
1723
1498
1835
1530
1753
1431
1673
1447
1727
1509
1930
1588
1989
1658
1787
1554
1786
1409
1599
1330
1622
1336
1576
1347
1627
1402
1722
1658
1970
1617
1663
1298
1410
882
0
0
1374
1210
1690
1354
1694
1420
1687
1410
1786
1489
1805
1544
1850
1675
1889
1790
1903
1713
1927
1690
1952
1668
2001
1650
2067
1773
2147
1945
2335
2007
2263
1858
2246
1941
2253
1895
2229
2000
2301
2020
2192
1858
2110
1797
2075
1739
2058
1777
2045
1717
2014
1719
1974
1636
1950
1740
1876
1618
1842
1531
1810
1570
1878
1674
2061
1799
1974
1717
2060
1750
1942
1498
1694
1430
1674
1480
1668
1343
1623
1346
1591
1356
1649
1409
1874
1577
1878
1609
1890
1485
1621
1243
1523
1283
1512
1218
1458
1303
1555
1434
1769
1463
1527
1201
1353
778
0
0
1032
981
1292
1062
1409
1093
1370
1183
1527
1284
1490
1152
1541
1234
1618
1389
1621
1296
1526
1291
1645
1356
1693
1342
1647
1390
1730
1566
1874
1509
1833
1476
1781
1537
1842
1685
1970
1743
2094
1747
1961
1653
1878
1621
1872
1475
1866
1556
1807
1612
1776
1551
1654
1277
1674
1450
1605
1313
1521
1349
1625
1349
1570
1294
1745
1358
1621
1529
1837
1525
1821
1327
1519
1183
1438
1192
1530
1049
1458
1104
1343
1090
1333
1043
1463
1257
1595
1357
1774
1417
1531
1084
1306
956
1156
1012
1241
1001
1234
1009
1326
1053
1317
986
1162
523
0
0
1256
1156
1643
1307
1669
1332
1646
1435
1699
1469
1774
1413
1829
1494
1867
1608
1949
1617
1833
1640
1968
1718
1985
1677
2039
1800
2110
1837
2189
1740
2244
1890
2167
1860
2170
1914
2252
2005
2504
2148
2391
2139
2486
2205
2402
2054
2381
2035
2490
2154
2403
1966
2154
1777
2073
1860
2106
1815
1984
1802
2030
1755
1994
1736
2134
1805
2154
1889
2389
2043
2501
2086
2088
1709
2011
1671
2006
1577
1946
1585
1990
1592
1758
1581
1957
1712
2138
1956
2322
1997
2292
1754
1846
1493
1732
1580
1853
1501
1770
1448
1773
1613
1803
1429
1755
1143
0
0
1549
1481
1772
1526
1858
1641
1947
1649
1897
1661
1941
1624
1988
1777
2029
1706
2004
1823
2061
1829
2074
1883
2132
1817
2145
1846
2012
1741
2106
1824
2102
1865
2182
1834
2192
1820
2125
1882
2216
2042
2346
2078
2339
2123
2270
2098
2315
2082
2482
2189
2362
1854
2102
1750
2058
1749
2004
1655
1981
1629
1955
1578
1815
1698
1914
1652
1930
1682
2042
1814
2203
1876
2090
1656
1878
1610
1845
1584
1623
1450
1640
1430
1608
1341
1653
1476
1789
1659
2028
1781
1974
1626
1686
1265
1593
1283
1541
1204
1450
1242
1510
1326
1473
1301
1520
932
0
0
1624
1403
1721
1451
1723
1605
1975
1621
1942
1562
1939
1563
2008
1736
2053
1649
1940
1687
1930
1656
2008
1693
2049
1745
2157
1836
1957
1722
2051
1863
2101
1805
2054
1737
2092
1717
2030
1721
2041
1843
2244
1897
2102
1914
2155
1924
2245
2113
2518
2165
2337
1805
2108
1842
2083
1814
1986
1613
1949
1563
1900
1510
1844
1604
1894
1578
1758
1517
1849
1645
2136
1860
2154
1821
2010
1594
1733
1445
1585
1343
1620
1314
1586
1294
1608
1339
1634
1438
1845
1639
1890
1583
1619
1321
1622
1252
1598
1139
1401
1182
1527
1134
1358
1130
1380
820
0
0
1262
1174
1493
1214
1575
1426
1871
1476
1716
1429
1669
1402
1839
1509
1773
1403
1653
1322
1633
1435
1653
1486
1840
1482
1865
1523
1738
1378
1733
1557
1752
1465
1766
1416
1811
1449
1623
1461
1762
1467
1798
1481
1730
1472
1746
1589
1912
1747
2158
1717
1868
1536
1841
1609
1949
1595
1787
1414
1677
1318
1653
1318
1492
1320
1565
1373
1569
1265
1486
1165
1572
1412
1802
1563
1882
1433
1576
1218
1386
1094
1333
1097
1428
1024
1317
995
1375
1162
1410
1130
1474
1226
1330
1128
1490
1128
1392
921
1158
873
1133
885
1114
906
1057
614
0
0
1580
1357
1749
1351
1883
1719
2146
1714
2050
1737
2075
1748
2226
1962
2267
1855
2116
1865
2146
1852
2167
1876
2333
2005
2319
1893
2109
1858
2138
1879
2135
1866
2196
1848
2206
1912
2144
1825
2107
1796
2158
1810
2154
1879
2242
2040
2410
2215
2441
1970
2267
1879
2309
2082
2437
2146
2472
2037
2282
1892
2139
1812
2027
1739
2071
1794
2026
1654
2029
1653
2043
1707
2260
2052
2327
1962
2221
1854
2066
1686
1966
1634
1942
1645
1851
1583
1899
1549
1946
1563
1919
1622
1914
1655
2124
1762
2018
1530
1715
1413
1752
1425
1602
1323
1607
1116
0
0
1634
1509
1914
1733
2107
1868
2169
1905
2077
1766
2196
1886
2226
2023
2454
2128
2354
2110
2398
2068
2448
2222
2597
2301
2534
2186
2301
2045
2146
1910
2274
1985
2259
2027
2268
1968
2178
1924
2237
1921
2148
1834
2133
1905
2223
1981
2315
2039
2298
1853
2057
1873
2145
1979
2321
2141
2366
2134
2422
2051
2171
1848
1986
1661
1972
1651
1876
1627
1869
1560
1869
1589
1839
1730
2046
1812
2036
1805
2000
1694
1943
1569
1707
1515
1636
1342
1639
1456
1621
1418
1605
1485
1610
1626
1903
1654
1914
1469
1594
1285
1501
1226
1445
1097
1352
974
0
0
1461
1397
1627
1556
1928
1640
1946
1579
1797
1497
1843
1610
1977
1762
2090
1841
2108
1838
2214
2005
2315
2172
2633
2287
2497
2164
2266
1938
2142
1849
2139
1779
2227
1974
2310
1961
2170
1781
2161
1842
1993
1713
2065
1756
2069
1730
2043
1707
2049
1613
1853
1663
2002
1681
1989
1829
2141
1987
2358
2058
2296
1906
2010
1563
1874
1591
1733
1538
1773
1442
1667
1482
1741
1470
1806
1569
1831
1713
2055
1666
1989
1497
1598
1372
1549
1218
1513
1326
1483
1234
1501
1344
1517
1520
1838
1588
1834
1396
1433
1192
1453
1124
1328
954
1194
769
0
0
1128
1059
1409
1170
1530
1146
1565
1245
1426
1157
1448
1192
1514
1318
1687
1457
1634
1325
1759
1534
1813
1779
2218
1941
2166
1869
2030
1712
1962
1733
1883
1670
1989
1914
2210
1811
1956
1599
1798
1520
1733
1531
1746
1507
1802
1438
1766
1387
1694
1309
1666
1406
1706
1305
1627
1458
1749
1645
1965
1698
2025
1729
1867
1480
1722
1286
1526
1261
1362
1116
1449
1154
1363
1126
1350
1201
1598
1434
1803
1548
1806
1397
1373
1068
1287
936
1229
1137
1241
1003
1203
1112
1304
1259
1507
1355
1616
1200
1333
1035
1221
842
982
746
806
458
0
0
1425
1306
1704
1465
1787
1449
1812
1479
1773
1466
1837
1453
1789
1531
1933
1629
1936
1670
1989
1762
2125
1957
2415
2132
2359
2114
2277
2025
2340
2031
2354
2091
2508
2376
2664
2270
2362
2018
2394
1946
2330
1936
2314
2053
2358
1954
2315
1858
2182
1858
2069
1805
2154
1846
2133
1882
2202
1965
2274
2029
2356
2157
2509
2050
2357
1909
2162
1828
1930
1653
1986
1674
1866
1618
1954
1759
2017
1911
2322
2077
2383
1892
1965
1646
1933
1547
1797
1621
1898
1573
1850
1662
1914
1785
2219
1833
2117
1743
1928
1636
1819
1425
1749
1278
1509
1050
0
0
1693
1619
1982
1613
1787
1602
1906
1733
2018
1700
1973
1655
1974
1637
1918
1698
2043
1829
2132
1897
2155
2034
2379
1962
2220
1962
2302
2013
2201
1981
2230
2137
2468
2298
2514
2163
2320
2093
2378
2081
2338
2134
2402
2249
2582
2115
2260
1878
2034
1731
1975
1802
1949
1678
1895
1814
2004
1690
2034
1766
2039
1885
2132
2004
2317
1969
2185
1757
1983
1588
1819
1510
1705
1507
1743
1484
1762
1689
1930
1818
2049
1669
1774
1476
1710
1412
1666
1465
1669
1314
1673
1422
1733
1578
1931
1606
1755
1488
1717
1396
1623
1226
1510
1125
1357
923
0
0
1585
1393
1724
1433
1670
1419
1808
1435
1866
1459
1778
1477
1834
1462
1806
1531
1844
1563
1943
1652
1945
1810
1999
1678
2045
1741
2036
1766
1930
1855
2091
1882
2242
1933
2206
1905
2040
1809
2146
1842
2237
2006
2318
2201
2536
2172
2206
1769
1949
1596
1852
1577
1835
1561
1863
1645
1836
1522
1877
1518
1837
1652
1967
1733
2228
1958
2174
1769
1927
1589
1789
1502
1658
1322
1614
1318
1653
1477
1702
1448
1742
1486
1715
1513
1735
1439
1672
1368
1586
1194
1551
1304
1592
1406
1648
1453
1554
1341
1611
1223
1488
1103
1450
1075
1230
778
0
0
1217
1181
1538
1190
1422
1256
1533
1334
1508
1288
1559
1227
1521
1242
1486
1325
1581
1381
1757
1483
1651
1463
1717
1381
1737
1381
1730
1482
1686
1457
1713
1568
1853
1589
1802
1598
1768
1540
1756
1499
1879
1684
2045
1937
2293
1903
2018
1546
1762
1418
1620
1395
1584
1284
1586
1339
1657
1281
1594
1325
1493
1348
1541
1418
1801
1517
1882
1651
1842
1452
1594
1264
1466
1149
1414
1145
1299
1142
1382
1154
1398
1259
1484
1365
1697
1323
1525
1258
1326
1012
1393
1077
1307
1107
1370
1131
1261
969
1233
1032
1207
901
1237
858
1116
626
0
0
1614
1455
2051
1588
1745
1489
1809
1564
1973
1626
1896
1586
1934
1512
1837
1615
2018
1840
2159
1933
2149
1781
2111
1750
2091
1786
2097
1849
2071
1889
2205
1845
2277
1926
2274
1975
2226
1898
2200
1934
2213
2000
2522
2376
2710
2306
2417
2066
2293
1833
2157
1853
2179
1751
2074
1826
2205
1812
2197
1817
2032
1801
2057
1908
2211
1941
2383
2117
2441
2156
2279
1834
2082
1669
1938
1631
1938
1700
1930
1687
1986
1817
2196
1975
2377
2098
2338
1917
2009
1653
2013
1610
1963
1627
1979
1680
1871
1542
1755
1531
1877
1645
1969
1518
1717
1133
0
0
1803
1807
2312
1937
2165
1883
2157
1919
2197
1970
2276
1919
2181
1802
2108
1878
2237
2005
2387
2053
2150
1927
2125
1882
2230
1898
2242
1882
2177
1924
2138
1896
2089
1941
2223
1882
2159
1901
2165
1800
2117
2052
2410
2111
2452
2040
2244
1919
2241
1977
2274
1974
2245
1730
1981
1680
2001
1732
1947
1691
1976
1643
1938
1676
1982
1681
1998
1956
2356
2104
2181
1682
1844
1590
1764
1430
1718
1394
1714
1491
1738
1499
1845
1695
1966
1901
2061
1737
1819
1434
1685
1409
1620
1498
1733
1503
1671
1117
1578
1200
1641
1454
1723
1277
1523
974
0
0
1613
1634
2098
1769
2020
1773
2088
1830
2186
1996
2282
1848
2192
1858
2105
1885
2217
1962
2374
1837
2080
1813
2050
1763
2146
1871
2199
1896
2183
1850
2103
1828
1924
1712
2138
1693
2011
1709
2011
1691
1994
1756
2263
1901
2207
1770
2074
1796
2116
1877
2330
2003
2254
1645
1929
1585
1898
1529
1794
1642
1787
1550
1805
1495
1814
1429
1846
1710
2149
1962
2068
1606
1923
1493
1673
1362
1644
1355
1585
1370
1629
1347
1705
1445
1830
1783
2029
1606
1862
1438
1638
1259
1532
1266
1588
1314
1514
1050
1397
1076
1456
1321
1640
1250
1458
864
0
0
1248
1242
1626
1282
1618
1362
1621
1482
1850
1626
1992
1581
1922
1570
1830
1548
2071
1801
2052
1638
1826
1594
1901
1674
2091
1707
2124
1828
2057
1725
1891
1530
1750
1390
1869
1405
1731
1426
1757
1403
1768
1492
1914
1493
1751
1451
1723
1386
1752
1709
2141
1817
2048
1533
1756
1509
1738
1365
1626
1294
1554
1314
1593
1325
1623
1210
1520
1396
1703
1496
1764
1461
1732
1387
1578
1210
1437
1123
1238
1049
1371
1037
1445
1208
1412
1373
1706
1429
1672
1306
1458
1121
1380
1115
1389
1143
1273
814
1192
772
1120
1046
1328
1055
1306
765
0
0
1438
1331
1767
1474
1850
1509
1842
1595
2004
1730
2161
1716
2028
1738
1979
1762
2370
2006
2296
1886
2214
1956
2375
2117
2510
2174
2585
2274
2596
2202
2352
2035
2216
2043
2355
1959
2178
1853
2165
1846
2169
1866
2216
1874
2230
1853
2223
1928
2269
2094
2579
2352
2566
2055
2484
2090
2386
2018
2165
1863
2065
1826
2145
1796
2091
1732
2050
1806
2166
1919
2147
1930
2280
2052
2285
1947
2103
1676
1963
1653
1939
1621
1981
1645
1897
1748
2093
1883
2197
1834
2165
1690
1996
1786
1934
1641
1805
1373
1732
1330
1673
1459
1894
1617
1965
1400
0
0
1572
1461
1769
1681
2002
1653
1948
1665
2027
1786
2171
1693
2058
1885
2132
1917
2284
2062
2149
1866
2286
2014
2410
2192
2506
2242
2696
2405
2486
2180
2482
2125
2440
2234
2450
2114
2282
2018
2230
1853
2230
1902
2171
1858
2139
1938
2027
1797
2154
1991
2423
1977
2156
1854
2184
1986
2332
1985
2193
1697
1893
1594
1862
1627
1970
1627
1908
1545
1813
1666
1932
1722
2088
1986
2155
1832
1974
1639
1753
1508
1674
1446
1702
1410
1722
1398
1773
1557
1826
1583
1842
1559
1864
1617
1740
1323
1516
1178
1437
1142
1442
1115
1499
1358
1722
1045
0
0
1460
1357
1706
1527
1852
1498
1843
1594
1828
1522
1909
1581
1893
1702
1970
1658
2018
1701
1978
1620
2034
1694
2113
1861
2185
1899
2402
2085
2232
1917
2274
1930
2340
2157
2442
2005
2260
1973
2269
1841
2210
1845
2187
1755
2061
1706
1893
1591
2077
1781
2107
1742
1974
1721
2010
1833
2276
1936
2213
1736
1842
1501
1810
1442
1949
1514
1722
1460
1751
1509
1743
1502
1915
1806
2086
1892
2066
1671
1778
1410
1702
1390
1654
1336
1597
1274
1590
1378
1589
1362
1757
1579
1886
1545
1721
1289
1477
1087
1449
1032
1335
970
1327
1157
1462
937
0
0
1102
1041
1386
1217
1461
1205
1589
1239
1533
1237
1647
1268
1615
1445
1593
1362
1585
1417
1629
1424
1677
1434
1722
1497
1791
1550
1816
1526
1788
1433
1851
1645
2000
1817
2069
1821
1979
1773
2034
1758
2045
1866
1985
1581
1773
1483
1595
1318
1754
1467
1717
1448
1634
1341
1662
1541
1858
1574
1881
1534
1642
1303
1490
1165
1627
1189
1557
1211
1480
1243
1498
1245
1529
1475
1767
1643
1836
1497
1507
1073
1437
1177
1422
1123
1341
1035
1336
1128
1252
1025
1438
1420
1730
1460
1585
1085
1202
903
1243
928
1066
756
1120
810
1081
554
0
0
1368
1250
1578
1358
1749
1332
1822
1473
1737
1477
1878
1570
1885
1716
1863
1638
2002
1560
1970
1658
2003
1637
2068
1789
2085
1736
2172
1824
2010
1707
2202
1930
2251
1985
2379
2008
2304
2021
2414
2122
2545
2241
2536
2098
2388
1966
2066
1858
2130
1867
2076
1776
2052
1690
2004
1749
2240
1943
2221
1995
2281
1810
2013
1661
2011
1653
1962
1659
1914
1655
1948
1748
2056
1815
2157
2036
2381
1972
2209
1755
2066
1755
2011
1653
1854
1590
1896
1512
1908
1545
1957
1889
2322
1883
2125
1632
1736
1397
1691
1397
1691
1230
1566
1283
1590
1018
0
0
1622
1489
1924
1598
1797
1677
2030
1745
2056
1733
1989
1834
2059
1876
2077
1774
2033
1753
2054
1824
2043
1858
2142
1867
2077
1821
2106
1870
2110
1828
2132
1860
2171
1910
2142
1906
2167
1924
2269
2161
2634
2324
2597
2264
2337
2013
2129
1905
2066
1687
2021
1686
1951
1622
1905
1674
1915
1709
1969
1854
2107
1853
1965
1613
1985
1578
1768
1611
1831
1558
1795
1529
1789
1580
1914
1624
1994
1856
2034
1741
2061
1677
1802
1569
1647
1522
1633
1422
1754
1433
1771
1637
2022
1777
1957
1577
1613
1409
1614
1165
1402
1134
1318
1034
1341
942
0
0
1525
1351
1758
1393
1645
1485
1854
1578
1880
1581
2001
1707
2005
1746
1960
1661
1905
1586
1930
1608
1841
1690
1926
1629
1915
1654
1990
1617
2018
1676
1886
1661
2000
1718
1948
1732
1936
1723
1995
1881
2248
2102
2362
2018
2220
1977
2195
1802
1997
1682
1866
1594
1913
1531
1800
1490
1729
1495
1722
1549
1917
1768
1999
1546
1846
1524
1669
1429
1684
1377
1629
1360
1660
1317
1735
1380
1746
1514
1940
1674
2031
1546
1638
1386
1579
1366
1517
1242
1562
1353
1715
1563
1890
1567
1899
1485
1700
1403
1546
1030
1282
1008
1242
970
1224
619
0
0
1125
1083
1386
1168
1413
1217
1581
1285
1746
1396
1786
1522
1819
1485
1675
1454
1634
1339
1633
1323
1538
1301
1647
1370
1706
1430
1698
1348
1653
1342
1606
1438
1658
1385
1506
1327
1601
1367
1597
1416
1860
1565
1773
1592
1930
1634
1955
1690
1842
1351
1731
1312
1565
1320
1509
1214
1463
1193
1396
1162
1533
1397
1599
1353
1629
1250
1483
1218
1417
1169
1462
1162
1344
1037
1374
1093
1466
1264
1546
1425
1766
1300
1473
1152
1275
1042
1231
1077
1317
1125
1557
1229
1491
1183
1541
1353
1481
1184
1282
806
1073
769
1008
761
903
534
0
0
1386
1290
1742
1453
1794
1606
2012
1667
2098
1825
2218
1902
2222
1890
2106
1890
2090
1782
2059
1760
1979
1732
2142
1846
2237
1887
2135
1778
2045
1690
2036
1736
2149
1794
2062
1703
1974
1784
2082
1821
2138
1797
2138
1901
2251
1989
2339
2096
2414
2038
2277
1891
2186
1750
2045
1633
1998
1691
1963
1660
2001
1698
2005
1825
2176
1770
2124
1806
1935
1597
1941
1654
1928
1541
1918
1585
1906
1653
1936
1874
2328
1874
2197
1734
1860
1627
1790
1579
1866
1578
2010
1723
1915
1527
1938
1679
1991
1735
1888
1381
1635
1290
1534
1300
1549
959
0
0
1626
1515
1929
1773
2068
1900
2331
2049
2295
2203
2322
2187
2391
2140
2378
2050
2390
2123
2334
2018
2220
1928
2366
2125
2436
2134
2288
1885
2234
1879
2135
1795
2201
1876
2134
1844
2061
1846
2099
1832
2072
1858
1977
1763
2041
1833
2129
1963
2388
2061
2346
1992
2059
1698
1854
1579
1851
1649
1787
1573
1849
1482
1893
1663
2021
1741
2109
1643
1867
1490
1770
1551
1723
1432
1672
1448
1588
1333
1736
1569
1978
1786
1990
1548
1778
1470
1620
1341
1655
1457
1749
1595
1656
1300
1618
1389
1785
1430
1637
1291
1434
1157
1395
1051
1356
788
0
0
1386
1277
1680
1505
1870
1629
1961
1627
1961
1754
2035
1826
1986
1709
2071
1787
2135
1893
2146
1809
2022
1776
2301
2034
2344
1938
2288
1813
2046
1705
1906
1697
2179
1739
1969
1627
1866
1642
1893
1578
1797
1595
1818
1579
1819
1565
1859
1637
2043
1771
2072
1876
1941
1488
1682
1432
1658
1437
1686
1351
1672
1338
1655
1353
1786
1531
2044
1582
1801
1365
1608
1399
1621
1303
1477
1218
1427
1173
1469
1309
1706
1469
1771
1381
1558
1346
1495
1258
1509
1300
1557
1385
1533
1209
1417
1108
1483
1231
1546
1261
1462
1056
1265
868
1076
521
0
0
1082
1019
1380
1239
1525
1244
1535
1234
1450
1332
1525
1379
1611
1401
1593
1349
1710
1497
1691
1481
1705
1541
2026
1700
2061
1700
1932
1594
1875
1582
1901
1669
1961
1603
1693
1416
1648
1293
1594
1271
1570
1275
1538
1332
1545
1317
1529
1317
1691
1381
1807
1610
1651
1306
1442
1162
1396
1172
1340
1210
1447
1093
1430
1144
1446
1197
1762
1290
1526
1213
1394
1229
1414
1049
1267
1036
1193
941
1185
1032
1361
1211
1424
1143
1408
1145
1343
1110
1380
1228
1416
1219
1203
861
1110
933
1122
1005
1320
1151
1352
923
1074
677
1005
390
0
0
1370
1243
1660
1433
1691
1394
1746
1465
1719
1562
1782
1626
1787
1501
1864
1561
1963
1674
1978
1702
2044
1756
2296
1971
2245
1965
2223
1876
2228
1994
2498
2126
2518
2048
2327
1877
2107
1733
2062
1773
1990
1781
1992
1733
1968
1652
1988
1712
2098
1745
2145
1930
2171
1828
2004
1748
1989
1602
1875
1672
1949
1574
1958
1509
1984
1680
2036
1737
2149
1836
2106
1853
1993
1653
1842
1583
1790
1525
1778
1590
1883
1649
1927
1576
2071
1804
2078
1787
2140
1910
2092
1790
1850
1421
1770
1433
1812
1559
1845
1650
1911
1653
1704
1309
1543
889
0
0
1597
1535
1815
1533
1797
1477
1848
1617
1917
1693
1909
1609
1972
1703
1981
1730
2034
1764
2073
1734
2019
1821
2219
1910
2157
1817
2087
1822
2127
2021
2517
2175
2493
2010
2225
1994
2170
1890
2155
1802
1985
1718
1962
1659
1883
1673
1908
1595
1892
1645
1881
1653
1898
1722
1925
1797
1916
1609
1840
1420
1801
1508
1776
1444
1805
1494
1891
1685
1954
1725
2151
1834
1836
1501
1738
1403
1704
1305
1547
1356
1605
1349
1582
1458
1677
1620
1988
1773
2042
1717
1898
1414
1557
1282
1481
1205
1453
1286
1565
1366
1640
1435
1501
1174
1401
802
0
0
1442
1188
1621
1258
1603
1285
1674
1379
1757
1394
1776
1474
1780
1475
1810
1446
1803
1531
1797
1490
1778
1589
1917
1580
1859
1563
1797
1610
1939
1807
2194
1772
2050
1667
1973
1674
1978
1821
2115
1732
1877
1571
1865
1568
1751
1458
1707
1360
1693
1431
1614
1409
1720
1531
1830
1758
1849
1585
1722
1260
1633
1338
1636
1249
1547
1250
1656
1426
1829
1632
2009
1702
1751
1381
1621
1203
1457
1264
1434
1221
1441
1166
1390
1158
1467
1353
1774
1654
1945
1717
1753
1229
1339
1158
1346
1108
1277
1022
1279
1050
1374
1333
1473
1143
1212
671
0
0
1053
905
1271
1108
1318
1011
1381
1151
1493
1173
1489
1202
1518
1259
1522
1136
1534
1222
1383
1162
1484
1268
1557
1265
1607
1258
1517
1378
1614
1513
1771
1326
1667
1341
1540
1349
1645
1445
1782
1461
1730
1492
1621
1382
1618
1226
1493
1150
1417
1145
1405
1090
1357
1210
1449
1396
1682
1426
1600
1125
1402
1019
1380
983
1370
1099
1381
1178
1655
1414
1738
1441
1429
1083
1340
982
1275
931
1231
946
1211
971
1252
972
1190
1003
1389
1401
1662
1399
1533
1042
1164
765
1096
909
1128
838
1130
836
1093
961
1194
997
1193
584
0
0
1312
1181
1527
1265
1590
1222
1728
1460
1833
1559
1873
1483
1797
1493
1845
1589
1847
1488
1781
1525
1849
1536
1938
1587
1954
1629
2017
1761
2056
1745
2103
1655
1996
1654
1915
1687
2000
1730
2089
1754
2076
1957
2235
1984
2130
1854
2015
1640
1914
1585
1803
1551
1936
1574
1922
1795
2116
1908
2211
1691
1996
1578
1885
1532
1842
1542
1821
1576
2091
1801
2103
1810
1989
1621
2007
1559
1845
1477
1787
1438
1772
1413
1673
1446
1738
1526
1965
1883
2210
1975
2036
1549
1706
1426
1620
1385
1601
1378
1698
1333
1614
1474
1745
1449
1801
1200
0
0
1483
1391
1754
1461
1746
1432
1898
1722
2070
1750
2057
1819
1998
1664
1981
1634
2052
1678
1869
1622
1895
1579
1844
1589
1988
1767
2058
1805
2005
1641
1870
1653
1878
1590
1927
1598
1850
1541
1956
1622
1901
1807
2138
1899
2233
1828
1908
1589
1778
1429
1738
1497
1641
1405
1709
1566
1924
1689
2022
1686
1947
1545
1754
1431
1590
1323
1663
1437
1738
1498
1780
1450
1615
1336
1690
1453
1640
1270
1482
1309
1498
1297
1514
1210
1506
1310
1718
1563
1964
1796
1794
1412
1542
1169
1282
1032
1355
1079
1352
1077
1297
1109
1442
1209
1462
886
0
0
1293
1253
1559
1294
1609
1362
1813
1461
1873
1534
1872
1565
1870
1473
1817
1505
1810
1458
1682
1468
1776
1398
1680
1451
1770
1641
1979
1576
1733
1335
1678
1297
1738
1373
1642
1393
1602
1297
1727
1382
1586
1429
1796
1529
2006
1659
1877
1435
1621
1202
1582
1279
1557
1198
1477
1256
1609
1343
1850
1563
1890
1430
1639
1226
1476
1154
1497
1209
1433
1212
1492
1231
1426
1179
1554
1307
1586
1169
1370
1075
1410
1095
1373
968
1300
1026
1442
1342
1643
1386
1456
1086
1416
1032
1150
904
1221
796
1187
888
1120
827
1195
968
1211
781
0
0
869
811
1074
855
1099
854
1269
907
1307
1018
1245
904
1270
1002
1305
1026
1355
937
1316
989
1345
965
1233
1051
1485
1245
1499
1085
1317
973
1208
840
1246
851
1181
909
1189
818
1339
937
1129
971
1226
982
1306
1083
1339
1002
1286
872
1040
788
1069
810
1073
810
1109
850
1310
1018
1452
1136
1261
963
1028
738
955
721
942
726
1029
717
981
782
1125
968
1179
788
949
633
939
598
887
602
861
619
969
717
1025
723
935
565
936
613
762
526
821
379
755
517
598
441
746
450
762
330
0
0
0
0
0
0
0
0
0
0
0
0
0
0
0
0
0
0
0
0
0
0
0
0
0
0
0
0
0
0
0
0
0
0
0
0
0
0
0
0
0
0
0
0
0
0
0
0
0
0
0
0
0
0
0
0
0
0
0
0
0
0
0
0
0
0
0
0
0
0
0
0
0
0
0
0
0
0
0
0
0
0
0
0
0
0
0
0
0
0
0
0
0
0
0
0
0
0
0
0
0
0
0
0
0
0
0
0
0
