P2
108 88
4095
0
0
0
0
0
0
0
0
0
0
0
0
0
0
0
0
0
0
0
0
0
0
0
0
0
0
0
0
0
0
0
0
0
0
0
0
0
0
0
0
0
0
0
0
0
0
0
0
0
0
0
0
0
0
0
0
0
0
0
0
0
0
0
0
0
0
0
0
0
0
0
0
0
0
0
0
0
0
0
0
0
0
0
0
0
0
0
0
0
0
0
0
0
0
0
0
0
0
0
0
0
0
0
0
0
0
0
0
0
1604
1579
1986
1680
2091
1794
2134
1860
2219
1941
2130
1842
2237
1997
2249
1942
2261
1992
2267
2038
2298
2149
2473
2162
2401
2221
2413
2178
2505
2180
2507
2118
2503
2081
2459
2149
2427
2121
2463
2082
2485
2165
2426
2162
2451
2150
2322
2106
2381
2066
2426
2130
2466
2060
2411
2134
2309
2047
2376
2038
2341
1990
2224
1931
2310
1967
2213
1893
2194
1919
2201
1968
2170
1909
2154
1916
2125
1765
2142
1812
2088
1773
2161
1803
2096
1803
2029
1816
2085
1714
2006
1710
1964
1701
1981
1590
1883
1571
1962
1512
1755
1477
1682
1417
1513
1002
0
0
1513
1630
1961
1651
2111
1743
2122
1883
2132
1925
2140
1830
2139
1885
2269
1959
2214
1994
2301
2038
2348
2097
2493
2116
2413
2178
2469
2137
2437
2180
2486
2128
2484
2098
2525
2164
2417
2196
2382
2138
2468
2213
2422
2160
2372
2135
2358
2173
2474
2099
2468
2173
2440
2137
2357
2122
2330
2066
2378
2007
2338
1979
2278
2015
2323
1992
2201
1922
2236
1896
2190
1980
2206
1956
2216
1934
2141
1874
2190
1893
2172
1898
2169
1778
2123
1878
2005
1846
2050
1815
2092
1761
2050
1722
1931
1685
1985
1610
2027
1683
1863
1510
1765
1402
1495
1028
0
0
1830
1861
2331
1987
2441
2121
2518
2196
2587
2338
2549
2242
2617
2289
2634
2363
2747
2465
2794
2501
2801
2528
2914
2575
2897
2632
2891
2628
2900
2735
3059
2633
3019
2653
3070
2672
2940
2666
2920
2664
2947
2619
2902
2644
2973
2698
2938
2678
3004
2678
3029
2754
3096
2636
3001
2658
2825
2621
2980
2549
2946
2578
2934
2570
2985
2543
2808
2506
2830
2471
2839
2564
2884
2611
2858
2583
2802
2474
2818
2485
2778
2466
2813
2481
2837
2518
2665
2497
2738
2419
2780
2279
2549
2313
2601
2285
2621
2250
2653
2309
2584
2146
2493
2080
2245
1681
0
0
2259
2307
2725
2532
2890
2557
2947
2631
2917
2680
2891
2638
2981
2709
2967
2795
3039
2761
3017
2814
3145
2885
3165
2991
3063
2933
3119
2923
3179
2894
3209
2823
3176
2839
3186
3002
3190
2845
3163
2854
3188
2873
3130
2839
3156
2823
3051
2779
3144
2874
3138
2747
3014
2774
3018
2872
3048
2694
3023
2775
2978
2674
2909
2668
2936
2635
2910
2566
2820
2579
2818
2654
2920
2717
2788
2553
2882
2482
2697
2553
2778
2541
2798
2442
2753
2449
2654
2433
2708
2358
2738
2336
2700
2289
2611
2315
2565
2226
2685
2217
2534
2137
2438
2099
2151
1530
0
0
2088
2118
2555
2310
2750
2354
2906
2506
2740
2517
2794
2570
2877
2484
2868
2581
2902
2623
2886
2644
2992
2619
2990
2806
2971
2730
2981
2842
3067
2804
3062
2698
3092
2893
3034
2661
3016
2740
3016
2698
3051
2717
3035
2724
3066
2707
3033
2632
3079
2677
2974
2646
2938
2671
2974
2708
3018
2541
2893
2660
2946
2606
2874
2573
2957
2584
2821
2480
2831
2425
2787
2570
2842
2491
2729
2480
2774
2359
2658
2436
2666
2359
2622
2326
2682
2363
2629
2313
2623
2218
2601
2198
2506
2219
2522
2221
2408
2177
2517
2077
2460
2062
2277
1949
2066
1417
0
0
1844
1852
2179
2026
2344
2036
2477
2111
2418
2239
2437
2116
2530
2221
2498
2281
2532
2251
2564
2329
2628
2391
2709
2465
2672
2438
2709
2390
2730
2434
2741
2355
2834
2414
2798
2464
2677
2411
2790
2388
2740
2383
2716
2390
2749
2423
2735
2377
2775
2373
2741
2388
2630
2281
2670
2428
2678
2280
2628
2458
2609
2322
2519
2266
2596
2283
2568
2285
2541
2289
2509
2307
2499
2212
2509
2149
2485
2213
2284
2134
2474
2116
2277
2052
2342
2054
2232
2105
2330
1957
2310
1997
2224
1989
2177
1936
2212
1870
2276
1765
2181
1815
2071
1761
1715
1137
0
0
2066
1993
2436
2197
2677
2277
2765
2349
2685
2501
2722
2418
2890
2486
2819
2617
2901
2602
2970
2662
3003
2742
3066
2801
3090
2843
3159
2861
3132
2903
3213
2765
3181
2906
3245
2868
3114
2780
3261
2858
3193
2823
3117
2869
3170
2866
3141
2805
3140
2971
3213
2867
3140
2788
3070
2925
3226
2827
3074
2901
3138
2780
3080
2734
3060
2837
3081
2722
3090
2714
3028
2769
3088
2794
2969
2754
3057
2704
2925
2718
3005
2674
2975
2644
3054
2578
2900
2609
2914
2540
2929
2504
2876
2444
2805
2564
2805
2461
2851
2436
2810
2380
2642
2246
2302
1667
0
0
2253
2301
2764
2554
2845
2637
2980
2604
3029
2709
2993
2701
2973
2746
3086
2749
3105
2852
3169
2782
3000
2875
3208
2794
3234
2885
3210
2890
3208
2948
3306
3010
3289
3000
3202
2949
3288
3037
3218
2986
3216
2967
3285
2895
3130
2828
3201
2922
3102
2890
3100
2790
3069
2865
3106
2869
3147
2845
3056
2725
3018
2761
3015
2729
3094
2677
2967
2629
2982
2586
2987
2674
2954
2662
2853
2680
2837
2575
2770
2479
2933
2490
2735
2504
2781
2469
2804
2526
2735
2466
2661
2454
2672
2389
2629
2314
2645
2317
2605
2302
2513
2234
2306
2029
2198
1599
0
0
2114
2062
2572
2278
2718
2438
2808
2380
2724
2507
2738
2449
2843
2648
2986
2613
2946
2646
2986
2613
2868
2677
3022
2678
3126
2743
3061
2715
3064
2816
3142
2817
3146
2737
3065
2645
3108
2761
3090
2717
3016
2682
3098
2677
3003
2759
3010
2772
2935
2696
2916
2680
3022
2692
2932
2662
2966
2678
2911
2572
2935
2646
2864
2589
2974
2650
2906
2470
2865
2467
2826
2589
2746
2515
2738
2532
2698
2403
2671
2367
2741
2374
2664
2373
2620
2342
2667
2373
2536
2421
2536
2292
2524
2225
2520
2120
2570
2327
2391
2132
2441
2042
2194
1837
2034
1462
0
0
1863
1840
2286
2037
2414
2212
2505
2197
2545
2243
2450
2205
2454
2299
2584
2339
2665
2387
2696
2357
2622
2434
2762
2459
2856
2598
2811
2425
2730
2518
2809
2619
2866
2567
2725
2472
2758
2539
2724
2498
2750
2428
2830
2509
2758
2516
2765
2501
2772
2581
2765
2495
2702
2493
2768
2453
2797
2526
2714
2362
2687
2406
2669
2373
2670
2388
2627
2316
2606
2286
2683
2353
2536
2293
2538
2339
2514
2218
2491
2180
2522
2161
2450
2148
2402
2136
2417
2155
2428
2164
2307
2044
2335
2026
2316
2050
2306
2054
2213
1917
2181
1820
1989
1618
1875
1194
0
0
2106
2073
2515
2221
2692
2366
2778
2390
2858
2472
2827
2509
2805
2533
2966
2623
2953
2693
3006
2650
3045
2794
3205
2763
3229
2881
3161
2781
3156
2901
3303
2943
3258
2857
3153
2864
3180
2941
3235
2882
3170
2826
3258
2870
3240
2970
3223
2955
3190
2974
3282
2962
3274
2890
3268
2835
3218
2946
3151
2788
3191
2889
3185
2838
3301
2834
3214
2852
3187
2824
3185
2850
3078
2826
3058
2754
3028
2775
2970
2644
3059
2741
3052
2644
2974
2668
2964
2674
2920
2692
2948
2684
2934
2618
2866
2498
2862
2625
2767
2453
2716
2369
2681
2222
2491
1861
0
0
2266
2324
2841
2487
2834
2590
2919
2550
2873
2602
2958
2669
2977
2804
3051
2709
3058
2799
3221
2898
3023
2891
3225
2961
3152
2927
3234
2972
3251
3083
3352
3005
3203
2930
3160
2923
3193
2938
3172
2885
3146
2941
3189
2824
3118
2881
3214
2938
3256
2877
3140
2901
3138
2932
3074
2846
3140
2828
3090
2756
3017
2740
3052
2718
3081
2731
2950
2729
3047
2701
2933
2724
2991
2615
2940
2614
2949
2558
2778
2541
2806
2538
2909
2443
2849
2511
2737
2504
2731
2445
2711
2477
2662
2293
2706
2238
2587
2301
2491
2244
2511
2256
2473
2139
2077
1597
0
0
2171
2170
2639
2370
2714
2456
2773
2436
2789
2434
2838
2571
2836
2664
2954
2655
2953
2750
3058
2709
2995
2820
3140
2836
3092
2810
3066
2813
3101
2845
3157
2826
3056
2797
3067
2782
3048
2826
3172
2805
3053
2857
3097
2711
3052
2822
3113
2754
3142
2697
3029
2763
3061
2804
3092
2728
3068
2746
2986
2684
2939
2676
2957
2650
2970
2685
2946
2634
2870
2506
2857
2518
2945
2634
2831
2506
2775
2426
2718
2489
2743
2478
2709
2405
2770
2405
2667
2389
2706
2387
2724
2390
2477
2349
2605
2250
2590
2250
2476
2153
2429
2225
2373
1995
2051
1444
0
0
1960
1942
2407
2103
2443
2132
2410
2128
2483
2185
2543
2338
2599
2375
2711
2324
2640
2461
2768
2533
2706
2475
2781
2587
2820
2501
2776
2616
2774
2594
2869
2563
2769
2571
2886
2587
2865
2573
2884
2523
2840
2541
2866
2493
2837
2509
2802
2478
2918
2506
2842
2580
2754
2542
2694
2478
2858
2478
2786
2468
2622
2413
2692
2500
2690
2429
2632
2352
2652
2321
2620
2370
2661
2197
2642
2335
2533
2258
2542
2237
2477
2227
2584
2122
2480
2261
2370
2236
2437
2125
2388
2101
2354
2132
2404
2034
2402
2056
2242
1984
2238
1943
2218
1797
1881
1261
0
0
2122
2044
2598
2315
2668
2318
2734
2388
2762
2454
2907
2546
2876
2575
2939
2586
2962
2685
3108
2808
3066
2842
3136
2848
3149
2836
3191
2954
3141
2957
3279
2973
3227
2923
3214
2922
3242
3016
3243
2872
3246
3013
3244
2973
3218
2930
3261
2963
3350
2952
3260
2939
3270
3016
3243
2942
3309
3019
3254
2858
3192
2913
3228
2813
3206
2839
3196
2831
3169
2795
3143
2837
3200
2789
3180
2853
3124
2810
3066
2709
3094
2775
3102
2629
3062
2690
2953
2774
3077
2633
2985
2605
2910
2525
2965
2585
2872
2619
2823
2545
2913
2460
2740
2296
2411
1777
0
0
2357
2390
2826
2573
2773
2587
2920
2708
2966
2622
2957
2782
3002
2673
3101
2859
3068
2821
3102
2981
3267
2902
3245
2956
3260
2932
3161
2954
3234
2962
3268
2968
3162
3000
3208
2973
3262
2949
3166
2889
3339
2961
3170
2866
3190
2852
3201
2940
3197
2917
3195
2909
3149
2927
3088
2838
3080
2833
3110
2903
3088
2766
3067
2858
3057
2790
3012
2706
2912
2666
2967
2638
2917
2751
2998
2656
2842
2687
2892
2612
2838
2553
2746
2491
2772
2451
2770
2557
2774
2450
2694
2365
2687
2417
2698
2454
2728
2382
2635
2329
2584
2281
2421
2094
2242
1609
0
0
2230
2263
2666
2429
2698
2440
2853
2549
2874
2568
2942
2506
2852
2671
3034
2703
2985
2645
3029
2857
3178
2842
3171
2824
3185
2859
3144
2841
3110
2894
3221
2914
3241
2907
3133
2837
3253
2847
3086
2870
3206
2888
3142
2881
3148
2846
3129
2945
3238
2876
3148
2842
3123
2882
3037
2870
3016
2839
3070
2759
3083
2671
3025
2714
3102
2710
3018
2699
2852
2542
2907
2557
2899
2613
2870
2645
2877
2580
2803
2549
2845
2517
2746
2474
2764
2490
2732
2394
2730
2387
2608
2315
2719
2356
2688
2402
2780
2377
2504
2231
2542
2141
2263
2003
2205
1482
0
0
1876
1942
2361
2101
2387
2134
2458
2209
2550
2174
2503
2245
2527
2322
2621
2305
2662
2397
2722
2533
2858
2477
2856
2522
2845
2558
2768
2568
2738
2589
2904
2561
2924
2521
2882
2582
2930
2552
2804
2640
2909
2583
2845
2522
2818
2633
2897
2638
2941
2578
2804
2501
2768
2533
2809
2526
2770
2613
2794
2544
2709
2442
2739
2471
2729
2423
2704
2367
2620
2379
2642
2319
2637
2391
2619
2390
2588
2341
2558
2236
2518
2267
2445
2227
2478
2189
2489
2148
2432
2135
2347
2045
2420
2106
2431
2107
2381
2077
2293
1922
2164
1971
1960
1733
1898
1258
0
0
2126
2158
2526
2341
2625
2280
2709
2446
2827
2436
2797
2533
2885
2577
2925
2628
2932
2669
2971
2764
3202
2778
3197
2918
3254
2891
3167
2974
3196
2859
3297
2898
3278
2904
3218
2994
3279
2875
3282
2980
3378
3074
3373
2981
3303
2959
3390
3107
3405
3013
3342
3043
3370
3035
3300
2985
3220
2969
3236
3006
3288
2935
3217
2914
3227
2862
3165
2830
3090
2769
3117
2853
3138
2823
3201
2886
3142
2820
3097
2758
3114
2748
3094
2788
3020
2802
3049
2653
3008
2639
3031
2627
2962
2690
2906
2586
2861
2622
2837
2530
2778
2448
2638
2393
2532
1790
0
0
2267
2382
2807
2552
2889
2539
2942
2669
2981
2660
2970
2670
3120
2692
3120
2810
3150
2885
3204
2890
3098
2935
3308
2963
3250
2978
3268
2955
3273
2979
3239
2901
3321
3013
3272
2949
3255
3028
3204
2989
3277
2984
3242
2983
3226
2979
3250
2931
3290
3021
3261
3076
3190
2928
3228
2899
3188
2933
3217
2870
3154
2868
3050
2814
3022
2762
3067
2705
3044
2794
2956
2725
3053
2743
2938
2710
2885
2597
2788
2508
2871
2549
2812
2613
2828
2452
2734
2507
2817
2533
2683
2434
2692
2484
2770
2339
2693
2452
2605
2372
2509
2172
2356
2085
2243
1683
0
0
2219
2317
2670
2442
2790
2429
2871
2602
2900
2498
2853
2508
2950
2590
2973
2633
2997
2726
2957
2750
3001
2844
3163
2857
3145
2874
3165
2859
3084
2828
3117
2832
3153
2890
3210
2913
3258
2852
3173
2920
3242
2858
3171
2825
3092
2847
3095
2866
3209
2902
3172
2918
3145
2807
3130
2749
3152
2786
3165
2752
3014
2826
2961
2700
2994
2746
3053
2644
3019
2658
2873
2691
2970
2589
2925
2582
2862
2525
2733
2442
2829
2418
2706
2482
2698
2366
2687
2412
2693
2410
2670
2322
2597
2361
2654
2255
2634
2321
2511
2222
2389
2117
2326
2055
2134
1487
0
0
1819
1866
2338
2139
2393
2040
2481
2168
2515
2174
2538
2166
2656
2269
2550
2412
2658
2405
2733
2446
2705
2498
2810
2536
2825
2554
2872
2544
2821
2530
2829
2489
2926
2523
2835
2637
2881
2637
2857
2537
2855
2551
2829
2576
2794
2562
2877
2619
2878
2580
2892
2673
2793
2538
2799
2525
2839
2502
2763
2441
2799
2500
2654
2403
2758
2397
2699
2378
2667
2389
2661
2477
2602
2338
2666
2278
2563
2267
2486
2162
2585
2153
2448
2203
2408
2138
2474
2168
2397
2094
2460
2122
2436
2111
2346
2018
2372
2030
2237
1989
2173
1877
2141
1781
1756
1130
0
0
2069
2165
2629
2371
2743
2390
2742
2466
2854
2493
2829
2471
2934
2596
2931
2610
2992
2762
3021
2656
3081
2817
3270
2930
3190
2826
3238
2817
3162
2882
3174
2874
3275
2940
3330
3035
3281
2980
3261
2981
3406
3014
3290
3040
3290
3060
3342
2940
3353
3003
3407
3052
3386
2985
3286
3035
3326
2947
3304
2909
3221
2962
3173
2888
3248
2969
3318
2926
3237
2911
3160
2850
3246
2857
3184
2802
3086
2772
3038
2733
3003
2636
2966
2685
3066
2672
2965
2710
3086
2740
2982
2653
2914
2684
2907
2636
2901
2521
2901
2521
2836
2347
2666
2272
2402
1718
0
0
2298
2422
2857
2577
2933
2641
3017
2660
3025
2671
2992
2730
3089
2836
3104
2772
3229
2898
3242
2996
3290
2980
3295
2962
3235
2994
3210
3053
3284
3034
3286
3070
3335
3079
3382
3092
3398
3099
3309
3030
3364
3053
3363
3066
3339
2990
3353
3005
3397
3064
3295
2970
3266
3034
3274
2954
3139
2947
3113
2834
3158
2839
3186
2875
3068
2820
3066
2754
3049
2641
2951
2740
2993
2738
2957
2676
3010
2708
2901
2699
2923
2642
2757
2550
2810
2549
2814
2586
2865
2458
2749
2471
2773
2507
2605
2434
2669
2379
2589
2340
2548
2254
2487
2153
2234
1485
0
0
2197
2226
2609
2255
2874
2408
2824
2465
2775
2394
2933
2491
2894
2682
3028
2670
3109
2762
3135
2828
3111
2757
3186
2758
3109
2823
3158
2858
3148
2840
3149
2885
3201
2944
3146
2894
3265
2872
3254
2967
3198
2918
3159
2854
3172
2855
3214
2781
3277
2971
3227
2850
3200
2850
3103
2789
3003
2837
3025
2726
3026
2706
2989
2729
2990
2765
2989
2677
2967
2565
2913
2660
2901
2612
2950
2532
2810
2594
2860
2542
2741
2466
2762
2482
2723
2493
2635
2461
2714
2290
2661
2425
2618
2333
2512
2269
2690
2352
2517
2238
2467
2103
2272
2041
2091
1333
0
0
1906
1909
2363
2090
2459
2224
2507
2276
2613
2204
2643
2268
2581
2356
2701
2386
2754
2453
2779
2527
2843
2526
2885
2571
2837
2626
2747
2587
2935
2669
2963
2687
2939
2687
2852
2686
2929
2730
2926
2582
2941
2640
2884
2590
2902
2603
2885
2578
2962
2653
2873
2575
2893
2663
2890
2498
2781
2531
2738
2482
2728
2467
2660
2426
2831
2498
2729
2448
2702
2357
2692
2400
2629
2429
2673
2325
2637
2358
2492
2294
2534
2206
2415
2242
2408
2260
2419
2290
2434
2118
2370
2250
2450
2143
2270
2118
2451
2069
2330
2037
2184
1949
2115
1783
1909
1110
0
0
2157
2174
2623
2308
2818
2410
2772
2530
2842
2501
3005
2565
2909
2685
3089
2653
3115
2810
3197
2892
3182
2871
3233
2894
3188
2972
3179
3034
3243
2994
3322
3062
3342
3113
3382
3037
3426
3090
3270
3053
3368
2953
3343
3143
3362
3062
3382
2967
3482
3125
3301
3043
3408
3141
3368
2956
3325
2990
3169
2959
3222
2839
3157
2998
3243
2986
3259
2919
3236
2910
3241
2861
3215
2864
3297
2864
3163
2868
3147
2858
3146
2757
3049
2769
3070
2845
2959
2817
3138
2696
2994
2740
2993
2691
2837
2618
2967
2563
2878
2565
2835
2501
2746
2369
2546
1702
0
0
2345
2457
2820
2473
2823
2650
2877
2665
2986
2753
3065
2743
3096
2803
3098
2888
3093
2866
3147
2925
3178
2963
3238
2977
3252
3061
3307
3013
3348
3068
3426
3045
3436
3040
3443
3122
3362
3085
3295
3046
3322
2938
3304
2953
3212
3058
3296
3006
3336
3039
3291
3070
3155
3006
3221
2925
3180
2923
3026
2931
3147
2853
3066
2868
3115
2877
3162
2836
2997
2776
2984
2708
2910
2690
3042
2698
2845
2556
2874
2612
2853
2569
2852
2501
2777
2518
2837
2539
2839
2562
2724
2469
2710
2413
2738
2421
2635
2354
2735
2381
2564
2260
2448
2103
2134
1553
0
0
2180
2245
2687
2381
2765
2517
2837
2573
2954
2567
2912
2558
2968
2613
2967
2713
3029
2818
3043
2794
3080
2746
3164
2857
3093
2889
3225
2872
3204
2922
3241
2948
3245
2977
3290
2966
3302
2865
3237
2950
3236
2859
3181
2853
3129
3021
3155
2939
3265
2949
3196
2978
3193
2877
3077
2858
3108
2837
3005
2795
3093
2852
2985
2626
3045
2739
3076
2677
2925
2669
2946
2651
2837
2610
2906
2597
2832
2546
2734
2524
2858
2509
2725
2457
2674
2416
2677
2350
2668
2487
2674
2388
2634
2295
2635
2261
2596
2141
2568
2194
2472
2221
2396
2026
2123
1455
0
0
1989
2029
2406
2093
2440
2261
2498
2149
2522
2291
2521
2330
2746
2376
2669
2453
2714
2431
2725
2563
2806
2509
2954
2686
2866
2678
2957
2682
2973
2658
2986
2694
3042
2711
3011
2708
2987
2632
2989
2726
2958
2653
2946
2653
2921
2669
2914
2660
2977
2633
2869
2676
2890
2650
2894
2676
2871
2540
2877
2586
2807
2568
2735
2500
2858
2480
2826
2473
2639
2485
2694
2354
2615
2459
2722
2459
2578
2308
2570
2309
2546
2232
2601
2297
2562
2298
2541
2094
2500
2188
2422
2102
2307
2030
2301
2073
2324
1936
2377
2026
2290
2042
2232
1750
1895
1309
0
0
2176
2159
2592
2271
2622
2418
2775
2457
2730
2497
2843
2580
2955
2633
2928
2729
3095
2729
3137
2785
3141
2875
3204
3002
3209
2932
3319
2989
3291
2999
3437
3098
3353
3061
3407
3026
3382
3060
3385
3113
3485
3049
3401
3056
3370
3126
3346
3074
3386
3150
3352
3085
3400
3038
3373
3067
3372
3042
3210
3099
3248
3062
3276
2955
3322
2952
3282
2902
3154
2919
3185
2913
3170
2945
3286
2966
3133
2818
3112
2785
3082
2770
3129
2850
3082
2777
3079
2706
3050
2724
2925
2579
2889
2634
2861
2586
2808
2535
2858
2555
2821
2591
2794
2369
2545
1922
0
0
2389
2338
2768
2555
2852
2582
2958
2719
2917
2806
3017
2740
3114
2774
3137
2806
3061
2803
3146
3010
3220
2997
3258
3026
3242
2989
3304
3034
3364
3050
3253
3097
3466
3003
3428
3095
3374
2978
3302
2986
3386
3119
3266
2931
3338
2996
3313
3003
3244
2977
3234
2977
3193
2905
3220
2913
3242
2849
3061
2882
3007
2804
3000
2786
3053
2782
3056
2747
3063
2677
2966
2676
3084
2747
3064
2691
2973
2598
2728
2509
2785
2516
2821
2582
2767
2539
2776
2537
2740
2490
2698
2437
2722
2453
2644
2377
2632
2370
2661
2385
2615
2242
2570
2197
2321
1638
0
0
2368
2263
2781
2425
2769
2537
2871
2662
2905
2687
2989
2678
3030
2760
2995
2681
3081
2761
3101
2909
3172
2859
3186
2890
3241
2920
3218
2964
3245
3013
3275
3012
3442
3035
3307
3057
3284
2992
3306
3056
3301
3020
3290
2905
3242
2946
3228
2876
3174
2969
3261
2943
3186
2891
3178
2890
3279
2873
3063
2801
2962
2747
2962
2738
3084
2745
3030
2718
3045
2724
2949
2641
3035
2692
2925
2647
2882
2638
2904
2530
2818
2607
2792
2421
2778
2527
2806
2559
2733
2459
2762
2437
2628
2392
2698
2346
2637
2339
2646
2308
2587
2212
2436
2214
2216
1634
0
0
1950
2046
2333
2142
2556
2229
2565
2338
2561
2322
2635
2344
2706
2386
2693
2472
2691
2402
2766
2502
2757
2550
2902
2628
2873
2623
2894
2715
2952
2653
2956
2670
3015
2743
2962
2670
2971
2677
2992
2708
2928
2633
3035
2607
2850
2602
2922
2600
2929
2632
2898
2600
2924
2669
2851
2562
2889
2562
2852
2530
2746
2469
2710
2562
2786
2497
2674
2421
2730
2331
2645
2358
2739
2346
2594
2334
2657
2285
2558
2314
2645
2322
2507
2274
2506
2263
2533
2376
2456
2179
2410
2153
2405
2164
2394
2142
2370
2059
2341
1985
2220
2021
2165
1906
1941
1360
0
0
2221
2126
2661
2341
2804
2471
2845
2556
2884
2576
2923
2526
2994
2630
3046
2693
3017
2690
3118
2861
3127
2827
3289
2978
3253
2997
3300
2971
3354
3041
3310
3070
3350
3044
3310
3074
3294
3028
3338
3044
3370
3105
3330
3032
3384
3090
3408
3022
3354
3014
3415
3062
3350
3003
3394
3070
3403
3060
3319
2985
3248
2980
3317
2978
3396
2995
3269
2948
3290
2877
3157
2868
3268
2868
3218
2856
3114
2794
3129
2778
3144
2786
3076
2802
3051
2763
3133
2781
2965
2712
3051
2692
3033
2677
2965
2645
2962
2605
2958
2533
2853
2491
2767
2398
2533
1890
0
0
2377
2404
2778
2526
2923
2551
2894
2586
2973
2779
3029
2794
3094
2814
3217
2861
3253
2843
3305
2916
3270
3010
3259
3069
3274
3057
3364
3042
3301
3142
3290
3106
3306
2988
3382
3033
3365
3112
3354
3113
3362
3041
3326
3093
3389
3058
3343
3058
3227
3041
3200
2922
3237
2903
3316
2934
3266
2869
3125
2905
3157
2760
3092
2789
3039
2874
3057
2770
2985
2745
2957
2724
2870
2666
3082
2717
3004
2650
2843
2719
2997
2651
2845
2581
2788
2453
2780
2569
2760
2578
2735
2474
2649
2422
2677
2377
2571
2267
2646
2267
2594
2311
2493
2203
2295
1627
0
0
2286
2242
2711
2525
2824
2449
2889
2468
2930
2660
2921
2681
2973
2765
3086
2695
3206
2838
3101
2829
3181
2872
3226
2973
3242
2925
3229
2969
3197
2938
3268
3025
3228
2980
3243
2906
3299
2986
3255
2975
3319
2972
3354
2982
3343
2985
3190
2926
3216
2971
3195
2836
3163
2882
3275
2887
3090
2846
3087
2729
2986
2632
2989
2742
3039
2831
3010
2813
2987
2678
2898
2709
2861
2601
2966
2666
2933
2557
2756
2551
2918
2521
2836
2592
2735
2506
2781
2494
2740
2377
2662
2427
2639
2373
2641
2346
2574
2324
2571
2213
2548
2225
2378
2164
2224
1573
0
0
1931
1975
2414
2237
2478
2206
2536
2213
2613
2379
2551
2327
2617
2370
2738
2361
2818
2475
2795
2597
2792
2586
2837
2621
2843
2602
2925
2597
2909
2740
2915
2685
2962
2678
3021
2693
2926
2694
3018
2630
3010
2654
3005
2597
2920
2597
2821
2597
2858
2649
2896
2616
2860
2612
2930
2557
2754
2482
2810
2431
2725
2408
2741
2442
2762
2546
2795
2544
2634
2306
2710
2453
2675
2410
2655
2329
2636
2346
2530
2330
2575
2256
2496
2306
2524
2153
2459
2318
2440
2248
2403
2093
2418
2210
2314
2070
2427
2021
2358
2037
2317
2004
2134
1845
1930
1282
0
0
2210
2172
2612
2420
2785
2458
2794
2517
2913
2581
2928
2632
2974
2687
3140
2770
3189
2766
3167
2812
3148
2876
3217
2997
3290
2955
3359
2942
3289
3113
3343
3003
3348
3061
3400
3030
3366
3105
3418
3107
3394
3102
3445
3036
3406
3020
3414
3049
3399
3052
3447
2999
3334
3046
3302
3077
3338
2943
3294
2969
3313
2898
3253
2953
3264
2994
3298
2966
3182
2962
3141
2934
3141
2925
3214
2914
3237
2837
3133
2858
3112
2789
3177
2856
3063
2657
3037
2801
3045
2765
2994
2621
2970
2622
2939
2645
2893
2613
2958
2485
2861
2574
2723
2383
2548
1883
0
0
2426
2408
2941
2577
3012
2757
3026
2766
2955
2807
3115
2855
3143
2937
3189
2932
3194
3012
3177
2929
3203
3023
3341
3014
3404
3044
3371
3058
3341
3131
3407
3118
3310
3062
3370
3183
3465
3101
3436
3121
3476
3101
3357
3145
3385
3157
3380
3126
3309
3066
3349
3067
3300
3010
3244
2989
3272
2895
3233
2964
3124
2913
3123
2934
3181
2868
3165
2842
3079
2918
3074
2834
3088
2789
3028
2731
2942
2602
2884
2504
2857
2522
2901
2658
2858
2562
2803
2580
2894
2570
2794
2575
2907
2493
2751
2493
2922
2484
2630
2398
2593
2359
2506
2142
2310
1682
0
0
2338
2256
2728
2394
2858
2519
2957
2635
2914
2669
3010
2610
3005
2768
3034
2651
3095
2821
3073
2836
3146
2844
3234
2841
3313
2955
3253
2926
3216
2900
3259
2982
3142
2965
3277
2967
3292
2957
3300
3000
3265
3003
3274
2949
3213
2954
3241
2893
3241
2903
3173
2888
3099
2851
3130
2906
3183
2824
3217
2869
3076
2807
3065
2762
3069
2754
3053
2709
3023
2737
2938
2666
3017
2631
2950
2579
2882
2510
2788
2430
2795
2475
2836
2561
2788
2452
2763
2514
2907
2406
2765
2536
2717
2403
2615
2379
2695
2404
2554
2299
2494
2262
2426
2020
2158
1424
0
0
1950
1949
2489
2214
2561
2289
2632
2274
2563
2332
2621
2299
2658
2466
2818
2438
2746
2570
2765
2533
2753
2606
2884
2536
2932
2616
2832
2611
2940
2681
2938
2731
2900
2618
2961
2701
3021
2717
3005
2727
3006
2747
2933
2658
2939
2715
2920
2681
2931
2701
2871
2650
2846
2608
2805
2618
2874
2545
2847
2594
2783
2570
2804
2544
2770
2437
2731
2360
2723
2494
2725
2461
2818
2349
2614
2317
2620
2265
2533
2253
2562
2249
2643
2319
2532
2237
2576
2267
2554
2207
2481
2269
2518
2258
2344
2192
2413
2065
2380
2087
2347
2007
2186
1754
1901
1298
0
0
2231
2247
2741
2383
2888
2587
2842
2601
2916
2634
3022
2644
3021
2727
3105
2824
3171
2878
3113
2942
3222
2954
3252
2907
3293
2938
3301
3050
3390
3030
3433
3139
3362
3034
3449
3084
3462
3130
3497
3126
3522
3093
3483
3154
3423
3245
3435
3211
3492
3111
3430
3093
3377
3078
3330
3104
3398
3109
3368
3108
3317
3053
3337
3035
3309
3011
3188
2888
3285
3035
3266
3015
3323
2947
3261
2826
3217
2750
3031
2722
3122
2786
3133
2858
3149
2827
3110
2818
3066
2811
3058
2746
3140
2806
2917
2750
3101
2681
2933
2593
2933
2576
2843
2362
2607
1810
0
0
2397
2491
2986
2634
2989
2743
3094
2797
3050
2792
3066
2723
3169
2887
3240
2921
3299
2957
3268
2964
3285
3019
3407
3002
3331
3108
3352
3094
3378
3145
3410
3099
3486
3085
3332
3134
3420
3156
3387
3118
3421
3150
3386
3122
3364
3145
3287
3001
3249
2937
3341
3022
3259
2949
3237
3010
3139
2935
3147
2937
3098
2929
3100
2873
3172
2890
3044
2774
3106
2794
3002
2725
3085
2706
3018
2668
3034
2667
2884
2660
2909
2676
2952
2638
2862
2555
2850
2559
2843
2453
2820
2521
2794
2526
2660
2513
2763
2506
2814
2429
2674
2417
2487
2212
2321
1684
0
0
2319
2314
2768
2550
2868
2598
2866
2660
2905
2593
2907
2678
3060
2730
3156
2778
3189
2804
3141
2824
3217
2823
3240
2949
3220
2940
3186
2962
3224
3053
3254
2954
3271
2935
3314
3053
3293
2935
3295
3076
3244
2971
3257
2925
3250
2971
3181
2975
3214
2878
3212
2908
3151
2843
3149
2853
3018
2797
3071
2805
2925
2826
3035
2853
3078
2717
2989
2711
2988
2653
2946
2682
2970
2619
2992
2564
2973
2610
2741
2671
2869
2581
2816
2492
2813
2443
2805
2464
2746
2478
2635
2388
2672
2442
2686
2394
2693
2354
2746
2264
2658
2292
2442
2090
2240
1557
0
0
2027
2026
2508
2197
2515
2278
2652
2348
2603
2403
2669
2358
2724
2493
2778
2425
2821
2626
2889
2554
2865
2629
2941
2605
2818
2651
2987
2608
2968
2689
3026
2709
3012
2717
3000
2818
3057
2733
2928
2745
2991
2770
3025
2742
3019
2706
2996
2634
2926
2577
3020
2669
2884
2555
2871
2666
2858
2578
2773
2581
2778
2550
2850
2542
2808
2485
2731
2442
2706
2493
2677
2408
2699
2392
2734
2313
2629
2317
2502
2387
2685
2314
2669
2347
2490
2228
2425
2202
2569
2149
2483
2165
2450
2141
2405
2202
2349
2238
2461
2054
2315
2006
2170
1814
1986
1280
0
0
2258
2349
2728
2477
2842
2562
2891
2550
2931
2582
2962
2665
3021
2669
3082
2763
3147
2811
3163
2826
3176
2914
3270
3073
3245
2971
3346
3045
3365
3158
3351
3050
3406
3074
3380
3174
3485
3023
3436
3127
3466
3172
3376
3132
3494
3172
3443
3135
3402
3076
3492
3138
3426
3067
3383
3088
3351
3053
3423
3097
3334
3093
3275
2990
3389
2997
3297
2982
3210
2952
3229
2915
3321
2934
3329
2957
3190
2847
3082
2866
3157
2809
3149
2820
3170
2761
3057
2829
3080
2726
3022
2743
3050
2660
2941
2706
2992
2635
3069
2622
2871
2514
2591
2338
2497
1890
0
0
2344
2405
2962
2733
2997
2664
2948
2805
3002
2802
3051
2787
3113
2866
3189
3019
3162
2958
3182
2992
3250
2989
3269
2920
3238
3029
3269
3026
3277
2975
3374
3016
3303
3086
3370
3114
3366
3154
3530
3129
3377
3021
3333
3105
3291
3038
3282
3018
3226
3010
3298
3062
3300
2923
3300
3003
3217
2982
3174
2933
3146
2876
3095
2841
3173
2805
3022
2773
3048
2741
3014
2751
2965
2730
3051
2710
2906
2582
2818
2597
2836
2532
2891
2512
2886
2566
2746
2577
2857
2525
2773
2509
2778
2468
2735
2521
2746
2466
2619
2407
2669
2319
2429
2113
2230
1669
0
0
2293
2261
2823
2510
2857
2616
2895
2621
2970
2639
2975
2736
3027
2849
3052
2964
3079
2882
3106
2874
3164
2869
3195
2833
3218
2918
3249
2954
3294
2987
3290
2891
3282
3001
3317
2983
3323
3055
3356
3084
3282
2998
3290
2989
3273
2957
3290
2999
3263
2949
3260
2973
3230
2901
3213
3001
3148
2894
3099
2783
3051
2763
3005
2724
3081
2816
2970
2692
3026
2749
3048
2699
2920
2669
2917
2678
2865
2536
2821
2549
2780
2516
2770
2480
2883
2541
2797
2524
2826
2512
2736
2429
2722
2470
2718
2432
2665
2456
2606
2365
2615
2257
2354
2044
2171
1531
0
0
1938
2035
2412
2214
2564
2284
2573
2381
2715
2479
2682
2353
2729
2431
2805
2607
2853
2511
2775
2533
2891
2605
2936
2572
2861
2589
2891
2660
2955
2598
2921
2576
2890
2669
2975
2789
3028
2740
3070
2701
2942
2675
2926
2683
2964
2589
3022
2709
2919
2729
2949
2784
2925
2558
2953
2739
2903
2597
2794
2620
2871
2578
2762
2458
2878
2468
2672
2502
2717
2398
2772
2426
2699
2401
2674
2413
2746
2272
2674
2332
2558
2315
2525
2216
2596
2305
2541
2221
2605
2290
2516
2211
2498
2170
2379
2253
2460
2195
2388
2088
2309
1950
2163
1829
1957
1271
0
0
2141
2189
2756
2453
2826
2500
2824
2612
2875
2667
2984
2619
3018
2692
3062
2846
3177
2860
3074
2894
3199
2955
3218
2886
3241
2977
3277
2973
3309
2843
3319
2980
3312
3029
3348
3086
3377
3086
3530
3130
3357
3089
3439
3172
3378
3085
3439
3051
3434
3086
3448
3135
3399
3042
3346
3139
3389
3081
3241
3020
3248
2978
3201
2917
3290
2954
3228
2866
3262
2852
3313
3002
3146
2861
3210
2903
3225
2801
3170
2814
3220
2804
2966
2791
3125
2810
3124
2793
3086
2766
3163
2791
2983
2699
2925
2792
3074
2714
2948
2601
2852
2579
2683
2269
2544
1878
0
0
2382
2496
2874
2666
3017
2811
3083
2788
3063
2837
3104
2797
3129
2913
3197
2898
3209
3050
3274
3066
3315
3127
3357
3026
3348
3057
3240
2963
3342
3062
3326
3093
3428
3079
3434
3063
3347
3065
3360
3142
3385
3109
3357
3129
3269
3099
3314
3004
3293
2997
3297
2962
3304
2985
3287
2992
3250
2918
3228
2851
3183
2824
3074
2932
3160
2876
3134
2810
3069
2733
3046
2728
3046
2724
3019
2788
3036
2783
2834
2665
2830
2633
2802
2534
2843
2623
2840
2570
2837
2560
2796
2581
2780
2422
2732
2429
2740
2406
2634
2412
2606
2341
2381
2113
2263
1597
0
0
2378
2347
2786
2566
2852
2694
3023
2674
3015
2674
3074
2661
3074
2811
3161
2829
3152
2922
3171
2893
3241
2917
3278
2943
3325
3043
3169
2964
3306
3085
3321
3037
3304
2990
3340
2971
3281
2974
3276
3040
3429
3053
3258
3066
3274
3005
3250
2975
3282
2951
3258
2870
3242
2996
3221
3012
3206
2866
3193
2802
3144
2761
3090
2850
3142
2814
2996
2737
3012
2718
3097
2722
2999
2726
2992
2687
2886
2650
2802
2564
2846
2521
2786
2506
2802
2527
2761
2458
2772
2534
2786
2547
2692
2404
2686
2347
2757
2358
2614
2373
2681
2225
2349
2022
2149
1477
0
0
1958
2056
2506
2284
2613
2409
2790
2411
2682
2413
2638
2325
2738
2450
2763
2502
2798
2493
2829
2649
2870
2677
2973
2585
2959
2686
2931
2619
2972
2782
2965
2671
2999
2664
3058
2710
2889
2722
3019
2709
3044
2713
2964
2702
2928
2714
2901
2596
2962
2605
2885
2632
2916
2635
2933
2637
2924
2605
2861
2518
2883
2560
2751
2570
2837
2626
2834
2526
2727
2346
2667
2395
2677
2385
2735
2385
2623
2355
2555
2301
2542
2284
2629
2226
2518
2192
2533
2261
2470
2177
2506
2268
2381
2144
2442
2130
2496
2106
2354
2064
2302
2014
2178
1890
1911
1290
0
0
2324
2253
2734
2369
2858
2614
2996
2597
2971
2669
2962
2570
3002
2754
3126
2778
3121
2907
3213
2926
3245
2922
3320
2937
3325
3003
3278
3063
3356
3084
3336
3044
3398
3058
3430
3134
3378
3070
3369
3041
3416
3059
3393
3090
3395
3114
3386
3093
3353
2999
3387
3012
3393
3062
3324
3057
3434
3029
3290
2941
3261
2997
3265
2990
3338
3037
3277
2910
3275
2873
3213
2807
3241
2937
3154
2821
3165
2882
3134
2792
3108
2772
3085
2822
3034
2738
3022
2661
3062
2691
3045
2753
3009
2630
3001
2650
3007
2646
2870
2587
2912
2570
2708
2346
2524
1849
0
0
2465
2478
2946
2770
3077
2754
3076
2900
3110
2801
3172
2802
3081
2871
3301
3013
3266
3048
3339
3012
3372
3085
3382
3091
3421
3197
3389
3173
3290
3051
3389
3076
3350
3110
3366
3101
3361
3159
3490
3173
3402
3077
3354
3078
3338
3034
3316
3041
3362
2997
3258
3081
3311
3049
3282
3048
3244
2964
3238
2898
3088
2862
3101
2842
3166
2828
3055
2793
3046
2754
3057
2758
2972
2767
3011
2715
2929
2715
2910
2665
2997
2690
2869
2703
2821
2517
2797
2596
2766
2575
2781
2650
2730
2626
2764
2474
2824
2506
2726
2450
2660
2358
2524
2116
2253
1730
0
0
2369
2427
2737
2660
2965
2652
3004
2711
2948
2666
2975
2696
3023
2803
3114
2840
3083
2826
3185
2933
3170
2934
3330
2994
3306
3080
3258
2973
3219
2958
3241
2856
3257
2933
3270
2986
3292
2997
3409
3106
3269
2965
3302
2957
3229
2875
3174
2843
3224
2849
3092
2933
3246
2885
3126
2870
3077
2803
3126
2818
3089
2793
3029
2706
3081
2805
2954
2772
3005
2664
2902
2722
2956
2651
2926
2594
2782
2582
2881
2498
2902
2565
2779
2582
2756
2405
2659
2445
2589
2371
2667
2536
2661
2530
2684
2376
2699
2408
2555
2353
2614
2291
2465
2041
2195
1625
0
0
2029
2082
2485
2262
2619
2250
2710
2429
2618
2350
2620
2354
2669
2496
2845
2586
2766
2461
2873
2592
2766
2601
2962
2711
3003
2773
2949
2670
2957
2754
2902
2653
2885
2718
2993
2686
2976
2736
2988
2743
2965
2761
2946
2670
2943
2610
2940
2591
2895
2523
2909
2674
2948
2554
2855
2629
2805
2602
2840
2504
2789
2532
2757
2508
2845
2475
2740
2492
2605
2359
2693
2401
2603
2358
2551
2336
2628
2326
2590
2282
2637
2379
2504
2275
2474
2092
2338
2166
2254
2065
2337
2290
2430
2234
2319
2130
2483
2178
2376
2124
2362
2004
2131
1841
1834
1338
0
0
2300
2285
2733
2537
2902
2602
2973
2662
2955
2633
2981
2603
2960
2729
3134
2825
3134
2864
3176
2923
3202
2894
3325
3084
3350
3129
3300
3051
3364
3074
3360
3021
3312
3101
3401
3095
3306
3029
3453
3042
3449
3074
3389
3050
3326
2997
3413
3013
3337
3026
3268
3032
3381
3065
3348
3086
3354
3069
3329
2997
3245
2982
3344
2954
3330
2949
3242
2986
3125
2877
3227
2898
3093
2841
3157
2965
3137
2882
3147
2841
3205
2866
3069
2808
3083
2660
2821
2565
2833
2557
2934
2794
3014
2730
3013
2638
3020
2699
2890
2622
2889
2557
2875
2359
2506
1926
0
0
2557
2582
3042
2713
2929
2774
3106
2918
3214
2906
3179
2882
3193
2857
3131
2906
3243
3024
3321
3080
3297
3108
3462
3069
3340
3085
3417
3149
3337
3093
3307
3109
3317
3113
3387
3135
3342
3125
3406
3111
3368
3156
3350
3083
3389
3017
3310
3053
3274
2978
3229
3046
3214
2935
3144
3053
3229
2910
3217
2903
3105
2874
3074
2909
3205
2857
3123
2786
3095
2770
3002
2699
2893
2683
2926
2674
2922
2770
2864
2686
2925
2650
2859
2584
2806
2498
2740
2529
2762
2453
2836
2605
2851
2562
2770
2481
2731
2477
2679
2359
2646
2312
2605
2197
2341
1767
0
0
2478
2397
2829
2580
2857
2619
3010
2635
3078
2677
2991
2701
3051
2692
3030
2764
3074
2782
3162
2869
3142
2999
3200
2898
3268
2967
3253
2993
3158
3067
3264
2980
3258
2938
3274
3033
3199
2955
3276
2949
3302
2996
3186
2921
3219
2949
3187
2907
3172
2866
3117
2858
3117
2840
3133
2913
3101
2788
3134
2748
3035
2826
3073
2773
3167
2798
2981
2644
2910
2673
2914
2670
2842
2519
2814
2525
2846
2645
2804
2512
2774
2537
2756
2533
2713
2401
2646
2386
2661
2312
2722
2490
2730
2450
2579
2410
2613
2414
2642
2260
2534
2162
2517
2103
2174
1611
0
0
2086
2157
2573
2277
2589
2430
2733
2522
2697
2468
2743
2433
2734
2453
2724
2533
2793
2574
2926
2667
2858
2675
2950
2613
2978
2621
2970
2734
2932
2687
2909
2730
2985
2728
2964
2802
2985
2772
2985
2711
3030
2747
2919
2653
2962
2666
2959
2644
2957
2670
2870
2651
2839
2555
2858
2628
2921
2553
2864
2577
2732
2563
2738
2562
2843
2428
2682
2413
2653
2340
2581
2346
2618
2326
2574
2324
2484
2326
2563
2314
2530
2309
2478
2258
2522
2122
2363
2202
2363
2109
2530
2250
2457
2160
2356
2157
2365
2100
2338
2118
2263
1897
2202
1773
1958
1378
0
0
2385
2286
2916
2550
2782
2582
2915
2673
3063
2690
2973
2714
3085
2686
3028
2804
3162
2926
3216
3006
3282
2970
3333
2982
3321
3011
3322
3074
3290
3085
3363
3002
3443
3094
3442
3191
3454
3133
3440
3163
3412
3122
3460
3140
3469
3154
3387
3105
3406
3012
3330
3053
3372
2982
3318
3080
3445
3053
3426
3034
3242
3003
3249
3090
3326
2949
3256
2869
3131
2852
3081
2802
3132
2750
3030
2730
3061
2841
3093
2866
3141
2900
3163
2822
3103
2758
3028
2749
2978
2701
3111
2736
3069
2683
2956
2719
2994
2709
2909
2651
2902
2549
2798
2276
2393
1757
0
0
2497
2534
3073
2769
3080
2836
3106
2852
3055
2761
3113
2844
3164
2851
3197
2998
3306
2974
3302
3053
3274
3113
3338
3090
3428
3076
3403
3061
3374
3119
3341
3105
3302
3149
3434
3082
3378
3134
3405
3029
3345
3179
3394
3005
3376
3026
3274
2938
3237
2991
3305
2980
3321
2890
3196
2918
3243
2977
3180
2903
3186
2860
3167
2886
3173
2818
3053
2856
3111
2828
3002
2679
2966
2772
2972
2649
2923
2603
2920
2687
2925
2653
2921
2618
2726
2530
2690
2473
2683
2410
2785
2555
2794
2577
2756
2562
2813
2305
2766
2340
2681
2324
2486
1961
2169
1610
0
0
2257
2357
2893
2641
2948
2708
3018
2718
2972
2707
3005
2647
3067
2802
3110
2905
3175
2824
3217
2811
3186
2962
3208
2896
3270
2946
3259
2959
3281
2970
3282
3038
3170
2951
3365
2948
3257
2961
3277
2968
3235
2930
3341
2964
3323
2920
3213
2882
3141
2842
3203
2873
3216
2761
3127
2817
3141
2769
3024
2865
2986
2749
3012
2708
3028
2629
3008
2739
3012
2742
2873
2525
2958
2596
2820
2541
2837
2554
2792
2588
2830
2543
2850
2495
2715
2490
2672
2288
2650
2361
2703
2395
2689
2343
2610
2385
2684
2266
2610
2262
2532
2227
2382
1882
2029
1441
0
0
1974
2085
2566
2275
2649
2402
2648
2431
2708
2389
2742
2392
2818
2511
2800
2498
2946
2581
2848
2570
2855
2641
2899
2641
3030
2617
3000
2697
2949
2701
2964
2699
2954
2605
3050
2617
2962
2676
3019
2670
3005
2704
3086
2664
2949
2669
2933
2557
2836
2649
2962
2597
2921
2550
2853
2628
2886
2517
2792
2462
2725
2476
2773
2509
2818
2432
2709
2495
2688
2394
2633
2346
2628
2352
2616
2310
2565
2290
2421
2229
2557
2204
2599
2318
2408
2204
2434
2114
2394
2152
2468
2227
2484
2149
2394
2228
2455
2022
2393
1949
2230
2028
2117
1666
1811
1246
0
0
2250
2274
2817
2554
2950
2634
2966
2668
2983
2615
3044
2665
3044
2777
2998
2725
3213
2789
3145
2846
3215
2929
3283
2966
3317
2947
3317
2999
3348
3051
3326
3116
3326
3114
3402
3029
3335
3060
3401
3077
3389
3081
3416
3070
3442
3092
3447
3122
3403
3080
3416
3167
3458
3006
3422
3017
3344
3001
3203
2945
3171
2952
3261
2890
3237
2920
3228
2949
3262
2970
3149
2858
3117
2874
3157
2885
3101
2726
3060
2776
3061
2754
3114
2753
2950
2696
2954
2650
2941
2641
3094
2725
3026
2745
2898
2715
2962
2550
2906
2484
2752
2489
2742
2251
2449
1837
0
0
2421
2442
2836
2783
3118
2820
3130
2837
3152
2864
3248
2810
3204
3045
3245
2966
3221
2991
3170
2964
3397
3092
3418
3106
3350
3041
3435
3138
3274
3014
3387
3059
3362
3100
3294
3020
3306
3126
3382
3030
3407
3090
3358
3030
3340
3135
3229
2975
3283
2990
3335
2914
3172
2868
3107
2850
3162
2858
3166
2788
3053
2781
3033
2747
3088
2777
3058
2662
2922
2752
2972
2667
2895
2728
2885
2596
2802
2596
2850
2680
2859
2623
2853
2518
2772
2354
2651
2370
2605
2394
2710
2469
2728
2434
2642
2391
2682
2376
2618
2320
2586
2191
2422
2066
2244
1454
0
0
2356
2381
2792
2650
3006
2687
3045
2789
3010
2690
3093
2770
3092
2896
3146
2805
3082
2770
3131
2823
3237
2876
3240
2918
3193
2877
3326
3005
3198
2922
3279
2909
3241
2971
3229
2839
3167
2963
3304
2930
3304
2932
3294
2890
3265
2948
3139
2834
3258
2892
3154
2828
3130
2858
3058
2778
3133
2775
3114
2778
2997
2717
2999
2612
3126
2711
2920
2635
2921
2678
2882
2566
2837
2590
2779
2561
2775
2521
2813
2557
2866
2564
2821
2482
2691
2295
2555
2328
2538
2318
2671
2426
2651
2282
2604
2371
2650
2286
2628
2214
2485
2064
2312
1989
2125
1483
0
0
1993
2054
2486
2357
2628
2397
2776
2425
2719
2434
2845
2478
2817
2625
2802
2552
2761
2590
2832
2630
2889
2654
2923
2662
2943
2664
2916
2622
2922
2580
2986
2732
2986
2717
2941
2679
2862
2678
2958
2686
2959
2757
2914
2591
2885
2693
2832
2554
2982
2648
2858
2614
2839
2548
2818
2614
2853
2500
2789
2519
2738
2475
2694
2378
2850
2414
2779
2426
2665
2439
2642
2363
2554
2358
2522
2307
2507
2306
2492
2176
2539
2298
2550
2274
2454
2097
2354
2146
2298
2061
2418
2236
2416
2153
2432
2153
2362
2073
2410
2102
2197
1845
2142
1758
1894
1233
0
0
2260
2257
2663
2478
2877
2473
2980
2649
2929
2670
3078
2756
3062
2884
3069
2846
3200
2779
3172
2842
3172
2793
3253
2970
3273
2916
3364
2993
3210
2899
3365
3060
3325
3019
3418
3019
3303
2989
3334
2971
3300
2940
3269
2932
3379
3099
3244
3058
3332
3048
3243
2943
3218
2861
3166
2882
3325
2958
3175
2926
3245
2882
3145
2850
3227
2874
3178
2855
3090
2809
3053
2813
3099
2792
3029
2796
3114
2768
3113
2747
3066
2797
3099
2773
2981
2650
2948
2567
2974
2617
2946
2689
2974
2546
2941
2630
2836
2517
2821
2521
2793
2292
2581
2250
2462
1770
0
0
2522
2525
3037
2765
2981
2861
3206
2921
3234
2902
3154
2993
3227
3058
3275
2994
3244
2963
3238
2985
3181
3010
3331
3069
3293
3045
3341
3093
3331
3041
3334
3049
3352
3069
3308
3053
3317
3055
3316
3095
3424
3026
3303
3066
3271
3066
3222
3053
3272
2909
3242
2930
3187
2860
3133
2882
3081
2813
2967
2745
2955
2757
2970
2717
3153
2777
3002
2822
3035
2762
2986
2686
2908
2642
2874
2487
2797
2628
2798
2546
2917
2642
2863
2690
2765
2619
2715
2517
2861
2531
2786
2447
2706
2473
2757
2523
2658
2504
2747
2322
2557
2259
2405
2057
2255
1738
0
0
2413
2382
2874
2562
2818
2651
3014
2752
3034
2728
3112
2815
3140
2914
3146
2859
3087
2792
3124
2808
3028
2877
3130
2845
3139
2882
3220
2858
3246
2901
3122
2877
3236
2938
3162
2948
3158
2937
3158
2948
3182
2947
3195
2901
3146
2948
3166
2838
3115
2873
3077
2836
3151
2766
3022
2724
2916
2682
2839
2570
2866
2698
2974
2598
2988
2711
2877
2654
2902
2587
2846
2561
2858
2474
2834
2449
2764
2470
2786
2458
2848
2485
2703
2530
2718
2506
2641
2376
2697
2474
2726
2428
2684
2363
2704
2333
2603
2397
2644
2170
2450
2133
2330
1997
2158
1450
0
0
1986
2093
2491
2294
2541
2305
2670
2382
2818
2413
2747
2474
2814
2549
2779
2581
2774
2477
2766
2485
2711
2493
2830
2542
2878
2647
2921
2573
2885
2587
2846
2669
2894
2633
2741
2561
2823
2603
2829
2575
2939
2601
2800
2619
2921
2582
2852
2618
2842
2437
2885
2505
2766
2545
2724
2410
2643
2362
2549
2293
2604
2434
2599
2354
2698
2373
2622
2388
2625
2381
2668
2362
2536
2213
2541
2244
2604
2326
2474
2235
2554
2190
2490
2253
2418
2212
2389
2229
2443
2233
2562
2133
2411
2125
2410
2163
2309
2102
2329
1931
2198
1882
2084
1770
1827
1370
0
0
2217
2261
2773
2502
2805
2543
2930
2603
3014
2687
3029
2704
3058
2773
3063
2878
3114
2797
3071
2824
3095
2836
3224
2894
3285
2993
3289
2954
3253
2907
3260
2942
3349
3005
3262
2914
3180
2989
3285
3003
3304
2951
3299
3038
3354
3001
3277
2993
3302
2953
3268
2941
3296
2920
3230
2799
3132
2825
3095
2798
3125
2798
3080
2826
3156
2768
3140
2871
3063
2788
3125
2842
3087
2706
3077
2730
3042
2764
2955
2757
3130
2674
3099
2770
2962
2760
2916
2725
2986
2663
2996
2650
2906
2564
2893
2525
2818
2609
2872
2451
2723
2381
2587
2286
2458
1782
0
0
2475
2493
2961
2762
2973
2730
3177
2909
3145
3020
3130
2973
3195
2974
3261
2953
3291
3018
3257
3021
3307
3010
3358
3023
3345
3124
3354
3021
3390
3041
3290
2932
3324
3023
3310
3035
3268
3055
3306
3021
3259
3050
3170
2955
3228
2970
3191
2950
3289
2913
3205
2910
3092
2845
3056
2792
3068
2874
3003
2779
3054
2677
3061
2787
3069
2721
3054
2637
2941
2631
2916
2712
2870
2589
2850
2630
2778
2513
2862
2590
2862
2581
2814
2501
2838
2574
2738
2447
2743
2513
2733
2550
2694
2390
2678
2362
2677
2289
2513
2217
2397
2137
2365
1988
2224
1578
0
0
2263
2269
2733
2541
2841
2547
2898
2602
2939
2731
3010
2781
2932
2669
3038
2734
3048
2770
3044
2782
3037
2776
3189
2827
3124
2798
3236
2850
3140
2811
2992
2733
3186
2794
3092
2818
3063
2857
3096
2767
2993
2821
3037
2813
3039
2777
3037
2766
3069
2709
2933
2748
2924
2628
2884
2659
2898
2669
2910
2587
2900
2572
2872
2548
2900
2530
2954
2525
2877
2500
2744
2542
2774
2472
2661
2418
2634
2378
2647
2437
2714
2363
2674
2370
2631
2452
2590
2361
2618
2353
2541
2354
2590
2322
2529
2167
2468
2116
2378
2109
2372
2029
2236
1812
1961
1321
0
0
1980
2013
2448
2318
2593
2297
2614
2341
2577
2444
2638
2477
2717
2504
2694
2428
2749
2497
2696
2526
2768
2531
2902
2508
2874
2570
2859
2586
2892
2565
2829
2525
2794
2498
2725
2547
2822
2486
2789
2466
2778
2499
2766
2544
2765
2529
2742
2515
2829
2449
2758
2522
2637
2423
2626
2381
2612
2406
2578
2437
2692
2344
2664
2354
2613
2265
2723
2258
2549
2274
2458
2294
2520
2199
2450
2229
2408
2155
2369
2178
2451
2229
2422
2162
2434
2176
2357
2148
2394
2197
2331
2161
2255
1958
2194
1990
2128
1928
2139
1930
2166
1835
2032
1613
1874
1186
0
0
2214
2184
2675
2514
2804
2523
2883
2618
2874
2722
2937
2780
2934
2662
3018
2696
3101
2785
3092
2826
3155
2793
3238
2882
3209
2962
3251
2914
3223
2899
3286
2827
3218
2805
3188
2857
3156
2819
3178
2921
3144
2946
3142
2882
3117
2820
3158
2878
3264
2865
3197
2932
3175
2885
3093
2889
3153
2794
3073
2878
3159
2782
3156
2704
3158
2798
3073
2727
3064
2707
2955
2758
3002
2753
2985
2763
2962
2693
2950
2737
3010
2747
3010
2633
3050
2717
2954
2663
2994
2725
2900
2685
2853
2456
2774
2436
2788
2500
2696
2427
2682
2473
2578
2189
2379
1645
0
0
2413
2454
2834
2625
2917
2629
3015
2783
3097
2882
3083
2802
3145
2869
3164
2902
3200
2930
3226
2876
3122
2882
3227
2943
3236
2930
3212
2949
3213
2970
3325
2924
3282
2864
3143
2967
3185
2921
3226
2898
3120
2886
3158
2853
3083
2877
3119
2820
3090
2834
3039
2769
2971
2746
2896
2747
2896
2642
2917
2535
2953
2682
2941
2621
2985
2661
2999
2724
2864
2510
2889
2629
2796
2577
2862
2523
2830
2458
2697
2536
2775
2527
2740
2574
2700
2506
2762
2472
2682
2351
2612
2318
2621
2421
2620
2344
2578
2376
2589
2299
2475
2218
2291
1974
2166
1524
0
0
2290
2165
2681
2384
2753
2461
2838
2562
2949
2587
2954
2658
2958
2647
2985
2644
3012
2714
2978
2666
2938
2746
3046
2731
3020
2738
2973
2795
3067
2800
3096
2675
3029
2681
3003
2699
2985
2805
3086
2734
2941
2667
2995
2716
2941
2652
2923
2596
2923
2662
2843
2626
2891
2637
2811
2664
2766
2589
2801
2402
2808
2536
2826
2456
2761
2447
2824
2493
2727
2382
2714
2494
2718
2477
2768
2374
2643
2437
2619
2413
2632
2381
2587
2331
2569
2314
2586
2314
2514
2317
2498
2189
2446
2301
2481
2241
2398
2138
2372
2089
2322
2134
2198
1861
1939
1394
0
0
1907
1878
2344
2216
2466
2166
2541
2309
2634
2315
2621
2346
2674
2437
2709
2324
2710
2395
2546
2349
2653
2434
2725
2426
2778
2427
2690
2537
2725
2538
2769
2386
2773
2474
2686
2471
2726
2476
2774
2438
2678
2450
2610
2387
2677
2361
2674
2359
2644
2386
2645
2320
2578
2381
2500
2333
2564
2334
2586
2198
2549
2206
2573
2201
2599
2313
2557
2267
2567
2186
2478
2256
2397
2178
2472
2144
2452
2117
2429
2147
2429
2196
2449
2164
2346
2045
2253
2053
2192
1966
2283
1998
2260
1893
2246
2045
2247
1967
2235
1924
2094
1836
1918
1658
1866
1261
0
0
2104
2097
2524
2312
2691
2309
2806
2495
2834
2545
2878
2530
2882
2606
2966
2718
2981
2613
2914
2666
2995
2669
3073
2718
3076
2740
3117
2862
3125
2796
3176
2779
3148
2813
3087
2856
3154
2831
3170
2797
3034
2820
3052
2794
3018
2853
3110
2813
3118
2788
3016
2773
3155
2775
3054
2829
3014
2731
3052
2619
3029
2715
3045
2709
3041
2737
2995
2661
3036
2653
2941
2706
2995
2679
3087
2642
2961
2626
2971
2619
2959
2603
2853
2617
2877
2571
2827
2492
2686
2490
2716
2446
2736
2540
2747
2505
2713
2484
2801
2420
2653
2389
2514
2122
2436
1821
0
0
2093
2122
2573
2372
2675
2377
2790
2541
2826
2484
2829
2637
2865
2587
2946
2596
3010
2661
2865
2616
2908
2598
2873
2606
2978
2707
2985
2750
2997
2654
2901
2705
2928
2637
2959
2633
2890
2574
2978
2618
2819
2610
2827
2549
2900
2574
2789
2602
2834
2521
2838
2614
2757
2518
2810
2610
2842
2445
2698
2386
2740
2473
2754
2455
2652
2387
2724
2445
2674
2375
2649
2358
2552
2261
2594
2357
2586
2254
2501
2337
2546
2350
2590
2293
2542
2258
2461
2074
2365
2240
2371
2142
2394
2087
2194
1949
2274
2007
2283
2024
2253
1998
2221
1878
2012
1364
0
0
1746
1813
2209
2026
2378
2157
2571
2146
2499
2146
2509
2237
2587
2242
2634
2317
2596
2287
2548
2344
2653
2290
2589
2353
2590
2395
2732
2435
2671
2324
2681
2298
2738
2356
2614
2366
2570
2277
2708
2350
2522
2302
2588
2251
2670
2330
2632
2314
2586
2240
2638
2337
2612
2258
2536
2293
2562
2149
2522
2181
2554
2190
2480
2132
2439
2164
2516
2198
2389
2143
2413
2175
2361
2046
2344
2063
2354
2013
2289
2026
2381
2076
2383
1972
2269
1901
2126
1828
2082
1909
2077
1779
2196
1880
2021
1782
2114
1701
2109
1808
2045
1730
2026
1684
1795
1225
0
0
1204
1244
1601
1445
1732
1531
1929
1533
1883
1604
1852
1534
1926
1677
1998
1716
2012
1630
2047
1725
2084
1691
1964
1759
2108
1817
2107
1822
2166
1853
2101
1741
2133
1719
2031
1751
2053
1691
2225
1823
2007
1837
2057
1765
2017
1748
1995
1714
2101
1773
1972
1723
1995
1740
2000
1732
1988
1646
2005
1606
1995
1691
1867
1653
1842
1605
1845
1604
1807
1582
1907
1597
1853
1579
1824
1586
1782
1445
1669
1387
1746
1445
1761
1474
1714
1400
1609
1234
1556
1331
1583
1243
1627
1339
1507
1290
1608
1204
1605
1380
1475
1276
1540
1145
1332
773
0
0
0
0
0
0
0
0
0
0
0
0
0
0
0
0
0
0
0
0
0
0
0
0
0
0
0
0
0
0
0
0
0
0
0
0
0
0
0
0
0
0
0
0
0
0
0
0
0
0
0
0
0
0
0
0
0
0
0
0
0
0
0
0
0
0
0
0
0
0
0
0
0
0
0
0
0
0
0
0
0
0
0
0
0
0
0
0
0
0
0
0
0
0
0
0
0
0
0
0
0
0
0
0
0
0
0
0
0
