P2
108 88
4095
0
0
0
0
0
0
0
0
0
0
0
0
0
0
0
0
0
0
0
0
0
0
0
0
0
0
0
0
0
0
0
0
0
0
0
0
0
0
0
0
0
0
0
0
0
0
0
0
0
0
0
0
0
0
0
0
0
0
0
0
0
0
0
0
0
0
0
0
0
0
0
0
0
0
0
0
0
0
0
0
0
0
0
0
0
0
0
0
0
0
0
0
0
0
0
0
0
0
0
0
0
0
0
0
0
0
0
0
0
958
834
1176
845
1228
917
1251
973
1335
1066
1241
965
1365
1145
1425
1146
1478
1218
1509
1298
1557
1386
1661
1314
1526
1334
1531
1291
1613
1292
1633
1261
1643
1206
1563
1254
1529
1217
1570
1211
1621
1310
1572
1314
1596
1282
1442
1239
1549
1256
1615
1308
1627
1237
1621
1340
1461
1161
1474
1120
1429
1064
1301
1014
1410
1061
1314
1008
1304
1028
1299
1062
1274
1017
1268
1005
1210
854
1225
890
1181
887
1305
962
1268
947
1150
931
1191
826
1131
848
1109
841
1122
722
1005
695
1099
658
962
754
1005
758
861
388
0
0
755
763
1021
669
1131
732
1121
873
1138
917
1138
842
1175
951
1378
1077
1322
1086
1395
1136
1454
1166
1517
1111
1397
1157
1434
1106
1409
1144
1437
1115
1467
1072
1483
1117
1362
1138
1326
1101
1428
1172
1375
1129
1337
1099
1313
1146
1469
1100
1475
1173
1458
1222
1508
1290
1458
1137
1380
981
1293
919
1226
963
1290
974
1193
961
1285
922
1199
970
1189
922
1189
904
1107
845
1157
853
1140
873
1172
817
1183
932
1037
837
1043
822
1109
786
1094
784
977
717
996
621
1051
715
938
662
1002
691
808
381
0
0
1029
939
1345
954
1390
1061
1458
1146
1558
1302
1522
1237
1622
1339
1683
1419
1754
1446
1768
1461
1773
1497
1863
1501
1798
1541
1790
1522
1791
1634
1957
1543
1937
1551
1965
1559
1810
1546
1791
1539
1836
1490
1786
1524
1848
1570
1815
1563
1897
1581
1941
1652
2019
1619
2066
1779
1946
1691
1971
1495
1850
1481
1835
1467
1898
1466
1758
1515
1873
1481
1811
1490
1813
1503
1776
1501
1735
1410
1737
1390
1683
1385
1742
1456
1858
1531
1649
1444
1681
1366
1748
1277
1563
1343
1613
1299
1606
1225
1618
1276
1586
1210
1661
1348
1577
1072
0
0
1402
1321
1669
1431
1773
1450
1845
1559
1883
1633
1829
1568
1925
1662
1914
1714
1922
1621
1877
1655
2001
1732
2001
1817
1883
1751
1941
1742
2003
1714
2039
1654
1989
1662
1998
1812
1997
1652
1966
1653
1983
1677
1940
1646
1954
1605
1846
1585
1941
1675
1957
1550
1830
1638
1940
1847
2069
1717
1979
1653
1817
1493
1720
1474
1755
1466
1786
1483
1811
1558
1742
1514
1745
1525
1599
1390
1734
1365
1562
1386
1602
1374
1633
1313
1653
1358
1534
1299
1559
1213
1586
1206
1584
1202
1555
1278
1510
1130
1569
1106
1429
1082
1496
1289
1469
965
0
0
1221
1130
1501
1200
1641
1252
1842
1490
1745
1485
1733
1476
1770
1365
1722
1427
1736
1445
1710
1461
1822
1441
1798
1605
1775
1530
1770
1638
1877
1609
1874
1514
1900
1700
1839
1474
1816
1538
1819
1491
1841
1502
1821
1507
1850
1495
1814
1413
1867
1453
1759
1422
1717
1482
1796
1563
1940
1523
1849
1561
1771
1412
1663
1365
1758
1386
1650
1370
1793
1421
1737
1422
1645
1285
1513
1282
1616
1230
1547
1274
1490
1163
1431
1149
1540
1226
1483
1143
1443
1059
1434
1042
1348
1099
1474
1225
1387
1090
1396
950
1335
974
1269
1108
1397
891
0
0
983
858
1122
950
1265
973
1475
1137
1418
1185
1331
975
1374
1061
1321
1097
1362
1077
1378
1130
1456
1211
1520
1256
1483
1250
1520
1209
1554
1262
1557
1184
1646
1234
1621
1282
1510
1254
1618
1190
1529
1178
1509
1179
1541
1205
1515
1147
1563
1133
1509
1162
1387
1060
1464
1252
1526
1177
1565
1373
1474
1133
1330
1068
1390
1083
1394
1143
1467
1276
1493
1205
1322
1007
1291
942
1313
1093
1193
1002
1326
946
1079
866
1155
887
1067
941
1170
791
1152
840
1066
870
1108
938
1221
842
1204
662
1069
718
1044
878
1033
627
0
0
1211
1029
1414
1162
1647
1277
1775
1335
1630
1413
1589
1269
1739
1322
1659
1433
1729
1428
1802
1498
1832
1570
1877
1625
1915
1683
2006
1733
2027
1796
2095
1649
2053
1794
2150
1776
2018
1705
2180
1736
2043
1656
1959
1706
1997
1686
1954
1594
1925
1764
1996
1650
1922
1589
1866
1736
2029
1675
1969
1816
2054
1661
1926
1557
1875
1659
1922
1573
1995
1687
2037
1730
1978
1625
1781
1562
1890
1585
1850
1653
1905
1524
1805
1474
1882
1406
1741
1461
1776
1403
1796
1373
1744
1322
1714
1534
1831
1480
1853
1397
1741
1303
1625
1365
1621
1161
0
0
1426
1362
1777
1554
1832
1613
1929
1517
1914
1563
1844
1527
1797
1586
1914
1581
1945
1685
2005
1639
1867
1738
2067
1665
2101
1782
2117
1834
2186
1938
2277
1941
2206
1962
2164
1922
2261
2012
2196
1917
2109
1842
2162
1781
2018
1691
2029
1730
1918
1694
1896
1573
1853
1650
1897
1656
1935
1647
1876
1586
1913
1642
1859
1541
1909
1490
1783
1457
1822
1497
1966
1666
1897
1529
1681
1496
1653
1417
1674
1410
1856
1362
1563
1322
1601
1298
1639
1360
1577
1315
1509
1297
1515
1239
1495
1227
1621
1355
1663
1332
1479
1162
1288
1134
1477
1055
0
0
1304
1156
1597
1254
1649
1335
1685
1227
1557
1326
1556
1258
1653
1461
1797
1427
1770
1489
1869
1515
1757
1541
1891
1563
2028
1677
2031
1725
2110
1845
2138
1762
2083
1682
2030
1629
2101
1758
2095
1683
1930
1594
2057
1657
1986
1692
1867
1579
1731
1478
1693
1445
1785
1466
1705
1439
1742
1453
1687
1370
1773
1499
1691
1398
1776
1456
1709
1261
1674
1306
1733
1550
1696
1397
1555
1327
1474
1217
1506
1257
1653
1236
1493
1177
1424
1147
1477
1198
1366
1261
1382
1130
1363
1061
1366
998
1498
1336
1457
1173
1410
968
1132
891
1250
840
0
0
1096
945
1289
966
1275
1067
1349
1032
1365
1053
1253
1013
1258
1106
1392
1141
1483
1237
1610
1330
1575
1331
1635
1347
1770
1532
1773
1421
1765
1553
1777
1538
1765
1466
1629
1382
1689
1501
1699
1443
1653
1353
1829
1553
1819
1523
1692
1346
1578
1405
1553
1266
1461
1257
1538
1209
1555
1289
1467
1149
1495
1231
1514
1202
1476
1186
1411
1101
1401
1085
1532
1260
1489
1201
1378
1133
1289
1014
1294
1025
1405
1014
1277
955
1201
933
1214
978
1274
1029
1174
882
1170
856
1155
885
1192
1029
1256
961
1140
713
910
618
1010
488
0
0
1335
1147
1476
1131
1554
1205
1614
1221
1675
1298
1650
1314
1629
1354
1787
1442
1797
1594
1989
1684
2037
1719
2084
1637
2111
1783
2093
1746
2158
1889
2244
1840
2132
1718
2014
1744
2072
1860
2178
1786
2042
1735
2250
1943
2340
2005
2178
1824
2053
1860
2133
1782
2075
1681
2056
1595
1990
1721
1922
1559
1988
1723
2062
1708
2145
1651
2010
1656
1975
1627
2011
1741
2026
1773
1949
1575
1818
1565
1782
1482
1899
1590
1875
1474
1802
1487
1806
1520
1790
1584
1847
1555
1795
1456
1695
1341
1757
1578
1787
1481
1685
1270
1605
1204
1574
1093
0
0
1462
1365
1773
1397
1685
1435
1757
1394
1716
1455
1819
1507
1818
1632
1876
1524
1900
1702
2186
1907
2003
1806
2091
1802
1986
1773
2099
1873
2157
1991
2236
1864
2037
1765
2005
1751
2053
1788
2021
1722
1986
1815
2141
1838
2137
1857
2101
1773
2123
1790
2042
1766
2000
1757
1874
1627
1925
1606
1894
1553
1835
1577
1920
1617
1973
1597
1789
1551
1849
1495
1735
1545
1893
1545
1824
1450
1746
1346
1565
1333
1618
1358
1723
1252
1664
1317
1554
1357
1620
1389
1690
1432
1596
1178
1593
1125
1480
1234
1462
1234
1467
1159
1384
1110
1133
795
0
0
1318
1163
1544
1245
1553
1277
1597
1264
1633
1330
1740
1445
1691
1486
1786
1467
1772
1611
1937
1612
1879
1655
1961
1627
1883
1595
1885
1634
1937
1674
1998
1641
1858
1595
1884
1596
1870
1638
1973
1611
1866
1689
1993
1637
1958
1675
1925
1558
1983
1573
1922
1662
1965
1666
1909
1513
1834
1501
1752
1452
1722
1469
1771
1495
1854
1573
1809
1450
1669
1295
1642
1314
1794
1515
1698
1316
1552
1193
1489
1256
1518
1285
1509
1195
1552
1201
1462
1210
1544
1291
1690
1373
1446
1246
1474
1094
1419
1115
1365
1090
1353
1117
1263
933
1078
618
0
0
1072
936
1300
966
1307
982
1253
985
1375
1122
1517
1291
1485
1235
1534
1130
1435
1272
1585
1367
1530
1268
1577
1365
1597
1274
1567
1398
1563
1412
1678
1381
1565
1374
1706
1403
1681
1382
1685
1331
1644
1355
1701
1339
1669
1319
1581
1254
1719
1330
1709
1485
1706
1477
1572
1293
1645
1248
1561
1237
1381
1202
1473
1327
1574
1367
1576
1231
1475
1117
1408
1160
1469
1056
1482
1138
1318
1025
1321
1017
1239
1001
1381
915
1262
1059
1178
1050
1263
997
1339
1129
1379
1093
1300
888
1243
906
1117
872
1161
842
1129
750
913
434
0
0
1234
1030
1501
1194
1548
1196
1619
1274
1654
1413
1898
1514
1785
1430
1762
1378
1764
1490
1899
1605
1855
1627
1930
1634
1942
1627
1990
1754
1941
1762
2101
1794
2027
1738
2042
1736
2069
1814
2045
1663
2034
1824
2046
1789
2018
1723
2042
1725
2129
1738
2085
1819
2202
1974
2176
1841
2167
1843
2041
1641
1968
1694
2007
1634
2091
1832
2214
1782
2056
1629
1947
1642
2000
1610
1998
1662
1915
1589
1826
1476
1853
1549
1882
1434
1888
1514
1773
1589
1911
1499
1906
1618
1973
1553
1883
1443
1712
1474
1682
1444
1827
1392
1680
1270
1446
950
0
0
1465
1386
1746
1485
1697
1525
1849
1604
1845
1531
1893
1688
1861
1489
1911
1659
1861
1602
1892
1754
2052
1691
2036
1748
2065
1738
1978
1778
2052
1798
2105
1818
1991
1844
2061
1841
2141
1803
2000
1710
2146
1768
1976
1659
1993
1629
1979
1704
1972
1690
1999
1761
2033
1830
2034
1790
2001
1716
1937
1706
1874
1549
1863
1658
1928
1756
2051
1705
1802
1481
1766
1428
1712
1553
1794
1463
1646
1467
1678
1390
1598
1338
1557
1341
1637
1307
1592
1366
1586
1273
1561
1334
1742
1464
1654
1307
1559
1221
1477
1205
1522
1276
1430
1132
1296
778
0
0
1339
1262
1622
1384
1680
1431
1787
1426
1710
1403
1797
1333
1661
1456
1806
1479
1762
1404
1795
1629
1955
1624
1951
1603
1995
1701
1995
1670
1951
1758
2075
1751
2086
1797
2043
1762
2179
1724
1914
1700
2016
1702
1930
1657
1935
1613
1874
1681
2002
1635
1924
1642
1933
1717
1910
1813
1994
1762
1898
1541
1853
1440
1773
1498
1914
1617
1994
1665
1736
1356
1691
1322
1675
1387
1643
1449
1677
1339
1573
1310
1594
1284
1539
1313
1618
1349
1578
1204
1517
1181
1429
1213
1719
1393
1673
1270
1606
1182
1331
1083
1482
1171
1346
1092
1305
657
0
0
1014
997
1400
1148
1429
1142
1394
1066
1364
975
1308
1057
1309
1114
1394
1081
1418
1168
1483
1305
1642
1260
1640
1338
1723
1489
1697
1441
1584
1441
1770
1402
1809
1470
1874
1599
1917
1462
1673
1522
1787
1444
1641
1301
1595
1410
1650
1382
1679
1321
1579
1273
1540
1312
1630
1421
1714
1542
1636
1332
1483
1205
1493
1246
1520
1265
1598
1271
1486
1202
1435
1104
1409
1164
1393
1181
1386
1133
1321
999
1284
1038
1230
1039
1310
1070
1368
990
1246
930
1160
907
1361
1107
1416
1010
1204
885
1110
765
1082
1010
1090
900
1062
459
0
0
1325
1301
1646
1442
1682
1282
1628
1301
1654
1237
1603
1330
1689
1374
1714
1416
1722
1450
1767
1573
2016
1591
2033
1797
2214
1922
2161
1889
2054
1702
2154
1760
2169
1878
2228
2006
2254
1794
2198
1926
2338
1993
2249
1820
2141
1769
2161
1874
2165
1765
2108
1805
2141
1804
2086
1834
2133
1883
2109
1826
2069
1726
1995
1706
2022
1713
2050
1719
1978
1618
1949
1678
1954
1642
2000
1685
1954
1614
1887
1521
1890
1527
1869
1595
1842
1682
1958
1523
1859
1466
1842
1462
1825
1649
1864
1498
1706
1463
1678
1392
1694
1474
1793
1618
1752
1036
0
0
1531
1565
1944
1610
1865
1453
1812
1508
1797
1461
1760
1464
1942
1500
1909
1605
1967
1711
2052
1753
1972
1791
2180
1874
2269
2042
2284
1850
2128
1819
2080
1749
2183
1922
2219
1882
2139
1888
2099
1945
2264
1948
2153
1871
2106
1808
2037
1700
2069
1781
2029
1833
1962
1681
1988
1688
2018
1817
2098
1732
1963
1652
1829
1604
1803
1549
1853
1514
1861
1610
1769
1521
1833
1499
1717
1487
1672
1412
1619
1321
1674
1346
1598
1408
1638
1334
1666
1459
1728
1387
1509
1266
1539
1377
1661
1213
1541
1274
1445
1220
1399
1171
1509
1349
1526
980
0
0
1485
1469
1732
1406
1687
1301
1709
1402
1692
1285
1633
1289
1731
1381
1763
1448
1832
1610
1890
1680
1907
1700
2029
1776
2126
1879
2098
1709
1890
1613
1914
1609
1931
1702
2033
1721
2042
1633
1988
1803
2142
1754
2062
1730
1981
1674
1896
1639
1970
1675
1924
1654
1877
1540
1870
1493
1924
1595
2024
1622
1842
1602
1730
1461
1750
1502
1819
1416
1820
1482
1689
1466
1738
1355
1680
1329
1618
1306
1562
1268
1636
1213
1474
1256
1483
1205
1621
1399
1659
1291
1492
1118
1396
1193
1508
1130
1480
1147
1327
1028
1250
1080
1456
1330
1469
836
0
0
1045
964
1313
1046
1255
882
1301
969
1317
969
1334
976
1463
1081
1379
1274
1562
1362
1717
1421
1626
1360
1661
1393
1734
1468
1721
1347
1608
1297
1589
1247
1674
1286
1594
1413
1642
1387
1636
1355
1675
1384
1682
1450
1653
1387
1690
1444
1716
1380
1682
1414
1533
1279
1530
1271
1585
1301
1618
1352
1690
1322
1437
1169
1514
1154
1451
1170
1466
1227
1478
1261
1373
1101
1424
1047
1331
1065
1339
1045
1451
982
1250
1003
1210
986
1438
1225
1445
1046
1301
914
1227
941
1231
962
1292
884
1053
788
1019
809
1269
1091
1157
554
0
0
1277
1205
1569
1260
1612
1237
1578
1290
1682
1322
1666
1335
1794
1476
1828
1533
1944
1742
1969
1582
1970
1657
2091
1765
2045
1682
2056
1617
1942
1663
1957
1626
2029
1706
2091
1797
2031
1734
2029
1773
2209
1835
2129
1882
2134
1893
2193
1842
2292
1921
2237
1826
2147
1747
2044
1802
2076
1758
2174
1849
2194
1873
2014
1691
2031
1751
2089
1693
2033
1737
1979
1648
2033
1641
1967
1586
1877
1586
1923
1673
1941
1527
1840
1543
1929
1541
1941
1802
2196
1741
1867
1471
1719
1537
1854
1662
1908
1419
1741
1337
1686
1277
1802
1605
1870
1218
0
0
1450
1414
1773
1449
1780
1484
1848
1490
1854
1534
1906
1697
2066
1800
2040
1704
2133
1794
2093
1836
2117
1781
2072
1750
2030
1777
1985
1826
2053
1789
2050
1823
2090
1829
2130
1842
2133
1854
2069
1796
2130
1847
2173
1869
2138
1808
2217
1953
2401
2029
2173
1776
2020
1796
2035
1725
1900
1746
1965
1770
2164
1809
2074
1738
1917
1657
1890
1595
1881
1483
1796
1605
1838
1546
1745
1461
1787
1493
1712
1554
1802
1493
1562
1337
1605
1394
1739
1625
1969
1489
1671
1301
1597
1362
1549
1480
1707
1333
1465
1181
1394
1181
1580
1450
1655
957
0
0
1301
1181
1507
1114
1706
1227
1638
1282
1618
1293
1899
1525
1910
1637
1907
1517
1929
1551
1919
1589
1861
1523
1942
1512
1864
1569
1908
1610
1910
1585
1883
1612
1922
1665
1870
1619
1993
1608
1981
1694
1946
1659
1915
1615
1954
1658
2065
1731
2265
1928
2080
1655
1963
1598
1841
1506
1742
1593
1828
1609
1989
1686
1899
1569
1803
1558
1776
1454
1765
1370
1757
1533
1746
1424
1727
1293
1566
1362
1642
1348
1587
1299
1554
1257
1499
1269
1469
1382
1724
1298
1586
1255
1399
1150
1397
1234
1684
1284
1370
1066
1299
1004
1307
1249
1443
754
0
0
1008
877
1275
953
1307
1064
1338
1138
1487
1165
1654
1294
1563
1257
1530
1170
1520
1221
1547
1293
1597
1274
1638
1306
1595
1373
1490
1339
1693
1417
1709
1432
1670
1421
1578
1412
1657
1474
1661
1325
1682
1386
1626
1338
1669
1397
1733
1503
1902
1562
1723
1416
1711
1429
1641
1239
1525
1290
1539
1354
1666
1431
1589
1306
1661
1289
1507
1225
1479
1162
1549
1323
1557
1266
1453
1092
1390
1128
1269
1092
1343
1016
1205
1022
1181
1029
1218
1132
1355
1078
1282
1093
1249
947
1128
1027
1413
1009
1221
882
1019
827
1086
874
1160
475
0
0
1272
1156
1541
1207
1680
1285
1653
1430
1781
1469
1988
1517
1813
1542
1904
1437
1882
1565
1957
1662
1931
1633
2000
1652
1941
1746
1941
1798
1993
1750
2086
1826
2098
1870
2141
1801
2178
1829
2013
1810
2133
1709
2102
1888
2118
1845
2214
1849
2372
1987
2165
1946
2290
1967
2146
1718
2096
1801
2026
1860
2148
1794
2114
1928
2135
1837
2085
1714
2037
1712
2100
1809
2220
1818
2138
1663
1930
1646
1938
1658
1963
1550
1845
1561
1870
1626
1762
1638
2011
1609
1909
1595
1825
1515
1674
1499
1910
1525
1842
1469
1697
1378
1687
1388
1713
1029
0
0
1451
1419
1718
1357
1705
1541
1750
1513
1849
1645
1939
1597
1929
1602
1878
1661
1835
1618
1898
1673
1942
1714
2002
1745
2033
1834
2072
1777
2105
1849
2195
1805
2181
1822
2228
1888
2123
1854
2056
1807
2084
1697
2053
1686
1960
1819
2054
1787
2123
1834
2135
1942
2050
1844
1993
1657
1911
1669
1788
1705
1930
1653
1896
1700
1943
1674
1945
1625
1785
1571
1829
1650
1945
1723
1974
1531
1645
1354
1675
1425
1645
1373
1666
1314
1570
1302
1605
1317
1643
1410
1557
1293
1503
1205
1542
1265
1531
1316
1721
1317
1453
1122
1354
1075
1255
857
0
0
1271
1207
1565
1255
1633
1382
1694
1403
1791
1387
1723
1339
1755
1387
1733
1467
1779
1572
1799
1550
1835
1496
1918
1618
1872
1668
1987
1642
1972
1679
1992
1718
1994
1745
2075
1728
2078
1623
1994
1690
1988
1597
1910
1584
1869
1762
1890
1670
2018
1690
1979
1809
2037
1687
1842
1580
1845
1568
1758
1541
1845
1629
1782
1421
1862
1540
1843
1453
1700
1449
1747
1552
1840
1675
1882
1451
1627
1331
1533
1321
1644
1313
1545
1284
1481
1193
1435
1122
1458
1289
1487
1206
1442
1111
1453
1103
1467
1091
1577
1195
1398
1097
1285
948
1176
676
0
0
1087
986
1297
981
1309
1124
1343
989
1365
1101
1312
1109
1513
1128
1433
1200
1460
1178
1485
1320
1580
1275
1738
1467
1690
1503
1758
1473
1745
1429
1764
1455
1797
1477
1813
1513
1812
1402
1753
1481
1713
1403
1684
1402
1672
1406
1640
1378
1702
1365
1611
1435
1653
1412
1639
1421
1614
1286
1627
1322
1554
1322
1503
1277
1655
1265
1594
1264
1409
1263
1493
1204
1573
1508
1730
1343
1394
1083
1341
1091
1322
1041
1453
1179
1420
1096
1301
849
1269
980
1239
932
1144
874
1134
918
1205
877
1390
1066
1271
950
1128
658
906
463
0
0
1297
1145
1508
1161
1512
1306
1641
1329
1599
1333
1637
1356
1716
1387
1704
1506
1859
1517
1914
1586
1962
1696
2010
1842
2075
1798
2164
1822
2116
1826
2263
1905
2163
1876
2249
1884
2264
1893
2189
1889
2266
1829
2189
1864
2151
1890
2094
1801
2104
1885
2088
1826
2141
1796
2146
1846
2148
1805
1966
1849
2008
1812
2053
1748
2135
1750
2092
1713
1958
1732
2002
1746
2093
1956
2315
1897
1975
1615
1907
1595
1893
1606
2025
1815
2030
1620
1861
1485
1826
1510
1751
1446
1770
1498
1746
1473
1700
1463
1870
1633
1882
1586
1716
1289
1534
1061
0
0
1547
1353
1686
1421
1693
1405
1780
1517
1723
1595
1801
1520
1893
1552
1925
1604
1860
1589
1950
1821
2074
1853
2106
1878
2097
1848
2148
1876
2178
1884
2086
1916
2295
1851
2309
2018
2282
1858
2145
1819
2218
1986
2154
1818
2194
1814
2091
1764
1992
1730
1985
1729
1936
1682
2022
1740
2053
1640
1893
1714
1837
1635
1846
1673
1958
1673
1929
1560
1874
1470
1749
1469
1922
1682
2059
1667
1850
1431
1542
1327
1624
1386
1756
1594
1770
1445
1602
1334
1537
1271
1482
1236
1516
1250
1437
1179
1453
1213
1586
1398
1688
1246
1492
1123
1318
756
0
0
1550
1284
1669
1268
1594
1338
1672
1438
1681
1453
1770
1450
1810
1555
1818
1499
1877
1538
1890
1715
2030
1738
2007
1704
2039
1739
2013
1749
2039
1819
2068
1799
2241
1858
2180
1970
2193
1867
2161
1893
2170
1933
2255
1892
2165
1772
2001
1602
1903
1705
1986
1662
1915
1662
2020
1749
2090
1645
1845
1595
1754
1551
1771
1594
1974
1677
1954
1549
1862
1487
1722
1412
1813
1538
1878
1613
1807
1483
1694
1306
1610
1413
1654
1375
1748
1403
1604
1324
1497
1219
1526
1211
1403
1182
1489
1147
1434
1153
1521
1269
1623
1198
1339
1106
1175
731
0
0
1168
1078
1233
982
1365
1022
1350
1128
1348
1086
1410
1131
1522
1245
1591
1370
1525
1211
1561
1312
1604
1409
1717
1426
1649
1398
1671
1492
1719
1426
1724
1437
1803
1549
1827
1559
1862
1546
1840
1570
1842
1634
2107
1681
1833
1453
1713
1333
1657
1357
1618
1324
1661
1450
1706
1450
1721
1346
1608
1300
1514
1227
1496
1381
1676
1474
1664
1323
1541
1098
1397
1101
1501
1130
1475
1303
1598
1165
1354
1107
1430
1119
1315
1156
1436
1149
1339
1124
1213
922
1178
919
1211
985
1246
963
1171
875
1198
933
1230
1002
1079
809
894
463
0
0
1434
1147
1551
1175
1612
1274
1637
1347
1680
1385
1739
1370
1883
1582
2032
1659
1907
1522
1915
1667
1943
1654
2081
1749
2012
1766
2061
1746
2133
1800
2050
1834
2116
1826
2137
1933
2163
1880
2221
1962
2379
2225
2466
2135
2342
1942
2199
1806
2103
1765
2150
1805
2101
1781
2261
1971
2277
1864
2095
1761
2021
1758
2105
1812
2301
2001
2342
1948
2158
1675
1919
1626
2021
1654
2054
1781
2067
1714
1982
1612
1957
1591
1871
1650
1937
1641
1947
1563
1748
1477
1833
1490
1865
1589
1898
1523
1787
1425
1803
1458
1834
1463
1697
1323
1514
1003
0
0
1544
1418
1705
1426
1826
1461
1812
1474
1848
1646
1893
1691
2063
1838
2218
1795
2109
1637
2066
1667
2033
1773
2020
1813
2025
1797
2097
1797
2062
1876
2032
1838
2058
1748
2154
1837
2178
1978
2266
2105
2442
2173
2443
2102
2283
1873
2133
1851
1998
1807
1950
1678
1980
1682
2133
1809
2134
1716
1932
1709
1949
1565
1909
1634
1942
1896
2181
1882
1973
1611
1765
1497
1634
1435
1867
1581
1934
1546
1680
1512
1765
1428
1617
1385
1612
1269
1562
1343
1541
1378
1566
1343
1595
1474
1754
1395
1502
1177
1539
1188
1545
1275
1425
1146
1285
738
0
0
1398
1206
1606
1378
1673
1284
1747
1306
1782
1510
1794
1598
1950
1776
2042
1562
1999
1610
1860
1572
1916
1612
1958
1717
1965
1658
1962
1709
1933
1666
2002
1755
1946
1701
1970
1658
2086
1842
2190
2011
2409
2054
2346
1890
2161
1810
2033
1770
2040
1759
1965
1603
1924
1655
2084
1749
1998
1730
1914
1518
1770
1416
1805
1559
1910
1778
2064
1874
1953
1512
1652
1465
1586
1344
1738
1469
1817
1466
1594
1340
1682
1285
1586
1341
1491
1266
1538
1242
1498
1138
1446
1250
1533
1385
1700
1321
1450
1165
1405
1082
1481
1188
1316
1103
1200
679
0
0
1009
933
1278
1074
1313
1045
1366
1059
1470
1245
1431
1253
1584
1316
1629
1162
1586
1229
1545
1329
1538
1317
1572
1353
1581
1330
1669
1325
1669
1471
1641
1418
1685
1399
1742
1429
1683
1492
1914
1589
2036
1626
1895
1416
1753
1506
1810
1586
1800
1526
1762
1450
1659
1402
1761
1472
1739
1465
1709
1251
1508
1194
1535
1242
1581
1436
1768
1518
1539
1133
1475
1194
1410
1138
1397
1122
1515
1269
1405
1114
1323
1007
1262
1064
1269
921
1234
1068
1170
1005
1158
889
1291
1197
1350
1013
1277
825
1162
890
1242
998
1103
792
925
379
0
0
1298
1141
1501
1274
1657
1355
1691
1393
1802
1476
1835
1525
1861
1570
1974
1562
1956
1533
1933
1581
1910
1622
1973
1765
2045
1714
2138
1707
2056
1877
2106
1766
2106
1818
2148
1781
2129
1894
2260
2018
2330
2000
2295
1866
2306
2061
2541
2185
2485
2065
2418
1958
2222
1901
2180
2049
2407
2028
2310
1888
2164
1748
2077
1773
2077
1841
2187
1897
2102
1818
1937
1693
1885
1680
1988
1741
2176
1829
2066
1693
1881
1549
1940
1620
1844
1445
1853
1594
1834
1551
1778
1429
1845
1611
1978
1605
1763
1433
1776
1339
1803
1585
1734
1370
1557
1004
0
0
1514
1364
1829
1458
1925
1686
1934
1631
1810
1650
1965
1682
1956
1738
1973
1713
1961
1795
1962
1706
1971
1797
2113
1799
2185
1819
2134
1826
2098
1885
2162
1861
2054
1794
2117
1927
2203
1854
2229
1946
2308
1925
2177
1995
2307
2227
2566
2333
2468
2128
2362
2046
2205
1846
2077
1911
2299
1975
2244
1853
1935
1677
1876
1688
1943
1640
1975
1713
1995
1800
1892
1603
1835
1538
1803
1590
1948
1692
1946
1449
1722
1323
1677
1432
1645
1375
1627
1414
1698
1330
1565
1374
1765
1447
1777
1474
1814
1307
1443
1241
1533
1397
1554
1172
1339
797
0
0
1420
1219
1725
1316
1817
1478
1853
1462
1722
1459
1792
1378
1781
1531
1782
1401
1861
1568
1828
1587
1906
1605
1993
1625
2109
1765
2042
1683
1945
1650
2001
1734
1893
1737
2045
1733
2037
1720
2058
1769
2030
1768
2071
1787
2132
2022
2446
2132
2421
1972
2162
1835
2004
1677
1936
1762
2170
1850
2202
1770
1883
1577
1812
1494
1797
1485
1809
1512
1902
1633
1765
1424
1755
1356
1714
1410
1855
1581
1834
1362
1619
1256
1580
1326
1546
1243
1570
1343
1705
1166
1517
1299
1530
1294
1594
1350
1603
1197
1334
1109
1377
1249
1485
1060
1205
549
0
0
1031
946
1486
1179
1524
1230
1486
1082
1356
1106
1394
1059
1393
1212
1562
1170
1499
1330
1518
1304
1506
1370
1690
1391
1833
1515
1678
1411
1726
1450
1693
1515
1693
1441
1810
1525
1828
1492
1773
1495
1786
1526
1709
1478
1820
1750
2096
1914
2128
1808
1893
1609
1745
1424
1597
1438
1782
1512
1789
1462
1578
1334
1549
1270
1486
1173
1462
1154
1582
1394
1570
1239
1563
1082
1373
1133
1528
1260
1548
1186
1388
1010
1383
1068
1282
1017
1386
1123
1379
976
1242
1034
1290
1105
1264
1165
1317
889
1157
869
1189
975
1233
822
964
429
0
0
1335
1298
1783
1399
1879
1504
1690
1408
1706
1416
1800
1417
1787
1490
1845
1587
1933
1659
1915
1745
2017
1769
2139
1893
2325
1933
2219
1924
2235
1854
2237
1960
2218
1947
2403
2030
2372
2006
2314
1923
2323
1899
2274
1966
2298
2242
2579
2440
2721
2284
2538
2112
2277
1885
2117
1922
2293
2001
2229
1941
2094
1831
2102
1786
2052
1765
1960
1669
2141
1937
2153
1844
2102
1685
2027
1611
2087
1681
2014
1651
1979
1578
1905
1614
1901
1590
1928
1716
1938
1605
1827
1513
1928
1636
1815
1707
2026
1509
1733
1382
1777
1529
1899
1458
1694
962
0
0
1577
1610
2082
1675
1962
1645
1956
1634
1869
1588
1858
1495
1941
1661
2014
1685
2080
1775
2109
1806
2103
1881
2341
2050
2393
2098
2261
1961
2222
1957
2226
1922
2366
2049
2338
2162
2417
2112
2256
1931
2216
1950
2182
1936
2206
2087
2352
2181
2483
2162
2512
2090
2164
1786
2053
1850
2025
1812
2011
1815
1979
1772
1911
1633
1919
1621
1776
1530
1892
1653
1865
1549
1850
1439
1763
1408
1799
1436
1682
1451
1690
1427
1699
1386
1592
1333
1690
1498
1778
1300
1602
1290
1578
1330
1541
1467
1690
1345
1608
1229
1509
1338
1550
1346
1457
853
0
0
1559
1480
1846
1526
1751
1434
1668
1453
1677
1356
1669
1435
1830
1509
1933
1565
1981
1632
2007
1677
2034
1682
2181
2018
2306
1965
2116
1808
2059
1877
2071
1791
2164
1892
2317
2071
2297
1898
2172
1892
2037
1765
2037
1709
2041
1818
2137
2033
2347
2042
2329
1924
2024
1653
1918
1654
1829
1612
1890
1634
1769
1659
1846
1628
1837
1454
1707
1444
1751
1444
1752
1453
1705
1349
1714
1290
1714
1342
1501
1461
1637
1320
1554
1218
1556
1197
1630
1402
1718
1385
1428
1154
1431
1220
1546
1348
1623
1219
1543
1062
1495
1200
1503
1265
1430
754
0
0
1290
1154
1518
1095
1342
1074
1429
1126
1352
1178
1450
1154
1553
1337
1651
1270
1654
1477
1771
1399
1672
1450
1850
1637
1883
1661
1941
1515
1853
1551
1890
1589
1945
1701
1995
1828
2030
1650
1787
1570
1834
1599
1821
1509
1780
1494
1839
1557
1921
1609
2032
1593
1714
1339
1626
1419
1618
1338
1530
1354
1594
1389
1680
1327
1560
1213
1450
1181
1444
1245
1435
1148
1413
1116
1450
1033
1357
1044
1266
1195
1480
1077
1418
1085
1236
981
1239
1121
1557
1082
1313
934
1217
921
1285
1178
1349
1172
1306
883
1159
940
1259
1021
1225
535
0
0
1512
1416
1678
1347
1663
1354
1682
1332
1725
1396
1818
1557
1976
1645
2073
1709
2033
1666
2036
1666
1976
1744
2202
2075
2262
1992
2330
2010
2314
2098
2295
1993
2373
2070
2395
2185
2452
1926
2313
2038
2405
2071
2221
1933
2263
1938
2228
1958
2268
1958
2378
2001
2241
1866
2149
1855
2094
1801
2170
1889
2154
1951
2152
1819
2166
1757
2039
1729
1952
1714
1984
1675
2065
1676
2058
1701
1928
1607
1853
1669
1978
1603
1932
1602
1949
1539
1873
1729
2101
1718
1902
1531
1829
1457
1838
1730
2078
1661
2003
1499
1773
1493
1702
1569
1787
1198
0
0
1549
1412
1842
1561
1814
1441
1740
1597
1826
1662
1986
1786
2146
1914
2193
1946
2015
1777
1984
1787
2021
1838
2197
1924
2258
2014
2232
1972
2227
1940
2331
1992
2258
2064
2372
2102
2290
2031
2445
2120
2408
1997
2221
1906
2042
1781
2045
1765
1992
1793
2090
1873
2126
1733
2078
1764
1956
1714
1925
1707
1974
1776
2046
1741
2014
1590
1812
1580
1840
1540
1812
1562
1759
1494
1802
1485
1706
1421
1674
1474
1704
1359
1669
1275
1649
1331
1534
1450
1853
1528
1675
1332
1575
1269
1622
1547
1882
1551
1597
1291
1524
1220
1413
1228
1435
905
0
0
1418
1213
1682
1318
1645
1397
1690
1452
1843
1582
1966
1771
2093
1889
2037
1865
1903
1669
1866
1636
1918
1682
2074
1726
2130
1795
2117
1809
2152
1860
2163
1787
2180
1910
2270
1922
2222
1962
2317
2111
2340
1994
2165
1762
2001
1674
1995
1714
1979
1676
2023
1811
2116
1762
2017
1755
1876
1604
1829
1531
1877
1698
2020
1706
1960
1611
1723
1438
1785
1521
1863
1584
1809
1482
1658
1421
1621
1320
1626
1403
1655
1336
1546
1237
1627
1274
1566
1377
1789
1483
1630
1228
1483
1243
1555
1411
1768
1557
1590
1236
1465
1146
1297
1085
1314
746
0
0
1040
978
1269
1015
1371
1078
1408
1298
1685
1462
1682
1365
1750
1416
1737
1461
1650
1285
1522
1274
1641
1371
1747
1416
1704
1424
1732
1508
1819
1485
1815
1454
1751
1544
1871
1705
1951
1701
2089
1777
2000
1649
1777
1452
1690
1304
1730
1419
1642
1455
1749
1710
1935
1542
1835
1524
1611
1303
1510
1371
1725
1550
1807
1469
1781
1269
1444
1250
1490
1197
1670
1409
1669
1264
1444
1173
1499
1035
1469
1163
1444
1143
1313
971
1332
1046
1302
1055
1546
1269
1426
1010
1256
936
1194
1197
1555
1313
1394
970
1175
843
1109
851
1067
453
0
0
1237
1150
1628
1284
1650
1341
1701
1589
1889
1644
1913
1546
1967
1605
1941
1667
1986
1630
1838
1637
1965
1733
2020
1741
2114
1869
2173
1890
2254
1821
2314
1944
2212
1911
2230
1964
2297
2078
2578
2201
2386
2053
2305
1959
2130
1802
2158
1789
2178
1867
2317
2153
2493
2094
2290
1961
2133
1809
1982
1813
2114
1926
2181
1894
2181
1768
2038
1659
2066
1707
2282
2060
2154
1744
2010
1658
1992
1562
1957
1643
2083
1646
1776
1561
1894
1592
1914
1649
2041
1758
2086
1602
1771
1462
1746
1733
2162
1845
1975
1498
1729
1502
1645
1283
1637
1035
0
0
1494
1439
1741
1497
1823
1609
1956
1739
2039
1749
1982
1658
2011
1802
2042
1732
2027
1842
2075
1840
2082
1901
2164
1869
2216
1942
2141
1896
2283
1995
2233
1962
2269
1928
2271
1877
2179
1989
2345
2134
2383
2071
2262
1946
2023
1834
2033
1728
2032
1778
2184
1979
2370
2000
2197
1804
2009
1648
1965
1618
1981
1648
1919
1777
1944
1623
1867
1545
1816
1549
1965
1710
1966
1530
1777
1534
1789
1545
1619
1494
1717
1506
1638
1330
1623
1397
1629
1389
1749
1533
1737
1402
1560
1181
1530
1334
1781
1523
1677
1317
1493
1274
1372
1161
1362
777
0
0
1493
1306
1653
1394
1649
1493
1870
1577
1934
1530
1867
1469
1908
1651
1992
1635
1938
1699
1960
1687
2051
1733
2092
1783
2205
1929
2111
1941
2298
2068
2251
1930
2185
1883
2198
1770
2078
1798
2152
1943
2360
2014
2178
1867
2010
1706
1961
1690
2017
1720
2122
1841
2258
1928
2075
1773
1954
1581
1925
1550
1898
1522
1891
1659
1930
1568
1717
1468
1749
1506
1962
1635
1902
1533
1754
1410
1613
1377
1558
1370
1721
1417
1641
1296
1586
1297
1524
1258
1653
1482
1711
1380
1451
1154
1450
1185
1755
1442
1642
1271
1523
1110
1303
1033
1229
633
0
0
1073
1039
1395
1117
1430
1195
1594
1242
1513
1221
1426
1121
1548
1261
1582
1290
1591
1309
1652
1480
1721
1523
1828
1434
1835
1588
1892
1619
1994
1784
1886
1585
1950
1630
1957
1520
1669
1506
1814
1538
1899
1597
1809
1489
1687
1434
1629
1325
1685
1373
1714
1525
1843
1513
1757
1408
1654
1319
1589
1256
1619
1313
1534
1398
1638
1394
1558
1250
1464
1129
1507
1286
1595
1227
1511
1110
1355
1079
1314
1090
1426
1207
1509
1042
1302
974
1327
1069
1332
1114
1450
1128
1168
901
1217
949
1459
1179
1380
972
1136
867
1085
864
970
461
0
0
1470
1303
1698
1253
1677
1405
1794
1391
1779
1450
1757
1374
1831
1592
1948
1616
1946
1747
2091
1840
2167
1823
2180
1804
2210
1924
2263
2089
2397
2083
2254
1965
2396
2101
2386
1994
2185
1853
2142
1837
2221
1881
2221
1926
2229
1917
2154
1860
2123
1798
2235
1911
2290
1914
2135
1819
2180
1777
2029
1682
2006
1749
2059
1862
2203
1861
2043
1665
2039
1653
2038
1719
2218
1860
1986
1589
1911
1608
1894
1596
1985
1707
1986
1659
1837
1563
1858
1517
1956
1660
2037
1665
1814
1414
1782
1472
1965
1720
1917
1510
1763
1403
1579
1312
1593
1070
0
0
1673
1586
1957
1678
1909
1563
1874
1678
1897
1587
1978
1609
1938
1749
2197
1876
2093
1870
2225
1930
2290
1987
2257
1965
2325
2141
2386
2209
2354
2086
2382
2090
2436
2214
2376
1994
2180
1940
2279
1970
2193
1899
2222
2011
2266
1918
2154
1846
2157
1821
2095
1967
2198
1905
2098
1834
2010
1708
1970
1634
1842
1652
1950
1795
2155
1781
1930
1647
1888
1576
1898
1704
1974
1734
1846
1476
1675
1446
1649
1416
1801
1531
1701
1507
1615
1315
1611
1442
1661
1559
1807
1606
1577
1413
1537
1284
1738
1550
1778
1396
1526
1211
1423
1110
1403
1046
0
0
1563
1494
1668
1506
1759
1416
1773
1466
1714
1417
1765
1533
1949
1776
2094
1754
1925
1636
2042
1825
2063
1821
2193
1866
2186
1978
2190
1946
2217
1941
2210
1844
2299
1975
2237
1841
2085
1771
2186
1892
2047
1798
2226
1965
2234
1818
2059
1678
2038
1655
1942
1791
2116
1732
1957
1658
1814
1541
1829
1514
1810
1542
1857
1658
2107
1796
1851
1609
1805
1453
1722
1622
1947
1605
1760
1327
1482
1285
1585
1215
1645
1308
1531
1343
1534
1201
1493
1323
1533
1394
1740
1522
1517
1304
1447
1157
1577
1401
1597
1317
1493
1123
1323
979
1300
924
0
0
1179
1081
1375
1093
1405
1018
1481
1200
1392
1136
1441
1253
1690
1573
1917
1569
1624
1269
1706
1445
1621
1451
1809
1554
1845
1602
1821
1549
1851
1659
1819
1607
1883
1716
1966
1579
1802
1518
1783
1522
1759
1615
1937
1762
2054
1647
1900
1457
1740
1394
1798
1581
1898
1481
1765
1476
1582
1319
1541
1208
1515
1272
1574
1461
1926
1527
1700
1354
1400
1142
1515
1301
1589
1307
1395
1085
1346
1045
1291
1013
1365
1126
1275
1039
1266
923
1211
1117
1283
1149
1448
1307
1316
1014
1077
909
1333
1131
1421
1134
1269
849
986
785
930
651
0
0
1416
1257
1604
1378
1713
1397
1781
1458
1759
1461
1851
1541
2011
1853
2252
1842
2036
1714
2018
1773
2051
1749
2152
1898
2169
1970
2144
1892
2202
1913
2230
1936
2274
2082
2386
2041
2170
1866
2269
1853
2277
1961
2445
2226
2534
2133
2458
1932
2241
1950
2206
1998
2392
2111
2358
2014
2186
1831
2058
1730
1978
1753
2194
1930
2458
2074
2266
1867
1947
1681
2045
1810
2080
1829
2053
1739
1881
1634
1874
1575
1969
1658
1881
1622
1914
1530
1777
1609
1919
1681
2060
1842
1914
1524
1788
1416
1859
1641
1940
1668
1828
1424
1748
1316
1636
1240
0
0
1645
1546
1898
1544
1734
1569
1876
1715
2014
1701
1990
1724
2146
1919
2209
1914
2178
1898
2193
1947
2140
1948
2277
1908
2189
1942
2285
1984
2178
1947
2165
2003
2232
2043
2326
2039
2213
1949
2213
1908
2192
2061
2405
2234
2552
2114
2287
1906
2061
1796
2073
1938
2155
1927
2133
1987
2080
1682
1969
1649
1861
1657
1906
1871
2293
1938
2074
1622
1910
1570
1843
1617
1917
1746
1882
1514
1715
1525
1633
1452
1737
1506
1725
1434
1653
1346
1611
1442
1677
1392
1835
1577
1733
1355
1553
1254
1550
1398
1721
1410
1618
1196
1495
1158
1465
1106
0
0
1546
1334
1657
1385
1630
1409
1804
1435
1882
1477
1796
1533
1961
1676
2042
1736
1980
1653
2010
1698
1957
1794
1981
1700
2098
1806
2084
1803
1972
1876
2077
1796
2084
1801
2154
1938
2084
1796
2062
1726
2121
1902
2200
2037
2333
1994
2106
1737
1963
1649
1946
1707
1990
1738
2028
1786
1941
1565
1881
1499
1787
1574
1874
1674
2164
1794
1881
1453
1700
1467
1755
1590
1874
1578
1772
1371
1641
1396
1558
1259
1550
1373
1655
1417
1565
1249
1529
1291
1563
1235
1685
1446
1605
1238
1350
1188
1421
1309
1669
1322
1514
1054
1413
1078
1308
932
0
0
1154
1081
1418
1099
1370
1235
1556
1377
1549
1297
1579
1277
1613
1380
1663
1497
1727
1494
1824
1513
1651
1454
1716
1418
1813
1482
1817
1565
1756
1498
1706
1524
1798
1559
1851
1725
1906
1643
1786
1492
1857
1647
1911
1690
2018
1643
1834
1458
1733
1450
1707
1505
1700
1392
1681
1434
1769
1373
1635
1331
1481
1311
1507
1410
1783
1373
1554
1236
1451
1159
1433
1291
1661
1380
1551
1202
1296
1122
1323
1077
1318
1192
1426
1218
1418
998
1245
1103
1270
1029
1485
1193
1337
968
1125
936
1175
1010
1385
1224
1289
827
1132
798
1129
715
0
0
1477
1239
1796
1392
1627
1425
1807
1597
1969
1564
1841
1569
1938
1554
1913
1717
2090
1867
2132
1881
2114
1765
2102
1770
2162
1895
2210
1960
2154
1941
2226
1853
2286
1959
2354
2135
2404
2031
2263
1970
2255
2038
2420
2167
2506
2106
2246
1929
2206
1834
2212
1919
2228
1819
2163
1919
2342
1942
2278
1850
2037
1781
2036
1923
2267
1920
2192
1738
1970
1721
1990
1774
2198
1847
2074
1693
1954
1700
1926
1682
1986
1846
2196
1837
2050
1661
1951
1669
1906
1641
2076
1714
1992
1520
1774
1517
1841
1650
2008
1809
1993
1538
1786
1377
1650
1147
0
0
1567
1466
1953
1645
1966
1738
2038
1834
2070
1757
2054
1729
2012
1676
2037
1841
2154
1826
2149
1877
2066
1893
2101
1875
2253
1957
2327
1986
2261
1970
2166
1929
2133
2011
2342
2059
2360
2059
2257
1864
2205
2109
2341
2018
2436
2034
2181
1797
2106
1890
2231
1890
2178
1741
2045
1789
2184
1938
2109
1770
1995
1641
1945
1721
2077
1765
1972
1701
1903
1604
1800
1519
1906
1742
1899
1508
1755
1404
1714
1501
1793
1640
2003
1699
1703
1467
1620
1416
1626
1368
1723
1498
1654
1396
1540
1357
1647
1254
1871
1499
1754
1308
1465
1036
1369
917
0
0
1339
1307
1781
1513
1825
1597
1925
1647
1931
1649
1889
1454
1865
1593
1902
1689
1951
1588
1988
1557
1937
1718
1958
1666
2072
1838
2213
1925
2218
1858
2114
1853
1979
1789
2255
1898
2234
1897
2130
1797
2114
1829
2258
1950
2354
1913
2120
1741
1988
1729
2154
1787
2067
1591
1970
1725
2137
1824
2025
1759
1810
1553
1813
1557
1934
1546
1883
1562
1781
1494
1659
1370
1895
1574
1769
1421
1666
1365
1596
1397
1716
1559
1974
1607
1729
1435
1597
1222
1570
1286
1637
1325
1557
1154
1387
1157
1495
1182
1679
1374
1580
1184
1337
932
1210
719
0
0
1079
1061
1481
1185
1538
1285
1544
1350
1581
1250
1562
1179
1590
1298
1594
1288
1705
1329
1606
1310
1610
1397
1659
1406
1845
1493
1947
1682
1937
1618
1833
1524
1778
1445
1957
1589
1986
1666
1932
1549
1910
1594
1987
1652
1996
1677
1850
1405
1693
1557
1921
1550
1801
1381
1706
1578
1972
1645
1832
1384
1570
1307
1606
1378
1741
1349
1594
1327
1469
1173
1437
1198
1578
1336
1559
1195
1418
1110
1236
1084
1469
1269
1776
1489
1481
1178
1361
1041
1302
1058
1377
1160
1370
970
1172
1016
1266
927
1434
1042
1258
969
1061
698
971
498
0
0
1394
1318
1803
1520
1888
1532
1853
1550
1850
1476
1874
1482
1862
1613
1850
1568
2037
1597
1930
1630
2006
1712
2055
1741
2112
1782
2210
1940
2295
1965
2200
1974
2178
2003
2345
2074
2453
2165
2427
2033
2331
1990
2336
2073
2511
2122
2385
1997
2275
1997
2381
2111
2347
1845
2308
2011
2442
2114
2218
1872
2056
1810
2128
1795
2188
1899
2196
1844
2082
1789
1990
1739
2045
1845
2116
1796
1966
1593
1938
1680
2050
1859
2337
1978
2074
1713
1898
1590
1862
1551
2041
1677
1937
1584
1698
1517
1789
1462
1933
1569
1815
1448
1699
1259
1574
1081
0
0
1637
1595
1950
1837
2085
1708
1981
1666
1973
1686
2060
1622
2034
1891
2149
1870
2102
1810
1953
1737
2166
1852
2162
1866
2133
1823
2278
2030
2181
1923
2267
1947
2249
2012
2269
2109
2501
2325
2514
2067
2382
2007
2271
2037
2401
2181
2178
1866
2166
1911
2286
1869
2074
1722
2000
1805
2186
1845
2062
1597
1835
1565
1813
1572
2015
1804
2113
1642
1834
1640
1905
1623
1882
1720
1870
1524
1674
1418
1654
1512
1765
1673
2037
1741
1927
1438
1708
1405
1602
1371
1702
1492
1693
1307
1459
1195
1499
1231
1582
1338
1584
1130
1343
1064
1361
734
0
0
1611
1586
1953
1725
1974
1556
1877
1616
1828
1492
1897
1577
1909
1750
2063
1733
1986
1605
1915
1578
1979
1620
1992
1673
1946
1630
2125
1869
2103
1819
2150
1755
2077
1815
2138
1878
2317
2126
2422
1955
2269
1845
2198
1882
2307
1944
2036
1666
2103
1773
2106
1811
2063
1732
1933
1691
2077
1699
1979
1576
1765
1465
1766
1412
2011
1700
1929
1586
1799
1545
1785
1501
1792
1572
1762
1489
1630
1333
1609
1354
1743
1531
1922
1618
1781
1321
1567
1314
1492
1246
1629
1425
1594
1137
1398
1147
1445
1111
1531
1170
1454
1001
1225
952
1210
714
0
0
1278
1274
1626
1388
1559
1252
1617
1248
1533
1250
1656
1283
1632
1491
1690
1458
1642
1425
1635
1410
1643
1391
1670
1411
1690
1437
1715
1490
1843
1508
1868
1574
1826
1549
1813
1683
1950
1785
1994
1658
1889
1654
1806
1566
1942
1707
1742
1400
1828
1553
1864
1672
1845
1462
1709
1542
1780
1425
1669
1322
1498
1227
1450
1160
1700
1360
1750
1333
1535
1293
1569
1299
1518
1377
1545
1258
1382
1102
1273
962
1370
1192
1549
1316
1480
1061
1317
1089
1213
962
1333
1225
1370
1006
1232
937
1165
908
1290
1035
1156
787
1074
722
954
433
0
0
1512
1435
1750
1463
1803
1353
1830
1484
1747
1499
1909
1613
1923
1759
1910
1691
2045
1607
2015
1677
1973
1590
2033
1757
2052
1710
2181
1902
2167
1878
2314
1946
2180
1878
2312
2014
2393
2093
2349
1899
2220
1847
2188
1917
2426
2105
2157
1917
2197
1997
2286
2028
2266
1827
2116
1845
2307
1963
2124
1778
2050
1643
1923
1637
2070
1795
2121
1770
1989
1725
2026
1809
2123
1892
2148
1834
2028
1605
1917
1533
1882
1636
2020
1749
1942
1597
1866
1483
1876
1508
1882
1702
1979
1445
1777
1448
1654
1373
1709
1467
1766
1261
1559
1248
1541
966
0
0
1706
1610
2029
1644
1820
1681
2028
1749
2058
1765
2052
1946
2174
1937
2098
1776
2049
1789
2125
1898
2067
1830
2125
1862
2067
1834
2154
1998
2317
2053
2294
1926
2178
1910
2199
2058
2427
2158
2337
2011
2299
1899
2212
2034
2301
2039
2124
1886
2105
1806
2221
1917
2139
1742
2017
1812
2085
1851
1987
1700
1845
1610
1813
1551
1995
1661
1898
1738
1911
1626
1854
1594
1911
1797
2116
1681
1870
1600
1707
1413
1765
1489
1742
1609
1694
1513
1593
1394
1723
1405
1717
1494
1774
1425
1613
1330
1458
1327
1588
1194
1439
1156
1314
1006
1306
917
0
0
1557
1434
1819
1418
1632
1457
1824
1562
1876
1614
2090
1846
2127
1799
1948
1638
1885
1607
2027
1751
1942
1737
1929
1629
1908
1658
2029
1734
2209
1891
2056
1746
2058
1780
2057
1949
2234
2029
2176
1867
2042
1800
2109
1917
2218
1973
2098
1690
1950
1746
2033
1810
2082
1634
1905
1634
1897
1666
1818
1487
1715
1510
1786
1413
1818
1605
1835
1602
1810
1445
1672
1422
1822
1589
2029
1578
1774
1373
1645
1282
1668
1301
1554
1403
1610
1364
1485
1221
1549
1339
1668
1491
1781
1370
1591
1159
1421
1218
1477
1034
1309
1026
1234
952
1193
598
0
0
1129
1130
1413
1141
1358
1107
1467
1192
1684
1363
1812
1547
1809
1422
1580
1355
1562
1322
1707
1473
1669
1364
1642
1333
1673
1429
1738
1448
1818
1533
1738
1513
1720
1454
1633
1557
1902
1685
1831
1509
1793
1438
1714
1656
2035
1653
1815
1485
1684
1318
1842
1490
1707
1416
1597
1321
1589
1341
1535
1222
1457
1234
1394
1166
1559
1334
1680
1428
1568
1242
1499
1215
1490
1273
1646
1305
1534
1188
1305
1045
1352
998
1314
1135
1322
1066
1222
1065
1291
1109
1528
1224
1540
1189
1365
1027
1141
945
1194
826
1122
795
1013
746
872
521
0
0
1365
1306
1716
1366
1645
1370
1757
1454
1956
1728
2130
1777
2024
1642
1865
1682
1913
1653
2021
1834
2073
1762
2075
1711
2100
1806
2133
1866
2230
1893
2181
1802
2187
1851
2202
1968
2325
2148
2361
1963
2165
1794
2199
2066
2431
2057
2234
1878
2180
1890
2282
1965
2240
1814
2114
1717
2088
1819
2129
1771
2017
1636
1893
1676
2085
1809
2253
1948
2053
1662
1974
1709
2005
1689
2093
1734
1981
1621
1790
1581
1942
1504
1945
1686
1938
1691
1811
1581
1849
1554
1980
1751
2053
1674
1906
1463
1717
1526
1829
1447
1740
1361
1558
1294
1524
949
0
0
1593
1498
1878
1658
1862
1607
2033
1802
2125
2105
2232
1997
2109
1809
2049
1730
2078
1862
2173
1980
2244
1881
2184
1819
2141
1924
2196
1962
2445
2109
2287
1833
2185
1888
2269
2139
2464
2266
2414
1978
2106
1896
2076
1942
2266
1962
2100
1813
2180
1892
2260
1961
2059
1770
1965
1682
1947
1787
1966
1723
1936
1493
1869
1611
1951
1680
2069
1646
1903
1526
1804
1605
1786
1515
1788
1570
1680
1355
1687
1412
1686
1421
1718
1514
1925
1635
1709
1363
1646
1422
1711
1636
1819
1483
1670
1312
1620
1294
1611
1381
1578
1282
1462
1069
1346
778
0
0
1362
1252
1634
1416
1706
1408
1747
1489
1899
1758
2021
1709
1786
1461
1810
1513
1842
1605
1960
1745
1988
1655
2014
1625
1942
1609
2102
1821
2229
1913
1997
1626
2037
1655
2046
1925
2274
2045
2192
1706
1846
1648
1930
1787
2067
1755
1926
1604
1959
1661
1994
1818
1936
1593
1844
1570
1769
1578
1874
1532
1782
1390
1673
1342
1745
1420
1877
1477
1763
1362
1634
1448
1669
1370
1590
1363
1558
1234
1465
1233
1519
1193
1571
1402
1741
1522
1570
1256
1464
1230
1475
1387
1680
1353
1482
1097
1412
1133
1482
1289
1561
1161
1331
889
1078
514
0
0
1060
981
1339
1194
1470
1179
1509
1262
1539
1444
1585
1348
1526
1288
1477
1210
1542
1329
1620
1517
1757
1463
1762
1333
1691
1394
1736
1586
2005
1699
1842
1434
1640
1360
1681
1659
2031
1677
1864
1395
1629
1341
1678
1572
1841
1546
1641
1369
1722
1398
1794
1602
1662
1397
1604
1294
1508
1335
1551
1404
1574
1166
1473
1160
1433
1120
1623
1170
1449
1143
1349
1225
1443
1130
1397
1186
1336
1003
1195
984
1261
1054
1333
1203
1552
1221
1301
1005
1236
1061
1257
1184
1314
981
1157
930
1083
925
1210
1074
1314
925
1098
690
997
410
0
0
1321
1174
1606
1418
1720
1462
1849
1609
1893
1714
1843
1617
1746
1452
1806
1493
1896
1635
2024
1845
2199
1784
2154
1741
2044
1802
2154
1941
2376
2052
2325
1758
2101
1714
2207
2008
2397
2054
2277
1874
2039
1854
2134
1976
2255
1866
2107
1787
2167
1832
2251
2036
2238
1883
2085
1803
2059
1741
2068
1861
2069
1634
2000
1538
1997
1661
1997
1675
2030
1659
1922
1742
1972
1713
1950
1707
1898
1577
1782
1574
1832
1589
1919
1653
2139
1738
1865
1514
1833
1589
1823
1698
1917
1492
1787
1423
1779
1502
1734
1515
1758
1505
1609
1258
1517
890
0
0
1546
1482
1787
1580
1897
1614
2025
1827
2130
1834
1957
1601
1941
1668
1955
1707
2013
1770
2138
1915
2234
1960
2219
1842
2107
1811
2153
2005
2373
2118
2347
1834
2138
1725
2065
2005
2323
2085
2285
1839
2003
1779
2107
1890
2142
1877
2021
1684
1979
1771
2085
1888
2071
1802
1897
1706
1874
1669
1993
1586
1908
1573
1831
1497
1842
1535
1940
1701
1838
1466
1864
1613
1754
1540
1854
1554
1845
1403
1574
1354
1583
1341
1617
1557
1754
1515
1682
1353
1563
1257
1572
1331
1618
1337
1483
1190
1429
1252
1518
1286
1465
1193
1269
1029
1323
766
0
0
1408
1169
1652
1353
1717
1433
1862
1607
1958
1494
1786
1445
1741
1434
1777
1426
1799
1530
1867
1669
2015
1764
1981
1593
1875
1614
1932
1874
2237
1928
2073
1559
1869
1539
1885
1653
2018
1871
2093
1637
1789
1537
1933
1738
1965
1620
1803
1426
1773
1556
1840
1716
1981
1674
1764
1558
1668
1510
1767
1370
1733
1428
1725
1326
1602
1305
1737
1452
1690
1322
1640
1410
1637
1434
1797
1450
1713
1432
1511
1237
1428
1165
1430
1289
1604
1317
1482
1176
1370
1179
1405
1154
1410
1197
1337
1078
1236
983
1275
1053
1281
1076
1149
866
1034
591
0
0
1035
910
1337
1214
1422
1125
1545
1349
1627
1200
1439
1138
1467
1221
1497
1118
1522
1219
1448
1352
1722
1442
1624
1291
1628
1313
1677
1659
1909
1663
1762
1261
1626
1333
1557
1403
1722
1476
1731
1314
1538
1322
1557
1442
1733
1330
1559
1196
1485
1252
1619
1416
1703
1419
1431
1194
1426
1219
1509
1161
1509
1155
1508
1066
1441
1167
1465
1224
1530
1134
1404
1181
1330
1184
1585
1314
1611
1178
1358
979
1218
981
1302
1123
1381
1059
1183
944
1066
847
1192
979
1239
819
1102
885
1083
825
1153
905
1092
771
861
637
930
429
0
0
1243
1144
1537
1307
1627
1258
1813
1543
1811
1431
1725
1356
1709
1424
1797
1533
1802
1466
1853
1717
2071
1684
1992
1597
1961
1644
2111
1969
2290
1925
2201
1693
2011
1686
2004
1861
2210
1877
2122
1692
1911
1723
2058
1892
2094
1821
2005
1663
1959
1675
2002
1885
2298
1812
1975
1685
1905
1662
2054
1690
2121
1754
2027
1620
1918
1641
1947
1659
2046
1636
1906
1650
1955
1751
2258
1867
2153
1693
1905
1461
1765
1411
1717
1579
1930
1627
1815
1450
1639
1433
1695
1473
1780
1499
1637
1373
1577
1365
1725
1413
1653
1355
1472
1092
1482
973
0
0
1318
1230
1629
1381
1672
1390
1866
1633
1858
1446
1760
1580
1814
1530
1881
1528
1942
1626
1927
1785
2077
1695
1882
1582
1942
1686
2041
1904
2191
1815
1995
1727
1913
1645
2054
1861
2179
1794
2074
1643
1829
1661
1977
1765
2076
1653
1794
1556
1813
1519
1947
1844
2000
1637
1810
1573
1851
1563
1937
1715
2075
1722
1894
1512
1697
1492
1890
1645
1854
1501
1723
1422
1647
1451
1851
1635
1811
1371
1521
1314
1487
1297
1550
1340
1706
1422
1600
1192
1477
1338
1494
1342
1610
1242
1306
1033
1338
1073
1362
1127
1349
1066
1268
939
1147
603
0
0
1039
973
1306
1082
1421
1207
1663
1259
1563
1166
1516
1260
1611
1251
1629
1317
1605
1326
1677
1549
1870
1435
1668
1393
1641
1448
1847
1620
1876
1459
1759
1357
1776
1432
1786
1675
1943
1557
1863
1427
1593
1396
1765
1488
1864
1425
1669
1322
1615
1304
1811
1634
1899
1425
1596
1343
1703
1424
1916
1614
1962
1501
1675
1256
1589
1394
1818
1521
1673
1323
1520
1257
1482
1231
1573
1315
1570
1144
1333
1037
1386
1083
1425
1098
1495
1154
1349
1038
1284
1098
1300
1050
1464
1094
1171
905
1218
790
1194
922
1171
840
1121
802
949
508
0
0
610
521
790
597
875
685
1131
735
1059
748
996
671
1066
810
1129
817
1129
763
1258
1005
1341
909
1138
912
1257
980
1326
1099
1414
1046
1243
869
1279
917
1332
1162
1477
1037
1449
997
1163
1017
1317
1063
1277
918
1133
848
1248
970
1278
1133
1399
1033
1221
950
1296
1057
1494
1105
1427
1047
1147
903
1122
977
1274
1044
1178
846
1072
757
1019
787
1073
865
1053
674
834
535
862
587
945
753
1053
747
914
507
813
610
901
602
985
622
742
494
797
366
760
553
659
488
735
349
590
120
0
0
0
0
0
0
0
0
0
0
0
0
0
0
0
0
0
0
0
0
0
0
0
0
0
0
0
0
0
0
0
0
0
0
0
0
0
0
0
0
0
0
0
0
0
0
0
0
0
0
0
0
0
0
0
0
0
0
0
0
0
0
0
0
0
0
0
0
0
0
0
0
0
0
0
0
0
0
0
0
0
0
0
0
0
0
0
0
0
0
0
0
0
0
0
0
0
0
0
0
0
0
0
0
0
0
0
0
0
